let json = {
  "header": {
    "PPQ": 480,
    "timeSignature": [
      4,
      4
    ],
    "bpm": 162.000162000162,
    "name": ""
  },
  "tempo": [
    {
      "absoluteTime": 0,
      "seconds": 0,
      "bpm": 162.000162000162
    }
  ],
  "timeSignature": [
    {
      "absoluteTime": 0,
      "seconds": 0,
      "numerator": 4,
      "denominator": 2,
      "click": 24,
      "notesQ": 8
    }
  ],
  "startTime": 0,
  "duration": 131.85094839583397,
  "tracks": [
    {
      "startTime": 0,
      "duration": 131.85094839583397,
      "length": 1058,
      "notes": [
        {
          "name": "G3",
          "midi": 55,
          "time": 0,
          "velocity": 0.3858267716535433,
          "duration": 0.7399683958333334
        },
        {
          "name": "C#4",
          "midi": 61,
          "time": 0.032407375,
          "velocity": 0.3858267716535433,
          "duration": 0.7067894166666667
        },
        {
          "name": "F4",
          "midi": 65,
          "time": 0.06558635416666667,
          "velocity": 0.3858267716535433,
          "duration": 0.6736104375
        },
        {
          "name": "G3",
          "midi": 55,
          "time": 0.7407400000000001,
          "velocity": 0.3858267716535433,
          "duration": 0.6419746666666669
        },
        {
          "name": "A#3",
          "midi": 58,
          "time": 0.7731473750000001,
          "velocity": 0.3858267716535433,
          "duration": 0.5895055833333335
        },
        {
          "name": "E4",
          "midi": 64,
          "time": 0.8063263541666668,
          "velocity": 0.3858267716535433,
          "duration": 0.6736104375000003
        },
        {
          "name": "C5",
          "midi": 72,
          "time": 1.4814800000000004,
          "velocity": 0.7559055118110236,
          "duration": 0.3695983958333333
        },
        {
          "name": "D#5",
          "midi": 75,
          "time": 1.4814800000000004,
          "velocity": 0.7559055118110236,
          "duration": 0.3695983958333333
        },
        {
          "name": "C6",
          "midi": 84,
          "time": 1.4814800000000004,
          "velocity": 0.7559055118110236,
          "duration": 0.3695983958333333
        },
        {
          "name": "G4",
          "midi": 67,
          "time": 1.8518500000000004,
          "velocity": 0.7559055118110236,
          "duration": 0.18441339583333316
        },
        {
          "name": "G5",
          "midi": 79,
          "time": 1.8518500000000004,
          "velocity": 0.7559055118110236,
          "duration": 0.18441339583333316
        },
        {
          "name": "G4",
          "midi": 67,
          "time": 2.0370350000000004,
          "velocity": 0.7559055118110236,
          "duration": 0.18441339583333338
        },
        {
          "name": "G5",
          "midi": 79,
          "time": 2.0370350000000004,
          "velocity": 0.7559055118110236,
          "duration": 0.18441339583333338
        },
        {
          "name": "F4",
          "midi": 65,
          "time": 2.2222200000000005,
          "velocity": 0.7559055118110236,
          "duration": 0.36959839583333354
        },
        {
          "name": "A#4",
          "midi": 70,
          "time": 2.2222200000000005,
          "velocity": 0.7559055118110236,
          "duration": 0.36959839583333354
        },
        {
          "name": "F5",
          "midi": 77,
          "time": 2.2222200000000005,
          "velocity": 0.7559055118110236,
          "duration": 0.36959839583333354
        },
        {
          "name": "G#4",
          "midi": 68,
          "time": 2.592590000000001,
          "velocity": 0.7559055118110236,
          "duration": 0.36959839583333354
        },
        {
          "name": "C5",
          "midi": 72,
          "time": 2.592590000000001,
          "velocity": 0.7559055118110236,
          "duration": 0.36959839583333354
        },
        {
          "name": "G#5",
          "midi": 80,
          "time": 2.592590000000001,
          "velocity": 0.7559055118110236,
          "duration": 0.36959839583333354
        },
        {
          "name": "G4",
          "midi": 67,
          "time": 2.962960000000001,
          "velocity": 0.7559055118110236,
          "duration": 0.36959839583333354
        },
        {
          "name": "A#4",
          "midi": 70,
          "time": 2.962960000000001,
          "velocity": 0.7559055118110236,
          "duration": 0.36959839583333354
        },
        {
          "name": "G5",
          "midi": 79,
          "time": 2.962960000000001,
          "velocity": 0.7559055118110236,
          "duration": 0.36959839583333354
        },
        {
          "name": "D5",
          "midi": 74,
          "time": 3.3333300000000015,
          "velocity": 0.7559055118110236,
          "duration": 0.36959839583333354
        },
        {
          "name": "F5",
          "midi": 77,
          "time": 3.3333300000000015,
          "velocity": 0.7559055118110236,
          "duration": 0.36959839583333354
        },
        {
          "name": "D6",
          "midi": 86,
          "time": 3.3333300000000015,
          "velocity": 0.7559055118110236,
          "duration": 0.36959839583333354
        },
        {
          "name": "C5",
          "midi": 72,
          "time": 3.7037000000000018,
          "velocity": 0.7559055118110236,
          "duration": 0.36959839583333354
        },
        {
          "name": "D#5",
          "midi": 75,
          "time": 3.7037000000000018,
          "velocity": 0.7559055118110236,
          "duration": 0.36959839583333354
        },
        {
          "name": "C6",
          "midi": 84,
          "time": 3.7037000000000018,
          "velocity": 0.7559055118110236,
          "duration": 0.36959839583333354
        },
        {
          "name": "G4",
          "midi": 67,
          "time": 4.074070000000002,
          "velocity": 0.7559055118110236,
          "duration": 0.3695983958333331
        },
        {
          "name": "C5",
          "midi": 72,
          "time": 4.074070000000002,
          "velocity": 0.7559055118110236,
          "duration": 0.3695983958333331
        },
        {
          "name": "G5",
          "midi": 79,
          "time": 4.074070000000002,
          "velocity": 0.7559055118110236,
          "duration": 0.3695983958333331
        },
        {
          "name": "C5",
          "midi": 72,
          "time": 4.444440000000001,
          "velocity": 0.7559055118110236,
          "duration": 0.3695983958333331
        },
        {
          "name": "F5",
          "midi": 77,
          "time": 4.444440000000001,
          "velocity": 0.7559055118110236,
          "duration": 0.3695983958333331
        },
        {
          "name": "C6",
          "midi": 84,
          "time": 4.444440000000001,
          "velocity": 0.7559055118110236,
          "duration": 0.3695983958333331
        },
        {
          "name": "G4",
          "midi": 67,
          "time": 4.8148100000000005,
          "velocity": 0.7559055118110236,
          "duration": 0.18441339583333338
        },
        {
          "name": "G5",
          "midi": 79,
          "time": 4.8148100000000005,
          "velocity": 0.7559055118110236,
          "duration": 0.18441339583333338
        },
        {
          "name": "G4",
          "midi": 67,
          "time": 4.999995,
          "velocity": 0.7559055118110236,
          "duration": 0.18441339583333338
        },
        {
          "name": "G5",
          "midi": 79,
          "time": 4.999995,
          "velocity": 0.7559055118110236,
          "duration": 0.18441339583333338
        },
        {
          "name": "F4",
          "midi": 65,
          "time": 5.18518,
          "velocity": 0.7559055118110236,
          "duration": 0.3695983958333331
        },
        {
          "name": "B4",
          "midi": 71,
          "time": 5.18518,
          "velocity": 0.7559055118110236,
          "duration": 0.3695983958333331
        },
        {
          "name": "F5",
          "midi": 77,
          "time": 5.18518,
          "velocity": 0.7559055118110236,
          "duration": 0.3695983958333331
        },
        {
          "name": "G#4",
          "midi": 68,
          "time": 5.555549999999999,
          "velocity": 0.7559055118110236,
          "duration": 0.3695983958333331
        },
        {
          "name": "B4",
          "midi": 71,
          "time": 5.555549999999999,
          "velocity": 0.7559055118110236,
          "duration": 0.3695983958333331
        },
        {
          "name": "G#5",
          "midi": 80,
          "time": 5.555549999999999,
          "velocity": 0.7559055118110236,
          "duration": 0.3695983958333331
        },
        {
          "name": "G4",
          "midi": 67,
          "time": 5.925919999999999,
          "velocity": 0.7559055118110236,
          "duration": 0.3695983958333331
        },
        {
          "name": "A#4",
          "midi": 70,
          "time": 5.925919999999999,
          "velocity": 0.7559055118110236,
          "duration": 0.3695983958333331
        },
        {
          "name": "G5",
          "midi": 79,
          "time": 5.925919999999999,
          "velocity": 0.7559055118110236,
          "duration": 0.3695983958333331
        },
        {
          "name": "F4",
          "midi": 65,
          "time": 6.296289999999998,
          "velocity": 0.7559055118110236,
          "duration": 0.3695983958333331
        },
        {
          "name": "G#4",
          "midi": 68,
          "time": 6.296289999999998,
          "velocity": 0.7559055118110236,
          "duration": 0.3695983958333331
        },
        {
          "name": "F5",
          "midi": 77,
          "time": 6.296289999999998,
          "velocity": 0.7559055118110236,
          "duration": 0.3695983958333331
        },
        {
          "name": "E5",
          "midi": 76,
          "time": 6.666659999999998,
          "velocity": 0.7559055118110236,
          "duration": 0.09182089583333308
        },
        {
          "name": "G5",
          "midi": 79,
          "time": 6.666659999999998,
          "velocity": 0.7559055118110236,
          "duration": 0.09182089583333308
        },
        {
          "name": "C#5",
          "midi": 73,
          "time": 6.851844999999997,
          "velocity": 0.7559055118110236,
          "duration": 0.09182089583333308
        },
        {
          "name": "E5",
          "midi": 76,
          "time": 6.851844999999997,
          "velocity": 0.7559055118110236,
          "duration": 0.09182089583333308
        },
        {
          "name": "A#4",
          "midi": 70,
          "time": 7.037029999999997,
          "velocity": 0.7559055118110236,
          "duration": 0.09182089583333308
        },
        {
          "name": "C#5",
          "midi": 73,
          "time": 7.037029999999997,
          "velocity": 0.7559055118110236,
          "duration": 0.09182089583333308
        },
        {
          "name": "G4",
          "midi": 67,
          "time": 7.222214999999997,
          "velocity": 0.7559055118110236,
          "duration": 0.09182089583333308
        },
        {
          "name": "A#4",
          "midi": 70,
          "time": 7.222214999999997,
          "velocity": 0.7559055118110236,
          "duration": 0.09182089583333308
        },
        {
          "name": "C5",
          "midi": 72,
          "time": 7.407399999999996,
          "velocity": 0.7559055118110236,
          "duration": 0.3695983958333331
        },
        {
          "name": "D#5",
          "midi": 75,
          "time": 7.407399999999996,
          "velocity": 0.7559055118110236,
          "duration": 0.3695983958333331
        },
        {
          "name": "C6",
          "midi": 84,
          "time": 7.407399999999996,
          "velocity": 0.7559055118110236,
          "duration": 0.3695983958333331
        },
        {
          "name": "G4",
          "midi": 67,
          "time": 7.777769999999996,
          "velocity": 0.7559055118110236,
          "duration": 0.18441339583333338
        },
        {
          "name": "G5",
          "midi": 79,
          "time": 7.777769999999996,
          "velocity": 0.7559055118110236,
          "duration": 0.18441339583333338
        },
        {
          "name": "G4",
          "midi": 67,
          "time": 7.962954999999996,
          "velocity": 0.7559055118110236,
          "duration": 0.18441339583333338
        },
        {
          "name": "G5",
          "midi": 79,
          "time": 7.962954999999996,
          "velocity": 0.7559055118110236,
          "duration": 0.18441339583333338
        },
        {
          "name": "F4",
          "midi": 65,
          "time": 8.148139999999996,
          "velocity": 0.7559055118110236,
          "duration": 0.369598395833334
        },
        {
          "name": "A#4",
          "midi": 70,
          "time": 8.148139999999996,
          "velocity": 0.7559055118110236,
          "duration": 0.369598395833334
        },
        {
          "name": "F5",
          "midi": 77,
          "time": 8.148139999999996,
          "velocity": 0.7559055118110236,
          "duration": 0.369598395833334
        },
        {
          "name": "G#4",
          "midi": 68,
          "time": 8.518509999999997,
          "velocity": 0.7559055118110236,
          "duration": 0.369598395833334
        },
        {
          "name": "C5",
          "midi": 72,
          "time": 8.518509999999997,
          "velocity": 0.7559055118110236,
          "duration": 0.369598395833334
        },
        {
          "name": "G#5",
          "midi": 80,
          "time": 8.518509999999997,
          "velocity": 0.7559055118110236,
          "duration": 0.369598395833334
        },
        {
          "name": "G4",
          "midi": 67,
          "time": 8.888879999999999,
          "velocity": 0.7559055118110236,
          "duration": 0.369598395833334
        },
        {
          "name": "A#4",
          "midi": 70,
          "time": 8.888879999999999,
          "velocity": 0.7559055118110236,
          "duration": 0.369598395833334
        },
        {
          "name": "G5",
          "midi": 79,
          "time": 8.888879999999999,
          "velocity": 0.7559055118110236,
          "duration": 0.369598395833334
        },
        {
          "name": "D5",
          "midi": 74,
          "time": 9.25925,
          "velocity": 0.7559055118110236,
          "duration": 0.369598395833334
        },
        {
          "name": "F5",
          "midi": 77,
          "time": 9.25925,
          "velocity": 0.7559055118110236,
          "duration": 0.369598395833334
        },
        {
          "name": "D6",
          "midi": 86,
          "time": 9.25925,
          "velocity": 0.7559055118110236,
          "duration": 0.369598395833334
        },
        {
          "name": "C5",
          "midi": 72,
          "time": 9.629620000000001,
          "velocity": 0.7559055118110236,
          "duration": 0.369598395833334
        },
        {
          "name": "D#5",
          "midi": 75,
          "time": 9.629620000000001,
          "velocity": 0.7559055118110236,
          "duration": 0.369598395833334
        },
        {
          "name": "C6",
          "midi": 84,
          "time": 9.629620000000001,
          "velocity": 0.7559055118110236,
          "duration": 0.369598395833334
        },
        {
          "name": "G4",
          "midi": 67,
          "time": 9.999990000000002,
          "velocity": 0.7559055118110236,
          "duration": 0.369598395833334
        },
        {
          "name": "C5",
          "midi": 72,
          "time": 9.999990000000002,
          "velocity": 0.7559055118110236,
          "duration": 0.369598395833334
        },
        {
          "name": "G5",
          "midi": 79,
          "time": 9.999990000000002,
          "velocity": 0.7559055118110236,
          "duration": 0.369598395833334
        },
        {
          "name": "C5",
          "midi": 72,
          "time": 10.370360000000003,
          "velocity": 0.7559055118110236,
          "duration": 0.369598395833334
        },
        {
          "name": "F5",
          "midi": 77,
          "time": 10.370360000000003,
          "velocity": 0.7559055118110236,
          "duration": 0.369598395833334
        },
        {
          "name": "C6",
          "midi": 84,
          "time": 10.370360000000003,
          "velocity": 0.7559055118110236,
          "duration": 0.369598395833334
        },
        {
          "name": "G4",
          "midi": 67,
          "time": 10.740730000000005,
          "velocity": 0.7559055118110236,
          "duration": 0.18441339583333338
        },
        {
          "name": "G5",
          "midi": 79,
          "time": 10.740730000000005,
          "velocity": 0.7559055118110236,
          "duration": 0.18441339583333338
        },
        {
          "name": "G4",
          "midi": 67,
          "time": 10.925915000000005,
          "velocity": 0.7559055118110236,
          "duration": 0.18441339583333338
        },
        {
          "name": "G5",
          "midi": 79,
          "time": 10.925915000000005,
          "velocity": 0.7559055118110236,
          "duration": 0.18441339583333338
        },
        {
          "name": "F4",
          "midi": 65,
          "time": 11.111100000000006,
          "velocity": 0.7559055118110236,
          "duration": 0.369598395833334
        },
        {
          "name": "B4",
          "midi": 71,
          "time": 11.111100000000006,
          "velocity": 0.7559055118110236,
          "duration": 0.369598395833334
        },
        {
          "name": "F5",
          "midi": 77,
          "time": 11.111100000000006,
          "velocity": 0.7559055118110236,
          "duration": 0.369598395833334
        },
        {
          "name": "G#4",
          "midi": 68,
          "time": 11.481470000000007,
          "velocity": 0.7559055118110236,
          "duration": 0.369598395833334
        },
        {
          "name": "B4",
          "midi": 71,
          "time": 11.481470000000007,
          "velocity": 0.7559055118110236,
          "duration": 0.369598395833334
        },
        {
          "name": "G#5",
          "midi": 80,
          "time": 11.481470000000007,
          "velocity": 0.7559055118110236,
          "duration": 0.369598395833334
        },
        {
          "name": "G4",
          "midi": 67,
          "time": 11.851840000000008,
          "velocity": 0.7559055118110236,
          "duration": 0.369598395833334
        },
        {
          "name": "A#4",
          "midi": 70,
          "time": 11.851840000000008,
          "velocity": 0.7559055118110236,
          "duration": 0.369598395833334
        },
        {
          "name": "G5",
          "midi": 79,
          "time": 11.851840000000008,
          "velocity": 0.7559055118110236,
          "duration": 0.369598395833334
        },
        {
          "name": "F4",
          "midi": 65,
          "time": 12.22221000000001,
          "velocity": 0.7559055118110236,
          "duration": 0.369598395833334
        },
        {
          "name": "G#4",
          "midi": 68,
          "time": 12.22221000000001,
          "velocity": 0.7559055118110236,
          "duration": 0.369598395833334
        },
        {
          "name": "F5",
          "midi": 77,
          "time": 12.22221000000001,
          "velocity": 0.7559055118110236,
          "duration": 0.369598395833334
        },
        {
          "name": "G4",
          "midi": 67,
          "time": 12.59258000000001,
          "velocity": 0.7559055118110236,
          "duration": 0.18441339583333338
        },
        {
          "name": "E5",
          "midi": 76,
          "time": 12.59258000000001,
          "velocity": 0.7559055118110236,
          "duration": 0.18441339583333338
        },
        {
          "name": "G5",
          "midi": 79,
          "time": 12.59258000000001,
          "velocity": 0.7559055118110236,
          "duration": 0.18441339583333338
        },
        {
          "name": "C#5",
          "midi": 73,
          "time": 12.777765000000011,
          "velocity": 0.7559055118110236,
          "duration": 0.09182089583333308
        },
        {
          "name": "E5",
          "midi": 76,
          "time": 12.777765000000011,
          "velocity": 0.7559055118110236,
          "duration": 0.09182089583333308
        },
        {
          "name": "A#4",
          "midi": 70,
          "time": 12.962950000000012,
          "velocity": 0.7559055118110236,
          "duration": 0.09182089583333308
        },
        {
          "name": "C#5",
          "midi": 73,
          "time": 12.962950000000012,
          "velocity": 0.7559055118110236,
          "duration": 0.09182089583333308
        },
        {
          "name": "G4",
          "midi": 67,
          "time": 13.148135000000012,
          "velocity": 0.7559055118110236,
          "duration": 0.09182089583333308
        },
        {
          "name": "A#4",
          "midi": 70,
          "time": 13.148135000000012,
          "velocity": 0.7559055118110236,
          "duration": 0.09182089583333308
        },
        {
          "name": "D#5",
          "midi": 75,
          "time": 13.888875000000013,
          "velocity": 0.5984251968503937,
          "duration": 0.18441339583333338
        },
        {
          "name": "D5",
          "midi": 74,
          "time": 14.074060000000014,
          "velocity": 0.5984251968503937,
          "duration": 0.18441339583333338
        },
        {
          "name": "C5",
          "midi": 72,
          "time": 14.259245000000014,
          "velocity": 0.5984251968503937,
          "duration": 0.18441339583333338
        },
        {
          "name": "A#4",
          "midi": 70,
          "time": 14.444430000000015,
          "velocity": 0.5984251968503937,
          "duration": 0.18441339583333338
        },
        {
          "name": "G#4",
          "midi": 68,
          "time": 14.629615000000015,
          "velocity": 0.5984251968503937,
          "duration": 0.18441339583333338
        },
        {
          "name": "A#4",
          "midi": 70,
          "time": 14.814800000000016,
          "velocity": 0.5984251968503937,
          "duration": 0.369598395833334
        },
        {
          "name": "D#4",
          "midi": 63,
          "time": 15.185170000000017,
          "velocity": 0.5984251968503937,
          "duration": 0.18441339583333338
        },
        {
          "name": "D#6",
          "midi": 87,
          "time": 15.370355000000018,
          "velocity": 0.5039370078740157,
          "duration": 0.18441339583333338
        },
        {
          "name": "D6",
          "midi": 86,
          "time": 15.555540000000018,
          "velocity": 0.5039370078740157,
          "duration": 0.18441339583333338
        },
        {
          "name": "C6",
          "midi": 84,
          "time": 15.740725000000019,
          "velocity": 0.5039370078740157,
          "duration": 0.18441339583333338
        },
        {
          "name": "A#5",
          "midi": 82,
          "time": 15.92591000000002,
          "velocity": 0.5039370078740157,
          "duration": 0.1844133958333316
        },
        {
          "name": "G#5",
          "midi": 80,
          "time": 16.111095000000017,
          "velocity": 0.5039370078740157,
          "duration": 0.1844133958333316
        },
        {
          "name": "A#5",
          "midi": 82,
          "time": 16.296280000000014,
          "velocity": 0.5039370078740157,
          "duration": 0.3695983958333322
        },
        {
          "name": "D#5",
          "midi": 75,
          "time": 16.66665000000001,
          "velocity": 0.5039370078740157,
          "duration": 0.1844133958333316
        },
        {
          "name": "G#4",
          "midi": 68,
          "time": 16.85183500000001,
          "velocity": 0.5984251968503937,
          "duration": 0.1844133958333316
        },
        {
          "name": "G4",
          "midi": 67,
          "time": 17.037020000000005,
          "velocity": 0.5984251968503937,
          "duration": 0.1844133958333316
        },
        {
          "name": "F4",
          "midi": 65,
          "time": 17.222205000000002,
          "velocity": 0.5984251968503937,
          "duration": 0.1844133958333316
        },
        {
          "name": "D#4",
          "midi": 63,
          "time": 17.40739,
          "velocity": 0.5984251968503937,
          "duration": 0.1844133958333316
        },
        {
          "name": "D4",
          "midi": 62,
          "time": 17.592574999999997,
          "velocity": 0.5984251968503937,
          "duration": 0.1844133958333316
        },
        {
          "name": "G#4",
          "midi": 68,
          "time": 17.777759999999994,
          "velocity": 0.5984251968503937,
          "duration": 0.3695983958333322
        },
        {
          "name": "G4",
          "midi": 67,
          "time": 18.14812999999999,
          "velocity": 0.5984251968503937,
          "duration": 0.1844133958333316
        },
        {
          "name": "C6",
          "midi": 84,
          "time": 18.33331499999999,
          "velocity": 0.5039370078740157,
          "duration": 0.1844133958333316
        },
        {
          "name": "A#5",
          "midi": 82,
          "time": 18.518499999999985,
          "velocity": 0.5039370078740157,
          "duration": 0.1844133958333316
        },
        {
          "name": "G#5",
          "midi": 80,
          "time": 18.703684999999982,
          "velocity": 0.5039370078740157,
          "duration": 0.1844133958333316
        },
        {
          "name": "G5",
          "midi": 79,
          "time": 18.88886999999998,
          "velocity": 0.5039370078740157,
          "duration": 0.1844133958333316
        },
        {
          "name": "F#5",
          "midi": 78,
          "time": 19.074054999999976,
          "velocity": 0.5039370078740157,
          "duration": 0.1844133958333316
        },
        {
          "name": "G5",
          "midi": 79,
          "time": 19.259239999999973,
          "velocity": 0.5039370078740157,
          "duration": 0.3695983958333322
        },
        {
          "name": "D#5",
          "midi": 75,
          "time": 19.62960999999997,
          "velocity": 0.5039370078740157,
          "duration": 0.1844133958333316
        },
        {
          "name": "D#5",
          "midi": 75,
          "time": 19.814794999999968,
          "velocity": 0.5984251968503937,
          "duration": 0.1844133958333316
        },
        {
          "name": "D5",
          "midi": 74,
          "time": 19.999979999999965,
          "velocity": 0.5984251968503937,
          "duration": 0.1844133958333316
        },
        {
          "name": "C5",
          "midi": 72,
          "time": 20.185164999999962,
          "velocity": 0.5984251968503937,
          "duration": 0.1844133958333316
        },
        {
          "name": "A#4",
          "midi": 70,
          "time": 20.37034999999996,
          "velocity": 0.5984251968503937,
          "duration": 0.1844133958333316
        },
        {
          "name": "G#4",
          "midi": 68,
          "time": 20.555534999999956,
          "velocity": 0.5984251968503937,
          "duration": 0.1844133958333316
        },
        {
          "name": "A#4",
          "midi": 70,
          "time": 20.740719999999953,
          "velocity": 0.5984251968503937,
          "duration": 0.3695983958333322
        },
        {
          "name": "D#4",
          "midi": 63,
          "time": 21.11108999999995,
          "velocity": 0.5984251968503937,
          "duration": 0.1844133958333316
        },
        {
          "name": "D#6",
          "midi": 87,
          "time": 21.296274999999948,
          "velocity": 0.5039370078740157,
          "duration": 0.1844133958333316
        },
        {
          "name": "D6",
          "midi": 86,
          "time": 21.481459999999945,
          "velocity": 0.5039370078740157,
          "duration": 0.1844133958333316
        },
        {
          "name": "C6",
          "midi": 84,
          "time": 21.666644999999942,
          "velocity": 0.5039370078740157,
          "duration": 0.1844133958333316
        },
        {
          "name": "A#5",
          "midi": 82,
          "time": 21.85182999999994,
          "velocity": 0.5039370078740157,
          "duration": 0.1844133958333316
        },
        {
          "name": "G#5",
          "midi": 80,
          "time": 22.037014999999936,
          "velocity": 0.5039370078740157,
          "duration": 0.1844133958333316
        },
        {
          "name": "A#5",
          "midi": 82,
          "time": 22.222199999999933,
          "velocity": 0.5039370078740157,
          "duration": 0.3695983958333322
        },
        {
          "name": "D#5",
          "midi": 75,
          "time": 22.59256999999993,
          "velocity": 0.5039370078740157,
          "duration": 0.1844133958333316
        },
        {
          "name": "G#4",
          "midi": 68,
          "time": 22.777754999999928,
          "velocity": 0.5984251968503937,
          "duration": 0.1844133958333316
        },
        {
          "name": "G4",
          "midi": 67,
          "time": 22.962939999999925,
          "velocity": 0.5984251968503937,
          "duration": 0.1844133958333316
        },
        {
          "name": "F4",
          "midi": 65,
          "time": 23.148124999999922,
          "velocity": 0.5984251968503937,
          "duration": 0.1844133958333316
        },
        {
          "name": "D#4",
          "midi": 63,
          "time": 23.33330999999992,
          "velocity": 0.5984251968503937,
          "duration": 0.1844133958333316
        },
        {
          "name": "D4",
          "midi": 62,
          "time": 23.518494999999916,
          "velocity": 0.5984251968503937,
          "duration": 0.1844133958333316
        },
        {
          "name": "C4",
          "midi": 60,
          "time": 23.703679999999913,
          "velocity": 0.5984251968503937,
          "duration": 0.1844133958333316
        },
        {
          "name": "C4",
          "midi": 60,
          "time": 23.88886499999991,
          "velocity": 0.5984251968503937,
          "duration": 0.1844133958333316
        },
        {
          "name": "C5",
          "midi": 72,
          "time": 24.074049999999907,
          "velocity": 0.5984251968503937,
          "duration": 0.3695983958333322
        },
        {
          "name": "C4",
          "midi": 60,
          "time": 24.444419999999905,
          "velocity": 0.5984251968503937,
          "duration": 0.7399683958333334
        },
        {
          "name": "G4",
          "midi": 67,
          "time": 25.185159999999904,
          "velocity": 0.5984251968503937,
          "duration": 0.1844133958333316
        },
        {
          "name": "F4",
          "midi": 65,
          "time": 25.3703449999999,
          "velocity": 0.5984251968503937,
          "duration": 0.1844133958333316
        },
        {
          "name": "G4",
          "midi": 67,
          "time": 25.555529999999898,
          "velocity": 0.5984251968503937,
          "duration": 0.1844133958333316
        },
        {
          "name": "F4",
          "midi": 65,
          "time": 25.740714999999895,
          "velocity": 0.5984251968503937,
          "duration": 0.1844133958333316
        },
        {
          "name": "G4",
          "midi": 67,
          "time": 25.925899999999892,
          "velocity": 0.5984251968503937,
          "duration": 0.1844133958333316
        },
        {
          "name": "F4",
          "midi": 65,
          "time": 26.11108499999989,
          "velocity": 0.5984251968503937,
          "duration": 0.1844133958333316
        },
        {
          "name": "G4",
          "midi": 67,
          "time": 26.296269999999886,
          "velocity": 0.5984251968503937,
          "duration": 0.12268506250000044
        },
        {
          "name": "F4",
          "midi": 65,
          "time": 26.419726666666552,
          "velocity": 0.5984251968503937,
          "duration": 0.12268506250000044
        },
        {
          "name": "F4",
          "midi": 65,
          "time": 26.543183333333218,
          "velocity": 0.5984251968503937,
          "duration": 0.12268506250000044
        },
        {
          "name": "G4",
          "midi": 67,
          "time": 26.666639999999884,
          "velocity": 0.5984251968503937,
          "duration": 0.1844133958333316
        },
        {
          "name": "F4",
          "midi": 65,
          "time": 26.85182499999988,
          "velocity": 0.5984251968503937,
          "duration": 0.1844133958333316
        },
        {
          "name": "G4",
          "midi": 67,
          "time": 27.037009999999878,
          "velocity": 0.5984251968503937,
          "duration": 0.1844133958333316
        },
        {
          "name": "G#4",
          "midi": 68,
          "time": 27.222194999999875,
          "velocity": 0.5984251968503937,
          "duration": 0.1844133958333316
        },
        {
          "name": "G4",
          "midi": 67,
          "time": 27.407379999999872,
          "velocity": 0.5984251968503937,
          "duration": 0.12268506250000044
        },
        {
          "name": "F4",
          "midi": 65,
          "time": 27.530836666666538,
          "velocity": 0.5984251968503937,
          "duration": 0.12268506250000044
        },
        {
          "name": "D#4",
          "midi": 63,
          "time": 27.654293333333204,
          "velocity": 0.5984251968503937,
          "duration": 0.12268506250000044
        },
        {
          "name": "G4",
          "midi": 67,
          "time": 27.96293499999987,
          "velocity": 0.5984251968503937,
          "duration": 0.3695983958333322
        },
        {
          "name": "F4",
          "midi": 65,
          "time": 28.333304999999868,
          "velocity": 0.5984251968503937,
          "duration": 0.1844133958333316
        },
        {
          "name": "G4",
          "midi": 67,
          "time": 28.518489999999865,
          "velocity": 0.5984251968503937,
          "duration": 0.1844133958333316
        },
        {
          "name": "F4",
          "midi": 65,
          "time": 28.703674999999862,
          "velocity": 0.5984251968503937,
          "duration": 0.1844133958333316
        },
        {
          "name": "G4",
          "midi": 67,
          "time": 28.88885999999986,
          "velocity": 0.5984251968503937,
          "duration": 0.1844133958333316
        },
        {
          "name": "F4",
          "midi": 65,
          "time": 29.074044999999856,
          "velocity": 0.5984251968503937,
          "duration": 0.1844133958333316
        },
        {
          "name": "G4",
          "midi": 67,
          "time": 29.259229999999853,
          "velocity": 0.5984251968503937,
          "duration": 0.1844133958333316
        },
        {
          "name": "F4",
          "midi": 65,
          "time": 29.44441499999985,
          "velocity": 0.5984251968503937,
          "duration": 0.1844133958333316
        },
        {
          "name": "G4",
          "midi": 67,
          "time": 29.629599999999847,
          "velocity": 0.5984251968503937,
          "duration": 0.1844133958333316
        },
        {
          "name": "F4",
          "midi": 65,
          "time": 29.814784999999844,
          "velocity": 0.5984251968503937,
          "duration": 0.1844133958333316
        },
        {
          "name": "G4",
          "midi": 67,
          "time": 29.99996999999984,
          "velocity": 0.5984251968503937,
          "duration": 0.1844133958333316
        },
        {
          "name": "C5",
          "midi": 72,
          "time": 30.18515499999984,
          "velocity": 0.5984251968503937,
          "duration": 0.1844133958333316
        },
        {
          "name": "A#4",
          "midi": 70,
          "time": 30.370339999999835,
          "velocity": 0.5984251968503937,
          "duration": 0.12268506250000044
        },
        {
          "name": "G#4",
          "midi": 68,
          "time": 30.4937966666665,
          "velocity": 0.5984251968503937,
          "duration": 0.12268506250000044
        },
        {
          "name": "G4",
          "midi": 67,
          "time": 30.617253333333167,
          "velocity": 0.5984251968503937,
          "duration": 0.12268506250000044
        },
        {
          "name": "G4",
          "midi": 67,
          "time": 30.925894999999834,
          "velocity": 0.5984251968503937,
          "duration": 0.3695983958333322
        },
        {
          "name": "F4",
          "midi": 65,
          "time": 31.29626499999983,
          "velocity": 0.5984251968503937,
          "duration": 0.1844133958333316
        },
        {
          "name": "G4",
          "midi": 67,
          "time": 31.48144999999983,
          "velocity": 0.5984251968503937,
          "duration": 0.1844133958333316
        },
        {
          "name": "F4",
          "midi": 65,
          "time": 31.666634999999825,
          "velocity": 0.5984251968503937,
          "duration": 0.1844133958333316
        },
        {
          "name": "G4",
          "midi": 67,
          "time": 31.851819999999822,
          "velocity": 0.5984251968503937,
          "duration": 0.18441339583333516
        },
        {
          "name": "F4",
          "midi": 65,
          "time": 32.03700499999982,
          "velocity": 0.5984251968503937,
          "duration": 0.1844133958333316
        },
        {
          "name": "G4",
          "midi": 67,
          "time": 32.22218999999982,
          "velocity": 0.5984251968503937,
          "duration": 0.1844133958333316
        },
        {
          "name": "F4",
          "midi": 65,
          "time": 32.40737499999982,
          "velocity": 0.5984251968503937,
          "duration": 0.1844133958333316
        },
        {
          "name": "G4",
          "midi": 67,
          "time": 32.592559999999814,
          "velocity": 0.5984251968503937,
          "duration": 0.1844133958333316
        },
        {
          "name": "F4",
          "midi": 65,
          "time": 32.77774499999981,
          "velocity": 0.5984251968503937,
          "duration": 0.1844133958333316
        },
        {
          "name": "G4",
          "midi": 67,
          "time": 32.96292999999981,
          "velocity": 0.5984251968503937,
          "duration": 0.1844133958333316
        },
        {
          "name": "G#4",
          "midi": 68,
          "time": 33.148114999999805,
          "velocity": 0.5984251968503937,
          "duration": 0.1844133958333316
        },
        {
          "name": "G4",
          "midi": 67,
          "time": 33.3332999999998,
          "velocity": 0.5984251968503937,
          "duration": 0.12268506249999689
        },
        {
          "name": "F4",
          "midi": 65,
          "time": 33.456756666666465,
          "velocity": 0.5984251968503937,
          "duration": 0.12268506249999689
        },
        {
          "name": "D#4",
          "midi": 63,
          "time": 33.58021333333313,
          "velocity": 0.5984251968503937,
          "duration": 0.12268506249999689
        },
        {
          "name": "F4",
          "midi": 65,
          "time": 33.88885499999979,
          "velocity": 0.5984251968503937,
          "duration": 0.36959839583333576
        },
        {
          "name": "D#4",
          "midi": 63,
          "time": 34.259224999999795,
          "velocity": 0.5984251968503937,
          "duration": 0.1844133958333316
        },
        {
          "name": "F4",
          "midi": 65,
          "time": 34.44440999999979,
          "velocity": 0.5984251968503937,
          "duration": 0.1844133958333316
        },
        {
          "name": "D#4",
          "midi": 63,
          "time": 34.62959499999979,
          "velocity": 0.5984251968503937,
          "duration": 0.1844133958333316
        },
        {
          "name": "F4",
          "midi": 65,
          "time": 34.814779999999786,
          "velocity": 0.5984251968503937,
          "duration": 0.1844133958333316
        },
        {
          "name": "D#4",
          "midi": 63,
          "time": 34.99996499999978,
          "velocity": 0.5984251968503937,
          "duration": 0.1844133958333316
        },
        {
          "name": "G#4",
          "midi": 68,
          "time": 35.18514999999978,
          "velocity": 0.5984251968503937,
          "duration": 0.1844133958333316
        },
        {
          "name": "G4",
          "midi": 67,
          "time": 35.37033499999978,
          "velocity": 0.5984251968503937,
          "duration": 0.1844133958333316
        },
        {
          "name": "G4",
          "midi": 67,
          "time": 35.555519999999774,
          "velocity": 0.3858267716535433,
          "duration": 0.739968395833337
        },
        {
          "name": "C#5",
          "midi": 73,
          "time": 35.62110635416644,
          "velocity": 0.4015748031496063,
          "duration": 0.6736104375000025
        },
        {
          "name": "F5",
          "midi": 77,
          "time": 35.68746431249978,
          "velocity": 0.41732283464566927,
          "duration": 0.607252479166668
        },
        {
          "name": "G4",
          "midi": 67,
          "time": 36.296259999999776,
          "velocity": 0.5669291338582677,
          "duration": 0.739968395833337
        },
        {
          "name": "A#4",
          "midi": 70,
          "time": 36.361846354166445,
          "velocity": 0.5826771653543307,
          "duration": 0.6736104375000025
        },
        {
          "name": "E5",
          "midi": 76,
          "time": 36.42820431249978,
          "velocity": 0.5984251968503937,
          "duration": 0.607252479166668
        },
        {
          "name": "D5",
          "midi": 74,
          "time": 37.03699999999978,
          "velocity": 0.7559055118110236,
          "duration": 0.1844133958333316
        },
        {
          "name": "F5",
          "midi": 77,
          "time": 37.03699999999978,
          "velocity": 0.7559055118110236,
          "duration": 0.1844133958333316
        },
        {
          "name": "D6",
          "midi": 86,
          "time": 37.03699999999978,
          "velocity": 0.7559055118110236,
          "duration": 0.1844133958333316
        },
        {
          "name": "C5",
          "midi": 72,
          "time": 37.222184999999776,
          "velocity": 0.7559055118110236,
          "duration": 0.1844133958333316
        },
        {
          "name": "D#5",
          "midi": 75,
          "time": 37.222184999999776,
          "velocity": 0.7559055118110236,
          "duration": 0.1844133958333316
        },
        {
          "name": "C6",
          "midi": 84,
          "time": 37.222184999999776,
          "velocity": 0.7559055118110236,
          "duration": 0.1844133958333316
        },
        {
          "name": "D5",
          "midi": 74,
          "time": 37.40736999999977,
          "velocity": 0.7559055118110236,
          "duration": 0.1844133958333316
        },
        {
          "name": "F5",
          "midi": 77,
          "time": 37.40736999999977,
          "velocity": 0.7559055118110236,
          "duration": 0.1844133958333316
        },
        {
          "name": "D6",
          "midi": 86,
          "time": 37.40736999999977,
          "velocity": 0.7559055118110236,
          "duration": 0.1844133958333316
        },
        {
          "name": "C5",
          "midi": 72,
          "time": 37.59255499999977,
          "velocity": 0.7559055118110236,
          "duration": 0.1844133958333316
        },
        {
          "name": "D#5",
          "midi": 75,
          "time": 37.59255499999977,
          "velocity": 0.7559055118110236,
          "duration": 0.1844133958333316
        },
        {
          "name": "C6",
          "midi": 84,
          "time": 37.59255499999977,
          "velocity": 0.7559055118110236,
          "duration": 0.1844133958333316
        },
        {
          "name": "D5",
          "midi": 74,
          "time": 37.77773999999977,
          "velocity": 0.7559055118110236,
          "duration": 0.1844133958333316
        },
        {
          "name": "F5",
          "midi": 77,
          "time": 37.77773999999977,
          "velocity": 0.7559055118110236,
          "duration": 0.1844133958333316
        },
        {
          "name": "D6",
          "midi": 86,
          "time": 37.77773999999977,
          "velocity": 0.7559055118110236,
          "duration": 0.1844133958333316
        },
        {
          "name": "C5",
          "midi": 72,
          "time": 37.962924999999764,
          "velocity": 0.7559055118110236,
          "duration": 0.1844133958333316
        },
        {
          "name": "D#5",
          "midi": 75,
          "time": 37.962924999999764,
          "velocity": 0.7559055118110236,
          "duration": 0.1844133958333316
        },
        {
          "name": "C6",
          "midi": 84,
          "time": 37.962924999999764,
          "velocity": 0.7559055118110236,
          "duration": 0.1844133958333316
        },
        {
          "name": "D5",
          "midi": 74,
          "time": 38.14810999999976,
          "velocity": 0.7559055118110236,
          "duration": 0.1844133958333316
        },
        {
          "name": "F5",
          "midi": 77,
          "time": 38.14810999999976,
          "velocity": 0.7559055118110236,
          "duration": 0.1844133958333316
        },
        {
          "name": "D6",
          "midi": 86,
          "time": 38.14810999999976,
          "velocity": 0.7559055118110236,
          "duration": 0.1844133958333316
        },
        {
          "name": "C5",
          "midi": 72,
          "time": 38.33329499999976,
          "velocity": 0.7559055118110236,
          "duration": 0.1844133958333316
        },
        {
          "name": "D#5",
          "midi": 75,
          "time": 38.33329499999976,
          "velocity": 0.7559055118110236,
          "duration": 0.1844133958333316
        },
        {
          "name": "C6",
          "midi": 84,
          "time": 38.33329499999976,
          "velocity": 0.7559055118110236,
          "duration": 0.1844133958333316
        },
        {
          "name": "D5",
          "midi": 74,
          "time": 38.518479999999755,
          "velocity": 0.7559055118110236,
          "duration": 0.1844133958333316
        },
        {
          "name": "F5",
          "midi": 77,
          "time": 38.518479999999755,
          "velocity": 0.7559055118110236,
          "duration": 0.1844133958333316
        },
        {
          "name": "D6",
          "midi": 86,
          "time": 38.518479999999755,
          "velocity": 0.7559055118110236,
          "duration": 0.1844133958333316
        },
        {
          "name": "D#5",
          "midi": 75,
          "time": 38.70366499999975,
          "velocity": 0.7559055118110236,
          "duration": 0.1844133958333316
        },
        {
          "name": "G5",
          "midi": 79,
          "time": 38.70366499999975,
          "velocity": 0.7559055118110236,
          "duration": 0.1844133958333316
        },
        {
          "name": "D#6",
          "midi": 87,
          "time": 38.70366499999975,
          "velocity": 0.7559055118110236,
          "duration": 0.1844133958333316
        },
        {
          "name": "D5",
          "midi": 74,
          "time": 38.88884999999975,
          "velocity": 0.7559055118110236,
          "duration": 0.1844133958333316
        },
        {
          "name": "F5",
          "midi": 77,
          "time": 38.88884999999975,
          "velocity": 0.7559055118110236,
          "duration": 0.1844133958333316
        },
        {
          "name": "D6",
          "midi": 86,
          "time": 38.88884999999975,
          "velocity": 0.7559055118110236,
          "duration": 0.1844133958333316
        },
        {
          "name": "A#4",
          "midi": 70,
          "time": 39.074034999999746,
          "velocity": 0.7559055118110236,
          "duration": 0.1844133958333316
        },
        {
          "name": "D5",
          "midi": 74,
          "time": 39.074034999999746,
          "velocity": 0.7559055118110236,
          "duration": 0.1844133958333316
        },
        {
          "name": "A#5",
          "midi": 82,
          "time": 39.074034999999746,
          "velocity": 0.7559055118110236,
          "duration": 0.1844133958333316
        },
        {
          "name": "G4",
          "midi": 67,
          "time": 39.25921999999974,
          "velocity": 0.7559055118110236,
          "duration": 0.36959839583333576
        },
        {
          "name": "A#4",
          "midi": 70,
          "time": 39.25921999999974,
          "velocity": 0.7559055118110236,
          "duration": 0.36959839583333576
        },
        {
          "name": "G5",
          "midi": 79,
          "time": 39.25921999999974,
          "velocity": 0.7559055118110236,
          "duration": 0.36959839583333576
        },
        {
          "name": "D5",
          "midi": 74,
          "time": 39.629589999999745,
          "velocity": 0.7559055118110236,
          "duration": 0.1844133958333316
        },
        {
          "name": "F5",
          "midi": 77,
          "time": 39.629589999999745,
          "velocity": 0.7559055118110236,
          "duration": 0.1844133958333316
        },
        {
          "name": "D6",
          "midi": 86,
          "time": 39.629589999999745,
          "velocity": 0.7559055118110236,
          "duration": 0.1844133958333316
        },
        {
          "name": "D#5",
          "midi": 75,
          "time": 39.81477499999974,
          "velocity": 0.7559055118110236,
          "duration": 0.1844133958333316
        },
        {
          "name": "G5",
          "midi": 79,
          "time": 39.81477499999974,
          "velocity": 0.7559055118110236,
          "duration": 0.1844133958333316
        },
        {
          "name": "D#6",
          "midi": 87,
          "time": 39.81477499999974,
          "velocity": 0.7559055118110236,
          "duration": 0.1844133958333316
        },
        {
          "name": "D5",
          "midi": 74,
          "time": 39.99995999999974,
          "velocity": 0.7559055118110236,
          "duration": 0.1844133958333316
        },
        {
          "name": "F5",
          "midi": 77,
          "time": 39.99995999999974,
          "velocity": 0.7559055118110236,
          "duration": 0.1844133958333316
        },
        {
          "name": "D6",
          "midi": 86,
          "time": 39.99995999999974,
          "velocity": 0.7559055118110236,
          "duration": 0.1844133958333316
        },
        {
          "name": "A#4",
          "midi": 70,
          "time": 40.185144999999736,
          "velocity": 0.7559055118110236,
          "duration": 0.1844133958333316
        },
        {
          "name": "D5",
          "midi": 74,
          "time": 40.185144999999736,
          "velocity": 0.7559055118110236,
          "duration": 0.1844133958333316
        },
        {
          "name": "A#5",
          "midi": 82,
          "time": 40.185144999999736,
          "velocity": 0.7559055118110236,
          "duration": 0.1844133958333316
        },
        {
          "name": "G4",
          "midi": 67,
          "time": 40.37032999999973,
          "velocity": 0.7559055118110236,
          "duration": 0.36959839583333576
        },
        {
          "name": "D5",
          "midi": 74,
          "time": 40.37032999999973,
          "velocity": 0.7559055118110236,
          "duration": 0.36959839583333576
        },
        {
          "name": "G5",
          "midi": 79,
          "time": 40.37032999999973,
          "velocity": 0.7559055118110236,
          "duration": 0.36959839583333576
        },
        {
          "name": "D5",
          "midi": 74,
          "time": 40.740699999999734,
          "velocity": 0.7559055118110236,
          "duration": 0.1844133958333316
        },
        {
          "name": "F5",
          "midi": 77,
          "time": 40.740699999999734,
          "velocity": 0.7559055118110236,
          "duration": 0.1844133958333316
        },
        {
          "name": "D6",
          "midi": 86,
          "time": 40.740699999999734,
          "velocity": 0.7559055118110236,
          "duration": 0.1844133958333316
        },
        {
          "name": "D#5",
          "midi": 75,
          "time": 40.92588499999973,
          "velocity": 0.7559055118110236,
          "duration": 0.1844133958333316
        },
        {
          "name": "G5",
          "midi": 79,
          "time": 40.92588499999973,
          "velocity": 0.7559055118110236,
          "duration": 0.1844133958333316
        },
        {
          "name": "D#6",
          "midi": 87,
          "time": 40.92588499999973,
          "velocity": 0.7559055118110236,
          "duration": 0.1844133958333316
        },
        {
          "name": "D5",
          "midi": 74,
          "time": 41.11106999999973,
          "velocity": 0.7559055118110236,
          "duration": 0.1844133958333316
        },
        {
          "name": "F5",
          "midi": 77,
          "time": 41.11106999999973,
          "velocity": 0.7559055118110236,
          "duration": 0.1844133958333316
        },
        {
          "name": "D6",
          "midi": 86,
          "time": 41.11106999999973,
          "velocity": 0.7559055118110236,
          "duration": 0.1844133958333316
        },
        {
          "name": "A#4",
          "midi": 70,
          "time": 41.296254999999725,
          "velocity": 0.7559055118110236,
          "duration": 0.1844133958333316
        },
        {
          "name": "D5",
          "midi": 74,
          "time": 41.296254999999725,
          "velocity": 0.7559055118110236,
          "duration": 0.1844133958333316
        },
        {
          "name": "A#5",
          "midi": 82,
          "time": 41.296254999999725,
          "velocity": 0.7559055118110236,
          "duration": 0.1844133958333316
        },
        {
          "name": "G4",
          "midi": 67,
          "time": 41.48143999999972,
          "velocity": 0.7559055118110236,
          "duration": 0.36959839583333576
        },
        {
          "name": "D#5",
          "midi": 75,
          "time": 41.48143999999972,
          "velocity": 0.7559055118110236,
          "duration": 0.36959839583333576
        },
        {
          "name": "G5",
          "midi": 79,
          "time": 41.48143999999972,
          "velocity": 0.7559055118110236,
          "duration": 0.36959839583333576
        },
        {
          "name": "D5",
          "midi": 74,
          "time": 41.85180999999972,
          "velocity": 0.7559055118110236,
          "duration": 0.1844133958333316
        },
        {
          "name": "F5",
          "midi": 77,
          "time": 41.85180999999972,
          "velocity": 0.7559055118110236,
          "duration": 0.1844133958333316
        },
        {
          "name": "D6",
          "midi": 86,
          "time": 41.85180999999972,
          "velocity": 0.7559055118110236,
          "duration": 0.1844133958333316
        },
        {
          "name": "D#5",
          "midi": 75,
          "time": 42.03699499999972,
          "velocity": 0.7559055118110236,
          "duration": 0.1844133958333316
        },
        {
          "name": "G5",
          "midi": 79,
          "time": 42.03699499999972,
          "velocity": 0.7559055118110236,
          "duration": 0.1844133958333316
        },
        {
          "name": "D#6",
          "midi": 87,
          "time": 42.03699499999972,
          "velocity": 0.7559055118110236,
          "duration": 0.1844133958333316
        },
        {
          "name": "A#4",
          "midi": 70,
          "time": 42.22217999999972,
          "velocity": 0.7559055118110236,
          "duration": 0.1844133958333316
        },
        {
          "name": "G5",
          "midi": 79,
          "time": 42.22217999999972,
          "velocity": 0.7559055118110236,
          "duration": 0.1844133958333316
        },
        {
          "name": "A#5",
          "midi": 82,
          "time": 42.22217999999972,
          "velocity": 0.7559055118110236,
          "duration": 0.1844133958333316
        },
        {
          "name": "G#4",
          "midi": 68,
          "time": 42.407364999999714,
          "velocity": 0.7559055118110236,
          "duration": 0.1844133958333316
        },
        {
          "name": "F5",
          "midi": 77,
          "time": 42.407364999999714,
          "velocity": 0.7559055118110236,
          "duration": 0.1844133958333316
        },
        {
          "name": "G#5",
          "midi": 80,
          "time": 42.407364999999714,
          "velocity": 0.7559055118110236,
          "duration": 0.1844133958333316
        },
        {
          "name": "G4",
          "midi": 67,
          "time": 42.59254999999971,
          "velocity": 0.7559055118110236,
          "duration": 0.36959839583333576
        },
        {
          "name": "E5",
          "midi": 76,
          "time": 42.59254999999971,
          "velocity": 0.7559055118110236,
          "duration": 0.36959839583333576
        },
        {
          "name": "G5",
          "midi": 79,
          "time": 42.59254999999971,
          "velocity": 0.7559055118110236,
          "duration": 0.36959839583333576
        },
        {
          "name": "D5",
          "midi": 74,
          "time": 42.96291999999971,
          "velocity": 0.7559055118110236,
          "duration": 0.1844133958333316
        },
        {
          "name": "F5",
          "midi": 77,
          "time": 42.96291999999971,
          "velocity": 0.7559055118110236,
          "duration": 0.1844133958333316
        },
        {
          "name": "D6",
          "midi": 86,
          "time": 42.96291999999971,
          "velocity": 0.7559055118110236,
          "duration": 0.1844133958333316
        },
        {
          "name": "C5",
          "midi": 72,
          "time": 43.14810499999971,
          "velocity": 0.7559055118110236,
          "duration": 0.1844133958333316
        },
        {
          "name": "D#5",
          "midi": 75,
          "time": 43.14810499999971,
          "velocity": 0.7559055118110236,
          "duration": 0.1844133958333316
        },
        {
          "name": "C6",
          "midi": 84,
          "time": 43.14810499999971,
          "velocity": 0.7559055118110236,
          "duration": 0.1844133958333316
        },
        {
          "name": "D5",
          "midi": 74,
          "time": 43.33328999999971,
          "velocity": 0.7559055118110236,
          "duration": 0.1844133958333316
        },
        {
          "name": "F5",
          "midi": 77,
          "time": 43.33328999999971,
          "velocity": 0.7559055118110236,
          "duration": 0.1844133958333316
        },
        {
          "name": "D6",
          "midi": 86,
          "time": 43.33328999999971,
          "velocity": 0.7559055118110236,
          "duration": 0.1844133958333316
        },
        {
          "name": "C5",
          "midi": 72,
          "time": 43.518474999999704,
          "velocity": 0.7559055118110236,
          "duration": 0.1844133958333316
        },
        {
          "name": "D#5",
          "midi": 75,
          "time": 43.518474999999704,
          "velocity": 0.7559055118110236,
          "duration": 0.1844133958333316
        },
        {
          "name": "C6",
          "midi": 84,
          "time": 43.518474999999704,
          "velocity": 0.7559055118110236,
          "duration": 0.1844133958333316
        },
        {
          "name": "D5",
          "midi": 74,
          "time": 43.7036599999997,
          "velocity": 0.7559055118110236,
          "duration": 0.1844133958333316
        },
        {
          "name": "F5",
          "midi": 77,
          "time": 43.7036599999997,
          "velocity": 0.7559055118110236,
          "duration": 0.1844133958333316
        },
        {
          "name": "D6",
          "midi": 86,
          "time": 43.7036599999997,
          "velocity": 0.7559055118110236,
          "duration": 0.1844133958333316
        },
        {
          "name": "C5",
          "midi": 72,
          "time": 43.8888449999997,
          "velocity": 0.7559055118110236,
          "duration": 0.1844133958333316
        },
        {
          "name": "D#5",
          "midi": 75,
          "time": 43.8888449999997,
          "velocity": 0.7559055118110236,
          "duration": 0.1844133958333316
        },
        {
          "name": "C6",
          "midi": 84,
          "time": 43.8888449999997,
          "velocity": 0.7559055118110236,
          "duration": 0.1844133958333316
        },
        {
          "name": "D5",
          "midi": 74,
          "time": 44.074029999999695,
          "velocity": 0.7559055118110236,
          "duration": 0.1844133958333316
        },
        {
          "name": "F5",
          "midi": 77,
          "time": 44.074029999999695,
          "velocity": 0.7559055118110236,
          "duration": 0.1844133958333316
        },
        {
          "name": "D6",
          "midi": 86,
          "time": 44.074029999999695,
          "velocity": 0.7559055118110236,
          "duration": 0.1844133958333316
        },
        {
          "name": "C5",
          "midi": 72,
          "time": 44.25921499999969,
          "velocity": 0.7559055118110236,
          "duration": 0.1844133958333316
        },
        {
          "name": "D#5",
          "midi": 75,
          "time": 44.25921499999969,
          "velocity": 0.7559055118110236,
          "duration": 0.1844133958333316
        },
        {
          "name": "C6",
          "midi": 84,
          "time": 44.25921499999969,
          "velocity": 0.7559055118110236,
          "duration": 0.1844133958333316
        },
        {
          "name": "D5",
          "midi": 74,
          "time": 44.44439999999969,
          "velocity": 0.7559055118110236,
          "duration": 0.1844133958333316
        },
        {
          "name": "F5",
          "midi": 77,
          "time": 44.44439999999969,
          "velocity": 0.7559055118110236,
          "duration": 0.1844133958333316
        },
        {
          "name": "D6",
          "midi": 86,
          "time": 44.44439999999969,
          "velocity": 0.7559055118110236,
          "duration": 0.1844133958333316
        },
        {
          "name": "D#5",
          "midi": 75,
          "time": 44.629584999999686,
          "velocity": 0.7559055118110236,
          "duration": 0.1844133958333316
        },
        {
          "name": "G5",
          "midi": 79,
          "time": 44.629584999999686,
          "velocity": 0.7559055118110236,
          "duration": 0.1844133958333316
        },
        {
          "name": "D#6",
          "midi": 87,
          "time": 44.629584999999686,
          "velocity": 0.7559055118110236,
          "duration": 0.1844133958333316
        },
        {
          "name": "D5",
          "midi": 74,
          "time": 44.81476999999968,
          "velocity": 0.7559055118110236,
          "duration": 0.1844133958333316
        },
        {
          "name": "F5",
          "midi": 77,
          "time": 44.81476999999968,
          "velocity": 0.7559055118110236,
          "duration": 0.1844133958333316
        },
        {
          "name": "D6",
          "midi": 86,
          "time": 44.81476999999968,
          "velocity": 0.7559055118110236,
          "duration": 0.1844133958333316
        },
        {
          "name": "A#4",
          "midi": 70,
          "time": 44.99995499999968,
          "velocity": 0.7559055118110236,
          "duration": 0.1844133958333316
        },
        {
          "name": "D5",
          "midi": 74,
          "time": 44.99995499999968,
          "velocity": 0.7559055118110236,
          "duration": 0.1844133958333316
        },
        {
          "name": "A#5",
          "midi": 82,
          "time": 44.99995499999968,
          "velocity": 0.7559055118110236,
          "duration": 0.1844133958333316
        },
        {
          "name": "G4",
          "midi": 67,
          "time": 45.18513999999968,
          "velocity": 0.7559055118110236,
          "duration": 0.36959839583333576
        },
        {
          "name": "A#4",
          "midi": 70,
          "time": 45.18513999999968,
          "velocity": 0.7559055118110236,
          "duration": 0.36959839583333576
        },
        {
          "name": "G5",
          "midi": 79,
          "time": 45.18513999999968,
          "velocity": 0.7559055118110236,
          "duration": 0.36959839583333576
        },
        {
          "name": "D5",
          "midi": 74,
          "time": 45.55550999999968,
          "velocity": 0.7559055118110236,
          "duration": 0.1844133958333316
        },
        {
          "name": "F5",
          "midi": 77,
          "time": 45.55550999999968,
          "velocity": 0.7559055118110236,
          "duration": 0.1844133958333316
        },
        {
          "name": "D6",
          "midi": 86,
          "time": 45.55550999999968,
          "velocity": 0.7559055118110236,
          "duration": 0.1844133958333316
        },
        {
          "name": "D#5",
          "midi": 75,
          "time": 45.740694999999675,
          "velocity": 0.7559055118110236,
          "duration": 0.1844133958333316
        },
        {
          "name": "G5",
          "midi": 79,
          "time": 45.740694999999675,
          "velocity": 0.7559055118110236,
          "duration": 0.1844133958333316
        },
        {
          "name": "D#6",
          "midi": 87,
          "time": 45.740694999999675,
          "velocity": 0.7559055118110236,
          "duration": 0.1844133958333316
        },
        {
          "name": "D5",
          "midi": 74,
          "time": 45.92587999999967,
          "velocity": 0.7559055118110236,
          "duration": 0.1844133958333316
        },
        {
          "name": "F5",
          "midi": 77,
          "time": 45.92587999999967,
          "velocity": 0.7559055118110236,
          "duration": 0.1844133958333316
        },
        {
          "name": "D6",
          "midi": 86,
          "time": 45.92587999999967,
          "velocity": 0.7559055118110236,
          "duration": 0.1844133958333316
        },
        {
          "name": "A#4",
          "midi": 70,
          "time": 46.11106499999967,
          "velocity": 0.7559055118110236,
          "duration": 0.1844133958333316
        },
        {
          "name": "D5",
          "midi": 74,
          "time": 46.11106499999967,
          "velocity": 0.7559055118110236,
          "duration": 0.1844133958333316
        },
        {
          "name": "A#5",
          "midi": 82,
          "time": 46.11106499999967,
          "velocity": 0.7559055118110236,
          "duration": 0.1844133958333316
        },
        {
          "name": "G4",
          "midi": 67,
          "time": 46.29624999999967,
          "velocity": 0.7559055118110236,
          "duration": 0.36959839583333576
        },
        {
          "name": "D5",
          "midi": 74,
          "time": 46.29624999999967,
          "velocity": 0.7559055118110236,
          "duration": 0.36959839583333576
        },
        {
          "name": "G5",
          "midi": 79,
          "time": 46.29624999999967,
          "velocity": 0.7559055118110236,
          "duration": 0.36959839583333576
        },
        {
          "name": "D5",
          "midi": 74,
          "time": 46.66661999999967,
          "velocity": 0.7559055118110236,
          "duration": 0.1844133958333316
        },
        {
          "name": "F5",
          "midi": 77,
          "time": 46.66661999999967,
          "velocity": 0.7559055118110236,
          "duration": 0.1844133958333316
        },
        {
          "name": "D6",
          "midi": 86,
          "time": 46.66661999999967,
          "velocity": 0.7559055118110236,
          "duration": 0.1844133958333316
        },
        {
          "name": "D#5",
          "midi": 75,
          "time": 46.851804999999665,
          "velocity": 0.7559055118110236,
          "duration": 0.1844133958333316
        },
        {
          "name": "G5",
          "midi": 79,
          "time": 46.851804999999665,
          "velocity": 0.7559055118110236,
          "duration": 0.1844133958333316
        },
        {
          "name": "D#6",
          "midi": 87,
          "time": 46.851804999999665,
          "velocity": 0.7559055118110236,
          "duration": 0.1844133958333316
        },
        {
          "name": "D5",
          "midi": 74,
          "time": 47.03698999999966,
          "velocity": 0.7559055118110236,
          "duration": 0.1844133958333316
        },
        {
          "name": "F5",
          "midi": 77,
          "time": 47.03698999999966,
          "velocity": 0.7559055118110236,
          "duration": 0.1844133958333316
        },
        {
          "name": "D6",
          "midi": 86,
          "time": 47.03698999999966,
          "velocity": 0.7559055118110236,
          "duration": 0.1844133958333316
        },
        {
          "name": "A#4",
          "midi": 70,
          "time": 47.22217499999966,
          "velocity": 0.7559055118110236,
          "duration": 0.1844133958333316
        },
        {
          "name": "D5",
          "midi": 74,
          "time": 47.22217499999966,
          "velocity": 0.7559055118110236,
          "duration": 0.1844133958333316
        },
        {
          "name": "A#5",
          "midi": 82,
          "time": 47.22217499999966,
          "velocity": 0.7559055118110236,
          "duration": 0.1844133958333316
        },
        {
          "name": "G4",
          "midi": 67,
          "time": 47.407359999999656,
          "velocity": 0.7559055118110236,
          "duration": 0.36959839583333576
        },
        {
          "name": "D#5",
          "midi": 75,
          "time": 47.407359999999656,
          "velocity": 0.7559055118110236,
          "duration": 0.36959839583333576
        },
        {
          "name": "G5",
          "midi": 79,
          "time": 47.407359999999656,
          "velocity": 0.7559055118110236,
          "duration": 0.36959839583333576
        },
        {
          "name": "D5",
          "midi": 74,
          "time": 47.77772999999966,
          "velocity": 0.7559055118110236,
          "duration": 0.1844133958333316
        },
        {
          "name": "F5",
          "midi": 77,
          "time": 47.77772999999966,
          "velocity": 0.7559055118110236,
          "duration": 0.1844133958333316
        },
        {
          "name": "D6",
          "midi": 86,
          "time": 47.77772999999966,
          "velocity": 0.7559055118110236,
          "duration": 0.1844133958333316
        },
        {
          "name": "D#5",
          "midi": 75,
          "time": 47.962914999999654,
          "velocity": 0.7559055118110236,
          "duration": 0.1844133958333316
        },
        {
          "name": "G5",
          "midi": 79,
          "time": 47.962914999999654,
          "velocity": 0.7559055118110236,
          "duration": 0.1844133958333316
        },
        {
          "name": "D#6",
          "midi": 87,
          "time": 47.962914999999654,
          "velocity": 0.7559055118110236,
          "duration": 0.1844133958333316
        },
        {
          "name": "A#4",
          "midi": 70,
          "time": 48.14809999999965,
          "velocity": 0.7559055118110236,
          "duration": 0.1844133958333316
        },
        {
          "name": "G5",
          "midi": 79,
          "time": 48.14809999999965,
          "velocity": 0.7559055118110236,
          "duration": 0.1844133958333316
        },
        {
          "name": "A#5",
          "midi": 82,
          "time": 48.14809999999965,
          "velocity": 0.7559055118110236,
          "duration": 0.1844133958333316
        },
        {
          "name": "G#4",
          "midi": 68,
          "time": 48.33328499999965,
          "velocity": 0.7559055118110236,
          "duration": 0.1844133958333316
        },
        {
          "name": "F5",
          "midi": 77,
          "time": 48.33328499999965,
          "velocity": 0.7559055118110236,
          "duration": 0.1844133958333316
        },
        {
          "name": "G#5",
          "midi": 80,
          "time": 48.33328499999965,
          "velocity": 0.7559055118110236,
          "duration": 0.1844133958333316
        },
        {
          "name": "G4",
          "midi": 67,
          "time": 48.518469999999645,
          "velocity": 0.7559055118110236,
          "duration": 0.36959839583333576
        },
        {
          "name": "E5",
          "midi": 76,
          "time": 48.518469999999645,
          "velocity": 0.7559055118110236,
          "duration": 0.36959839583333576
        },
        {
          "name": "G5",
          "midi": 79,
          "time": 48.518469999999645,
          "velocity": 0.7559055118110236,
          "duration": 0.36959839583333576
        },
        {
          "name": "C5",
          "midi": 72,
          "time": 48.88883999999965,
          "velocity": 0.7559055118110236,
          "duration": 0.36959839583333576
        },
        {
          "name": "D#5",
          "midi": 75,
          "time": 48.88883999999965,
          "velocity": 0.7559055118110236,
          "duration": 0.36959839583333576
        },
        {
          "name": "C6",
          "midi": 84,
          "time": 48.88883999999965,
          "velocity": 0.7559055118110236,
          "duration": 0.36959839583333576
        },
        {
          "name": "G4",
          "midi": 67,
          "time": 49.25920999999965,
          "velocity": 0.7559055118110236,
          "duration": 0.1844133958333316
        },
        {
          "name": "G5",
          "midi": 79,
          "time": 49.25920999999965,
          "velocity": 0.7559055118110236,
          "duration": 0.1844133958333316
        },
        {
          "name": "G4",
          "midi": 67,
          "time": 49.444394999999645,
          "velocity": 0.7559055118110236,
          "duration": 0.1844133958333316
        },
        {
          "name": "G5",
          "midi": 79,
          "time": 49.444394999999645,
          "velocity": 0.7559055118110236,
          "duration": 0.1844133958333316
        },
        {
          "name": "F4",
          "midi": 65,
          "time": 49.62957999999964,
          "velocity": 0.7559055118110236,
          "duration": 0.36959839583333576
        },
        {
          "name": "A#4",
          "midi": 70,
          "time": 49.62957999999964,
          "velocity": 0.7559055118110236,
          "duration": 0.36959839583333576
        },
        {
          "name": "F5",
          "midi": 77,
          "time": 49.62957999999964,
          "velocity": 0.7559055118110236,
          "duration": 0.36959839583333576
        },
        {
          "name": "G#4",
          "midi": 68,
          "time": 49.99994999999964,
          "velocity": 0.7559055118110236,
          "duration": 0.36959839583333576
        },
        {
          "name": "C5",
          "midi": 72,
          "time": 49.99994999999964,
          "velocity": 0.7559055118110236,
          "duration": 0.36959839583333576
        },
        {
          "name": "G#5",
          "midi": 80,
          "time": 49.99994999999964,
          "velocity": 0.7559055118110236,
          "duration": 0.36959839583333576
        },
        {
          "name": "G4",
          "midi": 67,
          "time": 50.370319999999644,
          "velocity": 0.7559055118110236,
          "duration": 0.36959839583333576
        },
        {
          "name": "A#4",
          "midi": 70,
          "time": 50.370319999999644,
          "velocity": 0.7559055118110236,
          "duration": 0.36959839583333576
        },
        {
          "name": "G5",
          "midi": 79,
          "time": 50.370319999999644,
          "velocity": 0.7559055118110236,
          "duration": 0.36959839583333576
        },
        {
          "name": "D5",
          "midi": 74,
          "time": 50.740689999999645,
          "velocity": 0.7559055118110236,
          "duration": 0.36959839583333576
        },
        {
          "name": "F5",
          "midi": 77,
          "time": 50.740689999999645,
          "velocity": 0.7559055118110236,
          "duration": 0.36959839583333576
        },
        {
          "name": "D6",
          "midi": 86,
          "time": 50.740689999999645,
          "velocity": 0.7559055118110236,
          "duration": 0.36959839583333576
        },
        {
          "name": "C5",
          "midi": 72,
          "time": 51.11105999999965,
          "velocity": 0.7559055118110236,
          "duration": 0.36959839583333576
        },
        {
          "name": "D#5",
          "midi": 75,
          "time": 51.11105999999965,
          "velocity": 0.7559055118110236,
          "duration": 0.36959839583333576
        },
        {
          "name": "C6",
          "midi": 84,
          "time": 51.11105999999965,
          "velocity": 0.7559055118110236,
          "duration": 0.36959839583333576
        },
        {
          "name": "G4",
          "midi": 67,
          "time": 51.48142999999965,
          "velocity": 0.7559055118110236,
          "duration": 0.36959839583333576
        },
        {
          "name": "C5",
          "midi": 72,
          "time": 51.48142999999965,
          "velocity": 0.7559055118110236,
          "duration": 0.36959839583333576
        },
        {
          "name": "G5",
          "midi": 79,
          "time": 51.48142999999965,
          "velocity": 0.7559055118110236,
          "duration": 0.36959839583333576
        },
        {
          "name": "C5",
          "midi": 72,
          "time": 51.85179999999965,
          "velocity": 0.7559055118110236,
          "duration": 0.36959839583333576
        },
        {
          "name": "F5",
          "midi": 77,
          "time": 51.85179999999965,
          "velocity": 0.7559055118110236,
          "duration": 0.36959839583333576
        },
        {
          "name": "C6",
          "midi": 84,
          "time": 51.85179999999965,
          "velocity": 0.7559055118110236,
          "duration": 0.36959839583333576
        },
        {
          "name": "G4",
          "midi": 67,
          "time": 52.22216999999965,
          "velocity": 0.7559055118110236,
          "duration": 0.1844133958333316
        },
        {
          "name": "G5",
          "midi": 79,
          "time": 52.22216999999965,
          "velocity": 0.7559055118110236,
          "duration": 0.1844133958333316
        },
        {
          "name": "G4",
          "midi": 67,
          "time": 52.40735499999965,
          "velocity": 0.7559055118110236,
          "duration": 0.1844133958333316
        },
        {
          "name": "G5",
          "midi": 79,
          "time": 52.40735499999965,
          "velocity": 0.7559055118110236,
          "duration": 0.1844133958333316
        },
        {
          "name": "F4",
          "midi": 65,
          "time": 52.592539999999644,
          "velocity": 0.7559055118110236,
          "duration": 0.36959839583333576
        },
        {
          "name": "B4",
          "midi": 71,
          "time": 52.592539999999644,
          "velocity": 0.7559055118110236,
          "duration": 0.36959839583333576
        },
        {
          "name": "F5",
          "midi": 77,
          "time": 52.592539999999644,
          "velocity": 0.7559055118110236,
          "duration": 0.36959839583333576
        },
        {
          "name": "G#4",
          "midi": 68,
          "time": 52.962909999999646,
          "velocity": 0.7559055118110236,
          "duration": 0.36959839583333576
        },
        {
          "name": "B4",
          "midi": 71,
          "time": 52.962909999999646,
          "velocity": 0.7559055118110236,
          "duration": 0.36959839583333576
        },
        {
          "name": "G#5",
          "midi": 80,
          "time": 52.962909999999646,
          "velocity": 0.7559055118110236,
          "duration": 0.36959839583333576
        },
        {
          "name": "G4",
          "midi": 67,
          "time": 53.33327999999965,
          "velocity": 0.7559055118110236,
          "duration": 0.36959839583333576
        },
        {
          "name": "A#4",
          "midi": 70,
          "time": 53.33327999999965,
          "velocity": 0.7559055118110236,
          "duration": 0.36959839583333576
        },
        {
          "name": "G5",
          "midi": 79,
          "time": 53.33327999999965,
          "velocity": 0.7559055118110236,
          "duration": 0.36959839583333576
        },
        {
          "name": "F4",
          "midi": 65,
          "time": 53.70364999999965,
          "velocity": 0.7559055118110236,
          "duration": 0.36959839583333576
        },
        {
          "name": "G#4",
          "midi": 68,
          "time": 53.70364999999965,
          "velocity": 0.7559055118110236,
          "duration": 0.36959839583333576
        },
        {
          "name": "F5",
          "midi": 77,
          "time": 53.70364999999965,
          "velocity": 0.7559055118110236,
          "duration": 0.36959839583333576
        },
        {
          "name": "E5",
          "midi": 76,
          "time": 54.07401999999965,
          "velocity": 0.7559055118110236,
          "duration": 0.09182089583333664
        },
        {
          "name": "G5",
          "midi": 79,
          "time": 54.07401999999965,
          "velocity": 0.7559055118110236,
          "duration": 0.09182089583333664
        },
        {
          "name": "C#5",
          "midi": 73,
          "time": 54.25920499999965,
          "velocity": 0.7559055118110236,
          "duration": 0.09182089583333664
        },
        {
          "name": "E5",
          "midi": 76,
          "time": 54.25920499999965,
          "velocity": 0.7559055118110236,
          "duration": 0.09182089583333664
        },
        {
          "name": "A#4",
          "midi": 70,
          "time": 54.44438999999966,
          "velocity": 0.7559055118110236,
          "duration": 0.09182089583333664
        },
        {
          "name": "C#5",
          "midi": 73,
          "time": 54.44438999999966,
          "velocity": 0.7559055118110236,
          "duration": 0.09182089583333664
        },
        {
          "name": "G4",
          "midi": 67,
          "time": 54.62957499999966,
          "velocity": 0.7559055118110236,
          "duration": 0.09182089583333664
        },
        {
          "name": "A#4",
          "midi": 70,
          "time": 54.62957499999966,
          "velocity": 0.7559055118110236,
          "duration": 0.09182089583333664
        },
        {
          "name": "C5",
          "midi": 72,
          "time": 54.814759999999666,
          "velocity": 0.7559055118110236,
          "duration": 0.36959839583333576
        },
        {
          "name": "D#5",
          "midi": 75,
          "time": 54.814759999999666,
          "velocity": 0.7559055118110236,
          "duration": 0.36959839583333576
        },
        {
          "name": "C6",
          "midi": 84,
          "time": 54.814759999999666,
          "velocity": 0.7559055118110236,
          "duration": 0.36959839583333576
        },
        {
          "name": "G4",
          "midi": 67,
          "time": 55.18512999999967,
          "velocity": 0.7559055118110236,
          "duration": 0.1844133958333316
        },
        {
          "name": "G5",
          "midi": 79,
          "time": 55.18512999999967,
          "velocity": 0.7559055118110236,
          "duration": 0.1844133958333316
        },
        {
          "name": "G4",
          "midi": 67,
          "time": 55.370314999999664,
          "velocity": 0.7559055118110236,
          "duration": 0.1844133958333316
        },
        {
          "name": "G5",
          "midi": 79,
          "time": 55.370314999999664,
          "velocity": 0.7559055118110236,
          "duration": 0.1844133958333316
        },
        {
          "name": "F4",
          "midi": 65,
          "time": 55.55549999999966,
          "velocity": 0.7559055118110236,
          "duration": 0.36959839583333576
        },
        {
          "name": "A#4",
          "midi": 70,
          "time": 55.55549999999966,
          "velocity": 0.7559055118110236,
          "duration": 0.36959839583333576
        },
        {
          "name": "F5",
          "midi": 77,
          "time": 55.55549999999966,
          "velocity": 0.7559055118110236,
          "duration": 0.36959839583333576
        },
        {
          "name": "G#4",
          "midi": 68,
          "time": 55.92586999999966,
          "velocity": 0.7559055118110236,
          "duration": 0.36959839583333576
        },
        {
          "name": "C5",
          "midi": 72,
          "time": 55.92586999999966,
          "velocity": 0.7559055118110236,
          "duration": 0.36959839583333576
        },
        {
          "name": "G#5",
          "midi": 80,
          "time": 55.92586999999966,
          "velocity": 0.7559055118110236,
          "duration": 0.36959839583333576
        },
        {
          "name": "G4",
          "midi": 67,
          "time": 56.29623999999966,
          "velocity": 0.7559055118110236,
          "duration": 0.36959839583333576
        },
        {
          "name": "A#4",
          "midi": 70,
          "time": 56.29623999999966,
          "velocity": 0.7559055118110236,
          "duration": 0.36959839583333576
        },
        {
          "name": "G5",
          "midi": 79,
          "time": 56.29623999999966,
          "velocity": 0.7559055118110236,
          "duration": 0.36959839583333576
        },
        {
          "name": "D5",
          "midi": 74,
          "time": 56.666609999999665,
          "velocity": 0.7559055118110236,
          "duration": 0.36959839583333576
        },
        {
          "name": "F5",
          "midi": 77,
          "time": 56.666609999999665,
          "velocity": 0.7559055118110236,
          "duration": 0.36959839583333576
        },
        {
          "name": "D6",
          "midi": 86,
          "time": 56.666609999999665,
          "velocity": 0.7559055118110236,
          "duration": 0.36959839583333576
        },
        {
          "name": "C5",
          "midi": 72,
          "time": 57.036979999999666,
          "velocity": 0.7559055118110236,
          "duration": 0.36959839583333576
        },
        {
          "name": "D#5",
          "midi": 75,
          "time": 57.036979999999666,
          "velocity": 0.7559055118110236,
          "duration": 0.36959839583333576
        },
        {
          "name": "C6",
          "midi": 84,
          "time": 57.036979999999666,
          "velocity": 0.7559055118110236,
          "duration": 0.36959839583333576
        },
        {
          "name": "G4",
          "midi": 67,
          "time": 57.40734999999967,
          "velocity": 0.7559055118110236,
          "duration": 0.36959839583333576
        },
        {
          "name": "C5",
          "midi": 72,
          "time": 57.40734999999967,
          "velocity": 0.7559055118110236,
          "duration": 0.36959839583333576
        },
        {
          "name": "G5",
          "midi": 79,
          "time": 57.40734999999967,
          "velocity": 0.7559055118110236,
          "duration": 0.36959839583333576
        },
        {
          "name": "C5",
          "midi": 72,
          "time": 57.77771999999967,
          "velocity": 0.7559055118110236,
          "duration": 0.36959839583333576
        },
        {
          "name": "F5",
          "midi": 77,
          "time": 57.77771999999967,
          "velocity": 0.7559055118110236,
          "duration": 0.36959839583333576
        },
        {
          "name": "C6",
          "midi": 84,
          "time": 57.77771999999967,
          "velocity": 0.7559055118110236,
          "duration": 0.36959839583333576
        },
        {
          "name": "G4",
          "midi": 67,
          "time": 58.14808999999967,
          "velocity": 0.7559055118110236,
          "duration": 0.1844133958333316
        },
        {
          "name": "G5",
          "midi": 79,
          "time": 58.14808999999967,
          "velocity": 0.7559055118110236,
          "duration": 0.1844133958333316
        },
        {
          "name": "G4",
          "midi": 67,
          "time": 58.33327499999967,
          "velocity": 0.7559055118110236,
          "duration": 0.1844133958333316
        },
        {
          "name": "G5",
          "midi": 79,
          "time": 58.33327499999967,
          "velocity": 0.7559055118110236,
          "duration": 0.1844133958333316
        },
        {
          "name": "F4",
          "midi": 65,
          "time": 58.51845999999966,
          "velocity": 0.7559055118110236,
          "duration": 0.36959839583333576
        },
        {
          "name": "B4",
          "midi": 71,
          "time": 58.51845999999966,
          "velocity": 0.7559055118110236,
          "duration": 0.36959839583333576
        },
        {
          "name": "F5",
          "midi": 77,
          "time": 58.51845999999966,
          "velocity": 0.7559055118110236,
          "duration": 0.36959839583333576
        },
        {
          "name": "G#4",
          "midi": 68,
          "time": 58.888829999999665,
          "velocity": 0.7559055118110236,
          "duration": 0.36959839583333576
        },
        {
          "name": "B4",
          "midi": 71,
          "time": 58.888829999999665,
          "velocity": 0.7559055118110236,
          "duration": 0.36959839583333576
        },
        {
          "name": "G#5",
          "midi": 80,
          "time": 58.888829999999665,
          "velocity": 0.7559055118110236,
          "duration": 0.36959839583333576
        },
        {
          "name": "G4",
          "midi": 67,
          "time": 59.259199999999666,
          "velocity": 0.7559055118110236,
          "duration": 0.36959839583333576
        },
        {
          "name": "A#4",
          "midi": 70,
          "time": 59.259199999999666,
          "velocity": 0.7559055118110236,
          "duration": 0.36959839583333576
        },
        {
          "name": "G5",
          "midi": 79,
          "time": 59.259199999999666,
          "velocity": 0.7559055118110236,
          "duration": 0.36959839583333576
        },
        {
          "name": "F4",
          "midi": 65,
          "time": 59.62956999999967,
          "velocity": 0.7559055118110236,
          "duration": 0.36959839583333576
        },
        {
          "name": "G#4",
          "midi": 68,
          "time": 59.62956999999967,
          "velocity": 0.7559055118110236,
          "duration": 0.36959839583333576
        },
        {
          "name": "F5",
          "midi": 77,
          "time": 59.62956999999967,
          "velocity": 0.7559055118110236,
          "duration": 0.36959839583333576
        },
        {
          "name": "G4",
          "midi": 67,
          "time": 59.99993999999967,
          "velocity": 0.7559055118110236,
          "duration": 0.1844133958333316
        },
        {
          "name": "E5",
          "midi": 76,
          "time": 59.99993999999967,
          "velocity": 0.7559055118110236,
          "duration": 0.1844133958333316
        },
        {
          "name": "G5",
          "midi": 79,
          "time": 59.99993999999967,
          "velocity": 0.7559055118110236,
          "duration": 0.1844133958333316
        },
        {
          "name": "C#5",
          "midi": 73,
          "time": 60.185124999999665,
          "velocity": 0.7559055118110236,
          "duration": 0.09182089583333664
        },
        {
          "name": "E5",
          "midi": 76,
          "time": 60.185124999999665,
          "velocity": 0.7559055118110236,
          "duration": 0.09182089583333664
        },
        {
          "name": "A#4",
          "midi": 70,
          "time": 60.37030999999967,
          "velocity": 0.7559055118110236,
          "duration": 0.09182089583333664
        },
        {
          "name": "C#5",
          "midi": 73,
          "time": 60.37030999999967,
          "velocity": 0.7559055118110236,
          "duration": 0.09182089583333664
        },
        {
          "name": "G4",
          "midi": 67,
          "time": 60.555494999999674,
          "velocity": 0.7559055118110236,
          "duration": 0.09182089583333664
        },
        {
          "name": "A#4",
          "midi": 70,
          "time": 60.555494999999674,
          "velocity": 0.7559055118110236,
          "duration": 0.09182089583333664
        },
        {
          "name": "D#6",
          "midi": 87,
          "time": 61.296234999999676,
          "velocity": 0.5984251968503937,
          "duration": 0.1844133958333316
        },
        {
          "name": "D6",
          "midi": 86,
          "time": 61.48141999999967,
          "velocity": 0.5984251968503937,
          "duration": 0.1844133958333316
        },
        {
          "name": "C6",
          "midi": 84,
          "time": 61.66660499999967,
          "velocity": 0.5984251968503937,
          "duration": 0.1844133958333316
        },
        {
          "name": "A#5",
          "midi": 82,
          "time": 61.85178999999967,
          "velocity": 0.5984251968503937,
          "duration": 0.1844133958333316
        },
        {
          "name": "G#5",
          "midi": 80,
          "time": 62.036974999999664,
          "velocity": 0.5984251968503937,
          "duration": 0.1844133958333316
        },
        {
          "name": "A#5",
          "midi": 82,
          "time": 62.22215999999966,
          "velocity": 0.5984251968503937,
          "duration": 0.36959839583333576
        },
        {
          "name": "D#5",
          "midi": 75,
          "time": 62.59252999999966,
          "velocity": 0.5984251968503937,
          "duration": 0.1844133958333316
        },
        {
          "name": "D#7",
          "midi": 99,
          "time": 62.77771499999966,
          "velocity": 0.5039370078740157,
          "duration": 0.1844133958333316
        },
        {
          "name": "D7",
          "midi": 98,
          "time": 62.96289999999966,
          "velocity": 0.5039370078740157,
          "duration": 0.1844133958333316
        },
        {
          "name": "C7",
          "midi": 96,
          "time": 63.148084999999654,
          "velocity": 0.5039370078740157,
          "duration": 0.1844133958333316
        },
        {
          "name": "A#6",
          "midi": 94,
          "time": 63.33326999999965,
          "velocity": 0.5039370078740157,
          "duration": 0.1844133958333316
        },
        {
          "name": "G#6",
          "midi": 92,
          "time": 63.51845499999965,
          "velocity": 0.5039370078740157,
          "duration": 0.1844133958333316
        },
        {
          "name": "A#6",
          "midi": 94,
          "time": 63.703639999999645,
          "velocity": 0.5039370078740157,
          "duration": 0.36959839583332865
        },
        {
          "name": "D#6",
          "midi": 87,
          "time": 64.07400999999965,
          "velocity": 0.5039370078740157,
          "duration": 0.1844133958333316
        },
        {
          "name": "G#5",
          "midi": 80,
          "time": 64.25919499999965,
          "velocity": 0.5984251968503937,
          "duration": 0.1844133958333316
        },
        {
          "name": "G5",
          "midi": 79,
          "time": 64.44437999999965,
          "velocity": 0.5984251968503937,
          "duration": 0.1844133958333316
        },
        {
          "name": "F5",
          "midi": 77,
          "time": 64.62956499999966,
          "velocity": 0.5984251968503937,
          "duration": 0.1844133958333316
        },
        {
          "name": "D#5",
          "midi": 75,
          "time": 64.81474999999966,
          "velocity": 0.5984251968503937,
          "duration": 0.1844133958333316
        },
        {
          "name": "D5",
          "midi": 74,
          "time": 64.99993499999967,
          "velocity": 0.5984251968503937,
          "duration": 0.1844133958333316
        },
        {
          "name": "G#5",
          "midi": 80,
          "time": 65.18511999999967,
          "velocity": 0.5984251968503937,
          "duration": 0.36959839583333576
        },
        {
          "name": "G5",
          "midi": 79,
          "time": 65.55548999999968,
          "velocity": 0.5984251968503937,
          "duration": 0.1844133958333316
        },
        {
          "name": "C7",
          "midi": 96,
          "time": 65.74067499999968,
          "velocity": 0.5039370078740157,
          "duration": 0.1844133958333316
        },
        {
          "name": "A#6",
          "midi": 94,
          "time": 65.92585999999969,
          "velocity": 0.5039370078740157,
          "duration": 0.1844133958333316
        },
        {
          "name": "G#6",
          "midi": 92,
          "time": 66.11104499999969,
          "velocity": 0.5039370078740157,
          "duration": 0.1844133958333316
        },
        {
          "name": "G6",
          "midi": 91,
          "time": 66.2962299999997,
          "velocity": 0.5039370078740157,
          "duration": 0.1844133958333316
        },
        {
          "name": "F#6",
          "midi": 90,
          "time": 66.4814149999997,
          "velocity": 0.5039370078740157,
          "duration": 0.1844133958333316
        },
        {
          "name": "G6",
          "midi": 91,
          "time": 66.6665999999997,
          "velocity": 0.5039370078740157,
          "duration": 0.36959839583333576
        },
        {
          "name": "D#6",
          "midi": 87,
          "time": 67.03696999999971,
          "velocity": 0.5039370078740157,
          "duration": 0.1844133958333316
        },
        {
          "name": "D#6",
          "midi": 87,
          "time": 67.22215499999972,
          "velocity": 0.5984251968503937,
          "duration": 0.1844133958333316
        },
        {
          "name": "D6",
          "midi": 86,
          "time": 67.40733999999972,
          "velocity": 0.5984251968503937,
          "duration": 0.1844133958333316
        },
        {
          "name": "C6",
          "midi": 84,
          "time": 67.59252499999972,
          "velocity": 0.5984251968503937,
          "duration": 0.1844133958333316
        },
        {
          "name": "A#5",
          "midi": 82,
          "time": 67.77770999999973,
          "velocity": 0.5984251968503937,
          "duration": 0.1844133958333316
        },
        {
          "name": "G#5",
          "midi": 80,
          "time": 67.96289499999973,
          "velocity": 0.5984251968503937,
          "duration": 0.1844133958333316
        },
        {
          "name": "A#5",
          "midi": 82,
          "time": 68.14807999999974,
          "velocity": 0.5984251968503937,
          "duration": 0.36959839583333576
        },
        {
          "name": "D#5",
          "midi": 75,
          "time": 68.51844999999975,
          "velocity": 0.5984251968503937,
          "duration": 0.1844133958333316
        },
        {
          "name": "D#7",
          "midi": 99,
          "time": 68.70363499999975,
          "velocity": 0.5039370078740157,
          "duration": 0.1844133958333316
        },
        {
          "name": "D7",
          "midi": 98,
          "time": 68.88881999999975,
          "velocity": 0.5039370078740157,
          "duration": 0.1844133958333316
        },
        {
          "name": "C7",
          "midi": 96,
          "time": 69.07400499999976,
          "velocity": 0.5039370078740157,
          "duration": 0.1844133958333316
        },
        {
          "name": "A#6",
          "midi": 94,
          "time": 69.25918999999976,
          "velocity": 0.5039370078740157,
          "duration": 0.1844133958333316
        },
        {
          "name": "G#6",
          "midi": 92,
          "time": 69.44437499999977,
          "velocity": 0.5039370078740157,
          "duration": 0.1844133958333316
        },
        {
          "name": "A#6",
          "midi": 94,
          "time": 69.62955999999977,
          "velocity": 0.5039370078740157,
          "duration": 0.36959839583333576
        },
        {
          "name": "D#6",
          "midi": 87,
          "time": 69.99992999999978,
          "velocity": 0.5039370078740157,
          "duration": 0.1844133958333316
        },
        {
          "name": "G#5",
          "midi": 80,
          "time": 70.18511499999978,
          "velocity": 0.5984251968503937,
          "duration": 0.1844133958333316
        },
        {
          "name": "G5",
          "midi": 79,
          "time": 70.37029999999979,
          "velocity": 0.5984251968503937,
          "duration": 0.1844133958333316
        },
        {
          "name": "F5",
          "midi": 77,
          "time": 70.55548499999979,
          "velocity": 0.5984251968503937,
          "duration": 0.1844133958333316
        },
        {
          "name": "D#5",
          "midi": 75,
          "time": 70.7406699999998,
          "velocity": 0.5984251968503937,
          "duration": 0.1844133958333316
        },
        {
          "name": "D5",
          "midi": 74,
          "time": 70.9258549999998,
          "velocity": 0.5984251968503937,
          "duration": 0.1844133958333316
        },
        {
          "name": "C5",
          "midi": 72,
          "time": 71.1110399999998,
          "velocity": 0.5984251968503937,
          "duration": 0.1844133958333316
        },
        {
          "name": "C5",
          "midi": 72,
          "time": 71.29622499999981,
          "velocity": 0.5984251968503937,
          "duration": 0.1844133958333316
        },
        {
          "name": "C6",
          "midi": 84,
          "time": 71.48140999999981,
          "velocity": 0.5984251968503937,
          "duration": 0.36959839583333576
        },
        {
          "name": "E5",
          "midi": 76,
          "time": 71.85177999999982,
          "velocity": 0.5039370078740157,
          "duration": 0.09182089583333664
        },
        {
          "name": "G5",
          "midi": 79,
          "time": 71.85177999999982,
          "velocity": 0.5039370078740157,
          "duration": 0.09182089583333664
        },
        {
          "name": "C#5",
          "midi": 73,
          "time": 72.03696499999982,
          "velocity": 0.5039370078740157,
          "duration": 0.09182089583333664
        },
        {
          "name": "E5",
          "midi": 76,
          "time": 72.03696499999982,
          "velocity": 0.5039370078740157,
          "duration": 0.09182089583333664
        },
        {
          "name": "A#4",
          "midi": 70,
          "time": 72.22214999999983,
          "velocity": 0.5039370078740157,
          "duration": 0.09182089583333664
        },
        {
          "name": "C#5",
          "midi": 73,
          "time": 72.22214999999983,
          "velocity": 0.5039370078740157,
          "duration": 0.09182089583333664
        },
        {
          "name": "G4",
          "midi": 67,
          "time": 72.40733499999983,
          "velocity": 0.5039370078740157,
          "duration": 0.09182089583333664
        },
        {
          "name": "A#4",
          "midi": 70,
          "time": 72.40733499999983,
          "velocity": 0.5039370078740157,
          "duration": 0.09182089583333664
        },
        {
          "name": "G4",
          "midi": 67,
          "time": 72.59251999999984,
          "velocity": 0.5984251968503937,
          "duration": 0.1844133958333316
        },
        {
          "name": "F4",
          "midi": 65,
          "time": 72.77770499999984,
          "velocity": 0.5984251968503937,
          "duration": 0.1844133958333316
        },
        {
          "name": "G4",
          "midi": 67,
          "time": 72.96288999999985,
          "velocity": 0.5984251968503937,
          "duration": 0.1844133958333316
        },
        {
          "name": "F4",
          "midi": 65,
          "time": 73.14807499999985,
          "velocity": 0.5984251968503937,
          "duration": 0.1844133958333316
        },
        {
          "name": "G4",
          "midi": 67,
          "time": 73.33325999999985,
          "velocity": 0.5984251968503937,
          "duration": 0.1844133958333316
        },
        {
          "name": "F4",
          "midi": 65,
          "time": 73.51844499999986,
          "velocity": 0.5984251968503937,
          "duration": 0.1844133958333316
        },
        {
          "name": "G4",
          "midi": 67,
          "time": 73.70362999999986,
          "velocity": 0.5984251968503937,
          "duration": 0.1844133958333316
        },
        {
          "name": "F4",
          "midi": 65,
          "time": 73.88881499999987,
          "velocity": 0.5984251968503937,
          "duration": 0.1844133958333316
        },
        {
          "name": "G4",
          "midi": 67,
          "time": 74.07399999999987,
          "velocity": 0.5984251968503937,
          "duration": 0.1844133958333316
        },
        {
          "name": "F4",
          "midi": 65,
          "time": 74.25918499999987,
          "velocity": 0.5984251968503937,
          "duration": 0.1844133958333316
        },
        {
          "name": "G4",
          "midi": 67,
          "time": 74.44436999999988,
          "velocity": 0.5984251968503937,
          "duration": 0.1844133958333316
        },
        {
          "name": "G#4",
          "midi": 68,
          "time": 74.62955499999988,
          "velocity": 0.5984251968503937,
          "duration": 0.1844133958333316
        },
        {
          "name": "G4",
          "midi": 67,
          "time": 74.81473999999989,
          "velocity": 0.5984251968503937,
          "duration": 0.12268506249999689
        },
        {
          "name": "F4",
          "midi": 65,
          "time": 74.93819666666656,
          "velocity": 0.5984251968503937,
          "duration": 0.12268506249999689
        },
        {
          "name": "D#4",
          "midi": 63,
          "time": 75.06165333333323,
          "velocity": 0.5984251968503937,
          "duration": 0.12268506249999689
        },
        {
          "name": "G4",
          "midi": 67,
          "time": 75.37029499999989,
          "velocity": 0.5984251968503937,
          "duration": 0.36959839583333576
        },
        {
          "name": "F4",
          "midi": 65,
          "time": 75.7406649999999,
          "velocity": 0.5984251968503937,
          "duration": 0.1844133958333316
        },
        {
          "name": "G4",
          "midi": 67,
          "time": 75.9258499999999,
          "velocity": 0.5984251968503937,
          "duration": 0.1844133958333316
        },
        {
          "name": "F4",
          "midi": 65,
          "time": 76.1110349999999,
          "velocity": 0.5984251968503937,
          "duration": 0.1844133958333316
        },
        {
          "name": "G4",
          "midi": 67,
          "time": 76.2962199999999,
          "velocity": 0.5984251968503937,
          "duration": 0.1844133958333316
        },
        {
          "name": "F4",
          "midi": 65,
          "time": 76.48140499999991,
          "velocity": 0.5984251968503937,
          "duration": 0.1844133958333316
        },
        {
          "name": "G4",
          "midi": 67,
          "time": 76.66658999999991,
          "velocity": 0.5984251968503937,
          "duration": 0.1844133958333316
        },
        {
          "name": "F4",
          "midi": 65,
          "time": 76.85177499999992,
          "velocity": 0.5984251968503937,
          "duration": 0.1844133958333316
        },
        {
          "name": "G4",
          "midi": 67,
          "time": 77.03695999999992,
          "velocity": 0.5984251968503937,
          "duration": 0.1844133958333316
        },
        {
          "name": "G#4",
          "midi": 68,
          "time": 77.22214499999993,
          "velocity": 0.5984251968503937,
          "duration": 0.1844133958333316
        },
        {
          "name": "A#4",
          "midi": 70,
          "time": 77.40732999999993,
          "velocity": 0.5984251968503937,
          "duration": 0.1844133958333316
        },
        {
          "name": "C5",
          "midi": 72,
          "time": 77.59251499999993,
          "velocity": 0.5984251968503937,
          "duration": 0.1844133958333316
        },
        {
          "name": "A#4",
          "midi": 70,
          "time": 77.77769999999994,
          "velocity": 0.5984251968503937,
          "duration": 0.12268506249999689
        },
        {
          "name": "G#4",
          "midi": 68,
          "time": 77.90115666666661,
          "velocity": 0.5984251968503937,
          "duration": 0.12268506249999689
        },
        {
          "name": "G4",
          "midi": 67,
          "time": 78.02461333333328,
          "velocity": 0.5984251968503937,
          "duration": 0.12268506249999689
        },
        {
          "name": "G4",
          "midi": 67,
          "time": 78.33325499999994,
          "velocity": 0.5984251968503937,
          "duration": 0.36959839583333576
        },
        {
          "name": "F4",
          "midi": 65,
          "time": 78.70362499999995,
          "velocity": 0.5984251968503937,
          "duration": 0.1844133958333316
        },
        {
          "name": "G4",
          "midi": 67,
          "time": 78.88880999999995,
          "velocity": 0.5984251968503937,
          "duration": 0.1844133958333316
        },
        {
          "name": "F4",
          "midi": 65,
          "time": 79.07399499999995,
          "velocity": 0.5984251968503937,
          "duration": 0.1844133958333316
        },
        {
          "name": "G4",
          "midi": 67,
          "time": 79.25917999999996,
          "velocity": 0.5984251968503937,
          "duration": 0.1844133958333316
        },
        {
          "name": "F4",
          "midi": 65,
          "time": 79.44436499999996,
          "velocity": 0.5984251968503937,
          "duration": 0.1844133958333316
        },
        {
          "name": "G4",
          "midi": 67,
          "time": 79.62954999999997,
          "velocity": 0.5984251968503937,
          "duration": 0.1844133958333316
        },
        {
          "name": "F4",
          "midi": 65,
          "time": 79.81473499999997,
          "velocity": 0.5984251968503937,
          "duration": 0.1844133958333316
        },
        {
          "name": "A#4",
          "midi": 70,
          "time": 79.99991999999997,
          "velocity": 0.5984251968503937,
          "duration": 0.1844133958333316
        },
        {
          "name": "G#4",
          "midi": 68,
          "time": 80.18510499999998,
          "velocity": 0.5984251968503937,
          "duration": 0.1844133958333316
        },
        {
          "name": "G4",
          "midi": 67,
          "time": 80.37028999999998,
          "velocity": 0.5984251968503937,
          "duration": 0.1844133958333316
        },
        {
          "name": "G#4",
          "midi": 68,
          "time": 80.55547499999999,
          "velocity": 0.5984251968503937,
          "duration": 0.1844133958333316
        },
        {
          "name": "G4",
          "midi": 67,
          "time": 80.74065999999999,
          "velocity": 0.5984251968503937,
          "duration": 0.12268506249999689
        },
        {
          "name": "G#4",
          "midi": 68,
          "time": 80.86411666666666,
          "velocity": 0.5984251968503937,
          "duration": 0.12268506249999689
        },
        {
          "name": "G4",
          "midi": 67,
          "time": 80.98757333333333,
          "velocity": 0.5984251968503937,
          "duration": 0.12268506249999689
        },
        {
          "name": "F4",
          "midi": 65,
          "time": 81.29621499999999,
          "velocity": 0.5984251968503937,
          "duration": 0.36959839583333576
        },
        {
          "name": "D#4",
          "midi": 63,
          "time": 81.666585,
          "velocity": 0.5984251968503937,
          "duration": 0.1844133958333316
        },
        {
          "name": "F4",
          "midi": 65,
          "time": 81.85177,
          "velocity": 0.5984251968503937,
          "duration": 0.1844133958333316
        },
        {
          "name": "D#4",
          "midi": 63,
          "time": 82.036955,
          "velocity": 0.5984251968503937,
          "duration": 0.1844133958333316
        },
        {
          "name": "F4",
          "midi": 65,
          "time": 82.22214000000001,
          "velocity": 0.5984251968503937,
          "duration": 0.1844133958333316
        },
        {
          "name": "G4",
          "midi": 67,
          "time": 82.40732500000001,
          "velocity": 0.5984251968503937,
          "duration": 0.1844133958333316
        },
        {
          "name": "G#4",
          "midi": 68,
          "time": 82.59251000000002,
          "velocity": 0.5984251968503937,
          "duration": 0.1844133958333316
        },
        {
          "name": "G4",
          "midi": 67,
          "time": 82.77769500000002,
          "velocity": 0.5984251968503937,
          "duration": 0.1844133958333316
        },
        {
          "name": "G4",
          "midi": 67,
          "time": 82.96288000000003,
          "velocity": 0.3858267716535433,
          "duration": 0.7399683958333299
        },
        {
          "name": "C#5",
          "midi": 73,
          "time": 83.0284663541667,
          "velocity": 0.4015748031496063,
          "duration": 0.6736104374999883
        },
        {
          "name": "F5",
          "midi": 77,
          "time": 83.09482431250002,
          "velocity": 0.41732283464566927,
          "duration": 0.6072524791666609
        },
        {
          "name": "G4",
          "midi": 67,
          "time": 83.70362000000003,
          "velocity": 0.5669291338582677,
          "duration": 0.7399683958333299
        },
        {
          "name": "A#4",
          "midi": 70,
          "time": 83.7692063541667,
          "velocity": 0.5826771653543307,
          "duration": 0.6736104374999883
        },
        {
          "name": "E5",
          "midi": 76,
          "time": 83.83556431250003,
          "velocity": 0.5984251968503937,
          "duration": 0.6072524791666609
        },
        {
          "name": "D5",
          "midi": 74,
          "time": 84.44436000000003,
          "velocity": 0.7559055118110236,
          "duration": 0.1844133958333316
        },
        {
          "name": "F5",
          "midi": 77,
          "time": 84.44436000000003,
          "velocity": 0.7559055118110236,
          "duration": 0.1844133958333316
        },
        {
          "name": "D6",
          "midi": 86,
          "time": 84.44436000000003,
          "velocity": 0.7559055118110236,
          "duration": 0.1844133958333316
        },
        {
          "name": "C5",
          "midi": 72,
          "time": 84.62954500000004,
          "velocity": 0.7559055118110236,
          "duration": 0.1844133958333316
        },
        {
          "name": "D#5",
          "midi": 75,
          "time": 84.62954500000004,
          "velocity": 0.7559055118110236,
          "duration": 0.1844133958333316
        },
        {
          "name": "C6",
          "midi": 84,
          "time": 84.62954500000004,
          "velocity": 0.7559055118110236,
          "duration": 0.1844133958333316
        },
        {
          "name": "D5",
          "midi": 74,
          "time": 84.81473000000004,
          "velocity": 0.7559055118110236,
          "duration": 0.1844133958333316
        },
        {
          "name": "F5",
          "midi": 77,
          "time": 84.81473000000004,
          "velocity": 0.7559055118110236,
          "duration": 0.1844133958333316
        },
        {
          "name": "D6",
          "midi": 86,
          "time": 84.81473000000004,
          "velocity": 0.7559055118110236,
          "duration": 0.1844133958333316
        },
        {
          "name": "C5",
          "midi": 72,
          "time": 84.99991500000004,
          "velocity": 0.7559055118110236,
          "duration": 0.1844133958333316
        },
        {
          "name": "D#5",
          "midi": 75,
          "time": 84.99991500000004,
          "velocity": 0.7559055118110236,
          "duration": 0.1844133958333316
        },
        {
          "name": "C6",
          "midi": 84,
          "time": 84.99991500000004,
          "velocity": 0.7559055118110236,
          "duration": 0.1844133958333316
        },
        {
          "name": "D5",
          "midi": 74,
          "time": 85.18510000000005,
          "velocity": 0.7559055118110236,
          "duration": 0.1844133958333316
        },
        {
          "name": "F5",
          "midi": 77,
          "time": 85.18510000000005,
          "velocity": 0.7559055118110236,
          "duration": 0.1844133958333316
        },
        {
          "name": "D6",
          "midi": 86,
          "time": 85.18510000000005,
          "velocity": 0.7559055118110236,
          "duration": 0.1844133958333316
        },
        {
          "name": "C5",
          "midi": 72,
          "time": 85.37028500000005,
          "velocity": 0.7559055118110236,
          "duration": 0.1844133958333316
        },
        {
          "name": "D#5",
          "midi": 75,
          "time": 85.37028500000005,
          "velocity": 0.7559055118110236,
          "duration": 0.1844133958333316
        },
        {
          "name": "C6",
          "midi": 84,
          "time": 85.37028500000005,
          "velocity": 0.7559055118110236,
          "duration": 0.1844133958333316
        },
        {
          "name": "D5",
          "midi": 74,
          "time": 85.55547000000006,
          "velocity": 0.7559055118110236,
          "duration": 0.1844133958333316
        },
        {
          "name": "F5",
          "midi": 77,
          "time": 85.55547000000006,
          "velocity": 0.7559055118110236,
          "duration": 0.1844133958333316
        },
        {
          "name": "D6",
          "midi": 86,
          "time": 85.55547000000006,
          "velocity": 0.7559055118110236,
          "duration": 0.1844133958333316
        },
        {
          "name": "C5",
          "midi": 72,
          "time": 85.74065500000006,
          "velocity": 0.7559055118110236,
          "duration": 0.1844133958333316
        },
        {
          "name": "D#5",
          "midi": 75,
          "time": 85.74065500000006,
          "velocity": 0.7559055118110236,
          "duration": 0.1844133958333316
        },
        {
          "name": "C6",
          "midi": 84,
          "time": 85.74065500000006,
          "velocity": 0.7559055118110236,
          "duration": 0.1844133958333316
        },
        {
          "name": "D5",
          "midi": 74,
          "time": 85.92584000000006,
          "velocity": 0.7559055118110236,
          "duration": 0.1844133958333316
        },
        {
          "name": "F5",
          "midi": 77,
          "time": 85.92584000000006,
          "velocity": 0.7559055118110236,
          "duration": 0.1844133958333316
        },
        {
          "name": "D6",
          "midi": 86,
          "time": 85.92584000000006,
          "velocity": 0.7559055118110236,
          "duration": 0.1844133958333316
        },
        {
          "name": "D#5",
          "midi": 75,
          "time": 86.11102500000007,
          "velocity": 0.7559055118110236,
          "duration": 0.1844133958333316
        },
        {
          "name": "G5",
          "midi": 79,
          "time": 86.11102500000007,
          "velocity": 0.7559055118110236,
          "duration": 0.1844133958333316
        },
        {
          "name": "D#6",
          "midi": 87,
          "time": 86.11102500000007,
          "velocity": 0.7559055118110236,
          "duration": 0.1844133958333316
        },
        {
          "name": "D5",
          "midi": 74,
          "time": 86.29621000000007,
          "velocity": 0.7559055118110236,
          "duration": 0.1844133958333316
        },
        {
          "name": "F5",
          "midi": 77,
          "time": 86.29621000000007,
          "velocity": 0.7559055118110236,
          "duration": 0.1844133958333316
        },
        {
          "name": "D6",
          "midi": 86,
          "time": 86.29621000000007,
          "velocity": 0.7559055118110236,
          "duration": 0.1844133958333316
        },
        {
          "name": "A#4",
          "midi": 70,
          "time": 86.48139500000008,
          "velocity": 0.7559055118110236,
          "duration": 0.1844133958333316
        },
        {
          "name": "D5",
          "midi": 74,
          "time": 86.48139500000008,
          "velocity": 0.7559055118110236,
          "duration": 0.1844133958333316
        },
        {
          "name": "A#5",
          "midi": 82,
          "time": 86.48139500000008,
          "velocity": 0.7559055118110236,
          "duration": 0.1844133958333316
        },
        {
          "name": "G4",
          "midi": 67,
          "time": 86.66658000000008,
          "velocity": 0.7559055118110236,
          "duration": 0.36959839583333576
        },
        {
          "name": "A#4",
          "midi": 70,
          "time": 86.66658000000008,
          "velocity": 0.7559055118110236,
          "duration": 0.36959839583333576
        },
        {
          "name": "G5",
          "midi": 79,
          "time": 86.66658000000008,
          "velocity": 0.7559055118110236,
          "duration": 0.36959839583333576
        },
        {
          "name": "D5",
          "midi": 74,
          "time": 87.03695000000009,
          "velocity": 0.7559055118110236,
          "duration": 0.1844133958333316
        },
        {
          "name": "F5",
          "midi": 77,
          "time": 87.03695000000009,
          "velocity": 0.7559055118110236,
          "duration": 0.1844133958333316
        },
        {
          "name": "D6",
          "midi": 86,
          "time": 87.03695000000009,
          "velocity": 0.7559055118110236,
          "duration": 0.1844133958333316
        },
        {
          "name": "D#5",
          "midi": 75,
          "time": 87.2221350000001,
          "velocity": 0.7559055118110236,
          "duration": 0.1844133958333316
        },
        {
          "name": "G5",
          "midi": 79,
          "time": 87.2221350000001,
          "velocity": 0.7559055118110236,
          "duration": 0.1844133958333316
        },
        {
          "name": "D#6",
          "midi": 87,
          "time": 87.2221350000001,
          "velocity": 0.7559055118110236,
          "duration": 0.1844133958333316
        },
        {
          "name": "D5",
          "midi": 74,
          "time": 87.4073200000001,
          "velocity": 0.7559055118110236,
          "duration": 0.1844133958333316
        },
        {
          "name": "F5",
          "midi": 77,
          "time": 87.4073200000001,
          "velocity": 0.7559055118110236,
          "duration": 0.1844133958333316
        },
        {
          "name": "D6",
          "midi": 86,
          "time": 87.4073200000001,
          "velocity": 0.7559055118110236,
          "duration": 0.1844133958333316
        },
        {
          "name": "A#4",
          "midi": 70,
          "time": 87.5925050000001,
          "velocity": 0.7559055118110236,
          "duration": 0.1844133958333316
        },
        {
          "name": "D5",
          "midi": 74,
          "time": 87.5925050000001,
          "velocity": 0.7559055118110236,
          "duration": 0.1844133958333316
        },
        {
          "name": "A#5",
          "midi": 82,
          "time": 87.5925050000001,
          "velocity": 0.7559055118110236,
          "duration": 0.1844133958333316
        },
        {
          "name": "G4",
          "midi": 67,
          "time": 87.7776900000001,
          "velocity": 0.7559055118110236,
          "duration": 0.36959839583333576
        },
        {
          "name": "D5",
          "midi": 74,
          "time": 87.7776900000001,
          "velocity": 0.7559055118110236,
          "duration": 0.36959839583333576
        },
        {
          "name": "G5",
          "midi": 79,
          "time": 87.7776900000001,
          "velocity": 0.7559055118110236,
          "duration": 0.36959839583333576
        },
        {
          "name": "D5",
          "midi": 74,
          "time": 88.14806000000011,
          "velocity": 0.7559055118110236,
          "duration": 0.1844133958333316
        },
        {
          "name": "F5",
          "midi": 77,
          "time": 88.14806000000011,
          "velocity": 0.7559055118110236,
          "duration": 0.1844133958333316
        },
        {
          "name": "D6",
          "midi": 86,
          "time": 88.14806000000011,
          "velocity": 0.7559055118110236,
          "duration": 0.1844133958333316
        },
        {
          "name": "D#5",
          "midi": 75,
          "time": 88.33324500000012,
          "velocity": 0.7559055118110236,
          "duration": 0.1844133958333316
        },
        {
          "name": "G5",
          "midi": 79,
          "time": 88.33324500000012,
          "velocity": 0.7559055118110236,
          "duration": 0.1844133958333316
        },
        {
          "name": "D#6",
          "midi": 87,
          "time": 88.33324500000012,
          "velocity": 0.7559055118110236,
          "duration": 0.1844133958333316
        },
        {
          "name": "D5",
          "midi": 74,
          "time": 88.51843000000012,
          "velocity": 0.7559055118110236,
          "duration": 0.1844133958333316
        },
        {
          "name": "F5",
          "midi": 77,
          "time": 88.51843000000012,
          "velocity": 0.7559055118110236,
          "duration": 0.1844133958333316
        },
        {
          "name": "D6",
          "midi": 86,
          "time": 88.51843000000012,
          "velocity": 0.7559055118110236,
          "duration": 0.1844133958333316
        },
        {
          "name": "A#4",
          "midi": 70,
          "time": 88.70361500000013,
          "velocity": 0.7559055118110236,
          "duration": 0.1844133958333316
        },
        {
          "name": "D5",
          "midi": 74,
          "time": 88.70361500000013,
          "velocity": 0.7559055118110236,
          "duration": 0.1844133958333316
        },
        {
          "name": "A#5",
          "midi": 82,
          "time": 88.70361500000013,
          "velocity": 0.7559055118110236,
          "duration": 0.1844133958333316
        },
        {
          "name": "G4",
          "midi": 67,
          "time": 88.88880000000013,
          "velocity": 0.7559055118110236,
          "duration": 0.36959839583333576
        },
        {
          "name": "D#5",
          "midi": 75,
          "time": 88.88880000000013,
          "velocity": 0.7559055118110236,
          "duration": 0.36959839583333576
        },
        {
          "name": "G5",
          "midi": 79,
          "time": 88.88880000000013,
          "velocity": 0.7559055118110236,
          "duration": 0.36959839583333576
        },
        {
          "name": "D5",
          "midi": 74,
          "time": 89.25917000000014,
          "velocity": 0.7559055118110236,
          "duration": 0.1844133958333316
        },
        {
          "name": "F5",
          "midi": 77,
          "time": 89.25917000000014,
          "velocity": 0.7559055118110236,
          "duration": 0.1844133958333316
        },
        {
          "name": "D6",
          "midi": 86,
          "time": 89.25917000000014,
          "velocity": 0.7559055118110236,
          "duration": 0.1844133958333316
        },
        {
          "name": "D#5",
          "midi": 75,
          "time": 89.44435500000014,
          "velocity": 0.7559055118110236,
          "duration": 0.1844133958333316
        },
        {
          "name": "G5",
          "midi": 79,
          "time": 89.44435500000014,
          "velocity": 0.7559055118110236,
          "duration": 0.1844133958333316
        },
        {
          "name": "D#6",
          "midi": 87,
          "time": 89.44435500000014,
          "velocity": 0.7559055118110236,
          "duration": 0.1844133958333316
        },
        {
          "name": "A#4",
          "midi": 70,
          "time": 89.62954000000015,
          "velocity": 0.7559055118110236,
          "duration": 0.1844133958333316
        },
        {
          "name": "G5",
          "midi": 79,
          "time": 89.62954000000015,
          "velocity": 0.7559055118110236,
          "duration": 0.1844133958333316
        },
        {
          "name": "A#5",
          "midi": 82,
          "time": 89.62954000000015,
          "velocity": 0.7559055118110236,
          "duration": 0.1844133958333316
        },
        {
          "name": "G#4",
          "midi": 68,
          "time": 89.81472500000015,
          "velocity": 0.7559055118110236,
          "duration": 0.1844133958333316
        },
        {
          "name": "F5",
          "midi": 77,
          "time": 89.81472500000015,
          "velocity": 0.7559055118110236,
          "duration": 0.1844133958333316
        },
        {
          "name": "G#5",
          "midi": 80,
          "time": 89.81472500000015,
          "velocity": 0.7559055118110236,
          "duration": 0.1844133958333316
        },
        {
          "name": "G4",
          "midi": 67,
          "time": 89.99991000000016,
          "velocity": 0.7559055118110236,
          "duration": 0.36959839583333576
        },
        {
          "name": "E5",
          "midi": 76,
          "time": 89.99991000000016,
          "velocity": 0.7559055118110236,
          "duration": 0.36959839583333576
        },
        {
          "name": "G5",
          "midi": 79,
          "time": 89.99991000000016,
          "velocity": 0.7559055118110236,
          "duration": 0.36959839583333576
        },
        {
          "name": "D5",
          "midi": 74,
          "time": 90.37028000000016,
          "velocity": 0.7559055118110236,
          "duration": 0.1844133958333316
        },
        {
          "name": "F5",
          "midi": 77,
          "time": 90.37028000000016,
          "velocity": 0.7559055118110236,
          "duration": 0.1844133958333316
        },
        {
          "name": "D6",
          "midi": 86,
          "time": 90.37028000000016,
          "velocity": 0.7559055118110236,
          "duration": 0.1844133958333316
        },
        {
          "name": "C5",
          "midi": 72,
          "time": 90.55546500000017,
          "velocity": 0.7559055118110236,
          "duration": 0.1844133958333316
        },
        {
          "name": "D#5",
          "midi": 75,
          "time": 90.55546500000017,
          "velocity": 0.7559055118110236,
          "duration": 0.1844133958333316
        },
        {
          "name": "C6",
          "midi": 84,
          "time": 90.55546500000017,
          "velocity": 0.7559055118110236,
          "duration": 0.1844133958333316
        },
        {
          "name": "D5",
          "midi": 74,
          "time": 90.74065000000017,
          "velocity": 0.7559055118110236,
          "duration": 0.1844133958333316
        },
        {
          "name": "F5",
          "midi": 77,
          "time": 90.74065000000017,
          "velocity": 0.7559055118110236,
          "duration": 0.1844133958333316
        },
        {
          "name": "D6",
          "midi": 86,
          "time": 90.74065000000017,
          "velocity": 0.7559055118110236,
          "duration": 0.1844133958333316
        },
        {
          "name": "C5",
          "midi": 72,
          "time": 90.92583500000018,
          "velocity": 0.7559055118110236,
          "duration": 0.1844133958333316
        },
        {
          "name": "D#5",
          "midi": 75,
          "time": 90.92583500000018,
          "velocity": 0.7559055118110236,
          "duration": 0.1844133958333316
        },
        {
          "name": "C6",
          "midi": 84,
          "time": 90.92583500000018,
          "velocity": 0.7559055118110236,
          "duration": 0.1844133958333316
        },
        {
          "name": "D5",
          "midi": 74,
          "time": 91.11102000000018,
          "velocity": 0.7559055118110236,
          "duration": 0.1844133958333316
        },
        {
          "name": "F5",
          "midi": 77,
          "time": 91.11102000000018,
          "velocity": 0.7559055118110236,
          "duration": 0.1844133958333316
        },
        {
          "name": "D6",
          "midi": 86,
          "time": 91.11102000000018,
          "velocity": 0.7559055118110236,
          "duration": 0.1844133958333316
        },
        {
          "name": "C5",
          "midi": 72,
          "time": 91.29620500000019,
          "velocity": 0.7559055118110236,
          "duration": 0.1844133958333316
        },
        {
          "name": "D#5",
          "midi": 75,
          "time": 91.29620500000019,
          "velocity": 0.7559055118110236,
          "duration": 0.1844133958333316
        },
        {
          "name": "C6",
          "midi": 84,
          "time": 91.29620500000019,
          "velocity": 0.7559055118110236,
          "duration": 0.1844133958333316
        },
        {
          "name": "D5",
          "midi": 74,
          "time": 91.48139000000019,
          "velocity": 0.7559055118110236,
          "duration": 0.1844133958333316
        },
        {
          "name": "F5",
          "midi": 77,
          "time": 91.48139000000019,
          "velocity": 0.7559055118110236,
          "duration": 0.1844133958333316
        },
        {
          "name": "D6",
          "midi": 86,
          "time": 91.48139000000019,
          "velocity": 0.7559055118110236,
          "duration": 0.1844133958333316
        },
        {
          "name": "C5",
          "midi": 72,
          "time": 91.6665750000002,
          "velocity": 0.7559055118110236,
          "duration": 0.1844133958333316
        },
        {
          "name": "D#5",
          "midi": 75,
          "time": 91.6665750000002,
          "velocity": 0.7559055118110236,
          "duration": 0.1844133958333316
        },
        {
          "name": "C6",
          "midi": 84,
          "time": 91.6665750000002,
          "velocity": 0.7559055118110236,
          "duration": 0.1844133958333316
        },
        {
          "name": "D5",
          "midi": 74,
          "time": 91.8517600000002,
          "velocity": 0.7559055118110236,
          "duration": 0.1844133958333316
        },
        {
          "name": "F5",
          "midi": 77,
          "time": 91.8517600000002,
          "velocity": 0.7559055118110236,
          "duration": 0.1844133958333316
        },
        {
          "name": "D6",
          "midi": 86,
          "time": 91.8517600000002,
          "velocity": 0.7559055118110236,
          "duration": 0.1844133958333316
        },
        {
          "name": "D#5",
          "midi": 75,
          "time": 92.0369450000002,
          "velocity": 0.7559055118110236,
          "duration": 0.1844133958333316
        },
        {
          "name": "G5",
          "midi": 79,
          "time": 92.0369450000002,
          "velocity": 0.7559055118110236,
          "duration": 0.1844133958333316
        },
        {
          "name": "D#6",
          "midi": 87,
          "time": 92.0369450000002,
          "velocity": 0.7559055118110236,
          "duration": 0.1844133958333316
        },
        {
          "name": "D5",
          "midi": 74,
          "time": 92.2221300000002,
          "velocity": 0.7559055118110236,
          "duration": 0.1844133958333316
        },
        {
          "name": "F5",
          "midi": 77,
          "time": 92.2221300000002,
          "velocity": 0.7559055118110236,
          "duration": 0.1844133958333316
        },
        {
          "name": "D6",
          "midi": 86,
          "time": 92.2221300000002,
          "velocity": 0.7559055118110236,
          "duration": 0.1844133958333316
        },
        {
          "name": "A#4",
          "midi": 70,
          "time": 92.40731500000021,
          "velocity": 0.7559055118110236,
          "duration": 0.1844133958333316
        },
        {
          "name": "D5",
          "midi": 74,
          "time": 92.40731500000021,
          "velocity": 0.7559055118110236,
          "duration": 0.1844133958333316
        },
        {
          "name": "A#5",
          "midi": 82,
          "time": 92.40731500000021,
          "velocity": 0.7559055118110236,
          "duration": 0.1844133958333316
        },
        {
          "name": "G4",
          "midi": 67,
          "time": 92.59250000000021,
          "velocity": 0.7559055118110236,
          "duration": 0.36959839583333576
        },
        {
          "name": "A#4",
          "midi": 70,
          "time": 92.59250000000021,
          "velocity": 0.7559055118110236,
          "duration": 0.36959839583333576
        },
        {
          "name": "G5",
          "midi": 79,
          "time": 92.59250000000021,
          "velocity": 0.7559055118110236,
          "duration": 0.36959839583333576
        },
        {
          "name": "D5",
          "midi": 74,
          "time": 92.96287000000022,
          "velocity": 0.7559055118110236,
          "duration": 0.1844133958333316
        },
        {
          "name": "F5",
          "midi": 77,
          "time": 92.96287000000022,
          "velocity": 0.7559055118110236,
          "duration": 0.1844133958333316
        },
        {
          "name": "D6",
          "midi": 86,
          "time": 92.96287000000022,
          "velocity": 0.7559055118110236,
          "duration": 0.1844133958333316
        },
        {
          "name": "D#5",
          "midi": 75,
          "time": 93.14805500000023,
          "velocity": 0.7559055118110236,
          "duration": 0.1844133958333316
        },
        {
          "name": "G5",
          "midi": 79,
          "time": 93.14805500000023,
          "velocity": 0.7559055118110236,
          "duration": 0.1844133958333316
        },
        {
          "name": "D#6",
          "midi": 87,
          "time": 93.14805500000023,
          "velocity": 0.7559055118110236,
          "duration": 0.1844133958333316
        },
        {
          "name": "D5",
          "midi": 74,
          "time": 93.33324000000023,
          "velocity": 0.7559055118110236,
          "duration": 0.1844133958333316
        },
        {
          "name": "F5",
          "midi": 77,
          "time": 93.33324000000023,
          "velocity": 0.7559055118110236,
          "duration": 0.1844133958333316
        },
        {
          "name": "D6",
          "midi": 86,
          "time": 93.33324000000023,
          "velocity": 0.7559055118110236,
          "duration": 0.1844133958333316
        },
        {
          "name": "A#4",
          "midi": 70,
          "time": 93.51842500000024,
          "velocity": 0.7559055118110236,
          "duration": 0.1844133958333316
        },
        {
          "name": "D5",
          "midi": 74,
          "time": 93.51842500000024,
          "velocity": 0.7559055118110236,
          "duration": 0.1844133958333316
        },
        {
          "name": "A#5",
          "midi": 82,
          "time": 93.51842500000024,
          "velocity": 0.7559055118110236,
          "duration": 0.1844133958333316
        },
        {
          "name": "G4",
          "midi": 67,
          "time": 93.70361000000024,
          "velocity": 0.7559055118110236,
          "duration": 0.36959839583333576
        },
        {
          "name": "D5",
          "midi": 74,
          "time": 93.70361000000024,
          "velocity": 0.7559055118110236,
          "duration": 0.36959839583333576
        },
        {
          "name": "G5",
          "midi": 79,
          "time": 93.70361000000024,
          "velocity": 0.7559055118110236,
          "duration": 0.36959839583333576
        },
        {
          "name": "D5",
          "midi": 74,
          "time": 94.07398000000025,
          "velocity": 0.7559055118110236,
          "duration": 0.1844133958333316
        },
        {
          "name": "F5",
          "midi": 77,
          "time": 94.07398000000025,
          "velocity": 0.7559055118110236,
          "duration": 0.1844133958333316
        },
        {
          "name": "D6",
          "midi": 86,
          "time": 94.07398000000025,
          "velocity": 0.7559055118110236,
          "duration": 0.1844133958333316
        },
        {
          "name": "D#5",
          "midi": 75,
          "time": 94.25916500000025,
          "velocity": 0.7559055118110236,
          "duration": 0.1844133958333316
        },
        {
          "name": "G5",
          "midi": 79,
          "time": 94.25916500000025,
          "velocity": 0.7559055118110236,
          "duration": 0.1844133958333316
        },
        {
          "name": "D#6",
          "midi": 87,
          "time": 94.25916500000025,
          "velocity": 0.7559055118110236,
          "duration": 0.1844133958333316
        },
        {
          "name": "D5",
          "midi": 74,
          "time": 94.44435000000026,
          "velocity": 0.7559055118110236,
          "duration": 0.1844133958333316
        },
        {
          "name": "F5",
          "midi": 77,
          "time": 94.44435000000026,
          "velocity": 0.7559055118110236,
          "duration": 0.1844133958333316
        },
        {
          "name": "D6",
          "midi": 86,
          "time": 94.44435000000026,
          "velocity": 0.7559055118110236,
          "duration": 0.1844133958333316
        },
        {
          "name": "A#4",
          "midi": 70,
          "time": 94.62953500000026,
          "velocity": 0.7559055118110236,
          "duration": 0.1844133958333316
        },
        {
          "name": "D5",
          "midi": 74,
          "time": 94.62953500000026,
          "velocity": 0.7559055118110236,
          "duration": 0.1844133958333316
        },
        {
          "name": "A#5",
          "midi": 82,
          "time": 94.62953500000026,
          "velocity": 0.7559055118110236,
          "duration": 0.1844133958333316
        },
        {
          "name": "G4",
          "midi": 67,
          "time": 94.81472000000026,
          "velocity": 0.7559055118110236,
          "duration": 0.36959839583333576
        },
        {
          "name": "D#5",
          "midi": 75,
          "time": 94.81472000000026,
          "velocity": 0.7559055118110236,
          "duration": 0.36959839583333576
        },
        {
          "name": "G5",
          "midi": 79,
          "time": 94.81472000000026,
          "velocity": 0.7559055118110236,
          "duration": 0.36959839583333576
        },
        {
          "name": "D5",
          "midi": 74,
          "time": 95.18509000000027,
          "velocity": 0.7559055118110236,
          "duration": 0.1844133958333316
        },
        {
          "name": "F5",
          "midi": 77,
          "time": 95.18509000000027,
          "velocity": 0.7559055118110236,
          "duration": 0.1844133958333316
        },
        {
          "name": "D6",
          "midi": 86,
          "time": 95.18509000000027,
          "velocity": 0.7559055118110236,
          "duration": 0.1844133958333316
        },
        {
          "name": "D#5",
          "midi": 75,
          "time": 95.37027500000028,
          "velocity": 0.7559055118110236,
          "duration": 0.1844133958333316
        },
        {
          "name": "G5",
          "midi": 79,
          "time": 95.37027500000028,
          "velocity": 0.7559055118110236,
          "duration": 0.1844133958333316
        },
        {
          "name": "D#6",
          "midi": 87,
          "time": 95.37027500000028,
          "velocity": 0.7559055118110236,
          "duration": 0.1844133958333316
        },
        {
          "name": "A#4",
          "midi": 70,
          "time": 95.55546000000028,
          "velocity": 0.7559055118110236,
          "duration": 0.1844133958333316
        },
        {
          "name": "G5",
          "midi": 79,
          "time": 95.55546000000028,
          "velocity": 0.7559055118110236,
          "duration": 0.1844133958333316
        },
        {
          "name": "A#5",
          "midi": 82,
          "time": 95.55546000000028,
          "velocity": 0.7559055118110236,
          "duration": 0.1844133958333316
        },
        {
          "name": "G#4",
          "midi": 68,
          "time": 95.74064500000028,
          "velocity": 0.7559055118110236,
          "duration": 0.1844133958333316
        },
        {
          "name": "F5",
          "midi": 77,
          "time": 95.74064500000028,
          "velocity": 0.7559055118110236,
          "duration": 0.1844133958333316
        },
        {
          "name": "G#5",
          "midi": 80,
          "time": 95.74064500000028,
          "velocity": 0.7559055118110236,
          "duration": 0.1844133958333316
        },
        {
          "name": "A#4",
          "midi": 70,
          "time": 95.92583000000029,
          "velocity": 0.7559055118110236,
          "duration": 0.36959839583333576
        },
        {
          "name": "G5",
          "midi": 79,
          "time": 95.92583000000029,
          "velocity": 0.7559055118110236,
          "duration": 0.36959839583333576
        },
        {
          "name": "A#5",
          "midi": 82,
          "time": 95.92583000000029,
          "velocity": 0.7559055118110236,
          "duration": 0.36959839583333576
        },
        {
          "name": "D#5",
          "midi": 75,
          "time": 96.2962000000003,
          "velocity": 0.7559055118110236,
          "duration": 0.5547833958333399
        },
        {
          "name": "G#5",
          "midi": 80,
          "time": 96.2962000000003,
          "velocity": 0.7559055118110236,
          "duration": 0.5547833958333399
        },
        {
          "name": "C6",
          "midi": 84,
          "time": 96.2962000000003,
          "velocity": 0.7559055118110236,
          "duration": 0.5547833958333399
        },
        {
          "name": "D#6",
          "midi": 87,
          "time": 96.2962000000003,
          "velocity": 0.7559055118110236,
          "duration": 0.5547833958333399
        },
        {
          "name": "D#5",
          "midi": 75,
          "time": 96.85175500000031,
          "velocity": 0.7559055118110236,
          "duration": 0.1844133958333316
        },
        {
          "name": "G5",
          "midi": 79,
          "time": 96.85175500000031,
          "velocity": 0.7559055118110236,
          "duration": 0.1844133958333316
        },
        {
          "name": "D#6",
          "midi": 87,
          "time": 96.85175500000031,
          "velocity": 0.7559055118110236,
          "duration": 0.1844133958333316
        },
        {
          "name": "D5",
          "midi": 74,
          "time": 97.03694000000031,
          "velocity": 0.7559055118110236,
          "duration": 0.1844133958333316
        },
        {
          "name": "F5",
          "midi": 77,
          "time": 97.03694000000031,
          "velocity": 0.7559055118110236,
          "duration": 0.1844133958333316
        },
        {
          "name": "D6",
          "midi": 86,
          "time": 97.03694000000031,
          "velocity": 0.7559055118110236,
          "duration": 0.1844133958333316
        },
        {
          "name": "C5",
          "midi": 72,
          "time": 97.22212500000032,
          "velocity": 0.7559055118110236,
          "duration": 0.1844133958333316
        },
        {
          "name": "D#5",
          "midi": 75,
          "time": 97.22212500000032,
          "velocity": 0.7559055118110236,
          "duration": 0.1844133958333316
        },
        {
          "name": "C6",
          "midi": 84,
          "time": 97.22212500000032,
          "velocity": 0.7559055118110236,
          "duration": 0.1844133958333316
        },
        {
          "name": "A#4",
          "midi": 70,
          "time": 97.40731000000032,
          "velocity": 0.7559055118110236,
          "duration": 0.1844133958333316
        },
        {
          "name": "D5",
          "midi": 74,
          "time": 97.40731000000032,
          "velocity": 0.7559055118110236,
          "duration": 0.1844133958333316
        },
        {
          "name": "A#5",
          "midi": 82,
          "time": 97.40731000000032,
          "velocity": 0.7559055118110236,
          "duration": 0.1844133958333316
        },
        {
          "name": "G#4",
          "midi": 68,
          "time": 97.59249500000033,
          "velocity": 0.7559055118110236,
          "duration": 0.1844133958333316
        },
        {
          "name": "C5",
          "midi": 72,
          "time": 97.59249500000033,
          "velocity": 0.7559055118110236,
          "duration": 0.1844133958333316
        },
        {
          "name": "G#5",
          "midi": 80,
          "time": 97.59249500000033,
          "velocity": 0.7559055118110236,
          "duration": 0.1844133958333316
        },
        {
          "name": "A#4",
          "midi": 70,
          "time": 97.77768000000033,
          "velocity": 0.7559055118110236,
          "duration": 0.5547833958333399
        },
        {
          "name": "D#5",
          "midi": 75,
          "time": 97.77768000000033,
          "velocity": 0.7559055118110236,
          "duration": 0.5547833958333399
        },
        {
          "name": "G5",
          "midi": 79,
          "time": 97.77768000000033,
          "velocity": 0.7559055118110236,
          "duration": 0.5547833958333399
        },
        {
          "name": "A#5",
          "midi": 82,
          "time": 97.77768000000033,
          "velocity": 0.7559055118110236,
          "duration": 0.5547833958333399
        },
        {
          "name": "A#4",
          "midi": 70,
          "time": 98.33323500000034,
          "velocity": 0.7559055118110236,
          "duration": 0.1844133958333316
        },
        {
          "name": "D5",
          "midi": 74,
          "time": 98.33323500000034,
          "velocity": 0.7559055118110236,
          "duration": 0.1844133958333316
        },
        {
          "name": "A#5",
          "midi": 82,
          "time": 98.33323500000034,
          "velocity": 0.7559055118110236,
          "duration": 0.1844133958333316
        },
        {
          "name": "G#4",
          "midi": 68,
          "time": 98.51842000000035,
          "velocity": 0.7559055118110236,
          "duration": 0.1844133958333316
        },
        {
          "name": "C5",
          "midi": 72,
          "time": 98.51842000000035,
          "velocity": 0.7559055118110236,
          "duration": 0.1844133958333316
        },
        {
          "name": "G#5",
          "midi": 80,
          "time": 98.51842000000035,
          "velocity": 0.7559055118110236,
          "duration": 0.1844133958333316
        },
        {
          "name": "G4",
          "midi": 67,
          "time": 98.70360500000035,
          "velocity": 0.7559055118110236,
          "duration": 0.1844133958333316
        },
        {
          "name": "A#4",
          "midi": 70,
          "time": 98.70360500000035,
          "velocity": 0.7559055118110236,
          "duration": 0.1844133958333316
        },
        {
          "name": "G5",
          "midi": 79,
          "time": 98.70360500000035,
          "velocity": 0.7559055118110236,
          "duration": 0.1844133958333316
        },
        {
          "name": "F4",
          "midi": 65,
          "time": 98.88879000000036,
          "velocity": 0.7559055118110236,
          "duration": 0.1844133958333316
        },
        {
          "name": "G#4",
          "midi": 68,
          "time": 98.88879000000036,
          "velocity": 0.7559055118110236,
          "duration": 0.1844133958333316
        },
        {
          "name": "F5",
          "midi": 77,
          "time": 98.88879000000036,
          "velocity": 0.7559055118110236,
          "duration": 0.1844133958333316
        },
        {
          "name": "D#4",
          "midi": 63,
          "time": 99.07397500000036,
          "velocity": 0.7559055118110236,
          "duration": 0.1844133958333316
        },
        {
          "name": "G4",
          "midi": 67,
          "time": 99.07397500000036,
          "velocity": 0.7559055118110236,
          "duration": 0.1844133958333316
        },
        {
          "name": "D#5",
          "midi": 75,
          "time": 99.07397500000036,
          "velocity": 0.7559055118110236,
          "duration": 0.1844133958333316
        },
        {
          "name": "F4",
          "midi": 65,
          "time": 99.25916000000036,
          "velocity": 0.7559055118110236,
          "duration": 0.5547833958333399
        },
        {
          "name": "G#4",
          "midi": 68,
          "time": 99.25916000000036,
          "velocity": 0.7559055118110236,
          "duration": 0.5547833958333399
        },
        {
          "name": "D5",
          "midi": 74,
          "time": 99.25916000000036,
          "velocity": 0.7559055118110236,
          "duration": 0.5547833958333399
        },
        {
          "name": "F5",
          "midi": 77,
          "time": 99.25916000000036,
          "velocity": 0.7559055118110236,
          "duration": 0.5547833958333399
        },
        {
          "name": "F4",
          "midi": 65,
          "time": 99.81471500000038,
          "velocity": 0.7559055118110236,
          "duration": 0.1844133958333316
        },
        {
          "name": "G#4",
          "midi": 68,
          "time": 99.81471500000038,
          "velocity": 0.7559055118110236,
          "duration": 0.1844133958333316
        },
        {
          "name": "F5",
          "midi": 77,
          "time": 99.81471500000038,
          "velocity": 0.7559055118110236,
          "duration": 0.1844133958333316
        },
        {
          "name": "G4",
          "midi": 67,
          "time": 99.99990000000038,
          "velocity": 0.7559055118110236,
          "duration": 0.1844133958333316
        },
        {
          "name": "A#4",
          "midi": 70,
          "time": 99.99990000000038,
          "velocity": 0.7559055118110236,
          "duration": 0.1844133958333316
        },
        {
          "name": "G5",
          "midi": 79,
          "time": 99.99990000000038,
          "velocity": 0.7559055118110236,
          "duration": 0.1844133958333316
        },
        {
          "name": "F4",
          "midi": 65,
          "time": 100.18508500000038,
          "velocity": 0.7559055118110236,
          "duration": 0.1844133958333316
        },
        {
          "name": "G#4",
          "midi": 68,
          "time": 100.18508500000038,
          "velocity": 0.7559055118110236,
          "duration": 0.1844133958333316
        },
        {
          "name": "F5",
          "midi": 77,
          "time": 100.18508500000038,
          "velocity": 0.7559055118110236,
          "duration": 0.1844133958333316
        },
        {
          "name": "D#4",
          "midi": 63,
          "time": 100.37027000000039,
          "velocity": 0.7559055118110236,
          "duration": 0.1844133958333316
        },
        {
          "name": "G4",
          "midi": 67,
          "time": 100.37027000000039,
          "velocity": 0.7559055118110236,
          "duration": 0.1844133958333316
        },
        {
          "name": "D#5",
          "midi": 75,
          "time": 100.37027000000039,
          "velocity": 0.7559055118110236,
          "duration": 0.1844133958333316
        },
        {
          "name": "D4",
          "midi": 62,
          "time": 100.55545500000039,
          "velocity": 0.7559055118110236,
          "duration": 0.1844133958333316
        },
        {
          "name": "F4",
          "midi": 65,
          "time": 100.55545500000039,
          "velocity": 0.7559055118110236,
          "duration": 0.1844133958333316
        },
        {
          "name": "D5",
          "midi": 74,
          "time": 100.55545500000039,
          "velocity": 0.7559055118110236,
          "duration": 0.1844133958333316
        },
        {
          "name": "D#4",
          "midi": 63,
          "time": 100.7406400000004,
          "velocity": 0.7559055118110236,
          "duration": 0.36959839583333576
        },
        {
          "name": "G4",
          "midi": 67,
          "time": 100.7406400000004,
          "velocity": 0.7559055118110236,
          "duration": 0.36959839583333576
        },
        {
          "name": "D#5",
          "midi": 75,
          "time": 100.7406400000004,
          "velocity": 0.7559055118110236,
          "duration": 0.36959839583333576
        },
        {
          "name": "A#4",
          "midi": 70,
          "time": 101.1110100000004,
          "velocity": 0.7559055118110236,
          "duration": 0.36959839583333576
        },
        {
          "name": "D5",
          "midi": 74,
          "time": 101.1110100000004,
          "velocity": 0.7559055118110236,
          "duration": 0.36959839583333576
        },
        {
          "name": "A#5",
          "midi": 82,
          "time": 101.1110100000004,
          "velocity": 0.7559055118110236,
          "duration": 0.36959839583333576
        },
        {
          "name": "G#4",
          "midi": 68,
          "time": 101.48138000000041,
          "velocity": 0.7559055118110236,
          "duration": 0.1844133958333316
        },
        {
          "name": "C5",
          "midi": 72,
          "time": 101.48138000000041,
          "velocity": 0.7559055118110236,
          "duration": 0.1844133958333316
        },
        {
          "name": "G#5",
          "midi": 80,
          "time": 101.48138000000041,
          "velocity": 0.7559055118110236,
          "duration": 0.1844133958333316
        },
        {
          "name": "G4",
          "midi": 67,
          "time": 101.66656500000042,
          "velocity": 0.7559055118110236,
          "duration": 0.1844133958333316
        },
        {
          "name": "A#4",
          "midi": 70,
          "time": 101.66656500000042,
          "velocity": 0.7559055118110236,
          "duration": 0.1844133958333316
        },
        {
          "name": "G5",
          "midi": 79,
          "time": 101.66656500000042,
          "velocity": 0.7559055118110236,
          "duration": 0.1844133958333316
        },
        {
          "name": "E4",
          "midi": 64,
          "time": 101.85175000000042,
          "velocity": 0.7559055118110236,
          "duration": 0.36959839583333576
        },
        {
          "name": "G4",
          "midi": 67,
          "time": 101.85175000000042,
          "velocity": 0.7559055118110236,
          "duration": 0.36959839583333576
        },
        {
          "name": "E5",
          "midi": 76,
          "time": 101.85175000000042,
          "velocity": 0.7559055118110236,
          "duration": 0.36959839583333576
        },
        {
          "name": "C5",
          "midi": 72,
          "time": 102.59249000000042,
          "velocity": 0.7559055118110236,
          "duration": 0.36959839583333576
        },
        {
          "name": "D#5",
          "midi": 75,
          "time": 102.59249000000042,
          "velocity": 0.7559055118110236,
          "duration": 0.36959839583333576
        },
        {
          "name": "C6",
          "midi": 84,
          "time": 102.59249000000042,
          "velocity": 0.7559055118110236,
          "duration": 0.36959839583333576
        },
        {
          "name": "A#4",
          "midi": 70,
          "time": 102.96286000000043,
          "velocity": 0.7559055118110236,
          "duration": 0.1844133958333316
        },
        {
          "name": "D5",
          "midi": 74,
          "time": 102.96286000000043,
          "velocity": 0.7559055118110236,
          "duration": 0.1844133958333316
        },
        {
          "name": "A#5",
          "midi": 82,
          "time": 102.96286000000043,
          "velocity": 0.7559055118110236,
          "duration": 0.1844133958333316
        },
        {
          "name": "G#4",
          "midi": 68,
          "time": 103.14804500000044,
          "velocity": 0.7559055118110236,
          "duration": 0.1844133958333316
        },
        {
          "name": "C5",
          "midi": 72,
          "time": 103.14804500000044,
          "velocity": 0.7559055118110236,
          "duration": 0.1844133958333316
        },
        {
          "name": "G#5",
          "midi": 80,
          "time": 103.14804500000044,
          "velocity": 0.7559055118110236,
          "duration": 0.1844133958333316
        },
        {
          "name": "G4",
          "midi": 67,
          "time": 103.33323000000044,
          "velocity": 0.7559055118110236,
          "duration": 0.1844133958333316
        },
        {
          "name": "A#4",
          "midi": 70,
          "time": 103.33323000000044,
          "velocity": 0.7559055118110236,
          "duration": 0.1844133958333316
        },
        {
          "name": "G5",
          "midi": 79,
          "time": 103.33323000000044,
          "velocity": 0.7559055118110236,
          "duration": 0.1844133958333316
        },
        {
          "name": "F4",
          "midi": 65,
          "time": 103.51841500000045,
          "velocity": 0.7559055118110236,
          "duration": 0.1844133958333316
        },
        {
          "name": "G#4",
          "midi": 68,
          "time": 103.51841500000045,
          "velocity": 0.7559055118110236,
          "duration": 0.1844133958333316
        },
        {
          "name": "F5",
          "midi": 77,
          "time": 103.51841500000045,
          "velocity": 0.7559055118110236,
          "duration": 0.1844133958333316
        },
        {
          "name": "D#4",
          "midi": 63,
          "time": 103.70360000000045,
          "velocity": 0.7559055118110236,
          "duration": 0.36959839583333576
        },
        {
          "name": "G4",
          "midi": 67,
          "time": 103.70360000000045,
          "velocity": 0.7559055118110236,
          "duration": 0.36959839583333576
        },
        {
          "name": "D#5",
          "midi": 75,
          "time": 103.70360000000045,
          "velocity": 0.7559055118110236,
          "duration": 0.36959839583333576
        },
        {
          "name": "F4",
          "midi": 65,
          "time": 104.07397000000046,
          "velocity": 0.7559055118110236,
          "duration": 0.36959839583333576
        },
        {
          "name": "G#4",
          "midi": 68,
          "time": 104.07397000000046,
          "velocity": 0.7559055118110236,
          "duration": 0.36959839583333576
        },
        {
          "name": "F5",
          "midi": 77,
          "time": 104.07397000000046,
          "velocity": 0.7559055118110236,
          "duration": 0.36959839583333576
        },
        {
          "name": "G4",
          "midi": 67,
          "time": 104.44434000000047,
          "velocity": 0.7559055118110236,
          "duration": 0.36959839583333576
        },
        {
          "name": "A#4",
          "midi": 70,
          "time": 104.44434000000047,
          "velocity": 0.7559055118110236,
          "duration": 0.36959839583333576
        },
        {
          "name": "G5",
          "midi": 79,
          "time": 104.44434000000047,
          "velocity": 0.7559055118110236,
          "duration": 0.36959839583333576
        },
        {
          "name": "G#4",
          "midi": 68,
          "time": 104.81471000000047,
          "velocity": 0.7559055118110236,
          "duration": 0.36959839583333576
        },
        {
          "name": "C5",
          "midi": 72,
          "time": 104.81471000000047,
          "velocity": 0.7559055118110236,
          "duration": 0.36959839583333576
        },
        {
          "name": "G#5",
          "midi": 80,
          "time": 104.81471000000047,
          "velocity": 0.7559055118110236,
          "duration": 0.36959839583333576
        },
        {
          "name": "F#4",
          "midi": 66,
          "time": 105.18508000000048,
          "velocity": 0.7559055118110236,
          "duration": 1.295523395833328
        },
        {
          "name": "A4",
          "midi": 69,
          "time": 105.18508000000048,
          "velocity": 0.7559055118110236,
          "duration": 1.295523395833328
        },
        {
          "name": "C5",
          "midi": 72,
          "time": 105.18508000000048,
          "velocity": 0.7559055118110236,
          "duration": 1.295523395833328
        },
        {
          "name": "F#5",
          "midi": 78,
          "time": 105.18508000000048,
          "velocity": 0.7559055118110236,
          "duration": 1.295523395833328
        },
        {
          "name": "G4",
          "midi": 67,
          "time": 106.48137500000048,
          "velocity": 0.7559055118110236,
          "duration": 0.36959839583333576
        },
        {
          "name": "G5",
          "midi": 79,
          "time": 106.48137500000048,
          "velocity": 0.7559055118110236,
          "duration": 0.36959839583333576
        },
        {
          "name": "F4",
          "midi": 65,
          "time": 106.85174500000049,
          "velocity": 0.7559055118110236,
          "duration": 0.1844133958333316
        },
        {
          "name": "F5",
          "midi": 77,
          "time": 106.85174500000049,
          "velocity": 0.7559055118110236,
          "duration": 0.1844133958333316
        },
        {
          "name": "G4",
          "midi": 67,
          "time": 107.0369300000005,
          "velocity": 0.7559055118110236,
          "duration": 0.1844133958333316
        },
        {
          "name": "G5",
          "midi": 79,
          "time": 107.0369300000005,
          "velocity": 0.7559055118110236,
          "duration": 0.1844133958333316
        },
        {
          "name": "G#4",
          "midi": 68,
          "time": 107.2221150000005,
          "velocity": 0.7559055118110236,
          "duration": 0.1844133958333316
        },
        {
          "name": "G#5",
          "midi": 80,
          "time": 107.2221150000005,
          "velocity": 0.7559055118110236,
          "duration": 0.1844133958333316
        },
        {
          "name": "G4",
          "midi": 67,
          "time": 107.4073000000005,
          "velocity": 0.7559055118110236,
          "duration": 0.1844133958333316
        },
        {
          "name": "G5",
          "midi": 79,
          "time": 107.4073000000005,
          "velocity": 0.7559055118110236,
          "duration": 0.1844133958333316
        },
        {
          "name": "F4",
          "midi": 65,
          "time": 107.59248500000051,
          "velocity": 0.7559055118110236,
          "duration": 0.1844133958333316
        },
        {
          "name": "F5",
          "midi": 77,
          "time": 107.59248500000051,
          "velocity": 0.7559055118110236,
          "duration": 0.1844133958333316
        },
        {
          "name": "D#4",
          "midi": 63,
          "time": 107.77767000000051,
          "velocity": 0.7559055118110236,
          "duration": 0.1844133958333316
        },
        {
          "name": "D#5",
          "midi": 75,
          "time": 107.77767000000051,
          "velocity": 0.7559055118110236,
          "duration": 0.1844133958333316
        },
        {
          "name": "D4",
          "midi": 62,
          "time": 107.96285500000052,
          "velocity": 0.7559055118110236,
          "duration": 0.1844133958333316
        },
        {
          "name": "D5",
          "midi": 74,
          "time": 107.96285500000052,
          "velocity": 0.7559055118110236,
          "duration": 0.1844133958333316
        },
        {
          "name": "C4",
          "midi": 60,
          "time": 108.14804000000052,
          "velocity": 0.905511811023622,
          "duration": 0.1844133958333316
        },
        {
          "name": "D#4",
          "midi": 63,
          "time": 108.14804000000052,
          "velocity": 0.905511811023622,
          "duration": 0.1844133958333316
        },
        {
          "name": "C5",
          "midi": 72,
          "time": 108.14804000000052,
          "velocity": 0.905511811023622,
          "duration": 0.1844133958333316
        },
        {
          "name": "C5",
          "midi": 72,
          "time": 108.33322500000052,
          "velocity": 0.7559055118110236,
          "duration": 0.1844133958333316
        },
        {
          "name": "D#5",
          "midi": 75,
          "time": 108.33322500000052,
          "velocity": 0.7559055118110236,
          "duration": 0.1844133958333316
        },
        {
          "name": "D5",
          "midi": 74,
          "time": 108.51841000000053,
          "velocity": 0.7559055118110236,
          "duration": 0.1844133958333316
        },
        {
          "name": "F5",
          "midi": 77,
          "time": 108.51841000000053,
          "velocity": 0.7559055118110236,
          "duration": 0.1844133958333316
        },
        {
          "name": "D#5",
          "midi": 75,
          "time": 108.70359500000053,
          "velocity": 0.7559055118110236,
          "duration": 0.1844133958333316
        },
        {
          "name": "G5",
          "midi": 79,
          "time": 108.70359500000053,
          "velocity": 0.7559055118110236,
          "duration": 0.1844133958333316
        },
        {
          "name": "D5",
          "midi": 74,
          "time": 109.07396500000053,
          "velocity": 0.7559055118110236,
          "duration": 0.1844133958333316
        },
        {
          "name": "F5",
          "midi": 77,
          "time": 109.07396500000053,
          "velocity": 0.7559055118110236,
          "duration": 0.1844133958333316
        },
        {
          "name": "F5",
          "midi": 77,
          "time": 109.25915000000053,
          "velocity": 0.7559055118110236,
          "duration": 0.1844133958333316
        },
        {
          "name": "G#5",
          "midi": 80,
          "time": 109.25915000000053,
          "velocity": 0.7559055118110236,
          "duration": 0.1844133958333316
        },
        {
          "name": "D5",
          "midi": 74,
          "time": 109.44433500000054,
          "velocity": 0.7559055118110236,
          "duration": 0.1844133958333316
        },
        {
          "name": "F5",
          "midi": 77,
          "time": 109.44433500000054,
          "velocity": 0.7559055118110236,
          "duration": 0.1844133958333316
        },
        {
          "name": "A#4",
          "midi": 70,
          "time": 109.81470500000053,
          "velocity": 0.7559055118110236,
          "duration": 0.1844133958333316
        },
        {
          "name": "D5",
          "midi": 74,
          "time": 109.81470500000053,
          "velocity": 0.7559055118110236,
          "duration": 0.1844133958333316
        },
        {
          "name": "D#5",
          "midi": 75,
          "time": 109.99989000000053,
          "velocity": 0.7559055118110236,
          "duration": 0.1844133958333316
        },
        {
          "name": "G5",
          "midi": 79,
          "time": 109.99989000000053,
          "velocity": 0.7559055118110236,
          "duration": 0.1844133958333316
        },
        {
          "name": "C6",
          "midi": 84,
          "time": 110.18507500000054,
          "velocity": 0.7559055118110236,
          "duration": 0.1844133958333316
        },
        {
          "name": "D#6",
          "midi": 87,
          "time": 110.18507500000054,
          "velocity": 0.7559055118110236,
          "duration": 0.1844133958333316
        },
        {
          "name": "D5",
          "midi": 74,
          "time": 110.37026000000054,
          "velocity": 0.7559055118110236,
          "duration": 0.1844133958333316
        },
        {
          "name": "F5",
          "midi": 77,
          "time": 110.37026000000054,
          "velocity": 0.7559055118110236,
          "duration": 0.1844133958333316
        },
        {
          "name": "D#5",
          "midi": 75,
          "time": 110.55544500000055,
          "velocity": 0.7559055118110236,
          "duration": 0.1844133958333316
        },
        {
          "name": "G5",
          "midi": 79,
          "time": 110.55544500000055,
          "velocity": 0.7559055118110236,
          "duration": 0.1844133958333316
        },
        {
          "name": "D5",
          "midi": 74,
          "time": 110.74063000000055,
          "velocity": 0.7559055118110236,
          "duration": 0.1844133958333316
        },
        {
          "name": "F5",
          "midi": 77,
          "time": 110.74063000000055,
          "velocity": 0.7559055118110236,
          "duration": 0.1844133958333316
        },
        {
          "name": "D#5",
          "midi": 75,
          "time": 110.92581500000055,
          "velocity": 0.7559055118110236,
          "duration": 0.1844133958333316
        },
        {
          "name": "G5",
          "midi": 79,
          "time": 110.92581500000055,
          "velocity": 0.7559055118110236,
          "duration": 0.1844133958333316
        },
        {
          "name": "C5",
          "midi": 72,
          "time": 111.29618500000055,
          "velocity": 0.7559055118110236,
          "duration": 0.1844133958333316
        },
        {
          "name": "D#5",
          "midi": 75,
          "time": 111.29618500000055,
          "velocity": 0.7559055118110236,
          "duration": 0.1844133958333316
        },
        {
          "name": "D5",
          "midi": 74,
          "time": 111.48137000000055,
          "velocity": 0.7559055118110236,
          "duration": 0.1844133958333316
        },
        {
          "name": "F5",
          "midi": 77,
          "time": 111.48137000000055,
          "velocity": 0.7559055118110236,
          "duration": 0.1844133958333316
        },
        {
          "name": "F5",
          "midi": 77,
          "time": 111.66655500000056,
          "velocity": 0.7559055118110236,
          "duration": 0.1844133958333316
        },
        {
          "name": "G#5",
          "midi": 80,
          "time": 111.66655500000056,
          "velocity": 0.7559055118110236,
          "duration": 0.1844133958333316
        },
        {
          "name": "B4",
          "midi": 71,
          "time": 112.03692500000055,
          "velocity": 0.7559055118110236,
          "duration": 0.1844133958333316
        },
        {
          "name": "D5",
          "midi": 74,
          "time": 112.03692500000055,
          "velocity": 0.7559055118110236,
          "duration": 0.1844133958333316
        },
        {
          "name": "F5",
          "midi": 77,
          "time": 112.22211000000055,
          "velocity": 0.7559055118110236,
          "duration": 0.1844133958333316
        },
        {
          "name": "G#5",
          "midi": 80,
          "time": 112.22211000000055,
          "velocity": 0.7559055118110236,
          "duration": 0.1844133958333316
        },
        {
          "name": "B4",
          "midi": 71,
          "time": 112.40729500000056,
          "velocity": 0.7559055118110236,
          "duration": 0.1844133958333316
        },
        {
          "name": "D5",
          "midi": 74,
          "time": 112.40729500000056,
          "velocity": 0.7559055118110236,
          "duration": 0.1844133958333316
        },
        {
          "name": "F5",
          "midi": 77,
          "time": 112.77766500000055,
          "velocity": 0.7559055118110236,
          "duration": 0.1844133958333316
        },
        {
          "name": "G#5",
          "midi": 80,
          "time": 112.77766500000055,
          "velocity": 0.7559055118110236,
          "duration": 0.1844133958333316
        },
        {
          "name": "G5",
          "midi": 79,
          "time": 112.96285000000056,
          "velocity": 0.7559055118110236,
          "duration": 0.1844133958333316
        },
        {
          "name": "A#5",
          "midi": 82,
          "time": 112.96285000000056,
          "velocity": 0.7559055118110236,
          "duration": 0.1844133958333316
        },
        {
          "name": "F5",
          "midi": 77,
          "time": 113.14803500000056,
          "velocity": 0.7559055118110236,
          "duration": 0.1844133958333316
        },
        {
          "name": "G#5",
          "midi": 80,
          "time": 113.14803500000056,
          "velocity": 0.7559055118110236,
          "duration": 0.1844133958333316
        },
        {
          "name": "E5",
          "midi": 76,
          "time": 113.33322000000057,
          "velocity": 0.7559055118110236,
          "duration": 0.1844133958333316
        },
        {
          "name": "G5",
          "midi": 79,
          "time": 113.33322000000057,
          "velocity": 0.7559055118110236,
          "duration": 0.1844133958333316
        },
        {
          "name": "C#5",
          "midi": 73,
          "time": 113.51840500000057,
          "velocity": 0.7559055118110236,
          "duration": 0.1844133958333316
        },
        {
          "name": "E5",
          "midi": 76,
          "time": 113.51840500000057,
          "velocity": 0.7559055118110236,
          "duration": 0.1844133958333316
        },
        {
          "name": "A#4",
          "midi": 70,
          "time": 113.70359000000057,
          "velocity": 0.7559055118110236,
          "duration": 0.1844133958333316
        },
        {
          "name": "C#5",
          "midi": 73,
          "time": 113.70359000000057,
          "velocity": 0.7559055118110236,
          "duration": 0.1844133958333316
        },
        {
          "name": "G4",
          "midi": 67,
          "time": 113.88877500000058,
          "velocity": 0.7559055118110236,
          "duration": 0.1844133958333316
        },
        {
          "name": "A#4",
          "midi": 70,
          "time": 113.88877500000058,
          "velocity": 0.7559055118110236,
          "duration": 0.1844133958333316
        },
        {
          "name": "C5",
          "midi": 72,
          "time": 114.25914500000057,
          "velocity": 0.7559055118110236,
          "duration": 0.1844133958333316
        },
        {
          "name": "D#5",
          "midi": 75,
          "time": 114.25914500000057,
          "velocity": 0.7559055118110236,
          "duration": 0.1844133958333316
        },
        {
          "name": "D5",
          "midi": 74,
          "time": 114.44433000000058,
          "velocity": 0.7559055118110236,
          "duration": 0.1844133958333316
        },
        {
          "name": "F5",
          "midi": 77,
          "time": 114.44433000000058,
          "velocity": 0.7559055118110236,
          "duration": 0.1844133958333316
        },
        {
          "name": "D#5",
          "midi": 75,
          "time": 114.62951500000058,
          "velocity": 0.7559055118110236,
          "duration": 0.1844133958333316
        },
        {
          "name": "G5",
          "midi": 79,
          "time": 114.62951500000058,
          "velocity": 0.7559055118110236,
          "duration": 0.1844133958333316
        },
        {
          "name": "D5",
          "midi": 74,
          "time": 114.99988500000057,
          "velocity": 0.7559055118110236,
          "duration": 0.1844133958333316
        },
        {
          "name": "F5",
          "midi": 77,
          "time": 114.99988500000057,
          "velocity": 0.7559055118110236,
          "duration": 0.1844133958333316
        },
        {
          "name": "F5",
          "midi": 77,
          "time": 115.18507000000058,
          "velocity": 0.7559055118110236,
          "duration": 0.1844133958333316
        },
        {
          "name": "G#5",
          "midi": 80,
          "time": 115.18507000000058,
          "velocity": 0.7559055118110236,
          "duration": 0.1844133958333316
        },
        {
          "name": "D5",
          "midi": 74,
          "time": 115.37025500000058,
          "velocity": 0.7559055118110236,
          "duration": 0.1844133958333316
        },
        {
          "name": "F5",
          "midi": 77,
          "time": 115.37025500000058,
          "velocity": 0.7559055118110236,
          "duration": 0.1844133958333316
        },
        {
          "name": "A#4",
          "midi": 70,
          "time": 115.74062500000058,
          "velocity": 0.7559055118110236,
          "duration": 0.1844133958333316
        },
        {
          "name": "D5",
          "midi": 74,
          "time": 115.74062500000058,
          "velocity": 0.7559055118110236,
          "duration": 0.1844133958333316
        },
        {
          "name": "D#5",
          "midi": 75,
          "time": 115.92581000000058,
          "velocity": 0.7559055118110236,
          "duration": 0.1844133958333316
        },
        {
          "name": "G5",
          "midi": 79,
          "time": 115.92581000000058,
          "velocity": 0.7559055118110236,
          "duration": 0.1844133958333316
        },
        {
          "name": "C6",
          "midi": 84,
          "time": 116.11099500000059,
          "velocity": 0.7559055118110236,
          "duration": 0.1844133958333316
        },
        {
          "name": "D#6",
          "midi": 87,
          "time": 116.11099500000059,
          "velocity": 0.7559055118110236,
          "duration": 0.1844133958333316
        },
        {
          "name": "D5",
          "midi": 74,
          "time": 116.29618000000059,
          "velocity": 0.7559055118110236,
          "duration": 0.1844133958333316
        },
        {
          "name": "F5",
          "midi": 77,
          "time": 116.29618000000059,
          "velocity": 0.7559055118110236,
          "duration": 0.1844133958333316
        },
        {
          "name": "D#5",
          "midi": 75,
          "time": 116.4813650000006,
          "velocity": 0.7559055118110236,
          "duration": 0.1844133958333316
        },
        {
          "name": "G5",
          "midi": 79,
          "time": 116.4813650000006,
          "velocity": 0.7559055118110236,
          "duration": 0.1844133958333316
        },
        {
          "name": "D5",
          "midi": 74,
          "time": 116.6665500000006,
          "velocity": 0.7559055118110236,
          "duration": 0.1844133958333316
        },
        {
          "name": "F5",
          "midi": 77,
          "time": 116.6665500000006,
          "velocity": 0.7559055118110236,
          "duration": 0.1844133958333316
        },
        {
          "name": "D#5",
          "midi": 75,
          "time": 116.8517350000006,
          "velocity": 0.7559055118110236,
          "duration": 0.1844133958333316
        },
        {
          "name": "G5",
          "midi": 79,
          "time": 116.8517350000006,
          "velocity": 0.7559055118110236,
          "duration": 0.1844133958333316
        },
        {
          "name": "C5",
          "midi": 72,
          "time": 117.2221050000006,
          "velocity": 0.7559055118110236,
          "duration": 0.1844133958333316
        },
        {
          "name": "D#5",
          "midi": 75,
          "time": 117.2221050000006,
          "velocity": 0.7559055118110236,
          "duration": 0.1844133958333316
        },
        {
          "name": "D5",
          "midi": 74,
          "time": 117.4072900000006,
          "velocity": 0.7559055118110236,
          "duration": 0.1844133958333316
        },
        {
          "name": "F5",
          "midi": 77,
          "time": 117.4072900000006,
          "velocity": 0.7559055118110236,
          "duration": 0.1844133958333316
        },
        {
          "name": "F5",
          "midi": 77,
          "time": 117.5924750000006,
          "velocity": 0.7559055118110236,
          "duration": 0.1844133958333316
        },
        {
          "name": "G#5",
          "midi": 80,
          "time": 117.5924750000006,
          "velocity": 0.7559055118110236,
          "duration": 0.1844133958333316
        },
        {
          "name": "B4",
          "midi": 71,
          "time": 117.9628450000006,
          "velocity": 0.7559055118110236,
          "duration": 0.1844133958333316
        },
        {
          "name": "D5",
          "midi": 74,
          "time": 117.9628450000006,
          "velocity": 0.7559055118110236,
          "duration": 0.1844133958333316
        },
        {
          "name": "F5",
          "midi": 77,
          "time": 118.1480300000006,
          "velocity": 0.7559055118110236,
          "duration": 0.1844133958333316
        },
        {
          "name": "G#5",
          "midi": 80,
          "time": 118.1480300000006,
          "velocity": 0.7559055118110236,
          "duration": 0.1844133958333316
        },
        {
          "name": "B4",
          "midi": 71,
          "time": 118.3332150000006,
          "velocity": 0.7559055118110236,
          "duration": 0.1844133958333316
        },
        {
          "name": "D5",
          "midi": 74,
          "time": 118.3332150000006,
          "velocity": 0.7559055118110236,
          "duration": 0.1844133958333316
        },
        {
          "name": "G5",
          "midi": 79,
          "time": 118.51840000000061,
          "velocity": 0.7559055118110236,
          "duration": 0.1844133958333316
        },
        {
          "name": "A#5",
          "midi": 82,
          "time": 118.51840000000061,
          "velocity": 0.7559055118110236,
          "duration": 0.1844133958333316
        },
        {
          "name": "F5",
          "midi": 77,
          "time": 118.70358500000061,
          "velocity": 0.7559055118110236,
          "duration": 0.1844133958333316
        },
        {
          "name": "G#5",
          "midi": 80,
          "time": 118.70358500000061,
          "velocity": 0.7559055118110236,
          "duration": 0.1844133958333316
        },
        {
          "name": "G5",
          "midi": 79,
          "time": 118.88877000000062,
          "velocity": 0.7559055118110236,
          "duration": 0.1844133958333316
        },
        {
          "name": "A#5",
          "midi": 82,
          "time": 118.88877000000062,
          "velocity": 0.7559055118110236,
          "duration": 0.1844133958333316
        },
        {
          "name": "F5",
          "midi": 77,
          "time": 119.07395500000062,
          "velocity": 0.7559055118110236,
          "duration": 0.1844133958333316
        },
        {
          "name": "G#5",
          "midi": 80,
          "time": 119.07395500000062,
          "velocity": 0.7559055118110236,
          "duration": 0.1844133958333316
        },
        {
          "name": "E5",
          "midi": 76,
          "time": 119.25914000000063,
          "velocity": 0.7559055118110236,
          "duration": 0.1844133958333316
        },
        {
          "name": "G5",
          "midi": 79,
          "time": 119.25914000000063,
          "velocity": 0.7559055118110236,
          "duration": 0.1844133958333316
        },
        {
          "name": "C#5",
          "midi": 73,
          "time": 119.44432500000063,
          "velocity": 0.7559055118110236,
          "duration": 0.1844133958333316
        },
        {
          "name": "E5",
          "midi": 76,
          "time": 119.44432500000063,
          "velocity": 0.7559055118110236,
          "duration": 0.1844133958333316
        },
        {
          "name": "A#4",
          "midi": 70,
          "time": 119.62951000000064,
          "velocity": 0.7559055118110236,
          "duration": 0.1844133958333316
        },
        {
          "name": "C#5",
          "midi": 73,
          "time": 119.62951000000064,
          "velocity": 0.7559055118110236,
          "duration": 0.1844133958333316
        },
        {
          "name": "G4",
          "midi": 67,
          "time": 119.81469500000064,
          "velocity": 0.7559055118110236,
          "duration": 0.1844133958333316
        },
        {
          "name": "A#4",
          "midi": 70,
          "time": 119.81469500000064,
          "velocity": 0.7559055118110236,
          "duration": 0.1844133958333316
        },
        {
          "name": "G#4",
          "midi": 68,
          "time": 119.99988000000064,
          "velocity": 0.6299212598425197,
          "duration": 0.36959839583333576
        },
        {
          "name": "C5",
          "midi": 72,
          "time": 119.99988000000064,
          "velocity": 0.6299212598425197,
          "duration": 0.36959839583333576
        },
        {
          "name": "G4",
          "midi": 67,
          "time": 120.37025000000065,
          "velocity": 0.6299212598425197,
          "duration": 0.1844133958333316
        },
        {
          "name": "G4",
          "midi": 67,
          "time": 120.55543500000066,
          "velocity": 0.6299212598425197,
          "duration": 0.1844133958333316
        },
        {
          "name": "D4",
          "midi": 62,
          "time": 120.74062000000066,
          "velocity": 0.6299212598425197,
          "duration": 0.36959839583333576
        },
        {
          "name": "F4",
          "midi": 65,
          "time": 120.74062000000066,
          "velocity": 0.6299212598425197,
          "duration": 0.36959839583333576
        },
        {
          "name": "F4",
          "midi": 65,
          "time": 121.11099000000067,
          "velocity": 0.6299212598425197,
          "duration": 0.36959839583333576
        },
        {
          "name": "G#4",
          "midi": 68,
          "time": 121.11099000000067,
          "velocity": 0.6299212598425197,
          "duration": 0.36959839583333576
        },
        {
          "name": "D#4",
          "midi": 63,
          "time": 121.48136000000068,
          "velocity": 0.6299212598425197,
          "duration": 0.36959839583333576
        },
        {
          "name": "G4",
          "midi": 67,
          "time": 121.48136000000068,
          "velocity": 0.6299212598425197,
          "duration": 0.36959839583333576
        },
        {
          "name": "A#4",
          "midi": 70,
          "time": 121.85173000000069,
          "velocity": 0.6299212598425197,
          "duration": 0.36959839583333576
        },
        {
          "name": "D5",
          "midi": 74,
          "time": 121.85173000000069,
          "velocity": 0.6299212598425197,
          "duration": 0.36959839583333576
        },
        {
          "name": "G#4",
          "midi": 68,
          "time": 122.2221000000007,
          "velocity": 0.6299212598425197,
          "duration": 0.36959839583333576
        },
        {
          "name": "C5",
          "midi": 72,
          "time": 122.2221000000007,
          "velocity": 0.6299212598425197,
          "duration": 0.36959839583333576
        },
        {
          "name": "D#4",
          "midi": 63,
          "time": 122.5924700000007,
          "velocity": 0.6299212598425197,
          "duration": 0.36959839583333576
        },
        {
          "name": "G4",
          "midi": 67,
          "time": 122.5924700000007,
          "velocity": 0.6299212598425197,
          "duration": 0.36959839583333576
        },
        {
          "name": "G#4",
          "midi": 68,
          "time": 122.96284000000071,
          "velocity": 0.6299212598425197,
          "duration": 0.36959839583333576
        },
        {
          "name": "C5",
          "midi": 72,
          "time": 122.96284000000071,
          "velocity": 0.6299212598425197,
          "duration": 0.36959839583333576
        },
        {
          "name": "G4",
          "midi": 67,
          "time": 123.33321000000072,
          "velocity": 0.6299212598425197,
          "duration": 0.1844133958333316
        },
        {
          "name": "G4",
          "midi": 67,
          "time": 123.51839500000072,
          "velocity": 0.6299212598425197,
          "duration": 0.1844133958333316
        },
        {
          "name": "D4",
          "midi": 62,
          "time": 123.70358000000073,
          "velocity": 0.6299212598425197,
          "duration": 0.36959839583333576
        },
        {
          "name": "F4",
          "midi": 65,
          "time": 123.70358000000073,
          "velocity": 0.6299212598425197,
          "duration": 0.36959839583333576
        },
        {
          "name": "F4",
          "midi": 65,
          "time": 124.07395000000074,
          "velocity": 0.6299212598425197,
          "duration": 0.36959839583333576
        },
        {
          "name": "G#4",
          "midi": 68,
          "time": 124.07395000000074,
          "velocity": 0.6299212598425197,
          "duration": 0.36959839583333576
        },
        {
          "name": "D#4",
          "midi": 63,
          "time": 124.44432000000074,
          "velocity": 0.6299212598425197,
          "duration": 0.36959839583333576
        },
        {
          "name": "G4",
          "midi": 67,
          "time": 124.44432000000074,
          "velocity": 0.6299212598425197,
          "duration": 0.36959839583333576
        },
        {
          "name": "D4",
          "midi": 62,
          "time": 124.81469000000075,
          "velocity": 0.6299212598425197,
          "duration": 0.36959839583333576
        },
        {
          "name": "F4",
          "midi": 65,
          "time": 124.81469000000075,
          "velocity": 0.6299212598425197,
          "duration": 0.36959839583333576
        },
        {
          "name": "E4",
          "midi": 64,
          "time": 125.18506000000076,
          "velocity": 0.6299212598425197,
          "duration": 0.7399683958333299
        },
        {
          "name": "G4",
          "midi": 67,
          "time": 125.18506000000076,
          "velocity": 0.6299212598425197,
          "duration": 0.7399683958333299
        },
        {
          "name": "C6",
          "midi": 84,
          "time": 125.92580000000076,
          "velocity": 0.3858267716535433,
          "duration": 0.36959839583333576
        },
        {
          "name": "G5",
          "midi": 79,
          "time": 126.29617000000077,
          "velocity": 0.3858267716535433,
          "duration": 0.1844133958333316
        },
        {
          "name": "G5",
          "midi": 79,
          "time": 126.48135500000078,
          "velocity": 0.3858267716535433,
          "duration": 0.1844133958333316
        },
        {
          "name": "F5",
          "midi": 77,
          "time": 126.66654000000078,
          "velocity": 0.3858267716535433,
          "duration": 0.36959839583333576
        },
        {
          "name": "G#5",
          "midi": 80,
          "time": 127.03691000000079,
          "velocity": 0.3858267716535433,
          "duration": 0.36959839583333576
        },
        {
          "name": "G5",
          "midi": 79,
          "time": 127.4072800000008,
          "velocity": 0.3858267716535433,
          "duration": 0.36959839583333576
        },
        {
          "name": "D6",
          "midi": 86,
          "time": 127.7776500000008,
          "velocity": 0.3858267716535433,
          "duration": 0.36959839583333576
        },
        {
          "name": "C6",
          "midi": 84,
          "time": 128.1480200000008,
          "velocity": 0.3858267716535433,
          "duration": 0.36959839583332155
        },
        {
          "name": "G5",
          "midi": 79,
          "time": 128.51839000000078,
          "velocity": 0.3858267716535433,
          "duration": 0.36959839583332155
        },
        {
          "name": "C6",
          "midi": 84,
          "time": 128.88876000000076,
          "velocity": 0.3858267716535433,
          "duration": 0.36959839583332155
        },
        {
          "name": "G5",
          "midi": 79,
          "time": 129.25913000000074,
          "velocity": 0.3858267716535433,
          "duration": 0.1844133958333316
        },
        {
          "name": "G5",
          "midi": 79,
          "time": 129.44431500000073,
          "velocity": 0.3858267716535433,
          "duration": 0.1844133958333316
        },
        {
          "name": "F5",
          "midi": 77,
          "time": 129.62950000000072,
          "velocity": 0.3858267716535433,
          "duration": 0.36959839583332155
        },
        {
          "name": "G#5",
          "midi": 80,
          "time": 129.9998700000007,
          "velocity": 0.3858267716535433,
          "duration": 0.36959839583332155
        },
        {
          "name": "G4",
          "midi": 67,
          "time": 130.37024000000068,
          "velocity": 0.905511811023622,
          "duration": 0.36959839583332155
        },
        {
          "name": "G5",
          "midi": 79,
          "time": 130.37024000000068,
          "velocity": 0.905511811023622,
          "duration": 0.36959839583332155
        },
        {
          "name": "F4",
          "midi": 65,
          "time": 130.74061000000066,
          "velocity": 0.905511811023622,
          "duration": 0.36959839583332155
        },
        {
          "name": "F5",
          "midi": 77,
          "time": 130.74061000000066,
          "velocity": 0.905511811023622,
          "duration": 0.36959839583332155
        },
        {
          "name": "E4",
          "midi": 64,
          "time": 131.11098000000064,
          "velocity": 0.905511811023622,
          "duration": 0.7399683958333299
        },
        {
          "name": "E5",
          "midi": 76,
          "time": 131.11098000000064,
          "velocity": 0.905511811023622,
          "duration": 0.7399683958333299
        }
      ],
      "controlChanges": {
        "6": [
          {
            "number": 6,
            "time": 0,
            "value": 0.09448818897637795
          }
        ],
        "7": [
          {
            "number": 7,
            "time": 0,
            "value": 0.7874015748031497
          }
        ],
        "10": [
          {
            "number": 10,
            "time": 0,
            "value": 0.5039370078740157
          }
        ],
        "91": [
          {
            "number": 91,
            "time": 0,
            "value": 0
          }
        ],
        "93": [
          {
            "number": 93,
            "time": 0,
            "value": 0
          }
        ],
        "100": [
          {
            "number": 100,
            "time": 0,
            "value": 0
          },
          {
            "number": 100,
            "time": 0,
            "value": 1
          }
        ],
        "101": [
          {
            "number": 101,
            "time": 0,
            "value": 0
          },
          {
            "number": 101,
            "time": 0,
            "value": 1
          }
        ],
        "121": [
          {
            "number": 121,
            "time": 0,
            "value": 0
          }
        ]
      },
      "id": 0,
      "name": "Piano",
      "instrumentNumber": 0,
      "instrument": "acoustic grand piano",
      "instrumentFamily": "piano",
      "channelNumber": 0,
      "isPercussion": false
    },
    {
      "startTime": 0,
      "duration": 130.36946839583527,
      "length": 1229,
      "notes": [
        {
          "name": "C#3",
          "midi": 49,
          "time": 0,
          "velocity": 0.3858267716535433,
          "duration": 0.7399683958333334
        },
        {
          "name": "C3",
          "midi": 48,
          "time": 0.7407400000000001,
          "velocity": 0.3858267716535433,
          "duration": 0.3695983958333334
        },
        {
          "name": "C4",
          "midi": 60,
          "time": 1.1111100000000003,
          "velocity": 0.3858267716535433,
          "duration": 0.24459852083333344
        },
        {
          "name": "B3",
          "midi": 59,
          "time": 1.3564801250000005,
          "velocity": 0.3858267716535433,
          "duration": 0.005401229166666743
        },
        {
          "name": "A#3",
          "midi": 58,
          "time": 1.362652958333334,
          "velocity": 0.3858267716535433,
          "duration": 0.11728383333333481
        },
        {
          "name": "A3",
          "midi": 57,
          "time": 1.369597395833334,
          "velocity": 0.3858267716535433,
          "duration": 0.005401229166666743
        },
        {
          "name": "G#3",
          "midi": 56,
          "time": 1.3765418333333341,
          "velocity": 0.3858267716535433,
          "duration": 0.005401229166666743
        },
        {
          "name": "G3",
          "midi": 55,
          "time": 1.3827146666666676,
          "velocity": 0.3858267716535433,
          "duration": 0.09799372916666793
        },
        {
          "name": "F#3",
          "midi": 54,
          "time": 1.3896591041666677,
          "velocity": 0.3858267716535433,
          "duration": 0.005401229166666743
        },
        {
          "name": "F3",
          "midi": 53,
          "time": 1.3966035416666678,
          "velocity": 0.3858267716535433,
          "duration": 0.005401229166666743
        },
        {
          "name": "E3",
          "midi": 52,
          "time": 1.4035479791666678,
          "velocity": 0.3858267716535433,
          "duration": 0.005401229166666743
        },
        {
          "name": "D#3",
          "midi": 51,
          "time": 1.4097208125000014,
          "velocity": 0.3858267716535433,
          "duration": 0.005401229166666743
        },
        {
          "name": "D3",
          "midi": 50,
          "time": 1.4166652500000014,
          "velocity": 0.3858267716535433,
          "duration": 0.005401229166666743
        },
        {
          "name": "C#3",
          "midi": 49,
          "time": 1.4236096875000015,
          "velocity": 0.3858267716535433,
          "duration": 0.005401229166666743
        },
        {
          "name": "C3",
          "midi": 48,
          "time": 1.429782520833335,
          "velocity": 0.3858267716535433,
          "duration": 0.005401229166666743
        },
        {
          "name": "B2",
          "midi": 47,
          "time": 1.436726958333335,
          "velocity": 0.3858267716535433,
          "duration": 0.005401229166666743
        },
        {
          "name": "A#2",
          "midi": 46,
          "time": 1.4436713958333351,
          "velocity": 0.3858267716535433,
          "duration": 0.005401229166666743
        },
        {
          "name": "A2",
          "midi": 45,
          "time": 1.4506158333333352,
          "velocity": 0.3858267716535433,
          "duration": 0.005401229166666743
        },
        {
          "name": "G#2",
          "midi": 44,
          "time": 1.4567886666666687,
          "velocity": 0.3858267716535433,
          "duration": 0.005401229166666743
        },
        {
          "name": "G2",
          "midi": 43,
          "time": 1.4637331041666688,
          "velocity": 0.3858267716535433,
          "duration": 0.005401229166666743
        },
        {
          "name": "F#2",
          "midi": 42,
          "time": 1.4706775416666689,
          "velocity": 0.3858267716535433,
          "duration": 0.009259249999999941
        },
        {
          "name": "F2",
          "midi": 41,
          "time": 1.4814800000000024,
          "velocity": 0.7559055118110236,
          "duration": 0.1844133958333336
        },
        {
          "name": "F3",
          "midi": 53,
          "time": 1.6666650000000027,
          "velocity": 0.7559055118110236,
          "duration": 0.18441339583333338
        },
        {
          "name": "G#3",
          "midi": 56,
          "time": 1.6666650000000027,
          "velocity": 0.7559055118110236,
          "duration": 0.18441339583333338
        },
        {
          "name": "F2",
          "midi": 41,
          "time": 1.8518500000000029,
          "velocity": 0.7559055118110236,
          "duration": 0.18441339583333338
        },
        {
          "name": "F3",
          "midi": 53,
          "time": 2.037035000000003,
          "velocity": 0.7559055118110236,
          "duration": 0.18441339583333338
        },
        {
          "name": "G#3",
          "midi": 56,
          "time": 2.037035000000003,
          "velocity": 0.7559055118110236,
          "duration": 0.18441339583333338
        },
        {
          "name": "A#2",
          "midi": 46,
          "time": 2.222220000000003,
          "velocity": 0.7559055118110236,
          "duration": 0.18441339583333338
        },
        {
          "name": "A#3",
          "midi": 58,
          "time": 2.4074050000000033,
          "velocity": 0.7559055118110236,
          "duration": 0.18441339583333338
        },
        {
          "name": "D4",
          "midi": 62,
          "time": 2.4074050000000033,
          "velocity": 0.7559055118110236,
          "duration": 0.18441339583333338
        },
        {
          "name": "A#2",
          "midi": 46,
          "time": 2.5925900000000035,
          "velocity": 0.7559055118110236,
          "duration": 0.18441339583333338
        },
        {
          "name": "A#3",
          "midi": 58,
          "time": 2.7777750000000037,
          "velocity": 0.7559055118110236,
          "duration": 0.18441339583333338
        },
        {
          "name": "D4",
          "midi": 62,
          "time": 2.7777750000000037,
          "velocity": 0.7559055118110236,
          "duration": 0.18441339583333338
        },
        {
          "name": "D#2",
          "midi": 39,
          "time": 2.962960000000004,
          "velocity": 0.7559055118110236,
          "duration": 0.18441339583333338
        },
        {
          "name": "D#3",
          "midi": 51,
          "time": 3.148145000000004,
          "velocity": 0.7559055118110236,
          "duration": 0.18441339583333338
        },
        {
          "name": "G3",
          "midi": 55,
          "time": 3.148145000000004,
          "velocity": 0.7559055118110236,
          "duration": 0.18441339583333338
        },
        {
          "name": "D#2",
          "midi": 39,
          "time": 3.333330000000004,
          "velocity": 0.7559055118110236,
          "duration": 0.18441339583333338
        },
        {
          "name": "D#3",
          "midi": 51,
          "time": 3.5185150000000043,
          "velocity": 0.7559055118110236,
          "duration": 0.18441339583333338
        },
        {
          "name": "G3",
          "midi": 55,
          "time": 3.5185150000000043,
          "velocity": 0.7559055118110236,
          "duration": 0.18441339583333338
        },
        {
          "name": "G#2",
          "midi": 44,
          "time": 3.7037000000000044,
          "velocity": 0.7559055118110236,
          "duration": 0.18441339583333338
        },
        {
          "name": "G#3",
          "midi": 56,
          "time": 3.8888850000000046,
          "velocity": 0.7559055118110236,
          "duration": 0.18441339583333338
        },
        {
          "name": "C4",
          "midi": 60,
          "time": 3.8888850000000046,
          "velocity": 0.7559055118110236,
          "duration": 0.18441339583333338
        },
        {
          "name": "G#2",
          "midi": 44,
          "time": 4.074070000000004,
          "velocity": 0.7559055118110236,
          "duration": 0.18441339583333338
        },
        {
          "name": "G#3",
          "midi": 56,
          "time": 4.259255000000004,
          "velocity": 0.7559055118110236,
          "duration": 0.18441339583333338
        },
        {
          "name": "C4",
          "midi": 60,
          "time": 4.259255000000004,
          "velocity": 0.7559055118110236,
          "duration": 0.18441339583333338
        },
        {
          "name": "D2",
          "midi": 38,
          "time": 4.444440000000004,
          "velocity": 0.7559055118110236,
          "duration": 0.1844133958333325
        },
        {
          "name": "D3",
          "midi": 50,
          "time": 4.6296250000000025,
          "velocity": 0.7559055118110236,
          "duration": 0.18441339583333338
        },
        {
          "name": "F3",
          "midi": 53,
          "time": 4.6296250000000025,
          "velocity": 0.7559055118110236,
          "duration": 0.18441339583333338
        },
        {
          "name": "D2",
          "midi": 38,
          "time": 4.814810000000002,
          "velocity": 0.7559055118110236,
          "duration": 0.18441339583333338
        },
        {
          "name": "D3",
          "midi": 50,
          "time": 4.999995000000002,
          "velocity": 0.7559055118110236,
          "duration": 0.18441339583333338
        },
        {
          "name": "F3",
          "midi": 53,
          "time": 4.999995000000002,
          "velocity": 0.7559055118110236,
          "duration": 0.18441339583333338
        },
        {
          "name": "G2",
          "midi": 43,
          "time": 5.185180000000002,
          "velocity": 0.7559055118110236,
          "duration": 0.1844133958333325
        },
        {
          "name": "G3",
          "midi": 55,
          "time": 5.3703650000000005,
          "velocity": 0.7559055118110236,
          "duration": 0.18441339583333338
        },
        {
          "name": "B3",
          "midi": 59,
          "time": 5.3703650000000005,
          "velocity": 0.7559055118110236,
          "duration": 0.18441339583333338
        },
        {
          "name": "G2",
          "midi": 43,
          "time": 5.55555,
          "velocity": 0.7559055118110236,
          "duration": 0.18441339583333338
        },
        {
          "name": "G3",
          "midi": 55,
          "time": 5.740735,
          "velocity": 0.7559055118110236,
          "duration": 0.18441339583333338
        },
        {
          "name": "B3",
          "midi": 59,
          "time": 5.740735,
          "velocity": 0.7559055118110236,
          "duration": 0.18441339583333338
        },
        {
          "name": "C2",
          "midi": 36,
          "time": 5.92592,
          "velocity": 0.7559055118110236,
          "duration": 0.1844133958333325
        },
        {
          "name": "C3",
          "midi": 48,
          "time": 6.1111049999999985,
          "velocity": 0.7559055118110236,
          "duration": 0.18441339583333338
        },
        {
          "name": "D#3",
          "midi": 51,
          "time": 6.1111049999999985,
          "velocity": 0.7559055118110236,
          "duration": 0.18441339583333338
        },
        {
          "name": "C2",
          "midi": 36,
          "time": 6.296289999999998,
          "velocity": 0.7559055118110236,
          "duration": 0.18441339583333338
        },
        {
          "name": "C3",
          "midi": 48,
          "time": 6.481474999999998,
          "velocity": 0.7559055118110236,
          "duration": 0.18441339583333338
        },
        {
          "name": "D#3",
          "midi": 51,
          "time": 6.481474999999998,
          "velocity": 0.7559055118110236,
          "duration": 0.18441339583333338
        },
        {
          "name": "C2",
          "midi": 36,
          "time": 6.666659999999998,
          "velocity": 0.7559055118110236,
          "duration": 0.09182089583333308
        },
        {
          "name": "C3",
          "midi": 48,
          "time": 6.666659999999998,
          "velocity": 0.7559055118110236,
          "duration": 0.09182089583333308
        },
        {
          "name": "C2",
          "midi": 36,
          "time": 7.037029999999997,
          "velocity": 0.7559055118110236,
          "duration": 0.09182089583333308
        },
        {
          "name": "C3",
          "midi": 48,
          "time": 7.037029999999997,
          "velocity": 0.7559055118110236,
          "duration": 0.09182089583333308
        },
        {
          "name": "F2",
          "midi": 41,
          "time": 7.407399999999996,
          "velocity": 0.7559055118110236,
          "duration": 0.18441339583333338
        },
        {
          "name": "F3",
          "midi": 53,
          "time": 7.592584999999996,
          "velocity": 0.7559055118110236,
          "duration": 0.18441339583333338
        },
        {
          "name": "G#3",
          "midi": 56,
          "time": 7.592584999999996,
          "velocity": 0.7559055118110236,
          "duration": 0.18441339583333338
        },
        {
          "name": "F2",
          "midi": 41,
          "time": 7.777769999999996,
          "velocity": 0.7559055118110236,
          "duration": 0.18441339583333338
        },
        {
          "name": "F3",
          "midi": 53,
          "time": 7.962954999999996,
          "velocity": 0.7559055118110236,
          "duration": 0.18441339583333338
        },
        {
          "name": "G#3",
          "midi": 56,
          "time": 7.962954999999996,
          "velocity": 0.7559055118110236,
          "duration": 0.18441339583333338
        },
        {
          "name": "A#2",
          "midi": 46,
          "time": 8.148139999999996,
          "velocity": 0.7559055118110236,
          "duration": 0.18441339583333516
        },
        {
          "name": "A#3",
          "midi": 58,
          "time": 8.333324999999999,
          "velocity": 0.7559055118110236,
          "duration": 0.18441339583333338
        },
        {
          "name": "D4",
          "midi": 62,
          "time": 8.333324999999999,
          "velocity": 0.7559055118110236,
          "duration": 0.18441339583333338
        },
        {
          "name": "A#2",
          "midi": 46,
          "time": 8.51851,
          "velocity": 0.7559055118110236,
          "duration": 0.18441339583333338
        },
        {
          "name": "A#3",
          "midi": 58,
          "time": 8.703695,
          "velocity": 0.7559055118110236,
          "duration": 0.18441339583333338
        },
        {
          "name": "D4",
          "midi": 62,
          "time": 8.703695,
          "velocity": 0.7559055118110236,
          "duration": 0.18441339583333338
        },
        {
          "name": "D#2",
          "midi": 39,
          "time": 8.88888,
          "velocity": 0.7559055118110236,
          "duration": 0.18441339583333516
        },
        {
          "name": "D#3",
          "midi": 51,
          "time": 9.074065000000003,
          "velocity": 0.7559055118110236,
          "duration": 0.18441339583333338
        },
        {
          "name": "G3",
          "midi": 55,
          "time": 9.074065000000003,
          "velocity": 0.7559055118110236,
          "duration": 0.18441339583333338
        },
        {
          "name": "D#2",
          "midi": 39,
          "time": 9.259250000000003,
          "velocity": 0.7559055118110236,
          "duration": 0.18441339583333338
        },
        {
          "name": "D#3",
          "midi": 51,
          "time": 9.444435000000004,
          "velocity": 0.7559055118110236,
          "duration": 0.18441339583333338
        },
        {
          "name": "G3",
          "midi": 55,
          "time": 9.444435000000004,
          "velocity": 0.7559055118110236,
          "duration": 0.18441339583333338
        },
        {
          "name": "G#2",
          "midi": 44,
          "time": 9.629620000000005,
          "velocity": 0.7559055118110236,
          "duration": 0.18441339583333516
        },
        {
          "name": "G#3",
          "midi": 56,
          "time": 9.814805000000007,
          "velocity": 0.7559055118110236,
          "duration": 0.18441339583333338
        },
        {
          "name": "C4",
          "midi": 60,
          "time": 9.814805000000007,
          "velocity": 0.7559055118110236,
          "duration": 0.18441339583333338
        },
        {
          "name": "G#2",
          "midi": 44,
          "time": 9.999990000000007,
          "velocity": 0.7559055118110236,
          "duration": 0.18441339583333338
        },
        {
          "name": "G#3",
          "midi": 56,
          "time": 10.185175000000008,
          "velocity": 0.7559055118110236,
          "duration": 0.18441339583333338
        },
        {
          "name": "C4",
          "midi": 60,
          "time": 10.185175000000008,
          "velocity": 0.7559055118110236,
          "duration": 0.18441339583333338
        },
        {
          "name": "D2",
          "midi": 38,
          "time": 10.370360000000009,
          "velocity": 0.7559055118110236,
          "duration": 0.18441339583333516
        },
        {
          "name": "D3",
          "midi": 50,
          "time": 10.555545000000011,
          "velocity": 0.7559055118110236,
          "duration": 0.18441339583333338
        },
        {
          "name": "F3",
          "midi": 53,
          "time": 10.555545000000011,
          "velocity": 0.7559055118110236,
          "duration": 0.18441339583333338
        },
        {
          "name": "D2",
          "midi": 38,
          "time": 10.740730000000012,
          "velocity": 0.7559055118110236,
          "duration": 0.18441339583333338
        },
        {
          "name": "D3",
          "midi": 50,
          "time": 10.925915000000012,
          "velocity": 0.7559055118110236,
          "duration": 0.18441339583333338
        },
        {
          "name": "F3",
          "midi": 53,
          "time": 10.925915000000012,
          "velocity": 0.7559055118110236,
          "duration": 0.18441339583333338
        },
        {
          "name": "G2",
          "midi": 43,
          "time": 11.111100000000013,
          "velocity": 0.7559055118110236,
          "duration": 0.18441339583333516
        },
        {
          "name": "G3",
          "midi": 55,
          "time": 11.296285000000015,
          "velocity": 0.7559055118110236,
          "duration": 0.18441339583333338
        },
        {
          "name": "B3",
          "midi": 59,
          "time": 11.296285000000015,
          "velocity": 0.7559055118110236,
          "duration": 0.18441339583333338
        },
        {
          "name": "G2",
          "midi": 43,
          "time": 11.481470000000016,
          "velocity": 0.7559055118110236,
          "duration": 0.18441339583333338
        },
        {
          "name": "G3",
          "midi": 55,
          "time": 11.666655000000016,
          "velocity": 0.7559055118110236,
          "duration": 0.18441339583333338
        },
        {
          "name": "B3",
          "midi": 59,
          "time": 11.666655000000016,
          "velocity": 0.7559055118110236,
          "duration": 0.18441339583333338
        },
        {
          "name": "C2",
          "midi": 36,
          "time": 11.851840000000017,
          "velocity": 0.7559055118110236,
          "duration": 0.18441339583333516
        },
        {
          "name": "C3",
          "midi": 48,
          "time": 12.03702500000002,
          "velocity": 0.7559055118110236,
          "duration": 0.18441339583333338
        },
        {
          "name": "D#3",
          "midi": 51,
          "time": 12.03702500000002,
          "velocity": 0.7559055118110236,
          "duration": 0.18441339583333338
        },
        {
          "name": "C2",
          "midi": 36,
          "time": 12.22221000000002,
          "velocity": 0.7559055118110236,
          "duration": 0.18441339583333338
        },
        {
          "name": "C3",
          "midi": 48,
          "time": 12.40739500000002,
          "velocity": 0.7559055118110236,
          "duration": 0.18441339583333338
        },
        {
          "name": "D#3",
          "midi": 51,
          "time": 12.40739500000002,
          "velocity": 0.7559055118110236,
          "duration": 0.18441339583333338
        },
        {
          "name": "C2",
          "midi": 36,
          "time": 12.592580000000021,
          "velocity": 0.7559055118110236,
          "duration": 0.18441339583333516
        },
        {
          "name": "C3",
          "midi": 48,
          "time": 12.777765000000024,
          "velocity": 0.7559055118110236,
          "duration": 0.18441339583333338
        },
        {
          "name": "E3",
          "midi": 52,
          "time": 12.777765000000024,
          "velocity": 0.7559055118110236,
          "duration": 0.18441339583333338
        },
        {
          "name": "C2",
          "midi": 36,
          "time": 12.962950000000024,
          "velocity": 0.7559055118110236,
          "duration": 0.18441339583333338
        },
        {
          "name": "C3",
          "midi": 48,
          "time": 13.148135000000025,
          "velocity": 0.7559055118110236,
          "duration": 0.18441339583333338
        },
        {
          "name": "E3",
          "midi": 52,
          "time": 13.148135000000025,
          "velocity": 0.7559055118110236,
          "duration": 0.18441339583333338
        },
        {
          "name": "F3",
          "midi": 53,
          "time": 13.333320000000025,
          "velocity": 0.5039370078740157,
          "duration": 0.18441339583333516
        },
        {
          "name": "G#3",
          "midi": 56,
          "time": 13.518505000000028,
          "velocity": 0.5039370078740157,
          "duration": 0.18441339583333338
        },
        {
          "name": "C4",
          "midi": 60,
          "time": 13.518505000000028,
          "velocity": 0.5039370078740157,
          "duration": 0.18441339583333338
        },
        {
          "name": "F3",
          "midi": 53,
          "time": 13.703690000000028,
          "velocity": 0.5039370078740157,
          "duration": 0.18441339583333338
        },
        {
          "name": "G#3",
          "midi": 56,
          "time": 13.888875000000029,
          "velocity": 0.5039370078740157,
          "duration": 0.18441339583333338
        },
        {
          "name": "C4",
          "midi": 60,
          "time": 13.888875000000029,
          "velocity": 0.5039370078740157,
          "duration": 0.18441339583333338
        },
        {
          "name": "A#2",
          "midi": 46,
          "time": 14.07406000000003,
          "velocity": 0.5039370078740157,
          "duration": 0.18441339583333516
        },
        {
          "name": "D3",
          "midi": 50,
          "time": 14.259245000000032,
          "velocity": 0.5039370078740157,
          "duration": 0.18441339583333338
        },
        {
          "name": "F3",
          "midi": 53,
          "time": 14.259245000000032,
          "velocity": 0.5039370078740157,
          "duration": 0.18441339583333338
        },
        {
          "name": "A#2",
          "midi": 46,
          "time": 14.444430000000033,
          "velocity": 0.5039370078740157,
          "duration": 0.18441339583333338
        },
        {
          "name": "D3",
          "midi": 50,
          "time": 14.629615000000033,
          "velocity": 0.5039370078740157,
          "duration": 0.18441339583333338
        },
        {
          "name": "F3",
          "midi": 53,
          "time": 14.629615000000033,
          "velocity": 0.5039370078740157,
          "duration": 0.18441339583333338
        },
        {
          "name": "D#3",
          "midi": 51,
          "time": 14.814800000000034,
          "velocity": 0.5039370078740157,
          "duration": 0.18441339583333516
        },
        {
          "name": "G3",
          "midi": 55,
          "time": 14.999985000000036,
          "velocity": 0.5039370078740157,
          "duration": 0.18441339583333338
        },
        {
          "name": "A#3",
          "midi": 58,
          "time": 14.999985000000036,
          "velocity": 0.5039370078740157,
          "duration": 0.18441339583333338
        },
        {
          "name": "D#3",
          "midi": 51,
          "time": 15.185170000000037,
          "velocity": 0.5039370078740157,
          "duration": 0.18441339583333338
        },
        {
          "name": "G3",
          "midi": 55,
          "time": 15.370355000000037,
          "velocity": 0.5039370078740157,
          "duration": 0.18441339583333338
        },
        {
          "name": "A#3",
          "midi": 58,
          "time": 15.370355000000037,
          "velocity": 0.5039370078740157,
          "duration": 0.18441339583333338
        },
        {
          "name": "G#2",
          "midi": 44,
          "time": 15.555540000000038,
          "velocity": 0.5039370078740157,
          "duration": 0.18441339583333516
        },
        {
          "name": "C3",
          "midi": 48,
          "time": 15.74072500000004,
          "velocity": 0.5039370078740157,
          "duration": 0.18441339583333338
        },
        {
          "name": "D#3",
          "midi": 51,
          "time": 15.74072500000004,
          "velocity": 0.5039370078740157,
          "duration": 0.18441339583333338
        },
        {
          "name": "G#2",
          "midi": 44,
          "time": 15.92591000000004,
          "velocity": 0.5039370078740157,
          "duration": 0.1844133958333316
        },
        {
          "name": "C3",
          "midi": 48,
          "time": 16.111095000000038,
          "velocity": 0.5039370078740157,
          "duration": 0.1844133958333316
        },
        {
          "name": "D#3",
          "midi": 51,
          "time": 16.111095000000038,
          "velocity": 0.5039370078740157,
          "duration": 0.1844133958333316
        },
        {
          "name": "D3",
          "midi": 50,
          "time": 16.296280000000035,
          "velocity": 0.5039370078740157,
          "duration": 0.1844133958333316
        },
        {
          "name": "F3",
          "midi": 53,
          "time": 16.481465000000032,
          "velocity": 0.5039370078740157,
          "duration": 0.1844133958333316
        },
        {
          "name": "G#3",
          "midi": 56,
          "time": 16.481465000000032,
          "velocity": 0.5039370078740157,
          "duration": 0.1844133958333316
        },
        {
          "name": "D3",
          "midi": 50,
          "time": 16.66665000000003,
          "velocity": 0.5039370078740157,
          "duration": 0.1844133958333316
        },
        {
          "name": "F3",
          "midi": 53,
          "time": 16.851835000000026,
          "velocity": 0.5039370078740157,
          "duration": 0.1844133958333316
        },
        {
          "name": "G#3",
          "midi": 56,
          "time": 16.851835000000026,
          "velocity": 0.5039370078740157,
          "duration": 0.1844133958333316
        },
        {
          "name": "G2",
          "midi": 43,
          "time": 17.037020000000023,
          "velocity": 0.5039370078740157,
          "duration": 0.1844133958333316
        },
        {
          "name": "B2",
          "midi": 47,
          "time": 17.22220500000002,
          "velocity": 0.5039370078740157,
          "duration": 0.1844133958333316
        },
        {
          "name": "D3",
          "midi": 50,
          "time": 17.22220500000002,
          "velocity": 0.5039370078740157,
          "duration": 0.1844133958333316
        },
        {
          "name": "G2",
          "midi": 43,
          "time": 17.407390000000017,
          "velocity": 0.5039370078740157,
          "duration": 0.1844133958333316
        },
        {
          "name": "B2",
          "midi": 47,
          "time": 17.592575000000014,
          "velocity": 0.5039370078740157,
          "duration": 0.1844133958333316
        },
        {
          "name": "D3",
          "midi": 50,
          "time": 17.592575000000014,
          "velocity": 0.5039370078740157,
          "duration": 0.1844133958333316
        },
        {
          "name": "C3",
          "midi": 48,
          "time": 17.77776000000001,
          "velocity": 0.5039370078740157,
          "duration": 0.1844133958333316
        },
        {
          "name": "D#3",
          "midi": 51,
          "time": 17.96294500000001,
          "velocity": 0.5039370078740157,
          "duration": 0.1844133958333316
        },
        {
          "name": "G3",
          "midi": 55,
          "time": 17.96294500000001,
          "velocity": 0.5039370078740157,
          "duration": 0.1844133958333316
        },
        {
          "name": "C3",
          "midi": 48,
          "time": 18.148130000000005,
          "velocity": 0.5039370078740157,
          "duration": 0.1844133958333316
        },
        {
          "name": "D#3",
          "midi": 51,
          "time": 18.333315000000002,
          "velocity": 0.5039370078740157,
          "duration": 0.1844133958333316
        },
        {
          "name": "G3",
          "midi": 55,
          "time": 18.333315000000002,
          "velocity": 0.5039370078740157,
          "duration": 0.1844133958333316
        },
        {
          "name": "C3",
          "midi": 48,
          "time": 18.5185,
          "velocity": 0.5039370078740157,
          "duration": 0.1844133958333316
        },
        {
          "name": "E3",
          "midi": 52,
          "time": 18.703684999999997,
          "velocity": 0.5039370078740157,
          "duration": 0.1844133958333316
        },
        {
          "name": "G3",
          "midi": 55,
          "time": 18.703684999999997,
          "velocity": 0.5039370078740157,
          "duration": 0.1844133958333316
        },
        {
          "name": "C3",
          "midi": 48,
          "time": 18.888869999999994,
          "velocity": 0.5039370078740157,
          "duration": 0.1844133958333316
        },
        {
          "name": "E3",
          "midi": 52,
          "time": 19.07405499999999,
          "velocity": 0.5039370078740157,
          "duration": 0.1844133958333316
        },
        {
          "name": "G3",
          "midi": 55,
          "time": 19.07405499999999,
          "velocity": 0.5039370078740157,
          "duration": 0.1844133958333316
        },
        {
          "name": "F3",
          "midi": 53,
          "time": 19.259239999999988,
          "velocity": 0.5039370078740157,
          "duration": 0.1844133958333316
        },
        {
          "name": "G#3",
          "midi": 56,
          "time": 19.444424999999985,
          "velocity": 0.5039370078740157,
          "duration": 0.1844133958333316
        },
        {
          "name": "C4",
          "midi": 60,
          "time": 19.444424999999985,
          "velocity": 0.5039370078740157,
          "duration": 0.1844133958333316
        },
        {
          "name": "F3",
          "midi": 53,
          "time": 19.629609999999982,
          "velocity": 0.5039370078740157,
          "duration": 0.1844133958333316
        },
        {
          "name": "G#3",
          "midi": 56,
          "time": 19.81479499999998,
          "velocity": 0.5039370078740157,
          "duration": 0.1844133958333316
        },
        {
          "name": "C4",
          "midi": 60,
          "time": 19.81479499999998,
          "velocity": 0.5039370078740157,
          "duration": 0.1844133958333316
        },
        {
          "name": "A#2",
          "midi": 46,
          "time": 19.999979999999976,
          "velocity": 0.5039370078740157,
          "duration": 0.1844133958333316
        },
        {
          "name": "D3",
          "midi": 50,
          "time": 20.185164999999973,
          "velocity": 0.5039370078740157,
          "duration": 0.1844133958333316
        },
        {
          "name": "F3",
          "midi": 53,
          "time": 20.185164999999973,
          "velocity": 0.5039370078740157,
          "duration": 0.1844133958333316
        },
        {
          "name": "A#2",
          "midi": 46,
          "time": 20.37034999999997,
          "velocity": 0.5039370078740157,
          "duration": 0.1844133958333316
        },
        {
          "name": "D3",
          "midi": 50,
          "time": 20.555534999999967,
          "velocity": 0.5039370078740157,
          "duration": 0.1844133958333316
        },
        {
          "name": "F3",
          "midi": 53,
          "time": 20.555534999999967,
          "velocity": 0.5039370078740157,
          "duration": 0.1844133958333316
        },
        {
          "name": "D#3",
          "midi": 51,
          "time": 20.740719999999964,
          "velocity": 0.5039370078740157,
          "duration": 0.1844133958333316
        },
        {
          "name": "G3",
          "midi": 55,
          "time": 20.92590499999996,
          "velocity": 0.5039370078740157,
          "duration": 0.1844133958333316
        },
        {
          "name": "A#3",
          "midi": 58,
          "time": 20.92590499999996,
          "velocity": 0.5039370078740157,
          "duration": 0.1844133958333316
        },
        {
          "name": "D#3",
          "midi": 51,
          "time": 21.111089999999958,
          "velocity": 0.5039370078740157,
          "duration": 0.1844133958333316
        },
        {
          "name": "G3",
          "midi": 55,
          "time": 21.296274999999955,
          "velocity": 0.5039370078740157,
          "duration": 0.1844133958333316
        },
        {
          "name": "A#3",
          "midi": 58,
          "time": 21.296274999999955,
          "velocity": 0.5039370078740157,
          "duration": 0.1844133958333316
        },
        {
          "name": "G#2",
          "midi": 44,
          "time": 21.481459999999952,
          "velocity": 0.5039370078740157,
          "duration": 0.1844133958333316
        },
        {
          "name": "C3",
          "midi": 48,
          "time": 21.66664499999995,
          "velocity": 0.5039370078740157,
          "duration": 0.1844133958333316
        },
        {
          "name": "D#3",
          "midi": 51,
          "time": 21.66664499999995,
          "velocity": 0.5039370078740157,
          "duration": 0.1844133958333316
        },
        {
          "name": "G#2",
          "midi": 44,
          "time": 21.851829999999946,
          "velocity": 0.5039370078740157,
          "duration": 0.1844133958333316
        },
        {
          "name": "C3",
          "midi": 48,
          "time": 22.037014999999943,
          "velocity": 0.5039370078740157,
          "duration": 0.1844133958333316
        },
        {
          "name": "D#3",
          "midi": 51,
          "time": 22.037014999999943,
          "velocity": 0.5039370078740157,
          "duration": 0.1844133958333316
        },
        {
          "name": "D3",
          "midi": 50,
          "time": 22.22219999999994,
          "velocity": 0.5039370078740157,
          "duration": 0.1844133958333316
        },
        {
          "name": "F3",
          "midi": 53,
          "time": 22.407384999999937,
          "velocity": 0.5039370078740157,
          "duration": 0.1844133958333316
        },
        {
          "name": "G#3",
          "midi": 56,
          "time": 22.407384999999937,
          "velocity": 0.5039370078740157,
          "duration": 0.1844133958333316
        },
        {
          "name": "D3",
          "midi": 50,
          "time": 22.592569999999935,
          "velocity": 0.5039370078740157,
          "duration": 0.1844133958333316
        },
        {
          "name": "F3",
          "midi": 53,
          "time": 22.77775499999993,
          "velocity": 0.5039370078740157,
          "duration": 0.1844133958333316
        },
        {
          "name": "G#3",
          "midi": 56,
          "time": 22.77775499999993,
          "velocity": 0.5039370078740157,
          "duration": 0.1844133958333316
        },
        {
          "name": "G2",
          "midi": 43,
          "time": 22.96293999999993,
          "velocity": 0.5039370078740157,
          "duration": 0.1844133958333316
        },
        {
          "name": "B2",
          "midi": 47,
          "time": 23.148124999999926,
          "velocity": 0.5039370078740157,
          "duration": 0.1844133958333316
        },
        {
          "name": "D3",
          "midi": 50,
          "time": 23.148124999999926,
          "velocity": 0.5039370078740157,
          "duration": 0.1844133958333316
        },
        {
          "name": "G2",
          "midi": 43,
          "time": 23.333309999999923,
          "velocity": 0.5039370078740157,
          "duration": 0.1844133958333316
        },
        {
          "name": "B2",
          "midi": 47,
          "time": 23.51849499999992,
          "velocity": 0.5039370078740157,
          "duration": 0.1844133958333316
        },
        {
          "name": "D3",
          "midi": 50,
          "time": 23.51849499999992,
          "velocity": 0.5039370078740157,
          "duration": 0.1844133958333316
        },
        {
          "name": "C3",
          "midi": 48,
          "time": 23.703679999999917,
          "velocity": 0.5039370078740157,
          "duration": 0.1844133958333316
        },
        {
          "name": "D#3",
          "midi": 51,
          "time": 23.888864999999914,
          "velocity": 0.5039370078740157,
          "duration": 0.1844133958333316
        },
        {
          "name": "G3",
          "midi": 55,
          "time": 23.888864999999914,
          "velocity": 0.5039370078740157,
          "duration": 0.1844133958333316
        },
        {
          "name": "C3",
          "midi": 48,
          "time": 24.07404999999991,
          "velocity": 0.5039370078740157,
          "duration": 0.1844133958333316
        },
        {
          "name": "D#3",
          "midi": 51,
          "time": 24.259234999999908,
          "velocity": 0.5039370078740157,
          "duration": 0.1844133958333316
        },
        {
          "name": "G3",
          "midi": 55,
          "time": 24.259234999999908,
          "velocity": 0.5039370078740157,
          "duration": 0.1844133958333316
        },
        {
          "name": "C3",
          "midi": 48,
          "time": 24.444419999999905,
          "velocity": 0.5039370078740157,
          "duration": 0.1844133958333316
        },
        {
          "name": "E3",
          "midi": 52,
          "time": 24.629604999999902,
          "velocity": 0.5039370078740157,
          "duration": 0.09182089583333308
        },
        {
          "name": "G3",
          "midi": 55,
          "time": 24.7221974999999,
          "velocity": 0.5039370078740157,
          "duration": 0.09182089583333308
        },
        {
          "name": "C3",
          "midi": 48,
          "time": 24.8147899999999,
          "velocity": 0.5039370078740157,
          "duration": 0.09182089583333308
        },
        {
          "name": "G2",
          "midi": 43,
          "time": 24.907382499999898,
          "velocity": 0.5039370078740157,
          "duration": 0.09182089583333308
        },
        {
          "name": "C2",
          "midi": 36,
          "time": 24.999974999999896,
          "velocity": 0.5039370078740157,
          "duration": 0.1844133958333316
        },
        {
          "name": "F3",
          "midi": 53,
          "time": 25.185159999999893,
          "velocity": 0.5039370078740157,
          "duration": 0.1844133958333316
        },
        {
          "name": "G#3",
          "midi": 56,
          "time": 25.185159999999893,
          "velocity": 0.5039370078740157,
          "duration": 0.1844133958333316
        },
        {
          "name": "C4",
          "midi": 60,
          "time": 25.185159999999893,
          "velocity": 0.5039370078740157,
          "duration": 0.1844133958333316
        },
        {
          "name": "F3",
          "midi": 53,
          "time": 25.37034499999989,
          "velocity": 0.5039370078740157,
          "duration": 0.1844133958333316
        },
        {
          "name": "F3",
          "midi": 53,
          "time": 25.555529999999887,
          "velocity": 0.5039370078740157,
          "duration": 0.1844133958333316
        },
        {
          "name": "G#3",
          "midi": 56,
          "time": 25.555529999999887,
          "velocity": 0.5039370078740157,
          "duration": 0.1844133958333316
        },
        {
          "name": "C4",
          "midi": 60,
          "time": 25.555529999999887,
          "velocity": 0.5039370078740157,
          "duration": 0.1844133958333316
        },
        {
          "name": "F3",
          "midi": 53,
          "time": 25.740714999999884,
          "velocity": 0.5039370078740157,
          "duration": 0.1844133958333316
        },
        {
          "name": "A#2",
          "midi": 46,
          "time": 25.92589999999988,
          "velocity": 0.5039370078740157,
          "duration": 0.1844133958333316
        },
        {
          "name": "D3",
          "midi": 50,
          "time": 25.92589999999988,
          "velocity": 0.5039370078740157,
          "duration": 0.1844133958333316
        },
        {
          "name": "F3",
          "midi": 53,
          "time": 25.92589999999988,
          "velocity": 0.5039370078740157,
          "duration": 0.1844133958333316
        },
        {
          "name": "A#2",
          "midi": 46,
          "time": 26.11108499999988,
          "velocity": 0.5039370078740157,
          "duration": 0.1844133958333316
        },
        {
          "name": "A#2",
          "midi": 46,
          "time": 26.296269999999875,
          "velocity": 0.5039370078740157,
          "duration": 0.1844133958333316
        },
        {
          "name": "D3",
          "midi": 50,
          "time": 26.296269999999875,
          "velocity": 0.5039370078740157,
          "duration": 0.1844133958333316
        },
        {
          "name": "F3",
          "midi": 53,
          "time": 26.296269999999875,
          "velocity": 0.5039370078740157,
          "duration": 0.1844133958333316
        },
        {
          "name": "A#2",
          "midi": 46,
          "time": 26.481454999999873,
          "velocity": 0.5039370078740157,
          "duration": 0.1844133958333316
        },
        {
          "name": "D#3",
          "midi": 51,
          "time": 26.66663999999987,
          "velocity": 0.5039370078740157,
          "duration": 0.1844133958333316
        },
        {
          "name": "G3",
          "midi": 55,
          "time": 26.66663999999987,
          "velocity": 0.5039370078740157,
          "duration": 0.1844133958333316
        },
        {
          "name": "A#3",
          "midi": 58,
          "time": 26.66663999999987,
          "velocity": 0.5039370078740157,
          "duration": 0.1844133958333316
        },
        {
          "name": "D#3",
          "midi": 51,
          "time": 26.851824999999867,
          "velocity": 0.5039370078740157,
          "duration": 0.1844133958333316
        },
        {
          "name": "D#3",
          "midi": 51,
          "time": 27.037009999999864,
          "velocity": 0.5039370078740157,
          "duration": 0.1844133958333316
        },
        {
          "name": "G3",
          "midi": 55,
          "time": 27.037009999999864,
          "velocity": 0.5039370078740157,
          "duration": 0.1844133958333316
        },
        {
          "name": "A#3",
          "midi": 58,
          "time": 27.037009999999864,
          "velocity": 0.5039370078740157,
          "duration": 0.1844133958333316
        },
        {
          "name": "D#3",
          "midi": 51,
          "time": 27.22219499999986,
          "velocity": 0.5039370078740157,
          "duration": 0.1844133958333316
        },
        {
          "name": "G#2",
          "midi": 44,
          "time": 27.407379999999858,
          "velocity": 0.5039370078740157,
          "duration": 0.1844133958333316
        },
        {
          "name": "C3",
          "midi": 48,
          "time": 27.407379999999858,
          "velocity": 0.5039370078740157,
          "duration": 0.1844133958333316
        },
        {
          "name": "D#3",
          "midi": 51,
          "time": 27.407379999999858,
          "velocity": 0.5039370078740157,
          "duration": 0.1844133958333316
        },
        {
          "name": "G#2",
          "midi": 44,
          "time": 27.592564999999855,
          "velocity": 0.5039370078740157,
          "duration": 0.1844133958333316
        },
        {
          "name": "G#2",
          "midi": 44,
          "time": 27.777749999999852,
          "velocity": 0.5039370078740157,
          "duration": 0.1844133958333316
        },
        {
          "name": "C3",
          "midi": 48,
          "time": 27.777749999999852,
          "velocity": 0.5039370078740157,
          "duration": 0.1844133958333316
        },
        {
          "name": "D#3",
          "midi": 51,
          "time": 27.777749999999852,
          "velocity": 0.5039370078740157,
          "duration": 0.1844133958333316
        },
        {
          "name": "G#2",
          "midi": 44,
          "time": 27.96293499999985,
          "velocity": 0.5039370078740157,
          "duration": 0.1844133958333316
        },
        {
          "name": "D3",
          "midi": 50,
          "time": 28.148119999999846,
          "velocity": 0.5039370078740157,
          "duration": 0.1844133958333316
        },
        {
          "name": "F3",
          "midi": 53,
          "time": 28.148119999999846,
          "velocity": 0.5039370078740157,
          "duration": 0.1844133958333316
        },
        {
          "name": "G#3",
          "midi": 56,
          "time": 28.148119999999846,
          "velocity": 0.5039370078740157,
          "duration": 0.1844133958333316
        },
        {
          "name": "D3",
          "midi": 50,
          "time": 28.333304999999843,
          "velocity": 0.5039370078740157,
          "duration": 0.1844133958333316
        },
        {
          "name": "D3",
          "midi": 50,
          "time": 28.51848999999984,
          "velocity": 0.5039370078740157,
          "duration": 0.1844133958333316
        },
        {
          "name": "F3",
          "midi": 53,
          "time": 28.51848999999984,
          "velocity": 0.5039370078740157,
          "duration": 0.1844133958333316
        },
        {
          "name": "G#3",
          "midi": 56,
          "time": 28.51848999999984,
          "velocity": 0.5039370078740157,
          "duration": 0.1844133958333316
        },
        {
          "name": "D3",
          "midi": 50,
          "time": 28.703674999999837,
          "velocity": 0.5039370078740157,
          "duration": 0.1844133958333316
        },
        {
          "name": "G2",
          "midi": 43,
          "time": 28.888859999999834,
          "velocity": 0.5039370078740157,
          "duration": 0.1844133958333316
        },
        {
          "name": "B2",
          "midi": 47,
          "time": 28.888859999999834,
          "velocity": 0.5039370078740157,
          "duration": 0.1844133958333316
        },
        {
          "name": "D3",
          "midi": 50,
          "time": 28.888859999999834,
          "velocity": 0.5039370078740157,
          "duration": 0.1844133958333316
        },
        {
          "name": "G2",
          "midi": 43,
          "time": 29.07404499999983,
          "velocity": 0.5039370078740157,
          "duration": 0.1844133958333316
        },
        {
          "name": "G2",
          "midi": 43,
          "time": 29.259229999999828,
          "velocity": 0.5039370078740157,
          "duration": 0.1844133958333316
        },
        {
          "name": "B2",
          "midi": 47,
          "time": 29.259229999999828,
          "velocity": 0.5039370078740157,
          "duration": 0.1844133958333316
        },
        {
          "name": "D3",
          "midi": 50,
          "time": 29.259229999999828,
          "velocity": 0.5039370078740157,
          "duration": 0.1844133958333316
        },
        {
          "name": "G2",
          "midi": 43,
          "time": 29.444414999999825,
          "velocity": 0.5039370078740157,
          "duration": 0.1844133958333316
        },
        {
          "name": "C3",
          "midi": 48,
          "time": 29.629599999999822,
          "velocity": 0.5039370078740157,
          "duration": 0.1844133958333316
        },
        {
          "name": "D#3",
          "midi": 51,
          "time": 29.629599999999822,
          "velocity": 0.5039370078740157,
          "duration": 0.1844133958333316
        },
        {
          "name": "G3",
          "midi": 55,
          "time": 29.629599999999822,
          "velocity": 0.5039370078740157,
          "duration": 0.1844133958333316
        },
        {
          "name": "C3",
          "midi": 48,
          "time": 29.81478499999982,
          "velocity": 0.5039370078740157,
          "duration": 0.1844133958333316
        },
        {
          "name": "C3",
          "midi": 48,
          "time": 29.999969999999816,
          "velocity": 0.5039370078740157,
          "duration": 0.1844133958333316
        },
        {
          "name": "D#3",
          "midi": 51,
          "time": 29.999969999999816,
          "velocity": 0.5039370078740157,
          "duration": 0.1844133958333316
        },
        {
          "name": "G3",
          "midi": 55,
          "time": 29.999969999999816,
          "velocity": 0.5039370078740157,
          "duration": 0.1844133958333316
        },
        {
          "name": "C3",
          "midi": 48,
          "time": 30.185154999999813,
          "velocity": 0.5039370078740157,
          "duration": 0.1844133958333316
        },
        {
          "name": "C2",
          "midi": 36,
          "time": 30.37033999999981,
          "velocity": 0.5039370078740157,
          "duration": 0.1844133958333316
        },
        {
          "name": "C3",
          "midi": 48,
          "time": 30.37033999999981,
          "velocity": 0.5039370078740157,
          "duration": 0.1844133958333316
        },
        {
          "name": "C3",
          "midi": 48,
          "time": 30.555524999999808,
          "velocity": 0.5039370078740157,
          "duration": 0.09182089583333308
        },
        {
          "name": "G2",
          "midi": 43,
          "time": 30.648117499999806,
          "velocity": 0.5039370078740157,
          "duration": 0.09182089583333308
        },
        {
          "name": "C2",
          "midi": 36,
          "time": 30.740709999999805,
          "velocity": 0.5039370078740157,
          "duration": 0.1844133958333316
        },
        {
          "name": "C3",
          "midi": 48,
          "time": 30.9258949999998,
          "velocity": 0.5039370078740157,
          "duration": 0.1844133958333316
        },
        {
          "name": "F3",
          "midi": 53,
          "time": 31.1110799999998,
          "velocity": 0.5039370078740157,
          "duration": 0.1844133958333316
        },
        {
          "name": "G#3",
          "midi": 56,
          "time": 31.1110799999998,
          "velocity": 0.5039370078740157,
          "duration": 0.1844133958333316
        },
        {
          "name": "C4",
          "midi": 60,
          "time": 31.1110799999998,
          "velocity": 0.5039370078740157,
          "duration": 0.1844133958333316
        },
        {
          "name": "F3",
          "midi": 53,
          "time": 31.296264999999796,
          "velocity": 0.5039370078740157,
          "duration": 0.09182089583333308
        },
        {
          "name": "G#3",
          "midi": 56,
          "time": 31.388857499999794,
          "velocity": 0.5039370078740157,
          "duration": 0.09182089583333308
        },
        {
          "name": "F3",
          "midi": 53,
          "time": 31.481449999999793,
          "velocity": 0.5039370078740157,
          "duration": 0.1844133958333316
        },
        {
          "name": "G#3",
          "midi": 56,
          "time": 31.481449999999793,
          "velocity": 0.5039370078740157,
          "duration": 0.1844133958333316
        },
        {
          "name": "C4",
          "midi": 60,
          "time": 31.481449999999793,
          "velocity": 0.5039370078740157,
          "duration": 0.1844133958333316
        },
        {
          "name": "F3",
          "midi": 53,
          "time": 31.66663499999979,
          "velocity": 0.5039370078740157,
          "duration": 0.1844133958333316
        },
        {
          "name": "A#2",
          "midi": 46,
          "time": 31.851819999999787,
          "velocity": 0.5039370078740157,
          "duration": 0.18441339583332805
        },
        {
          "name": "D3",
          "midi": 50,
          "time": 31.851819999999787,
          "velocity": 0.5039370078740157,
          "duration": 0.18441339583332805
        },
        {
          "name": "F3",
          "midi": 53,
          "time": 31.851819999999787,
          "velocity": 0.5039370078740157,
          "duration": 0.18441339583332805
        },
        {
          "name": "A#2",
          "midi": 46,
          "time": 32.03700499999978,
          "velocity": 0.5039370078740157,
          "duration": 0.09182089583333664
        },
        {
          "name": "D3",
          "midi": 50,
          "time": 32.12959749999978,
          "velocity": 0.5039370078740157,
          "duration": 0.09182089583333664
        },
        {
          "name": "A#2",
          "midi": 46,
          "time": 32.222189999999785,
          "velocity": 0.5039370078740157,
          "duration": 0.1844133958333316
        },
        {
          "name": "D3",
          "midi": 50,
          "time": 32.222189999999785,
          "velocity": 0.5039370078740157,
          "duration": 0.1844133958333316
        },
        {
          "name": "F3",
          "midi": 53,
          "time": 32.222189999999785,
          "velocity": 0.5039370078740157,
          "duration": 0.1844133958333316
        },
        {
          "name": "A#2",
          "midi": 46,
          "time": 32.40737499999978,
          "velocity": 0.5039370078740157,
          "duration": 0.1844133958333316
        },
        {
          "name": "D#3",
          "midi": 51,
          "time": 32.59255999999978,
          "velocity": 0.5039370078740157,
          "duration": 0.1844133958333316
        },
        {
          "name": "G3",
          "midi": 55,
          "time": 32.59255999999978,
          "velocity": 0.5039370078740157,
          "duration": 0.1844133958333316
        },
        {
          "name": "A#3",
          "midi": 58,
          "time": 32.59255999999978,
          "velocity": 0.5039370078740157,
          "duration": 0.1844133958333316
        },
        {
          "name": "D#3",
          "midi": 51,
          "time": 32.777744999999776,
          "velocity": 0.5039370078740157,
          "duration": 0.09182089583333664
        },
        {
          "name": "G3",
          "midi": 55,
          "time": 32.87033749999978,
          "velocity": 0.5039370078740157,
          "duration": 0.09182089583333664
        },
        {
          "name": "D#3",
          "midi": 51,
          "time": 32.96292999999978,
          "velocity": 0.5039370078740157,
          "duration": 0.1844133958333316
        },
        {
          "name": "G3",
          "midi": 55,
          "time": 32.96292999999978,
          "velocity": 0.5039370078740157,
          "duration": 0.1844133958333316
        },
        {
          "name": "A#3",
          "midi": 58,
          "time": 32.96292999999978,
          "velocity": 0.5039370078740157,
          "duration": 0.1844133958333316
        },
        {
          "name": "D#3",
          "midi": 51,
          "time": 33.14811499999978,
          "velocity": 0.5039370078740157,
          "duration": 0.1844133958333316
        },
        {
          "name": "G#2",
          "midi": 44,
          "time": 33.333299999999774,
          "velocity": 0.5039370078740157,
          "duration": 0.1844133958333316
        },
        {
          "name": "C3",
          "midi": 48,
          "time": 33.333299999999774,
          "velocity": 0.5039370078740157,
          "duration": 0.1844133958333316
        },
        {
          "name": "D#3",
          "midi": 51,
          "time": 33.333299999999774,
          "velocity": 0.5039370078740157,
          "duration": 0.1844133958333316
        },
        {
          "name": "G#2",
          "midi": 44,
          "time": 33.51848499999977,
          "velocity": 0.5039370078740157,
          "duration": 0.09182089583333664
        },
        {
          "name": "C3",
          "midi": 48,
          "time": 33.61107749999977,
          "velocity": 0.5039370078740157,
          "duration": 0.09182089583333664
        },
        {
          "name": "G#2",
          "midi": 44,
          "time": 33.703669999999775,
          "velocity": 0.5039370078740157,
          "duration": 0.1844133958333316
        },
        {
          "name": "C3",
          "midi": 48,
          "time": 33.703669999999775,
          "velocity": 0.5039370078740157,
          "duration": 0.1844133958333316
        },
        {
          "name": "D#3",
          "midi": 51,
          "time": 33.703669999999775,
          "velocity": 0.5039370078740157,
          "duration": 0.1844133958333316
        },
        {
          "name": "G#2",
          "midi": 44,
          "time": 33.88885499999977,
          "velocity": 0.5039370078740157,
          "duration": 0.1844133958333316
        },
        {
          "name": "D3",
          "midi": 50,
          "time": 34.07403999999977,
          "velocity": 0.5039370078740157,
          "duration": 0.1844133958333316
        },
        {
          "name": "F3",
          "midi": 53,
          "time": 34.07403999999977,
          "velocity": 0.5039370078740157,
          "duration": 0.1844133958333316
        },
        {
          "name": "G#3",
          "midi": 56,
          "time": 34.07403999999977,
          "velocity": 0.5039370078740157,
          "duration": 0.1844133958333316
        },
        {
          "name": "D3",
          "midi": 50,
          "time": 34.259224999999766,
          "velocity": 0.5039370078740157,
          "duration": 0.09182089583333664
        },
        {
          "name": "F3",
          "midi": 53,
          "time": 34.35181749999977,
          "velocity": 0.5039370078740157,
          "duration": 0.09182089583333664
        },
        {
          "name": "D3",
          "midi": 50,
          "time": 34.44440999999977,
          "velocity": 0.5039370078740157,
          "duration": 0.1844133958333316
        },
        {
          "name": "F3",
          "midi": 53,
          "time": 34.44440999999977,
          "velocity": 0.5039370078740157,
          "duration": 0.1844133958333316
        },
        {
          "name": "G#3",
          "midi": 56,
          "time": 34.44440999999977,
          "velocity": 0.5039370078740157,
          "duration": 0.1844133958333316
        },
        {
          "name": "D3",
          "midi": 50,
          "time": 34.62959499999977,
          "velocity": 0.5039370078740157,
          "duration": 0.1844133958333316
        },
        {
          "name": "G2",
          "midi": 43,
          "time": 34.814779999999764,
          "velocity": 0.5039370078740157,
          "duration": 0.1844133958333316
        },
        {
          "name": "B2",
          "midi": 47,
          "time": 34.814779999999764,
          "velocity": 0.5039370078740157,
          "duration": 0.1844133958333316
        },
        {
          "name": "D3",
          "midi": 50,
          "time": 34.814779999999764,
          "velocity": 0.5039370078740157,
          "duration": 0.1844133958333316
        },
        {
          "name": "G2",
          "midi": 43,
          "time": 34.99996499999976,
          "velocity": 0.5039370078740157,
          "duration": 0.09182089583333664
        },
        {
          "name": "B2",
          "midi": 47,
          "time": 35.092557499999764,
          "velocity": 0.5039370078740157,
          "duration": 0.09182089583333664
        },
        {
          "name": "G2",
          "midi": 43,
          "time": 35.185149999999766,
          "velocity": 0.5039370078740157,
          "duration": 0.1844133958333316
        },
        {
          "name": "B2",
          "midi": 47,
          "time": 35.185149999999766,
          "velocity": 0.5039370078740157,
          "duration": 0.1844133958333316
        },
        {
          "name": "D3",
          "midi": 50,
          "time": 35.185149999999766,
          "velocity": 0.5039370078740157,
          "duration": 0.1844133958333316
        },
        {
          "name": "G2",
          "midi": 43,
          "time": 35.37033499999976,
          "velocity": 0.5039370078740157,
          "duration": 0.1844133958333316
        },
        {
          "name": "C#3",
          "midi": 49,
          "time": 35.55551999999976,
          "velocity": 0.3858267716535433,
          "duration": 0.7399683958333299
        },
        {
          "name": "C3",
          "midi": 48,
          "time": 36.296259999999755,
          "velocity": 0.5669291338582677,
          "duration": 0.36959839583333576
        },
        {
          "name": "C4",
          "midi": 60,
          "time": 36.666629999999756,
          "velocity": 0.6614173228346457,
          "duration": 0.23919729166667025
        },
        {
          "name": "B3",
          "midi": 59,
          "time": 36.90659889583309,
          "velocity": 0.7165354330708661,
          "duration": 0.002314812500003427
        },
        {
          "name": "A#3",
          "midi": 58,
          "time": 36.910456916666426,
          "velocity": 0.7165354330708661,
          "duration": 0.002314812500003427
        },
        {
          "name": "A3",
          "midi": 57,
          "time": 36.91431493749976,
          "velocity": 0.7244094488188977,
          "duration": 0.002314812500003427
        },
        {
          "name": "G#3",
          "midi": 56,
          "time": 36.918172958333095,
          "velocity": 0.7244094488188977,
          "duration": 0.002314812500003427
        },
        {
          "name": "G3",
          "midi": 55,
          "time": 36.92203097916643,
          "velocity": 0.7244094488188977,
          "duration": 0.002314812500003427
        },
        {
          "name": "F#3",
          "midi": 54,
          "time": 36.92588899999976,
          "velocity": 0.7244094488188977,
          "duration": 0.002314812500003427
        },
        {
          "name": "F3",
          "midi": 53,
          "time": 36.93051862499977,
          "velocity": 0.7244094488188977,
          "duration": 0.002314812500003427
        },
        {
          "name": "E3",
          "midi": 52,
          "time": 36.934376645833105,
          "velocity": 0.7244094488188977,
          "duration": 0.002314812500003427
        },
        {
          "name": "D#3",
          "midi": 51,
          "time": 36.93823466666644,
          "velocity": 0.7244094488188977,
          "duration": 0.002314812500003427
        },
        {
          "name": "D3",
          "midi": 50,
          "time": 36.94209268749977,
          "velocity": 0.7244094488188977,
          "duration": 0.002314812500003427
        },
        {
          "name": "C#3",
          "midi": 49,
          "time": 36.94595070833311,
          "velocity": 0.7322834645669292,
          "duration": 0.002314812500003427
        },
        {
          "name": "C3",
          "midi": 48,
          "time": 36.94980872916644,
          "velocity": 0.7322834645669292,
          "duration": 0.002314812500003427
        },
        {
          "name": "B2",
          "midi": 47,
          "time": 36.953666749999776,
          "velocity": 0.7322834645669292,
          "duration": 0.002314812500003427
        },
        {
          "name": "A#2",
          "midi": 46,
          "time": 36.95752477083311,
          "velocity": 0.7322834645669292,
          "duration": 0.002314812500003427
        },
        {
          "name": "A2",
          "midi": 45,
          "time": 36.96215439583312,
          "velocity": 0.7322834645669292,
          "duration": 0.002314812500003427
        },
        {
          "name": "G#2",
          "midi": 44,
          "time": 36.965240812499786,
          "velocity": 0.7322834645669292,
          "duration": 0.002314812500003427
        },
        {
          "name": "G2",
          "midi": 43,
          "time": 36.96987043749979,
          "velocity": 0.7322834645669292,
          "duration": 0.002314812500003427
        },
        {
          "name": "F#2",
          "midi": 42,
          "time": 36.97372845833313,
          "velocity": 0.7322834645669292,
          "duration": 0.002314812500003427
        },
        {
          "name": "F2",
          "midi": 41,
          "time": 36.97758647916646,
          "velocity": 0.7401574803149606,
          "duration": 0.002314812500003427
        },
        {
          "name": "E2",
          "midi": 40,
          "time": 36.981444499999796,
          "velocity": 0.7401574803149606,
          "duration": 0.002314812500003427
        },
        {
          "name": "D#2",
          "midi": 39,
          "time": 36.98530252083313,
          "velocity": 0.7401574803149606,
          "duration": 0.002314812500003427
        },
        {
          "name": "D2",
          "midi": 38,
          "time": 36.989160541666465,
          "velocity": 0.7401574803149606,
          "duration": 0.002314812500003427
        },
        {
          "name": "C#2",
          "midi": 37,
          "time": 36.9930185624998,
          "velocity": 0.7401574803149606,
          "duration": 0.002314812500003427
        },
        {
          "name": "C2",
          "midi": 36,
          "time": 36.997648187499806,
          "velocity": 0.7401574803149606,
          "duration": 0.002314812500003427
        },
        {
          "name": "B1",
          "midi": 35,
          "time": 37.000734604166475,
          "velocity": 0.7401574803149606,
          "duration": 0.002314812500003427
        },
        {
          "name": "A#1",
          "midi": 34,
          "time": 37.00536422916648,
          "velocity": 0.7401574803149606,
          "duration": 0.002314812500003427
        },
        {
          "name": "A1",
          "midi": 33,
          "time": 37.009222249999816,
          "velocity": 0.7480314960629921,
          "duration": 0.002314812500003427
        },
        {
          "name": "G#1",
          "midi": 32,
          "time": 37.01308027083315,
          "velocity": 0.7480314960629921,
          "duration": 0.002314812500003427
        },
        {
          "name": "G1",
          "midi": 31,
          "time": 37.016938291666484,
          "velocity": 0.7480314960629921,
          "duration": 0.002314812500003427
        },
        {
          "name": "F#1",
          "midi": 30,
          "time": 37.02079631249982,
          "velocity": 0.7480314960629921,
          "duration": 0.013888874999999246
        },
        {
          "name": "F1",
          "midi": 29,
          "time": 37.03699999999982,
          "velocity": 0.7559055118110236,
          "duration": 0.1844133958333316
        },
        {
          "name": "F2",
          "midi": 41,
          "time": 37.22218499999982,
          "velocity": 0.7559055118110236,
          "duration": 0.1844133958333316
        },
        {
          "name": "G#2",
          "midi": 44,
          "time": 37.22218499999982,
          "velocity": 0.7559055118110236,
          "duration": 0.1844133958333316
        },
        {
          "name": "F1",
          "midi": 29,
          "time": 37.407369999999815,
          "velocity": 0.7559055118110236,
          "duration": 0.1844133958333316
        },
        {
          "name": "F2",
          "midi": 41,
          "time": 37.59255499999981,
          "velocity": 0.7559055118110236,
          "duration": 0.1844133958333316
        },
        {
          "name": "G#2",
          "midi": 44,
          "time": 37.59255499999981,
          "velocity": 0.7559055118110236,
          "duration": 0.1844133958333316
        },
        {
          "name": "A#1",
          "midi": 34,
          "time": 37.77773999999981,
          "velocity": 0.7559055118110236,
          "duration": 0.1844133958333316
        },
        {
          "name": "A#2",
          "midi": 46,
          "time": 37.96292499999981,
          "velocity": 0.7559055118110236,
          "duration": 0.1844133958333316
        },
        {
          "name": "D3",
          "midi": 50,
          "time": 37.96292499999981,
          "velocity": 0.7559055118110236,
          "duration": 0.1844133958333316
        },
        {
          "name": "A#1",
          "midi": 34,
          "time": 38.148109999999804,
          "velocity": 0.7559055118110236,
          "duration": 0.1844133958333316
        },
        {
          "name": "A#2",
          "midi": 46,
          "time": 38.3332949999998,
          "velocity": 0.7559055118110236,
          "duration": 0.1844133958333316
        },
        {
          "name": "D3",
          "midi": 50,
          "time": 38.3332949999998,
          "velocity": 0.7559055118110236,
          "duration": 0.1844133958333316
        },
        {
          "name": "D#2",
          "midi": 39,
          "time": 38.5184799999998,
          "velocity": 0.7559055118110236,
          "duration": 0.1844133958333316
        },
        {
          "name": "D#3",
          "midi": 51,
          "time": 38.703664999999795,
          "velocity": 0.7559055118110236,
          "duration": 0.1844133958333316
        },
        {
          "name": "G3",
          "midi": 55,
          "time": 38.703664999999795,
          "velocity": 0.7559055118110236,
          "duration": 0.1844133958333316
        },
        {
          "name": "D#2",
          "midi": 39,
          "time": 38.88884999999979,
          "velocity": 0.7559055118110236,
          "duration": 0.1844133958333316
        },
        {
          "name": "D#3",
          "midi": 51,
          "time": 39.07403499999979,
          "velocity": 0.7559055118110236,
          "duration": 0.1844133958333316
        },
        {
          "name": "G3",
          "midi": 55,
          "time": 39.07403499999979,
          "velocity": 0.7559055118110236,
          "duration": 0.1844133958333316
        },
        {
          "name": "G#2",
          "midi": 44,
          "time": 39.259219999999786,
          "velocity": 0.7559055118110236,
          "duration": 0.1844133958333316
        },
        {
          "name": "G#3",
          "midi": 56,
          "time": 39.44440499999978,
          "velocity": 0.7559055118110236,
          "duration": 0.1844133958333316
        },
        {
          "name": "C4",
          "midi": 60,
          "time": 39.44440499999978,
          "velocity": 0.7559055118110236,
          "duration": 0.1844133958333316
        },
        {
          "name": "G#2",
          "midi": 44,
          "time": 39.62958999999978,
          "velocity": 0.7559055118110236,
          "duration": 0.1844133958333316
        },
        {
          "name": "G#3",
          "midi": 56,
          "time": 39.81477499999978,
          "velocity": 0.7559055118110236,
          "duration": 0.1844133958333316
        },
        {
          "name": "C4",
          "midi": 60,
          "time": 39.81477499999978,
          "velocity": 0.7559055118110236,
          "duration": 0.1844133958333316
        },
        {
          "name": "D2",
          "midi": 38,
          "time": 39.999959999999774,
          "velocity": 0.7559055118110236,
          "duration": 0.1844133958333316
        },
        {
          "name": "D3",
          "midi": 50,
          "time": 40.18514499999977,
          "velocity": 0.7559055118110236,
          "duration": 0.1844133958333316
        },
        {
          "name": "F3",
          "midi": 53,
          "time": 40.18514499999977,
          "velocity": 0.7559055118110236,
          "duration": 0.1844133958333316
        },
        {
          "name": "D2",
          "midi": 38,
          "time": 40.37032999999977,
          "velocity": 0.7559055118110236,
          "duration": 0.1844133958333316
        },
        {
          "name": "D3",
          "midi": 50,
          "time": 40.555514999999765,
          "velocity": 0.7559055118110236,
          "duration": 0.1844133958333316
        },
        {
          "name": "F3",
          "midi": 53,
          "time": 40.555514999999765,
          "velocity": 0.7559055118110236,
          "duration": 0.1844133958333316
        },
        {
          "name": "G2",
          "midi": 43,
          "time": 40.74069999999976,
          "velocity": 0.7559055118110236,
          "duration": 0.1844133958333316
        },
        {
          "name": "G3",
          "midi": 55,
          "time": 40.92588499999976,
          "velocity": 0.7559055118110236,
          "duration": 0.1844133958333316
        },
        {
          "name": "B3",
          "midi": 59,
          "time": 40.92588499999976,
          "velocity": 0.7559055118110236,
          "duration": 0.1844133958333316
        },
        {
          "name": "G2",
          "midi": 43,
          "time": 41.111069999999756,
          "velocity": 0.7559055118110236,
          "duration": 0.1844133958333316
        },
        {
          "name": "G3",
          "midi": 55,
          "time": 41.29625499999975,
          "velocity": 0.7559055118110236,
          "duration": 0.1844133958333316
        },
        {
          "name": "B3",
          "midi": 59,
          "time": 41.29625499999975,
          "velocity": 0.7559055118110236,
          "duration": 0.1844133958333316
        },
        {
          "name": "C2",
          "midi": 36,
          "time": 41.48143999999975,
          "velocity": 0.7559055118110236,
          "duration": 0.1844133958333316
        },
        {
          "name": "C3",
          "midi": 48,
          "time": 41.66662499999975,
          "velocity": 0.7559055118110236,
          "duration": 0.1844133958333316
        },
        {
          "name": "D#3",
          "midi": 51,
          "time": 41.66662499999975,
          "velocity": 0.7559055118110236,
          "duration": 0.1844133958333316
        },
        {
          "name": "C2",
          "midi": 36,
          "time": 41.851809999999745,
          "velocity": 0.7559055118110236,
          "duration": 0.1844133958333316
        },
        {
          "name": "C3",
          "midi": 48,
          "time": 42.03699499999974,
          "velocity": 0.7559055118110236,
          "duration": 0.1844133958333316
        },
        {
          "name": "D#3",
          "midi": 51,
          "time": 42.03699499999974,
          "velocity": 0.7559055118110236,
          "duration": 0.1844133958333316
        },
        {
          "name": "C2",
          "midi": 36,
          "time": 42.22217999999974,
          "velocity": 0.7559055118110236,
          "duration": 0.1844133958333316
        },
        {
          "name": "C3",
          "midi": 48,
          "time": 42.407364999999736,
          "velocity": 0.7559055118110236,
          "duration": 0.1844133958333316
        },
        {
          "name": "E3",
          "midi": 52,
          "time": 42.407364999999736,
          "velocity": 0.7559055118110236,
          "duration": 0.1844133958333316
        },
        {
          "name": "C2",
          "midi": 36,
          "time": 42.59254999999973,
          "velocity": 0.7559055118110236,
          "duration": 0.1844133958333316
        },
        {
          "name": "C3",
          "midi": 48,
          "time": 42.77773499999973,
          "velocity": 0.7559055118110236,
          "duration": 0.1844133958333316
        },
        {
          "name": "E3",
          "midi": 52,
          "time": 42.77773499999973,
          "velocity": 0.7559055118110236,
          "duration": 0.1844133958333316
        },
        {
          "name": "F2",
          "midi": 41,
          "time": 42.96291999999973,
          "velocity": 0.7559055118110236,
          "duration": 0.1844133958333316
        },
        {
          "name": "F3",
          "midi": 53,
          "time": 43.148104999999724,
          "velocity": 0.7559055118110236,
          "duration": 0.1844133958333316
        },
        {
          "name": "G#3",
          "midi": 56,
          "time": 43.148104999999724,
          "velocity": 0.7559055118110236,
          "duration": 0.1844133958333316
        },
        {
          "name": "F2",
          "midi": 41,
          "time": 43.33328999999972,
          "velocity": 0.7559055118110236,
          "duration": 0.1844133958333316
        },
        {
          "name": "F3",
          "midi": 53,
          "time": 43.51847499999972,
          "velocity": 0.7559055118110236,
          "duration": 0.1844133958333316
        },
        {
          "name": "G#3",
          "midi": 56,
          "time": 43.51847499999972,
          "velocity": 0.7559055118110236,
          "duration": 0.1844133958333316
        },
        {
          "name": "A#2",
          "midi": 46,
          "time": 43.703659999999715,
          "velocity": 0.7559055118110236,
          "duration": 0.1844133958333316
        },
        {
          "name": "A#3",
          "midi": 58,
          "time": 43.88884499999971,
          "velocity": 0.7559055118110236,
          "duration": 0.1844133958333316
        },
        {
          "name": "D4",
          "midi": 62,
          "time": 43.88884499999971,
          "velocity": 0.7559055118110236,
          "duration": 0.1844133958333316
        },
        {
          "name": "A#2",
          "midi": 46,
          "time": 44.07402999999971,
          "velocity": 0.7559055118110236,
          "duration": 0.1844133958333316
        },
        {
          "name": "A#3",
          "midi": 58,
          "time": 44.259214999999706,
          "velocity": 0.7559055118110236,
          "duration": 0.1844133958333316
        },
        {
          "name": "D4",
          "midi": 62,
          "time": 44.259214999999706,
          "velocity": 0.7559055118110236,
          "duration": 0.1844133958333316
        },
        {
          "name": "D#2",
          "midi": 39,
          "time": 44.4443999999997,
          "velocity": 0.7559055118110236,
          "duration": 0.1844133958333316
        },
        {
          "name": "D#3",
          "midi": 51,
          "time": 44.6295849999997,
          "velocity": 0.7559055118110236,
          "duration": 0.1844133958333316
        },
        {
          "name": "G3",
          "midi": 55,
          "time": 44.6295849999997,
          "velocity": 0.7559055118110236,
          "duration": 0.1844133958333316
        },
        {
          "name": "D#2",
          "midi": 39,
          "time": 44.8147699999997,
          "velocity": 0.7559055118110236,
          "duration": 0.1844133958333316
        },
        {
          "name": "D#3",
          "midi": 51,
          "time": 44.999954999999694,
          "velocity": 0.7559055118110236,
          "duration": 0.1844133958333316
        },
        {
          "name": "G3",
          "midi": 55,
          "time": 44.999954999999694,
          "velocity": 0.7559055118110236,
          "duration": 0.1844133958333316
        },
        {
          "name": "G#2",
          "midi": 44,
          "time": 45.18513999999969,
          "velocity": 0.7559055118110236,
          "duration": 0.1844133958333316
        },
        {
          "name": "G#3",
          "midi": 56,
          "time": 45.37032499999969,
          "velocity": 0.7559055118110236,
          "duration": 0.1844133958333316
        },
        {
          "name": "C4",
          "midi": 60,
          "time": 45.37032499999969,
          "velocity": 0.7559055118110236,
          "duration": 0.1844133958333316
        },
        {
          "name": "G#2",
          "midi": 44,
          "time": 45.555509999999686,
          "velocity": 0.7559055118110236,
          "duration": 0.1844133958333316
        },
        {
          "name": "G#3",
          "midi": 56,
          "time": 45.74069499999968,
          "velocity": 0.7559055118110236,
          "duration": 0.1844133958333316
        },
        {
          "name": "C4",
          "midi": 60,
          "time": 45.74069499999968,
          "velocity": 0.7559055118110236,
          "duration": 0.1844133958333316
        },
        {
          "name": "D2",
          "midi": 38,
          "time": 45.92587999999968,
          "velocity": 0.7559055118110236,
          "duration": 0.1844133958333316
        },
        {
          "name": "D3",
          "midi": 50,
          "time": 46.11106499999968,
          "velocity": 0.7559055118110236,
          "duration": 0.1844133958333316
        },
        {
          "name": "F3",
          "midi": 53,
          "time": 46.11106499999968,
          "velocity": 0.7559055118110236,
          "duration": 0.1844133958333316
        },
        {
          "name": "D2",
          "midi": 38,
          "time": 46.296249999999674,
          "velocity": 0.7559055118110236,
          "duration": 0.1844133958333316
        },
        {
          "name": "D3",
          "midi": 50,
          "time": 46.48143499999967,
          "velocity": 0.7559055118110236,
          "duration": 0.1844133958333316
        },
        {
          "name": "F3",
          "midi": 53,
          "time": 46.48143499999967,
          "velocity": 0.7559055118110236,
          "duration": 0.1844133958333316
        },
        {
          "name": "G2",
          "midi": 43,
          "time": 46.66661999999967,
          "velocity": 0.7559055118110236,
          "duration": 0.1844133958333316
        },
        {
          "name": "G3",
          "midi": 55,
          "time": 46.851804999999665,
          "velocity": 0.7559055118110236,
          "duration": 0.1844133958333316
        },
        {
          "name": "B3",
          "midi": 59,
          "time": 46.851804999999665,
          "velocity": 0.7559055118110236,
          "duration": 0.1844133958333316
        },
        {
          "name": "G2",
          "midi": 43,
          "time": 47.03698999999966,
          "velocity": 0.7559055118110236,
          "duration": 0.1844133958333316
        },
        {
          "name": "G3",
          "midi": 55,
          "time": 47.22217499999966,
          "velocity": 0.7559055118110236,
          "duration": 0.1844133958333316
        },
        {
          "name": "B3",
          "midi": 59,
          "time": 47.22217499999966,
          "velocity": 0.7559055118110236,
          "duration": 0.1844133958333316
        },
        {
          "name": "C2",
          "midi": 36,
          "time": 47.407359999999656,
          "velocity": 0.7559055118110236,
          "duration": 0.1844133958333316
        },
        {
          "name": "C3",
          "midi": 48,
          "time": 47.59254499999965,
          "velocity": 0.7559055118110236,
          "duration": 0.1844133958333316
        },
        {
          "name": "D#3",
          "midi": 51,
          "time": 47.59254499999965,
          "velocity": 0.7559055118110236,
          "duration": 0.1844133958333316
        },
        {
          "name": "C2",
          "midi": 36,
          "time": 47.77772999999965,
          "velocity": 0.7559055118110236,
          "duration": 0.1844133958333316
        },
        {
          "name": "C3",
          "midi": 48,
          "time": 47.96291499999965,
          "velocity": 0.7559055118110236,
          "duration": 0.1844133958333316
        },
        {
          "name": "D#3",
          "midi": 51,
          "time": 47.96291499999965,
          "velocity": 0.7559055118110236,
          "duration": 0.1844133958333316
        },
        {
          "name": "C2",
          "midi": 36,
          "time": 48.148099999999644,
          "velocity": 0.7559055118110236,
          "duration": 0.1844133958333316
        },
        {
          "name": "C3",
          "midi": 48,
          "time": 48.33328499999964,
          "velocity": 0.7559055118110236,
          "duration": 0.1844133958333316
        },
        {
          "name": "E3",
          "midi": 52,
          "time": 48.33328499999964,
          "velocity": 0.7559055118110236,
          "duration": 0.1844133958333316
        },
        {
          "name": "C2",
          "midi": 36,
          "time": 48.51846999999964,
          "velocity": 0.7559055118110236,
          "duration": 0.1844133958333316
        },
        {
          "name": "C3",
          "midi": 48,
          "time": 48.703654999999635,
          "velocity": 0.7559055118110236,
          "duration": 0.1844133958333316
        },
        {
          "name": "E3",
          "midi": 52,
          "time": 48.703654999999635,
          "velocity": 0.7559055118110236,
          "duration": 0.1844133958333316
        },
        {
          "name": "F2",
          "midi": 41,
          "time": 48.88883999999963,
          "velocity": 0.7559055118110236,
          "duration": 0.1844133958333316
        },
        {
          "name": "F3",
          "midi": 53,
          "time": 49.07402499999963,
          "velocity": 0.7559055118110236,
          "duration": 0.1844133958333316
        },
        {
          "name": "G#3",
          "midi": 56,
          "time": 49.07402499999963,
          "velocity": 0.7559055118110236,
          "duration": 0.1844133958333316
        },
        {
          "name": "F2",
          "midi": 41,
          "time": 49.25920999999963,
          "velocity": 0.7559055118110236,
          "duration": 0.1844133958333316
        },
        {
          "name": "F3",
          "midi": 53,
          "time": 49.44439499999962,
          "velocity": 0.7559055118110236,
          "duration": 0.1844133958333316
        },
        {
          "name": "G#3",
          "midi": 56,
          "time": 49.44439499999962,
          "velocity": 0.7559055118110236,
          "duration": 0.1844133958333316
        },
        {
          "name": "A#2",
          "midi": 46,
          "time": 49.62957999999962,
          "velocity": 0.7559055118110236,
          "duration": 0.1844133958333316
        },
        {
          "name": "A#3",
          "midi": 58,
          "time": 49.81476499999962,
          "velocity": 0.7559055118110236,
          "duration": 0.1844133958333316
        },
        {
          "name": "D4",
          "midi": 62,
          "time": 49.81476499999962,
          "velocity": 0.7559055118110236,
          "duration": 0.1844133958333316
        },
        {
          "name": "A#2",
          "midi": 46,
          "time": 49.999949999999615,
          "velocity": 0.7559055118110236,
          "duration": 0.1844133958333316
        },
        {
          "name": "A#3",
          "midi": 58,
          "time": 50.18513499999961,
          "velocity": 0.7559055118110236,
          "duration": 0.1844133958333316
        },
        {
          "name": "D4",
          "midi": 62,
          "time": 50.18513499999961,
          "velocity": 0.7559055118110236,
          "duration": 0.1844133958333316
        },
        {
          "name": "D#2",
          "midi": 39,
          "time": 50.37031999999961,
          "velocity": 0.7559055118110236,
          "duration": 0.1844133958333316
        },
        {
          "name": "D#3",
          "midi": 51,
          "time": 50.555504999999606,
          "velocity": 0.7559055118110236,
          "duration": 0.1844133958333316
        },
        {
          "name": "G3",
          "midi": 55,
          "time": 50.555504999999606,
          "velocity": 0.7559055118110236,
          "duration": 0.1844133958333316
        },
        {
          "name": "D#2",
          "midi": 39,
          "time": 50.7406899999996,
          "velocity": 0.7559055118110236,
          "duration": 0.1844133958333316
        },
        {
          "name": "D#3",
          "midi": 51,
          "time": 50.9258749999996,
          "velocity": 0.7559055118110236,
          "duration": 0.1844133958333316
        },
        {
          "name": "G3",
          "midi": 55,
          "time": 50.9258749999996,
          "velocity": 0.7559055118110236,
          "duration": 0.1844133958333316
        },
        {
          "name": "G#2",
          "midi": 44,
          "time": 51.1110599999996,
          "velocity": 0.7559055118110236,
          "duration": 0.1844133958333316
        },
        {
          "name": "G#3",
          "midi": 56,
          "time": 51.296244999999594,
          "velocity": 0.7559055118110236,
          "duration": 0.1844133958333316
        },
        {
          "name": "C4",
          "midi": 60,
          "time": 51.296244999999594,
          "velocity": 0.7559055118110236,
          "duration": 0.1844133958333316
        },
        {
          "name": "G#2",
          "midi": 44,
          "time": 51.48142999999959,
          "velocity": 0.7559055118110236,
          "duration": 0.1844133958333316
        },
        {
          "name": "G#3",
          "midi": 56,
          "time": 51.66661499999959,
          "velocity": 0.7559055118110236,
          "duration": 0.1844133958333316
        },
        {
          "name": "C4",
          "midi": 60,
          "time": 51.66661499999959,
          "velocity": 0.7559055118110236,
          "duration": 0.1844133958333316
        },
        {
          "name": "D2",
          "midi": 38,
          "time": 51.851799999999585,
          "velocity": 0.7559055118110236,
          "duration": 0.1844133958333316
        },
        {
          "name": "D3",
          "midi": 50,
          "time": 52.03698499999958,
          "velocity": 0.7559055118110236,
          "duration": 0.1844133958333316
        },
        {
          "name": "F3",
          "midi": 53,
          "time": 52.03698499999958,
          "velocity": 0.7559055118110236,
          "duration": 0.1844133958333316
        },
        {
          "name": "D2",
          "midi": 38,
          "time": 52.22216999999958,
          "velocity": 0.7559055118110236,
          "duration": 0.1844133958333316
        },
        {
          "name": "D3",
          "midi": 50,
          "time": 52.407354999999576,
          "velocity": 0.7559055118110236,
          "duration": 0.1844133958333316
        },
        {
          "name": "F3",
          "midi": 53,
          "time": 52.407354999999576,
          "velocity": 0.7559055118110236,
          "duration": 0.1844133958333316
        },
        {
          "name": "G2",
          "midi": 43,
          "time": 52.59253999999957,
          "velocity": 0.7559055118110236,
          "duration": 0.1844133958333316
        },
        {
          "name": "G3",
          "midi": 55,
          "time": 52.77772499999957,
          "velocity": 0.7559055118110236,
          "duration": 0.1844133958333316
        },
        {
          "name": "B3",
          "midi": 59,
          "time": 52.77772499999957,
          "velocity": 0.7559055118110236,
          "duration": 0.1844133958333316
        },
        {
          "name": "G2",
          "midi": 43,
          "time": 52.96290999999957,
          "velocity": 0.7559055118110236,
          "duration": 0.1844133958333316
        },
        {
          "name": "G3",
          "midi": 55,
          "time": 53.148094999999564,
          "velocity": 0.7559055118110236,
          "duration": 0.1844133958333316
        },
        {
          "name": "B3",
          "midi": 59,
          "time": 53.148094999999564,
          "velocity": 0.7559055118110236,
          "duration": 0.1844133958333316
        },
        {
          "name": "C2",
          "midi": 36,
          "time": 53.33327999999956,
          "velocity": 0.7559055118110236,
          "duration": 0.1844133958333316
        },
        {
          "name": "C3",
          "midi": 48,
          "time": 53.51846499999956,
          "velocity": 0.7559055118110236,
          "duration": 0.1844133958333316
        },
        {
          "name": "D#3",
          "midi": 51,
          "time": 53.51846499999956,
          "velocity": 0.7559055118110236,
          "duration": 0.1844133958333316
        },
        {
          "name": "C2",
          "midi": 36,
          "time": 53.703649999999556,
          "velocity": 0.7559055118110236,
          "duration": 0.1844133958333316
        },
        {
          "name": "C3",
          "midi": 48,
          "time": 53.88883499999955,
          "velocity": 0.7559055118110236,
          "duration": 0.1844133958333316
        },
        {
          "name": "D#3",
          "midi": 51,
          "time": 53.88883499999955,
          "velocity": 0.7559055118110236,
          "duration": 0.1844133958333316
        },
        {
          "name": "C2",
          "midi": 36,
          "time": 54.07401999999955,
          "velocity": 0.7559055118110236,
          "duration": 0.09182089583332953
        },
        {
          "name": "C3",
          "midi": 48,
          "time": 54.07401999999955,
          "velocity": 0.7559055118110236,
          "duration": 0.09182089583332953
        },
        {
          "name": "C2",
          "midi": 36,
          "time": 54.444389999999544,
          "velocity": 0.7559055118110236,
          "duration": 0.09182089583333664
        },
        {
          "name": "C3",
          "midi": 48,
          "time": 54.444389999999544,
          "velocity": 0.7559055118110236,
          "duration": 0.09182089583333664
        },
        {
          "name": "F2",
          "midi": 41,
          "time": 54.814759999999545,
          "velocity": 0.7559055118110236,
          "duration": 0.1844133958333316
        },
        {
          "name": "F3",
          "midi": 53,
          "time": 54.99994499999954,
          "velocity": 0.7559055118110236,
          "duration": 0.1844133958333316
        },
        {
          "name": "G#3",
          "midi": 56,
          "time": 54.99994499999954,
          "velocity": 0.7559055118110236,
          "duration": 0.1844133958333316
        },
        {
          "name": "F2",
          "midi": 41,
          "time": 55.18512999999954,
          "velocity": 0.7559055118110236,
          "duration": 0.1844133958333316
        },
        {
          "name": "F3",
          "midi": 53,
          "time": 55.370314999999536,
          "velocity": 0.7559055118110236,
          "duration": 0.1844133958333316
        },
        {
          "name": "G#3",
          "midi": 56,
          "time": 55.370314999999536,
          "velocity": 0.7559055118110236,
          "duration": 0.1844133958333316
        },
        {
          "name": "A#2",
          "midi": 46,
          "time": 55.55549999999953,
          "velocity": 0.7559055118110236,
          "duration": 0.1844133958333316
        },
        {
          "name": "A#3",
          "midi": 58,
          "time": 55.74068499999953,
          "velocity": 0.7559055118110236,
          "duration": 0.1844133958333316
        },
        {
          "name": "D4",
          "midi": 62,
          "time": 55.74068499999953,
          "velocity": 0.7559055118110236,
          "duration": 0.1844133958333316
        },
        {
          "name": "A#2",
          "midi": 46,
          "time": 55.92586999999953,
          "velocity": 0.7559055118110236,
          "duration": 0.1844133958333316
        },
        {
          "name": "A#3",
          "midi": 58,
          "time": 56.111054999999524,
          "velocity": 0.7559055118110236,
          "duration": 0.1844133958333316
        },
        {
          "name": "D4",
          "midi": 62,
          "time": 56.111054999999524,
          "velocity": 0.7559055118110236,
          "duration": 0.1844133958333316
        },
        {
          "name": "D#2",
          "midi": 39,
          "time": 56.29623999999952,
          "velocity": 0.7559055118110236,
          "duration": 0.1844133958333316
        },
        {
          "name": "D#3",
          "midi": 51,
          "time": 56.48142499999952,
          "velocity": 0.7559055118110236,
          "duration": 0.1844133958333316
        },
        {
          "name": "G3",
          "midi": 55,
          "time": 56.48142499999952,
          "velocity": 0.7559055118110236,
          "duration": 0.1844133958333316
        },
        {
          "name": "D#2",
          "midi": 39,
          "time": 56.666609999999515,
          "velocity": 0.7559055118110236,
          "duration": 0.1844133958333316
        },
        {
          "name": "D#3",
          "midi": 51,
          "time": 56.85179499999951,
          "velocity": 0.7559055118110236,
          "duration": 0.1844133958333316
        },
        {
          "name": "G3",
          "midi": 55,
          "time": 56.85179499999951,
          "velocity": 0.7559055118110236,
          "duration": 0.1844133958333316
        },
        {
          "name": "G#2",
          "midi": 44,
          "time": 57.03697999999951,
          "velocity": 0.7559055118110236,
          "duration": 0.1844133958333316
        },
        {
          "name": "G#3",
          "midi": 56,
          "time": 57.22216499999951,
          "velocity": 0.7559055118110236,
          "duration": 0.1844133958333316
        },
        {
          "name": "C4",
          "midi": 60,
          "time": 57.22216499999951,
          "velocity": 0.7559055118110236,
          "duration": 0.1844133958333316
        },
        {
          "name": "G#2",
          "midi": 44,
          "time": 57.407349999999504,
          "velocity": 0.7559055118110236,
          "duration": 0.1844133958333316
        },
        {
          "name": "G#3",
          "midi": 56,
          "time": 57.5925349999995,
          "velocity": 0.7559055118110236,
          "duration": 0.1844133958333316
        },
        {
          "name": "C4",
          "midi": 60,
          "time": 57.5925349999995,
          "velocity": 0.7559055118110236,
          "duration": 0.1844133958333316
        },
        {
          "name": "D2",
          "midi": 38,
          "time": 57.7777199999995,
          "velocity": 0.7559055118110236,
          "duration": 0.1844133958333316
        },
        {
          "name": "D3",
          "midi": 50,
          "time": 57.962904999999495,
          "velocity": 0.7559055118110236,
          "duration": 0.1844133958333316
        },
        {
          "name": "F3",
          "midi": 53,
          "time": 57.962904999999495,
          "velocity": 0.7559055118110236,
          "duration": 0.1844133958333316
        },
        {
          "name": "D2",
          "midi": 38,
          "time": 58.14808999999949,
          "velocity": 0.7559055118110236,
          "duration": 0.1844133958333316
        },
        {
          "name": "D3",
          "midi": 50,
          "time": 58.33327499999949,
          "velocity": 0.7559055118110236,
          "duration": 0.1844133958333316
        },
        {
          "name": "F3",
          "midi": 53,
          "time": 58.33327499999949,
          "velocity": 0.7559055118110236,
          "duration": 0.1844133958333316
        },
        {
          "name": "G2",
          "midi": 43,
          "time": 58.518459999999486,
          "velocity": 0.7559055118110236,
          "duration": 0.1844133958333316
        },
        {
          "name": "G3",
          "midi": 55,
          "time": 58.70364499999948,
          "velocity": 0.7559055118110236,
          "duration": 0.1844133958333316
        },
        {
          "name": "B3",
          "midi": 59,
          "time": 58.70364499999948,
          "velocity": 0.7559055118110236,
          "duration": 0.1844133958333316
        },
        {
          "name": "G2",
          "midi": 43,
          "time": 58.88882999999948,
          "velocity": 0.7559055118110236,
          "duration": 0.1844133958333316
        },
        {
          "name": "G3",
          "midi": 55,
          "time": 59.07401499999948,
          "velocity": 0.7559055118110236,
          "duration": 0.1844133958333316
        },
        {
          "name": "B3",
          "midi": 59,
          "time": 59.07401499999948,
          "velocity": 0.7559055118110236,
          "duration": 0.1844133958333316
        },
        {
          "name": "C2",
          "midi": 36,
          "time": 59.259199999999474,
          "velocity": 0.7559055118110236,
          "duration": 0.1844133958333316
        },
        {
          "name": "C3",
          "midi": 48,
          "time": 59.44438499999947,
          "velocity": 0.7559055118110236,
          "duration": 0.1844133958333316
        },
        {
          "name": "D#3",
          "midi": 51,
          "time": 59.44438499999947,
          "velocity": 0.7559055118110236,
          "duration": 0.1844133958333316
        },
        {
          "name": "C2",
          "midi": 36,
          "time": 59.62956999999947,
          "velocity": 0.7559055118110236,
          "duration": 0.1844133958333316
        },
        {
          "name": "C3",
          "midi": 48,
          "time": 59.814754999999465,
          "velocity": 0.7559055118110236,
          "duration": 0.1844133958333316
        },
        {
          "name": "D#3",
          "midi": 51,
          "time": 59.814754999999465,
          "velocity": 0.7559055118110236,
          "duration": 0.1844133958333316
        },
        {
          "name": "C2",
          "midi": 36,
          "time": 59.99993999999946,
          "velocity": 0.7559055118110236,
          "duration": 0.1844133958333316
        },
        {
          "name": "C3",
          "midi": 48,
          "time": 60.18512499999946,
          "velocity": 0.7559055118110236,
          "duration": 0.1844133958333316
        },
        {
          "name": "E3",
          "midi": 52,
          "time": 60.18512499999946,
          "velocity": 0.7559055118110236,
          "duration": 0.1844133958333316
        },
        {
          "name": "C2",
          "midi": 36,
          "time": 60.370309999999456,
          "velocity": 0.7559055118110236,
          "duration": 0.1844133958333316
        },
        {
          "name": "C3",
          "midi": 48,
          "time": 60.55549499999945,
          "velocity": 0.7559055118110236,
          "duration": 0.1844133958333316
        },
        {
          "name": "E3",
          "midi": 52,
          "time": 60.55549499999945,
          "velocity": 0.7559055118110236,
          "duration": 0.1844133958333316
        },
        {
          "name": "F4",
          "midi": 65,
          "time": 60.74067999999945,
          "velocity": 0.5039370078740157,
          "duration": 0.1844133958333316
        },
        {
          "name": "G#4",
          "midi": 68,
          "time": 60.74067999999945,
          "velocity": 0.5039370078740157,
          "duration": 0.1844133958333316
        },
        {
          "name": "C5",
          "midi": 72,
          "time": 60.74067999999945,
          "velocity": 0.5039370078740157,
          "duration": 0.1844133958333316
        },
        {
          "name": "F4",
          "midi": 65,
          "time": 60.92586499999945,
          "velocity": 0.5039370078740157,
          "duration": 0.1844133958333316
        },
        {
          "name": "G#4",
          "midi": 68,
          "time": 60.92586499999945,
          "velocity": 0.5039370078740157,
          "duration": 0.1844133958333316
        },
        {
          "name": "C5",
          "midi": 72,
          "time": 60.92586499999945,
          "velocity": 0.5039370078740157,
          "duration": 0.1844133958333316
        },
        {
          "name": "F4",
          "midi": 65,
          "time": 61.111049999999445,
          "velocity": 0.5039370078740157,
          "duration": 0.1844133958333316
        },
        {
          "name": "G#4",
          "midi": 68,
          "time": 61.111049999999445,
          "velocity": 0.5039370078740157,
          "duration": 0.1844133958333316
        },
        {
          "name": "C5",
          "midi": 72,
          "time": 61.111049999999445,
          "velocity": 0.5039370078740157,
          "duration": 0.1844133958333316
        },
        {
          "name": "F4",
          "midi": 65,
          "time": 61.29623499999944,
          "velocity": 0.5039370078740157,
          "duration": 0.1844133958333316
        },
        {
          "name": "G#4",
          "midi": 68,
          "time": 61.29623499999944,
          "velocity": 0.5039370078740157,
          "duration": 0.1844133958333316
        },
        {
          "name": "C5",
          "midi": 72,
          "time": 61.29623499999944,
          "velocity": 0.5039370078740157,
          "duration": 0.1844133958333316
        },
        {
          "name": "A#4",
          "midi": 70,
          "time": 61.48141999999944,
          "velocity": 0.5039370078740157,
          "duration": 0.1844133958333316
        },
        {
          "name": "D5",
          "midi": 74,
          "time": 61.48141999999944,
          "velocity": 0.5039370078740157,
          "duration": 0.1844133958333316
        },
        {
          "name": "F5",
          "midi": 77,
          "time": 61.48141999999944,
          "velocity": 0.5039370078740157,
          "duration": 0.1844133958333316
        },
        {
          "name": "A#4",
          "midi": 70,
          "time": 61.666604999999436,
          "velocity": 0.5039370078740157,
          "duration": 0.1844133958333316
        },
        {
          "name": "D5",
          "midi": 74,
          "time": 61.666604999999436,
          "velocity": 0.5039370078740157,
          "duration": 0.1844133958333316
        },
        {
          "name": "F5",
          "midi": 77,
          "time": 61.666604999999436,
          "velocity": 0.5039370078740157,
          "duration": 0.1844133958333316
        },
        {
          "name": "A#4",
          "midi": 70,
          "time": 61.85178999999943,
          "velocity": 0.5039370078740157,
          "duration": 0.1844133958333316
        },
        {
          "name": "D5",
          "midi": 74,
          "time": 61.85178999999943,
          "velocity": 0.5039370078740157,
          "duration": 0.1844133958333316
        },
        {
          "name": "F5",
          "midi": 77,
          "time": 61.85178999999943,
          "velocity": 0.5039370078740157,
          "duration": 0.1844133958333316
        },
        {
          "name": "A#4",
          "midi": 70,
          "time": 62.03697499999943,
          "velocity": 0.5039370078740157,
          "duration": 0.1844133958333316
        },
        {
          "name": "D5",
          "midi": 74,
          "time": 62.03697499999943,
          "velocity": 0.5039370078740157,
          "duration": 0.1844133958333316
        },
        {
          "name": "F5",
          "midi": 77,
          "time": 62.03697499999943,
          "velocity": 0.5039370078740157,
          "duration": 0.1844133958333316
        },
        {
          "name": "D#4",
          "midi": 63,
          "time": 62.22215999999943,
          "velocity": 0.5039370078740157,
          "duration": 0.1844133958333316
        },
        {
          "name": "G4",
          "midi": 67,
          "time": 62.22215999999943,
          "velocity": 0.5039370078740157,
          "duration": 0.1844133958333316
        },
        {
          "name": "A#4",
          "midi": 70,
          "time": 62.22215999999943,
          "velocity": 0.5039370078740157,
          "duration": 0.1844133958333316
        },
        {
          "name": "D#4",
          "midi": 63,
          "time": 62.407344999999424,
          "velocity": 0.5039370078740157,
          "duration": 0.1844133958333316
        },
        {
          "name": "G4",
          "midi": 67,
          "time": 62.407344999999424,
          "velocity": 0.5039370078740157,
          "duration": 0.1844133958333316
        },
        {
          "name": "A#4",
          "midi": 70,
          "time": 62.407344999999424,
          "velocity": 0.5039370078740157,
          "duration": 0.1844133958333316
        },
        {
          "name": "D#4",
          "midi": 63,
          "time": 62.59252999999942,
          "velocity": 0.5039370078740157,
          "duration": 0.1844133958333316
        },
        {
          "name": "G4",
          "midi": 67,
          "time": 62.59252999999942,
          "velocity": 0.5039370078740157,
          "duration": 0.1844133958333316
        },
        {
          "name": "A#4",
          "midi": 70,
          "time": 62.59252999999942,
          "velocity": 0.5039370078740157,
          "duration": 0.1844133958333316
        },
        {
          "name": "D#4",
          "midi": 63,
          "time": 62.77771499999942,
          "velocity": 0.5039370078740157,
          "duration": 0.1844133958333316
        },
        {
          "name": "G4",
          "midi": 67,
          "time": 62.77771499999942,
          "velocity": 0.5039370078740157,
          "duration": 0.1844133958333316
        },
        {
          "name": "A#4",
          "midi": 70,
          "time": 62.77771499999942,
          "velocity": 0.5039370078740157,
          "duration": 0.1844133958333316
        },
        {
          "name": "G#4",
          "midi": 68,
          "time": 62.962899999999415,
          "velocity": 0.5039370078740157,
          "duration": 0.1844133958333316
        },
        {
          "name": "C5",
          "midi": 72,
          "time": 62.962899999999415,
          "velocity": 0.5039370078740157,
          "duration": 0.1844133958333316
        },
        {
          "name": "D#5",
          "midi": 75,
          "time": 62.962899999999415,
          "velocity": 0.5039370078740157,
          "duration": 0.1844133958333316
        },
        {
          "name": "G#4",
          "midi": 68,
          "time": 63.14808499999941,
          "velocity": 0.5039370078740157,
          "duration": 0.1844133958333316
        },
        {
          "name": "C5",
          "midi": 72,
          "time": 63.14808499999941,
          "velocity": 0.5039370078740157,
          "duration": 0.1844133958333316
        },
        {
          "name": "D#5",
          "midi": 75,
          "time": 63.14808499999941,
          "velocity": 0.5039370078740157,
          "duration": 0.1844133958333316
        },
        {
          "name": "G#4",
          "midi": 68,
          "time": 63.33326999999941,
          "velocity": 0.5039370078740157,
          "duration": 0.1844133958333316
        },
        {
          "name": "C5",
          "midi": 72,
          "time": 63.33326999999941,
          "velocity": 0.5039370078740157,
          "duration": 0.1844133958333316
        },
        {
          "name": "D#5",
          "midi": 75,
          "time": 63.33326999999941,
          "velocity": 0.5039370078740157,
          "duration": 0.1844133958333316
        },
        {
          "name": "G#4",
          "midi": 68,
          "time": 63.518454999999406,
          "velocity": 0.5039370078740157,
          "duration": 0.1844133958333316
        },
        {
          "name": "C5",
          "midi": 72,
          "time": 63.518454999999406,
          "velocity": 0.5039370078740157,
          "duration": 0.1844133958333316
        },
        {
          "name": "D#5",
          "midi": 75,
          "time": 63.518454999999406,
          "velocity": 0.5039370078740157,
          "duration": 0.1844133958333316
        },
        {
          "name": "D4",
          "midi": 62,
          "time": 63.7036399999994,
          "velocity": 0.5039370078740157,
          "duration": 0.1844133958333316
        },
        {
          "name": "F4",
          "midi": 65,
          "time": 63.7036399999994,
          "velocity": 0.5039370078740157,
          "duration": 0.1844133958333316
        },
        {
          "name": "G#4",
          "midi": 68,
          "time": 63.7036399999994,
          "velocity": 0.5039370078740157,
          "duration": 0.1844133958333316
        },
        {
          "name": "D4",
          "midi": 62,
          "time": 63.8888249999994,
          "velocity": 0.5039370078740157,
          "duration": 0.1844133958333316
        },
        {
          "name": "F4",
          "midi": 65,
          "time": 63.8888249999994,
          "velocity": 0.5039370078740157,
          "duration": 0.1844133958333316
        },
        {
          "name": "G#4",
          "midi": 68,
          "time": 63.8888249999994,
          "velocity": 0.5039370078740157,
          "duration": 0.1844133958333316
        },
        {
          "name": "D4",
          "midi": 62,
          "time": 64.0740099999994,
          "velocity": 0.5039370078740157,
          "duration": 0.1844133958333316
        },
        {
          "name": "F4",
          "midi": 65,
          "time": 64.0740099999994,
          "velocity": 0.5039370078740157,
          "duration": 0.1844133958333316
        },
        {
          "name": "G#4",
          "midi": 68,
          "time": 64.0740099999994,
          "velocity": 0.5039370078740157,
          "duration": 0.1844133958333316
        },
        {
          "name": "D4",
          "midi": 62,
          "time": 64.25919499999941,
          "velocity": 0.5039370078740157,
          "duration": 0.1844133958333316
        },
        {
          "name": "F4",
          "midi": 65,
          "time": 64.25919499999941,
          "velocity": 0.5039370078740157,
          "duration": 0.1844133958333316
        },
        {
          "name": "G#4",
          "midi": 68,
          "time": 64.25919499999941,
          "velocity": 0.5039370078740157,
          "duration": 0.1844133958333316
        },
        {
          "name": "F4",
          "midi": 65,
          "time": 64.44437999999941,
          "velocity": 0.5039370078740157,
          "duration": 0.18441339583334582
        },
        {
          "name": "G4",
          "midi": 67,
          "time": 64.44437999999941,
          "velocity": 0.5039370078740157,
          "duration": 0.18441339583334582
        },
        {
          "name": "B4",
          "midi": 71,
          "time": 64.44437999999941,
          "velocity": 0.5039370078740157,
          "duration": 0.18441339583334582
        },
        {
          "name": "F4",
          "midi": 65,
          "time": 64.62956499999943,
          "velocity": 0.5039370078740157,
          "duration": 0.1844133958333316
        },
        {
          "name": "G4",
          "midi": 67,
          "time": 64.62956499999943,
          "velocity": 0.5039370078740157,
          "duration": 0.1844133958333316
        },
        {
          "name": "B4",
          "midi": 71,
          "time": 64.62956499999943,
          "velocity": 0.5039370078740157,
          "duration": 0.1844133958333316
        },
        {
          "name": "F4",
          "midi": 65,
          "time": 64.81474999999944,
          "velocity": 0.5039370078740157,
          "duration": 0.1844133958333316
        },
        {
          "name": "G4",
          "midi": 67,
          "time": 64.81474999999944,
          "velocity": 0.5039370078740157,
          "duration": 0.1844133958333316
        },
        {
          "name": "B4",
          "midi": 71,
          "time": 64.81474999999944,
          "velocity": 0.5039370078740157,
          "duration": 0.1844133958333316
        },
        {
          "name": "F4",
          "midi": 65,
          "time": 64.99993499999944,
          "velocity": 0.5039370078740157,
          "duration": 0.1844133958333316
        },
        {
          "name": "G4",
          "midi": 67,
          "time": 64.99993499999944,
          "velocity": 0.5039370078740157,
          "duration": 0.1844133958333316
        },
        {
          "name": "B4",
          "midi": 71,
          "time": 64.99993499999944,
          "velocity": 0.5039370078740157,
          "duration": 0.1844133958333316
        },
        {
          "name": "C4",
          "midi": 60,
          "time": 65.18511999999944,
          "velocity": 0.5039370078740157,
          "duration": 0.18441339583334582
        },
        {
          "name": "D#4",
          "midi": 63,
          "time": 65.18511999999944,
          "velocity": 0.5039370078740157,
          "duration": 0.18441339583334582
        },
        {
          "name": "G4",
          "midi": 67,
          "time": 65.18511999999944,
          "velocity": 0.5039370078740157,
          "duration": 0.18441339583334582
        },
        {
          "name": "C4",
          "midi": 60,
          "time": 65.37030499999946,
          "velocity": 0.5039370078740157,
          "duration": 0.1844133958333316
        },
        {
          "name": "D#4",
          "midi": 63,
          "time": 65.37030499999946,
          "velocity": 0.5039370078740157,
          "duration": 0.1844133958333316
        },
        {
          "name": "G4",
          "midi": 67,
          "time": 65.37030499999946,
          "velocity": 0.5039370078740157,
          "duration": 0.1844133958333316
        },
        {
          "name": "C4",
          "midi": 60,
          "time": 65.55548999999947,
          "velocity": 0.5039370078740157,
          "duration": 0.1844133958333316
        },
        {
          "name": "D#4",
          "midi": 63,
          "time": 65.55548999999947,
          "velocity": 0.5039370078740157,
          "duration": 0.1844133958333316
        },
        {
          "name": "G4",
          "midi": 67,
          "time": 65.55548999999947,
          "velocity": 0.5039370078740157,
          "duration": 0.1844133958333316
        },
        {
          "name": "C4",
          "midi": 60,
          "time": 65.74067499999947,
          "velocity": 0.5039370078740157,
          "duration": 0.1844133958333316
        },
        {
          "name": "D#4",
          "midi": 63,
          "time": 65.74067499999947,
          "velocity": 0.5039370078740157,
          "duration": 0.1844133958333316
        },
        {
          "name": "G4",
          "midi": 67,
          "time": 65.74067499999947,
          "velocity": 0.5039370078740157,
          "duration": 0.1844133958333316
        },
        {
          "name": "A#3",
          "midi": 58,
          "time": 65.92585999999947,
          "velocity": 0.5039370078740157,
          "duration": 0.18441339583334582
        },
        {
          "name": "C4",
          "midi": 60,
          "time": 65.92585999999947,
          "velocity": 0.5039370078740157,
          "duration": 0.18441339583334582
        },
        {
          "name": "E4",
          "midi": 64,
          "time": 65.92585999999947,
          "velocity": 0.5039370078740157,
          "duration": 0.18441339583334582
        },
        {
          "name": "A#3",
          "midi": 58,
          "time": 66.11104499999949,
          "velocity": 0.5039370078740157,
          "duration": 0.1844133958333316
        },
        {
          "name": "C4",
          "midi": 60,
          "time": 66.11104499999949,
          "velocity": 0.5039370078740157,
          "duration": 0.1844133958333316
        },
        {
          "name": "E4",
          "midi": 64,
          "time": 66.11104499999949,
          "velocity": 0.5039370078740157,
          "duration": 0.1844133958333316
        },
        {
          "name": "A#3",
          "midi": 58,
          "time": 66.2962299999995,
          "velocity": 0.5039370078740157,
          "duration": 0.1844133958333316
        },
        {
          "name": "C4",
          "midi": 60,
          "time": 66.2962299999995,
          "velocity": 0.5039370078740157,
          "duration": 0.1844133958333316
        },
        {
          "name": "E4",
          "midi": 64,
          "time": 66.2962299999995,
          "velocity": 0.5039370078740157,
          "duration": 0.1844133958333316
        },
        {
          "name": "A#3",
          "midi": 58,
          "time": 66.4814149999995,
          "velocity": 0.5039370078740157,
          "duration": 0.1844133958333316
        },
        {
          "name": "C4",
          "midi": 60,
          "time": 66.4814149999995,
          "velocity": 0.5039370078740157,
          "duration": 0.1844133958333316
        },
        {
          "name": "E4",
          "midi": 64,
          "time": 66.4814149999995,
          "velocity": 0.5039370078740157,
          "duration": 0.1844133958333316
        },
        {
          "name": "F4",
          "midi": 65,
          "time": 66.6665999999995,
          "velocity": 0.5039370078740157,
          "duration": 0.18441339583334582
        },
        {
          "name": "G#4",
          "midi": 68,
          "time": 66.6665999999995,
          "velocity": 0.5039370078740157,
          "duration": 0.18441339583334582
        },
        {
          "name": "C5",
          "midi": 72,
          "time": 66.6665999999995,
          "velocity": 0.5039370078740157,
          "duration": 0.18441339583334582
        },
        {
          "name": "F4",
          "midi": 65,
          "time": 66.85178499999952,
          "velocity": 0.5039370078740157,
          "duration": 0.1844133958333316
        },
        {
          "name": "G#4",
          "midi": 68,
          "time": 66.85178499999952,
          "velocity": 0.5039370078740157,
          "duration": 0.1844133958333316
        },
        {
          "name": "C5",
          "midi": 72,
          "time": 66.85178499999952,
          "velocity": 0.5039370078740157,
          "duration": 0.1844133958333316
        },
        {
          "name": "F4",
          "midi": 65,
          "time": 67.03696999999953,
          "velocity": 0.5039370078740157,
          "duration": 0.1844133958333316
        },
        {
          "name": "G#4",
          "midi": 68,
          "time": 67.03696999999953,
          "velocity": 0.5039370078740157,
          "duration": 0.1844133958333316
        },
        {
          "name": "C5",
          "midi": 72,
          "time": 67.03696999999953,
          "velocity": 0.5039370078740157,
          "duration": 0.1844133958333316
        },
        {
          "name": "F4",
          "midi": 65,
          "time": 67.22215499999953,
          "velocity": 0.5039370078740157,
          "duration": 0.1844133958333316
        },
        {
          "name": "G#4",
          "midi": 68,
          "time": 67.22215499999953,
          "velocity": 0.5039370078740157,
          "duration": 0.1844133958333316
        },
        {
          "name": "C5",
          "midi": 72,
          "time": 67.22215499999953,
          "velocity": 0.5039370078740157,
          "duration": 0.1844133958333316
        },
        {
          "name": "A#4",
          "midi": 70,
          "time": 67.40733999999954,
          "velocity": 0.5039370078740157,
          "duration": 0.18441339583334582
        },
        {
          "name": "D5",
          "midi": 74,
          "time": 67.40733999999954,
          "velocity": 0.5039370078740157,
          "duration": 0.18441339583334582
        },
        {
          "name": "F5",
          "midi": 77,
          "time": 67.40733999999954,
          "velocity": 0.5039370078740157,
          "duration": 0.18441339583334582
        },
        {
          "name": "A#4",
          "midi": 70,
          "time": 67.59252499999955,
          "velocity": 0.5039370078740157,
          "duration": 0.1844133958333316
        },
        {
          "name": "D5",
          "midi": 74,
          "time": 67.59252499999955,
          "velocity": 0.5039370078740157,
          "duration": 0.1844133958333316
        },
        {
          "name": "F5",
          "midi": 77,
          "time": 67.59252499999955,
          "velocity": 0.5039370078740157,
          "duration": 0.1844133958333316
        },
        {
          "name": "A#4",
          "midi": 70,
          "time": 67.77770999999956,
          "velocity": 0.5039370078740157,
          "duration": 0.1844133958333316
        },
        {
          "name": "D5",
          "midi": 74,
          "time": 67.77770999999956,
          "velocity": 0.5039370078740157,
          "duration": 0.1844133958333316
        },
        {
          "name": "F5",
          "midi": 77,
          "time": 67.77770999999956,
          "velocity": 0.5039370078740157,
          "duration": 0.1844133958333316
        },
        {
          "name": "A#4",
          "midi": 70,
          "time": 67.96289499999956,
          "velocity": 0.5039370078740157,
          "duration": 0.1844133958333316
        },
        {
          "name": "D5",
          "midi": 74,
          "time": 67.96289499999956,
          "velocity": 0.5039370078740157,
          "duration": 0.1844133958333316
        },
        {
          "name": "F5",
          "midi": 77,
          "time": 67.96289499999956,
          "velocity": 0.5039370078740157,
          "duration": 0.1844133958333316
        },
        {
          "name": "D#4",
          "midi": 63,
          "time": 68.14807999999957,
          "velocity": 0.5039370078740157,
          "duration": 0.18441339583334582
        },
        {
          "name": "G4",
          "midi": 67,
          "time": 68.14807999999957,
          "velocity": 0.5039370078740157,
          "duration": 0.18441339583334582
        },
        {
          "name": "A#4",
          "midi": 70,
          "time": 68.14807999999957,
          "velocity": 0.5039370078740157,
          "duration": 0.18441339583334582
        },
        {
          "name": "D#4",
          "midi": 63,
          "time": 68.33326499999959,
          "velocity": 0.5039370078740157,
          "duration": 0.1844133958333316
        },
        {
          "name": "G4",
          "midi": 67,
          "time": 68.33326499999959,
          "velocity": 0.5039370078740157,
          "duration": 0.1844133958333316
        },
        {
          "name": "A#4",
          "midi": 70,
          "time": 68.33326499999959,
          "velocity": 0.5039370078740157,
          "duration": 0.1844133958333316
        },
        {
          "name": "D#4",
          "midi": 63,
          "time": 68.51844999999959,
          "velocity": 0.5039370078740157,
          "duration": 0.1844133958333316
        },
        {
          "name": "G4",
          "midi": 67,
          "time": 68.51844999999959,
          "velocity": 0.5039370078740157,
          "duration": 0.1844133958333316
        },
        {
          "name": "A#4",
          "midi": 70,
          "time": 68.51844999999959,
          "velocity": 0.5039370078740157,
          "duration": 0.1844133958333316
        },
        {
          "name": "D#4",
          "midi": 63,
          "time": 68.7036349999996,
          "velocity": 0.5039370078740157,
          "duration": 0.1844133958333316
        },
        {
          "name": "G4",
          "midi": 67,
          "time": 68.7036349999996,
          "velocity": 0.5039370078740157,
          "duration": 0.1844133958333316
        },
        {
          "name": "A#4",
          "midi": 70,
          "time": 68.7036349999996,
          "velocity": 0.5039370078740157,
          "duration": 0.1844133958333316
        },
        {
          "name": "G#4",
          "midi": 68,
          "time": 68.8888199999996,
          "velocity": 0.5039370078740157,
          "duration": 0.18441339583334582
        },
        {
          "name": "C5",
          "midi": 72,
          "time": 68.8888199999996,
          "velocity": 0.5039370078740157,
          "duration": 0.18441339583334582
        },
        {
          "name": "D#5",
          "midi": 75,
          "time": 68.8888199999996,
          "velocity": 0.5039370078740157,
          "duration": 0.18441339583334582
        },
        {
          "name": "G#4",
          "midi": 68,
          "time": 69.07400499999962,
          "velocity": 0.5039370078740157,
          "duration": 0.1844133958333316
        },
        {
          "name": "C5",
          "midi": 72,
          "time": 69.07400499999962,
          "velocity": 0.5039370078740157,
          "duration": 0.1844133958333316
        },
        {
          "name": "D#5",
          "midi": 75,
          "time": 69.07400499999962,
          "velocity": 0.5039370078740157,
          "duration": 0.1844133958333316
        },
        {
          "name": "G#4",
          "midi": 68,
          "time": 69.25918999999962,
          "velocity": 0.5039370078740157,
          "duration": 0.1844133958333316
        },
        {
          "name": "C5",
          "midi": 72,
          "time": 69.25918999999962,
          "velocity": 0.5039370078740157,
          "duration": 0.1844133958333316
        },
        {
          "name": "D#5",
          "midi": 75,
          "time": 69.25918999999962,
          "velocity": 0.5039370078740157,
          "duration": 0.1844133958333316
        },
        {
          "name": "G#4",
          "midi": 68,
          "time": 69.44437499999962,
          "velocity": 0.5039370078740157,
          "duration": 0.1844133958333316
        },
        {
          "name": "C5",
          "midi": 72,
          "time": 69.44437499999962,
          "velocity": 0.5039370078740157,
          "duration": 0.1844133958333316
        },
        {
          "name": "D#5",
          "midi": 75,
          "time": 69.44437499999962,
          "velocity": 0.5039370078740157,
          "duration": 0.1844133958333316
        },
        {
          "name": "D4",
          "midi": 62,
          "time": 69.62955999999963,
          "velocity": 0.5039370078740157,
          "duration": 0.18441339583334582
        },
        {
          "name": "F4",
          "midi": 65,
          "time": 69.62955999999963,
          "velocity": 0.5039370078740157,
          "duration": 0.18441339583334582
        },
        {
          "name": "G#4",
          "midi": 68,
          "time": 69.62955999999963,
          "velocity": 0.5039370078740157,
          "duration": 0.18441339583334582
        },
        {
          "name": "D4",
          "midi": 62,
          "time": 69.81474499999965,
          "velocity": 0.5039370078740157,
          "duration": 0.1844133958333316
        },
        {
          "name": "F4",
          "midi": 65,
          "time": 69.81474499999965,
          "velocity": 0.5039370078740157,
          "duration": 0.1844133958333316
        },
        {
          "name": "G#4",
          "midi": 68,
          "time": 69.81474499999965,
          "velocity": 0.5039370078740157,
          "duration": 0.1844133958333316
        },
        {
          "name": "D4",
          "midi": 62,
          "time": 69.99992999999965,
          "velocity": 0.5039370078740157,
          "duration": 0.1844133958333316
        },
        {
          "name": "F4",
          "midi": 65,
          "time": 69.99992999999965,
          "velocity": 0.5039370078740157,
          "duration": 0.1844133958333316
        },
        {
          "name": "G#4",
          "midi": 68,
          "time": 69.99992999999965,
          "velocity": 0.5039370078740157,
          "duration": 0.1844133958333316
        },
        {
          "name": "D4",
          "midi": 62,
          "time": 70.18511499999966,
          "velocity": 0.5039370078740157,
          "duration": 0.1844133958333316
        },
        {
          "name": "F4",
          "midi": 65,
          "time": 70.18511499999966,
          "velocity": 0.5039370078740157,
          "duration": 0.1844133958333316
        },
        {
          "name": "G#4",
          "midi": 68,
          "time": 70.18511499999966,
          "velocity": 0.5039370078740157,
          "duration": 0.1844133958333316
        },
        {
          "name": "F4",
          "midi": 65,
          "time": 70.37029999999966,
          "velocity": 0.5039370078740157,
          "duration": 0.18441339583334582
        },
        {
          "name": "G4",
          "midi": 67,
          "time": 70.37029999999966,
          "velocity": 0.5039370078740157,
          "duration": 0.18441339583334582
        },
        {
          "name": "B4",
          "midi": 71,
          "time": 70.37029999999966,
          "velocity": 0.5039370078740157,
          "duration": 0.18441339583334582
        },
        {
          "name": "F4",
          "midi": 65,
          "time": 70.55548499999968,
          "velocity": 0.5039370078740157,
          "duration": 0.1844133958333316
        },
        {
          "name": "G4",
          "midi": 67,
          "time": 70.55548499999968,
          "velocity": 0.5039370078740157,
          "duration": 0.1844133958333316
        },
        {
          "name": "B4",
          "midi": 71,
          "time": 70.55548499999968,
          "velocity": 0.5039370078740157,
          "duration": 0.1844133958333316
        },
        {
          "name": "F4",
          "midi": 65,
          "time": 70.74066999999968,
          "velocity": 0.5039370078740157,
          "duration": 0.1844133958333316
        },
        {
          "name": "G4",
          "midi": 67,
          "time": 70.74066999999968,
          "velocity": 0.5039370078740157,
          "duration": 0.1844133958333316
        },
        {
          "name": "B4",
          "midi": 71,
          "time": 70.74066999999968,
          "velocity": 0.5039370078740157,
          "duration": 0.1844133958333316
        },
        {
          "name": "F4",
          "midi": 65,
          "time": 70.92585499999969,
          "velocity": 0.5039370078740157,
          "duration": 0.1844133958333316
        },
        {
          "name": "G4",
          "midi": 67,
          "time": 70.92585499999969,
          "velocity": 0.5039370078740157,
          "duration": 0.1844133958333316
        },
        {
          "name": "B4",
          "midi": 71,
          "time": 70.92585499999969,
          "velocity": 0.5039370078740157,
          "duration": 0.1844133958333316
        },
        {
          "name": "C4",
          "midi": 60,
          "time": 71.11103999999969,
          "velocity": 0.5039370078740157,
          "duration": 0.18441339583334582
        },
        {
          "name": "D#4",
          "midi": 63,
          "time": 71.11103999999969,
          "velocity": 0.5039370078740157,
          "duration": 0.18441339583334582
        },
        {
          "name": "G4",
          "midi": 67,
          "time": 71.11103999999969,
          "velocity": 0.5039370078740157,
          "duration": 0.18441339583334582
        },
        {
          "name": "C4",
          "midi": 60,
          "time": 71.29622499999971,
          "velocity": 0.5039370078740157,
          "duration": 0.1844133958333316
        },
        {
          "name": "D#4",
          "midi": 63,
          "time": 71.29622499999971,
          "velocity": 0.5039370078740157,
          "duration": 0.1844133958333316
        },
        {
          "name": "G4",
          "midi": 67,
          "time": 71.29622499999971,
          "velocity": 0.5039370078740157,
          "duration": 0.1844133958333316
        },
        {
          "name": "C4",
          "midi": 60,
          "time": 71.48140999999971,
          "velocity": 0.5039370078740157,
          "duration": 0.1844133958333316
        },
        {
          "name": "D#4",
          "midi": 63,
          "time": 71.48140999999971,
          "velocity": 0.5039370078740157,
          "duration": 0.1844133958333316
        },
        {
          "name": "G4",
          "midi": 67,
          "time": 71.48140999999971,
          "velocity": 0.5039370078740157,
          "duration": 0.1844133958333316
        },
        {
          "name": "C4",
          "midi": 60,
          "time": 71.66659499999972,
          "velocity": 0.5039370078740157,
          "duration": 0.1844133958333316
        },
        {
          "name": "D#4",
          "midi": 63,
          "time": 71.66659499999972,
          "velocity": 0.5039370078740157,
          "duration": 0.1844133958333316
        },
        {
          "name": "G4",
          "midi": 67,
          "time": 71.66659499999972,
          "velocity": 0.5039370078740157,
          "duration": 0.1844133958333316
        },
        {
          "name": "C4",
          "midi": 60,
          "time": 71.85177999999972,
          "velocity": 0.5039370078740157,
          "duration": 0.09182089583333664
        },
        {
          "name": "C5",
          "midi": 72,
          "time": 71.85177999999972,
          "velocity": 0.5039370078740157,
          "duration": 0.09182089583333664
        },
        {
          "name": "F2",
          "midi": 41,
          "time": 72.59251999999972,
          "velocity": 0.5039370078740157,
          "duration": 0.1844133958333316
        },
        {
          "name": "G#2",
          "midi": 44,
          "time": 72.59251999999972,
          "velocity": 0.5039370078740157,
          "duration": 0.1844133958333316
        },
        {
          "name": "C3",
          "midi": 48,
          "time": 72.59251999999972,
          "velocity": 0.5039370078740157,
          "duration": 0.1844133958333316
        },
        {
          "name": "F2",
          "midi": 41,
          "time": 72.77770499999973,
          "velocity": 0.5039370078740157,
          "duration": 0.1844133958333316
        },
        {
          "name": "F2",
          "midi": 41,
          "time": 72.96288999999973,
          "velocity": 0.5039370078740157,
          "duration": 0.1844133958333316
        },
        {
          "name": "G#2",
          "midi": 44,
          "time": 72.96288999999973,
          "velocity": 0.5039370078740157,
          "duration": 0.1844133958333316
        },
        {
          "name": "C3",
          "midi": 48,
          "time": 72.96288999999973,
          "velocity": 0.5039370078740157,
          "duration": 0.1844133958333316
        },
        {
          "name": "F2",
          "midi": 41,
          "time": 73.14807499999974,
          "velocity": 0.5039370078740157,
          "duration": 0.1844133958333316
        },
        {
          "name": "A#2",
          "midi": 46,
          "time": 73.33325999999974,
          "velocity": 0.5039370078740157,
          "duration": 0.18441339583334582
        },
        {
          "name": "D3",
          "midi": 50,
          "time": 73.33325999999974,
          "velocity": 0.5039370078740157,
          "duration": 0.18441339583334582
        },
        {
          "name": "F3",
          "midi": 53,
          "time": 73.33325999999974,
          "velocity": 0.5039370078740157,
          "duration": 0.18441339583334582
        },
        {
          "name": "A#2",
          "midi": 46,
          "time": 73.51844499999976,
          "velocity": 0.5039370078740157,
          "duration": 0.1844133958333316
        },
        {
          "name": "A#2",
          "midi": 46,
          "time": 73.70362999999976,
          "velocity": 0.5039370078740157,
          "duration": 0.1844133958333316
        },
        {
          "name": "D3",
          "midi": 50,
          "time": 73.70362999999976,
          "velocity": 0.5039370078740157,
          "duration": 0.1844133958333316
        },
        {
          "name": "F3",
          "midi": 53,
          "time": 73.70362999999976,
          "velocity": 0.5039370078740157,
          "duration": 0.1844133958333316
        },
        {
          "name": "A#2",
          "midi": 46,
          "time": 73.88881499999977,
          "velocity": 0.5039370078740157,
          "duration": 0.1844133958333316
        },
        {
          "name": "D#3",
          "midi": 51,
          "time": 74.07399999999977,
          "velocity": 0.5039370078740157,
          "duration": 0.18441339583334582
        },
        {
          "name": "G3",
          "midi": 55,
          "time": 74.07399999999977,
          "velocity": 0.5039370078740157,
          "duration": 0.18441339583334582
        },
        {
          "name": "A#3",
          "midi": 58,
          "time": 74.07399999999977,
          "velocity": 0.5039370078740157,
          "duration": 0.18441339583334582
        },
        {
          "name": "D#3",
          "midi": 51,
          "time": 74.25918499999979,
          "velocity": 0.5039370078740157,
          "duration": 0.1844133958333316
        },
        {
          "name": "D#3",
          "midi": 51,
          "time": 74.4443699999998,
          "velocity": 0.5039370078740157,
          "duration": 0.1844133958333316
        },
        {
          "name": "G3",
          "midi": 55,
          "time": 74.4443699999998,
          "velocity": 0.5039370078740157,
          "duration": 0.1844133958333316
        },
        {
          "name": "A#3",
          "midi": 58,
          "time": 74.4443699999998,
          "velocity": 0.5039370078740157,
          "duration": 0.1844133958333316
        },
        {
          "name": "D#3",
          "midi": 51,
          "time": 74.6295549999998,
          "velocity": 0.5039370078740157,
          "duration": 0.1844133958333316
        },
        {
          "name": "G#2",
          "midi": 44,
          "time": 74.8147399999998,
          "velocity": 0.5039370078740157,
          "duration": 0.18441339583334582
        },
        {
          "name": "C3",
          "midi": 48,
          "time": 74.8147399999998,
          "velocity": 0.5039370078740157,
          "duration": 0.18441339583334582
        },
        {
          "name": "D#3",
          "midi": 51,
          "time": 74.8147399999998,
          "velocity": 0.5039370078740157,
          "duration": 0.18441339583334582
        },
        {
          "name": "G#2",
          "midi": 44,
          "time": 74.99992499999982,
          "velocity": 0.5039370078740157,
          "duration": 0.1844133958333316
        },
        {
          "name": "G#2",
          "midi": 44,
          "time": 75.18510999999982,
          "velocity": 0.5039370078740157,
          "duration": 0.1844133958333316
        },
        {
          "name": "C3",
          "midi": 48,
          "time": 75.18510999999982,
          "velocity": 0.5039370078740157,
          "duration": 0.1844133958333316
        },
        {
          "name": "D#3",
          "midi": 51,
          "time": 75.18510999999982,
          "velocity": 0.5039370078740157,
          "duration": 0.1844133958333316
        },
        {
          "name": "G#2",
          "midi": 44,
          "time": 75.37029499999983,
          "velocity": 0.5039370078740157,
          "duration": 0.1844133958333316
        },
        {
          "name": "D3",
          "midi": 50,
          "time": 75.55547999999983,
          "velocity": 0.5039370078740157,
          "duration": 0.18441339583334582
        },
        {
          "name": "F3",
          "midi": 53,
          "time": 75.55547999999983,
          "velocity": 0.5039370078740157,
          "duration": 0.18441339583334582
        },
        {
          "name": "G#3",
          "midi": 56,
          "time": 75.55547999999983,
          "velocity": 0.5039370078740157,
          "duration": 0.18441339583334582
        },
        {
          "name": "D3",
          "midi": 50,
          "time": 75.74066499999985,
          "velocity": 0.5039370078740157,
          "duration": 0.1844133958333316
        },
        {
          "name": "D3",
          "midi": 50,
          "time": 75.92584999999985,
          "velocity": 0.5039370078740157,
          "duration": 0.1844133958333316
        },
        {
          "name": "F3",
          "midi": 53,
          "time": 75.92584999999985,
          "velocity": 0.5039370078740157,
          "duration": 0.1844133958333316
        },
        {
          "name": "G#3",
          "midi": 56,
          "time": 75.92584999999985,
          "velocity": 0.5039370078740157,
          "duration": 0.1844133958333316
        },
        {
          "name": "D3",
          "midi": 50,
          "time": 76.11103499999986,
          "velocity": 0.5039370078740157,
          "duration": 0.1844133958333316
        },
        {
          "name": "G2",
          "midi": 43,
          "time": 76.29621999999986,
          "velocity": 0.5039370078740157,
          "duration": 0.18441339583334582
        },
        {
          "name": "B2",
          "midi": 47,
          "time": 76.29621999999986,
          "velocity": 0.5039370078740157,
          "duration": 0.18441339583334582
        },
        {
          "name": "D3",
          "midi": 50,
          "time": 76.29621999999986,
          "velocity": 0.5039370078740157,
          "duration": 0.18441339583334582
        },
        {
          "name": "G2",
          "midi": 43,
          "time": 76.48140499999988,
          "velocity": 0.5039370078740157,
          "duration": 0.1844133958333316
        },
        {
          "name": "G2",
          "midi": 43,
          "time": 76.66658999999989,
          "velocity": 0.5039370078740157,
          "duration": 0.1844133958333316
        },
        {
          "name": "B2",
          "midi": 47,
          "time": 76.66658999999989,
          "velocity": 0.5039370078740157,
          "duration": 0.1844133958333316
        },
        {
          "name": "D3",
          "midi": 50,
          "time": 76.66658999999989,
          "velocity": 0.5039370078740157,
          "duration": 0.1844133958333316
        },
        {
          "name": "G2",
          "midi": 43,
          "time": 76.85177499999989,
          "velocity": 0.5039370078740157,
          "duration": 0.1844133958333316
        },
        {
          "name": "C3",
          "midi": 48,
          "time": 77.0369599999999,
          "velocity": 0.5039370078740157,
          "duration": 0.18441339583334582
        },
        {
          "name": "D#3",
          "midi": 51,
          "time": 77.0369599999999,
          "velocity": 0.5039370078740157,
          "duration": 0.18441339583334582
        },
        {
          "name": "G3",
          "midi": 55,
          "time": 77.0369599999999,
          "velocity": 0.5039370078740157,
          "duration": 0.18441339583334582
        },
        {
          "name": "C3",
          "midi": 48,
          "time": 77.22214499999991,
          "velocity": 0.5039370078740157,
          "duration": 0.1844133958333316
        },
        {
          "name": "C3",
          "midi": 48,
          "time": 77.40732999999992,
          "velocity": 0.5039370078740157,
          "duration": 0.1844133958333316
        },
        {
          "name": "D#3",
          "midi": 51,
          "time": 77.40732999999992,
          "velocity": 0.5039370078740157,
          "duration": 0.1844133958333316
        },
        {
          "name": "G3",
          "midi": 55,
          "time": 77.40732999999992,
          "velocity": 0.5039370078740157,
          "duration": 0.1844133958333316
        },
        {
          "name": "C3",
          "midi": 48,
          "time": 77.59251499999992,
          "velocity": 0.5039370078740157,
          "duration": 0.1844133958333316
        },
        {
          "name": "C2",
          "midi": 36,
          "time": 77.77769999999992,
          "velocity": 0.5039370078740157,
          "duration": 0.18441339583334582
        },
        {
          "name": "C3",
          "midi": 48,
          "time": 77.77769999999992,
          "velocity": 0.5039370078740157,
          "duration": 0.18441339583334582
        },
        {
          "name": "C3",
          "midi": 48,
          "time": 77.96288499999994,
          "velocity": 0.5039370078740157,
          "duration": 0.09182089583333664
        },
        {
          "name": "G2",
          "midi": 43,
          "time": 78.05547749999995,
          "velocity": 0.5039370078740157,
          "duration": 0.09182089583333664
        },
        {
          "name": "C2",
          "midi": 36,
          "time": 78.14806999999996,
          "velocity": 0.5039370078740157,
          "duration": 0.1844133958333316
        },
        {
          "name": "C3",
          "midi": 48,
          "time": 78.33325499999997,
          "velocity": 0.5039370078740157,
          "duration": 0.1844133958333316
        },
        {
          "name": "F3",
          "midi": 53,
          "time": 78.51843999999997,
          "velocity": 0.5039370078740157,
          "duration": 0.18441339583334582
        },
        {
          "name": "G#3",
          "midi": 56,
          "time": 78.51843999999997,
          "velocity": 0.5039370078740157,
          "duration": 0.18441339583334582
        },
        {
          "name": "C4",
          "midi": 60,
          "time": 78.51843999999997,
          "velocity": 0.5039370078740157,
          "duration": 0.18441339583334582
        },
        {
          "name": "F3",
          "midi": 53,
          "time": 78.70362499999999,
          "velocity": 0.5039370078740157,
          "duration": 0.09182089583333664
        },
        {
          "name": "G#3",
          "midi": 56,
          "time": 78.7962175,
          "velocity": 0.5039370078740157,
          "duration": 0.09182089583333664
        },
        {
          "name": "F3",
          "midi": 53,
          "time": 78.88881,
          "velocity": 0.5039370078740157,
          "duration": 0.1844133958333316
        },
        {
          "name": "G#3",
          "midi": 56,
          "time": 78.88881,
          "velocity": 0.5039370078740157,
          "duration": 0.1844133958333316
        },
        {
          "name": "C4",
          "midi": 60,
          "time": 78.88881,
          "velocity": 0.5039370078740157,
          "duration": 0.1844133958333316
        },
        {
          "name": "F3",
          "midi": 53,
          "time": 79.07399500000001,
          "velocity": 0.5039370078740157,
          "duration": 0.1844133958333316
        },
        {
          "name": "A#2",
          "midi": 46,
          "time": 79.25918000000001,
          "velocity": 0.5039370078740157,
          "duration": 0.18441339583334582
        },
        {
          "name": "D3",
          "midi": 50,
          "time": 79.25918000000001,
          "velocity": 0.5039370078740157,
          "duration": 0.18441339583334582
        },
        {
          "name": "F3",
          "midi": 53,
          "time": 79.25918000000001,
          "velocity": 0.5039370078740157,
          "duration": 0.18441339583334582
        },
        {
          "name": "A#2",
          "midi": 46,
          "time": 79.44436500000003,
          "velocity": 0.5039370078740157,
          "duration": 0.09182089583333664
        },
        {
          "name": "D3",
          "midi": 50,
          "time": 79.53695750000004,
          "velocity": 0.5039370078740157,
          "duration": 0.09182089583333664
        },
        {
          "name": "A#2",
          "midi": 46,
          "time": 79.62955000000005,
          "velocity": 0.5039370078740157,
          "duration": 0.1844133958333316
        },
        {
          "name": "D3",
          "midi": 50,
          "time": 79.62955000000005,
          "velocity": 0.5039370078740157,
          "duration": 0.1844133958333316
        },
        {
          "name": "F3",
          "midi": 53,
          "time": 79.62955000000005,
          "velocity": 0.5039370078740157,
          "duration": 0.1844133958333316
        },
        {
          "name": "A#2",
          "midi": 46,
          "time": 79.81473500000006,
          "velocity": 0.5039370078740157,
          "duration": 0.1844133958333316
        },
        {
          "name": "D#3",
          "midi": 51,
          "time": 79.99992000000006,
          "velocity": 0.5039370078740157,
          "duration": 0.18441339583334582
        },
        {
          "name": "G3",
          "midi": 55,
          "time": 79.99992000000006,
          "velocity": 0.5039370078740157,
          "duration": 0.18441339583334582
        },
        {
          "name": "A#3",
          "midi": 58,
          "time": 79.99992000000006,
          "velocity": 0.5039370078740157,
          "duration": 0.18441339583334582
        },
        {
          "name": "D#3",
          "midi": 51,
          "time": 80.18510500000008,
          "velocity": 0.5039370078740157,
          "duration": 0.09182089583333664
        },
        {
          "name": "G3",
          "midi": 55,
          "time": 80.27769750000009,
          "velocity": 0.5039370078740157,
          "duration": 0.09182089583333664
        },
        {
          "name": "D#3",
          "midi": 51,
          "time": 80.3702900000001,
          "velocity": 0.5039370078740157,
          "duration": 0.1844133958333316
        },
        {
          "name": "G3",
          "midi": 55,
          "time": 80.3702900000001,
          "velocity": 0.5039370078740157,
          "duration": 0.1844133958333316
        },
        {
          "name": "A#3",
          "midi": 58,
          "time": 80.3702900000001,
          "velocity": 0.5039370078740157,
          "duration": 0.1844133958333316
        },
        {
          "name": "D#3",
          "midi": 51,
          "time": 80.5554750000001,
          "velocity": 0.5039370078740157,
          "duration": 0.1844133958333316
        },
        {
          "name": "G#2",
          "midi": 44,
          "time": 80.7406600000001,
          "velocity": 0.5039370078740157,
          "duration": 0.18441339583334582
        },
        {
          "name": "C3",
          "midi": 48,
          "time": 80.7406600000001,
          "velocity": 0.5039370078740157,
          "duration": 0.18441339583334582
        },
        {
          "name": "D#3",
          "midi": 51,
          "time": 80.7406600000001,
          "velocity": 0.5039370078740157,
          "duration": 0.18441339583334582
        },
        {
          "name": "G#2",
          "midi": 44,
          "time": 80.92584500000012,
          "velocity": 0.5039370078740157,
          "duration": 0.09182089583333664
        },
        {
          "name": "C3",
          "midi": 48,
          "time": 81.01843750000013,
          "velocity": 0.5039370078740157,
          "duration": 0.09182089583333664
        },
        {
          "name": "G#2",
          "midi": 44,
          "time": 81.11103000000014,
          "velocity": 0.5039370078740157,
          "duration": 0.1844133958333316
        },
        {
          "name": "C3",
          "midi": 48,
          "time": 81.11103000000014,
          "velocity": 0.5039370078740157,
          "duration": 0.1844133958333316
        },
        {
          "name": "D#3",
          "midi": 51,
          "time": 81.11103000000014,
          "velocity": 0.5039370078740157,
          "duration": 0.1844133958333316
        },
        {
          "name": "G#2",
          "midi": 44,
          "time": 81.29621500000015,
          "velocity": 0.5039370078740157,
          "duration": 0.1844133958333316
        },
        {
          "name": "D3",
          "midi": 50,
          "time": 81.48140000000015,
          "velocity": 0.5039370078740157,
          "duration": 0.18441339583334582
        },
        {
          "name": "F3",
          "midi": 53,
          "time": 81.48140000000015,
          "velocity": 0.5039370078740157,
          "duration": 0.18441339583334582
        },
        {
          "name": "G#3",
          "midi": 56,
          "time": 81.48140000000015,
          "velocity": 0.5039370078740157,
          "duration": 0.18441339583334582
        },
        {
          "name": "D3",
          "midi": 50,
          "time": 81.66658500000017,
          "velocity": 0.5039370078740157,
          "duration": 0.09182089583333664
        },
        {
          "name": "F3",
          "midi": 53,
          "time": 81.75917750000018,
          "velocity": 0.5039370078740157,
          "duration": 0.09182089583333664
        },
        {
          "name": "D3",
          "midi": 50,
          "time": 81.85177000000019,
          "velocity": 0.5039370078740157,
          "duration": 0.1844133958333316
        },
        {
          "name": "F3",
          "midi": 53,
          "time": 81.85177000000019,
          "velocity": 0.5039370078740157,
          "duration": 0.1844133958333316
        },
        {
          "name": "G#3",
          "midi": 56,
          "time": 81.85177000000019,
          "velocity": 0.5039370078740157,
          "duration": 0.1844133958333316
        },
        {
          "name": "D3",
          "midi": 50,
          "time": 82.03695500000019,
          "velocity": 0.5039370078740157,
          "duration": 0.1844133958333316
        },
        {
          "name": "G2",
          "midi": 43,
          "time": 82.2221400000002,
          "velocity": 0.5039370078740157,
          "duration": 0.18441339583334582
        },
        {
          "name": "B2",
          "midi": 47,
          "time": 82.2221400000002,
          "velocity": 0.5039370078740157,
          "duration": 0.18441339583334582
        },
        {
          "name": "D3",
          "midi": 50,
          "time": 82.2221400000002,
          "velocity": 0.5039370078740157,
          "duration": 0.18441339583334582
        },
        {
          "name": "G2",
          "midi": 43,
          "time": 82.40732500000021,
          "velocity": 0.5039370078740157,
          "duration": 0.09182089583333664
        },
        {
          "name": "B2",
          "midi": 47,
          "time": 82.49991750000022,
          "velocity": 0.5039370078740157,
          "duration": 0.09182089583333664
        },
        {
          "name": "G2",
          "midi": 43,
          "time": 82.59251000000023,
          "velocity": 0.5039370078740157,
          "duration": 0.1844133958333316
        },
        {
          "name": "B2",
          "midi": 47,
          "time": 82.59251000000023,
          "velocity": 0.5039370078740157,
          "duration": 0.1844133958333316
        },
        {
          "name": "D3",
          "midi": 50,
          "time": 82.59251000000023,
          "velocity": 0.5039370078740157,
          "duration": 0.1844133958333316
        },
        {
          "name": "G2",
          "midi": 43,
          "time": 82.77769500000024,
          "velocity": 0.5039370078740157,
          "duration": 0.1844133958333316
        },
        {
          "name": "C#3",
          "midi": 49,
          "time": 82.96288000000024,
          "velocity": 0.3858267716535433,
          "duration": 0.7399683958333441
        },
        {
          "name": "C3",
          "midi": 48,
          "time": 83.70362000000026,
          "velocity": 0.5669291338582677,
          "duration": 0.36959839583333576
        },
        {
          "name": "C4",
          "midi": 60,
          "time": 84.07399000000026,
          "velocity": 0.6614173228346457,
          "duration": 0.23919729166667025
        },
        {
          "name": "B3",
          "midi": 59,
          "time": 84.31395889583361,
          "velocity": 0.7165354330708661,
          "duration": 0.002314812500003427
        },
        {
          "name": "A#3",
          "midi": 58,
          "time": 84.31781691666694,
          "velocity": 0.7165354330708661,
          "duration": 0.002314812500003427
        },
        {
          "name": "A3",
          "midi": 57,
          "time": 84.32167493750028,
          "velocity": 0.7244094488188977,
          "duration": 0.002314812500003427
        },
        {
          "name": "G#3",
          "midi": 56,
          "time": 84.32553295833361,
          "velocity": 0.7244094488188977,
          "duration": 0.002314812500003427
        },
        {
          "name": "G3",
          "midi": 55,
          "time": 84.32939097916694,
          "velocity": 0.7244094488188977,
          "duration": 0.002314812500003427
        },
        {
          "name": "F#3",
          "midi": 54,
          "time": 84.33324900000028,
          "velocity": 0.7244094488188977,
          "duration": 0.002314812500003427
        },
        {
          "name": "F3",
          "midi": 53,
          "time": 84.33787862500029,
          "velocity": 0.7244094488188977,
          "duration": 0.002314812500003427
        },
        {
          "name": "E3",
          "midi": 52,
          "time": 84.34173664583362,
          "velocity": 0.7244094488188977,
          "duration": 0.002314812500003427
        },
        {
          "name": "D#3",
          "midi": 51,
          "time": 84.34559466666695,
          "velocity": 0.7244094488188977,
          "duration": 0.002314812500003427
        },
        {
          "name": "D3",
          "midi": 50,
          "time": 84.34945268750029,
          "velocity": 0.7244094488188977,
          "duration": 0.002314812500003427
        },
        {
          "name": "C#3",
          "midi": 49,
          "time": 84.35331070833362,
          "velocity": 0.7322834645669292,
          "duration": 0.002314812500003427
        },
        {
          "name": "C3",
          "midi": 48,
          "time": 84.35716872916696,
          "velocity": 0.7322834645669292,
          "duration": 0.002314812500003427
        },
        {
          "name": "B2",
          "midi": 47,
          "time": 84.36102675000029,
          "velocity": 0.7322834645669292,
          "duration": 0.002314812500003427
        },
        {
          "name": "A#2",
          "midi": 46,
          "time": 84.36488477083363,
          "velocity": 0.7322834645669292,
          "duration": 0.002314812500003427
        },
        {
          "name": "A2",
          "midi": 45,
          "time": 84.36951439583363,
          "velocity": 0.7322834645669292,
          "duration": 0.002314812500003427
        },
        {
          "name": "G#2",
          "midi": 44,
          "time": 84.37260081250031,
          "velocity": 0.7322834645669292,
          "duration": 0.002314812500003427
        },
        {
          "name": "G2",
          "midi": 43,
          "time": 84.37723043750032,
          "velocity": 0.7322834645669292,
          "duration": 0.002314812500003427
        },
        {
          "name": "F#2",
          "midi": 42,
          "time": 84.38108845833365,
          "velocity": 0.7322834645669292,
          "duration": 0.002314812500003427
        },
        {
          "name": "F2",
          "midi": 41,
          "time": 84.38494647916698,
          "velocity": 0.7401574803149606,
          "duration": 0.002314812500003427
        },
        {
          "name": "E2",
          "midi": 40,
          "time": 84.38880450000032,
          "velocity": 0.7401574803149606,
          "duration": 0.002314812500003427
        },
        {
          "name": "D#2",
          "midi": 39,
          "time": 84.39266252083365,
          "velocity": 0.7401574803149606,
          "duration": 0.002314812500003427
        },
        {
          "name": "D2",
          "midi": 38,
          "time": 84.39652054166699,
          "velocity": 0.7401574803149606,
          "duration": 0.002314812500003427
        },
        {
          "name": "C#2",
          "midi": 37,
          "time": 84.40037856250032,
          "velocity": 0.7401574803149606,
          "duration": 0.002314812500003427
        },
        {
          "name": "C2",
          "midi": 36,
          "time": 84.40500818750033,
          "velocity": 0.7401574803149606,
          "duration": 0.002314812500003427
        },
        {
          "name": "B1",
          "midi": 35,
          "time": 84.408094604167,
          "velocity": 0.7401574803149606,
          "duration": 0.002314812500003427
        },
        {
          "name": "A#1",
          "midi": 34,
          "time": 84.41272422916701,
          "velocity": 0.7401574803149606,
          "duration": 0.002314812500003427
        },
        {
          "name": "A1",
          "midi": 33,
          "time": 84.41658225000035,
          "velocity": 0.7480314960629921,
          "duration": 0.002314812500003427
        },
        {
          "name": "G#1",
          "midi": 32,
          "time": 84.42044027083368,
          "velocity": 0.7480314960629921,
          "duration": 0.002314812500003427
        },
        {
          "name": "G1",
          "midi": 31,
          "time": 84.42429829166701,
          "velocity": 0.7480314960629921,
          "duration": 0.002314812500003427
        },
        {
          "name": "F#1",
          "midi": 30,
          "time": 84.42815631250035,
          "velocity": 0.7480314960629921,
          "duration": 0.013888875000006351
        },
        {
          "name": "F1",
          "midi": 29,
          "time": 84.44436000000036,
          "velocity": 0.7559055118110236,
          "duration": 0.18441339583334582
        },
        {
          "name": "F2",
          "midi": 41,
          "time": 84.62954500000038,
          "velocity": 0.7559055118110236,
          "duration": 0.1844133958333316
        },
        {
          "name": "G#2",
          "midi": 44,
          "time": 84.62954500000038,
          "velocity": 0.7559055118110236,
          "duration": 0.1844133958333316
        },
        {
          "name": "F1",
          "midi": 29,
          "time": 84.81473000000038,
          "velocity": 0.7559055118110236,
          "duration": 0.1844133958333316
        },
        {
          "name": "F2",
          "midi": 41,
          "time": 84.99991500000039,
          "velocity": 0.7559055118110236,
          "duration": 0.1844133958333316
        },
        {
          "name": "G#2",
          "midi": 44,
          "time": 84.99991500000039,
          "velocity": 0.7559055118110236,
          "duration": 0.1844133958333316
        },
        {
          "name": "A#1",
          "midi": 34,
          "time": 85.18510000000039,
          "velocity": 0.7559055118110236,
          "duration": 0.18441339583334582
        },
        {
          "name": "A#2",
          "midi": 46,
          "time": 85.37028500000041,
          "velocity": 0.7559055118110236,
          "duration": 0.1844133958333316
        },
        {
          "name": "D3",
          "midi": 50,
          "time": 85.37028500000041,
          "velocity": 0.7559055118110236,
          "duration": 0.1844133958333316
        },
        {
          "name": "A#1",
          "midi": 34,
          "time": 85.55547000000041,
          "velocity": 0.7559055118110236,
          "duration": 0.1844133958333316
        },
        {
          "name": "A#2",
          "midi": 46,
          "time": 85.74065500000042,
          "velocity": 0.7559055118110236,
          "duration": 0.1844133958333316
        },
        {
          "name": "D3",
          "midi": 50,
          "time": 85.74065500000042,
          "velocity": 0.7559055118110236,
          "duration": 0.1844133958333316
        },
        {
          "name": "D#2",
          "midi": 39,
          "time": 85.92584000000042,
          "velocity": 0.7559055118110236,
          "duration": 0.18441339583334582
        },
        {
          "name": "D#3",
          "midi": 51,
          "time": 86.11102500000044,
          "velocity": 0.7559055118110236,
          "duration": 0.1844133958333316
        },
        {
          "name": "G3",
          "midi": 55,
          "time": 86.11102500000044,
          "velocity": 0.7559055118110236,
          "duration": 0.1844133958333316
        },
        {
          "name": "D#2",
          "midi": 39,
          "time": 86.29621000000044,
          "velocity": 0.7559055118110236,
          "duration": 0.1844133958333316
        },
        {
          "name": "D#3",
          "midi": 51,
          "time": 86.48139500000045,
          "velocity": 0.7559055118110236,
          "duration": 0.1844133958333316
        },
        {
          "name": "G3",
          "midi": 55,
          "time": 86.48139500000045,
          "velocity": 0.7559055118110236,
          "duration": 0.1844133958333316
        },
        {
          "name": "G#2",
          "midi": 44,
          "time": 86.66658000000045,
          "velocity": 0.7559055118110236,
          "duration": 0.18441339583334582
        },
        {
          "name": "G#3",
          "midi": 56,
          "time": 86.85176500000047,
          "velocity": 0.7559055118110236,
          "duration": 0.1844133958333316
        },
        {
          "name": "C4",
          "midi": 60,
          "time": 86.85176500000047,
          "velocity": 0.7559055118110236,
          "duration": 0.1844133958333316
        },
        {
          "name": "G#2",
          "midi": 44,
          "time": 87.03695000000047,
          "velocity": 0.7559055118110236,
          "duration": 0.1844133958333316
        },
        {
          "name": "G#3",
          "midi": 56,
          "time": 87.22213500000048,
          "velocity": 0.7559055118110236,
          "duration": 0.1844133958333316
        },
        {
          "name": "C4",
          "midi": 60,
          "time": 87.22213500000048,
          "velocity": 0.7559055118110236,
          "duration": 0.1844133958333316
        },
        {
          "name": "D2",
          "midi": 38,
          "time": 87.40732000000048,
          "velocity": 0.7559055118110236,
          "duration": 0.18441339583334582
        },
        {
          "name": "D3",
          "midi": 50,
          "time": 87.5925050000005,
          "velocity": 0.7559055118110236,
          "duration": 0.1844133958333316
        },
        {
          "name": "F3",
          "midi": 53,
          "time": 87.5925050000005,
          "velocity": 0.7559055118110236,
          "duration": 0.1844133958333316
        },
        {
          "name": "D2",
          "midi": 38,
          "time": 87.7776900000005,
          "velocity": 0.7559055118110236,
          "duration": 0.1844133958333316
        },
        {
          "name": "D3",
          "midi": 50,
          "time": 87.96287500000051,
          "velocity": 0.7559055118110236,
          "duration": 0.1844133958333316
        },
        {
          "name": "F3",
          "midi": 53,
          "time": 87.96287500000051,
          "velocity": 0.7559055118110236,
          "duration": 0.1844133958333316
        },
        {
          "name": "G2",
          "midi": 43,
          "time": 88.14806000000051,
          "velocity": 0.7559055118110236,
          "duration": 0.18441339583334582
        },
        {
          "name": "G3",
          "midi": 55,
          "time": 88.33324500000053,
          "velocity": 0.7559055118110236,
          "duration": 0.1844133958333316
        },
        {
          "name": "B3",
          "midi": 59,
          "time": 88.33324500000053,
          "velocity": 0.7559055118110236,
          "duration": 0.1844133958333316
        },
        {
          "name": "G2",
          "midi": 43,
          "time": 88.51843000000054,
          "velocity": 0.7559055118110236,
          "duration": 0.1844133958333316
        },
        {
          "name": "G3",
          "midi": 55,
          "time": 88.70361500000054,
          "velocity": 0.7559055118110236,
          "duration": 0.1844133958333316
        },
        {
          "name": "B3",
          "midi": 59,
          "time": 88.70361500000054,
          "velocity": 0.7559055118110236,
          "duration": 0.1844133958333316
        },
        {
          "name": "C2",
          "midi": 36,
          "time": 88.88880000000054,
          "velocity": 0.7559055118110236,
          "duration": 0.18441339583334582
        },
        {
          "name": "C3",
          "midi": 48,
          "time": 89.07398500000056,
          "velocity": 0.7559055118110236,
          "duration": 0.1844133958333316
        },
        {
          "name": "D#3",
          "midi": 51,
          "time": 89.07398500000056,
          "velocity": 0.7559055118110236,
          "duration": 0.1844133958333316
        },
        {
          "name": "C2",
          "midi": 36,
          "time": 89.25917000000057,
          "velocity": 0.7559055118110236,
          "duration": 0.1844133958333316
        },
        {
          "name": "C3",
          "midi": 48,
          "time": 89.44435500000057,
          "velocity": 0.7559055118110236,
          "duration": 0.1844133958333316
        },
        {
          "name": "D#3",
          "midi": 51,
          "time": 89.44435500000057,
          "velocity": 0.7559055118110236,
          "duration": 0.1844133958333316
        },
        {
          "name": "C2",
          "midi": 36,
          "time": 89.62954000000057,
          "velocity": 0.7559055118110236,
          "duration": 0.18441339583334582
        },
        {
          "name": "C3",
          "midi": 48,
          "time": 89.81472500000059,
          "velocity": 0.7559055118110236,
          "duration": 0.1844133958333316
        },
        {
          "name": "E3",
          "midi": 52,
          "time": 89.81472500000059,
          "velocity": 0.7559055118110236,
          "duration": 0.1844133958333316
        },
        {
          "name": "C2",
          "midi": 36,
          "time": 89.9999100000006,
          "velocity": 0.7559055118110236,
          "duration": 0.1844133958333316
        },
        {
          "name": "C3",
          "midi": 48,
          "time": 90.1850950000006,
          "velocity": 0.7559055118110236,
          "duration": 0.1844133958333316
        },
        {
          "name": "E3",
          "midi": 52,
          "time": 90.1850950000006,
          "velocity": 0.7559055118110236,
          "duration": 0.1844133958333316
        },
        {
          "name": "F2",
          "midi": 41,
          "time": 90.3702800000006,
          "velocity": 0.7559055118110236,
          "duration": 0.18441339583334582
        },
        {
          "name": "F3",
          "midi": 53,
          "time": 90.55546500000062,
          "velocity": 0.7559055118110236,
          "duration": 0.1844133958333316
        },
        {
          "name": "G#3",
          "midi": 56,
          "time": 90.55546500000062,
          "velocity": 0.7559055118110236,
          "duration": 0.1844133958333316
        },
        {
          "name": "F2",
          "midi": 41,
          "time": 90.74065000000063,
          "velocity": 0.7559055118110236,
          "duration": 0.1844133958333316
        },
        {
          "name": "F3",
          "midi": 53,
          "time": 90.92583500000063,
          "velocity": 0.7559055118110236,
          "duration": 0.1844133958333316
        },
        {
          "name": "G#3",
          "midi": 56,
          "time": 90.92583500000063,
          "velocity": 0.7559055118110236,
          "duration": 0.1844133958333316
        },
        {
          "name": "A#2",
          "midi": 46,
          "time": 91.11102000000064,
          "velocity": 0.7559055118110236,
          "duration": 0.18441339583334582
        },
        {
          "name": "A#3",
          "midi": 58,
          "time": 91.29620500000065,
          "velocity": 0.7559055118110236,
          "duration": 0.1844133958333316
        },
        {
          "name": "D4",
          "midi": 62,
          "time": 91.29620500000065,
          "velocity": 0.7559055118110236,
          "duration": 0.1844133958333316
        },
        {
          "name": "A#2",
          "midi": 46,
          "time": 91.48139000000066,
          "velocity": 0.7559055118110236,
          "duration": 0.1844133958333316
        },
        {
          "name": "A#3",
          "midi": 58,
          "time": 91.66657500000066,
          "velocity": 0.7559055118110236,
          "duration": 0.1844133958333316
        },
        {
          "name": "D4",
          "midi": 62,
          "time": 91.66657500000066,
          "velocity": 0.7559055118110236,
          "duration": 0.1844133958333316
        },
        {
          "name": "D#2",
          "midi": 39,
          "time": 91.85176000000067,
          "velocity": 0.7559055118110236,
          "duration": 0.18441339583334582
        },
        {
          "name": "D#3",
          "midi": 51,
          "time": 92.03694500000069,
          "velocity": 0.7559055118110236,
          "duration": 0.1844133958333316
        },
        {
          "name": "G3",
          "midi": 55,
          "time": 92.03694500000069,
          "velocity": 0.7559055118110236,
          "duration": 0.1844133958333316
        },
        {
          "name": "D#2",
          "midi": 39,
          "time": 92.22213000000069,
          "velocity": 0.7559055118110236,
          "duration": 0.1844133958333316
        },
        {
          "name": "D#3",
          "midi": 51,
          "time": 92.4073150000007,
          "velocity": 0.7559055118110236,
          "duration": 0.1844133958333316
        },
        {
          "name": "G3",
          "midi": 55,
          "time": 92.4073150000007,
          "velocity": 0.7559055118110236,
          "duration": 0.1844133958333316
        },
        {
          "name": "G#2",
          "midi": 44,
          "time": 92.5925000000007,
          "velocity": 0.7559055118110236,
          "duration": 0.18441339583334582
        },
        {
          "name": "G#3",
          "midi": 56,
          "time": 92.77768500000072,
          "velocity": 0.7559055118110236,
          "duration": 0.1844133958333316
        },
        {
          "name": "C4",
          "midi": 60,
          "time": 92.77768500000072,
          "velocity": 0.7559055118110236,
          "duration": 0.1844133958333316
        },
        {
          "name": "G#2",
          "midi": 44,
          "time": 92.96287000000072,
          "velocity": 0.7559055118110236,
          "duration": 0.1844133958333316
        },
        {
          "name": "G#3",
          "midi": 56,
          "time": 93.14805500000072,
          "velocity": 0.7559055118110236,
          "duration": 0.1844133958333316
        },
        {
          "name": "C4",
          "midi": 60,
          "time": 93.14805500000072,
          "velocity": 0.7559055118110236,
          "duration": 0.1844133958333316
        },
        {
          "name": "D2",
          "midi": 38,
          "time": 93.33324000000073,
          "velocity": 0.7559055118110236,
          "duration": 0.18441339583334582
        },
        {
          "name": "D3",
          "midi": 50,
          "time": 93.51842500000075,
          "velocity": 0.7559055118110236,
          "duration": 0.1844133958333316
        },
        {
          "name": "F3",
          "midi": 53,
          "time": 93.51842500000075,
          "velocity": 0.7559055118110236,
          "duration": 0.1844133958333316
        },
        {
          "name": "D2",
          "midi": 38,
          "time": 93.70361000000075,
          "velocity": 0.7559055118110236,
          "duration": 0.1844133958333316
        },
        {
          "name": "D3",
          "midi": 50,
          "time": 93.88879500000075,
          "velocity": 0.7559055118110236,
          "duration": 0.1844133958333316
        },
        {
          "name": "F3",
          "midi": 53,
          "time": 93.88879500000075,
          "velocity": 0.7559055118110236,
          "duration": 0.1844133958333316
        },
        {
          "name": "G2",
          "midi": 43,
          "time": 94.07398000000076,
          "velocity": 0.7559055118110236,
          "duration": 0.18441339583334582
        },
        {
          "name": "G3",
          "midi": 55,
          "time": 94.25916500000078,
          "velocity": 0.7559055118110236,
          "duration": 0.1844133958333316
        },
        {
          "name": "B3",
          "midi": 59,
          "time": 94.25916500000078,
          "velocity": 0.7559055118110236,
          "duration": 0.1844133958333316
        },
        {
          "name": "G2",
          "midi": 43,
          "time": 94.44435000000078,
          "velocity": 0.7559055118110236,
          "duration": 0.1844133958333316
        },
        {
          "name": "G3",
          "midi": 55,
          "time": 94.62953500000079,
          "velocity": 0.7559055118110236,
          "duration": 0.1844133958333316
        },
        {
          "name": "B3",
          "midi": 59,
          "time": 94.62953500000079,
          "velocity": 0.7559055118110236,
          "duration": 0.1844133958333316
        },
        {
          "name": "C2",
          "midi": 36,
          "time": 94.81472000000079,
          "velocity": 0.7559055118110236,
          "duration": 0.18441339583334582
        },
        {
          "name": "C3",
          "midi": 48,
          "time": 94.99990500000081,
          "velocity": 0.7559055118110236,
          "duration": 0.1844133958333316
        },
        {
          "name": "D#3",
          "midi": 51,
          "time": 94.99990500000081,
          "velocity": 0.7559055118110236,
          "duration": 0.1844133958333316
        },
        {
          "name": "C2",
          "midi": 36,
          "time": 95.18509000000081,
          "velocity": 0.7559055118110236,
          "duration": 0.1844133958333316
        },
        {
          "name": "C3",
          "midi": 48,
          "time": 95.37027500000082,
          "velocity": 0.7559055118110236,
          "duration": 0.1844133958333316
        },
        {
          "name": "D#3",
          "midi": 51,
          "time": 95.37027500000082,
          "velocity": 0.7559055118110236,
          "duration": 0.1844133958333316
        },
        {
          "name": "F2",
          "midi": 41,
          "time": 96.29620000000081,
          "velocity": 0.7559055118110236,
          "duration": 0.1844133958333316
        },
        {
          "name": "F3",
          "midi": 53,
          "time": 96.48138500000081,
          "velocity": 0.7559055118110236,
          "duration": 0.1844133958333316
        },
        {
          "name": "G#3",
          "midi": 56,
          "time": 96.48138500000081,
          "velocity": 0.7559055118110236,
          "duration": 0.1844133958333316
        },
        {
          "name": "F2",
          "midi": 41,
          "time": 96.66657000000082,
          "velocity": 0.7559055118110236,
          "duration": 0.1844133958333316
        },
        {
          "name": "F3",
          "midi": 53,
          "time": 96.85175500000082,
          "velocity": 0.7559055118110236,
          "duration": 0.1844133958333316
        },
        {
          "name": "G#3",
          "midi": 56,
          "time": 96.85175500000082,
          "velocity": 0.7559055118110236,
          "duration": 0.1844133958333316
        },
        {
          "name": "A#2",
          "midi": 46,
          "time": 97.03694000000083,
          "velocity": 0.7559055118110236,
          "duration": 0.18441339583334582
        },
        {
          "name": "A#3",
          "midi": 58,
          "time": 97.22212500000084,
          "velocity": 0.7559055118110236,
          "duration": 0.1844133958333316
        },
        {
          "name": "D4",
          "midi": 62,
          "time": 97.22212500000084,
          "velocity": 0.7559055118110236,
          "duration": 0.1844133958333316
        },
        {
          "name": "A#2",
          "midi": 46,
          "time": 97.40731000000085,
          "velocity": 0.7559055118110236,
          "duration": 0.1844133958333316
        },
        {
          "name": "A#3",
          "midi": 58,
          "time": 97.59249500000085,
          "velocity": 0.7559055118110236,
          "duration": 0.1844133958333316
        },
        {
          "name": "D4",
          "midi": 62,
          "time": 97.59249500000085,
          "velocity": 0.7559055118110236,
          "duration": 0.1844133958333316
        },
        {
          "name": "D#2",
          "midi": 39,
          "time": 97.77768000000086,
          "velocity": 0.7559055118110236,
          "duration": 0.18441339583334582
        },
        {
          "name": "D#3",
          "midi": 51,
          "time": 97.96286500000087,
          "velocity": 0.7559055118110236,
          "duration": 0.1844133958333316
        },
        {
          "name": "G3",
          "midi": 55,
          "time": 97.96286500000087,
          "velocity": 0.7559055118110236,
          "duration": 0.1844133958333316
        },
        {
          "name": "D#2",
          "midi": 39,
          "time": 98.14805000000088,
          "velocity": 0.7559055118110236,
          "duration": 0.1844133958333316
        },
        {
          "name": "D#3",
          "midi": 51,
          "time": 98.33323500000088,
          "velocity": 0.7559055118110236,
          "duration": 0.1844133958333316
        },
        {
          "name": "G3",
          "midi": 55,
          "time": 98.33323500000088,
          "velocity": 0.7559055118110236,
          "duration": 0.1844133958333316
        },
        {
          "name": "G#2",
          "midi": 44,
          "time": 98.51842000000089,
          "velocity": 0.7559055118110236,
          "duration": 0.18441339583334582
        },
        {
          "name": "G#3",
          "midi": 56,
          "time": 98.7036050000009,
          "velocity": 0.7559055118110236,
          "duration": 0.1844133958333316
        },
        {
          "name": "C4",
          "midi": 60,
          "time": 98.7036050000009,
          "velocity": 0.7559055118110236,
          "duration": 0.1844133958333316
        },
        {
          "name": "G#2",
          "midi": 44,
          "time": 98.88879000000091,
          "velocity": 0.7559055118110236,
          "duration": 0.1844133958333316
        },
        {
          "name": "G#3",
          "midi": 56,
          "time": 99.07397500000091,
          "velocity": 0.7559055118110236,
          "duration": 0.1844133958333316
        },
        {
          "name": "C4",
          "midi": 60,
          "time": 99.07397500000091,
          "velocity": 0.7559055118110236,
          "duration": 0.1844133958333316
        },
        {
          "name": "D2",
          "midi": 38,
          "time": 99.25916000000092,
          "velocity": 0.7559055118110236,
          "duration": 0.18441339583334582
        },
        {
          "name": "D3",
          "midi": 50,
          "time": 99.44434500000094,
          "velocity": 0.7559055118110236,
          "duration": 0.1844133958333316
        },
        {
          "name": "F3",
          "midi": 53,
          "time": 99.44434500000094,
          "velocity": 0.7559055118110236,
          "duration": 0.1844133958333316
        },
        {
          "name": "D2",
          "midi": 38,
          "time": 99.62953000000094,
          "velocity": 0.7559055118110236,
          "duration": 0.1844133958333316
        },
        {
          "name": "D3",
          "midi": 50,
          "time": 99.81471500000094,
          "velocity": 0.7559055118110236,
          "duration": 0.1844133958333316
        },
        {
          "name": "F3",
          "midi": 53,
          "time": 99.81471500000094,
          "velocity": 0.7559055118110236,
          "duration": 0.1844133958333316
        },
        {
          "name": "G2",
          "midi": 43,
          "time": 99.99990000000095,
          "velocity": 0.7559055118110236,
          "duration": 0.18441339583334582
        },
        {
          "name": "G3",
          "midi": 55,
          "time": 100.18508500000097,
          "velocity": 0.7559055118110236,
          "duration": 0.1844133958333316
        },
        {
          "name": "B3",
          "midi": 59,
          "time": 100.18508500000097,
          "velocity": 0.7559055118110236,
          "duration": 0.1844133958333316
        },
        {
          "name": "G2",
          "midi": 43,
          "time": 100.37027000000097,
          "velocity": 0.7559055118110236,
          "duration": 0.1844133958333316
        },
        {
          "name": "G3",
          "midi": 55,
          "time": 100.55545500000098,
          "velocity": 0.7559055118110236,
          "duration": 0.1844133958333316
        },
        {
          "name": "B3",
          "midi": 59,
          "time": 100.55545500000098,
          "velocity": 0.7559055118110236,
          "duration": 0.1844133958333316
        },
        {
          "name": "C2",
          "midi": 36,
          "time": 100.74064000000098,
          "velocity": 0.7559055118110236,
          "duration": 0.18441339583334582
        },
        {
          "name": "C3",
          "midi": 48,
          "time": 100.925825000001,
          "velocity": 0.7559055118110236,
          "duration": 0.1844133958333316
        },
        {
          "name": "D#3",
          "midi": 51,
          "time": 100.925825000001,
          "velocity": 0.7559055118110236,
          "duration": 0.1844133958333316
        },
        {
          "name": "C2",
          "midi": 36,
          "time": 101.111010000001,
          "velocity": 0.7559055118110236,
          "duration": 0.1844133958333316
        },
        {
          "name": "C3",
          "midi": 48,
          "time": 101.296195000001,
          "velocity": 0.7559055118110236,
          "duration": 0.1844133958333316
        },
        {
          "name": "D#3",
          "midi": 51,
          "time": 101.296195000001,
          "velocity": 0.7559055118110236,
          "duration": 0.1844133958333316
        },
        {
          "name": "C2",
          "midi": 36,
          "time": 101.48138000000101,
          "velocity": 0.7559055118110236,
          "duration": 0.18441339583334582
        },
        {
          "name": "C3",
          "midi": 48,
          "time": 101.66656500000103,
          "velocity": 0.7559055118110236,
          "duration": 0.1844133958333316
        },
        {
          "name": "E3",
          "midi": 52,
          "time": 101.66656500000103,
          "velocity": 0.7559055118110236,
          "duration": 0.1844133958333316
        },
        {
          "name": "C2",
          "midi": 36,
          "time": 101.85175000000103,
          "velocity": 0.7559055118110236,
          "duration": 0.1844133958333316
        },
        {
          "name": "C3",
          "midi": 48,
          "time": 102.03693500000104,
          "velocity": 0.7559055118110236,
          "duration": 0.1844133958333316
        },
        {
          "name": "E3",
          "midi": 52,
          "time": 102.03693500000104,
          "velocity": 0.7559055118110236,
          "duration": 0.1844133958333316
        },
        {
          "name": "F2",
          "midi": 41,
          "time": 102.22212000000104,
          "velocity": 0.7559055118110236,
          "duration": 0.18441339583334582
        },
        {
          "name": "F3",
          "midi": 53,
          "time": 102.40730500000106,
          "velocity": 0.7559055118110236,
          "duration": 0.1844133958333316
        },
        {
          "name": "G#3",
          "midi": 56,
          "time": 102.40730500000106,
          "velocity": 0.7559055118110236,
          "duration": 0.1844133958333316
        },
        {
          "name": "F2",
          "midi": 41,
          "time": 102.59249000000106,
          "velocity": 0.7559055118110236,
          "duration": 0.1844133958333316
        },
        {
          "name": "F3",
          "midi": 53,
          "time": 102.77767500000107,
          "velocity": 0.7559055118110236,
          "duration": 0.1844133958333316
        },
        {
          "name": "G#3",
          "midi": 56,
          "time": 102.77767500000107,
          "velocity": 0.7559055118110236,
          "duration": 0.1844133958333316
        },
        {
          "name": "A#2",
          "midi": 46,
          "time": 102.96286000000107,
          "velocity": 0.7559055118110236,
          "duration": 0.18441339583334582
        },
        {
          "name": "A#3",
          "midi": 58,
          "time": 103.14804500000109,
          "velocity": 0.7559055118110236,
          "duration": 0.1844133958333316
        },
        {
          "name": "D4",
          "midi": 62,
          "time": 103.14804500000109,
          "velocity": 0.7559055118110236,
          "duration": 0.1844133958333316
        },
        {
          "name": "A#2",
          "midi": 46,
          "time": 103.3332300000011,
          "velocity": 0.7559055118110236,
          "duration": 0.1844133958333316
        },
        {
          "name": "A#3",
          "midi": 58,
          "time": 103.5184150000011,
          "velocity": 0.7559055118110236,
          "duration": 0.1844133958333316
        },
        {
          "name": "D4",
          "midi": 62,
          "time": 103.5184150000011,
          "velocity": 0.7559055118110236,
          "duration": 0.1844133958333316
        },
        {
          "name": "D#2",
          "midi": 39,
          "time": 103.7036000000011,
          "velocity": 0.7559055118110236,
          "duration": 0.18441339583334582
        },
        {
          "name": "D#3",
          "midi": 51,
          "time": 103.88878500000112,
          "velocity": 0.7559055118110236,
          "duration": 0.1844133958333316
        },
        {
          "name": "G3",
          "midi": 55,
          "time": 103.88878500000112,
          "velocity": 0.7559055118110236,
          "duration": 0.1844133958333316
        },
        {
          "name": "D#2",
          "midi": 39,
          "time": 104.07397000000113,
          "velocity": 0.7559055118110236,
          "duration": 0.1844133958333316
        },
        {
          "name": "D#3",
          "midi": 51,
          "time": 104.25915500000113,
          "velocity": 0.7559055118110236,
          "duration": 0.1844133958333316
        },
        {
          "name": "G3",
          "midi": 55,
          "time": 104.25915500000113,
          "velocity": 0.7559055118110236,
          "duration": 0.1844133958333316
        },
        {
          "name": "G#2",
          "midi": 44,
          "time": 104.44434000000113,
          "velocity": 0.7559055118110236,
          "duration": 0.18441339583334582
        },
        {
          "name": "G#3",
          "midi": 56,
          "time": 104.62952500000115,
          "velocity": 0.7559055118110236,
          "duration": 0.1844133958333316
        },
        {
          "name": "C4",
          "midi": 60,
          "time": 104.62952500000115,
          "velocity": 0.7559055118110236,
          "duration": 0.1844133958333316
        },
        {
          "name": "G#2",
          "midi": 44,
          "time": 104.81471000000116,
          "velocity": 0.7559055118110236,
          "duration": 0.1844133958333316
        },
        {
          "name": "G#3",
          "midi": 56,
          "time": 104.99989500000116,
          "velocity": 0.7559055118110236,
          "duration": 0.1844133958333316
        },
        {
          "name": "C4",
          "midi": 60,
          "time": 104.99989500000116,
          "velocity": 0.7559055118110236,
          "duration": 0.1844133958333316
        },
        {
          "name": "D2",
          "midi": 38,
          "time": 105.18508000000116,
          "velocity": 0.7559055118110236,
          "duration": 0.18441339583334582
        },
        {
          "name": "D3",
          "midi": 50,
          "time": 105.37026500000118,
          "velocity": 0.7559055118110236,
          "duration": 0.1844133958333316
        },
        {
          "name": "F#3",
          "midi": 54,
          "time": 105.37026500000118,
          "velocity": 0.7559055118110236,
          "duration": 0.1844133958333316
        },
        {
          "name": "D2",
          "midi": 38,
          "time": 105.55545000000119,
          "velocity": 0.7559055118110236,
          "duration": 0.1844133958333316
        },
        {
          "name": "D3",
          "midi": 50,
          "time": 105.74063500000119,
          "velocity": 0.7559055118110236,
          "duration": 0.1844133958333316
        },
        {
          "name": "F#3",
          "midi": 54,
          "time": 105.74063500000119,
          "velocity": 0.7559055118110236,
          "duration": 0.1844133958333316
        },
        {
          "name": "D2",
          "midi": 38,
          "time": 105.9258200000012,
          "velocity": 0.7559055118110236,
          "duration": 0.1844133958333316
        },
        {
          "name": "D3",
          "midi": 50,
          "time": 106.1110050000012,
          "velocity": 0.7559055118110236,
          "duration": 0.1844133958333316
        },
        {
          "name": "F#3",
          "midi": 54,
          "time": 106.1110050000012,
          "velocity": 0.7559055118110236,
          "duration": 0.1844133958333316
        },
        {
          "name": "D2",
          "midi": 38,
          "time": 106.2961900000012,
          "velocity": 0.7559055118110236,
          "duration": 0.1844133958333316
        },
        {
          "name": "D3",
          "midi": 50,
          "time": 106.48137500000121,
          "velocity": 0.7559055118110236,
          "duration": 0.1844133958333316
        },
        {
          "name": "F#3",
          "midi": 54,
          "time": 106.48137500000121,
          "velocity": 0.7559055118110236,
          "duration": 0.1844133958333316
        },
        {
          "name": "G2",
          "midi": 43,
          "time": 106.66656000000121,
          "velocity": 0.7559055118110236,
          "duration": 0.18441339583334582
        },
        {
          "name": "G3",
          "midi": 55,
          "time": 106.66656000000121,
          "velocity": 0.7559055118110236,
          "duration": 0.18441339583334582
        },
        {
          "name": "G2",
          "midi": 43,
          "time": 107.59248500000122,
          "velocity": 0.7559055118110236,
          "duration": 0.09182089583333664
        },
        {
          "name": "D3",
          "midi": 50,
          "time": 107.68507750000123,
          "velocity": 0.7559055118110236,
          "duration": 0.09182089583333664
        },
        {
          "name": "G2",
          "midi": 43,
          "time": 107.77767000000124,
          "velocity": 0.7559055118110236,
          "duration": 0.36959839583333576
        },
        {
          "name": "G3",
          "midi": 55,
          "time": 107.77767000000124,
          "velocity": 0.7559055118110236,
          "duration": 0.36959839583333576
        },
        {
          "name": "F2",
          "midi": 41,
          "time": 108.14804000000125,
          "velocity": 0.7559055118110236,
          "duration": 0.1844133958333316
        },
        {
          "name": "F3",
          "midi": 53,
          "time": 108.33322500000125,
          "velocity": 0.7559055118110236,
          "duration": 0.1844133958333316
        },
        {
          "name": "G#3",
          "midi": 56,
          "time": 108.33322500000125,
          "velocity": 0.7559055118110236,
          "duration": 0.1844133958333316
        },
        {
          "name": "F2",
          "midi": 41,
          "time": 108.51841000000125,
          "velocity": 0.7559055118110236,
          "duration": 0.1844133958333316
        },
        {
          "name": "F3",
          "midi": 53,
          "time": 108.70359500000126,
          "velocity": 0.7559055118110236,
          "duration": 0.1844133958333316
        },
        {
          "name": "G#3",
          "midi": 56,
          "time": 108.70359500000126,
          "velocity": 0.7559055118110236,
          "duration": 0.1844133958333316
        },
        {
          "name": "A#2",
          "midi": 46,
          "time": 108.88878000000126,
          "velocity": 0.7559055118110236,
          "duration": 0.18441339583334582
        },
        {
          "name": "A#3",
          "midi": 58,
          "time": 109.07396500000128,
          "velocity": 0.7559055118110236,
          "duration": 0.1844133958333316
        },
        {
          "name": "D4",
          "midi": 62,
          "time": 109.07396500000128,
          "velocity": 0.7559055118110236,
          "duration": 0.1844133958333316
        },
        {
          "name": "A#2",
          "midi": 46,
          "time": 109.25915000000128,
          "velocity": 0.7559055118110236,
          "duration": 0.1844133958333316
        },
        {
          "name": "A#3",
          "midi": 58,
          "time": 109.44433500000129,
          "velocity": 0.7559055118110236,
          "duration": 0.1844133958333316
        },
        {
          "name": "D4",
          "midi": 62,
          "time": 109.44433500000129,
          "velocity": 0.7559055118110236,
          "duration": 0.1844133958333316
        },
        {
          "name": "D#2",
          "midi": 39,
          "time": 109.62952000000129,
          "velocity": 0.7559055118110236,
          "duration": 0.18441339583334582
        },
        {
          "name": "D#3",
          "midi": 51,
          "time": 109.81470500000131,
          "velocity": 0.7559055118110236,
          "duration": 0.1844133958333316
        },
        {
          "name": "G3",
          "midi": 55,
          "time": 109.81470500000131,
          "velocity": 0.7559055118110236,
          "duration": 0.1844133958333316
        },
        {
          "name": "D#2",
          "midi": 39,
          "time": 109.99989000000132,
          "velocity": 0.7559055118110236,
          "duration": 0.1844133958333316
        },
        {
          "name": "D#3",
          "midi": 51,
          "time": 110.18507500000132,
          "velocity": 0.7559055118110236,
          "duration": 0.1844133958333316
        },
        {
          "name": "G3",
          "midi": 55,
          "time": 110.18507500000132,
          "velocity": 0.7559055118110236,
          "duration": 0.1844133958333316
        },
        {
          "name": "G#2",
          "midi": 44,
          "time": 110.37026000000132,
          "velocity": 0.7559055118110236,
          "duration": 0.18441339583334582
        },
        {
          "name": "G#3",
          "midi": 56,
          "time": 110.55544500000134,
          "velocity": 0.7559055118110236,
          "duration": 0.1844133958333316
        },
        {
          "name": "C4",
          "midi": 60,
          "time": 110.55544500000134,
          "velocity": 0.7559055118110236,
          "duration": 0.1844133958333316
        },
        {
          "name": "G#2",
          "midi": 44,
          "time": 110.74063000000135,
          "velocity": 0.7559055118110236,
          "duration": 0.1844133958333316
        },
        {
          "name": "G#3",
          "midi": 56,
          "time": 110.92581500000135,
          "velocity": 0.7559055118110236,
          "duration": 0.1844133958333316
        },
        {
          "name": "C4",
          "midi": 60,
          "time": 110.92581500000135,
          "velocity": 0.7559055118110236,
          "duration": 0.1844133958333316
        },
        {
          "name": "D2",
          "midi": 38,
          "time": 111.11100000000135,
          "velocity": 0.7559055118110236,
          "duration": 0.18441339583334582
        },
        {
          "name": "D3",
          "midi": 50,
          "time": 111.29618500000137,
          "velocity": 0.7559055118110236,
          "duration": 0.1844133958333316
        },
        {
          "name": "F3",
          "midi": 53,
          "time": 111.29618500000137,
          "velocity": 0.7559055118110236,
          "duration": 0.1844133958333316
        },
        {
          "name": "D2",
          "midi": 38,
          "time": 111.48137000000138,
          "velocity": 0.7559055118110236,
          "duration": 0.1844133958333316
        },
        {
          "name": "D3",
          "midi": 50,
          "time": 111.66655500000138,
          "velocity": 0.7559055118110236,
          "duration": 0.1844133958333316
        },
        {
          "name": "F3",
          "midi": 53,
          "time": 111.66655500000138,
          "velocity": 0.7559055118110236,
          "duration": 0.1844133958333316
        },
        {
          "name": "G2",
          "midi": 43,
          "time": 111.85174000000139,
          "velocity": 0.7559055118110236,
          "duration": 0.18441339583334582
        },
        {
          "name": "G3",
          "midi": 55,
          "time": 112.0369250000014,
          "velocity": 0.7559055118110236,
          "duration": 0.1844133958333316
        },
        {
          "name": "B3",
          "midi": 59,
          "time": 112.0369250000014,
          "velocity": 0.7559055118110236,
          "duration": 0.1844133958333316
        },
        {
          "name": "G2",
          "midi": 43,
          "time": 112.22211000000141,
          "velocity": 0.7559055118110236,
          "duration": 0.1844133958333316
        },
        {
          "name": "G3",
          "midi": 55,
          "time": 112.40729500000141,
          "velocity": 0.7559055118110236,
          "duration": 0.1844133958333316
        },
        {
          "name": "B3",
          "midi": 59,
          "time": 112.40729500000141,
          "velocity": 0.7559055118110236,
          "duration": 0.1844133958333316
        },
        {
          "name": "C2",
          "midi": 36,
          "time": 112.59248000000142,
          "velocity": 0.7559055118110236,
          "duration": 0.18441339583334582
        },
        {
          "name": "C3",
          "midi": 48,
          "time": 112.77766500000143,
          "velocity": 0.7559055118110236,
          "duration": 0.1844133958333316
        },
        {
          "name": "D#3",
          "midi": 51,
          "time": 112.77766500000143,
          "velocity": 0.7559055118110236,
          "duration": 0.1844133958333316
        },
        {
          "name": "C2",
          "midi": 36,
          "time": 112.96285000000144,
          "velocity": 0.7559055118110236,
          "duration": 0.1844133958333316
        },
        {
          "name": "C3",
          "midi": 48,
          "time": 113.14803500000144,
          "velocity": 0.7559055118110236,
          "duration": 0.1844133958333316
        },
        {
          "name": "D#3",
          "midi": 51,
          "time": 113.14803500000144,
          "velocity": 0.7559055118110236,
          "duration": 0.1844133958333316
        },
        {
          "name": "C2",
          "midi": 36,
          "time": 113.33322000000145,
          "velocity": 0.7559055118110236,
          "duration": 0.18441339583334582
        },
        {
          "name": "C3",
          "midi": 48,
          "time": 113.51840500000147,
          "velocity": 0.7559055118110236,
          "duration": 0.1844133958333316
        },
        {
          "name": "E3",
          "midi": 52,
          "time": 113.51840500000147,
          "velocity": 0.7559055118110236,
          "duration": 0.1844133958333316
        },
        {
          "name": "C2",
          "midi": 36,
          "time": 113.70359000000147,
          "velocity": 0.7559055118110236,
          "duration": 0.1844133958333316
        },
        {
          "name": "C3",
          "midi": 48,
          "time": 113.88877500000147,
          "velocity": 0.7559055118110236,
          "duration": 0.1844133958333316
        },
        {
          "name": "E3",
          "midi": 52,
          "time": 113.88877500000147,
          "velocity": 0.7559055118110236,
          "duration": 0.1844133958333316
        },
        {
          "name": "F2",
          "midi": 41,
          "time": 114.07396000000148,
          "velocity": 0.7559055118110236,
          "duration": 0.18441339583334582
        },
        {
          "name": "F3",
          "midi": 53,
          "time": 114.2591450000015,
          "velocity": 0.7559055118110236,
          "duration": 0.1844133958333316
        },
        {
          "name": "G#3",
          "midi": 56,
          "time": 114.2591450000015,
          "velocity": 0.7559055118110236,
          "duration": 0.1844133958333316
        },
        {
          "name": "F2",
          "midi": 41,
          "time": 114.4443300000015,
          "velocity": 0.7559055118110236,
          "duration": 0.1844133958333316
        },
        {
          "name": "F3",
          "midi": 53,
          "time": 114.6295150000015,
          "velocity": 0.7559055118110236,
          "duration": 0.1844133958333316
        },
        {
          "name": "G#3",
          "midi": 56,
          "time": 114.6295150000015,
          "velocity": 0.7559055118110236,
          "duration": 0.1844133958333316
        },
        {
          "name": "A#2",
          "midi": 46,
          "time": 114.81470000000151,
          "velocity": 0.7559055118110236,
          "duration": 0.18441339583334582
        },
        {
          "name": "A#3",
          "midi": 58,
          "time": 114.99988500000153,
          "velocity": 0.7559055118110236,
          "duration": 0.1844133958333316
        },
        {
          "name": "D4",
          "midi": 62,
          "time": 114.99988500000153,
          "velocity": 0.7559055118110236,
          "duration": 0.1844133958333316
        },
        {
          "name": "A#2",
          "midi": 46,
          "time": 115.18507000000153,
          "velocity": 0.7559055118110236,
          "duration": 0.1844133958333316
        },
        {
          "name": "A#3",
          "midi": 58,
          "time": 115.37025500000153,
          "velocity": 0.7559055118110236,
          "duration": 0.1844133958333316
        },
        {
          "name": "D4",
          "midi": 62,
          "time": 115.37025500000153,
          "velocity": 0.7559055118110236,
          "duration": 0.1844133958333316
        },
        {
          "name": "D#2",
          "midi": 39,
          "time": 115.55544000000154,
          "velocity": 0.7559055118110236,
          "duration": 0.18441339583334582
        },
        {
          "name": "D#3",
          "midi": 51,
          "time": 115.74062500000156,
          "velocity": 0.7559055118110236,
          "duration": 0.1844133958333316
        },
        {
          "name": "G3",
          "midi": 55,
          "time": 115.74062500000156,
          "velocity": 0.7559055118110236,
          "duration": 0.1844133958333316
        },
        {
          "name": "D#2",
          "midi": 39,
          "time": 115.92581000000156,
          "velocity": 0.7559055118110236,
          "duration": 0.1844133958333316
        },
        {
          "name": "D#3",
          "midi": 51,
          "time": 116.11099500000157,
          "velocity": 0.7559055118110236,
          "duration": 0.1844133958333316
        },
        {
          "name": "G3",
          "midi": 55,
          "time": 116.11099500000157,
          "velocity": 0.7559055118110236,
          "duration": 0.1844133958333316
        },
        {
          "name": "G#2",
          "midi": 44,
          "time": 116.29618000000157,
          "velocity": 0.7559055118110236,
          "duration": 0.18441339583334582
        },
        {
          "name": "G#3",
          "midi": 56,
          "time": 116.48136500000159,
          "velocity": 0.7559055118110236,
          "duration": 0.1844133958333316
        },
        {
          "name": "C4",
          "midi": 60,
          "time": 116.48136500000159,
          "velocity": 0.7559055118110236,
          "duration": 0.1844133958333316
        },
        {
          "name": "G#2",
          "midi": 44,
          "time": 116.66655000000159,
          "velocity": 0.7559055118110236,
          "duration": 0.1844133958333316
        },
        {
          "name": "G#3",
          "midi": 56,
          "time": 116.8517350000016,
          "velocity": 0.7559055118110236,
          "duration": 0.1844133958333316
        },
        {
          "name": "C4",
          "midi": 60,
          "time": 116.8517350000016,
          "velocity": 0.7559055118110236,
          "duration": 0.1844133958333316
        },
        {
          "name": "D2",
          "midi": 38,
          "time": 117.0369200000016,
          "velocity": 0.7559055118110236,
          "duration": 0.18441339583334582
        },
        {
          "name": "D3",
          "midi": 50,
          "time": 117.22210500000162,
          "velocity": 0.7559055118110236,
          "duration": 0.1844133958333316
        },
        {
          "name": "F3",
          "midi": 53,
          "time": 117.22210500000162,
          "velocity": 0.7559055118110236,
          "duration": 0.1844133958333316
        },
        {
          "name": "D2",
          "midi": 38,
          "time": 117.40729000000162,
          "velocity": 0.7559055118110236,
          "duration": 0.1844133958333316
        },
        {
          "name": "D3",
          "midi": 50,
          "time": 117.59247500000163,
          "velocity": 0.7559055118110236,
          "duration": 0.1844133958333316
        },
        {
          "name": "F3",
          "midi": 53,
          "time": 117.59247500000163,
          "velocity": 0.7559055118110236,
          "duration": 0.1844133958333316
        },
        {
          "name": "G2",
          "midi": 43,
          "time": 117.77766000000163,
          "velocity": 0.7559055118110236,
          "duration": 0.18441339583334582
        },
        {
          "name": "G3",
          "midi": 55,
          "time": 117.96284500000165,
          "velocity": 0.7559055118110236,
          "duration": 0.1844133958333316
        },
        {
          "name": "B3",
          "midi": 59,
          "time": 117.96284500000165,
          "velocity": 0.7559055118110236,
          "duration": 0.1844133958333316
        },
        {
          "name": "G2",
          "midi": 43,
          "time": 118.14803000000165,
          "velocity": 0.7559055118110236,
          "duration": 0.1844133958333316
        },
        {
          "name": "G3",
          "midi": 55,
          "time": 118.33321500000166,
          "velocity": 0.7559055118110236,
          "duration": 0.1844133958333316
        },
        {
          "name": "B3",
          "midi": 59,
          "time": 118.33321500000166,
          "velocity": 0.7559055118110236,
          "duration": 0.1844133958333316
        },
        {
          "name": "C2",
          "midi": 36,
          "time": 118.51840000000166,
          "velocity": 0.7559055118110236,
          "duration": 0.18441339583334582
        },
        {
          "name": "C3",
          "midi": 48,
          "time": 118.70358500000168,
          "velocity": 0.7559055118110236,
          "duration": 0.1844133958333316
        },
        {
          "name": "D#3",
          "midi": 51,
          "time": 118.70358500000168,
          "velocity": 0.7559055118110236,
          "duration": 0.1844133958333316
        },
        {
          "name": "C2",
          "midi": 36,
          "time": 118.88877000000168,
          "velocity": 0.7559055118110236,
          "duration": 0.1844133958333316
        },
        {
          "name": "C3",
          "midi": 48,
          "time": 119.07395500000169,
          "velocity": 0.7559055118110236,
          "duration": 0.1844133958333316
        },
        {
          "name": "D#3",
          "midi": 51,
          "time": 119.07395500000169,
          "velocity": 0.7559055118110236,
          "duration": 0.1844133958333316
        },
        {
          "name": "C2",
          "midi": 36,
          "time": 119.2591400000017,
          "velocity": 0.7559055118110236,
          "duration": 0.18441339583334582
        },
        {
          "name": "C3",
          "midi": 48,
          "time": 119.44432500000171,
          "velocity": 0.7559055118110236,
          "duration": 0.1844133958333316
        },
        {
          "name": "E3",
          "midi": 52,
          "time": 119.44432500000171,
          "velocity": 0.7559055118110236,
          "duration": 0.1844133958333316
        },
        {
          "name": "C2",
          "midi": 36,
          "time": 119.62951000000172,
          "velocity": 0.7559055118110236,
          "duration": 0.1844133958333316
        },
        {
          "name": "C3",
          "midi": 48,
          "time": 119.81469500000172,
          "velocity": 0.7559055118110236,
          "duration": 0.1844133958333316
        },
        {
          "name": "E3",
          "midi": 52,
          "time": 119.81469500000172,
          "velocity": 0.7559055118110236,
          "duration": 0.1844133958333316
        },
        {
          "name": "F3",
          "midi": 53,
          "time": 119.99988000000172,
          "velocity": 0.6299212598425197,
          "duration": 0.18441339583334582
        },
        {
          "name": "G#3",
          "midi": 56,
          "time": 120.18506500000174,
          "velocity": 0.6299212598425197,
          "duration": 0.1844133958333316
        },
        {
          "name": "C4",
          "midi": 60,
          "time": 120.18506500000174,
          "velocity": 0.6299212598425197,
          "duration": 0.1844133958333316
        },
        {
          "name": "F3",
          "midi": 53,
          "time": 120.37025000000175,
          "velocity": 0.6299212598425197,
          "duration": 0.1844133958333316
        },
        {
          "name": "G#3",
          "midi": 56,
          "time": 120.55543500000175,
          "velocity": 0.6299212598425197,
          "duration": 0.1844133958333316
        },
        {
          "name": "C4",
          "midi": 60,
          "time": 120.55543500000175,
          "velocity": 0.6299212598425197,
          "duration": 0.1844133958333316
        },
        {
          "name": "A#2",
          "midi": 46,
          "time": 120.74062000000175,
          "velocity": 0.6299212598425197,
          "duration": 0.18441339583334582
        },
        {
          "name": "D3",
          "midi": 50,
          "time": 120.92580500000177,
          "velocity": 0.6299212598425197,
          "duration": 0.1844133958333316
        },
        {
          "name": "F3",
          "midi": 53,
          "time": 120.92580500000177,
          "velocity": 0.6299212598425197,
          "duration": 0.1844133958333316
        },
        {
          "name": "A#2",
          "midi": 46,
          "time": 121.11099000000178,
          "velocity": 0.6299212598425197,
          "duration": 0.1844133958333316
        },
        {
          "name": "D3",
          "midi": 50,
          "time": 121.29617500000178,
          "velocity": 0.6299212598425197,
          "duration": 0.1844133958333316
        },
        {
          "name": "F3",
          "midi": 53,
          "time": 121.29617500000178,
          "velocity": 0.6299212598425197,
          "duration": 0.1844133958333316
        },
        {
          "name": "D#3",
          "midi": 51,
          "time": 121.48136000000179,
          "velocity": 0.6299212598425197,
          "duration": 0.18441339583334582
        },
        {
          "name": "G3",
          "midi": 55,
          "time": 121.6665450000018,
          "velocity": 0.6299212598425197,
          "duration": 0.1844133958333316
        },
        {
          "name": "A#3",
          "midi": 58,
          "time": 121.6665450000018,
          "velocity": 0.6299212598425197,
          "duration": 0.1844133958333316
        },
        {
          "name": "D#3",
          "midi": 51,
          "time": 121.85173000000181,
          "velocity": 0.6299212598425197,
          "duration": 0.1844133958333316
        },
        {
          "name": "G3",
          "midi": 55,
          "time": 122.03691500000181,
          "velocity": 0.6299212598425197,
          "duration": 0.1844133958333316
        },
        {
          "name": "A#3",
          "midi": 58,
          "time": 122.03691500000181,
          "velocity": 0.6299212598425197,
          "duration": 0.1844133958333316
        },
        {
          "name": "G#2",
          "midi": 44,
          "time": 122.22210000000182,
          "velocity": 0.6299212598425197,
          "duration": 0.18441339583334582
        },
        {
          "name": "C3",
          "midi": 48,
          "time": 122.40728500000183,
          "velocity": 0.6299212598425197,
          "duration": 0.1844133958333316
        },
        {
          "name": "D#3",
          "midi": 51,
          "time": 122.40728500000183,
          "velocity": 0.6299212598425197,
          "duration": 0.1844133958333316
        },
        {
          "name": "G#2",
          "midi": 44,
          "time": 122.59247000000184,
          "velocity": 0.6299212598425197,
          "duration": 0.1844133958333316
        },
        {
          "name": "C3",
          "midi": 48,
          "time": 122.77765500000184,
          "velocity": 0.6299212598425197,
          "duration": 0.1844133958333316
        },
        {
          "name": "D#3",
          "midi": 51,
          "time": 122.77765500000184,
          "velocity": 0.6299212598425197,
          "duration": 0.1844133958333316
        },
        {
          "name": "D3",
          "midi": 50,
          "time": 122.96284000000185,
          "velocity": 0.6299212598425197,
          "duration": 0.18441339583334582
        },
        {
          "name": "F3",
          "midi": 53,
          "time": 123.14802500000187,
          "velocity": 0.6299212598425197,
          "duration": 0.1844133958333316
        },
        {
          "name": "G#3",
          "midi": 56,
          "time": 123.14802500000187,
          "velocity": 0.6299212598425197,
          "duration": 0.1844133958333316
        },
        {
          "name": "D3",
          "midi": 50,
          "time": 123.33321000000187,
          "velocity": 0.6299212598425197,
          "duration": 0.1844133958333316
        },
        {
          "name": "F3",
          "midi": 53,
          "time": 123.51839500000187,
          "velocity": 0.6299212598425197,
          "duration": 0.1844133958333316
        },
        {
          "name": "G#3",
          "midi": 56,
          "time": 123.51839500000187,
          "velocity": 0.6299212598425197,
          "duration": 0.1844133958333316
        },
        {
          "name": "G2",
          "midi": 43,
          "time": 123.70358000000188,
          "velocity": 0.6299212598425197,
          "duration": 0.18441339583334582
        },
        {
          "name": "B2",
          "midi": 47,
          "time": 123.8887650000019,
          "velocity": 0.6299212598425197,
          "duration": 0.1844133958333316
        },
        {
          "name": "D3",
          "midi": 50,
          "time": 123.8887650000019,
          "velocity": 0.6299212598425197,
          "duration": 0.1844133958333316
        },
        {
          "name": "G2",
          "midi": 43,
          "time": 124.0739500000019,
          "velocity": 0.6299212598425197,
          "duration": 0.1844133958333316
        },
        {
          "name": "B2",
          "midi": 47,
          "time": 124.2591350000019,
          "velocity": 0.6299212598425197,
          "duration": 0.1844133958333316
        },
        {
          "name": "D3",
          "midi": 50,
          "time": 124.2591350000019,
          "velocity": 0.6299212598425197,
          "duration": 0.1844133958333316
        },
        {
          "name": "C3",
          "midi": 48,
          "time": 124.44432000000191,
          "velocity": 0.6299212598425197,
          "duration": 0.18441339583334582
        },
        {
          "name": "D#3",
          "midi": 51,
          "time": 124.62950500000193,
          "velocity": 0.6299212598425197,
          "duration": 0.1844133958333316
        },
        {
          "name": "G3",
          "midi": 55,
          "time": 124.62950500000193,
          "velocity": 0.6299212598425197,
          "duration": 0.1844133958333316
        },
        {
          "name": "C3",
          "midi": 48,
          "time": 124.81469000000193,
          "velocity": 0.6299212598425197,
          "duration": 0.1844133958333316
        },
        {
          "name": "D#3",
          "midi": 51,
          "time": 124.99987500000194,
          "velocity": 0.6299212598425197,
          "duration": 0.1844133958333316
        },
        {
          "name": "G3",
          "midi": 55,
          "time": 124.99987500000194,
          "velocity": 0.6299212598425197,
          "duration": 0.1844133958333316
        },
        {
          "name": "C3",
          "midi": 48,
          "time": 125.18506000000194,
          "velocity": 0.6299212598425197,
          "duration": 0.18441339583334582
        },
        {
          "name": "E3",
          "midi": 52,
          "time": 125.37024500000196,
          "velocity": 0.6299212598425197,
          "duration": 0.1844133958333316
        },
        {
          "name": "G3",
          "midi": 55,
          "time": 125.37024500000196,
          "velocity": 0.6299212598425197,
          "duration": 0.1844133958333316
        },
        {
          "name": "C3",
          "midi": 48,
          "time": 125.55543000000196,
          "velocity": 0.6299212598425197,
          "duration": 0.1844133958333316
        },
        {
          "name": "E3",
          "midi": 52,
          "time": 125.74061500000197,
          "velocity": 0.6299212598425197,
          "duration": 0.1844133958333316
        },
        {
          "name": "G3",
          "midi": 55,
          "time": 125.74061500000197,
          "velocity": 0.6299212598425197,
          "duration": 0.1844133958333316
        },
        {
          "name": "F3",
          "midi": 53,
          "time": 125.92580000000197,
          "velocity": 0.3858267716535433,
          "duration": 0.36959839583334997
        },
        {
          "name": "G#3",
          "midi": 56,
          "time": 125.92580000000197,
          "velocity": 0.3858267716535433,
          "duration": 0.36959839583334997
        },
        {
          "name": "C4",
          "midi": 60,
          "time": 125.92580000000197,
          "velocity": 0.3858267716535433,
          "duration": 0.36959839583334997
        },
        {
          "name": "F3",
          "midi": 53,
          "time": 126.296170000002,
          "velocity": 0.3858267716535433,
          "duration": 0.36959839583333576
        },
        {
          "name": "A#3",
          "midi": 58,
          "time": 126.666540000002,
          "velocity": 0.3858267716535433,
          "duration": 0.36959839583334997
        },
        {
          "name": "D4",
          "midi": 62,
          "time": 126.666540000002,
          "velocity": 0.3858267716535433,
          "duration": 0.36959839583334997
        },
        {
          "name": "F4",
          "midi": 65,
          "time": 126.666540000002,
          "velocity": 0.3858267716535433,
          "duration": 0.36959839583334997
        },
        {
          "name": "A#3",
          "midi": 58,
          "time": 127.03691000000202,
          "velocity": 0.3858267716535433,
          "duration": 0.36959839583333576
        },
        {
          "name": "D#3",
          "midi": 51,
          "time": 127.40728000000203,
          "velocity": 0.3858267716535433,
          "duration": 0.36959839583334997
        },
        {
          "name": "G3",
          "midi": 55,
          "time": 127.40728000000203,
          "velocity": 0.3858267716535433,
          "duration": 0.36959839583334997
        },
        {
          "name": "A#3",
          "midi": 58,
          "time": 127.40728000000203,
          "velocity": 0.3858267716535433,
          "duration": 0.36959839583334997
        },
        {
          "name": "D#3",
          "midi": 51,
          "time": 127.77765000000205,
          "velocity": 0.3858267716535433,
          "duration": 0.36959839583333576
        },
        {
          "name": "G#3",
          "midi": 56,
          "time": 128.14802000000205,
          "velocity": 0.3858267716535433,
          "duration": 0.36959839583332155
        },
        {
          "name": "C4",
          "midi": 60,
          "time": 128.14802000000205,
          "velocity": 0.3858267716535433,
          "duration": 0.36959839583332155
        },
        {
          "name": "D#4",
          "midi": 63,
          "time": 128.14802000000205,
          "velocity": 0.3858267716535433,
          "duration": 0.36959839583332155
        },
        {
          "name": "G#3",
          "midi": 56,
          "time": 128.51839000000203,
          "velocity": 0.3858267716535433,
          "duration": 0.36959839583332155
        },
        {
          "name": "D3",
          "midi": 50,
          "time": 128.888760000002,
          "velocity": 0.3858267716535433,
          "duration": 0.36959839583332155
        },
        {
          "name": "F3",
          "midi": 53,
          "time": 128.888760000002,
          "velocity": 0.3858267716535433,
          "duration": 0.36959839583332155
        },
        {
          "name": "G#3",
          "midi": 56,
          "time": 128.888760000002,
          "velocity": 0.3858267716535433,
          "duration": 0.36959839583332155
        },
        {
          "name": "D3",
          "midi": 50,
          "time": 129.259130000002,
          "velocity": 0.3858267716535433,
          "duration": 0.36959839583332155
        },
        {
          "name": "F3",
          "midi": 53,
          "time": 129.62950000000197,
          "velocity": 0.3858267716535433,
          "duration": 0.36959839583332155
        },
        {
          "name": "G3",
          "midi": 55,
          "time": 129.62950000000197,
          "velocity": 0.3858267716535433,
          "duration": 0.36959839583332155
        },
        {
          "name": "B3",
          "midi": 59,
          "time": 129.62950000000197,
          "velocity": 0.3858267716535433,
          "duration": 0.36959839583332155
        },
        {
          "name": "F3",
          "midi": 53,
          "time": 129.99987000000195,
          "velocity": 0.3858267716535433,
          "duration": 0.36959839583332155
        }
      ],
      "controlChanges": {
        "64": [
          {
            "number": 64,
            "time": 0.0015432083333333335,
            "value": 1
          },
          {
            "number": 64,
            "time": 1.4822516041666691,
            "value": 0
          },
          {
            "number": 64,
            "time": 1.483023208333336,
            "value": 1
          },
          {
            "number": 64,
            "time": 2.22299160416667,
            "value": 0
          },
          {
            "number": 64,
            "time": 2.2237632083333367,
            "value": 1
          },
          {
            "number": 64,
            "time": 2.9637316041666706,
            "value": 0
          },
          {
            "number": 64,
            "time": 2.9645032083333374,
            "value": 1
          },
          {
            "number": 64,
            "time": 3.704471604166671,
            "value": 0
          },
          {
            "number": 64,
            "time": 3.705243208333338,
            "value": 1
          },
          {
            "number": 64,
            "time": 4.44521160416667,
            "value": 0
          },
          {
            "number": 64,
            "time": 4.445983208333336,
            "value": 1
          },
          {
            "number": 64,
            "time": 5.185951604166668,
            "value": 0
          },
          {
            "number": 64,
            "time": 5.186723208333334,
            "value": 1
          },
          {
            "number": 64,
            "time": 5.926691604166666,
            "value": 0
          },
          {
            "number": 64,
            "time": 5.927463208333332,
            "value": 1
          },
          {
            "number": 64,
            "time": 6.667431604166664,
            "value": 0
          },
          {
            "number": 64,
            "time": 7.40894320833333,
            "value": 1
          },
          {
            "number": 64,
            "time": 8.148911604166663,
            "value": 0
          },
          {
            "number": 64,
            "time": 8.14968320833333,
            "value": 1
          },
          {
            "number": 64,
            "time": 8.889651604166668,
            "value": 0
          },
          {
            "number": 64,
            "time": 8.890423208333335,
            "value": 1
          },
          {
            "number": 64,
            "time": 9.630391604166672,
            "value": 0
          },
          {
            "number": 64,
            "time": 9.631163208333339,
            "value": 1
          },
          {
            "number": 64,
            "time": 10.371131604166676,
            "value": 0
          },
          {
            "number": 64,
            "time": 10.371903208333343,
            "value": 1
          },
          {
            "number": 64,
            "time": 11.11187160416668,
            "value": 0
          },
          {
            "number": 64,
            "time": 11.112643208333347,
            "value": 1
          },
          {
            "number": 64,
            "time": 11.852611604166684,
            "value": 0
          },
          {
            "number": 64,
            "time": 11.853383208333351,
            "value": 1
          },
          {
            "number": 64,
            "time": 12.593351604166688,
            "value": 0
          },
          {
            "number": 64,
            "time": 12.594123208333356,
            "value": 1
          },
          {
            "number": 64,
            "time": 13.334091604166693,
            "value": 0
          },
          {
            "number": 64,
            "time": 13.33486320833336,
            "value": 1
          },
          {
            "number": 64,
            "time": 14.074831604166697,
            "value": 0
          },
          {
            "number": 64,
            "time": 14.075603208333364,
            "value": 1
          },
          {
            "number": 64,
            "time": 14.815571604166701,
            "value": 0
          },
          {
            "number": 64,
            "time": 14.816343208333368,
            "value": 1
          },
          {
            "number": 64,
            "time": 15.556311604166705,
            "value": 0
          },
          {
            "number": 64,
            "time": 15.557083208333372,
            "value": 1
          },
          {
            "number": 64,
            "time": 16.2970516041667,
            "value": 0
          },
          {
            "number": 64,
            "time": 16.297823208333366,
            "value": 1
          },
          {
            "number": 64,
            "time": 17.03779160416669,
            "value": 0
          },
          {
            "number": 64,
            "time": 17.038563208333354,
            "value": 1
          },
          {
            "number": 64,
            "time": 17.778531604166677,
            "value": 0
          },
          {
            "number": 64,
            "time": 17.779303208333342,
            "value": 1
          },
          {
            "number": 64,
            "time": 18.519271604166665,
            "value": 0
          },
          {
            "number": 64,
            "time": 18.52004320833333,
            "value": 1
          },
          {
            "number": 64,
            "time": 19.260011604166653,
            "value": 0
          },
          {
            "number": 64,
            "time": 19.26078320833332,
            "value": 1
          },
          {
            "number": 64,
            "time": 20.00075160416664,
            "value": 0
          },
          {
            "number": 64,
            "time": 20.001523208333307,
            "value": 1
          },
          {
            "number": 64,
            "time": 20.74149160416663,
            "value": 0
          },
          {
            "number": 64,
            "time": 20.742263208333295,
            "value": 1
          },
          {
            "number": 64,
            "time": 21.482231604166618,
            "value": 0
          },
          {
            "number": 64,
            "time": 21.483003208333283,
            "value": 1
          },
          {
            "number": 64,
            "time": 22.222971604166606,
            "value": 0
          },
          {
            "number": 64,
            "time": 22.22374320833327,
            "value": 1
          },
          {
            "number": 64,
            "time": 22.963711604166594,
            "value": 0
          },
          {
            "number": 64,
            "time": 22.96448320833326,
            "value": 1
          },
          {
            "number": 64,
            "time": 23.704451604166582,
            "value": 0
          },
          {
            "number": 64,
            "time": 23.705223208333248,
            "value": 1
          },
          {
            "number": 64,
            "time": 24.44519160416657,
            "value": 0
          },
          {
            "number": 64,
            "time": 24.445963208333236,
            "value": 1
          },
          {
            "number": 64,
            "time": 25.18593160416656,
            "value": 0
          },
          {
            "number": 64,
            "time": 25.186703208333224,
            "value": 1
          },
          {
            "number": 64,
            "time": 25.926671604166547,
            "value": 0
          },
          {
            "number": 64,
            "time": 25.927443208333212,
            "value": 1
          },
          {
            "number": 64,
            "time": 26.667411604166535,
            "value": 0
          },
          {
            "number": 64,
            "time": 26.6681832083332,
            "value": 1
          },
          {
            "number": 64,
            "time": 27.408151604166523,
            "value": 0
          },
          {
            "number": 64,
            "time": 27.40892320833319,
            "value": 1
          },
          {
            "number": 64,
            "time": 28.14889160416651,
            "value": 0
          },
          {
            "number": 64,
            "time": 28.149663208333177,
            "value": 1
          },
          {
            "number": 64,
            "time": 28.8896316041665,
            "value": 0
          },
          {
            "number": 64,
            "time": 28.890403208333165,
            "value": 1
          },
          {
            "number": 64,
            "time": 29.630371604166488,
            "value": 0
          },
          {
            "number": 64,
            "time": 29.631143208333153,
            "value": 1
          },
          {
            "number": 64,
            "time": 30.371111604166476,
            "value": 0
          },
          {
            "number": 64,
            "time": 30.37188320833314,
            "value": 1
          },
          {
            "number": 64,
            "time": 31.111851604166464,
            "value": 0
          },
          {
            "number": 64,
            "time": 31.11262320833313,
            "value": 1
          },
          {
            "number": 64,
            "time": 31.852591604166452,
            "value": 0
          },
          {
            "number": 64,
            "time": 31.853363208333118,
            "value": 1
          },
          {
            "number": 64,
            "time": 32.593331604166444,
            "value": 0
          },
          {
            "number": 64,
            "time": 32.59410320833311,
            "value": 1
          },
          {
            "number": 64,
            "time": 33.33407160416644,
            "value": 0
          },
          {
            "number": 64,
            "time": 33.334843208333105,
            "value": 1
          },
          {
            "number": 64,
            "time": 34.074811604166435,
            "value": 0
          },
          {
            "number": 64,
            "time": 34.0755832083331,
            "value": 1
          },
          {
            "number": 64,
            "time": 34.81555160416643,
            "value": 0
          },
          {
            "number": 64,
            "time": 34.816323208333095,
            "value": 1
          },
          {
            "number": 64,
            "time": 35.556291604166425,
            "value": 0
          },
          {
            "number": 64,
            "time": 35.55706320833309,
            "value": 1
          },
          {
            "number": 64,
            "time": 37.03777160416649,
            "value": 0
          },
          {
            "number": 64,
            "time": 37.03854320833315,
            "value": 1
          },
          {
            "number": 64,
            "time": 37.778511604166475,
            "value": 0
          },
          {
            "number": 64,
            "time": 37.77928320833314,
            "value": 1
          },
          {
            "number": 64,
            "time": 38.51925160416646,
            "value": 0
          },
          {
            "number": 64,
            "time": 38.52002320833313,
            "value": 1
          },
          {
            "number": 64,
            "time": 39.25999160416645,
            "value": 0
          },
          {
            "number": 64,
            "time": 39.26076320833312,
            "value": 1
          },
          {
            "number": 64,
            "time": 40.00073160416644,
            "value": 0
          },
          {
            "number": 64,
            "time": 40.001503208333105,
            "value": 1
          },
          {
            "number": 64,
            "time": 40.74147160416643,
            "value": 0
          },
          {
            "number": 64,
            "time": 40.74224320833309,
            "value": 1
          },
          {
            "number": 64,
            "time": 41.482211604166416,
            "value": 0
          },
          {
            "number": 64,
            "time": 41.48298320833308,
            "value": 1
          },
          {
            "number": 64,
            "time": 42.222951604166404,
            "value": 0
          },
          {
            "number": 64,
            "time": 42.22372320833307,
            "value": 1
          },
          {
            "number": 64,
            "time": 42.96369160416639,
            "value": 0
          },
          {
            "number": 64,
            "time": 42.96446320833306,
            "value": 1
          },
          {
            "number": 64,
            "time": 43.70443160416638,
            "value": 0
          },
          {
            "number": 64,
            "time": 43.705203208333046,
            "value": 1
          },
          {
            "number": 64,
            "time": 44.44517160416637,
            "value": 0
          },
          {
            "number": 64,
            "time": 44.445943208333034,
            "value": 1
          },
          {
            "number": 64,
            "time": 45.18591160416636,
            "value": 0
          },
          {
            "number": 64,
            "time": 45.18668320833302,
            "value": 1
          },
          {
            "number": 64,
            "time": 45.926651604166345,
            "value": 0
          },
          {
            "number": 64,
            "time": 45.92742320833301,
            "value": 1
          },
          {
            "number": 64,
            "time": 46.66739160416633,
            "value": 0
          },
          {
            "number": 64,
            "time": 46.668163208333,
            "value": 1
          },
          {
            "number": 64,
            "time": 47.40813160416632,
            "value": 0
          },
          {
            "number": 64,
            "time": 47.40890320833299,
            "value": 1
          },
          {
            "number": 64,
            "time": 48.14887160416631,
            "value": 0
          },
          {
            "number": 64,
            "time": 48.149643208332975,
            "value": 1
          },
          {
            "number": 64,
            "time": 48.8896116041663,
            "value": 0
          },
          {
            "number": 64,
            "time": 48.89038320833296,
            "value": 1
          },
          {
            "number": 64,
            "time": 49.630351604166286,
            "value": 0
          },
          {
            "number": 64,
            "time": 49.63112320833295,
            "value": 1
          },
          {
            "number": 64,
            "time": 50.371091604166274,
            "value": 0
          },
          {
            "number": 64,
            "time": 50.37186320833294,
            "value": 1
          },
          {
            "number": 64,
            "time": 51.11183160416626,
            "value": 0
          },
          {
            "number": 64,
            "time": 51.11260320833293,
            "value": 1
          },
          {
            "number": 64,
            "time": 51.85257160416625,
            "value": 0
          },
          {
            "number": 64,
            "time": 51.853343208332916,
            "value": 1
          },
          {
            "number": 64,
            "time": 52.59331160416624,
            "value": 0
          },
          {
            "number": 64,
            "time": 52.594083208332904,
            "value": 1
          },
          {
            "number": 64,
            "time": 53.33405160416623,
            "value": 0
          },
          {
            "number": 64,
            "time": 53.33482320833289,
            "value": 1
          },
          {
            "number": 64,
            "time": 54.074791604166215,
            "value": 0
          },
          {
            "number": 64,
            "time": 54.816303208332876,
            "value": 1
          },
          {
            "number": 64,
            "time": 55.5562716041662,
            "value": 0
          },
          {
            "number": 64,
            "time": 55.557043208332864,
            "value": 1
          },
          {
            "number": 64,
            "time": 56.29701160416619,
            "value": 0
          },
          {
            "number": 64,
            "time": 56.29778320833285,
            "value": 1
          },
          {
            "number": 64,
            "time": 57.037751604166175,
            "value": 0
          },
          {
            "number": 64,
            "time": 57.03852320833284,
            "value": 1
          },
          {
            "number": 64,
            "time": 57.77849160416616,
            "value": 0
          },
          {
            "number": 64,
            "time": 57.77926320833283,
            "value": 1
          },
          {
            "number": 64,
            "time": 58.51923160416615,
            "value": 0
          },
          {
            "number": 64,
            "time": 58.52000320833282,
            "value": 1
          },
          {
            "number": 64,
            "time": 59.25997160416614,
            "value": 0
          },
          {
            "number": 64,
            "time": 59.260743208332805,
            "value": 1
          },
          {
            "number": 64,
            "time": 60.00071160416613,
            "value": 0
          },
          {
            "number": 64,
            "time": 60.00148320833279,
            "value": 1
          },
          {
            "number": 64,
            "time": 60.741451604166116,
            "value": 0
          },
          {
            "number": 64,
            "time": 60.74222320833278,
            "value": 1
          },
          {
            "number": 64,
            "time": 61.482191604166104,
            "value": 0
          },
          {
            "number": 64,
            "time": 61.48296320833277,
            "value": 1
          },
          {
            "number": 64,
            "time": 62.22293160416609,
            "value": 0
          },
          {
            "number": 64,
            "time": 62.22370320833276,
            "value": 1
          },
          {
            "number": 64,
            "time": 62.96367160416608,
            "value": 0
          },
          {
            "number": 64,
            "time": 62.964443208332746,
            "value": 1
          },
          {
            "number": 64,
            "time": 63.70441160416607,
            "value": 0
          },
          {
            "number": 64,
            "time": 63.705183208332734,
            "value": 1
          },
          {
            "number": 64,
            "time": 64.44515160416609,
            "value": 0
          },
          {
            "number": 64,
            "time": 64.44592320833276,
            "value": 1
          },
          {
            "number": 64,
            "time": 65.18589160416612,
            "value": 0
          },
          {
            "number": 64,
            "time": 65.18666320833279,
            "value": 1
          },
          {
            "number": 64,
            "time": 65.92663160416615,
            "value": 0
          },
          {
            "number": 64,
            "time": 65.92740320833282,
            "value": 1
          },
          {
            "number": 64,
            "time": 66.66737160416618,
            "value": 0
          },
          {
            "number": 64,
            "time": 66.66814320833285,
            "value": 1
          },
          {
            "number": 64,
            "time": 67.40811160416621,
            "value": 0
          },
          {
            "number": 64,
            "time": 67.40888320833288,
            "value": 1
          },
          {
            "number": 64,
            "time": 68.14885160416624,
            "value": 0
          },
          {
            "number": 64,
            "time": 68.14962320833291,
            "value": 1
          },
          {
            "number": 64,
            "time": 68.88959160416627,
            "value": 0
          },
          {
            "number": 64,
            "time": 68.89036320833294,
            "value": 1
          },
          {
            "number": 64,
            "time": 69.6303316041663,
            "value": 0
          },
          {
            "number": 64,
            "time": 69.63110320833297,
            "value": 1
          },
          {
            "number": 64,
            "time": 70.37107160416633,
            "value": 0
          },
          {
            "number": 64,
            "time": 70.371843208333,
            "value": 1
          },
          {
            "number": 64,
            "time": 71.11181160416636,
            "value": 0
          },
          {
            "number": 64,
            "time": 71.11258320833304,
            "value": 1
          },
          {
            "number": 64,
            "time": 71.8525516041664,
            "value": 0
          },
          {
            "number": 64,
            "time": 72.59406320833305,
            "value": 1
          },
          {
            "number": 64,
            "time": 73.33403160416641,
            "value": 0
          },
          {
            "number": 64,
            "time": 73.33480320833308,
            "value": 1
          },
          {
            "number": 64,
            "time": 74.07477160416644,
            "value": 0
          },
          {
            "number": 64,
            "time": 74.07554320833312,
            "value": 1
          },
          {
            "number": 64,
            "time": 74.81551160416647,
            "value": 0
          },
          {
            "number": 64,
            "time": 74.81628320833315,
            "value": 1
          },
          {
            "number": 64,
            "time": 75.5562516041665,
            "value": 0
          },
          {
            "number": 64,
            "time": 75.55702320833318,
            "value": 1
          },
          {
            "number": 64,
            "time": 76.29699160416654,
            "value": 0
          },
          {
            "number": 64,
            "time": 76.29776320833321,
            "value": 1
          },
          {
            "number": 64,
            "time": 77.03773160416657,
            "value": 0
          },
          {
            "number": 64,
            "time": 77.03850320833324,
            "value": 1
          },
          {
            "number": 64,
            "time": 77.7784716041666,
            "value": 0
          },
          {
            "number": 64,
            "time": 77.77924320833327,
            "value": 1
          },
          {
            "number": 64,
            "time": 78.51921160416664,
            "value": 0
          },
          {
            "number": 64,
            "time": 78.51998320833331,
            "value": 1
          },
          {
            "number": 64,
            "time": 79.25995160416669,
            "value": 0
          },
          {
            "number": 64,
            "time": 79.26072320833336,
            "value": 1
          },
          {
            "number": 64,
            "time": 80.00069160416673,
            "value": 0
          },
          {
            "number": 64,
            "time": 80.0014632083334,
            "value": 1
          },
          {
            "number": 64,
            "time": 80.74143160416678,
            "value": 0
          },
          {
            "number": 64,
            "time": 80.74220320833345,
            "value": 1
          },
          {
            "number": 64,
            "time": 81.48217160416682,
            "value": 0
          },
          {
            "number": 64,
            "time": 81.4829432083335,
            "value": 1
          },
          {
            "number": 64,
            "time": 82.22291160416687,
            "value": 0
          },
          {
            "number": 64,
            "time": 82.22368320833354,
            "value": 1
          },
          {
            "number": 64,
            "time": 82.96365160416691,
            "value": 0
          },
          {
            "number": 64,
            "time": 82.96442320833359,
            "value": 1
          },
          {
            "number": 64,
            "time": 84.44513160416703,
            "value": 0
          },
          {
            "number": 64,
            "time": 84.4459032083337,
            "value": 1
          },
          {
            "number": 64,
            "time": 85.18587160416706,
            "value": 0
          },
          {
            "number": 64,
            "time": 85.18664320833373,
            "value": 1
          },
          {
            "number": 64,
            "time": 85.92661160416709,
            "value": 0
          },
          {
            "number": 64,
            "time": 85.92738320833377,
            "value": 1
          },
          {
            "number": 64,
            "time": 86.66735160416712,
            "value": 0
          },
          {
            "number": 64,
            "time": 86.6681232083338,
            "value": 1
          },
          {
            "number": 64,
            "time": 87.40809160416715,
            "value": 0
          },
          {
            "number": 64,
            "time": 87.40886320833383,
            "value": 1
          },
          {
            "number": 64,
            "time": 88.14883160416719,
            "value": 0
          },
          {
            "number": 64,
            "time": 88.14960320833386,
            "value": 1
          },
          {
            "number": 64,
            "time": 88.88957160416722,
            "value": 0
          },
          {
            "number": 64,
            "time": 88.89034320833389,
            "value": 1
          },
          {
            "number": 64,
            "time": 89.63031160416725,
            "value": 0
          },
          {
            "number": 64,
            "time": 89.63108320833392,
            "value": 1
          },
          {
            "number": 64,
            "time": 90.37105160416728,
            "value": 0
          },
          {
            "number": 64,
            "time": 90.37182320833395,
            "value": 1
          },
          {
            "number": 64,
            "time": 91.11179160416731,
            "value": 0
          },
          {
            "number": 64,
            "time": 91.11256320833398,
            "value": 1
          },
          {
            "number": 64,
            "time": 91.85253160416734,
            "value": 0
          },
          {
            "number": 64,
            "time": 91.85330320833401,
            "value": 1
          },
          {
            "number": 64,
            "time": 92.59327160416737,
            "value": 0
          },
          {
            "number": 64,
            "time": 92.59404320833404,
            "value": 1
          },
          {
            "number": 64,
            "time": 93.3340116041674,
            "value": 0
          },
          {
            "number": 64,
            "time": 93.33478320833407,
            "value": 1
          },
          {
            "number": 64,
            "time": 94.07475160416743,
            "value": 0
          },
          {
            "number": 64,
            "time": 94.0755232083341,
            "value": 1
          },
          {
            "number": 64,
            "time": 94.81549160416746,
            "value": 0
          },
          {
            "number": 64,
            "time": 94.81626320833414,
            "value": 1
          },
          {
            "number": 64,
            "time": 95.55623160416748,
            "value": 0
          },
          {
            "number": 64,
            "time": 96.29774320833414,
            "value": 1
          },
          {
            "number": 64,
            "time": 97.0377116041675,
            "value": 0
          },
          {
            "number": 64,
            "time": 97.03848320833417,
            "value": 1
          },
          {
            "number": 64,
            "time": 97.77845160416753,
            "value": 0
          },
          {
            "number": 64,
            "time": 97.7792232083342,
            "value": 1
          },
          {
            "number": 64,
            "time": 98.51919160416756,
            "value": 0
          },
          {
            "number": 64,
            "time": 98.51996320833423,
            "value": 1
          },
          {
            "number": 64,
            "time": 99.25993160416759,
            "value": 0
          },
          {
            "number": 64,
            "time": 99.26070320833426,
            "value": 1
          },
          {
            "number": 64,
            "time": 100.00067160416762,
            "value": 0
          },
          {
            "number": 64,
            "time": 100.0014432083343,
            "value": 1
          },
          {
            "number": 64,
            "time": 100.74141160416765,
            "value": 0
          },
          {
            "number": 64,
            "time": 100.74218320833432,
            "value": 1
          },
          {
            "number": 64,
            "time": 101.48215160416768,
            "value": 0
          },
          {
            "number": 64,
            "time": 101.48292320833436,
            "value": 1
          },
          {
            "number": 64,
            "time": 102.22289160416771,
            "value": 0
          },
          {
            "number": 64,
            "time": 102.22366320833439,
            "value": 1
          },
          {
            "number": 64,
            "time": 102.96363160416774,
            "value": 0
          },
          {
            "number": 64,
            "time": 102.96440320833442,
            "value": 1
          },
          {
            "number": 64,
            "time": 103.70437160416778,
            "value": 0
          },
          {
            "number": 64,
            "time": 103.70514320833445,
            "value": 1
          },
          {
            "number": 64,
            "time": 104.4451116041678,
            "value": 0
          },
          {
            "number": 64,
            "time": 104.44588320833448,
            "value": 1
          },
          {
            "number": 64,
            "time": 105.18585160416784,
            "value": 0
          },
          {
            "number": 64,
            "time": 105.18662320833451,
            "value": 1
          },
          {
            "number": 64,
            "time": 106.66733160416788,
            "value": 0
          },
          {
            "number": 64,
            "time": 108.14958320833458,
            "value": 1
          },
          {
            "number": 64,
            "time": 108.88955160416793,
            "value": 0
          },
          {
            "number": 64,
            "time": 108.8903232083346,
            "value": 1
          },
          {
            "number": 64,
            "time": 109.63029160416797,
            "value": 0
          },
          {
            "number": 64,
            "time": 109.63106320833464,
            "value": 1
          },
          {
            "number": 64,
            "time": 110.371031604168,
            "value": 0
          },
          {
            "number": 64,
            "time": 110.37180320833467,
            "value": 1
          },
          {
            "number": 64,
            "time": 111.11177160416803,
            "value": 0
          },
          {
            "number": 64,
            "time": 111.1125432083347,
            "value": 1
          },
          {
            "number": 64,
            "time": 111.85251160416806,
            "value": 0
          },
          {
            "number": 64,
            "time": 111.85328320833473,
            "value": 1
          },
          {
            "number": 64,
            "time": 112.59325160416809,
            "value": 0
          },
          {
            "number": 64,
            "time": 112.59402320833476,
            "value": 1
          },
          {
            "number": 64,
            "time": 113.33399160416812,
            "value": 0
          },
          {
            "number": 64,
            "time": 113.33476320833479,
            "value": 1
          },
          {
            "number": 64,
            "time": 114.07473160416815,
            "value": 0
          },
          {
            "number": 64,
            "time": 114.07550320833482,
            "value": 1
          },
          {
            "number": 64,
            "time": 114.81547160416818,
            "value": 0
          },
          {
            "number": 64,
            "time": 114.81624320833485,
            "value": 1
          },
          {
            "number": 64,
            "time": 115.55621160416821,
            "value": 0
          },
          {
            "number": 64,
            "time": 115.55698320833488,
            "value": 1
          },
          {
            "number": 64,
            "time": 116.29695160416824,
            "value": 0
          },
          {
            "number": 64,
            "time": 116.29772320833492,
            "value": 1
          },
          {
            "number": 64,
            "time": 117.03769160416827,
            "value": 0
          },
          {
            "number": 64,
            "time": 117.03846320833495,
            "value": 1
          },
          {
            "number": 64,
            "time": 117.7784316041683,
            "value": 0
          },
          {
            "number": 64,
            "time": 117.77920320833498,
            "value": 1
          },
          {
            "number": 64,
            "time": 118.51917160416833,
            "value": 0
          },
          {
            "number": 64,
            "time": 118.51994320833501,
            "value": 1
          },
          {
            "number": 64,
            "time": 119.25991160416837,
            "value": 0
          },
          {
            "number": 64,
            "time": 119.26068320833504,
            "value": 1
          },
          {
            "number": 64,
            "time": 120.0006516041684,
            "value": 0
          },
          {
            "number": 64,
            "time": 120.00142320833507,
            "value": 1
          },
          {
            "number": 64,
            "time": 120.74139160416843,
            "value": 0
          },
          {
            "number": 64,
            "time": 120.7421632083351,
            "value": 1
          },
          {
            "number": 64,
            "time": 121.48213160416846,
            "value": 0
          },
          {
            "number": 64,
            "time": 121.48290320833513,
            "value": 1
          },
          {
            "number": 64,
            "time": 122.22287160416849,
            "value": 0
          },
          {
            "number": 64,
            "time": 122.22364320833516,
            "value": 1
          },
          {
            "number": 64,
            "time": 122.96361160416852,
            "value": 0
          },
          {
            "number": 64,
            "time": 122.96438320833519,
            "value": 1
          },
          {
            "number": 64,
            "time": 123.70435160416855,
            "value": 0
          },
          {
            "number": 64,
            "time": 123.70512320833522,
            "value": 1
          },
          {
            "number": 64,
            "time": 124.44509160416858,
            "value": 0
          },
          {
            "number": 64,
            "time": 124.44586320833525,
            "value": 1
          },
          {
            "number": 64,
            "time": 125.18583160416861,
            "value": 0
          },
          {
            "number": 64,
            "time": 125.18660320833528,
            "value": 1
          },
          {
            "number": 64,
            "time": 125.92657160416864,
            "value": 0
          },
          {
            "number": 64,
            "time": 125.92734320833532,
            "value": 1
          },
          {
            "number": 64,
            "time": 126.66731160416867,
            "value": 0
          },
          {
            "number": 64,
            "time": 126.66808320833535,
            "value": 1
          },
          {
            "number": 64,
            "time": 127.4080516041687,
            "value": 0
          },
          {
            "number": 64,
            "time": 127.40882320833538,
            "value": 1
          },
          {
            "number": 64,
            "time": 128.1487916041687,
            "value": 0
          },
          {
            "number": 64,
            "time": 128.14956320833537,
            "value": 1
          },
          {
            "number": 64,
            "time": 128.88953160416867,
            "value": 0
          },
          {
            "number": 64,
            "time": 128.89030320833533,
            "value": 1
          },
          {
            "number": 64,
            "time": 129.63027160416863,
            "value": 0
          },
          {
            "number": 64,
            "time": 129.63104320833529,
            "value": 1
          },
          {
            "number": 64,
            "time": 130.37101160416861,
            "value": 0
          }
        ]
      },
      "id": 1,
      "name": "Piano",
      "channelNumber": 0,
      "isPercussion": false
    }
  ]
};
