let json = {
  "header": {
    "PPQ": 384,
    "timeSignature": [
      4,
      4
    ],
    "bpm": 150,
    "name": ""
  },
  "tempo": [
    {
      "absoluteTime": 0,
      "seconds": 0,
      "bpm": 150
    }
  ],
  "timeSignature": [
    {
      "absoluteTime": 0,
      "seconds": 0,
      "numerator": 4,
      "denominator": 2,
      "click": 24,
      "notesQ": 8
    }
  ],
  "startTime": 0,
  "duration": 211.1999999999976,
  "tracks": [
    {
      "startTime": 0,
      "duration": 211.099999999994,
      "length": 1399,
      "notes": [
        {
          "name": "B1",
          "midi": 35,
          "time": 0,
          "velocity": 0.3937007874015748,
          "duration": 0.1
        },
        {
          "name": "B2",
          "midi": 47,
          "time": 0.2,
          "velocity": 0.3937007874015748,
          "duration": 0.10000000000000003
        },
        {
          "name": "F#2",
          "midi": 42,
          "time": 0.4,
          "velocity": 0.3937007874015748,
          "duration": 0.09999999999999998
        },
        {
          "name": "B2",
          "midi": 47,
          "time": 0.5,
          "velocity": 0.3937007874015748,
          "duration": 0.09999999999999998
        },
        {
          "name": "C#3",
          "midi": 49,
          "time": 0.6,
          "velocity": 0.3937007874015748,
          "duration": 0.09999999999999998
        },
        {
          "name": "B1",
          "midi": 35,
          "time": 0.7999999999999999,
          "velocity": 0.3937007874015748,
          "duration": 0.09999999999999998
        },
        {
          "name": "B2",
          "midi": 47,
          "time": 0.8999999999999999,
          "velocity": 0.3937007874015748,
          "duration": 0.09999999999999998
        },
        {
          "name": "B1",
          "midi": 35,
          "time": 1.0999999999999999,
          "velocity": 0.3937007874015748,
          "duration": 0.10000000000000009
        },
        {
          "name": "C#2",
          "midi": 37,
          "time": 1.2,
          "velocity": 0.3937007874015748,
          "duration": 0.10000000000000009
        },
        {
          "name": "F2",
          "midi": 41,
          "time": 1.4000000000000001,
          "velocity": 0.3937007874015748,
          "duration": 0.10000000000000009
        },
        {
          "name": "C#2",
          "midi": 37,
          "time": 1.6000000000000003,
          "velocity": 0.3937007874015748,
          "duration": 0.10000000000000009
        },
        {
          "name": "C#3",
          "midi": 49,
          "time": 1.8000000000000005,
          "velocity": 0.3937007874015748,
          "duration": 0.10000000000000009
        },
        {
          "name": "G#2",
          "midi": 44,
          "time": 2.0000000000000004,
          "velocity": 0.3937007874015748,
          "duration": 0.10000000000000009
        },
        {
          "name": "C#3",
          "midi": 49,
          "time": 2.1000000000000005,
          "velocity": 0.3937007874015748,
          "duration": 0.10000000000000009
        },
        {
          "name": "D#3",
          "midi": 51,
          "time": 2.2000000000000006,
          "velocity": 0.3937007874015748,
          "duration": 0.10000000000000009
        },
        {
          "name": "C#2",
          "midi": 37,
          "time": 2.400000000000001,
          "velocity": 0.3937007874015748,
          "duration": 0.10000000000000009
        },
        {
          "name": "C#3",
          "midi": 49,
          "time": 2.500000000000001,
          "velocity": 0.3937007874015748,
          "duration": 0.10000000000000009
        },
        {
          "name": "C#2",
          "midi": 37,
          "time": 2.700000000000001,
          "velocity": 0.3937007874015748,
          "duration": 0.10000000000000009
        },
        {
          "name": "G#2",
          "midi": 44,
          "time": 2.800000000000001,
          "velocity": 0.3937007874015748,
          "duration": 0.10000000000000009
        },
        {
          "name": "A#2",
          "midi": 46,
          "time": 3.0000000000000013,
          "velocity": 0.3937007874015748,
          "duration": 0.10000000000000009
        },
        {
          "name": "D#2",
          "midi": 39,
          "time": 3.2000000000000015,
          "velocity": 0.3937007874015748,
          "duration": 0.10000000000000009
        },
        {
          "name": "D#3",
          "midi": 51,
          "time": 3.4000000000000017,
          "velocity": 0.3937007874015748,
          "duration": 0.10000000000000009
        },
        {
          "name": "A#2",
          "midi": 46,
          "time": 3.600000000000002,
          "velocity": 0.3937007874015748,
          "duration": 0.10000000000000009
        },
        {
          "name": "D#3",
          "midi": 51,
          "time": 3.700000000000002,
          "velocity": 0.3937007874015748,
          "duration": 0.10000000000000009
        },
        {
          "name": "F3",
          "midi": 53,
          "time": 3.800000000000002,
          "velocity": 0.3937007874015748,
          "duration": 0.10000000000000009
        },
        {
          "name": "D#2",
          "midi": 39,
          "time": 4.000000000000002,
          "velocity": 0.3937007874015748,
          "duration": 0.09999999999999964
        },
        {
          "name": "D#3",
          "midi": 51,
          "time": 4.100000000000001,
          "velocity": 0.3937007874015748,
          "duration": 0.09999999999999964
        },
        {
          "name": "D#2",
          "midi": 39,
          "time": 4.300000000000001,
          "velocity": 0.3937007874015748,
          "duration": 0.09999999999999964
        },
        {
          "name": "F#2",
          "midi": 42,
          "time": 4.4,
          "velocity": 0.3937007874015748,
          "duration": 0.09999999999999964
        },
        {
          "name": "G#2",
          "midi": 44,
          "time": 4.6,
          "velocity": 0.3937007874015748,
          "duration": 0.09999999999999964
        },
        {
          "name": "D#2",
          "midi": 39,
          "time": 4.799999999999999,
          "velocity": 0.3937007874015748,
          "duration": 0.09999999999999964
        },
        {
          "name": "D#3",
          "midi": 51,
          "time": 4.999999999999998,
          "velocity": 0.3937007874015748,
          "duration": 0.09999999999999964
        },
        {
          "name": "A#2",
          "midi": 46,
          "time": 5.1999999999999975,
          "velocity": 0.3937007874015748,
          "duration": 0.09999999999999964
        },
        {
          "name": "D#3",
          "midi": 51,
          "time": 5.299999999999997,
          "velocity": 0.3937007874015748,
          "duration": 0.09999999999999964
        },
        {
          "name": "F3",
          "midi": 53,
          "time": 5.399999999999997,
          "velocity": 0.3937007874015748,
          "duration": 0.09999999999999964
        },
        {
          "name": "D#2",
          "midi": 39,
          "time": 5.599999999999996,
          "velocity": 0.3937007874015748,
          "duration": 0.09999999999999964
        },
        {
          "name": "D#3",
          "midi": 51,
          "time": 5.699999999999996,
          "velocity": 0.3937007874015748,
          "duration": 0.09999999999999964
        },
        {
          "name": "D#2",
          "midi": 39,
          "time": 5.899999999999995,
          "velocity": 0.3937007874015748,
          "duration": 0.09999999999999964
        },
        {
          "name": "F#2",
          "midi": 42,
          "time": 5.999999999999995,
          "velocity": 0.3937007874015748,
          "duration": 0.09999999999999964
        },
        {
          "name": "G#2",
          "midi": 44,
          "time": 6.199999999999994,
          "velocity": 0.3937007874015748,
          "duration": 0.09999999999999964
        },
        {
          "name": "B1",
          "midi": 35,
          "time": 6.399999999999993,
          "velocity": 0.3937007874015748,
          "duration": 0.09999999999999964
        },
        {
          "name": "B2",
          "midi": 47,
          "time": 6.5999999999999925,
          "velocity": 0.3937007874015748,
          "duration": 0.09999999999999964
        },
        {
          "name": "F#2",
          "midi": 42,
          "time": 6.799999999999992,
          "velocity": 0.3937007874015748,
          "duration": 0.09999999999999964
        },
        {
          "name": "B2",
          "midi": 47,
          "time": 6.8999999999999915,
          "velocity": 0.3937007874015748,
          "duration": 0.09999999999999964
        },
        {
          "name": "C#3",
          "midi": 49,
          "time": 6.999999999999991,
          "velocity": 0.3937007874015748,
          "duration": 0.09999999999999964
        },
        {
          "name": "B1",
          "midi": 35,
          "time": 7.19999999999999,
          "velocity": 0.3937007874015748,
          "duration": 0.09999999999999964
        },
        {
          "name": "B2",
          "midi": 47,
          "time": 7.29999999999999,
          "velocity": 0.3937007874015748,
          "duration": 0.09999999999999964
        },
        {
          "name": "B1",
          "midi": 35,
          "time": 7.499999999999989,
          "velocity": 0.3937007874015748,
          "duration": 0.09999999999999964
        },
        {
          "name": "C#2",
          "midi": 37,
          "time": 7.599999999999989,
          "velocity": 0.3937007874015748,
          "duration": 0.09999999999999964
        },
        {
          "name": "F2",
          "midi": 41,
          "time": 7.799999999999988,
          "velocity": 0.3937007874015748,
          "duration": 0.09999999999999964
        },
        {
          "name": "C#2",
          "midi": 37,
          "time": 7.999999999999988,
          "velocity": 0.3937007874015748,
          "duration": 0.09999999999999964
        },
        {
          "name": "C#3",
          "midi": 49,
          "time": 8.199999999999987,
          "velocity": 0.3937007874015748,
          "duration": 0.09999999999999964
        },
        {
          "name": "G#2",
          "midi": 44,
          "time": 8.399999999999986,
          "velocity": 0.3937007874015748,
          "duration": 0.09999999999999964
        },
        {
          "name": "C#3",
          "midi": 49,
          "time": 8.499999999999986,
          "velocity": 0.3937007874015748,
          "duration": 0.09999999999999964
        },
        {
          "name": "D#3",
          "midi": 51,
          "time": 8.599999999999985,
          "velocity": 0.3937007874015748,
          "duration": 0.09999999999999964
        },
        {
          "name": "C#2",
          "midi": 37,
          "time": 8.799999999999985,
          "velocity": 0.3937007874015748,
          "duration": 0.09999999999999964
        },
        {
          "name": "C#3",
          "midi": 49,
          "time": 8.899999999999984,
          "velocity": 0.3937007874015748,
          "duration": 0.09999999999999964
        },
        {
          "name": "C#2",
          "midi": 37,
          "time": 9.099999999999984,
          "velocity": 0.3937007874015748,
          "duration": 0.09999999999999964
        },
        {
          "name": "G#2",
          "midi": 44,
          "time": 9.199999999999983,
          "velocity": 0.3937007874015748,
          "duration": 0.09999999999999964
        },
        {
          "name": "A#2",
          "midi": 46,
          "time": 9.399999999999983,
          "velocity": 0.3937007874015748,
          "duration": 0.09999999999999964
        },
        {
          "name": "D#2",
          "midi": 39,
          "time": 9.599999999999982,
          "velocity": 0.3937007874015748,
          "duration": 0.09999999999999964
        },
        {
          "name": "D#3",
          "midi": 51,
          "time": 9.799999999999981,
          "velocity": 0.3937007874015748,
          "duration": 0.09999999999999964
        },
        {
          "name": "A#2",
          "midi": 46,
          "time": 9.99999999999998,
          "velocity": 0.3937007874015748,
          "duration": 0.09999999999999964
        },
        {
          "name": "D#3",
          "midi": 51,
          "time": 10.09999999999998,
          "velocity": 0.3937007874015748,
          "duration": 0.09999999999999964
        },
        {
          "name": "F3",
          "midi": 53,
          "time": 10.19999999999998,
          "velocity": 0.3937007874015748,
          "duration": 0.09999999999999964
        },
        {
          "name": "D#2",
          "midi": 39,
          "time": 10.399999999999979,
          "velocity": 0.3937007874015748,
          "duration": 0.09999999999999964
        },
        {
          "name": "D#3",
          "midi": 51,
          "time": 10.499999999999979,
          "velocity": 0.3937007874015748,
          "duration": 0.09999999999999964
        },
        {
          "name": "D#2",
          "midi": 39,
          "time": 10.699999999999978,
          "velocity": 0.3937007874015748,
          "duration": 0.09999999999999964
        },
        {
          "name": "F#2",
          "midi": 42,
          "time": 10.799999999999978,
          "velocity": 0.3937007874015748,
          "duration": 0.09999999999999964
        },
        {
          "name": "G#2",
          "midi": 44,
          "time": 10.999999999999977,
          "velocity": 0.3937007874015748,
          "duration": 0.09999999999999964
        },
        {
          "name": "D#2",
          "midi": 39,
          "time": 11.199999999999976,
          "velocity": 0.3937007874015748,
          "duration": 0.09999999999999964
        },
        {
          "name": "D#3",
          "midi": 51,
          "time": 11.399999999999975,
          "velocity": 0.3937007874015748,
          "duration": 0.09999999999999964
        },
        {
          "name": "A#2",
          "midi": 46,
          "time": 11.599999999999975,
          "velocity": 0.3937007874015748,
          "duration": 0.09999999999999964
        },
        {
          "name": "D#3",
          "midi": 51,
          "time": 11.699999999999974,
          "velocity": 0.3937007874015748,
          "duration": 0.09999999999999964
        },
        {
          "name": "F3",
          "midi": 53,
          "time": 11.799999999999974,
          "velocity": 0.3937007874015748,
          "duration": 0.09999999999999964
        },
        {
          "name": "D#2",
          "midi": 39,
          "time": 11.999999999999973,
          "velocity": 0.3937007874015748,
          "duration": 0.09999999999999964
        },
        {
          "name": "D#3",
          "midi": 51,
          "time": 12.099999999999973,
          "velocity": 0.3937007874015748,
          "duration": 0.09999999999999964
        },
        {
          "name": "D#2",
          "midi": 39,
          "time": 12.299999999999972,
          "velocity": 0.3937007874015748,
          "duration": 0.09999999999999964
        },
        {
          "name": "F#2",
          "midi": 42,
          "time": 12.399999999999972,
          "velocity": 0.3937007874015748,
          "duration": 0.09999999999999964
        },
        {
          "name": "G#2",
          "midi": 44,
          "time": 12.599999999999971,
          "velocity": 0.3937007874015748,
          "duration": 0.09999999999999964
        },
        {
          "name": "B3",
          "midi": 59,
          "time": 12.79999999999997,
          "velocity": 0.3937007874015748,
          "duration": 0.09999999999999964
        },
        {
          "name": "F#3",
          "midi": 54,
          "time": 12.79999999999997,
          "velocity": 0.3937007874015748,
          "duration": 0.09999999999999964
        },
        {
          "name": "B2",
          "midi": 47,
          "time": 12.99999999999997,
          "velocity": 0.3937007874015748,
          "duration": 0.09999999999999964
        },
        {
          "name": "B3",
          "midi": 59,
          "time": 13.199999999999969,
          "velocity": 0.3937007874015748,
          "duration": 0.09999999999999964
        },
        {
          "name": "D#4",
          "midi": 63,
          "time": 13.199999999999969,
          "velocity": 0.3937007874015748,
          "duration": 0.09999999999999964
        },
        {
          "name": "F#3",
          "midi": 54,
          "time": 13.399999999999968,
          "velocity": 0.3937007874015748,
          "duration": 0.09999999999999964
        },
        {
          "name": "F#3",
          "midi": 54,
          "time": 13.599999999999968,
          "velocity": 0.3937007874015748,
          "duration": 0.09999999999999964
        },
        {
          "name": "B2",
          "midi": 47,
          "time": 13.799999999999967,
          "velocity": 0.3937007874015748,
          "duration": 0.09999999999999964
        },
        {
          "name": "F#3",
          "midi": 54,
          "time": 13.999999999999966,
          "velocity": 0.3937007874015748,
          "duration": 0.09999999999999964
        },
        {
          "name": "B3",
          "midi": 59,
          "time": 13.999999999999966,
          "velocity": 0.3937007874015748,
          "duration": 0.09999999999999964
        },
        {
          "name": "B2",
          "midi": 47,
          "time": 14.199999999999966,
          "velocity": 0.3937007874015748,
          "duration": 0.09999999999999964
        },
        {
          "name": "C#4",
          "midi": 61,
          "time": 14.399999999999965,
          "velocity": 0.3937007874015748,
          "duration": 0.09999999999999964
        },
        {
          "name": "G#3",
          "midi": 56,
          "time": 14.399999999999965,
          "velocity": 0.3937007874015748,
          "duration": 0.09999999999999964
        },
        {
          "name": "C#3",
          "midi": 49,
          "time": 14.599999999999964,
          "velocity": 0.3937007874015748,
          "duration": 0.09999999999999964
        },
        {
          "name": "G#3",
          "midi": 56,
          "time": 14.799999999999963,
          "velocity": 0.3937007874015748,
          "duration": 0.09999999999999964
        },
        {
          "name": "C#4",
          "midi": 61,
          "time": 14.799999999999963,
          "velocity": 0.3937007874015748,
          "duration": 0.09999999999999964
        },
        {
          "name": "C#3",
          "midi": 49,
          "time": 14.999999999999963,
          "velocity": 0.3937007874015748,
          "duration": 0.09999999999999964
        },
        {
          "name": "G#3",
          "midi": 56,
          "time": 15.199999999999962,
          "velocity": 0.3937007874015748,
          "duration": 0.09999999999999964
        },
        {
          "name": "F3",
          "midi": 53,
          "time": 15.199999999999962,
          "velocity": 0.3937007874015748,
          "duration": 0.09999999999999964
        },
        {
          "name": "C#3",
          "midi": 49,
          "time": 15.399999999999961,
          "velocity": 0.3937007874015748,
          "duration": 0.09999999999999964
        },
        {
          "name": "G#3",
          "midi": 56,
          "time": 15.59999999999996,
          "velocity": 0.3937007874015748,
          "duration": 0.09999999999999964
        },
        {
          "name": "C#4",
          "midi": 61,
          "time": 15.59999999999996,
          "velocity": 0.3937007874015748,
          "duration": 0.09999999999999964
        },
        {
          "name": "C#3",
          "midi": 49,
          "time": 15.79999999999996,
          "velocity": 0.3937007874015748,
          "duration": 0.09999999999999964
        },
        {
          "name": "F#3",
          "midi": 54,
          "time": 15.99999999999996,
          "velocity": 0.3937007874015748,
          "duration": 0.09999999999999964
        },
        {
          "name": "A#3",
          "midi": 58,
          "time": 15.99999999999996,
          "velocity": 0.3937007874015748,
          "duration": 0.09999999999999964
        },
        {
          "name": "D#3",
          "midi": 51,
          "time": 16.19999999999996,
          "velocity": 0.3937007874015748,
          "duration": 0.10000000000000142
        },
        {
          "name": "D#3",
          "midi": 51,
          "time": 16.399999999999963,
          "velocity": 0.3937007874015748,
          "duration": 0.10000000000000142
        },
        {
          "name": "D#2",
          "midi": 39,
          "time": 16.599999999999966,
          "velocity": 0.3937007874015748,
          "duration": 0.10000000000000142
        },
        {
          "name": "D#3",
          "midi": 51,
          "time": 16.79999999999997,
          "velocity": 0.3937007874015748,
          "duration": 0.10000000000000142
        },
        {
          "name": "D#2",
          "midi": 39,
          "time": 16.99999999999997,
          "velocity": 0.3937007874015748,
          "duration": 0.10000000000000142
        },
        {
          "name": "F#3",
          "midi": 54,
          "time": 17.199999999999974,
          "velocity": 0.3937007874015748,
          "duration": 0.10000000000000142
        },
        {
          "name": "D#3",
          "midi": 51,
          "time": 17.399999999999977,
          "velocity": 0.3937007874015748,
          "duration": 0.10000000000000142
        },
        {
          "name": "F#3",
          "midi": 54,
          "time": 17.59999999999998,
          "velocity": 0.3937007874015748,
          "duration": 0.10000000000000142
        },
        {
          "name": "A#3",
          "midi": 58,
          "time": 17.59999999999998,
          "velocity": 0.3937007874015748,
          "duration": 0.10000000000000142
        },
        {
          "name": "D#3",
          "midi": 51,
          "time": 17.799999999999983,
          "velocity": 0.3937007874015748,
          "duration": 0.10000000000000142
        },
        {
          "name": "D#3",
          "midi": 51,
          "time": 17.999999999999986,
          "velocity": 0.3937007874015748,
          "duration": 0.10000000000000142
        },
        {
          "name": "D#2",
          "midi": 39,
          "time": 18.19999999999999,
          "velocity": 0.3937007874015748,
          "duration": 0.10000000000000142
        },
        {
          "name": "D#3",
          "midi": 51,
          "time": 18.39999999999999,
          "velocity": 0.3937007874015748,
          "duration": 0.10000000000000142
        },
        {
          "name": "D#2",
          "midi": 39,
          "time": 18.599999999999994,
          "velocity": 0.3937007874015748,
          "duration": 0.10000000000000142
        },
        {
          "name": "F#3",
          "midi": 54,
          "time": 18.799999999999997,
          "velocity": 0.3937007874015748,
          "duration": 0.10000000000000142
        },
        {
          "name": "D#3",
          "midi": 51,
          "time": 19,
          "velocity": 0.3937007874015748,
          "duration": 0.10000000000000142
        },
        {
          "name": "B3",
          "midi": 59,
          "time": 19.200000000000003,
          "velocity": 0.3937007874015748,
          "duration": 0.10000000000000142
        },
        {
          "name": "F#3",
          "midi": 54,
          "time": 19.200000000000003,
          "velocity": 0.3937007874015748,
          "duration": 0.10000000000000142
        },
        {
          "name": "B2",
          "midi": 47,
          "time": 19.400000000000006,
          "velocity": 0.3937007874015748,
          "duration": 0.10000000000000142
        },
        {
          "name": "B3",
          "midi": 59,
          "time": 19.60000000000001,
          "velocity": 0.3937007874015748,
          "duration": 0.10000000000000142
        },
        {
          "name": "D#4",
          "midi": 63,
          "time": 19.60000000000001,
          "velocity": 0.3937007874015748,
          "duration": 0.10000000000000142
        },
        {
          "name": "F#3",
          "midi": 54,
          "time": 19.80000000000001,
          "velocity": 0.3937007874015748,
          "duration": 0.10000000000000142
        },
        {
          "name": "F#3",
          "midi": 54,
          "time": 20.000000000000014,
          "velocity": 0.3937007874015748,
          "duration": 0.10000000000000142
        },
        {
          "name": "B2",
          "midi": 47,
          "time": 20.200000000000017,
          "velocity": 0.3937007874015748,
          "duration": 0.10000000000000142
        },
        {
          "name": "F#3",
          "midi": 54,
          "time": 20.40000000000002,
          "velocity": 0.3937007874015748,
          "duration": 0.10000000000000142
        },
        {
          "name": "B3",
          "midi": 59,
          "time": 20.40000000000002,
          "velocity": 0.3937007874015748,
          "duration": 0.10000000000000142
        },
        {
          "name": "B2",
          "midi": 47,
          "time": 20.600000000000023,
          "velocity": 0.3937007874015748,
          "duration": 0.10000000000000142
        },
        {
          "name": "C#4",
          "midi": 61,
          "time": 20.800000000000026,
          "velocity": 0.3937007874015748,
          "duration": 0.10000000000000142
        },
        {
          "name": "G#3",
          "midi": 56,
          "time": 20.800000000000026,
          "velocity": 0.3937007874015748,
          "duration": 0.10000000000000142
        },
        {
          "name": "C#3",
          "midi": 49,
          "time": 21.00000000000003,
          "velocity": 0.3937007874015748,
          "duration": 0.10000000000000142
        },
        {
          "name": "G#3",
          "midi": 56,
          "time": 21.20000000000003,
          "velocity": 0.3937007874015748,
          "duration": 0.10000000000000142
        },
        {
          "name": "C#4",
          "midi": 61,
          "time": 21.20000000000003,
          "velocity": 0.3937007874015748,
          "duration": 0.10000000000000142
        },
        {
          "name": "C#3",
          "midi": 49,
          "time": 21.400000000000034,
          "velocity": 0.3937007874015748,
          "duration": 0.10000000000000142
        },
        {
          "name": "G#3",
          "midi": 56,
          "time": 21.600000000000037,
          "velocity": 0.3937007874015748,
          "duration": 0.10000000000000142
        },
        {
          "name": "F3",
          "midi": 53,
          "time": 21.600000000000037,
          "velocity": 0.3937007874015748,
          "duration": 0.10000000000000142
        },
        {
          "name": "C#3",
          "midi": 49,
          "time": 21.80000000000004,
          "velocity": 0.3937007874015748,
          "duration": 0.10000000000000142
        },
        {
          "name": "G#3",
          "midi": 56,
          "time": 22.000000000000043,
          "velocity": 0.3937007874015748,
          "duration": 0.10000000000000142
        },
        {
          "name": "C#4",
          "midi": 61,
          "time": 22.000000000000043,
          "velocity": 0.3937007874015748,
          "duration": 0.10000000000000142
        },
        {
          "name": "C#3",
          "midi": 49,
          "time": 22.200000000000045,
          "velocity": 0.3937007874015748,
          "duration": 0.10000000000000142
        },
        {
          "name": "D4",
          "midi": 62,
          "time": 22.40000000000005,
          "velocity": 0.3937007874015748,
          "duration": 0.10000000000000142
        },
        {
          "name": "G#3",
          "midi": 56,
          "time": 22.40000000000005,
          "velocity": 0.3937007874015748,
          "duration": 0.10000000000000142
        },
        {
          "name": "F3",
          "midi": 53,
          "time": 22.60000000000005,
          "velocity": 0.3937007874015748,
          "duration": 0.10000000000000142
        },
        {
          "name": "F3",
          "midi": 53,
          "time": 22.800000000000054,
          "velocity": 0.3937007874015748,
          "duration": 0.10000000000000142
        },
        {
          "name": "A#3",
          "midi": 58,
          "time": 22.800000000000054,
          "velocity": 0.3937007874015748,
          "duration": 0.10000000000000142
        },
        {
          "name": "A#2",
          "midi": 46,
          "time": 23.000000000000057,
          "velocity": 0.3937007874015748,
          "duration": 0.10000000000000142
        },
        {
          "name": "F3",
          "midi": 53,
          "time": 23.20000000000006,
          "velocity": 0.3937007874015748,
          "duration": 0.10000000000000142
        },
        {
          "name": "A#3",
          "midi": 58,
          "time": 23.20000000000006,
          "velocity": 0.3937007874015748,
          "duration": 0.10000000000000142
        },
        {
          "name": "A#2",
          "midi": 46,
          "time": 23.400000000000063,
          "velocity": 0.3937007874015748,
          "duration": 0.10000000000000142
        },
        {
          "name": "G#3",
          "midi": 56,
          "time": 23.600000000000065,
          "velocity": 0.3937007874015748,
          "duration": 0.10000000000000142
        },
        {
          "name": "D4",
          "midi": 62,
          "time": 23.600000000000065,
          "velocity": 0.3937007874015748,
          "duration": 0.10000000000000142
        },
        {
          "name": "F3",
          "midi": 53,
          "time": 23.800000000000068,
          "velocity": 0.3937007874015748,
          "duration": 0.10000000000000142
        },
        {
          "name": "D4",
          "midi": 62,
          "time": 24.00000000000007,
          "velocity": 0.3937007874015748,
          "duration": 0.10000000000000142
        },
        {
          "name": "G#3",
          "midi": 56,
          "time": 24.00000000000007,
          "velocity": 0.3937007874015748,
          "duration": 0.10000000000000142
        },
        {
          "name": "F3",
          "midi": 53,
          "time": 24.200000000000074,
          "velocity": 0.3937007874015748,
          "duration": 0.10000000000000142
        },
        {
          "name": "F3",
          "midi": 53,
          "time": 24.400000000000077,
          "velocity": 0.3937007874015748,
          "duration": 0.10000000000000142
        },
        {
          "name": "A#3",
          "midi": 58,
          "time": 24.400000000000077,
          "velocity": 0.3937007874015748,
          "duration": 0.10000000000000142
        },
        {
          "name": "A#2",
          "midi": 46,
          "time": 24.60000000000008,
          "velocity": 0.3937007874015748,
          "duration": 0.10000000000000142
        },
        {
          "name": "F3",
          "midi": 53,
          "time": 24.800000000000082,
          "velocity": 0.3937007874015748,
          "duration": 0.10000000000000142
        },
        {
          "name": "D3",
          "midi": 50,
          "time": 24.800000000000082,
          "velocity": 0.3937007874015748,
          "duration": 0.10000000000000142
        },
        {
          "name": "A#2",
          "midi": 46,
          "time": 25.000000000000085,
          "velocity": 0.3937007874015748,
          "duration": 0.10000000000000142
        },
        {
          "name": "A#3",
          "midi": 58,
          "time": 25.200000000000088,
          "velocity": 0.3937007874015748,
          "duration": 0.10000000000000142
        },
        {
          "name": "F3",
          "midi": 53,
          "time": 25.200000000000088,
          "velocity": 0.3937007874015748,
          "duration": 0.10000000000000142
        },
        {
          "name": "A#2",
          "midi": 46,
          "time": 25.40000000000009,
          "velocity": 0.3937007874015748,
          "duration": 0.10000000000000142
        },
        {
          "name": "A#3",
          "midi": 58,
          "time": 25.600000000000094,
          "velocity": 0.3937007874015748,
          "duration": 0.10000000000000142
        },
        {
          "name": "D#2",
          "midi": 39,
          "time": 32.0000000000001,
          "velocity": 0.3937007874015748,
          "duration": 0.10000000000000142
        },
        {
          "name": "D#3",
          "midi": 51,
          "time": 32.2000000000001,
          "velocity": 0.3937007874015748,
          "duration": 0.10000000000000142
        },
        {
          "name": "A#2",
          "midi": 46,
          "time": 32.400000000000105,
          "velocity": 0.3937007874015748,
          "duration": 0.10000000000000142
        },
        {
          "name": "D#3",
          "midi": 51,
          "time": 32.50000000000011,
          "velocity": 0.3937007874015748,
          "duration": 0.10000000000000142
        },
        {
          "name": "F3",
          "midi": 53,
          "time": 32.60000000000011,
          "velocity": 0.3937007874015748,
          "duration": 0.10000000000000142
        },
        {
          "name": "D#2",
          "midi": 39,
          "time": 32.80000000000011,
          "velocity": 0.3937007874015748,
          "duration": 0.10000000000000142
        },
        {
          "name": "D#3",
          "midi": 51,
          "time": 32.90000000000011,
          "velocity": 0.3937007874015748,
          "duration": 0.10000000000000142
        },
        {
          "name": "D#2",
          "midi": 39,
          "time": 33.100000000000115,
          "velocity": 0.3937007874015748,
          "duration": 0.10000000000000142
        },
        {
          "name": "A#2",
          "midi": 46,
          "time": 33.20000000000012,
          "velocity": 0.3937007874015748,
          "duration": 0.10000000000000142
        },
        {
          "name": "C#3",
          "midi": 49,
          "time": 33.40000000000012,
          "velocity": 0.3937007874015748,
          "duration": 0.10000000000000142
        },
        {
          "name": "D#2",
          "midi": 39,
          "time": 33.60000000000012,
          "velocity": 0.3937007874015748,
          "duration": 0.10000000000000142
        },
        {
          "name": "D#3",
          "midi": 51,
          "time": 33.800000000000125,
          "velocity": 0.3937007874015748,
          "duration": 0.10000000000000142
        },
        {
          "name": "A#2",
          "midi": 46,
          "time": 34.00000000000013,
          "velocity": 0.3937007874015748,
          "duration": 0.10000000000000142
        },
        {
          "name": "D#3",
          "midi": 51,
          "time": 34.10000000000013,
          "velocity": 0.3937007874015748,
          "duration": 0.10000000000000142
        },
        {
          "name": "F3",
          "midi": 53,
          "time": 34.20000000000013,
          "velocity": 0.3937007874015748,
          "duration": 0.10000000000000142
        },
        {
          "name": "D#2",
          "midi": 39,
          "time": 34.400000000000134,
          "velocity": 0.3937007874015748,
          "duration": 0.10000000000000142
        },
        {
          "name": "D#3",
          "midi": 51,
          "time": 34.500000000000135,
          "velocity": 0.3937007874015748,
          "duration": 0.10000000000000142
        },
        {
          "name": "D#2",
          "midi": 39,
          "time": 34.70000000000014,
          "velocity": 0.3937007874015748,
          "duration": 0.10000000000000142
        },
        {
          "name": "A#2",
          "midi": 46,
          "time": 34.80000000000014,
          "velocity": 0.3937007874015748,
          "duration": 0.10000000000000142
        },
        {
          "name": "C#3",
          "midi": 49,
          "time": 35.00000000000014,
          "velocity": 0.3937007874015748,
          "duration": 0.10000000000000142
        },
        {
          "name": "B1",
          "midi": 35,
          "time": 35.200000000000145,
          "velocity": 0.3937007874015748,
          "duration": 0.10000000000000142
        },
        {
          "name": "B2",
          "midi": 47,
          "time": 35.40000000000015,
          "velocity": 0.3937007874015748,
          "duration": 0.10000000000000142
        },
        {
          "name": "F#2",
          "midi": 42,
          "time": 35.60000000000015,
          "velocity": 0.3937007874015748,
          "duration": 0.10000000000000142
        },
        {
          "name": "B2",
          "midi": 47,
          "time": 35.70000000000015,
          "velocity": 0.3937007874015748,
          "duration": 0.10000000000000142
        },
        {
          "name": "C#3",
          "midi": 49,
          "time": 35.80000000000015,
          "velocity": 0.3937007874015748,
          "duration": 0.10000000000000142
        },
        {
          "name": "B1",
          "midi": 35,
          "time": 36.000000000000156,
          "velocity": 0.3937007874015748,
          "duration": 0.10000000000000142
        },
        {
          "name": "B2",
          "midi": 47,
          "time": 36.10000000000016,
          "velocity": 0.3937007874015748,
          "duration": 0.10000000000000142
        },
        {
          "name": "B1",
          "midi": 35,
          "time": 36.30000000000016,
          "velocity": 0.3937007874015748,
          "duration": 0.10000000000000142
        },
        {
          "name": "F#2",
          "midi": 42,
          "time": 36.40000000000016,
          "velocity": 0.3937007874015748,
          "duration": 0.10000000000000142
        },
        {
          "name": "G#2",
          "midi": 44,
          "time": 36.600000000000165,
          "velocity": 0.3937007874015748,
          "duration": 0.10000000000000142
        },
        {
          "name": "B1",
          "midi": 35,
          "time": 36.80000000000017,
          "velocity": 0.3937007874015748,
          "duration": 0.10000000000000142
        },
        {
          "name": "B2",
          "midi": 47,
          "time": 37.00000000000017,
          "velocity": 0.3937007874015748,
          "duration": 0.10000000000000142
        },
        {
          "name": "F#2",
          "midi": 42,
          "time": 37.20000000000017,
          "velocity": 0.3937007874015748,
          "duration": 0.10000000000000142
        },
        {
          "name": "B2",
          "midi": 47,
          "time": 37.300000000000175,
          "velocity": 0.3937007874015748,
          "duration": 0.10000000000000142
        },
        {
          "name": "C#3",
          "midi": 49,
          "time": 37.400000000000176,
          "velocity": 0.3937007874015748,
          "duration": 0.10000000000000142
        },
        {
          "name": "B1",
          "midi": 35,
          "time": 37.60000000000018,
          "velocity": 0.3937007874015748,
          "duration": 0.10000000000000142
        },
        {
          "name": "B2",
          "midi": 47,
          "time": 37.80000000000018,
          "velocity": 0.3937007874015748,
          "duration": 0.10000000000000142
        },
        {
          "name": "B1",
          "midi": 35,
          "time": 38.000000000000185,
          "velocity": 0.3937007874015748,
          "duration": 0.10000000000000142
        },
        {
          "name": "B2",
          "midi": 47,
          "time": 38.20000000000019,
          "velocity": 0.3937007874015748,
          "duration": 0.10000000000000142
        },
        {
          "name": "D#2",
          "midi": 39,
          "time": 38.40000000000019,
          "velocity": 0.3937007874015748,
          "duration": 0.10000000000000142
        },
        {
          "name": "D#3",
          "midi": 51,
          "time": 38.60000000000019,
          "velocity": 0.3937007874015748,
          "duration": 0.10000000000000142
        },
        {
          "name": "A#2",
          "midi": 46,
          "time": 38.800000000000196,
          "velocity": 0.3937007874015748,
          "duration": 0.10000000000000142
        },
        {
          "name": "D#3",
          "midi": 51,
          "time": 38.9000000000002,
          "velocity": 0.3937007874015748,
          "duration": 0.10000000000000142
        },
        {
          "name": "F3",
          "midi": 53,
          "time": 39.0000000000002,
          "velocity": 0.3937007874015748,
          "duration": 0.10000000000000142
        },
        {
          "name": "D#2",
          "midi": 39,
          "time": 39.2000000000002,
          "velocity": 0.3937007874015748,
          "duration": 0.10000000000000142
        },
        {
          "name": "D#3",
          "midi": 51,
          "time": 39.3000000000002,
          "velocity": 0.3937007874015748,
          "duration": 0.10000000000000142
        },
        {
          "name": "D#2",
          "midi": 39,
          "time": 39.500000000000206,
          "velocity": 0.3937007874015748,
          "duration": 0.10000000000000142
        },
        {
          "name": "A#2",
          "midi": 46,
          "time": 39.60000000000021,
          "velocity": 0.3937007874015748,
          "duration": 0.10000000000000142
        },
        {
          "name": "C#3",
          "midi": 49,
          "time": 39.80000000000021,
          "velocity": 0.3937007874015748,
          "duration": 0.10000000000000142
        },
        {
          "name": "D#2",
          "midi": 39,
          "time": 40.00000000000021,
          "velocity": 0.3937007874015748,
          "duration": 0.10000000000000142
        },
        {
          "name": "D#3",
          "midi": 51,
          "time": 40.200000000000216,
          "velocity": 0.3937007874015748,
          "duration": 0.10000000000000142
        },
        {
          "name": "A#2",
          "midi": 46,
          "time": 40.40000000000022,
          "velocity": 0.3937007874015748,
          "duration": 0.10000000000000142
        },
        {
          "name": "D#3",
          "midi": 51,
          "time": 40.50000000000022,
          "velocity": 0.3937007874015748,
          "duration": 0.10000000000000142
        },
        {
          "name": "F3",
          "midi": 53,
          "time": 40.60000000000022,
          "velocity": 0.3937007874015748,
          "duration": 0.10000000000000142
        },
        {
          "name": "D#2",
          "midi": 39,
          "time": 40.800000000000225,
          "velocity": 0.3937007874015748,
          "duration": 0.10000000000000142
        },
        {
          "name": "D#3",
          "midi": 51,
          "time": 40.900000000000226,
          "velocity": 0.3937007874015748,
          "duration": 0.10000000000000142
        },
        {
          "name": "D#2",
          "midi": 39,
          "time": 41.10000000000023,
          "velocity": 0.3937007874015748,
          "duration": 0.10000000000000142
        },
        {
          "name": "A#2",
          "midi": 46,
          "time": 41.20000000000023,
          "velocity": 0.3937007874015748,
          "duration": 0.10000000000000142
        },
        {
          "name": "C#3",
          "midi": 49,
          "time": 41.40000000000023,
          "velocity": 0.3937007874015748,
          "duration": 0.10000000000000142
        },
        {
          "name": "B1",
          "midi": 35,
          "time": 41.600000000000236,
          "velocity": 0.3937007874015748,
          "duration": 0.10000000000000142
        },
        {
          "name": "B2",
          "midi": 47,
          "time": 41.80000000000024,
          "velocity": 0.3937007874015748,
          "duration": 0.10000000000000142
        },
        {
          "name": "F#2",
          "midi": 42,
          "time": 42.00000000000024,
          "velocity": 0.3937007874015748,
          "duration": 0.10000000000000142
        },
        {
          "name": "B2",
          "midi": 47,
          "time": 42.10000000000024,
          "velocity": 0.3937007874015748,
          "duration": 0.10000000000000142
        },
        {
          "name": "C#3",
          "midi": 49,
          "time": 42.200000000000244,
          "velocity": 0.3937007874015748,
          "duration": 0.10000000000000142
        },
        {
          "name": "B1",
          "midi": 35,
          "time": 42.40000000000025,
          "velocity": 0.3937007874015748,
          "duration": 0.10000000000000142
        },
        {
          "name": "B2",
          "midi": 47,
          "time": 42.50000000000025,
          "velocity": 0.3937007874015748,
          "duration": 0.10000000000000142
        },
        {
          "name": "B1",
          "midi": 35,
          "time": 42.70000000000025,
          "velocity": 0.3937007874015748,
          "duration": 0.10000000000000142
        },
        {
          "name": "F#2",
          "midi": 42,
          "time": 42.80000000000025,
          "velocity": 0.3937007874015748,
          "duration": 0.10000000000000142
        },
        {
          "name": "G#2",
          "midi": 44,
          "time": 43.000000000000256,
          "velocity": 0.3937007874015748,
          "duration": 0.10000000000000142
        },
        {
          "name": "B1",
          "midi": 35,
          "time": 43.20000000000026,
          "velocity": 0.3937007874015748,
          "duration": 0.10000000000000142
        },
        {
          "name": "B2",
          "midi": 47,
          "time": 43.40000000000026,
          "velocity": 0.3937007874015748,
          "duration": 0.10000000000000142
        },
        {
          "name": "F#2",
          "midi": 42,
          "time": 43.600000000000264,
          "velocity": 0.3937007874015748,
          "duration": 0.10000000000000142
        },
        {
          "name": "B2",
          "midi": 47,
          "time": 43.700000000000266,
          "velocity": 0.3937007874015748,
          "duration": 0.10000000000000142
        },
        {
          "name": "C#3",
          "midi": 49,
          "time": 43.80000000000027,
          "velocity": 0.3937007874015748,
          "duration": 0.10000000000000142
        },
        {
          "name": "B1",
          "midi": 35,
          "time": 44.00000000000027,
          "velocity": 0.3937007874015748,
          "duration": 0.10000000000000142
        },
        {
          "name": "B2",
          "midi": 47,
          "time": 44.20000000000027,
          "velocity": 0.3937007874015748,
          "duration": 0.10000000000000142
        },
        {
          "name": "B1",
          "midi": 35,
          "time": 44.400000000000276,
          "velocity": 0.3937007874015748,
          "duration": 0.10000000000000142
        },
        {
          "name": "B2",
          "midi": 47,
          "time": 44.60000000000028,
          "velocity": 0.3937007874015748,
          "duration": 0.10000000000000142
        },
        {
          "name": "D#2",
          "midi": 39,
          "time": 44.80000000000028,
          "velocity": 0.3937007874015748,
          "duration": 0.10000000000000142
        },
        {
          "name": "D#3",
          "midi": 51,
          "time": 45.000000000000284,
          "velocity": 0.3937007874015748,
          "duration": 0.10000000000000142
        },
        {
          "name": "A#2",
          "midi": 46,
          "time": 45.20000000000029,
          "velocity": 0.3937007874015748,
          "duration": 0.10000000000000142
        },
        {
          "name": "D#3",
          "midi": 51,
          "time": 45.30000000000029,
          "velocity": 0.3937007874015748,
          "duration": 0.10000000000000142
        },
        {
          "name": "F3",
          "midi": 53,
          "time": 45.40000000000029,
          "velocity": 0.3937007874015748,
          "duration": 0.10000000000000142
        },
        {
          "name": "D#2",
          "midi": 39,
          "time": 45.60000000000029,
          "velocity": 0.3937007874015748,
          "duration": 0.10000000000000142
        },
        {
          "name": "D#3",
          "midi": 51,
          "time": 45.700000000000294,
          "velocity": 0.3937007874015748,
          "duration": 0.10000000000000142
        },
        {
          "name": "D#2",
          "midi": 39,
          "time": 45.9000000000003,
          "velocity": 0.3937007874015748,
          "duration": 0.10000000000000142
        },
        {
          "name": "A#2",
          "midi": 46,
          "time": 46.0000000000003,
          "velocity": 0.3937007874015748,
          "duration": 0.10000000000000142
        },
        {
          "name": "C#3",
          "midi": 49,
          "time": 46.2000000000003,
          "velocity": 0.3937007874015748,
          "duration": 0.10000000000000142
        },
        {
          "name": "D#2",
          "midi": 39,
          "time": 46.400000000000304,
          "velocity": 0.3937007874015748,
          "duration": 0.10000000000000142
        },
        {
          "name": "D#3",
          "midi": 51,
          "time": 46.60000000000031,
          "velocity": 0.3937007874015748,
          "duration": 0.10000000000000142
        },
        {
          "name": "A#2",
          "midi": 46,
          "time": 46.80000000000031,
          "velocity": 0.3937007874015748,
          "duration": 0.10000000000000142
        },
        {
          "name": "D#3",
          "midi": 51,
          "time": 46.90000000000031,
          "velocity": 0.3937007874015748,
          "duration": 0.10000000000000142
        },
        {
          "name": "F3",
          "midi": 53,
          "time": 47.00000000000031,
          "velocity": 0.3937007874015748,
          "duration": 0.10000000000000142
        },
        {
          "name": "D#2",
          "midi": 39,
          "time": 47.200000000000315,
          "velocity": 0.3937007874015748,
          "duration": 0.10000000000000142
        },
        {
          "name": "D#3",
          "midi": 51,
          "time": 47.30000000000032,
          "velocity": 0.3937007874015748,
          "duration": 0.10000000000000142
        },
        {
          "name": "D#2",
          "midi": 39,
          "time": 47.50000000000032,
          "velocity": 0.3937007874015748,
          "duration": 0.10000000000000142
        },
        {
          "name": "A#2",
          "midi": 46,
          "time": 47.60000000000032,
          "velocity": 0.3937007874015748,
          "duration": 0.10000000000000142
        },
        {
          "name": "C#3",
          "midi": 49,
          "time": 47.800000000000324,
          "velocity": 0.3937007874015748,
          "duration": 0.10000000000000142
        },
        {
          "name": "B1",
          "midi": 35,
          "time": 48.00000000000033,
          "velocity": 0.3937007874015748,
          "duration": 0.10000000000000142
        },
        {
          "name": "B2",
          "midi": 47,
          "time": 48.20000000000033,
          "velocity": 0.3937007874015748,
          "duration": 0.10000000000000142
        },
        {
          "name": "F#2",
          "midi": 42,
          "time": 48.40000000000033,
          "velocity": 0.3937007874015748,
          "duration": 0.10000000000000142
        },
        {
          "name": "B2",
          "midi": 47,
          "time": 48.500000000000334,
          "velocity": 0.3937007874015748,
          "duration": 0.10000000000000142
        },
        {
          "name": "C#3",
          "midi": 49,
          "time": 48.600000000000335,
          "velocity": 0.3937007874015748,
          "duration": 0.10000000000000142
        },
        {
          "name": "B1",
          "midi": 35,
          "time": 48.80000000000034,
          "velocity": 0.3937007874015748,
          "duration": 0.10000000000000142
        },
        {
          "name": "B2",
          "midi": 47,
          "time": 48.90000000000034,
          "velocity": 0.3937007874015748,
          "duration": 0.10000000000000142
        },
        {
          "name": "B1",
          "midi": 35,
          "time": 49.10000000000034,
          "velocity": 0.3937007874015748,
          "duration": 0.10000000000000142
        },
        {
          "name": "F#2",
          "midi": 42,
          "time": 49.200000000000344,
          "velocity": 0.3937007874015748,
          "duration": 0.10000000000000142
        },
        {
          "name": "G#2",
          "midi": 44,
          "time": 49.40000000000035,
          "velocity": 0.3937007874015748,
          "duration": 0.10000000000000142
        },
        {
          "name": "B1",
          "midi": 35,
          "time": 49.60000000000035,
          "velocity": 0.3937007874015748,
          "duration": 0.10000000000000142
        },
        {
          "name": "B2",
          "midi": 47,
          "time": 49.80000000000035,
          "velocity": 0.3937007874015748,
          "duration": 0.10000000000000142
        },
        {
          "name": "F#2",
          "midi": 42,
          "time": 50.000000000000355,
          "velocity": 0.3937007874015748,
          "duration": 0.10000000000000142
        },
        {
          "name": "B2",
          "midi": 47,
          "time": 50.10000000000036,
          "velocity": 0.3937007874015748,
          "duration": 0.10000000000000142
        },
        {
          "name": "C#3",
          "midi": 49,
          "time": 50.20000000000036,
          "velocity": 0.3937007874015748,
          "duration": 0.10000000000000142
        },
        {
          "name": "B1",
          "midi": 35,
          "time": 50.40000000000036,
          "velocity": 0.3937007874015748,
          "duration": 0.10000000000000142
        },
        {
          "name": "B2",
          "midi": 47,
          "time": 50.600000000000364,
          "velocity": 0.3937007874015748,
          "duration": 0.10000000000000142
        },
        {
          "name": "B1",
          "midi": 35,
          "time": 50.80000000000037,
          "velocity": 0.3937007874015748,
          "duration": 0.10000000000000142
        },
        {
          "name": "B2",
          "midi": 47,
          "time": 51.00000000000037,
          "velocity": 0.3937007874015748,
          "duration": 0.10000000000000142
        },
        {
          "name": "D#2",
          "midi": 39,
          "time": 51.20000000000037,
          "velocity": 0.3937007874015748,
          "duration": 0.10000000000000142
        },
        {
          "name": "D#3",
          "midi": 51,
          "time": 51.400000000000375,
          "velocity": 0.3937007874015748,
          "duration": 0.10000000000000142
        },
        {
          "name": "A#2",
          "midi": 46,
          "time": 51.60000000000038,
          "velocity": 0.3937007874015748,
          "duration": 0.10000000000000142
        },
        {
          "name": "D#3",
          "midi": 51,
          "time": 51.70000000000038,
          "velocity": 0.3937007874015748,
          "duration": 0.10000000000000142
        },
        {
          "name": "F3",
          "midi": 53,
          "time": 51.80000000000038,
          "velocity": 0.3937007874015748,
          "duration": 0.10000000000000142
        },
        {
          "name": "D#2",
          "midi": 39,
          "time": 52.000000000000384,
          "velocity": 0.3937007874015748,
          "duration": 0.10000000000000142
        },
        {
          "name": "D#3",
          "midi": 51,
          "time": 52.100000000000385,
          "velocity": 0.3937007874015748,
          "duration": 0.10000000000000142
        },
        {
          "name": "D#2",
          "midi": 39,
          "time": 52.30000000000039,
          "velocity": 0.3937007874015748,
          "duration": 0.10000000000000142
        },
        {
          "name": "A#2",
          "midi": 46,
          "time": 52.40000000000039,
          "velocity": 0.3937007874015748,
          "duration": 0.10000000000000142
        },
        {
          "name": "C#3",
          "midi": 49,
          "time": 52.60000000000039,
          "velocity": 0.3937007874015748,
          "duration": 0.10000000000000142
        },
        {
          "name": "D#2",
          "midi": 39,
          "time": 52.800000000000395,
          "velocity": 0.3937007874015748,
          "duration": 0.10000000000000142
        },
        {
          "name": "D#3",
          "midi": 51,
          "time": 53.0000000000004,
          "velocity": 0.3937007874015748,
          "duration": 0.10000000000000142
        },
        {
          "name": "A#2",
          "midi": 46,
          "time": 53.2000000000004,
          "velocity": 0.3937007874015748,
          "duration": 0.10000000000000142
        },
        {
          "name": "D#3",
          "midi": 51,
          "time": 53.3000000000004,
          "velocity": 0.3937007874015748,
          "duration": 0.10000000000000142
        },
        {
          "name": "F3",
          "midi": 53,
          "time": 53.400000000000404,
          "velocity": 0.3937007874015748,
          "duration": 0.10000000000000142
        },
        {
          "name": "F3",
          "midi": 53,
          "time": 53.400000000000404,
          "velocity": 0.3937007874015748,
          "duration": 0.10000000000000142
        },
        {
          "name": "D#2",
          "midi": 39,
          "time": 53.600000000000406,
          "velocity": 0.3937007874015748,
          "duration": 0.10000000000000142
        },
        {
          "name": "D#3",
          "midi": 51,
          "time": 53.70000000000041,
          "velocity": 0.3937007874015748,
          "duration": 0.10000000000000142
        },
        {
          "name": "D#2",
          "midi": 39,
          "time": 53.90000000000041,
          "velocity": 0.3937007874015748,
          "duration": 0.10000000000000142
        },
        {
          "name": "A#2",
          "midi": 46,
          "time": 54.00000000000041,
          "velocity": 0.3937007874015748,
          "duration": 0.10000000000000142
        },
        {
          "name": "C#3",
          "midi": 49,
          "time": 54.200000000000415,
          "velocity": 0.3937007874015748,
          "duration": 0.10000000000000142
        },
        {
          "name": "B1",
          "midi": 35,
          "time": 54.40000000000042,
          "velocity": 0.3937007874015748,
          "duration": 0.10000000000000142
        },
        {
          "name": "B2",
          "midi": 47,
          "time": 54.60000000000042,
          "velocity": 0.3937007874015748,
          "duration": 0.10000000000000142
        },
        {
          "name": "F#2",
          "midi": 42,
          "time": 54.80000000000042,
          "velocity": 0.3937007874015748,
          "duration": 0.10000000000000142
        },
        {
          "name": "B2",
          "midi": 47,
          "time": 54.900000000000425,
          "velocity": 0.3937007874015748,
          "duration": 0.10000000000000142
        },
        {
          "name": "C#3",
          "midi": 49,
          "time": 55.000000000000426,
          "velocity": 0.3937007874015748,
          "duration": 0.10000000000000142
        },
        {
          "name": "B1",
          "midi": 35,
          "time": 55.20000000000043,
          "velocity": 0.3937007874015748,
          "duration": 0.10000000000000142
        },
        {
          "name": "B2",
          "midi": 47,
          "time": 55.30000000000043,
          "velocity": 0.3937007874015748,
          "duration": 0.10000000000000142
        },
        {
          "name": "B1",
          "midi": 35,
          "time": 55.50000000000043,
          "velocity": 0.3937007874015748,
          "duration": 0.10000000000000142
        },
        {
          "name": "F#2",
          "midi": 42,
          "time": 55.600000000000435,
          "velocity": 0.3937007874015748,
          "duration": 0.10000000000000142
        },
        {
          "name": "G#2",
          "midi": 44,
          "time": 55.80000000000044,
          "velocity": 0.3937007874015748,
          "duration": 0.10000000000000142
        },
        {
          "name": "B2",
          "midi": 47,
          "time": 56.00000000000044,
          "velocity": 0.3937007874015748,
          "duration": 0.10000000000000142
        },
        {
          "name": "B3",
          "midi": 59,
          "time": 56.20000000000044,
          "velocity": 0.3937007874015748,
          "duration": 0.10000000000000142
        },
        {
          "name": "F#3",
          "midi": 54,
          "time": 56.400000000000446,
          "velocity": 0.3937007874015748,
          "duration": 0.10000000000000142
        },
        {
          "name": "B3",
          "midi": 59,
          "time": 56.50000000000045,
          "velocity": 0.3937007874015748,
          "duration": 0.10000000000000142
        },
        {
          "name": "C#4",
          "midi": 61,
          "time": 56.60000000000045,
          "velocity": 0.3937007874015748,
          "duration": 0.10000000000000142
        },
        {
          "name": "B3",
          "midi": 59,
          "time": 56.80000000000045,
          "velocity": 0.3937007874015748,
          "duration": 0.10000000000000142
        },
        {
          "name": "B2",
          "midi": 47,
          "time": 56.80000000000045,
          "velocity": 0.3937007874015748,
          "duration": 0.10000000000000142
        },
        {
          "name": "B3",
          "midi": 59,
          "time": 57.000000000000455,
          "velocity": 0.3937007874015748,
          "duration": 0.10000000000000142
        },
        {
          "name": "B2",
          "midi": 47,
          "time": 57.000000000000455,
          "velocity": 0.3937007874015748,
          "duration": 0.10000000000000142
        },
        {
          "name": "B3",
          "midi": 59,
          "time": 57.20000000000046,
          "velocity": 0.3937007874015748,
          "duration": 0.10000000000000142
        },
        {
          "name": "B2",
          "midi": 47,
          "time": 57.20000000000046,
          "velocity": 0.3937007874015748,
          "duration": 0.10000000000000142
        },
        {
          "name": "F#3",
          "midi": 54,
          "time": 57.40000000000046,
          "velocity": 0.3937007874015748,
          "duration": 0.10000000000000142
        },
        {
          "name": "D#2",
          "midi": 39,
          "time": 57.60000000000046,
          "velocity": 0.3937007874015748,
          "duration": 0.10000000000000142
        },
        {
          "name": "A#2",
          "midi": 46,
          "time": 57.700000000000465,
          "velocity": 0.3937007874015748,
          "duration": 0.10000000000000142
        },
        {
          "name": "D#3",
          "midi": 51,
          "time": 57.800000000000466,
          "velocity": 0.3937007874015748,
          "duration": 0.10000000000000142
        },
        {
          "name": "D#3",
          "midi": 51,
          "time": 58.00000000000047,
          "velocity": 0.3937007874015748,
          "duration": 0.10000000000000142
        },
        {
          "name": "A#3",
          "midi": 58,
          "time": 58.10000000000047,
          "velocity": 0.3937007874015748,
          "duration": 0.10000000000000142
        },
        {
          "name": "C#4",
          "midi": 61,
          "time": 58.20000000000047,
          "velocity": 0.3937007874015748,
          "duration": 0.10000000000000142
        },
        {
          "name": "D#3",
          "midi": 51,
          "time": 58.400000000000475,
          "velocity": 0.3937007874015748,
          "duration": 0.10000000000000142
        },
        {
          "name": "A#3",
          "midi": 58,
          "time": 58.500000000000476,
          "velocity": 0.3937007874015748,
          "duration": 0.10000000000000142
        },
        {
          "name": "D#4",
          "midi": 63,
          "time": 58.60000000000048,
          "velocity": 0.3937007874015748,
          "duration": 0.10000000000000142
        },
        {
          "name": "A#2",
          "midi": 46,
          "time": 58.80000000000048,
          "velocity": 0.3937007874015748,
          "duration": 0.10000000000000142
        },
        {
          "name": "D#3",
          "midi": 51,
          "time": 58.90000000000048,
          "velocity": 0.3937007874015748,
          "duration": 0.10000000000000142
        },
        {
          "name": "F#3",
          "midi": 54,
          "time": 59.00000000000048,
          "velocity": 0.3937007874015748,
          "duration": 0.10000000000000142
        },
        {
          "name": "D#2",
          "midi": 39,
          "time": 59.200000000000486,
          "velocity": 0.3937007874015748,
          "duration": 0.10000000000000142
        },
        {
          "name": "A#2",
          "midi": 46,
          "time": 59.30000000000049,
          "velocity": 0.3937007874015748,
          "duration": 0.10000000000000142
        },
        {
          "name": "D#3",
          "midi": 51,
          "time": 59.40000000000049,
          "velocity": 0.3937007874015748,
          "duration": 0.10000000000000142
        },
        {
          "name": "D#3",
          "midi": 51,
          "time": 59.60000000000049,
          "velocity": 0.3937007874015748,
          "duration": 0.10000000000000142
        },
        {
          "name": "A#3",
          "midi": 58,
          "time": 59.70000000000049,
          "velocity": 0.3937007874015748,
          "duration": 0.10000000000000142
        },
        {
          "name": "C#4",
          "midi": 61,
          "time": 59.800000000000495,
          "velocity": 0.3937007874015748,
          "duration": 0.10000000000000142
        },
        {
          "name": "D#3",
          "midi": 51,
          "time": 60.0000000000005,
          "velocity": 0.3937007874015748,
          "duration": 0.10000000000000142
        },
        {
          "name": "A#3",
          "midi": 58,
          "time": 60.1000000000005,
          "velocity": 0.3937007874015748,
          "duration": 0.10000000000000142
        },
        {
          "name": "D#4",
          "midi": 63,
          "time": 60.2000000000005,
          "velocity": 0.3937007874015748,
          "duration": 0.10000000000000142
        },
        {
          "name": "A#2",
          "midi": 46,
          "time": 60.4000000000005,
          "velocity": 0.3937007874015748,
          "duration": 0.10000000000000142
        },
        {
          "name": "D#3",
          "midi": 51,
          "time": 60.500000000000504,
          "velocity": 0.3937007874015748,
          "duration": 0.10000000000000142
        },
        {
          "name": "F#3",
          "midi": 54,
          "time": 60.600000000000506,
          "velocity": 0.3937007874015748,
          "duration": 0.10000000000000142
        },
        {
          "name": "B1",
          "midi": 35,
          "time": 60.80000000000051,
          "velocity": 0.3937007874015748,
          "duration": 0.10000000000000142
        },
        {
          "name": "B2",
          "midi": 47,
          "time": 61.00000000000051,
          "velocity": 0.3937007874015748,
          "duration": 0.10000000000000142
        },
        {
          "name": "B2",
          "midi": 47,
          "time": 61.200000000000514,
          "velocity": 0.3937007874015748,
          "duration": 0.10000000000000142
        },
        {
          "name": "F#3",
          "midi": 54,
          "time": 61.300000000000516,
          "velocity": 0.3937007874015748,
          "duration": 0.10000000000000142
        },
        {
          "name": "B3",
          "midi": 59,
          "time": 61.40000000000052,
          "velocity": 0.3937007874015748,
          "duration": 0.10000000000000142
        },
        {
          "name": "B2",
          "midi": 47,
          "time": 61.60000000000052,
          "velocity": 0.3937007874015748,
          "duration": 0.10000000000000142
        },
        {
          "name": "F#3",
          "midi": 54,
          "time": 61.70000000000052,
          "velocity": 0.3937007874015748,
          "duration": 0.10000000000000142
        },
        {
          "name": "C#4",
          "midi": 61,
          "time": 61.80000000000052,
          "velocity": 0.3937007874015748,
          "duration": 0.10000000000000142
        },
        {
          "name": "B2",
          "midi": 47,
          "time": 62.000000000000526,
          "velocity": 0.3937007874015748,
          "duration": 0.10000000000000142
        },
        {
          "name": "F#3",
          "midi": 54,
          "time": 62.10000000000053,
          "velocity": 0.3937007874015748,
          "duration": 0.10000000000000142
        },
        {
          "name": "B3",
          "midi": 59,
          "time": 62.20000000000053,
          "velocity": 0.3937007874015748,
          "duration": 0.10000000000000142
        },
        {
          "name": "B1",
          "midi": 35,
          "time": 62.40000000000053,
          "velocity": 0.3937007874015748,
          "duration": 0.10000000000000142
        },
        {
          "name": "B2",
          "midi": 47,
          "time": 62.600000000000534,
          "velocity": 0.3937007874015748,
          "duration": 0.10000000000000142
        },
        {
          "name": "B2",
          "midi": 47,
          "time": 62.80000000000054,
          "velocity": 0.3937007874015748,
          "duration": 0.10000000000000142
        },
        {
          "name": "F#3",
          "midi": 54,
          "time": 62.90000000000054,
          "velocity": 0.3937007874015748,
          "duration": 0.10000000000000142
        },
        {
          "name": "B3",
          "midi": 59,
          "time": 63.00000000000054,
          "velocity": 0.3937007874015748,
          "duration": 0.10000000000000142
        },
        {
          "name": "B2",
          "midi": 47,
          "time": 63.20000000000054,
          "velocity": 0.3937007874015748,
          "duration": 0.10000000000000142
        },
        {
          "name": "F#3",
          "midi": 54,
          "time": 63.300000000000544,
          "velocity": 0.3937007874015748,
          "duration": 0.10000000000000142
        },
        {
          "name": "C#4",
          "midi": 61,
          "time": 63.400000000000546,
          "velocity": 0.3937007874015748,
          "duration": 0.10000000000000142
        },
        {
          "name": "B2",
          "midi": 47,
          "time": 63.60000000000055,
          "velocity": 0.3937007874015748,
          "duration": 0.10000000000000142
        },
        {
          "name": "F#3",
          "midi": 54,
          "time": 63.70000000000055,
          "velocity": 0.3937007874015748,
          "duration": 0.10000000000000142
        },
        {
          "name": "B3",
          "midi": 59,
          "time": 63.80000000000055,
          "velocity": 0.3937007874015748,
          "duration": 0.10000000000000142
        },
        {
          "name": "D#2",
          "midi": 39,
          "time": 64.00000000000055,
          "velocity": 0.3937007874015748,
          "duration": 0.09999999999999432
        },
        {
          "name": "A#2",
          "midi": 46,
          "time": 64.10000000000055,
          "velocity": 0.3937007874015748,
          "duration": 0.09999999999999432
        },
        {
          "name": "D#3",
          "midi": 51,
          "time": 64.20000000000054,
          "velocity": 0.3937007874015748,
          "duration": 0.09999999999999432
        },
        {
          "name": "D#3",
          "midi": 51,
          "time": 64.40000000000053,
          "velocity": 0.3937007874015748,
          "duration": 0.09999999999999432
        },
        {
          "name": "A#3",
          "midi": 58,
          "time": 64.50000000000053,
          "velocity": 0.3937007874015748,
          "duration": 0.09999999999999432
        },
        {
          "name": "C#4",
          "midi": 61,
          "time": 64.60000000000052,
          "velocity": 0.3937007874015748,
          "duration": 0.09999999999999432
        },
        {
          "name": "D#3",
          "midi": 51,
          "time": 64.80000000000051,
          "velocity": 0.3937007874015748,
          "duration": 0.09999999999999432
        },
        {
          "name": "A#3",
          "midi": 58,
          "time": 64.9000000000005,
          "velocity": 0.3937007874015748,
          "duration": 0.09999999999999432
        },
        {
          "name": "D#4",
          "midi": 63,
          "time": 65.0000000000005,
          "velocity": 0.3937007874015748,
          "duration": 0.09999999999999432
        },
        {
          "name": "A#2",
          "midi": 46,
          "time": 65.20000000000049,
          "velocity": 0.3937007874015748,
          "duration": 0.09999999999999432
        },
        {
          "name": "D#3",
          "midi": 51,
          "time": 65.30000000000048,
          "velocity": 0.3937007874015748,
          "duration": 0.09999999999999432
        },
        {
          "name": "F#3",
          "midi": 54,
          "time": 65.40000000000047,
          "velocity": 0.3937007874015748,
          "duration": 0.09999999999999432
        },
        {
          "name": "D#2",
          "midi": 39,
          "time": 65.60000000000046,
          "velocity": 0.3937007874015748,
          "duration": 0.09999999999999432
        },
        {
          "name": "A#2",
          "midi": 46,
          "time": 65.70000000000046,
          "velocity": 0.3937007874015748,
          "duration": 0.09999999999999432
        },
        {
          "name": "D#3",
          "midi": 51,
          "time": 65.80000000000045,
          "velocity": 0.3937007874015748,
          "duration": 0.09999999999999432
        },
        {
          "name": "D#3",
          "midi": 51,
          "time": 66.00000000000044,
          "velocity": 0.3937007874015748,
          "duration": 0.09999999999999432
        },
        {
          "name": "A#3",
          "midi": 58,
          "time": 66.10000000000043,
          "velocity": 0.3937007874015748,
          "duration": 0.09999999999999432
        },
        {
          "name": "C#4",
          "midi": 61,
          "time": 66.20000000000043,
          "velocity": 0.3937007874015748,
          "duration": 0.09999999999999432
        },
        {
          "name": "D#3",
          "midi": 51,
          "time": 66.40000000000042,
          "velocity": 0.3937007874015748,
          "duration": 0.09999999999999432
        },
        {
          "name": "A#3",
          "midi": 58,
          "time": 66.50000000000041,
          "velocity": 0.3937007874015748,
          "duration": 0.09999999999999432
        },
        {
          "name": "D#4",
          "midi": 63,
          "time": 66.6000000000004,
          "velocity": 0.3937007874015748,
          "duration": 0.09999999999999432
        },
        {
          "name": "A#2",
          "midi": 46,
          "time": 66.8000000000004,
          "velocity": 0.3937007874015748,
          "duration": 0.09999999999999432
        },
        {
          "name": "D#3",
          "midi": 51,
          "time": 66.90000000000039,
          "velocity": 0.3937007874015748,
          "duration": 0.09999999999999432
        },
        {
          "name": "F#3",
          "midi": 54,
          "time": 67.00000000000038,
          "velocity": 0.3937007874015748,
          "duration": 0.09999999999999432
        },
        {
          "name": "B1",
          "midi": 35,
          "time": 67.20000000000037,
          "velocity": 0.3937007874015748,
          "duration": 0.09999999999999432
        },
        {
          "name": "B2",
          "midi": 47,
          "time": 67.40000000000036,
          "velocity": 0.3937007874015748,
          "duration": 0.09999999999999432
        },
        {
          "name": "B2",
          "midi": 47,
          "time": 67.60000000000035,
          "velocity": 0.3937007874015748,
          "duration": 0.09999999999999432
        },
        {
          "name": "F#3",
          "midi": 54,
          "time": 67.70000000000034,
          "velocity": 0.3937007874015748,
          "duration": 0.09999999999999432
        },
        {
          "name": "B3",
          "midi": 59,
          "time": 67.80000000000034,
          "velocity": 0.3937007874015748,
          "duration": 0.09999999999999432
        },
        {
          "name": "B2",
          "midi": 47,
          "time": 68.00000000000033,
          "velocity": 0.3937007874015748,
          "duration": 0.09999999999999432
        },
        {
          "name": "F#3",
          "midi": 54,
          "time": 68.10000000000032,
          "velocity": 0.3937007874015748,
          "duration": 0.09999999999999432
        },
        {
          "name": "C#4",
          "midi": 61,
          "time": 68.20000000000032,
          "velocity": 0.3937007874015748,
          "duration": 0.09999999999999432
        },
        {
          "name": "B2",
          "midi": 47,
          "time": 68.4000000000003,
          "velocity": 0.3937007874015748,
          "duration": 0.09999999999999432
        },
        {
          "name": "F#3",
          "midi": 54,
          "time": 68.5000000000003,
          "velocity": 0.3937007874015748,
          "duration": 0.09999999999999432
        },
        {
          "name": "B3",
          "midi": 59,
          "time": 68.60000000000029,
          "velocity": 0.3937007874015748,
          "duration": 0.09999999999999432
        },
        {
          "name": "B1",
          "midi": 35,
          "time": 68.80000000000028,
          "velocity": 0.3937007874015748,
          "duration": 0.09999999999999432
        },
        {
          "name": "B2",
          "midi": 47,
          "time": 69.00000000000027,
          "velocity": 0.3937007874015748,
          "duration": 0.09999999999999432
        },
        {
          "name": "B2",
          "midi": 47,
          "time": 69.20000000000026,
          "velocity": 0.3937007874015748,
          "duration": 0.09999999999999432
        },
        {
          "name": "F#3",
          "midi": 54,
          "time": 69.30000000000025,
          "velocity": 0.3937007874015748,
          "duration": 0.09999999999999432
        },
        {
          "name": "B3",
          "midi": 59,
          "time": 69.40000000000025,
          "velocity": 0.3937007874015748,
          "duration": 0.09999999999999432
        },
        {
          "name": "B2",
          "midi": 47,
          "time": 69.60000000000024,
          "velocity": 0.3937007874015748,
          "duration": 0.09999999999999432
        },
        {
          "name": "F#3",
          "midi": 54,
          "time": 69.70000000000023,
          "velocity": 0.3937007874015748,
          "duration": 0.09999999999999432
        },
        {
          "name": "C#4",
          "midi": 61,
          "time": 69.80000000000022,
          "velocity": 0.3937007874015748,
          "duration": 0.09999999999999432
        },
        {
          "name": "B2",
          "midi": 47,
          "time": 70.00000000000021,
          "velocity": 0.3937007874015748,
          "duration": 0.09999999999999432
        },
        {
          "name": "F#3",
          "midi": 54,
          "time": 70.10000000000021,
          "velocity": 0.3937007874015748,
          "duration": 0.09999999999999432
        },
        {
          "name": "B3",
          "midi": 59,
          "time": 70.2000000000002,
          "velocity": 0.3937007874015748,
          "duration": 0.09999999999999432
        },
        {
          "name": "D#2",
          "midi": 39,
          "time": 70.40000000000019,
          "velocity": 0.3937007874015748,
          "duration": 0.09999999999999432
        },
        {
          "name": "A#2",
          "midi": 46,
          "time": 70.50000000000018,
          "velocity": 0.3937007874015748,
          "duration": 0.09999999999999432
        },
        {
          "name": "D#3",
          "midi": 51,
          "time": 70.60000000000018,
          "velocity": 0.3937007874015748,
          "duration": 0.09999999999999432
        },
        {
          "name": "D#3",
          "midi": 51,
          "time": 70.80000000000017,
          "velocity": 0.3937007874015748,
          "duration": 0.09999999999999432
        },
        {
          "name": "A#3",
          "midi": 58,
          "time": 70.90000000000016,
          "velocity": 0.3937007874015748,
          "duration": 0.09999999999999432
        },
        {
          "name": "C#4",
          "midi": 61,
          "time": 71.00000000000016,
          "velocity": 0.3937007874015748,
          "duration": 0.09999999999999432
        },
        {
          "name": "D#3",
          "midi": 51,
          "time": 71.20000000000014,
          "velocity": 0.3937007874015748,
          "duration": 0.09999999999999432
        },
        {
          "name": "A#3",
          "midi": 58,
          "time": 71.30000000000014,
          "velocity": 0.3937007874015748,
          "duration": 0.09999999999999432
        },
        {
          "name": "D#4",
          "midi": 63,
          "time": 71.40000000000013,
          "velocity": 0.3937007874015748,
          "duration": 0.09999999999999432
        },
        {
          "name": "A#2",
          "midi": 46,
          "time": 71.60000000000012,
          "velocity": 0.3937007874015748,
          "duration": 0.09999999999999432
        },
        {
          "name": "D#3",
          "midi": 51,
          "time": 71.70000000000012,
          "velocity": 0.3937007874015748,
          "duration": 0.09999999999999432
        },
        {
          "name": "F#3",
          "midi": 54,
          "time": 71.80000000000011,
          "velocity": 0.3937007874015748,
          "duration": 0.09999999999999432
        },
        {
          "name": "D#2",
          "midi": 39,
          "time": 72.0000000000001,
          "velocity": 0.3937007874015748,
          "duration": 0.09999999999999432
        },
        {
          "name": "A#2",
          "midi": 46,
          "time": 72.1000000000001,
          "velocity": 0.3937007874015748,
          "duration": 0.09999999999999432
        },
        {
          "name": "D#3",
          "midi": 51,
          "time": 72.20000000000009,
          "velocity": 0.3937007874015748,
          "duration": 0.09999999999999432
        },
        {
          "name": "D#3",
          "midi": 51,
          "time": 72.40000000000008,
          "velocity": 0.3937007874015748,
          "duration": 0.09999999999999432
        },
        {
          "name": "A#3",
          "midi": 58,
          "time": 72.50000000000007,
          "velocity": 0.3937007874015748,
          "duration": 0.09999999999999432
        },
        {
          "name": "C#4",
          "midi": 61,
          "time": 72.60000000000007,
          "velocity": 0.3937007874015748,
          "duration": 0.09999999999999432
        },
        {
          "name": "D#3",
          "midi": 51,
          "time": 72.80000000000005,
          "velocity": 0.3937007874015748,
          "duration": 0.09999999999999432
        },
        {
          "name": "A#3",
          "midi": 58,
          "time": 72.90000000000005,
          "velocity": 0.3937007874015748,
          "duration": 0.09999999999999432
        },
        {
          "name": "D#4",
          "midi": 63,
          "time": 73.00000000000004,
          "velocity": 0.3937007874015748,
          "duration": 0.09999999999999432
        },
        {
          "name": "A#2",
          "midi": 46,
          "time": 73.20000000000003,
          "velocity": 0.3937007874015748,
          "duration": 0.09999999999999432
        },
        {
          "name": "D#3",
          "midi": 51,
          "time": 73.30000000000003,
          "velocity": 0.3937007874015748,
          "duration": 0.09999999999999432
        },
        {
          "name": "F#3",
          "midi": 54,
          "time": 73.40000000000002,
          "velocity": 0.3937007874015748,
          "duration": 0.09999999999999432
        },
        {
          "name": "B1",
          "midi": 35,
          "time": 73.60000000000001,
          "velocity": 0.3937007874015748,
          "duration": 0.09999999999999432
        },
        {
          "name": "B2",
          "midi": 47,
          "time": 73.8,
          "velocity": 0.3937007874015748,
          "duration": 0.09999999999999432
        },
        {
          "name": "B2",
          "midi": 47,
          "time": 73.99999999999999,
          "velocity": 0.3937007874015748,
          "duration": 0.09999999999999432
        },
        {
          "name": "F#3",
          "midi": 54,
          "time": 74.09999999999998,
          "velocity": 0.3937007874015748,
          "duration": 0.09999999999999432
        },
        {
          "name": "B3",
          "midi": 59,
          "time": 74.19999999999997,
          "velocity": 0.3937007874015748,
          "duration": 0.09999999999999432
        },
        {
          "name": "B2",
          "midi": 47,
          "time": 74.39999999999996,
          "velocity": 0.3937007874015748,
          "duration": 0.09999999999999432
        },
        {
          "name": "F#3",
          "midi": 54,
          "time": 74.49999999999996,
          "velocity": 0.3937007874015748,
          "duration": 0.09999999999999432
        },
        {
          "name": "C#4",
          "midi": 61,
          "time": 74.59999999999995,
          "velocity": 0.3937007874015748,
          "duration": 0.09999999999999432
        },
        {
          "name": "B2",
          "midi": 47,
          "time": 74.79999999999994,
          "velocity": 0.3937007874015748,
          "duration": 0.09999999999999432
        },
        {
          "name": "F#3",
          "midi": 54,
          "time": 74.89999999999993,
          "velocity": 0.3937007874015748,
          "duration": 0.09999999999999432
        },
        {
          "name": "B3",
          "midi": 59,
          "time": 74.99999999999993,
          "velocity": 0.3937007874015748,
          "duration": 0.09999999999999432
        },
        {
          "name": "B1",
          "midi": 35,
          "time": 75.19999999999992,
          "velocity": 0.3937007874015748,
          "duration": 0.09999999999999432
        },
        {
          "name": "B2",
          "midi": 47,
          "time": 75.3999999999999,
          "velocity": 0.3937007874015748,
          "duration": 0.09999999999999432
        },
        {
          "name": "B2",
          "midi": 47,
          "time": 75.5999999999999,
          "velocity": 0.3937007874015748,
          "duration": 0.09999999999999432
        },
        {
          "name": "F#3",
          "midi": 54,
          "time": 75.69999999999989,
          "velocity": 0.3937007874015748,
          "duration": 0.09999999999999432
        },
        {
          "name": "B3",
          "midi": 59,
          "time": 75.79999999999988,
          "velocity": 0.3937007874015748,
          "duration": 0.09999999999999432
        },
        {
          "name": "B2",
          "midi": 47,
          "time": 75.99999999999987,
          "velocity": 0.3937007874015748,
          "duration": 0.09999999999999432
        },
        {
          "name": "F#3",
          "midi": 54,
          "time": 76.09999999999987,
          "velocity": 0.3937007874015748,
          "duration": 0.09999999999999432
        },
        {
          "name": "C#4",
          "midi": 61,
          "time": 76.19999999999986,
          "velocity": 0.3937007874015748,
          "duration": 0.09999999999999432
        },
        {
          "name": "B2",
          "midi": 47,
          "time": 76.39999999999985,
          "velocity": 0.3937007874015748,
          "duration": 0.09999999999999432
        },
        {
          "name": "F#3",
          "midi": 54,
          "time": 76.49999999999984,
          "velocity": 0.3937007874015748,
          "duration": 0.09999999999999432
        },
        {
          "name": "B3",
          "midi": 59,
          "time": 76.59999999999984,
          "velocity": 0.3937007874015748,
          "duration": 0.09999999999999432
        },
        {
          "name": "D#2",
          "midi": 39,
          "time": 76.79999999999983,
          "velocity": 0.3937007874015748,
          "duration": 0.09999999999999432
        },
        {
          "name": "A#2",
          "midi": 46,
          "time": 76.89999999999982,
          "velocity": 0.3937007874015748,
          "duration": 0.09999999999999432
        },
        {
          "name": "D#3",
          "midi": 51,
          "time": 76.99999999999982,
          "velocity": 0.3937007874015748,
          "duration": 0.09999999999999432
        },
        {
          "name": "D#3",
          "midi": 51,
          "time": 77.1999999999998,
          "velocity": 0.3937007874015748,
          "duration": 0.09999999999999432
        },
        {
          "name": "A#3",
          "midi": 58,
          "time": 77.2999999999998,
          "velocity": 0.3937007874015748,
          "duration": 0.09999999999999432
        },
        {
          "name": "C#4",
          "midi": 61,
          "time": 77.39999999999979,
          "velocity": 0.3937007874015748,
          "duration": 0.09999999999999432
        },
        {
          "name": "D#3",
          "midi": 51,
          "time": 77.59999999999978,
          "velocity": 0.3937007874015748,
          "duration": 0.09999999999999432
        },
        {
          "name": "A#3",
          "midi": 58,
          "time": 77.69999999999978,
          "velocity": 0.3937007874015748,
          "duration": 0.09999999999999432
        },
        {
          "name": "D#4",
          "midi": 63,
          "time": 77.79999999999977,
          "velocity": 0.3937007874015748,
          "duration": 0.09999999999999432
        },
        {
          "name": "A#2",
          "midi": 46,
          "time": 77.99999999999976,
          "velocity": 0.3937007874015748,
          "duration": 0.09999999999999432
        },
        {
          "name": "D#3",
          "midi": 51,
          "time": 78.09999999999975,
          "velocity": 0.3937007874015748,
          "duration": 0.09999999999999432
        },
        {
          "name": "F#3",
          "midi": 54,
          "time": 78.19999999999975,
          "velocity": 0.3937007874015748,
          "duration": 0.09999999999999432
        },
        {
          "name": "D#2",
          "midi": 39,
          "time": 78.39999999999974,
          "velocity": 0.3937007874015748,
          "duration": 0.09999999999999432
        },
        {
          "name": "A#2",
          "midi": 46,
          "time": 78.49999999999973,
          "velocity": 0.3937007874015748,
          "duration": 0.09999999999999432
        },
        {
          "name": "D#3",
          "midi": 51,
          "time": 78.59999999999972,
          "velocity": 0.3937007874015748,
          "duration": 0.09999999999999432
        },
        {
          "name": "D#3",
          "midi": 51,
          "time": 78.79999999999971,
          "velocity": 0.3937007874015748,
          "duration": 0.09999999999999432
        },
        {
          "name": "A#3",
          "midi": 58,
          "time": 78.89999999999971,
          "velocity": 0.3937007874015748,
          "duration": 0.09999999999999432
        },
        {
          "name": "C#4",
          "midi": 61,
          "time": 78.9999999999997,
          "velocity": 0.3937007874015748,
          "duration": 0.09999999999999432
        },
        {
          "name": "D#3",
          "midi": 51,
          "time": 79.19999999999969,
          "velocity": 0.3937007874015748,
          "duration": 0.09999999999999432
        },
        {
          "name": "A#3",
          "midi": 58,
          "time": 79.29999999999968,
          "velocity": 0.3937007874015748,
          "duration": 0.09999999999999432
        },
        {
          "name": "D#4",
          "midi": 63,
          "time": 79.39999999999968,
          "velocity": 0.3937007874015748,
          "duration": 0.09999999999999432
        },
        {
          "name": "A#2",
          "midi": 46,
          "time": 79.59999999999967,
          "velocity": 0.3937007874015748,
          "duration": 0.09999999999999432
        },
        {
          "name": "D#3",
          "midi": 51,
          "time": 79.69999999999966,
          "velocity": 0.3937007874015748,
          "duration": 0.09999999999999432
        },
        {
          "name": "F#3",
          "midi": 54,
          "time": 79.79999999999966,
          "velocity": 0.3937007874015748,
          "duration": 0.09999999999999432
        },
        {
          "name": "B1",
          "midi": 35,
          "time": 79.99999999999964,
          "velocity": 0.3937007874015748,
          "duration": 0.09999999999999432
        },
        {
          "name": "B2",
          "midi": 47,
          "time": 80.19999999999963,
          "velocity": 0.3937007874015748,
          "duration": 0.09999999999999432
        },
        {
          "name": "B2",
          "midi": 47,
          "time": 80.39999999999962,
          "velocity": 0.3937007874015748,
          "duration": 0.09999999999999432
        },
        {
          "name": "F#3",
          "midi": 54,
          "time": 80.49999999999962,
          "velocity": 0.3937007874015748,
          "duration": 0.09999999999999432
        },
        {
          "name": "B3",
          "midi": 59,
          "time": 80.59999999999961,
          "velocity": 0.3937007874015748,
          "duration": 0.09999999999999432
        },
        {
          "name": "B2",
          "midi": 47,
          "time": 80.7999999999996,
          "velocity": 0.3937007874015748,
          "duration": 0.09999999999999432
        },
        {
          "name": "F#3",
          "midi": 54,
          "time": 80.8999999999996,
          "velocity": 0.3937007874015748,
          "duration": 0.09999999999999432
        },
        {
          "name": "C#4",
          "midi": 61,
          "time": 80.99999999999959,
          "velocity": 0.3937007874015748,
          "duration": 0.09999999999999432
        },
        {
          "name": "B2",
          "midi": 47,
          "time": 81.19999999999958,
          "velocity": 0.3937007874015748,
          "duration": 0.09999999999999432
        },
        {
          "name": "F#3",
          "midi": 54,
          "time": 81.29999999999957,
          "velocity": 0.3937007874015748,
          "duration": 0.09999999999999432
        },
        {
          "name": "B3",
          "midi": 59,
          "time": 81.39999999999957,
          "velocity": 0.3937007874015748,
          "duration": 0.09999999999999432
        },
        {
          "name": "B1",
          "midi": 35,
          "time": 81.59999999999955,
          "velocity": 0.3937007874015748,
          "duration": 0.09999999999999432
        },
        {
          "name": "B2",
          "midi": 47,
          "time": 81.79999999999954,
          "velocity": 0.3937007874015748,
          "duration": 0.09999999999999432
        },
        {
          "name": "B2",
          "midi": 47,
          "time": 81.99999999999953,
          "velocity": 0.3937007874015748,
          "duration": 0.09999999999999432
        },
        {
          "name": "F#3",
          "midi": 54,
          "time": 82.09999999999953,
          "velocity": 0.3937007874015748,
          "duration": 0.09999999999999432
        },
        {
          "name": "B3",
          "midi": 59,
          "time": 82.19999999999952,
          "velocity": 0.3937007874015748,
          "duration": 0.09999999999999432
        },
        {
          "name": "B2",
          "midi": 47,
          "time": 82.39999999999951,
          "velocity": 0.3937007874015748,
          "duration": 0.09999999999999432
        },
        {
          "name": "F#3",
          "midi": 54,
          "time": 82.4999999999995,
          "velocity": 0.3937007874015748,
          "duration": 0.09999999999999432
        },
        {
          "name": "B2",
          "midi": 47,
          "time": 82.5999999999995,
          "velocity": 0.3937007874015748,
          "duration": 0.09999999999999432
        },
        {
          "name": "C2",
          "midi": 36,
          "time": 82.79999999999949,
          "velocity": 0.3937007874015748,
          "duration": 0.09999999999999432
        },
        {
          "name": "B2",
          "midi": 47,
          "time": 82.99999999999947,
          "velocity": 0.3937007874015748,
          "duration": 0.09999999999999432
        },
        {
          "name": "C2",
          "midi": 36,
          "time": 83.19999999999946,
          "velocity": 0.3937007874015748,
          "duration": 0.09999999999999432
        },
        {
          "name": "C3",
          "midi": 48,
          "time": 83.39999999999945,
          "velocity": 0.3937007874015748,
          "duration": 0.09999999999999432
        },
        {
          "name": "C3",
          "midi": 48,
          "time": 83.59999999999944,
          "velocity": 0.3937007874015748,
          "duration": 0.09999999999999432
        },
        {
          "name": "C4",
          "midi": 60,
          "time": 83.79999999999943,
          "velocity": 0.3937007874015748,
          "duration": 0.09999999999999432
        },
        {
          "name": "G3",
          "midi": 55,
          "time": 83.79999999999943,
          "velocity": 0.3937007874015748,
          "duration": 0.09999999999999432
        },
        {
          "name": "C3",
          "midi": 48,
          "time": 83.99999999999942,
          "velocity": 0.3937007874015748,
          "duration": 0.09999999999999432
        },
        {
          "name": "G3",
          "midi": 55,
          "time": 84.1999999999994,
          "velocity": 0.3937007874015748,
          "duration": 0.09999999999999432
        },
        {
          "name": "E4",
          "midi": 64,
          "time": 84.1999999999994,
          "velocity": 0.3937007874015748,
          "duration": 0.09999999999999432
        },
        {
          "name": "C3",
          "midi": 48,
          "time": 84.3999999999994,
          "velocity": 0.3937007874015748,
          "duration": 0.09999999999999432
        },
        {
          "name": "G3",
          "midi": 55,
          "time": 84.59999999999938,
          "velocity": 0.3937007874015748,
          "duration": 0.09999999999999432
        },
        {
          "name": "A3",
          "midi": 57,
          "time": 84.59999999999938,
          "velocity": 0.3937007874015748,
          "duration": 0.09999999999999432
        },
        {
          "name": "C3",
          "midi": 48,
          "time": 84.79999999999937,
          "velocity": 0.3937007874015748,
          "duration": 0.09999999999999432
        },
        {
          "name": "G3",
          "midi": 55,
          "time": 84.99999999999936,
          "velocity": 0.3937007874015748,
          "duration": 0.09999999999999432
        },
        {
          "name": "A3",
          "midi": 57,
          "time": 84.99999999999936,
          "velocity": 0.3937007874015748,
          "duration": 0.09999999999999432
        },
        {
          "name": "C3",
          "midi": 48,
          "time": 85.19999999999935,
          "velocity": 0.3937007874015748,
          "duration": 0.09999999999999432
        },
        {
          "name": "A3",
          "midi": 57,
          "time": 85.39999999999934,
          "velocity": 0.3937007874015748,
          "duration": 0.09999999999999432
        },
        {
          "name": "D4",
          "midi": 62,
          "time": 85.39999999999934,
          "velocity": 0.3937007874015748,
          "duration": 0.09999999999999432
        },
        {
          "name": "A2",
          "midi": 45,
          "time": 85.59999999999933,
          "velocity": 0.3937007874015748,
          "duration": 0.09999999999999432
        },
        {
          "name": "B3",
          "midi": 59,
          "time": 85.59999999999933,
          "velocity": 0.3937007874015748,
          "duration": 0.09999999999999432
        },
        {
          "name": "A3",
          "midi": 57,
          "time": 85.79999999999932,
          "velocity": 0.3937007874015748,
          "duration": 0.09999999999999432
        },
        {
          "name": "C3",
          "midi": 48,
          "time": 85.79999999999932,
          "velocity": 0.3937007874015748,
          "duration": 0.09999999999999432
        },
        {
          "name": "A2",
          "midi": 45,
          "time": 85.9999999999993,
          "velocity": 0.3937007874015748,
          "duration": 0.09999999999999432
        },
        {
          "name": "G4",
          "midi": 67,
          "time": 85.9999999999993,
          "velocity": 0.3937007874015748,
          "duration": 0.09999999999999432
        },
        {
          "name": "C3",
          "midi": 48,
          "time": 86.19999999999929,
          "velocity": 0.3937007874015748,
          "duration": 0.09999999999999432
        },
        {
          "name": "G3",
          "midi": 55,
          "time": 86.19999999999929,
          "velocity": 0.3937007874015748,
          "duration": 0.09999999999999432
        },
        {
          "name": "E2",
          "midi": 40,
          "time": 86.39999999999928,
          "velocity": 0.3937007874015748,
          "duration": 0.09999999999999432
        },
        {
          "name": "B2",
          "midi": 47,
          "time": 86.59999999999927,
          "velocity": 0.3937007874015748,
          "duration": 0.09999999999999432
        },
        {
          "name": "E3",
          "midi": 52,
          "time": 86.59999999999927,
          "velocity": 0.3937007874015748,
          "duration": 0.09999999999999432
        },
        {
          "name": "E2",
          "midi": 40,
          "time": 86.79999999999926,
          "velocity": 0.3937007874015748,
          "duration": 0.09999999999999432
        },
        {
          "name": "B2",
          "midi": 47,
          "time": 86.99999999999925,
          "velocity": 0.3937007874015748,
          "duration": 0.09999999999999432
        },
        {
          "name": "D3",
          "midi": 50,
          "time": 86.99999999999925,
          "velocity": 0.3937007874015748,
          "duration": 0.09999999999999432
        },
        {
          "name": "E2",
          "midi": 40,
          "time": 87.19999999999924,
          "velocity": 0.3937007874015748,
          "duration": 0.09999999999999432
        },
        {
          "name": "B2",
          "midi": 47,
          "time": 87.39999999999922,
          "velocity": 0.3937007874015748,
          "duration": 0.09999999999999432
        },
        {
          "name": "E3",
          "midi": 52,
          "time": 87.39999999999922,
          "velocity": 0.3937007874015748,
          "duration": 0.09999999999999432
        },
        {
          "name": "E2",
          "midi": 40,
          "time": 87.59999999999921,
          "velocity": 0.3937007874015748,
          "duration": 0.09999999999999432
        },
        {
          "name": "B2",
          "midi": 47,
          "time": 87.7999999999992,
          "velocity": 0.3937007874015748,
          "duration": 0.09999999999999432
        },
        {
          "name": "G3",
          "midi": 55,
          "time": 87.7999999999992,
          "velocity": 0.3937007874015748,
          "duration": 0.09999999999999432
        },
        {
          "name": "E2",
          "midi": 40,
          "time": 87.99999999999919,
          "velocity": 0.3937007874015748,
          "duration": 0.09999999999999432
        },
        {
          "name": "B2",
          "midi": 47,
          "time": 88.19999999999918,
          "velocity": 0.3937007874015748,
          "duration": 0.09999999999999432
        },
        {
          "name": "E3",
          "midi": 52,
          "time": 88.19999999999918,
          "velocity": 0.3937007874015748,
          "duration": 0.09999999999999432
        },
        {
          "name": "E2",
          "midi": 40,
          "time": 88.39999999999917,
          "velocity": 0.3937007874015748,
          "duration": 0.09999999999999432
        },
        {
          "name": "E3",
          "midi": 52,
          "time": 88.59999999999916,
          "velocity": 0.3937007874015748,
          "duration": 0.09999999999999432
        },
        {
          "name": "B2",
          "midi": 47,
          "time": 88.59999999999916,
          "velocity": 0.3937007874015748,
          "duration": 0.09999999999999432
        },
        {
          "name": "E2",
          "midi": 40,
          "time": 88.79999999999914,
          "velocity": 0.3937007874015748,
          "duration": 0.09999999999999432
        },
        {
          "name": "B2",
          "midi": 47,
          "time": 88.99999999999913,
          "velocity": 0.3937007874015748,
          "duration": 0.09999999999999432
        },
        {
          "name": "F#3",
          "midi": 54,
          "time": 88.99999999999913,
          "velocity": 0.3937007874015748,
          "duration": 0.09999999999999432
        },
        {
          "name": "E2",
          "midi": 40,
          "time": 89.19999999999912,
          "velocity": 0.3937007874015748,
          "duration": 0.09999999999999432
        },
        {
          "name": "B2",
          "midi": 47,
          "time": 89.39999999999911,
          "velocity": 0.3937007874015748,
          "duration": 0.09999999999999432
        },
        {
          "name": "G3",
          "midi": 55,
          "time": 89.39999999999911,
          "velocity": 0.3937007874015748,
          "duration": 0.09999999999999432
        },
        {
          "name": "C2",
          "midi": 36,
          "time": 89.5999999999991,
          "velocity": 0.3937007874015748,
          "duration": 0.09999999999999432
        },
        {
          "name": "C3",
          "midi": 48,
          "time": 89.79999999999909,
          "velocity": 0.3937007874015748,
          "duration": 0.09999999999999432
        },
        {
          "name": "C3",
          "midi": 48,
          "time": 89.99999999999908,
          "velocity": 0.3937007874015748,
          "duration": 0.09999999999999432
        },
        {
          "name": "C4",
          "midi": 60,
          "time": 90.19999999999906,
          "velocity": 0.3937007874015748,
          "duration": 0.09999999999999432
        },
        {
          "name": "G3",
          "midi": 55,
          "time": 90.19999999999906,
          "velocity": 0.3937007874015748,
          "duration": 0.09999999999999432
        },
        {
          "name": "C3",
          "midi": 48,
          "time": 90.39999999999905,
          "velocity": 0.3937007874015748,
          "duration": 0.09999999999999432
        },
        {
          "name": "G3",
          "midi": 55,
          "time": 90.59999999999904,
          "velocity": 0.3937007874015748,
          "duration": 0.09999999999999432
        },
        {
          "name": "E4",
          "midi": 64,
          "time": 90.59999999999904,
          "velocity": 0.3937007874015748,
          "duration": 0.09999999999999432
        },
        {
          "name": "C3",
          "midi": 48,
          "time": 90.79999999999903,
          "velocity": 0.3937007874015748,
          "duration": 0.09999999999999432
        },
        {
          "name": "G3",
          "midi": 55,
          "time": 90.99999999999902,
          "velocity": 0.3937007874015748,
          "duration": 0.09999999999999432
        },
        {
          "name": "A3",
          "midi": 57,
          "time": 90.99999999999902,
          "velocity": 0.3937007874015748,
          "duration": 0.09999999999999432
        },
        {
          "name": "D3",
          "midi": 50,
          "time": 91.19999999999901,
          "velocity": 0.3937007874015748,
          "duration": 0.09999999999999432
        },
        {
          "name": "G3",
          "midi": 55,
          "time": 91.399999999999,
          "velocity": 0.3937007874015748,
          "duration": 0.09999999999999432
        },
        {
          "name": "A3",
          "midi": 57,
          "time": 91.399999999999,
          "velocity": 0.3937007874015748,
          "duration": 0.09999999999999432
        },
        {
          "name": "D3",
          "midi": 50,
          "time": 91.59999999999899,
          "velocity": 0.3937007874015748,
          "duration": 0.09999999999999432
        },
        {
          "name": "A3",
          "midi": 57,
          "time": 91.79999999999897,
          "velocity": 0.3937007874015748,
          "duration": 0.09999999999999432
        },
        {
          "name": "D4",
          "midi": 62,
          "time": 91.79999999999897,
          "velocity": 0.3937007874015748,
          "duration": 0.09999999999999432
        },
        {
          "name": "A2",
          "midi": 45,
          "time": 91.99999999999896,
          "velocity": 0.3937007874015748,
          "duration": 0.09999999999999432
        },
        {
          "name": "B3",
          "midi": 59,
          "time": 91.99999999999896,
          "velocity": 0.3937007874015748,
          "duration": 0.09999999999999432
        },
        {
          "name": "A3",
          "midi": 57,
          "time": 92.19999999999895,
          "velocity": 0.3937007874015748,
          "duration": 0.09999999999999432
        },
        {
          "name": "C3",
          "midi": 48,
          "time": 92.19999999999895,
          "velocity": 0.3937007874015748,
          "duration": 0.09999999999999432
        },
        {
          "name": "A2",
          "midi": 45,
          "time": 92.39999999999894,
          "velocity": 0.3937007874015748,
          "duration": 0.09999999999999432
        },
        {
          "name": "G4",
          "midi": 67,
          "time": 92.39999999999894,
          "velocity": 0.3937007874015748,
          "duration": 0.09999999999999432
        },
        {
          "name": "C3",
          "midi": 48,
          "time": 92.59999999999893,
          "velocity": 0.3937007874015748,
          "duration": 0.09999999999999432
        },
        {
          "name": "G3",
          "midi": 55,
          "time": 92.59999999999893,
          "velocity": 0.3937007874015748,
          "duration": 0.09999999999999432
        },
        {
          "name": "B2",
          "midi": 47,
          "time": 92.79999999999892,
          "velocity": 0.3937007874015748,
          "duration": 0.09999999999999432
        },
        {
          "name": "F#3",
          "midi": 54,
          "time": 92.9999999999989,
          "velocity": 0.3937007874015748,
          "duration": 0.09999999999999432
        },
        {
          "name": "B3",
          "midi": 59,
          "time": 92.9999999999989,
          "velocity": 0.3937007874015748,
          "duration": 0.09999999999999432
        },
        {
          "name": "B2",
          "midi": 47,
          "time": 93.1999999999989,
          "velocity": 0.3937007874015748,
          "duration": 0.09999999999999432
        },
        {
          "name": "A3",
          "midi": 57,
          "time": 93.39999999999888,
          "velocity": 0.3937007874015748,
          "duration": 0.09999999999999432
        },
        {
          "name": "F#3",
          "midi": 54,
          "time": 93.39999999999888,
          "velocity": 0.3937007874015748,
          "duration": 0.09999999999999432
        },
        {
          "name": "B2",
          "midi": 47,
          "time": 93.59999999999887,
          "velocity": 0.3937007874015748,
          "duration": 0.09999999999999432
        },
        {
          "name": "F#3",
          "midi": 54,
          "time": 93.79999999999886,
          "velocity": 0.3937007874015748,
          "duration": 0.09999999999999432
        },
        {
          "name": "B3",
          "midi": 59,
          "time": 93.79999999999886,
          "velocity": 0.3937007874015748,
          "duration": 0.09999999999999432
        },
        {
          "name": "B2",
          "midi": 47,
          "time": 93.99999999999885,
          "velocity": 0.3937007874015748,
          "duration": 0.09999999999999432
        },
        {
          "name": "F#3",
          "midi": 54,
          "time": 94.19999999999884,
          "velocity": 0.3937007874015748,
          "duration": 0.09999999999999432
        },
        {
          "name": "D#3",
          "midi": 51,
          "time": 94.19999999999884,
          "velocity": 0.3937007874015748,
          "duration": 0.09999999999999432
        },
        {
          "name": "B2",
          "midi": 47,
          "time": 94.39999999999883,
          "velocity": 0.3937007874015748,
          "duration": 0.09999999999999432
        },
        {
          "name": "F#3",
          "midi": 54,
          "time": 94.59999999999881,
          "velocity": 0.3937007874015748,
          "duration": 0.09999999999999432
        },
        {
          "name": "B3",
          "midi": 59,
          "time": 94.59999999999881,
          "velocity": 0.3937007874015748,
          "duration": 0.09999999999999432
        },
        {
          "name": "B2",
          "midi": 47,
          "time": 94.7999999999988,
          "velocity": 0.3937007874015748,
          "duration": 0.09999999999999432
        },
        {
          "name": "A3",
          "midi": 57,
          "time": 94.99999999999879,
          "velocity": 0.3937007874015748,
          "duration": 0.09999999999999432
        },
        {
          "name": "F#3",
          "midi": 54,
          "time": 94.99999999999879,
          "velocity": 0.3937007874015748,
          "duration": 0.09999999999999432
        },
        {
          "name": "B2",
          "midi": 47,
          "time": 95.19999999999878,
          "velocity": 0.3937007874015748,
          "duration": 0.09999999999999432
        },
        {
          "name": "F#3",
          "midi": 54,
          "time": 95.39999999999877,
          "velocity": 0.3937007874015748,
          "duration": 0.09999999999999432
        },
        {
          "name": "B3",
          "midi": 59,
          "time": 95.39999999999877,
          "velocity": 0.3937007874015748,
          "duration": 0.09999999999999432
        },
        {
          "name": "B2",
          "midi": 47,
          "time": 95.59999999999876,
          "velocity": 0.3937007874015748,
          "duration": 0.09999999999999432
        },
        {
          "name": "F#3",
          "midi": 54,
          "time": 95.79999999999875,
          "velocity": 0.3937007874015748,
          "duration": 0.09999999999999432
        },
        {
          "name": "D#3",
          "midi": 51,
          "time": 95.79999999999875,
          "velocity": 0.3937007874015748,
          "duration": 0.09999999999999432
        },
        {
          "name": "C3",
          "midi": 48,
          "time": 95.99999999999874,
          "velocity": 0.3937007874015748,
          "duration": 0.09999999999999432
        },
        {
          "name": "E3",
          "midi": 52,
          "time": 95.99999999999874,
          "velocity": 0.3937007874015748,
          "duration": 0.09999999999999432
        },
        {
          "name": "C3",
          "midi": 48,
          "time": 96.39999999999873,
          "velocity": 0.3937007874015748,
          "duration": 0.09999999999999432
        },
        {
          "name": "E3",
          "midi": 52,
          "time": 96.39999999999873,
          "velocity": 0.3937007874015748,
          "duration": 0.09999999999999432
        },
        {
          "name": "E3",
          "midi": 52,
          "time": 96.79999999999872,
          "velocity": 0.3937007874015748,
          "duration": 0.09999999999999432
        },
        {
          "name": "C3",
          "midi": 48,
          "time": 96.79999999999872,
          "velocity": 0.3937007874015748,
          "duration": 0.09999999999999432
        },
        {
          "name": "E3",
          "midi": 52,
          "time": 97.09999999999872,
          "velocity": 0.3937007874015748,
          "duration": 0.09999999999999432
        },
        {
          "name": "C3",
          "midi": 48,
          "time": 97.09999999999872,
          "velocity": 0.3937007874015748,
          "duration": 0.09999999999999432
        },
        {
          "name": "G2",
          "midi": 43,
          "time": 97.19999999999871,
          "velocity": 0.3937007874015748,
          "duration": 0.09999999999999432
        },
        {
          "name": "E3",
          "midi": 52,
          "time": 97.3999999999987,
          "velocity": 0.3937007874015748,
          "duration": 0.09999999999999432
        },
        {
          "name": "C3",
          "midi": 48,
          "time": 97.3999999999987,
          "velocity": 0.3937007874015748,
          "duration": 0.09999999999999432
        },
        {
          "name": "D2",
          "midi": 38,
          "time": 97.59999999999869,
          "velocity": 0.3937007874015748,
          "duration": 0.09999999999999432
        },
        {
          "name": "D3",
          "midi": 50,
          "time": 97.79999999999868,
          "velocity": 0.3937007874015748,
          "duration": 0.09999999999999432
        },
        {
          "name": "A2",
          "midi": 45,
          "time": 97.79999999999868,
          "velocity": 0.3937007874015748,
          "duration": 0.09999999999999432
        },
        {
          "name": "D3",
          "midi": 50,
          "time": 97.99999999999866,
          "velocity": 0.3937007874015748,
          "duration": 0.09999999999999432
        },
        {
          "name": "A2",
          "midi": 45,
          "time": 97.99999999999866,
          "velocity": 0.3937007874015748,
          "duration": 0.09999999999999432
        },
        {
          "name": "D3",
          "midi": 50,
          "time": 98.39999999999866,
          "velocity": 0.3937007874015748,
          "duration": 0.09999999999999432
        },
        {
          "name": "A2",
          "midi": 45,
          "time": 98.39999999999866,
          "velocity": 0.3937007874015748,
          "duration": 0.09999999999999432
        },
        {
          "name": "D3",
          "midi": 50,
          "time": 98.69999999999865,
          "velocity": 0.3937007874015748,
          "duration": 0.09999999999999432
        },
        {
          "name": "A2",
          "midi": 45,
          "time": 98.69999999999865,
          "velocity": 0.3937007874015748,
          "duration": 0.09999999999999432
        },
        {
          "name": "E2",
          "midi": 40,
          "time": 98.79999999999865,
          "velocity": 0.3937007874015748,
          "duration": 0.09999999999999432
        },
        {
          "name": "A2",
          "midi": 45,
          "time": 98.99999999999864,
          "velocity": 0.3937007874015748,
          "duration": 0.09999999999999432
        },
        {
          "name": "D3",
          "midi": 50,
          "time": 98.99999999999864,
          "velocity": 0.3937007874015748,
          "duration": 0.09999999999999432
        },
        {
          "name": "E2",
          "midi": 40,
          "time": 99.19999999999862,
          "velocity": 0.3937007874015748,
          "duration": 0.09999999999999432
        },
        {
          "name": "B2",
          "midi": 47,
          "time": 99.39999999999861,
          "velocity": 0.3937007874015748,
          "duration": 0.09999999999999432
        },
        {
          "name": "G2",
          "midi": 43,
          "time": 99.39999999999861,
          "velocity": 0.3937007874015748,
          "duration": 0.09999999999999432
        },
        {
          "name": "B2",
          "midi": 47,
          "time": 99.5999999999986,
          "velocity": 0.3937007874015748,
          "duration": 0.09999999999999432
        },
        {
          "name": "G2",
          "midi": 43,
          "time": 99.5999999999986,
          "velocity": 0.3937007874015748,
          "duration": 0.09999999999999432
        },
        {
          "name": "B2",
          "midi": 47,
          "time": 99.9999999999986,
          "velocity": 0.3937007874015748,
          "duration": 0.09999999999999432
        },
        {
          "name": "G2",
          "midi": 43,
          "time": 99.9999999999986,
          "velocity": 0.3937007874015748,
          "duration": 0.09999999999999432
        },
        {
          "name": "B2",
          "midi": 47,
          "time": 100.29999999999859,
          "velocity": 0.3937007874015748,
          "duration": 0.09999999999999432
        },
        {
          "name": "G2",
          "midi": 43,
          "time": 100.29999999999859,
          "velocity": 0.3937007874015748,
          "duration": 0.09999999999999432
        },
        {
          "name": "E2",
          "midi": 40,
          "time": 100.39999999999858,
          "velocity": 0.3937007874015748,
          "duration": 0.09999999999999432
        },
        {
          "name": "B2",
          "midi": 47,
          "time": 100.59999999999857,
          "velocity": 0.3937007874015748,
          "duration": 0.09999999999999432
        },
        {
          "name": "G2",
          "midi": 43,
          "time": 100.59999999999857,
          "velocity": 0.3937007874015748,
          "duration": 0.09999999999999432
        },
        {
          "name": "E2",
          "midi": 40,
          "time": 100.79999999999856,
          "velocity": 0.3937007874015748,
          "duration": 0.09999999999999432
        },
        {
          "name": "B2",
          "midi": 47,
          "time": 100.99999999999855,
          "velocity": 0.3937007874015748,
          "duration": 0.09999999999999432
        },
        {
          "name": "G2",
          "midi": 43,
          "time": 100.99999999999855,
          "velocity": 0.3937007874015748,
          "duration": 0.09999999999999432
        },
        {
          "name": "B2",
          "midi": 47,
          "time": 101.19999999999854,
          "velocity": 0.3937007874015748,
          "duration": 0.09999999999999432
        },
        {
          "name": "G2",
          "midi": 43,
          "time": 101.19999999999854,
          "velocity": 0.3937007874015748,
          "duration": 0.09999999999999432
        },
        {
          "name": "E2",
          "midi": 40,
          "time": 101.59999999999853,
          "velocity": 0.3937007874015748,
          "duration": 0.09999999999999432
        },
        {
          "name": "B1",
          "midi": 35,
          "time": 101.79999999999852,
          "velocity": 0.3937007874015748,
          "duration": 0.09999999999999432
        },
        {
          "name": "E2",
          "midi": 40,
          "time": 101.99999999999851,
          "velocity": 0.3937007874015748,
          "duration": 0.09999999999999432
        },
        {
          "name": "D2",
          "midi": 38,
          "time": 102.1999999999985,
          "velocity": 0.3937007874015748,
          "duration": 0.09999999999999432
        },
        {
          "name": "C3",
          "midi": 48,
          "time": 102.39999999999849,
          "velocity": 0.3937007874015748,
          "duration": 0.09999999999999432
        },
        {
          "name": "E3",
          "midi": 52,
          "time": 102.39999999999849,
          "velocity": 0.3937007874015748,
          "duration": 0.09999999999999432
        },
        {
          "name": "C3",
          "midi": 48,
          "time": 102.79999999999848,
          "velocity": 0.3937007874015748,
          "duration": 0.09999999999999432
        },
        {
          "name": "E3",
          "midi": 52,
          "time": 102.79999999999848,
          "velocity": 0.3937007874015748,
          "duration": 0.09999999999999432
        },
        {
          "name": "E3",
          "midi": 52,
          "time": 103.19999999999847,
          "velocity": 0.3937007874015748,
          "duration": 0.09999999999999432
        },
        {
          "name": "C3",
          "midi": 48,
          "time": 103.19999999999847,
          "velocity": 0.3937007874015748,
          "duration": 0.09999999999999432
        },
        {
          "name": "E3",
          "midi": 52,
          "time": 103.49999999999847,
          "velocity": 0.3937007874015748,
          "duration": 0.09999999999999432
        },
        {
          "name": "C3",
          "midi": 48,
          "time": 103.49999999999847,
          "velocity": 0.3937007874015748,
          "duration": 0.09999999999999432
        },
        {
          "name": "G2",
          "midi": 43,
          "time": 103.59999999999846,
          "velocity": 0.3937007874015748,
          "duration": 0.09999999999999432
        },
        {
          "name": "E3",
          "midi": 52,
          "time": 103.79999999999845,
          "velocity": 0.3937007874015748,
          "duration": 0.09999999999999432
        },
        {
          "name": "C3",
          "midi": 48,
          "time": 103.79999999999845,
          "velocity": 0.3937007874015748,
          "duration": 0.09999999999999432
        },
        {
          "name": "A2",
          "midi": 45,
          "time": 103.99999999999844,
          "velocity": 0.3937007874015748,
          "duration": 0.09999999999999432
        },
        {
          "name": "D3",
          "midi": 50,
          "time": 104.19999999999843,
          "velocity": 0.3937007874015748,
          "duration": 0.09999999999999432
        },
        {
          "name": "F#3",
          "midi": 54,
          "time": 104.19999999999843,
          "velocity": 0.3937007874015748,
          "duration": 0.09999999999999432
        },
        {
          "name": "D3",
          "midi": 50,
          "time": 104.39999999999841,
          "velocity": 0.3937007874015748,
          "duration": 0.09999999999999432
        },
        {
          "name": "F#3",
          "midi": 54,
          "time": 104.39999999999841,
          "velocity": 0.3937007874015748,
          "duration": 0.09999999999999432
        },
        {
          "name": "D3",
          "midi": 50,
          "time": 104.7999999999984,
          "velocity": 0.3937007874015748,
          "duration": 0.09999999999999432
        },
        {
          "name": "F#3",
          "midi": 54,
          "time": 104.7999999999984,
          "velocity": 0.3937007874015748,
          "duration": 0.09999999999999432
        },
        {
          "name": "A2",
          "midi": 45,
          "time": 104.9999999999984,
          "velocity": 0.3937007874015748,
          "duration": 0.09999999999999432
        },
        {
          "name": "A2",
          "midi": 45,
          "time": 105.19999999999838,
          "velocity": 0.3937007874015748,
          "duration": 0.09999999999999432
        },
        {
          "name": "D3",
          "midi": 50,
          "time": 105.19999999999838,
          "velocity": 0.3937007874015748,
          "duration": 0.09999999999999432
        },
        {
          "name": "D2",
          "midi": 38,
          "time": 105.39999999999837,
          "velocity": 0.3937007874015748,
          "duration": 0.09999999999999432
        },
        {
          "name": "F#2",
          "midi": 42,
          "time": 105.59999999999836,
          "velocity": 0.3937007874015748,
          "duration": 0.09999999999999432
        },
        {
          "name": "D#3",
          "midi": 51,
          "time": 105.79999999999835,
          "velocity": 0.3937007874015748,
          "duration": 0.09999999999999432
        },
        {
          "name": "B2",
          "midi": 47,
          "time": 105.79999999999835,
          "velocity": 0.3937007874015748,
          "duration": 0.09999999999999432
        },
        {
          "name": "D#3",
          "midi": 51,
          "time": 105.99999999999834,
          "velocity": 0.3937007874015748,
          "duration": 0.09999999999999432
        },
        {
          "name": "B2",
          "midi": 47,
          "time": 105.99999999999834,
          "velocity": 0.3937007874015748,
          "duration": 0.09999999999999432
        },
        {
          "name": "B2",
          "midi": 47,
          "time": 106.39999999999833,
          "velocity": 0.3937007874015748,
          "duration": 0.09999999999999432
        },
        {
          "name": "D#3",
          "midi": 51,
          "time": 106.39999999999833,
          "velocity": 0.3937007874015748,
          "duration": 0.09999999999999432
        },
        {
          "name": "B2",
          "midi": 47,
          "time": 106.69999999999833,
          "velocity": 0.3937007874015748,
          "duration": 0.09999999999999432
        },
        {
          "name": "D#3",
          "midi": 51,
          "time": 106.69999999999833,
          "velocity": 0.3937007874015748,
          "duration": 0.09999999999999432
        },
        {
          "name": "F#2",
          "midi": 42,
          "time": 106.79999999999832,
          "velocity": 0.3937007874015748,
          "duration": 0.09999999999999432
        },
        {
          "name": "B2",
          "midi": 47,
          "time": 106.99999999999831,
          "velocity": 0.3937007874015748,
          "duration": 0.09999999999999432
        },
        {
          "name": "D#3",
          "midi": 51,
          "time": 106.99999999999831,
          "velocity": 0.3937007874015748,
          "duration": 0.09999999999999432
        },
        {
          "name": "F#2",
          "midi": 42,
          "time": 107.1999999999983,
          "velocity": 0.3937007874015748,
          "duration": 0.09999999999999432
        },
        {
          "name": "D#3",
          "midi": 51,
          "time": 107.39999999999829,
          "velocity": 0.3937007874015748,
          "duration": 0.09999999999999432
        },
        {
          "name": "B2",
          "midi": 47,
          "time": 107.39999999999829,
          "velocity": 0.3937007874015748,
          "duration": 0.09999999999999432
        },
        {
          "name": "D#3",
          "midi": 51,
          "time": 107.59999999999827,
          "velocity": 0.3937007874015748,
          "duration": 0.09999999999999432
        },
        {
          "name": "B2",
          "midi": 47,
          "time": 107.59999999999827,
          "velocity": 0.3937007874015748,
          "duration": 0.09999999999999432
        },
        {
          "name": "D#3",
          "midi": 51,
          "time": 107.99999999999827,
          "velocity": 0.3937007874015748,
          "duration": 0.09999999999999432
        },
        {
          "name": "F#2",
          "midi": 42,
          "time": 108.19999999999825,
          "velocity": 0.3937007874015748,
          "duration": 0.09999999999999432
        },
        {
          "name": "B1",
          "midi": 35,
          "time": 108.39999999999824,
          "velocity": 0.3937007874015748,
          "duration": 0.09999999999999432
        },
        {
          "name": "C#2",
          "midi": 37,
          "time": 108.79999999999824,
          "velocity": 0.3937007874015748,
          "duration": 0.09999999999999432
        },
        {
          "name": "G#2",
          "midi": 44,
          "time": 108.99999999999822,
          "velocity": 0.3937007874015748,
          "duration": 0.09999999999999432
        },
        {
          "name": "C#3",
          "midi": 49,
          "time": 108.99999999999822,
          "velocity": 0.3937007874015748,
          "duration": 0.09999999999999432
        },
        {
          "name": "C#2",
          "midi": 37,
          "time": 109.19999999999821,
          "velocity": 0.3937007874015748,
          "duration": 0.09999999999999432
        },
        {
          "name": "G#2",
          "midi": 44,
          "time": 109.3999999999982,
          "velocity": 0.3937007874015748,
          "duration": 0.09999999999999432
        },
        {
          "name": "B2",
          "midi": 47,
          "time": 109.3999999999982,
          "velocity": 0.3937007874015748,
          "duration": 0.09999999999999432
        },
        {
          "name": "C#2",
          "midi": 37,
          "time": 109.59999999999819,
          "velocity": 0.3937007874015748,
          "duration": 0.09999999999999432
        },
        {
          "name": "G#2",
          "midi": 44,
          "time": 109.79999999999818,
          "velocity": 0.3937007874015748,
          "duration": 0.09999999999999432
        },
        {
          "name": "C#3",
          "midi": 49,
          "time": 109.79999999999818,
          "velocity": 0.3937007874015748,
          "duration": 0.09999999999999432
        },
        {
          "name": "C#2",
          "midi": 37,
          "time": 109.99999999999817,
          "velocity": 0.3937007874015748,
          "duration": 0.09999999999999432
        },
        {
          "name": "G#2",
          "midi": 44,
          "time": 110.19999999999816,
          "velocity": 0.3937007874015748,
          "duration": 0.09999999999999432
        },
        {
          "name": "D#3",
          "midi": 51,
          "time": 110.19999999999816,
          "velocity": 0.3937007874015748,
          "duration": 0.09999999999999432
        },
        {
          "name": "C#2",
          "midi": 37,
          "time": 110.39999999999814,
          "velocity": 0.3937007874015748,
          "duration": 0.09999999999999432
        },
        {
          "name": "G#2",
          "midi": 44,
          "time": 110.59999999999813,
          "velocity": 0.3937007874015748,
          "duration": 0.09999999999999432
        },
        {
          "name": "C#3",
          "midi": 49,
          "time": 110.59999999999813,
          "velocity": 0.3937007874015748,
          "duration": 0.09999999999999432
        },
        {
          "name": "C#2",
          "midi": 37,
          "time": 110.79999999999812,
          "velocity": 0.3937007874015748,
          "duration": 0.09999999999999432
        },
        {
          "name": "B2",
          "midi": 47,
          "time": 110.99999999999811,
          "velocity": 0.3937007874015748,
          "duration": 0.09999999999999432
        },
        {
          "name": "G#2",
          "midi": 44,
          "time": 110.99999999999811,
          "velocity": 0.3937007874015748,
          "duration": 0.09999999999999432
        },
        {
          "name": "C#2",
          "midi": 37,
          "time": 111.1999999999981,
          "velocity": 0.3937007874015748,
          "duration": 0.09999999999999432
        },
        {
          "name": "G#2",
          "midi": 44,
          "time": 111.39999999999809,
          "velocity": 0.3937007874015748,
          "duration": 0.09999999999999432
        },
        {
          "name": "D#3",
          "midi": 51,
          "time": 111.39999999999809,
          "velocity": 0.3937007874015748,
          "duration": 0.09999999999999432
        },
        {
          "name": "C#2",
          "midi": 37,
          "time": 111.59999999999808,
          "velocity": 0.3937007874015748,
          "duration": 0.09999999999999432
        },
        {
          "name": "G#2",
          "midi": 44,
          "time": 111.79999999999806,
          "velocity": 0.3937007874015748,
          "duration": 0.09999999999999432
        },
        {
          "name": "C#3",
          "midi": 49,
          "time": 111.79999999999806,
          "velocity": 0.3937007874015748,
          "duration": 0.09999999999999432
        },
        {
          "name": "A1",
          "midi": 33,
          "time": 111.99999999999805,
          "velocity": 0.3937007874015748,
          "duration": 0.09999999999999432
        },
        {
          "name": "E2",
          "midi": 40,
          "time": 112.19999999999804,
          "velocity": 0.3937007874015748,
          "duration": 0.09999999999999432
        },
        {
          "name": "A2",
          "midi": 45,
          "time": 112.19999999999804,
          "velocity": 0.3937007874015748,
          "duration": 0.09999999999999432
        },
        {
          "name": "A1",
          "midi": 33,
          "time": 112.39999999999803,
          "velocity": 0.3937007874015748,
          "duration": 0.09999999999999432
        },
        {
          "name": "E2",
          "midi": 40,
          "time": 112.59999999999802,
          "velocity": 0.3937007874015748,
          "duration": 0.09999999999999432
        },
        {
          "name": "G#2",
          "midi": 44,
          "time": 112.59999999999802,
          "velocity": 0.3937007874015748,
          "duration": 0.09999999999999432
        },
        {
          "name": "A1",
          "midi": 33,
          "time": 112.79999999999801,
          "velocity": 0.3937007874015748,
          "duration": 0.09999999999999432
        },
        {
          "name": "E2",
          "midi": 40,
          "time": 112.999999999998,
          "velocity": 0.3937007874015748,
          "duration": 0.09999999999999432
        },
        {
          "name": "A2",
          "midi": 45,
          "time": 112.999999999998,
          "velocity": 0.3937007874015748,
          "duration": 0.09999999999999432
        },
        {
          "name": "A1",
          "midi": 33,
          "time": 113.19999999999798,
          "velocity": 0.3937007874015748,
          "duration": 0.09999999999999432
        },
        {
          "name": "B2",
          "midi": 47,
          "time": 113.39999999999797,
          "velocity": 0.3937007874015748,
          "duration": 0.09999999999999432
        },
        {
          "name": "E2",
          "midi": 40,
          "time": 113.39999999999797,
          "velocity": 0.3937007874015748,
          "duration": 0.09999999999999432
        },
        {
          "name": "A1",
          "midi": 33,
          "time": 113.59999999999796,
          "velocity": 0.3937007874015748,
          "duration": 0.09999999999999432
        },
        {
          "name": "E2",
          "midi": 40,
          "time": 113.79999999999795,
          "velocity": 0.3937007874015748,
          "duration": 0.09999999999999432
        },
        {
          "name": "A2",
          "midi": 45,
          "time": 113.79999999999795,
          "velocity": 0.3937007874015748,
          "duration": 0.09999999999999432
        },
        {
          "name": "A1",
          "midi": 33,
          "time": 113.99999999999794,
          "velocity": 0.3937007874015748,
          "duration": 0.09999999999999432
        },
        {
          "name": "E2",
          "midi": 40,
          "time": 114.19999999999793,
          "velocity": 0.3937007874015748,
          "duration": 0.09999999999999432
        },
        {
          "name": "G#2",
          "midi": 44,
          "time": 114.19999999999793,
          "velocity": 0.3937007874015748,
          "duration": 0.09999999999999432
        },
        {
          "name": "A1",
          "midi": 33,
          "time": 114.39999999999792,
          "velocity": 0.3937007874015748,
          "duration": 0.09999999999999432
        },
        {
          "name": "E2",
          "midi": 40,
          "time": 114.5999999999979,
          "velocity": 0.3937007874015748,
          "duration": 0.09999999999999432
        },
        {
          "name": "B2",
          "midi": 47,
          "time": 114.5999999999979,
          "velocity": 0.3937007874015748,
          "duration": 0.09999999999999432
        },
        {
          "name": "A1",
          "midi": 33,
          "time": 114.7999999999979,
          "velocity": 0.3937007874015748,
          "duration": 0.09999999999999432
        },
        {
          "name": "A2",
          "midi": 45,
          "time": 114.99999999999788,
          "velocity": 0.3937007874015748,
          "duration": 0.09999999999999432
        },
        {
          "name": "E2",
          "midi": 40,
          "time": 114.99999999999788,
          "velocity": 0.3937007874015748,
          "duration": 0.09999999999999432
        },
        {
          "name": "C#2",
          "midi": 37,
          "time": 115.19999999999787,
          "velocity": 0.3937007874015748,
          "duration": 0.09999999999999432
        },
        {
          "name": "G#2",
          "midi": 44,
          "time": 115.39999999999786,
          "velocity": 0.3937007874015748,
          "duration": 0.09999999999999432
        },
        {
          "name": "C#3",
          "midi": 49,
          "time": 115.39999999999786,
          "velocity": 0.3937007874015748,
          "duration": 0.09999999999999432
        },
        {
          "name": "C#2",
          "midi": 37,
          "time": 115.59999999999785,
          "velocity": 0.3937007874015748,
          "duration": 0.09999999999999432
        },
        {
          "name": "G#2",
          "midi": 44,
          "time": 115.79999999999784,
          "velocity": 0.3937007874015748,
          "duration": 0.09999999999999432
        },
        {
          "name": "B2",
          "midi": 47,
          "time": 115.79999999999784,
          "velocity": 0.3937007874015748,
          "duration": 0.09999999999999432
        },
        {
          "name": "C#2",
          "midi": 37,
          "time": 115.99999999999783,
          "velocity": 0.3937007874015748,
          "duration": 0.09999999999999432
        },
        {
          "name": "G#2",
          "midi": 44,
          "time": 116.19999999999781,
          "velocity": 0.3937007874015748,
          "duration": 0.09999999999999432
        },
        {
          "name": "C#3",
          "midi": 49,
          "time": 116.19999999999781,
          "velocity": 0.3937007874015748,
          "duration": 0.09999999999999432
        },
        {
          "name": "C#2",
          "midi": 37,
          "time": 116.3999999999978,
          "velocity": 0.3937007874015748,
          "duration": 0.09999999999999432
        },
        {
          "name": "G#2",
          "midi": 44,
          "time": 116.59999999999779,
          "velocity": 0.3937007874015748,
          "duration": 0.09999999999999432
        },
        {
          "name": "D#3",
          "midi": 51,
          "time": 116.59999999999779,
          "velocity": 0.3937007874015748,
          "duration": 0.09999999999999432
        },
        {
          "name": "C#2",
          "midi": 37,
          "time": 116.79999999999778,
          "velocity": 0.3937007874015748,
          "duration": 0.09999999999999432
        },
        {
          "name": "G#2",
          "midi": 44,
          "time": 116.99999999999777,
          "velocity": 0.3937007874015748,
          "duration": 0.09999999999999432
        },
        {
          "name": "C#3",
          "midi": 49,
          "time": 116.99999999999777,
          "velocity": 0.3937007874015748,
          "duration": 0.09999999999999432
        },
        {
          "name": "C#2",
          "midi": 37,
          "time": 117.19999999999776,
          "velocity": 0.3937007874015748,
          "duration": 0.09999999999999432
        },
        {
          "name": "B2",
          "midi": 47,
          "time": 117.39999999999775,
          "velocity": 0.3937007874015748,
          "duration": 0.09999999999999432
        },
        {
          "name": "G#2",
          "midi": 44,
          "time": 117.39999999999775,
          "velocity": 0.3937007874015748,
          "duration": 0.09999999999999432
        },
        {
          "name": "C#2",
          "midi": 37,
          "time": 117.59999999999773,
          "velocity": 0.3937007874015748,
          "duration": 0.09999999999999432
        },
        {
          "name": "G#2",
          "midi": 44,
          "time": 117.79999999999772,
          "velocity": 0.3937007874015748,
          "duration": 0.09999999999999432
        },
        {
          "name": "D#3",
          "midi": 51,
          "time": 117.79999999999772,
          "velocity": 0.3937007874015748,
          "duration": 0.09999999999999432
        },
        {
          "name": "C#2",
          "midi": 37,
          "time": 117.99999999999771,
          "velocity": 0.3937007874015748,
          "duration": 0.09999999999999432
        },
        {
          "name": "G#2",
          "midi": 44,
          "time": 118.1999999999977,
          "velocity": 0.3937007874015748,
          "duration": 0.09999999999999432
        },
        {
          "name": "C#3",
          "midi": 49,
          "time": 118.1999999999977,
          "velocity": 0.3937007874015748,
          "duration": 0.09999999999999432
        },
        {
          "name": "A1",
          "midi": 33,
          "time": 118.39999999999769,
          "velocity": 0.3937007874015748,
          "duration": 0.09999999999999432
        },
        {
          "name": "E2",
          "midi": 40,
          "time": 118.59999999999768,
          "velocity": 0.3937007874015748,
          "duration": 0.09999999999999432
        },
        {
          "name": "A2",
          "midi": 45,
          "time": 118.59999999999768,
          "velocity": 0.3937007874015748,
          "duration": 0.09999999999999432
        },
        {
          "name": "A1",
          "midi": 33,
          "time": 118.79999999999767,
          "velocity": 0.3937007874015748,
          "duration": 0.09999999999999432
        },
        {
          "name": "E2",
          "midi": 40,
          "time": 118.99999999999766,
          "velocity": 0.3937007874015748,
          "duration": 0.09999999999999432
        },
        {
          "name": "G#2",
          "midi": 44,
          "time": 118.99999999999766,
          "velocity": 0.3937007874015748,
          "duration": 0.09999999999999432
        },
        {
          "name": "A1",
          "midi": 33,
          "time": 119.19999999999764,
          "velocity": 0.3937007874015748,
          "duration": 0.09999999999999432
        },
        {
          "name": "E2",
          "midi": 40,
          "time": 119.39999999999763,
          "velocity": 0.3937007874015748,
          "duration": 0.09999999999999432
        },
        {
          "name": "A2",
          "midi": 45,
          "time": 119.39999999999763,
          "velocity": 0.3937007874015748,
          "duration": 0.09999999999999432
        },
        {
          "name": "A1",
          "midi": 33,
          "time": 119.59999999999762,
          "velocity": 0.3937007874015748,
          "duration": 0.09999999999999432
        },
        {
          "name": "B2",
          "midi": 47,
          "time": 119.79999999999761,
          "velocity": 0.3937007874015748,
          "duration": 0.09999999999999432
        },
        {
          "name": "E2",
          "midi": 40,
          "time": 119.79999999999761,
          "velocity": 0.3937007874015748,
          "duration": 0.09999999999999432
        },
        {
          "name": "A1",
          "midi": 33,
          "time": 119.9999999999976,
          "velocity": 0.3937007874015748,
          "duration": 0.09999999999999432
        },
        {
          "name": "E2",
          "midi": 40,
          "time": 120.19999999999759,
          "velocity": 0.3937007874015748,
          "duration": 0.09999999999999432
        },
        {
          "name": "A2",
          "midi": 45,
          "time": 120.19999999999759,
          "velocity": 0.3937007874015748,
          "duration": 0.09999999999999432
        },
        {
          "name": "A1",
          "midi": 33,
          "time": 120.39999999999758,
          "velocity": 0.3937007874015748,
          "duration": 0.09999999999999432
        },
        {
          "name": "E2",
          "midi": 40,
          "time": 120.59999999999756,
          "velocity": 0.3937007874015748,
          "duration": 0.09999999999999432
        },
        {
          "name": "G#2",
          "midi": 44,
          "time": 120.59999999999756,
          "velocity": 0.3937007874015748,
          "duration": 0.09999999999999432
        },
        {
          "name": "A1",
          "midi": 33,
          "time": 120.79999999999755,
          "velocity": 0.3937007874015748,
          "duration": 0.09999999999999432
        },
        {
          "name": "E2",
          "midi": 40,
          "time": 120.99999999999754,
          "velocity": 0.3937007874015748,
          "duration": 0.09999999999999432
        },
        {
          "name": "B2",
          "midi": 47,
          "time": 120.99999999999754,
          "velocity": 0.3937007874015748,
          "duration": 0.09999999999999432
        },
        {
          "name": "A1",
          "midi": 33,
          "time": 121.19999999999753,
          "velocity": 0.3937007874015748,
          "duration": 0.09999999999999432
        },
        {
          "name": "A2",
          "midi": 45,
          "time": 121.39999999999752,
          "velocity": 0.3937007874015748,
          "duration": 0.09999999999999432
        },
        {
          "name": "E2",
          "midi": 40,
          "time": 121.39999999999752,
          "velocity": 0.3937007874015748,
          "duration": 0.09999999999999432
        },
        {
          "name": "C#2",
          "midi": 37,
          "time": 121.59999999999751,
          "velocity": 0.3937007874015748,
          "duration": 0.09999999999999432
        },
        {
          "name": "G#2",
          "midi": 44,
          "time": 121.7999999999975,
          "velocity": 0.3937007874015748,
          "duration": 0.09999999999999432
        },
        {
          "name": "C#3",
          "midi": 49,
          "time": 121.7999999999975,
          "velocity": 0.3937007874015748,
          "duration": 0.09999999999999432
        },
        {
          "name": "C#2",
          "midi": 37,
          "time": 121.99999999999748,
          "velocity": 0.3937007874015748,
          "duration": 0.09999999999999432
        },
        {
          "name": "G#2",
          "midi": 44,
          "time": 122.19999999999747,
          "velocity": 0.3937007874015748,
          "duration": 0.09999999999999432
        },
        {
          "name": "B2",
          "midi": 47,
          "time": 122.19999999999747,
          "velocity": 0.3937007874015748,
          "duration": 0.09999999999999432
        },
        {
          "name": "C#2",
          "midi": 37,
          "time": 122.39999999999746,
          "velocity": 0.3937007874015748,
          "duration": 0.09999999999999432
        },
        {
          "name": "G#2",
          "midi": 44,
          "time": 122.59999999999745,
          "velocity": 0.3937007874015748,
          "duration": 0.09999999999999432
        },
        {
          "name": "C#3",
          "midi": 49,
          "time": 122.59999999999745,
          "velocity": 0.3937007874015748,
          "duration": 0.09999999999999432
        },
        {
          "name": "C#2",
          "midi": 37,
          "time": 122.79999999999744,
          "velocity": 0.3937007874015748,
          "duration": 0.09999999999999432
        },
        {
          "name": "G#2",
          "midi": 44,
          "time": 122.99999999999743,
          "velocity": 0.3937007874015748,
          "duration": 0.09999999999999432
        },
        {
          "name": "D#3",
          "midi": 51,
          "time": 122.99999999999743,
          "velocity": 0.3937007874015748,
          "duration": 0.09999999999999432
        },
        {
          "name": "C#2",
          "midi": 37,
          "time": 123.19999999999742,
          "velocity": 0.3937007874015748,
          "duration": 0.09999999999999432
        },
        {
          "name": "G#2",
          "midi": 44,
          "time": 123.3999999999974,
          "velocity": 0.3937007874015748,
          "duration": 0.09999999999999432
        },
        {
          "name": "C#3",
          "midi": 49,
          "time": 123.3999999999974,
          "velocity": 0.3937007874015748,
          "duration": 0.09999999999999432
        },
        {
          "name": "C#2",
          "midi": 37,
          "time": 123.5999999999974,
          "velocity": 0.3937007874015748,
          "duration": 0.09999999999999432
        },
        {
          "name": "B2",
          "midi": 47,
          "time": 123.79999999999738,
          "velocity": 0.3937007874015748,
          "duration": 0.09999999999999432
        },
        {
          "name": "G#2",
          "midi": 44,
          "time": 123.79999999999738,
          "velocity": 0.3937007874015748,
          "duration": 0.09999999999999432
        },
        {
          "name": "C#2",
          "midi": 37,
          "time": 123.99999999999737,
          "velocity": 0.3937007874015748,
          "duration": 0.09999999999999432
        },
        {
          "name": "G#2",
          "midi": 44,
          "time": 124.19999999999736,
          "velocity": 0.3937007874015748,
          "duration": 0.09999999999999432
        },
        {
          "name": "D#3",
          "midi": 51,
          "time": 124.19999999999736,
          "velocity": 0.3937007874015748,
          "duration": 0.09999999999999432
        },
        {
          "name": "C#2",
          "midi": 37,
          "time": 124.39999999999735,
          "velocity": 0.3937007874015748,
          "duration": 0.09999999999999432
        },
        {
          "name": "G#2",
          "midi": 44,
          "time": 124.59999999999734,
          "velocity": 0.3937007874015748,
          "duration": 0.09999999999999432
        },
        {
          "name": "C#3",
          "midi": 49,
          "time": 124.59999999999734,
          "velocity": 0.3937007874015748,
          "duration": 0.09999999999999432
        },
        {
          "name": "D#3",
          "midi": 51,
          "time": 124.59999999999734,
          "velocity": 0.3937007874015748,
          "duration": 0.09999999999999432
        },
        {
          "name": "A1",
          "midi": 33,
          "time": 124.79999999999733,
          "velocity": 0.3937007874015748,
          "duration": 0.09999999999999432
        },
        {
          "name": "E2",
          "midi": 40,
          "time": 124.99999999999731,
          "velocity": 0.3937007874015748,
          "duration": 0.09999999999999432
        },
        {
          "name": "A2",
          "midi": 45,
          "time": 124.99999999999731,
          "velocity": 0.3937007874015748,
          "duration": 0.09999999999999432
        },
        {
          "name": "A1",
          "midi": 33,
          "time": 125.1999999999973,
          "velocity": 0.3937007874015748,
          "duration": 0.09999999999999432
        },
        {
          "name": "E2",
          "midi": 40,
          "time": 125.39999999999729,
          "velocity": 0.3937007874015748,
          "duration": 0.09999999999999432
        },
        {
          "name": "G#2",
          "midi": 44,
          "time": 125.39999999999729,
          "velocity": 0.3937007874015748,
          "duration": 0.09999999999999432
        },
        {
          "name": "A1",
          "midi": 33,
          "time": 125.59999999999728,
          "velocity": 0.3937007874015748,
          "duration": 0.09999999999999432
        },
        {
          "name": "E2",
          "midi": 40,
          "time": 125.79999999999727,
          "velocity": 0.3937007874015748,
          "duration": 0.09999999999999432
        },
        {
          "name": "A2",
          "midi": 45,
          "time": 125.79999999999727,
          "velocity": 0.3937007874015748,
          "duration": 0.09999999999999432
        },
        {
          "name": "A1",
          "midi": 33,
          "time": 125.99999999999726,
          "velocity": 0.3937007874015748,
          "duration": 0.09999999999999432
        },
        {
          "name": "B2",
          "midi": 47,
          "time": 126.19999999999725,
          "velocity": 0.3937007874015748,
          "duration": 0.09999999999999432
        },
        {
          "name": "E2",
          "midi": 40,
          "time": 126.19999999999725,
          "velocity": 0.3937007874015748,
          "duration": 0.09999999999999432
        },
        {
          "name": "A1",
          "midi": 33,
          "time": 126.39999999999723,
          "velocity": 0.3937007874015748,
          "duration": 0.09999999999999432
        },
        {
          "name": "E2",
          "midi": 40,
          "time": 126.59999999999722,
          "velocity": 0.3937007874015748,
          "duration": 0.09999999999999432
        },
        {
          "name": "A2",
          "midi": 45,
          "time": 126.59999999999722,
          "velocity": 0.3937007874015748,
          "duration": 0.09999999999999432
        },
        {
          "name": "A1",
          "midi": 33,
          "time": 126.79999999999721,
          "velocity": 0.3937007874015748,
          "duration": 0.09999999999999432
        },
        {
          "name": "E2",
          "midi": 40,
          "time": 126.9999999999972,
          "velocity": 0.3937007874015748,
          "duration": 0.09999999999999432
        },
        {
          "name": "G#2",
          "midi": 44,
          "time": 126.9999999999972,
          "velocity": 0.3937007874015748,
          "duration": 0.09999999999999432
        },
        {
          "name": "A1",
          "midi": 33,
          "time": 127.19999999999719,
          "velocity": 0.3937007874015748,
          "duration": 0.09999999999999432
        },
        {
          "name": "E2",
          "midi": 40,
          "time": 127.39999999999718,
          "velocity": 0.3937007874015748,
          "duration": 0.09999999999999432
        },
        {
          "name": "B2",
          "midi": 47,
          "time": 127.39999999999718,
          "velocity": 0.3937007874015748,
          "duration": 0.09999999999999432
        },
        {
          "name": "A1",
          "midi": 33,
          "time": 127.59999999999717,
          "velocity": 0.3937007874015748,
          "duration": 0.09999999999999432
        },
        {
          "name": "A2",
          "midi": 45,
          "time": 127.79999999999715,
          "velocity": 0.3937007874015748,
          "duration": 0.09999999999999432
        },
        {
          "name": "E2",
          "midi": 40,
          "time": 127.79999999999715,
          "velocity": 0.3937007874015748,
          "duration": 0.09999999999999432
        },
        {
          "name": "C#2",
          "midi": 37,
          "time": 127.99999999999714,
          "velocity": 0.3937007874015748,
          "duration": 0.10000000000000853
        },
        {
          "name": "G#2",
          "midi": 44,
          "time": 128.19999999999715,
          "velocity": 0.3937007874015748,
          "duration": 0.09999999999999432
        },
        {
          "name": "C#3",
          "midi": 49,
          "time": 128.19999999999715,
          "velocity": 0.3937007874015748,
          "duration": 0.09999999999999432
        },
        {
          "name": "C#2",
          "midi": 37,
          "time": 128.39999999999714,
          "velocity": 0.3937007874015748,
          "duration": 0.09999999999999432
        },
        {
          "name": "G#2",
          "midi": 44,
          "time": 128.59999999999712,
          "velocity": 0.3937007874015748,
          "duration": 0.09999999999999432
        },
        {
          "name": "B2",
          "midi": 47,
          "time": 128.59999999999712,
          "velocity": 0.3937007874015748,
          "duration": 0.09999999999999432
        },
        {
          "name": "C#2",
          "midi": 37,
          "time": 128.7999999999971,
          "velocity": 0.3937007874015748,
          "duration": 0.09999999999999432
        },
        {
          "name": "G#2",
          "midi": 44,
          "time": 128.9999999999971,
          "velocity": 0.3937007874015748,
          "duration": 0.09999999999999432
        },
        {
          "name": "C#3",
          "midi": 49,
          "time": 128.9999999999971,
          "velocity": 0.3937007874015748,
          "duration": 0.09999999999999432
        },
        {
          "name": "C#2",
          "midi": 37,
          "time": 129.1999999999971,
          "velocity": 0.3937007874015748,
          "duration": 0.09999999999999432
        },
        {
          "name": "G#2",
          "midi": 44,
          "time": 129.39999999999708,
          "velocity": 0.3937007874015748,
          "duration": 0.09999999999999432
        },
        {
          "name": "D#3",
          "midi": 51,
          "time": 129.39999999999708,
          "velocity": 0.3937007874015748,
          "duration": 0.09999999999999432
        },
        {
          "name": "C#2",
          "midi": 37,
          "time": 129.59999999999707,
          "velocity": 0.3937007874015748,
          "duration": 0.09999999999999432
        },
        {
          "name": "G#2",
          "midi": 44,
          "time": 129.79999999999706,
          "velocity": 0.3937007874015748,
          "duration": 0.09999999999999432
        },
        {
          "name": "C#3",
          "midi": 49,
          "time": 129.79999999999706,
          "velocity": 0.3937007874015748,
          "duration": 0.09999999999999432
        },
        {
          "name": "C#2",
          "midi": 37,
          "time": 129.99999999999704,
          "velocity": 0.3937007874015748,
          "duration": 0.09999999999999432
        },
        {
          "name": "B2",
          "midi": 47,
          "time": 130.19999999999703,
          "velocity": 0.3937007874015748,
          "duration": 0.09999999999999432
        },
        {
          "name": "G#2",
          "midi": 44,
          "time": 130.19999999999703,
          "velocity": 0.3937007874015748,
          "duration": 0.09999999999999432
        },
        {
          "name": "C#2",
          "midi": 37,
          "time": 130.39999999999702,
          "velocity": 0.3937007874015748,
          "duration": 0.09999999999999432
        },
        {
          "name": "G#2",
          "midi": 44,
          "time": 130.599999999997,
          "velocity": 0.3937007874015748,
          "duration": 0.09999999999999432
        },
        {
          "name": "D#3",
          "midi": 51,
          "time": 130.599999999997,
          "velocity": 0.3937007874015748,
          "duration": 0.09999999999999432
        },
        {
          "name": "C#2",
          "midi": 37,
          "time": 130.799999999997,
          "velocity": 0.3937007874015748,
          "duration": 0.09999999999999432
        },
        {
          "name": "G#2",
          "midi": 44,
          "time": 130.999999999997,
          "velocity": 0.3937007874015748,
          "duration": 0.09999999999999432
        },
        {
          "name": "C#3",
          "midi": 49,
          "time": 130.999999999997,
          "velocity": 0.3937007874015748,
          "duration": 0.09999999999999432
        },
        {
          "name": "A1",
          "midi": 33,
          "time": 131.19999999999698,
          "velocity": 0.3937007874015748,
          "duration": 0.09999999999999432
        },
        {
          "name": "E2",
          "midi": 40,
          "time": 131.39999999999696,
          "velocity": 0.3937007874015748,
          "duration": 0.09999999999999432
        },
        {
          "name": "A2",
          "midi": 45,
          "time": 131.39999999999696,
          "velocity": 0.3937007874015748,
          "duration": 0.09999999999999432
        },
        {
          "name": "A1",
          "midi": 33,
          "time": 131.59999999999695,
          "velocity": 0.3937007874015748,
          "duration": 0.09999999999999432
        },
        {
          "name": "E2",
          "midi": 40,
          "time": 131.79999999999694,
          "velocity": 0.3937007874015748,
          "duration": 0.09999999999999432
        },
        {
          "name": "G#2",
          "midi": 44,
          "time": 131.79999999999694,
          "velocity": 0.3937007874015748,
          "duration": 0.09999999999999432
        },
        {
          "name": "A1",
          "midi": 33,
          "time": 131.99999999999693,
          "velocity": 0.3937007874015748,
          "duration": 0.09999999999999432
        },
        {
          "name": "E2",
          "midi": 40,
          "time": 132.19999999999692,
          "velocity": 0.3937007874015748,
          "duration": 0.09999999999999432
        },
        {
          "name": "A2",
          "midi": 45,
          "time": 132.19999999999692,
          "velocity": 0.3937007874015748,
          "duration": 0.09999999999999432
        },
        {
          "name": "A1",
          "midi": 33,
          "time": 132.3999999999969,
          "velocity": 0.3937007874015748,
          "duration": 0.09999999999999432
        },
        {
          "name": "B2",
          "midi": 47,
          "time": 132.5999999999969,
          "velocity": 0.3937007874015748,
          "duration": 0.09999999999999432
        },
        {
          "name": "E2",
          "midi": 40,
          "time": 132.5999999999969,
          "velocity": 0.3937007874015748,
          "duration": 0.09999999999999432
        },
        {
          "name": "A1",
          "midi": 33,
          "time": 132.79999999999688,
          "velocity": 0.3937007874015748,
          "duration": 0.09999999999999432
        },
        {
          "name": "E2",
          "midi": 40,
          "time": 132.99999999999687,
          "velocity": 0.3937007874015748,
          "duration": 0.09999999999999432
        },
        {
          "name": "A2",
          "midi": 45,
          "time": 132.99999999999687,
          "velocity": 0.3937007874015748,
          "duration": 0.09999999999999432
        },
        {
          "name": "A1",
          "midi": 33,
          "time": 133.19999999999686,
          "velocity": 0.3937007874015748,
          "duration": 0.09999999999999432
        },
        {
          "name": "E2",
          "midi": 40,
          "time": 133.39999999999685,
          "velocity": 0.3937007874015748,
          "duration": 0.09999999999999432
        },
        {
          "name": "G#2",
          "midi": 44,
          "time": 133.39999999999685,
          "velocity": 0.3937007874015748,
          "duration": 0.09999999999999432
        },
        {
          "name": "C#2",
          "midi": 37,
          "time": 133.59999999999684,
          "velocity": 0.3937007874015748,
          "duration": 0.09999999999999432
        },
        {
          "name": "G2",
          "midi": 43,
          "time": 133.79999999999683,
          "velocity": 0.3937007874015748,
          "duration": 0.09999999999999432
        },
        {
          "name": "B2",
          "midi": 47,
          "time": 133.79999999999683,
          "velocity": 0.3937007874015748,
          "duration": 0.09999999999999432
        },
        {
          "name": "G1",
          "midi": 31,
          "time": 133.99999999999682,
          "velocity": 0.3937007874015748,
          "duration": 0.09999999999999432
        },
        {
          "name": "F2",
          "midi": 41,
          "time": 134.1999999999968,
          "velocity": 0.3937007874015748,
          "duration": 0.09999999999999432
        },
        {
          "name": "C#2",
          "midi": 37,
          "time": 134.1999999999968,
          "velocity": 0.3937007874015748,
          "duration": 0.09999999999999432
        },
        {
          "name": "D2",
          "midi": 38,
          "time": 134.3999999999968,
          "velocity": 0.3937007874015748,
          "duration": 0.09999999999999432
        },
        {
          "name": "A2",
          "midi": 45,
          "time": 134.4999999999968,
          "velocity": 0.3937007874015748,
          "duration": 0.09999999999999432
        },
        {
          "name": "D3",
          "midi": 50,
          "time": 134.59999999999678,
          "velocity": 0.3937007874015748,
          "duration": 0.09999999999999432
        },
        {
          "name": "D3",
          "midi": 50,
          "time": 134.79999999999677,
          "velocity": 0.3937007874015748,
          "duration": 0.09999999999999432
        },
        {
          "name": "A3",
          "midi": 57,
          "time": 134.89999999999677,
          "velocity": 0.3937007874015748,
          "duration": 0.09999999999999432
        },
        {
          "name": "C4",
          "midi": 60,
          "time": 134.99999999999676,
          "velocity": 0.3937007874015748,
          "duration": 0.09999999999999432
        },
        {
          "name": "D3",
          "midi": 50,
          "time": 135.19999999999675,
          "velocity": 0.3937007874015748,
          "duration": 0.09999999999999432
        },
        {
          "name": "A3",
          "midi": 57,
          "time": 135.29999999999674,
          "velocity": 0.3937007874015748,
          "duration": 0.09999999999999432
        },
        {
          "name": "D4",
          "midi": 62,
          "time": 135.39999999999674,
          "velocity": 0.3937007874015748,
          "duration": 0.09999999999999432
        },
        {
          "name": "A2",
          "midi": 45,
          "time": 135.59999999999673,
          "velocity": 0.3937007874015748,
          "duration": 0.09999999999999432
        },
        {
          "name": "D3",
          "midi": 50,
          "time": 135.69999999999672,
          "velocity": 0.3937007874015748,
          "duration": 0.09999999999999432
        },
        {
          "name": "F3",
          "midi": 53,
          "time": 135.79999999999671,
          "velocity": 0.3937007874015748,
          "duration": 0.09999999999999432
        },
        {
          "name": "D2",
          "midi": 38,
          "time": 135.9999999999967,
          "velocity": 0.3937007874015748,
          "duration": 0.09999999999999432
        },
        {
          "name": "A2",
          "midi": 45,
          "time": 136.0999999999967,
          "velocity": 0.3937007874015748,
          "duration": 0.09999999999999432
        },
        {
          "name": "D3",
          "midi": 50,
          "time": 136.1999999999967,
          "velocity": 0.3937007874015748,
          "duration": 0.09999999999999432
        },
        {
          "name": "D3",
          "midi": 50,
          "time": 136.39999999999668,
          "velocity": 0.3937007874015748,
          "duration": 0.09999999999999432
        },
        {
          "name": "A3",
          "midi": 57,
          "time": 136.49999999999667,
          "velocity": 0.3937007874015748,
          "duration": 0.09999999999999432
        },
        {
          "name": "C4",
          "midi": 60,
          "time": 136.59999999999667,
          "velocity": 0.3937007874015748,
          "duration": 0.09999999999999432
        },
        {
          "name": "D3",
          "midi": 50,
          "time": 136.79999999999666,
          "velocity": 0.3937007874015748,
          "duration": 0.09999999999999432
        },
        {
          "name": "A3",
          "midi": 57,
          "time": 136.89999999999665,
          "velocity": 0.3937007874015748,
          "duration": 0.09999999999999432
        },
        {
          "name": "D4",
          "midi": 62,
          "time": 136.99999999999665,
          "velocity": 0.3937007874015748,
          "duration": 0.09999999999999432
        },
        {
          "name": "A2",
          "midi": 45,
          "time": 137.19999999999663,
          "velocity": 0.3937007874015748,
          "duration": 0.09999999999999432
        },
        {
          "name": "D3",
          "midi": 50,
          "time": 137.29999999999663,
          "velocity": 0.3937007874015748,
          "duration": 0.09999999999999432
        },
        {
          "name": "F3",
          "midi": 53,
          "time": 137.39999999999662,
          "velocity": 0.3937007874015748,
          "duration": 0.09999999999999432
        },
        {
          "name": "A#1",
          "midi": 34,
          "time": 137.5999999999966,
          "velocity": 0.3937007874015748,
          "duration": 0.09999999999999432
        },
        {
          "name": "A#2",
          "midi": 46,
          "time": 137.7999999999966,
          "velocity": 0.3937007874015748,
          "duration": 0.09999999999999432
        },
        {
          "name": "A#2",
          "midi": 46,
          "time": 137.9999999999966,
          "velocity": 0.3937007874015748,
          "duration": 0.09999999999999432
        },
        {
          "name": "F3",
          "midi": 53,
          "time": 138.09999999999658,
          "velocity": 0.3937007874015748,
          "duration": 0.09999999999999432
        },
        {
          "name": "A#3",
          "midi": 58,
          "time": 138.19999999999658,
          "velocity": 0.3937007874015748,
          "duration": 0.09999999999999432
        },
        {
          "name": "A#2",
          "midi": 46,
          "time": 138.39999999999657,
          "velocity": 0.3937007874015748,
          "duration": 0.09999999999999432
        },
        {
          "name": "F3",
          "midi": 53,
          "time": 138.49999999999656,
          "velocity": 0.3937007874015748,
          "duration": 0.09999999999999432
        },
        {
          "name": "C4",
          "midi": 60,
          "time": 138.59999999999656,
          "velocity": 0.3937007874015748,
          "duration": 0.09999999999999432
        },
        {
          "name": "A#2",
          "midi": 46,
          "time": 138.79999999999654,
          "velocity": 0.3937007874015748,
          "duration": 0.09999999999999432
        },
        {
          "name": "F3",
          "midi": 53,
          "time": 138.89999999999654,
          "velocity": 0.3937007874015748,
          "duration": 0.09999999999999432
        },
        {
          "name": "A#3",
          "midi": 58,
          "time": 138.99999999999653,
          "velocity": 0.3937007874015748,
          "duration": 0.09999999999999432
        },
        {
          "name": "A#1",
          "midi": 34,
          "time": 139.19999999999652,
          "velocity": 0.3937007874015748,
          "duration": 0.09999999999999432
        },
        {
          "name": "A#2",
          "midi": 46,
          "time": 139.3999999999965,
          "velocity": 0.3937007874015748,
          "duration": 0.09999999999999432
        },
        {
          "name": "A#2",
          "midi": 46,
          "time": 139.5999999999965,
          "velocity": 0.3937007874015748,
          "duration": 0.09999999999999432
        },
        {
          "name": "F3",
          "midi": 53,
          "time": 139.6999999999965,
          "velocity": 0.3937007874015748,
          "duration": 0.09999999999999432
        },
        {
          "name": "A#3",
          "midi": 58,
          "time": 139.7999999999965,
          "velocity": 0.3937007874015748,
          "duration": 0.09999999999999432
        },
        {
          "name": "A#2",
          "midi": 46,
          "time": 139.99999999999648,
          "velocity": 0.3937007874015748,
          "duration": 0.09999999999999432
        },
        {
          "name": "F3",
          "midi": 53,
          "time": 140.09999999999647,
          "velocity": 0.3937007874015748,
          "duration": 0.09999999999999432
        },
        {
          "name": "C4",
          "midi": 60,
          "time": 140.19999999999646,
          "velocity": 0.3937007874015748,
          "duration": 0.09999999999999432
        },
        {
          "name": "A#2",
          "midi": 46,
          "time": 140.39999999999645,
          "velocity": 0.3937007874015748,
          "duration": 0.09999999999999432
        },
        {
          "name": "F3",
          "midi": 53,
          "time": 140.49999999999645,
          "velocity": 0.3937007874015748,
          "duration": 0.09999999999999432
        },
        {
          "name": "A#3",
          "midi": 58,
          "time": 140.59999999999644,
          "velocity": 0.3937007874015748,
          "duration": 0.09999999999999432
        },
        {
          "name": "D2",
          "midi": 38,
          "time": 140.79999999999643,
          "velocity": 0.3937007874015748,
          "duration": 0.09999999999999432
        },
        {
          "name": "A2",
          "midi": 45,
          "time": 140.89999999999642,
          "velocity": 0.3937007874015748,
          "duration": 0.09999999999999432
        },
        {
          "name": "D3",
          "midi": 50,
          "time": 140.99999999999642,
          "velocity": 0.3937007874015748,
          "duration": 0.09999999999999432
        },
        {
          "name": "D3",
          "midi": 50,
          "time": 141.1999999999964,
          "velocity": 0.3937007874015748,
          "duration": 0.09999999999999432
        },
        {
          "name": "A3",
          "midi": 57,
          "time": 141.2999999999964,
          "velocity": 0.3937007874015748,
          "duration": 0.09999999999999432
        },
        {
          "name": "C4",
          "midi": 60,
          "time": 141.3999999999964,
          "velocity": 0.3937007874015748,
          "duration": 0.09999999999999432
        },
        {
          "name": "D3",
          "midi": 50,
          "time": 141.59999999999638,
          "velocity": 0.3937007874015748,
          "duration": 0.09999999999999432
        },
        {
          "name": "A3",
          "midi": 57,
          "time": 141.69999999999638,
          "velocity": 0.3937007874015748,
          "duration": 0.09999999999999432
        },
        {
          "name": "D4",
          "midi": 62,
          "time": 141.79999999999637,
          "velocity": 0.3937007874015748,
          "duration": 0.09999999999999432
        },
        {
          "name": "A2",
          "midi": 45,
          "time": 141.99999999999636,
          "velocity": 0.3937007874015748,
          "duration": 0.09999999999999432
        },
        {
          "name": "D3",
          "midi": 50,
          "time": 142.09999999999636,
          "velocity": 0.3937007874015748,
          "duration": 0.09999999999999432
        },
        {
          "name": "F3",
          "midi": 53,
          "time": 142.19999999999635,
          "velocity": 0.3937007874015748,
          "duration": 0.09999999999999432
        },
        {
          "name": "D2",
          "midi": 38,
          "time": 142.39999999999634,
          "velocity": 0.3937007874015748,
          "duration": 0.09999999999999432
        },
        {
          "name": "A2",
          "midi": 45,
          "time": 142.49999999999633,
          "velocity": 0.3937007874015748,
          "duration": 0.09999999999999432
        },
        {
          "name": "D3",
          "midi": 50,
          "time": 142.59999999999633,
          "velocity": 0.3937007874015748,
          "duration": 0.09999999999999432
        },
        {
          "name": "D3",
          "midi": 50,
          "time": 142.79999999999632,
          "velocity": 0.3937007874015748,
          "duration": 0.09999999999999432
        },
        {
          "name": "A3",
          "midi": 57,
          "time": 142.8999999999963,
          "velocity": 0.3937007874015748,
          "duration": 0.09999999999999432
        },
        {
          "name": "C4",
          "midi": 60,
          "time": 142.9999999999963,
          "velocity": 0.3937007874015748,
          "duration": 0.09999999999999432
        },
        {
          "name": "D3",
          "midi": 50,
          "time": 143.1999999999963,
          "velocity": 0.3937007874015748,
          "duration": 0.09999999999999432
        },
        {
          "name": "A3",
          "midi": 57,
          "time": 143.2999999999963,
          "velocity": 0.3937007874015748,
          "duration": 0.09999999999999432
        },
        {
          "name": "D4",
          "midi": 62,
          "time": 143.39999999999628,
          "velocity": 0.3937007874015748,
          "duration": 0.09999999999999432
        },
        {
          "name": "A2",
          "midi": 45,
          "time": 143.59999999999627,
          "velocity": 0.3937007874015748,
          "duration": 0.09999999999999432
        },
        {
          "name": "D3",
          "midi": 50,
          "time": 143.69999999999627,
          "velocity": 0.3937007874015748,
          "duration": 0.09999999999999432
        },
        {
          "name": "F3",
          "midi": 53,
          "time": 143.79999999999626,
          "velocity": 0.3937007874015748,
          "duration": 0.09999999999999432
        },
        {
          "name": "A#1",
          "midi": 34,
          "time": 143.99999999999625,
          "velocity": 0.3937007874015748,
          "duration": 0.09999999999999432
        },
        {
          "name": "A#2",
          "midi": 46,
          "time": 144.19999999999624,
          "velocity": 0.3937007874015748,
          "duration": 0.09999999999999432
        },
        {
          "name": "A#2",
          "midi": 46,
          "time": 144.39999999999623,
          "velocity": 0.3937007874015748,
          "duration": 0.09999999999999432
        },
        {
          "name": "F3",
          "midi": 53,
          "time": 144.49999999999622,
          "velocity": 0.3937007874015748,
          "duration": 0.09999999999999432
        },
        {
          "name": "A#3",
          "midi": 58,
          "time": 144.59999999999621,
          "velocity": 0.3937007874015748,
          "duration": 0.09999999999999432
        },
        {
          "name": "A#2",
          "midi": 46,
          "time": 144.7999999999962,
          "velocity": 0.3937007874015748,
          "duration": 0.09999999999999432
        },
        {
          "name": "F3",
          "midi": 53,
          "time": 144.8999999999962,
          "velocity": 0.3937007874015748,
          "duration": 0.09999999999999432
        },
        {
          "name": "C4",
          "midi": 60,
          "time": 144.9999999999962,
          "velocity": 0.3937007874015748,
          "duration": 0.09999999999999432
        },
        {
          "name": "A#2",
          "midi": 46,
          "time": 145.19999999999618,
          "velocity": 0.3937007874015748,
          "duration": 0.09999999999999432
        },
        {
          "name": "F3",
          "midi": 53,
          "time": 145.29999999999617,
          "velocity": 0.3937007874015748,
          "duration": 0.09999999999999432
        },
        {
          "name": "A#3",
          "midi": 58,
          "time": 145.39999999999617,
          "velocity": 0.3937007874015748,
          "duration": 0.09999999999999432
        },
        {
          "name": "A#1",
          "midi": 34,
          "time": 145.59999999999616,
          "velocity": 0.3937007874015748,
          "duration": 0.09999999999999432
        },
        {
          "name": "A#2",
          "midi": 46,
          "time": 145.79999999999615,
          "velocity": 0.3937007874015748,
          "duration": 0.09999999999999432
        },
        {
          "name": "A#2",
          "midi": 46,
          "time": 145.99999999999613,
          "velocity": 0.3937007874015748,
          "duration": 0.09999999999999432
        },
        {
          "name": "F3",
          "midi": 53,
          "time": 146.09999999999613,
          "velocity": 0.3937007874015748,
          "duration": 0.09999999999999432
        },
        {
          "name": "A#3",
          "midi": 58,
          "time": 146.19999999999612,
          "velocity": 0.3937007874015748,
          "duration": 0.09999999999999432
        },
        {
          "name": "A#2",
          "midi": 46,
          "time": 146.3999999999961,
          "velocity": 0.3937007874015748,
          "duration": 0.09999999999999432
        },
        {
          "name": "F3",
          "midi": 53,
          "time": 146.4999999999961,
          "velocity": 0.3937007874015748,
          "duration": 0.09999999999999432
        },
        {
          "name": "C4",
          "midi": 60,
          "time": 146.5999999999961,
          "velocity": 0.3937007874015748,
          "duration": 0.09999999999999432
        },
        {
          "name": "A#2",
          "midi": 46,
          "time": 146.7999999999961,
          "velocity": 0.3937007874015748,
          "duration": 0.09999999999999432
        },
        {
          "name": "F3",
          "midi": 53,
          "time": 146.89999999999608,
          "velocity": 0.3937007874015748,
          "duration": 0.09999999999999432
        },
        {
          "name": "A#3",
          "midi": 58,
          "time": 146.99999999999608,
          "velocity": 0.3937007874015748,
          "duration": 0.09999999999999432
        },
        {
          "name": "D2",
          "midi": 38,
          "time": 147.19999999999607,
          "velocity": 0.3937007874015748,
          "duration": 0.09999999999999432
        },
        {
          "name": "A2",
          "midi": 45,
          "time": 147.29999999999606,
          "velocity": 0.3937007874015748,
          "duration": 0.09999999999999432
        },
        {
          "name": "D3",
          "midi": 50,
          "time": 147.39999999999606,
          "velocity": 0.3937007874015748,
          "duration": 0.09999999999999432
        },
        {
          "name": "D3",
          "midi": 50,
          "time": 147.59999999999604,
          "velocity": 0.3937007874015748,
          "duration": 0.09999999999999432
        },
        {
          "name": "A3",
          "midi": 57,
          "time": 147.69999999999604,
          "velocity": 0.3937007874015748,
          "duration": 0.09999999999999432
        },
        {
          "name": "C4",
          "midi": 60,
          "time": 147.79999999999603,
          "velocity": 0.3937007874015748,
          "duration": 0.09999999999999432
        },
        {
          "name": "D3",
          "midi": 50,
          "time": 147.99999999999602,
          "velocity": 0.3937007874015748,
          "duration": 0.09999999999999432
        },
        {
          "name": "A3",
          "midi": 57,
          "time": 148.09999999999602,
          "velocity": 0.3937007874015748,
          "duration": 0.09999999999999432
        },
        {
          "name": "D4",
          "midi": 62,
          "time": 148.199999999996,
          "velocity": 0.3937007874015748,
          "duration": 0.09999999999999432
        },
        {
          "name": "A2",
          "midi": 45,
          "time": 148.399999999996,
          "velocity": 0.3937007874015748,
          "duration": 0.09999999999999432
        },
        {
          "name": "D3",
          "midi": 50,
          "time": 148.499999999996,
          "velocity": 0.3937007874015748,
          "duration": 0.09999999999999432
        },
        {
          "name": "F3",
          "midi": 53,
          "time": 148.599999999996,
          "velocity": 0.3937007874015748,
          "duration": 0.09999999999999432
        },
        {
          "name": "D2",
          "midi": 38,
          "time": 148.79999999999598,
          "velocity": 0.3937007874015748,
          "duration": 0.09999999999999432
        },
        {
          "name": "A2",
          "midi": 45,
          "time": 148.89999999999597,
          "velocity": 0.3937007874015748,
          "duration": 0.09999999999999432
        },
        {
          "name": "D3",
          "midi": 50,
          "time": 148.99999999999596,
          "velocity": 0.3937007874015748,
          "duration": 0.09999999999999432
        },
        {
          "name": "D3",
          "midi": 50,
          "time": 149.19999999999595,
          "velocity": 0.3937007874015748,
          "duration": 0.09999999999999432
        },
        {
          "name": "A3",
          "midi": 57,
          "time": 149.29999999999595,
          "velocity": 0.3937007874015748,
          "duration": 0.09999999999999432
        },
        {
          "name": "C4",
          "midi": 60,
          "time": 149.39999999999594,
          "velocity": 0.3937007874015748,
          "duration": 0.09999999999999432
        },
        {
          "name": "D3",
          "midi": 50,
          "time": 149.59999999999593,
          "velocity": 0.3937007874015748,
          "duration": 0.09999999999999432
        },
        {
          "name": "A3",
          "midi": 57,
          "time": 149.69999999999592,
          "velocity": 0.3937007874015748,
          "duration": 0.09999999999999432
        },
        {
          "name": "D4",
          "midi": 62,
          "time": 149.79999999999592,
          "velocity": 0.3937007874015748,
          "duration": 0.09999999999999432
        },
        {
          "name": "A2",
          "midi": 45,
          "time": 149.9999999999959,
          "velocity": 0.3937007874015748,
          "duration": 0.09999999999999432
        },
        {
          "name": "D3",
          "midi": 50,
          "time": 150.0999999999959,
          "velocity": 0.3937007874015748,
          "duration": 0.09999999999999432
        },
        {
          "name": "F3",
          "midi": 53,
          "time": 150.1999999999959,
          "velocity": 0.3937007874015748,
          "duration": 0.09999999999999432
        },
        {
          "name": "A#1",
          "midi": 34,
          "time": 150.39999999999588,
          "velocity": 0.3937007874015748,
          "duration": 0.09999999999999432
        },
        {
          "name": "A#2",
          "midi": 46,
          "time": 150.59999999999587,
          "velocity": 0.3937007874015748,
          "duration": 0.09999999999999432
        },
        {
          "name": "A#2",
          "midi": 46,
          "time": 150.79999999999586,
          "velocity": 0.3937007874015748,
          "duration": 0.09999999999999432
        },
        {
          "name": "F3",
          "midi": 53,
          "time": 150.89999999999586,
          "velocity": 0.3937007874015748,
          "duration": 0.09999999999999432
        },
        {
          "name": "A#3",
          "midi": 58,
          "time": 150.99999999999585,
          "velocity": 0.3937007874015748,
          "duration": 0.09999999999999432
        },
        {
          "name": "A#2",
          "midi": 46,
          "time": 151.19999999999584,
          "velocity": 0.3937007874015748,
          "duration": 0.09999999999999432
        },
        {
          "name": "F3",
          "midi": 53,
          "time": 151.29999999999583,
          "velocity": 0.3937007874015748,
          "duration": 0.09999999999999432
        },
        {
          "name": "C4",
          "midi": 60,
          "time": 151.39999999999583,
          "velocity": 0.3937007874015748,
          "duration": 0.09999999999999432
        },
        {
          "name": "A#2",
          "midi": 46,
          "time": 151.59999999999582,
          "velocity": 0.3937007874015748,
          "duration": 0.09999999999999432
        },
        {
          "name": "F3",
          "midi": 53,
          "time": 151.6999999999958,
          "velocity": 0.3937007874015748,
          "duration": 0.09999999999999432
        },
        {
          "name": "A#3",
          "midi": 58,
          "time": 151.7999999999958,
          "velocity": 0.3937007874015748,
          "duration": 0.09999999999999432
        },
        {
          "name": "A#1",
          "midi": 34,
          "time": 151.9999999999958,
          "velocity": 0.3937007874015748,
          "duration": 0.09999999999999432
        },
        {
          "name": "A#2",
          "midi": 46,
          "time": 152.19999999999578,
          "velocity": 0.3937007874015748,
          "duration": 0.09999999999999432
        },
        {
          "name": "A#2",
          "midi": 46,
          "time": 152.39999999999577,
          "velocity": 0.3937007874015748,
          "duration": 0.09999999999999432
        },
        {
          "name": "F3",
          "midi": 53,
          "time": 152.49999999999577,
          "velocity": 0.3937007874015748,
          "duration": 0.09999999999999432
        },
        {
          "name": "A#3",
          "midi": 58,
          "time": 152.59999999999576,
          "velocity": 0.3937007874015748,
          "duration": 0.09999999999999432
        },
        {
          "name": "A#2",
          "midi": 46,
          "time": 152.79999999999575,
          "velocity": 0.3937007874015748,
          "duration": 0.09999999999999432
        },
        {
          "name": "F3",
          "midi": 53,
          "time": 152.89999999999574,
          "velocity": 0.3937007874015748,
          "duration": 0.09999999999999432
        },
        {
          "name": "C4",
          "midi": 60,
          "time": 152.99999999999574,
          "velocity": 0.3937007874015748,
          "duration": 0.09999999999999432
        },
        {
          "name": "A#2",
          "midi": 46,
          "time": 153.19999999999573,
          "velocity": 0.3937007874015748,
          "duration": 0.09999999999999432
        },
        {
          "name": "F3",
          "midi": 53,
          "time": 153.29999999999572,
          "velocity": 0.3937007874015748,
          "duration": 0.09999999999999432
        },
        {
          "name": "A#3",
          "midi": 58,
          "time": 153.3999999999957,
          "velocity": 0.3937007874015748,
          "duration": 0.09999999999999432
        },
        {
          "name": "D2",
          "midi": 38,
          "time": 153.5999999999957,
          "velocity": 0.3937007874015748,
          "duration": 0.09999999999999432
        },
        {
          "name": "A2",
          "midi": 45,
          "time": 153.6999999999957,
          "velocity": 0.3937007874015748,
          "duration": 0.09999999999999432
        },
        {
          "name": "D3",
          "midi": 50,
          "time": 153.7999999999957,
          "velocity": 0.3937007874015748,
          "duration": 0.09999999999999432
        },
        {
          "name": "D3",
          "midi": 50,
          "time": 153.99999999999568,
          "velocity": 0.3937007874015748,
          "duration": 0.09999999999999432
        },
        {
          "name": "A3",
          "midi": 57,
          "time": 154.09999999999567,
          "velocity": 0.3937007874015748,
          "duration": 0.09999999999999432
        },
        {
          "name": "C4",
          "midi": 60,
          "time": 154.19999999999567,
          "velocity": 0.3937007874015748,
          "duration": 0.09999999999999432
        },
        {
          "name": "D3",
          "midi": 50,
          "time": 154.39999999999566,
          "velocity": 0.3937007874015748,
          "duration": 0.09999999999999432
        },
        {
          "name": "A3",
          "midi": 57,
          "time": 154.49999999999565,
          "velocity": 0.3937007874015748,
          "duration": 0.09999999999999432
        },
        {
          "name": "D4",
          "midi": 62,
          "time": 154.59999999999565,
          "velocity": 0.3937007874015748,
          "duration": 0.09999999999999432
        },
        {
          "name": "A2",
          "midi": 45,
          "time": 154.79999999999563,
          "velocity": 0.3937007874015748,
          "duration": 0.09999999999999432
        },
        {
          "name": "D3",
          "midi": 50,
          "time": 154.89999999999563,
          "velocity": 0.3937007874015748,
          "duration": 0.09999999999999432
        },
        {
          "name": "F3",
          "midi": 53,
          "time": 154.99999999999562,
          "velocity": 0.3937007874015748,
          "duration": 0.09999999999999432
        },
        {
          "name": "D2",
          "midi": 38,
          "time": 155.1999999999956,
          "velocity": 0.3937007874015748,
          "duration": 0.09999999999999432
        },
        {
          "name": "A2",
          "midi": 45,
          "time": 155.2999999999956,
          "velocity": 0.3937007874015748,
          "duration": 0.09999999999999432
        },
        {
          "name": "D3",
          "midi": 50,
          "time": 155.3999999999956,
          "velocity": 0.3937007874015748,
          "duration": 0.09999999999999432
        },
        {
          "name": "D3",
          "midi": 50,
          "time": 155.5999999999956,
          "velocity": 0.3937007874015748,
          "duration": 0.09999999999999432
        },
        {
          "name": "A3",
          "midi": 57,
          "time": 155.69999999999558,
          "velocity": 0.3937007874015748,
          "duration": 0.09999999999999432
        },
        {
          "name": "C4",
          "midi": 60,
          "time": 155.79999999999558,
          "velocity": 0.3937007874015748,
          "duration": 0.09999999999999432
        },
        {
          "name": "D3",
          "midi": 50,
          "time": 155.99999999999557,
          "velocity": 0.3937007874015748,
          "duration": 0.09999999999999432
        },
        {
          "name": "A3",
          "midi": 57,
          "time": 156.09999999999556,
          "velocity": 0.3937007874015748,
          "duration": 0.09999999999999432
        },
        {
          "name": "D4",
          "midi": 62,
          "time": 156.19999999999555,
          "velocity": 0.3937007874015748,
          "duration": 0.09999999999999432
        },
        {
          "name": "A2",
          "midi": 45,
          "time": 156.39999999999554,
          "velocity": 0.3937007874015748,
          "duration": 0.09999999999999432
        },
        {
          "name": "D3",
          "midi": 50,
          "time": 156.49999999999554,
          "velocity": 0.3937007874015748,
          "duration": 0.09999999999999432
        },
        {
          "name": "F3",
          "midi": 53,
          "time": 156.59999999999553,
          "velocity": 0.3937007874015748,
          "duration": 0.09999999999999432
        },
        {
          "name": "A#1",
          "midi": 34,
          "time": 156.79999999999552,
          "velocity": 0.3937007874015748,
          "duration": 0.09999999999999432
        },
        {
          "name": "A#2",
          "midi": 46,
          "time": 156.9999999999955,
          "velocity": 0.3937007874015748,
          "duration": 0.09999999999999432
        },
        {
          "name": "A#2",
          "midi": 46,
          "time": 157.1999999999955,
          "velocity": 0.3937007874015748,
          "duration": 0.09999999999999432
        },
        {
          "name": "F3",
          "midi": 53,
          "time": 157.2999999999955,
          "velocity": 0.3937007874015748,
          "duration": 0.09999999999999432
        },
        {
          "name": "A#3",
          "midi": 58,
          "time": 157.3999999999955,
          "velocity": 0.3937007874015748,
          "duration": 0.09999999999999432
        },
        {
          "name": "A#2",
          "midi": 46,
          "time": 157.59999999999548,
          "velocity": 0.3937007874015748,
          "duration": 0.09999999999999432
        },
        {
          "name": "F3",
          "midi": 53,
          "time": 157.69999999999547,
          "velocity": 0.3937007874015748,
          "duration": 0.09999999999999432
        },
        {
          "name": "C4",
          "midi": 60,
          "time": 157.79999999999546,
          "velocity": 0.3937007874015748,
          "duration": 0.09999999999999432
        },
        {
          "name": "A#2",
          "midi": 46,
          "time": 157.99999999999545,
          "velocity": 0.3937007874015748,
          "duration": 0.09999999999999432
        },
        {
          "name": "F3",
          "midi": 53,
          "time": 158.09999999999545,
          "velocity": 0.3937007874015748,
          "duration": 0.09999999999999432
        },
        {
          "name": "A#3",
          "midi": 58,
          "time": 158.19999999999544,
          "velocity": 0.3937007874015748,
          "duration": 0.09999999999999432
        },
        {
          "name": "A#1",
          "midi": 34,
          "time": 158.39999999999543,
          "velocity": 0.3937007874015748,
          "duration": 0.09999999999999432
        },
        {
          "name": "A#2",
          "midi": 46,
          "time": 158.59999999999542,
          "velocity": 0.3937007874015748,
          "duration": 0.09999999999999432
        },
        {
          "name": "A#2",
          "midi": 46,
          "time": 158.7999999999954,
          "velocity": 0.3937007874015748,
          "duration": 0.09999999999999432
        },
        {
          "name": "F3",
          "midi": 53,
          "time": 158.8999999999954,
          "velocity": 0.3937007874015748,
          "duration": 0.09999999999999432
        },
        {
          "name": "A#3",
          "midi": 58,
          "time": 158.9999999999954,
          "velocity": 0.3937007874015748,
          "duration": 0.09999999999999432
        },
        {
          "name": "A#2",
          "midi": 46,
          "time": 159.19999999999538,
          "velocity": 0.3937007874015748,
          "duration": 0.09999999999999432
        },
        {
          "name": "D3",
          "midi": 50,
          "time": 159.29999999999538,
          "velocity": 0.3937007874015748,
          "duration": 0.09999999999999432
        },
        {
          "name": "F3",
          "midi": 53,
          "time": 159.39999999999537,
          "velocity": 0.3937007874015748,
          "duration": 0.09999999999999432
        },
        {
          "name": "A#2",
          "midi": 46,
          "time": 159.59999999999536,
          "velocity": 0.3937007874015748,
          "duration": 0.09999999999999432
        },
        {
          "name": "A#1",
          "midi": 34,
          "time": 159.59999999999536,
          "velocity": 0.3937007874015748,
          "duration": 0.09999999999999432
        },
        {
          "name": "B1",
          "midi": 35,
          "time": 159.99999999999537,
          "velocity": 0.3937007874015748,
          "duration": 0.09999999999999432
        },
        {
          "name": "B2",
          "midi": 47,
          "time": 160.19999999999536,
          "velocity": 0.3937007874015748,
          "duration": 0.09999999999999432
        },
        {
          "name": "F#2",
          "midi": 42,
          "time": 160.39999999999534,
          "velocity": 0.3937007874015748,
          "duration": 0.09999999999999432
        },
        {
          "name": "B2",
          "midi": 47,
          "time": 160.49999999999534,
          "velocity": 0.3937007874015748,
          "duration": 0.09999999999999432
        },
        {
          "name": "C#3",
          "midi": 49,
          "time": 160.59999999999533,
          "velocity": 0.3937007874015748,
          "duration": 0.09999999999999432
        },
        {
          "name": "B1",
          "midi": 35,
          "time": 160.79999999999532,
          "velocity": 0.3937007874015748,
          "duration": 0.09999999999999432
        },
        {
          "name": "B2",
          "midi": 47,
          "time": 160.89999999999532,
          "velocity": 0.3937007874015748,
          "duration": 0.09999999999999432
        },
        {
          "name": "B1",
          "midi": 35,
          "time": 161.0999999999953,
          "velocity": 0.3937007874015748,
          "duration": 0.09999999999999432
        },
        {
          "name": "C#2",
          "midi": 37,
          "time": 161.1999999999953,
          "velocity": 0.3937007874015748,
          "duration": 0.09999999999999432
        },
        {
          "name": "F2",
          "midi": 41,
          "time": 161.3999999999953,
          "velocity": 0.3937007874015748,
          "duration": 0.09999999999999432
        },
        {
          "name": "C#2",
          "midi": 37,
          "time": 161.59999999999528,
          "velocity": 0.3937007874015748,
          "duration": 0.09999999999999432
        },
        {
          "name": "C#3",
          "midi": 49,
          "time": 161.79999999999526,
          "velocity": 0.3937007874015748,
          "duration": 0.09999999999999432
        },
        {
          "name": "G#2",
          "midi": 44,
          "time": 161.99999999999525,
          "velocity": 0.3937007874015748,
          "duration": 0.09999999999999432
        },
        {
          "name": "C#3",
          "midi": 49,
          "time": 162.09999999999525,
          "velocity": 0.3937007874015748,
          "duration": 0.09999999999999432
        },
        {
          "name": "D#3",
          "midi": 51,
          "time": 162.19999999999524,
          "velocity": 0.3937007874015748,
          "duration": 0.09999999999999432
        },
        {
          "name": "C#2",
          "midi": 37,
          "time": 162.39999999999523,
          "velocity": 0.3937007874015748,
          "duration": 0.09999999999999432
        },
        {
          "name": "C#3",
          "midi": 49,
          "time": 162.49999999999523,
          "velocity": 0.3937007874015748,
          "duration": 0.09999999999999432
        },
        {
          "name": "C#2",
          "midi": 37,
          "time": 162.6999999999952,
          "velocity": 0.3937007874015748,
          "duration": 0.09999999999999432
        },
        {
          "name": "G#2",
          "midi": 44,
          "time": 162.7999999999952,
          "velocity": 0.3937007874015748,
          "duration": 0.09999999999999432
        },
        {
          "name": "A#2",
          "midi": 46,
          "time": 162.9999999999952,
          "velocity": 0.3937007874015748,
          "duration": 0.09999999999999432
        },
        {
          "name": "D#2",
          "midi": 39,
          "time": 163.19999999999519,
          "velocity": 0.3937007874015748,
          "duration": 0.09999999999999432
        },
        {
          "name": "D#3",
          "midi": 51,
          "time": 163.39999999999517,
          "velocity": 0.3937007874015748,
          "duration": 0.09999999999999432
        },
        {
          "name": "A#2",
          "midi": 46,
          "time": 163.59999999999516,
          "velocity": 0.3937007874015748,
          "duration": 0.09999999999999432
        },
        {
          "name": "D#3",
          "midi": 51,
          "time": 163.69999999999516,
          "velocity": 0.3937007874015748,
          "duration": 0.09999999999999432
        },
        {
          "name": "F3",
          "midi": 53,
          "time": 163.79999999999515,
          "velocity": 0.3937007874015748,
          "duration": 0.09999999999999432
        },
        {
          "name": "D#2",
          "midi": 39,
          "time": 163.99999999999514,
          "velocity": 0.3937007874015748,
          "duration": 0.09999999999999432
        },
        {
          "name": "D#3",
          "midi": 51,
          "time": 164.09999999999513,
          "velocity": 0.3937007874015748,
          "duration": 0.09999999999999432
        },
        {
          "name": "D#2",
          "midi": 39,
          "time": 164.29999999999512,
          "velocity": 0.3937007874015748,
          "duration": 0.09999999999999432
        },
        {
          "name": "F#2",
          "midi": 42,
          "time": 164.39999999999512,
          "velocity": 0.3937007874015748,
          "duration": 0.09999999999999432
        },
        {
          "name": "G#2",
          "midi": 44,
          "time": 164.5999999999951,
          "velocity": 0.3937007874015748,
          "duration": 0.09999999999999432
        },
        {
          "name": "D#2",
          "midi": 39,
          "time": 164.7999999999951,
          "velocity": 0.3937007874015748,
          "duration": 0.09999999999999432
        },
        {
          "name": "D#3",
          "midi": 51,
          "time": 164.99999999999508,
          "velocity": 0.3937007874015748,
          "duration": 0.09999999999999432
        },
        {
          "name": "A#2",
          "midi": 46,
          "time": 165.19999999999507,
          "velocity": 0.3937007874015748,
          "duration": 0.09999999999999432
        },
        {
          "name": "D#3",
          "midi": 51,
          "time": 165.29999999999507,
          "velocity": 0.3937007874015748,
          "duration": 0.09999999999999432
        },
        {
          "name": "F3",
          "midi": 53,
          "time": 165.39999999999506,
          "velocity": 0.3937007874015748,
          "duration": 0.09999999999999432
        },
        {
          "name": "D#2",
          "midi": 39,
          "time": 165.59999999999505,
          "velocity": 0.3937007874015748,
          "duration": 0.09999999999999432
        },
        {
          "name": "D#3",
          "midi": 51,
          "time": 165.69999999999504,
          "velocity": 0.3937007874015748,
          "duration": 0.09999999999999432
        },
        {
          "name": "D#2",
          "midi": 39,
          "time": 165.89999999999503,
          "velocity": 0.3937007874015748,
          "duration": 0.09999999999999432
        },
        {
          "name": "F#2",
          "midi": 42,
          "time": 165.99999999999503,
          "velocity": 0.3937007874015748,
          "duration": 0.09999999999999432
        },
        {
          "name": "G#2",
          "midi": 44,
          "time": 166.19999999999501,
          "velocity": 0.3937007874015748,
          "duration": 0.09999999999999432
        },
        {
          "name": "B1",
          "midi": 35,
          "time": 166.399999999995,
          "velocity": 0.3937007874015748,
          "duration": 0.09999999999999432
        },
        {
          "name": "B2",
          "midi": 47,
          "time": 166.599999999995,
          "velocity": 0.3937007874015748,
          "duration": 0.09999999999999432
        },
        {
          "name": "F#2",
          "midi": 42,
          "time": 166.79999999999498,
          "velocity": 0.3937007874015748,
          "duration": 0.09999999999999432
        },
        {
          "name": "B2",
          "midi": 47,
          "time": 166.89999999999498,
          "velocity": 0.3937007874015748,
          "duration": 0.09999999999999432
        },
        {
          "name": "C#3",
          "midi": 49,
          "time": 166.99999999999497,
          "velocity": 0.3937007874015748,
          "duration": 0.09999999999999432
        },
        {
          "name": "B1",
          "midi": 35,
          "time": 167.19999999999496,
          "velocity": 0.3937007874015748,
          "duration": 0.09999999999999432
        },
        {
          "name": "B2",
          "midi": 47,
          "time": 167.29999999999495,
          "velocity": 0.3937007874015748,
          "duration": 0.09999999999999432
        },
        {
          "name": "B1",
          "midi": 35,
          "time": 167.49999999999494,
          "velocity": 0.3937007874015748,
          "duration": 0.09999999999999432
        },
        {
          "name": "C#2",
          "midi": 37,
          "time": 167.59999999999494,
          "velocity": 0.3937007874015748,
          "duration": 0.09999999999999432
        },
        {
          "name": "F2",
          "midi": 41,
          "time": 167.79999999999492,
          "velocity": 0.3937007874015748,
          "duration": 0.09999999999999432
        },
        {
          "name": "C#2",
          "midi": 37,
          "time": 167.9999999999949,
          "velocity": 0.3937007874015748,
          "duration": 0.09999999999999432
        },
        {
          "name": "C#3",
          "midi": 49,
          "time": 168.1999999999949,
          "velocity": 0.3937007874015748,
          "duration": 0.09999999999999432
        },
        {
          "name": "G#2",
          "midi": 44,
          "time": 168.3999999999949,
          "velocity": 0.3937007874015748,
          "duration": 0.09999999999999432
        },
        {
          "name": "C#3",
          "midi": 49,
          "time": 168.49999999999488,
          "velocity": 0.3937007874015748,
          "duration": 0.09999999999999432
        },
        {
          "name": "D#3",
          "midi": 51,
          "time": 168.59999999999488,
          "velocity": 0.3937007874015748,
          "duration": 0.09999999999999432
        },
        {
          "name": "C#2",
          "midi": 37,
          "time": 168.79999999999487,
          "velocity": 0.3937007874015748,
          "duration": 0.09999999999999432
        },
        {
          "name": "C#3",
          "midi": 49,
          "time": 168.89999999999486,
          "velocity": 0.3937007874015748,
          "duration": 0.09999999999999432
        },
        {
          "name": "C#2",
          "midi": 37,
          "time": 169.09999999999485,
          "velocity": 0.3937007874015748,
          "duration": 0.09999999999999432
        },
        {
          "name": "G#2",
          "midi": 44,
          "time": 169.19999999999484,
          "velocity": 0.3937007874015748,
          "duration": 0.09999999999999432
        },
        {
          "name": "A#2",
          "midi": 46,
          "time": 169.39999999999483,
          "velocity": 0.3937007874015748,
          "duration": 0.09999999999999432
        },
        {
          "name": "D#2",
          "midi": 39,
          "time": 169.59999999999482,
          "velocity": 0.3937007874015748,
          "duration": 0.09999999999999432
        },
        {
          "name": "D#3",
          "midi": 51,
          "time": 169.7999999999948,
          "velocity": 0.3937007874015748,
          "duration": 0.09999999999999432
        },
        {
          "name": "A#2",
          "midi": 46,
          "time": 169.9999999999948,
          "velocity": 0.3937007874015748,
          "duration": 0.09999999999999432
        },
        {
          "name": "D#3",
          "midi": 51,
          "time": 170.0999999999948,
          "velocity": 0.3937007874015748,
          "duration": 0.09999999999999432
        },
        {
          "name": "F3",
          "midi": 53,
          "time": 170.1999999999948,
          "velocity": 0.3937007874015748,
          "duration": 0.09999999999999432
        },
        {
          "name": "D#2",
          "midi": 39,
          "time": 170.39999999999478,
          "velocity": 0.3937007874015748,
          "duration": 0.09999999999999432
        },
        {
          "name": "D#3",
          "midi": 51,
          "time": 170.49999999999477,
          "velocity": 0.3937007874015748,
          "duration": 0.09999999999999432
        },
        {
          "name": "D#2",
          "midi": 39,
          "time": 170.69999999999476,
          "velocity": 0.3937007874015748,
          "duration": 0.09999999999999432
        },
        {
          "name": "F#2",
          "midi": 42,
          "time": 170.79999999999475,
          "velocity": 0.3937007874015748,
          "duration": 0.09999999999999432
        },
        {
          "name": "G#2",
          "midi": 44,
          "time": 170.99999999999474,
          "velocity": 0.3937007874015748,
          "duration": 0.09999999999999432
        },
        {
          "name": "D#2",
          "midi": 39,
          "time": 171.19999999999473,
          "velocity": 0.3937007874015748,
          "duration": 0.09999999999999432
        },
        {
          "name": "D#3",
          "midi": 51,
          "time": 171.39999999999472,
          "velocity": 0.3937007874015748,
          "duration": 0.09999999999999432
        },
        {
          "name": "A#2",
          "midi": 46,
          "time": 171.5999999999947,
          "velocity": 0.3937007874015748,
          "duration": 0.09999999999999432
        },
        {
          "name": "D#3",
          "midi": 51,
          "time": 171.6999999999947,
          "velocity": 0.3937007874015748,
          "duration": 0.09999999999999432
        },
        {
          "name": "F3",
          "midi": 53,
          "time": 171.7999999999947,
          "velocity": 0.3937007874015748,
          "duration": 0.09999999999999432
        },
        {
          "name": "D#2",
          "midi": 39,
          "time": 171.99999999999469,
          "velocity": 0.3937007874015748,
          "duration": 0.09999999999999432
        },
        {
          "name": "D#3",
          "midi": 51,
          "time": 172.09999999999468,
          "velocity": 0.3937007874015748,
          "duration": 0.09999999999999432
        },
        {
          "name": "D#2",
          "midi": 39,
          "time": 172.29999999999467,
          "velocity": 0.3937007874015748,
          "duration": 0.09999999999999432
        },
        {
          "name": "F#2",
          "midi": 42,
          "time": 172.39999999999466,
          "velocity": 0.3937007874015748,
          "duration": 0.09999999999999432
        },
        {
          "name": "D5",
          "midi": 74,
          "time": 172.79999999999467,
          "velocity": 0.3937007874015748,
          "duration": 0.09999999999999432
        },
        {
          "name": "F4",
          "midi": 65,
          "time": 172.79999999999467,
          "velocity": 0.3937007874015748,
          "duration": 0.09999999999999432
        },
        {
          "name": "A#4",
          "midi": 70,
          "time": 172.79999999999467,
          "velocity": 0.3937007874015748,
          "duration": 0.09999999999999432
        },
        {
          "name": "D5",
          "midi": 74,
          "time": 173.19999999999467,
          "velocity": 0.3937007874015748,
          "duration": 0.09999999999999432
        },
        {
          "name": "A#4",
          "midi": 70,
          "time": 173.19999999999467,
          "velocity": 0.3937007874015748,
          "duration": 0.09999999999999432
        },
        {
          "name": "E4",
          "midi": 64,
          "time": 173.19999999999467,
          "velocity": 0.3937007874015748,
          "duration": 0.09999999999999432
        },
        {
          "name": "D5",
          "midi": 74,
          "time": 173.59999999999468,
          "velocity": 0.3937007874015748,
          "duration": 0.09999999999999432
        },
        {
          "name": "A#4",
          "midi": 70,
          "time": 173.59999999999468,
          "velocity": 0.3937007874015748,
          "duration": 0.09999999999999432
        },
        {
          "name": "F4",
          "midi": 65,
          "time": 173.59999999999468,
          "velocity": 0.3937007874015748,
          "duration": 0.09999999999999432
        },
        {
          "name": "D5",
          "midi": 74,
          "time": 173.99999999999469,
          "velocity": 0.3937007874015748,
          "duration": 0.09999999999999432
        },
        {
          "name": "A#4",
          "midi": 70,
          "time": 173.99999999999469,
          "velocity": 0.3937007874015748,
          "duration": 0.09999999999999432
        },
        {
          "name": "E4",
          "midi": 64,
          "time": 173.99999999999469,
          "velocity": 0.3937007874015748,
          "duration": 0.09999999999999432
        },
        {
          "name": "A#4",
          "midi": 70,
          "time": 174.3999999999947,
          "velocity": 0.3937007874015748,
          "duration": 0.09999999999999432
        },
        {
          "name": "E4",
          "midi": 64,
          "time": 174.3999999999947,
          "velocity": 0.3937007874015748,
          "duration": 0.09999999999999432
        },
        {
          "name": "C5",
          "midi": 72,
          "time": 174.3999999999947,
          "velocity": 0.3937007874015748,
          "duration": 0.09999999999999432
        },
        {
          "name": "A#4",
          "midi": 70,
          "time": 174.7999999999947,
          "velocity": 0.3937007874015748,
          "duration": 0.09999999999999432
        },
        {
          "name": "F4",
          "midi": 65,
          "time": 174.7999999999947,
          "velocity": 0.3937007874015748,
          "duration": 0.09999999999999432
        },
        {
          "name": "C5",
          "midi": 72,
          "time": 174.7999999999947,
          "velocity": 0.3937007874015748,
          "duration": 0.09999999999999432
        },
        {
          "name": "A#4",
          "midi": 70,
          "time": 175.1999999999947,
          "velocity": 0.3937007874015748,
          "duration": 0.09999999999999432
        },
        {
          "name": "E4",
          "midi": 64,
          "time": 175.1999999999947,
          "velocity": 0.3937007874015748,
          "duration": 0.09999999999999432
        },
        {
          "name": "C5",
          "midi": 72,
          "time": 175.1999999999947,
          "velocity": 0.3937007874015748,
          "duration": 0.09999999999999432
        },
        {
          "name": "A#4",
          "midi": 70,
          "time": 175.5999999999947,
          "velocity": 0.3937007874015748,
          "duration": 0.09999999999999432
        },
        {
          "name": "F4",
          "midi": 65,
          "time": 175.5999999999947,
          "velocity": 0.3937007874015748,
          "duration": 0.09999999999999432
        },
        {
          "name": "C5",
          "midi": 72,
          "time": 175.5999999999947,
          "velocity": 0.3937007874015748,
          "duration": 0.09999999999999432
        },
        {
          "name": "A4",
          "midi": 69,
          "time": 175.9999999999947,
          "velocity": 0.3937007874015748,
          "duration": 0.09999999999999432
        },
        {
          "name": "F4",
          "midi": 65,
          "time": 175.9999999999947,
          "velocity": 0.3937007874015748,
          "duration": 0.09999999999999432
        },
        {
          "name": "D4",
          "midi": 62,
          "time": 175.9999999999947,
          "velocity": 0.3937007874015748,
          "duration": 0.09999999999999432
        },
        {
          "name": "F4",
          "midi": 65,
          "time": 176.39999999999472,
          "velocity": 0.3937007874015748,
          "duration": 0.09999999999999432
        },
        {
          "name": "A4",
          "midi": 69,
          "time": 176.39999999999472,
          "velocity": 0.3937007874015748,
          "duration": 0.09999999999999432
        },
        {
          "name": "E4",
          "midi": 64,
          "time": 176.39999999999472,
          "velocity": 0.3937007874015748,
          "duration": 0.09999999999999432
        },
        {
          "name": "A4",
          "midi": 69,
          "time": 176.79999999999472,
          "velocity": 0.3937007874015748,
          "duration": 0.09999999999999432
        },
        {
          "name": "F4",
          "midi": 65,
          "time": 176.79999999999472,
          "velocity": 0.3937007874015748,
          "duration": 0.09999999999999432
        },
        {
          "name": "D4",
          "midi": 62,
          "time": 176.79999999999472,
          "velocity": 0.3937007874015748,
          "duration": 0.09999999999999432
        },
        {
          "name": "A4",
          "midi": 69,
          "time": 177.19999999999473,
          "velocity": 0.3937007874015748,
          "duration": 0.09999999999999432
        },
        {
          "name": "F4",
          "midi": 65,
          "time": 177.19999999999473,
          "velocity": 0.3937007874015748,
          "duration": 0.09999999999999432
        },
        {
          "name": "E4",
          "midi": 64,
          "time": 177.19999999999473,
          "velocity": 0.3937007874015748,
          "duration": 0.09999999999999432
        },
        {
          "name": "A4",
          "midi": 69,
          "time": 177.59999999999474,
          "velocity": 0.3937007874015748,
          "duration": 0.09999999999999432
        },
        {
          "name": "F4",
          "midi": 65,
          "time": 177.59999999999474,
          "velocity": 0.3937007874015748,
          "duration": 0.09999999999999432
        },
        {
          "name": "D4",
          "midi": 62,
          "time": 177.59999999999474,
          "velocity": 0.3937007874015748,
          "duration": 0.09999999999999432
        },
        {
          "name": "F4",
          "midi": 65,
          "time": 177.99999999999474,
          "velocity": 0.3937007874015748,
          "duration": 0.09999999999999432
        },
        {
          "name": "A4",
          "midi": 69,
          "time": 177.99999999999474,
          "velocity": 0.3937007874015748,
          "duration": 0.09999999999999432
        },
        {
          "name": "E4",
          "midi": 64,
          "time": 177.99999999999474,
          "velocity": 0.3937007874015748,
          "duration": 0.09999999999999432
        },
        {
          "name": "A4",
          "midi": 69,
          "time": 178.39999999999475,
          "velocity": 0.3937007874015748,
          "duration": 0.09999999999999432
        },
        {
          "name": "F4",
          "midi": 65,
          "time": 178.39999999999475,
          "velocity": 0.3937007874015748,
          "duration": 0.09999999999999432
        },
        {
          "name": "D4",
          "midi": 62,
          "time": 178.39999999999475,
          "velocity": 0.3937007874015748,
          "duration": 0.09999999999999432
        },
        {
          "name": "A4",
          "midi": 69,
          "time": 178.79999999999475,
          "velocity": 0.3937007874015748,
          "duration": 0.09999999999999432
        },
        {
          "name": "F4",
          "midi": 65,
          "time": 178.79999999999475,
          "velocity": 0.3937007874015748,
          "duration": 0.09999999999999432
        },
        {
          "name": "E4",
          "midi": 64,
          "time": 178.79999999999475,
          "velocity": 0.3937007874015748,
          "duration": 0.09999999999999432
        },
        {
          "name": "D5",
          "midi": 74,
          "time": 179.19999999999476,
          "velocity": 0.3937007874015748,
          "duration": 0.09999999999999432
        },
        {
          "name": "F4",
          "midi": 65,
          "time": 179.19999999999476,
          "velocity": 0.3937007874015748,
          "duration": 0.09999999999999432
        },
        {
          "name": "A#4",
          "midi": 70,
          "time": 179.19999999999476,
          "velocity": 0.3937007874015748,
          "duration": 0.09999999999999432
        },
        {
          "name": "D5",
          "midi": 74,
          "time": 179.59999999999476,
          "velocity": 0.3937007874015748,
          "duration": 0.09999999999999432
        },
        {
          "name": "A#4",
          "midi": 70,
          "time": 179.59999999999476,
          "velocity": 0.3937007874015748,
          "duration": 0.09999999999999432
        },
        {
          "name": "E4",
          "midi": 64,
          "time": 179.59999999999476,
          "velocity": 0.3937007874015748,
          "duration": 0.09999999999999432
        },
        {
          "name": "D5",
          "midi": 74,
          "time": 179.99999999999477,
          "velocity": 0.3937007874015748,
          "duration": 0.09999999999999432
        },
        {
          "name": "A#4",
          "midi": 70,
          "time": 179.99999999999477,
          "velocity": 0.3937007874015748,
          "duration": 0.09999999999999432
        },
        {
          "name": "F4",
          "midi": 65,
          "time": 179.99999999999477,
          "velocity": 0.3937007874015748,
          "duration": 0.09999999999999432
        },
        {
          "name": "D5",
          "midi": 74,
          "time": 180.39999999999478,
          "velocity": 0.3937007874015748,
          "duration": 0.09999999999999432
        },
        {
          "name": "A#4",
          "midi": 70,
          "time": 180.39999999999478,
          "velocity": 0.3937007874015748,
          "duration": 0.09999999999999432
        },
        {
          "name": "E4",
          "midi": 64,
          "time": 180.39999999999478,
          "velocity": 0.3937007874015748,
          "duration": 0.09999999999999432
        },
        {
          "name": "A#4",
          "midi": 70,
          "time": 180.79999999999478,
          "velocity": 0.3937007874015748,
          "duration": 0.09999999999999432
        },
        {
          "name": "E4",
          "midi": 64,
          "time": 180.79999999999478,
          "velocity": 0.3937007874015748,
          "duration": 0.09999999999999432
        },
        {
          "name": "C5",
          "midi": 72,
          "time": 180.79999999999478,
          "velocity": 0.3937007874015748,
          "duration": 0.09999999999999432
        },
        {
          "name": "A#4",
          "midi": 70,
          "time": 181.1999999999948,
          "velocity": 0.3937007874015748,
          "duration": 0.09999999999999432
        },
        {
          "name": "F4",
          "midi": 65,
          "time": 181.1999999999948,
          "velocity": 0.3937007874015748,
          "duration": 0.09999999999999432
        },
        {
          "name": "C5",
          "midi": 72,
          "time": 181.1999999999948,
          "velocity": 0.3937007874015748,
          "duration": 0.09999999999999432
        },
        {
          "name": "A#4",
          "midi": 70,
          "time": 181.5999999999948,
          "velocity": 0.3937007874015748,
          "duration": 0.09999999999999432
        },
        {
          "name": "E4",
          "midi": 64,
          "time": 181.5999999999948,
          "velocity": 0.3937007874015748,
          "duration": 0.09999999999999432
        },
        {
          "name": "C5",
          "midi": 72,
          "time": 181.5999999999948,
          "velocity": 0.3937007874015748,
          "duration": 0.09999999999999432
        },
        {
          "name": "A#4",
          "midi": 70,
          "time": 181.9999999999948,
          "velocity": 0.3937007874015748,
          "duration": 0.09999999999999432
        },
        {
          "name": "F4",
          "midi": 65,
          "time": 181.9999999999948,
          "velocity": 0.3937007874015748,
          "duration": 0.09999999999999432
        },
        {
          "name": "C5",
          "midi": 72,
          "time": 181.9999999999948,
          "velocity": 0.3937007874015748,
          "duration": 0.09999999999999432
        },
        {
          "name": "A4",
          "midi": 69,
          "time": 182.3999999999948,
          "velocity": 0.3937007874015748,
          "duration": 0.09999999999999432
        },
        {
          "name": "F4",
          "midi": 65,
          "time": 182.3999999999948,
          "velocity": 0.3937007874015748,
          "duration": 0.09999999999999432
        },
        {
          "name": "D4",
          "midi": 62,
          "time": 182.3999999999948,
          "velocity": 0.3937007874015748,
          "duration": 0.09999999999999432
        },
        {
          "name": "C5",
          "midi": 72,
          "time": 182.3999999999948,
          "velocity": 0.3937007874015748,
          "duration": 0.09999999999999432
        },
        {
          "name": "F4",
          "midi": 65,
          "time": 182.7999999999948,
          "velocity": 0.3937007874015748,
          "duration": 0.09999999999999432
        },
        {
          "name": "A4",
          "midi": 69,
          "time": 182.7999999999948,
          "velocity": 0.3937007874015748,
          "duration": 0.09999999999999432
        },
        {
          "name": "E4",
          "midi": 64,
          "time": 182.7999999999948,
          "velocity": 0.3937007874015748,
          "duration": 0.09999999999999432
        },
        {
          "name": "C5",
          "midi": 72,
          "time": 182.7999999999948,
          "velocity": 0.3937007874015748,
          "duration": 0.09999999999999432
        },
        {
          "name": "A4",
          "midi": 69,
          "time": 183.19999999999482,
          "velocity": 0.3937007874015748,
          "duration": 0.09999999999999432
        },
        {
          "name": "F4",
          "midi": 65,
          "time": 183.19999999999482,
          "velocity": 0.3937007874015748,
          "duration": 0.09999999999999432
        },
        {
          "name": "D4",
          "midi": 62,
          "time": 183.19999999999482,
          "velocity": 0.3937007874015748,
          "duration": 0.09999999999999432
        },
        {
          "name": "C5",
          "midi": 72,
          "time": 183.19999999999482,
          "velocity": 0.3937007874015748,
          "duration": 0.09999999999999432
        },
        {
          "name": "A4",
          "midi": 69,
          "time": 183.59999999999482,
          "velocity": 0.3937007874015748,
          "duration": 0.09999999999999432
        },
        {
          "name": "F4",
          "midi": 65,
          "time": 183.59999999999482,
          "velocity": 0.3937007874015748,
          "duration": 0.09999999999999432
        },
        {
          "name": "E4",
          "midi": 64,
          "time": 183.59999999999482,
          "velocity": 0.3937007874015748,
          "duration": 0.09999999999999432
        },
        {
          "name": "C5",
          "midi": 72,
          "time": 183.59999999999482,
          "velocity": 0.3937007874015748,
          "duration": 0.09999999999999432
        },
        {
          "name": "A4",
          "midi": 69,
          "time": 183.99999999999483,
          "velocity": 0.3937007874015748,
          "duration": 0.09999999999999432
        },
        {
          "name": "F4",
          "midi": 65,
          "time": 183.99999999999483,
          "velocity": 0.3937007874015748,
          "duration": 0.09999999999999432
        },
        {
          "name": "D4",
          "midi": 62,
          "time": 183.99999999999483,
          "velocity": 0.3937007874015748,
          "duration": 0.09999999999999432
        },
        {
          "name": "C5",
          "midi": 72,
          "time": 183.99999999999483,
          "velocity": 0.3937007874015748,
          "duration": 0.09999999999999432
        },
        {
          "name": "F4",
          "midi": 65,
          "time": 184.39999999999483,
          "velocity": 0.3937007874015748,
          "duration": 0.09999999999999432
        },
        {
          "name": "A4",
          "midi": 69,
          "time": 184.39999999999483,
          "velocity": 0.3937007874015748,
          "duration": 0.09999999999999432
        },
        {
          "name": "E4",
          "midi": 64,
          "time": 184.39999999999483,
          "velocity": 0.3937007874015748,
          "duration": 0.09999999999999432
        },
        {
          "name": "C5",
          "midi": 72,
          "time": 184.39999999999483,
          "velocity": 0.3937007874015748,
          "duration": 0.09999999999999432
        },
        {
          "name": "A4",
          "midi": 69,
          "time": 184.79999999999484,
          "velocity": 0.3937007874015748,
          "duration": 0.09999999999999432
        },
        {
          "name": "F4",
          "midi": 65,
          "time": 184.79999999999484,
          "velocity": 0.3937007874015748,
          "duration": 0.09999999999999432
        },
        {
          "name": "D4",
          "midi": 62,
          "time": 184.79999999999484,
          "velocity": 0.3937007874015748,
          "duration": 0.09999999999999432
        },
        {
          "name": "C5",
          "midi": 72,
          "time": 184.79999999999484,
          "velocity": 0.3937007874015748,
          "duration": 0.09999999999999432
        },
        {
          "name": "G#4",
          "midi": 68,
          "time": 185.19999999999484,
          "velocity": 0.3937007874015748,
          "duration": 0.09999999999999432
        },
        {
          "name": "F4",
          "midi": 65,
          "time": 185.19999999999484,
          "velocity": 0.3937007874015748,
          "duration": 0.09999999999999432
        },
        {
          "name": "D4",
          "midi": 62,
          "time": 185.19999999999484,
          "velocity": 0.3937007874015748,
          "duration": 0.09999999999999432
        },
        {
          "name": "A#4",
          "midi": 70,
          "time": 185.19999999999484,
          "velocity": 0.3937007874015748,
          "duration": 0.09999999999999432
        },
        {
          "name": "F#3",
          "midi": 54,
          "time": 185.59999999999485,
          "velocity": 0.3937007874015748,
          "duration": 0.09999999999999432
        },
        {
          "name": "B2",
          "midi": 47,
          "time": 185.59999999999485,
          "velocity": 0.3937007874015748,
          "duration": 0.09999999999999432
        },
        {
          "name": "B2",
          "midi": 47,
          "time": 185.99999999999486,
          "velocity": 0.3937007874015748,
          "duration": 0.09999999999999432
        },
        {
          "name": "B1",
          "midi": 35,
          "time": 185.99999999999486,
          "velocity": 0.3937007874015748,
          "duration": 0.09999999999999432
        },
        {
          "name": "D#4",
          "midi": 63,
          "time": 186.79999999999484,
          "velocity": 0.3937007874015748,
          "duration": 0.09999999999999432
        },
        {
          "name": "B3",
          "midi": 59,
          "time": 186.79999999999484,
          "velocity": 0.3937007874015748,
          "duration": 0.09999999999999432
        },
        {
          "name": "F3",
          "midi": 53,
          "time": 187.19999999999484,
          "velocity": 0.3937007874015748,
          "duration": 0.09999999999999432
        },
        {
          "name": "C#3",
          "midi": 49,
          "time": 187.19999999999484,
          "velocity": 0.3937007874015748,
          "duration": 0.09999999999999432
        },
        {
          "name": "C#3",
          "midi": 49,
          "time": 187.59999999999485,
          "velocity": 0.3937007874015748,
          "duration": 0.09999999999999432
        },
        {
          "name": "C#2",
          "midi": 37,
          "time": 187.59999999999485,
          "velocity": 0.3937007874015748,
          "duration": 0.09999999999999432
        },
        {
          "name": "F3",
          "midi": 53,
          "time": 188.39999999999483,
          "velocity": 0.3937007874015748,
          "duration": 0.09999999999999432
        },
        {
          "name": "G#2",
          "midi": 44,
          "time": 188.39999999999483,
          "velocity": 0.3937007874015748,
          "duration": 0.09999999999999432
        },
        {
          "name": "F#3",
          "midi": 54,
          "time": 188.79999999999484,
          "velocity": 0.3937007874015748,
          "duration": 0.09999999999999432
        },
        {
          "name": "D#3",
          "midi": 51,
          "time": 188.79999999999484,
          "velocity": 0.3937007874015748,
          "duration": 0.09999999999999432
        },
        {
          "name": "D#3",
          "midi": 51,
          "time": 189.19999999999484,
          "velocity": 0.3937007874015748,
          "duration": 0.09999999999999432
        },
        {
          "name": "D#2",
          "midi": 39,
          "time": 189.19999999999484,
          "velocity": 0.3937007874015748,
          "duration": 0.09999999999999432
        },
        {
          "name": "F3",
          "midi": 53,
          "time": 189.99999999999483,
          "velocity": 0.3937007874015748,
          "duration": 0.09999999999999432
        },
        {
          "name": "A#3",
          "midi": 58,
          "time": 189.99999999999483,
          "velocity": 0.3937007874015748,
          "duration": 0.09999999999999432
        },
        {
          "name": "F#3",
          "midi": 54,
          "time": 190.39999999999483,
          "velocity": 0.3937007874015748,
          "duration": 0.09999999999999432
        },
        {
          "name": "D#3",
          "midi": 51,
          "time": 190.39999999999483,
          "velocity": 0.3937007874015748,
          "duration": 0.09999999999999432
        },
        {
          "name": "D#3",
          "midi": 51,
          "time": 190.79999999999484,
          "velocity": 0.3937007874015748,
          "duration": 0.09999999999999432
        },
        {
          "name": "D#2",
          "midi": 39,
          "time": 190.79999999999484,
          "velocity": 0.3937007874015748,
          "duration": 0.09999999999999432
        },
        {
          "name": "F#2",
          "midi": 42,
          "time": 191.59999999999482,
          "velocity": 0.3937007874015748,
          "duration": 0.09999999999999432
        },
        {
          "name": "F#3",
          "midi": 54,
          "time": 191.99999999999483,
          "velocity": 0.3937007874015748,
          "duration": 0.09999999999999432
        },
        {
          "name": "B2",
          "midi": 47,
          "time": 191.99999999999483,
          "velocity": 0.3937007874015748,
          "duration": 0.09999999999999432
        },
        {
          "name": "B2",
          "midi": 47,
          "time": 192.39999999999483,
          "velocity": 0.3937007874015748,
          "duration": 0.09999999999999432
        },
        {
          "name": "B1",
          "midi": 35,
          "time": 192.39999999999483,
          "velocity": 0.3937007874015748,
          "duration": 0.09999999999999432
        },
        {
          "name": "D#4",
          "midi": 63,
          "time": 193.19999999999482,
          "velocity": 0.3937007874015748,
          "duration": 0.09999999999999432
        },
        {
          "name": "A#3",
          "midi": 58,
          "time": 193.19999999999482,
          "velocity": 0.3937007874015748,
          "duration": 0.09999999999999432
        },
        {
          "name": "C#3",
          "midi": 49,
          "time": 193.59999999999482,
          "velocity": 0.3937007874015748,
          "duration": 0.09999999999999432
        },
        {
          "name": "F3",
          "midi": 53,
          "time": 193.59999999999482,
          "velocity": 0.3937007874015748,
          "duration": 0.09999999999999432
        },
        {
          "name": "C#3",
          "midi": 49,
          "time": 193.99999999999483,
          "velocity": 0.3937007874015748,
          "duration": 0.09999999999999432
        },
        {
          "name": "C#2",
          "midi": 37,
          "time": 193.99999999999483,
          "velocity": 0.3937007874015748,
          "duration": 0.09999999999999432
        },
        {
          "name": "F3",
          "midi": 53,
          "time": 194.7999999999948,
          "velocity": 0.3937007874015748,
          "duration": 0.09999999999999432
        },
        {
          "name": "G#2",
          "midi": 44,
          "time": 194.7999999999948,
          "velocity": 0.3937007874015748,
          "duration": 0.09999999999999432
        },
        {
          "name": "A#3",
          "midi": 58,
          "time": 195.19999999999482,
          "velocity": 0.3937007874015748,
          "duration": 0.09999999999999432
        },
        {
          "name": "D#3",
          "midi": 51,
          "time": 195.19999999999482,
          "velocity": 0.3937007874015748,
          "duration": 0.09999999999999432
        },
        {
          "name": "A#3",
          "midi": 58,
          "time": 195.9999999999948,
          "velocity": 0.3937007874015748,
          "duration": 0.09999999999999432
        },
        {
          "name": "D#3",
          "midi": 51,
          "time": 195.9999999999948,
          "velocity": 0.3937007874015748,
          "duration": 0.09999999999999432
        },
        {
          "name": "D#3",
          "midi": 51,
          "time": 196.79999999999478,
          "velocity": 0.3937007874015748,
          "duration": 0.09999999999999432
        },
        {
          "name": "D#2",
          "midi": 39,
          "time": 196.79999999999478,
          "velocity": 0.3937007874015748,
          "duration": 0.09999999999999432
        },
        {
          "name": "D#3",
          "midi": 51,
          "time": 197.1999999999948,
          "velocity": 0.3937007874015748,
          "duration": 0.09999999999999432
        },
        {
          "name": "G3",
          "midi": 55,
          "time": 197.1999999999948,
          "velocity": 0.3937007874015748,
          "duration": 0.09999999999999432
        },
        {
          "name": "G#3",
          "midi": 56,
          "time": 197.29999999999478,
          "velocity": 0.3937007874015748,
          "duration": 0.09999999999999432
        },
        {
          "name": "D#2",
          "midi": 39,
          "time": 197.59999999999476,
          "velocity": 0.3937007874015748,
          "duration": 0.09999999999999432
        },
        {
          "name": "A#2",
          "midi": 46,
          "time": 197.79999999999475,
          "velocity": 0.3937007874015748,
          "duration": 0.09999999999999432
        },
        {
          "name": "D#2",
          "midi": 39,
          "time": 197.99999999999474,
          "velocity": 0.3937007874015748,
          "duration": 0.09999999999999432
        },
        {
          "name": "D#1",
          "midi": 27,
          "time": 197.99999999999474,
          "velocity": 0.3937007874015748,
          "duration": 0.09999999999999432
        },
        {
          "name": "G1",
          "midi": 31,
          "time": 198.09999999999474,
          "velocity": 0.3937007874015748,
          "duration": 0.09999999999999432
        },
        {
          "name": "A#1",
          "midi": 34,
          "time": 198.19999999999473,
          "velocity": 0.3937007874015748,
          "duration": 0.09999999999999432
        },
        {
          "name": "B1",
          "midi": 35,
          "time": 198.39999999999472,
          "velocity": 0.3937007874015748,
          "duration": 0.09999999999999432
        },
        {
          "name": "B2",
          "midi": 47,
          "time": 198.5999999999947,
          "velocity": 0.3937007874015748,
          "duration": 0.09999999999999432
        },
        {
          "name": "B2",
          "midi": 47,
          "time": 198.7999999999947,
          "velocity": 0.3937007874015748,
          "duration": 0.09999999999999432
        },
        {
          "name": "F#3",
          "midi": 54,
          "time": 198.99999999999469,
          "velocity": 0.3937007874015748,
          "duration": 0.09999999999999432
        },
        {
          "name": "B3",
          "midi": 59,
          "time": 198.99999999999469,
          "velocity": 0.3937007874015748,
          "duration": 0.09999999999999432
        },
        {
          "name": "B2",
          "midi": 47,
          "time": 199.19999999999467,
          "velocity": 0.3937007874015748,
          "duration": 0.09999999999999432
        },
        {
          "name": "F#3",
          "midi": 54,
          "time": 199.39999999999466,
          "velocity": 0.3937007874015748,
          "duration": 0.09999999999999432
        },
        {
          "name": "D#4",
          "midi": 63,
          "time": 199.39999999999466,
          "velocity": 0.3937007874015748,
          "duration": 0.09999999999999432
        },
        {
          "name": "B2",
          "midi": 47,
          "time": 199.59999999999465,
          "velocity": 0.3937007874015748,
          "duration": 0.09999999999999432
        },
        {
          "name": "F#3",
          "midi": 54,
          "time": 199.79999999999464,
          "velocity": 0.3937007874015748,
          "duration": 0.09999999999999432
        },
        {
          "name": "G#3",
          "midi": 56,
          "time": 199.79999999999464,
          "velocity": 0.3937007874015748,
          "duration": 0.09999999999999432
        },
        {
          "name": "C#3",
          "midi": 49,
          "time": 199.99999999999463,
          "velocity": 0.3937007874015748,
          "duration": 0.09999999999999432
        },
        {
          "name": "F#3",
          "midi": 54,
          "time": 200.19999999999462,
          "velocity": 0.3937007874015748,
          "duration": 0.09999999999999432
        },
        {
          "name": "G#3",
          "midi": 56,
          "time": 200.19999999999462,
          "velocity": 0.3937007874015748,
          "duration": 0.09999999999999432
        },
        {
          "name": "C#3",
          "midi": 49,
          "time": 200.3999999999946,
          "velocity": 0.3937007874015748,
          "duration": 0.09999999999999432
        },
        {
          "name": "G#3",
          "midi": 56,
          "time": 200.5999999999946,
          "velocity": 0.3937007874015748,
          "duration": 0.09999999999999432
        },
        {
          "name": "C#4",
          "midi": 61,
          "time": 200.5999999999946,
          "velocity": 0.3937007874015748,
          "duration": 0.09999999999999432
        },
        {
          "name": "G#2",
          "midi": 44,
          "time": 200.79999999999458,
          "velocity": 0.3937007874015748,
          "duration": 0.09999999999999432
        },
        {
          "name": "C#3",
          "midi": 49,
          "time": 200.99999999999457,
          "velocity": 0.3937007874015748,
          "duration": 0.09999999999999432
        },
        {
          "name": "G#3",
          "midi": 56,
          "time": 200.99999999999457,
          "velocity": 0.3937007874015748,
          "duration": 0.09999999999999432
        },
        {
          "name": "G#2",
          "midi": 44,
          "time": 201.19999999999456,
          "velocity": 0.3937007874015748,
          "duration": 0.09999999999999432
        },
        {
          "name": "C#3",
          "midi": 49,
          "time": 201.39999999999455,
          "velocity": 0.3937007874015748,
          "duration": 0.09999999999999432
        },
        {
          "name": "F#3",
          "midi": 54,
          "time": 201.39999999999455,
          "velocity": 0.3937007874015748,
          "duration": 0.09999999999999432
        },
        {
          "name": "D#2",
          "midi": 39,
          "time": 201.59999999999454,
          "velocity": 0.3937007874015748,
          "duration": 0.09999999999999432
        },
        {
          "name": "D#3",
          "midi": 51,
          "time": 201.79999999999453,
          "velocity": 0.3937007874015748,
          "duration": 0.09999999999999432
        },
        {
          "name": "A#2",
          "midi": 46,
          "time": 201.79999999999453,
          "velocity": 0.3937007874015748,
          "duration": 0.09999999999999432
        },
        {
          "name": "D#2",
          "midi": 39,
          "time": 201.99999999999451,
          "velocity": 0.3937007874015748,
          "duration": 0.09999999999999432
        },
        {
          "name": "C#3",
          "midi": 49,
          "time": 202.1999999999945,
          "velocity": 0.3937007874015748,
          "duration": 0.09999999999999432
        },
        {
          "name": "A#2",
          "midi": 46,
          "time": 202.1999999999945,
          "velocity": 0.3937007874015748,
          "duration": 0.09999999999999432
        },
        {
          "name": "D#2",
          "midi": 39,
          "time": 202.3999999999945,
          "velocity": 0.3937007874015748,
          "duration": 0.09999999999999432
        },
        {
          "name": "A#2",
          "midi": 46,
          "time": 202.59999999999448,
          "velocity": 0.3937007874015748,
          "duration": 0.09999999999999432
        },
        {
          "name": "D#3",
          "midi": 51,
          "time": 202.59999999999448,
          "velocity": 0.3937007874015748,
          "duration": 0.09999999999999432
        },
        {
          "name": "D#2",
          "midi": 39,
          "time": 202.79999999999447,
          "velocity": 0.3937007874015748,
          "duration": 0.09999999999999432
        },
        {
          "name": "A#2",
          "midi": 46,
          "time": 202.99999999999446,
          "velocity": 0.3937007874015748,
          "duration": 0.09999999999999432
        },
        {
          "name": "F#3",
          "midi": 54,
          "time": 202.99999999999446,
          "velocity": 0.3937007874015748,
          "duration": 0.09999999999999432
        },
        {
          "name": "D#2",
          "midi": 39,
          "time": 203.19999999999445,
          "velocity": 0.3937007874015748,
          "duration": 0.09999999999999432
        },
        {
          "name": "A#2",
          "midi": 46,
          "time": 203.39999999999444,
          "velocity": 0.3937007874015748,
          "duration": 0.09999999999999432
        },
        {
          "name": "D#3",
          "midi": 51,
          "time": 203.39999999999444,
          "velocity": 0.3937007874015748,
          "duration": 0.09999999999999432
        },
        {
          "name": "D#2",
          "midi": 39,
          "time": 203.59999999999442,
          "velocity": 0.3937007874015748,
          "duration": 0.09999999999999432
        },
        {
          "name": "D#3",
          "midi": 51,
          "time": 203.7999999999944,
          "velocity": 0.3937007874015748,
          "duration": 0.09999999999999432
        },
        {
          "name": "A#2",
          "midi": 46,
          "time": 203.7999999999944,
          "velocity": 0.3937007874015748,
          "duration": 0.09999999999999432
        },
        {
          "name": "D#2",
          "midi": 39,
          "time": 203.9999999999944,
          "velocity": 0.3937007874015748,
          "duration": 0.09999999999999432
        },
        {
          "name": "A#2",
          "midi": 46,
          "time": 204.1999999999944,
          "velocity": 0.3937007874015748,
          "duration": 0.09999999999999432
        },
        {
          "name": "F3",
          "midi": 53,
          "time": 204.1999999999944,
          "velocity": 0.3937007874015748,
          "duration": 0.09999999999999432
        },
        {
          "name": "D#2",
          "midi": 39,
          "time": 204.39999999999438,
          "velocity": 0.3937007874015748,
          "duration": 0.09999999999999432
        },
        {
          "name": "A#2",
          "midi": 46,
          "time": 204.59999999999437,
          "velocity": 0.3937007874015748,
          "duration": 0.09999999999999432
        },
        {
          "name": "F#3",
          "midi": 54,
          "time": 204.59999999999437,
          "velocity": 0.3937007874015748,
          "duration": 0.09999999999999432
        },
        {
          "name": "B1",
          "midi": 35,
          "time": 204.79999999999436,
          "velocity": 0.3937007874015748,
          "duration": 0.09999999999999432
        },
        {
          "name": "B2",
          "midi": 47,
          "time": 204.99999999999434,
          "velocity": 0.3937007874015748,
          "duration": 0.09999999999999432
        },
        {
          "name": "B2",
          "midi": 47,
          "time": 205.19999999999433,
          "velocity": 0.3937007874015748,
          "duration": 0.09999999999999432
        },
        {
          "name": "F#3",
          "midi": 54,
          "time": 205.39999999999432,
          "velocity": 0.3937007874015748,
          "duration": 0.09999999999999432
        },
        {
          "name": "B3",
          "midi": 59,
          "time": 205.39999999999432,
          "velocity": 0.3937007874015748,
          "duration": 0.09999999999999432
        },
        {
          "name": "B2",
          "midi": 47,
          "time": 205.5999999999943,
          "velocity": 0.3937007874015748,
          "duration": 0.09999999999999432
        },
        {
          "name": "F#3",
          "midi": 54,
          "time": 205.7999999999943,
          "velocity": 0.3937007874015748,
          "duration": 0.09999999999999432
        },
        {
          "name": "D#4",
          "midi": 63,
          "time": 205.7999999999943,
          "velocity": 0.3937007874015748,
          "duration": 0.09999999999999432
        },
        {
          "name": "B2",
          "midi": 47,
          "time": 205.9999999999943,
          "velocity": 0.3937007874015748,
          "duration": 0.09999999999999432
        },
        {
          "name": "F#3",
          "midi": 54,
          "time": 206.19999999999428,
          "velocity": 0.3937007874015748,
          "duration": 0.09999999999999432
        },
        {
          "name": "G#3",
          "midi": 56,
          "time": 206.19999999999428,
          "velocity": 0.3937007874015748,
          "duration": 0.09999999999999432
        },
        {
          "name": "C#3",
          "midi": 49,
          "time": 206.39999999999426,
          "velocity": 0.3937007874015748,
          "duration": 0.09999999999999432
        },
        {
          "name": "F#3",
          "midi": 54,
          "time": 206.59999999999425,
          "velocity": 0.3937007874015748,
          "duration": 0.09999999999999432
        },
        {
          "name": "G#3",
          "midi": 56,
          "time": 206.59999999999425,
          "velocity": 0.3937007874015748,
          "duration": 0.09999999999999432
        },
        {
          "name": "C#3",
          "midi": 49,
          "time": 206.79999999999424,
          "velocity": 0.3937007874015748,
          "duration": 0.09999999999999432
        },
        {
          "name": "G#3",
          "midi": 56,
          "time": 206.99999999999423,
          "velocity": 0.3937007874015748,
          "duration": 0.09999999999999432
        },
        {
          "name": "C#4",
          "midi": 61,
          "time": 206.99999999999423,
          "velocity": 0.3937007874015748,
          "duration": 0.09999999999999432
        },
        {
          "name": "G#2",
          "midi": 44,
          "time": 207.19999999999422,
          "velocity": 0.3937007874015748,
          "duration": 0.09999999999999432
        },
        {
          "name": "C#3",
          "midi": 49,
          "time": 207.3999999999942,
          "velocity": 0.3937007874015748,
          "duration": 0.09999999999999432
        },
        {
          "name": "G#3",
          "midi": 56,
          "time": 207.3999999999942,
          "velocity": 0.3937007874015748,
          "duration": 0.09999999999999432
        },
        {
          "name": "G#2",
          "midi": 44,
          "time": 207.5999999999942,
          "velocity": 0.3937007874015748,
          "duration": 0.09999999999999432
        },
        {
          "name": "C#3",
          "midi": 49,
          "time": 207.79999999999418,
          "velocity": 0.3937007874015748,
          "duration": 0.09999999999999432
        },
        {
          "name": "F#3",
          "midi": 54,
          "time": 207.79999999999418,
          "velocity": 0.3937007874015748,
          "duration": 0.09999999999999432
        },
        {
          "name": "A#2",
          "midi": 46,
          "time": 207.99999999999417,
          "velocity": 0.3937007874015748,
          "duration": 0.09999999999999432
        },
        {
          "name": "F3",
          "midi": 53,
          "time": 208.19999999999416,
          "velocity": 0.3937007874015748,
          "duration": 0.09999999999999432
        },
        {
          "name": "A#3",
          "midi": 58,
          "time": 208.19999999999416,
          "velocity": 0.3937007874015748,
          "duration": 0.09999999999999432
        },
        {
          "name": "A#2",
          "midi": 46,
          "time": 208.39999999999415,
          "velocity": 0.3937007874015748,
          "duration": 0.09999999999999432
        },
        {
          "name": "F3",
          "midi": 53,
          "time": 208.59999999999414,
          "velocity": 0.3937007874015748,
          "duration": 0.09999999999999432
        },
        {
          "name": "G#3",
          "midi": 56,
          "time": 208.59999999999414,
          "velocity": 0.3937007874015748,
          "duration": 0.09999999999999432
        },
        {
          "name": "A#2",
          "midi": 46,
          "time": 208.79999999999413,
          "velocity": 0.3937007874015748,
          "duration": 0.09999999999999432
        },
        {
          "name": "F3",
          "midi": 53,
          "time": 208.99999999999412,
          "velocity": 0.3937007874015748,
          "duration": 0.09999999999999432
        },
        {
          "name": "A#3",
          "midi": 58,
          "time": 208.99999999999412,
          "velocity": 0.3937007874015748,
          "duration": 0.09999999999999432
        },
        {
          "name": "A#2",
          "midi": 46,
          "time": 209.1999999999941,
          "velocity": 0.3937007874015748,
          "duration": 0.09999999999999432
        },
        {
          "name": "F3",
          "midi": 53,
          "time": 209.3999999999941,
          "velocity": 0.3937007874015748,
          "duration": 0.09999999999999432
        },
        {
          "name": "D3",
          "midi": 50,
          "time": 209.3999999999941,
          "velocity": 0.3937007874015748,
          "duration": 0.09999999999999432
        },
        {
          "name": "A#2",
          "midi": 46,
          "time": 209.59999999999408,
          "velocity": 0.3937007874015748,
          "duration": 0.09999999999999432
        },
        {
          "name": "F3",
          "midi": 53,
          "time": 209.79999999999407,
          "velocity": 0.3937007874015748,
          "duration": 0.09999999999999432
        },
        {
          "name": "A#3",
          "midi": 58,
          "time": 209.79999999999407,
          "velocity": 0.3937007874015748,
          "duration": 0.09999999999999432
        },
        {
          "name": "A#2",
          "midi": 46,
          "time": 209.99999999999406,
          "velocity": 0.3937007874015748,
          "duration": 0.09999999999999432
        },
        {
          "name": "F3",
          "midi": 53,
          "time": 210.19999999999405,
          "velocity": 0.3937007874015748,
          "duration": 0.09999999999999432
        },
        {
          "name": "G#3",
          "midi": 56,
          "time": 210.19999999999405,
          "velocity": 0.3937007874015748,
          "duration": 0.09999999999999432
        },
        {
          "name": "A#2",
          "midi": 46,
          "time": 210.39999999999404,
          "velocity": 0.3937007874015748,
          "duration": 0.09999999999999432
        },
        {
          "name": "F3",
          "midi": 53,
          "time": 210.59999999999403,
          "velocity": 0.3937007874015748,
          "duration": 0.09999999999999432
        },
        {
          "name": "A#3",
          "midi": 58,
          "time": 210.59999999999403,
          "velocity": 0.3937007874015748,
          "duration": 0.09999999999999432
        },
        {
          "name": "A#2",
          "midi": 46,
          "time": 210.79999999999401,
          "velocity": 0.3937007874015748,
          "duration": 0.09999999999999432
        },
        {
          "name": "F3",
          "midi": 53,
          "time": 210.999999999994,
          "velocity": 0.3937007874015748,
          "duration": 0.09999999999999432
        },
        {
          "name": "D3",
          "midi": 50,
          "time": 210.999999999994,
          "velocity": 0.3937007874015748,
          "duration": 0.09999999999999432
        }
      ],
      "controlChanges": {},
      "id": 0,
      "name": "Grand Piano (Classic)",
      "instrumentNumber": 0,
      "instrument": "acoustic grand piano",
      "instrumentFamily": "piano",
      "channelNumber": 0,
      "isPercussion": false
    },
    {
      "startTime": 12.8,
      "duration": 211.1999999999976,
      "length": 1137,
      "notes": [
        {
          "name": "F#5",
          "midi": 78,
          "time": 12.8,
          "velocity": 0.3937007874015748,
          "duration": 0.09999999999999964
        },
        {
          "name": "G#5",
          "midi": 80,
          "time": 12.9,
          "velocity": 0.3937007874015748,
          "duration": 0.09999999999999964
        },
        {
          "name": "A#5",
          "midi": 82,
          "time": 13,
          "velocity": 0.3937007874015748,
          "duration": 0.09999999999999964
        },
        {
          "name": "D#6",
          "midi": 87,
          "time": 13.1,
          "velocity": 0.3937007874015748,
          "duration": 0.09999999999999964
        },
        {
          "name": "A#5",
          "midi": 82,
          "time": 13.2,
          "velocity": 0.3937007874015748,
          "duration": 0.09999999999999964
        },
        {
          "name": "C#6",
          "midi": 85,
          "time": 13.299999999999999,
          "velocity": 0.3937007874015748,
          "duration": 0.09999999999999964
        },
        {
          "name": "G#5",
          "midi": 80,
          "time": 13.399999999999999,
          "velocity": 0.3937007874015748,
          "duration": 0.09999999999999964
        },
        {
          "name": "A#5",
          "midi": 82,
          "time": 13.499999999999998,
          "velocity": 0.3937007874015748,
          "duration": 0.09999999999999964
        },
        {
          "name": "F#5",
          "midi": 78,
          "time": 13.599999999999998,
          "velocity": 0.3937007874015748,
          "duration": 0.09999999999999964
        },
        {
          "name": "G#5",
          "midi": 80,
          "time": 13.699999999999998,
          "velocity": 0.3937007874015748,
          "duration": 0.09999999999999964
        },
        {
          "name": "F5",
          "midi": 77,
          "time": 13.799999999999997,
          "velocity": 0.3937007874015748,
          "duration": 0.09999999999999964
        },
        {
          "name": "F#5",
          "midi": 78,
          "time": 13.899999999999997,
          "velocity": 0.3937007874015748,
          "duration": 0.09999999999999964
        },
        {
          "name": "D#5",
          "midi": 75,
          "time": 13.999999999999996,
          "velocity": 0.3937007874015748,
          "duration": 0.09999999999999964
        },
        {
          "name": "F5",
          "midi": 77,
          "time": 14.099999999999996,
          "velocity": 0.3937007874015748,
          "duration": 0.09999999999999964
        },
        {
          "name": "C#5",
          "midi": 73,
          "time": 14.199999999999996,
          "velocity": 0.3937007874015748,
          "duration": 0.09999999999999964
        },
        {
          "name": "D#5",
          "midi": 75,
          "time": 14.299999999999995,
          "velocity": 0.3937007874015748,
          "duration": 0.09999999999999964
        },
        {
          "name": "G#4",
          "midi": 68,
          "time": 14.399999999999995,
          "velocity": 0.3937007874015748,
          "duration": 0.09999999999999964
        },
        {
          "name": "A#4",
          "midi": 70,
          "time": 14.499999999999995,
          "velocity": 0.3937007874015748,
          "duration": 0.09999999999999964
        },
        {
          "name": "F#4",
          "midi": 66,
          "time": 14.599999999999994,
          "velocity": 0.3937007874015748,
          "duration": 0.09999999999999964
        },
        {
          "name": "C#5",
          "midi": 73,
          "time": 14.699999999999994,
          "velocity": 0.3937007874015748,
          "duration": 0.09999999999999964
        },
        {
          "name": "F#5",
          "midi": 78,
          "time": 14.799999999999994,
          "velocity": 0.3937007874015748,
          "duration": 0.09999999999999964
        },
        {
          "name": "F5",
          "midi": 77,
          "time": 14.899999999999993,
          "velocity": 0.3937007874015748,
          "duration": 0.09999999999999964
        },
        {
          "name": "C#5",
          "midi": 73,
          "time": 14.999999999999993,
          "velocity": 0.3937007874015748,
          "duration": 0.09999999999999964
        },
        {
          "name": "D#5",
          "midi": 75,
          "time": 15.099999999999993,
          "velocity": 0.3937007874015748,
          "duration": 0.09999999999999964
        },
        {
          "name": "A#4",
          "midi": 70,
          "time": 15.199999999999992,
          "velocity": 0.3937007874015748,
          "duration": 0.09999999999999964
        },
        {
          "name": "C#5",
          "midi": 73,
          "time": 15.299999999999992,
          "velocity": 0.3937007874015748,
          "duration": 0.09999999999999964
        },
        {
          "name": "D#5",
          "midi": 75,
          "time": 15.399999999999991,
          "velocity": 0.3937007874015748,
          "duration": 0.09999999999999964
        },
        {
          "name": "F5",
          "midi": 77,
          "time": 15.499999999999991,
          "velocity": 0.3937007874015748,
          "duration": 0.09999999999999964
        },
        {
          "name": "F#5",
          "midi": 78,
          "time": 15.59999999999999,
          "velocity": 0.3937007874015748,
          "duration": 0.09999999999999964
        },
        {
          "name": "G#5",
          "midi": 80,
          "time": 15.69999999999999,
          "velocity": 0.3937007874015748,
          "duration": 0.09999999999999964
        },
        {
          "name": "A#5",
          "midi": 82,
          "time": 15.79999999999999,
          "velocity": 0.3937007874015748,
          "duration": 0.09999999999999964
        },
        {
          "name": "B5",
          "midi": 83,
          "time": 15.89999999999999,
          "velocity": 0.3937007874015748,
          "duration": 0.09999999999999964
        },
        {
          "name": "A#5",
          "midi": 82,
          "time": 15.99999999999999,
          "velocity": 0.3937007874015748,
          "duration": 0.10000000000000142
        },
        {
          "name": "F#5",
          "midi": 78,
          "time": 16.09999999999999,
          "velocity": 0.3937007874015748,
          "duration": 0.10000000000000142
        },
        {
          "name": "A#5",
          "midi": 82,
          "time": 16.199999999999992,
          "velocity": 0.3937007874015748,
          "duration": 0.10000000000000142
        },
        {
          "name": "G#5",
          "midi": 80,
          "time": 16.299999999999994,
          "velocity": 0.3937007874015748,
          "duration": 0.10000000000000142
        },
        {
          "name": "F5",
          "midi": 77,
          "time": 16.399999999999995,
          "velocity": 0.3937007874015748,
          "duration": 0.10000000000000142
        },
        {
          "name": "G#5",
          "midi": 80,
          "time": 16.499999999999996,
          "velocity": 0.3937007874015748,
          "duration": 0.10000000000000142
        },
        {
          "name": "F#5",
          "midi": 78,
          "time": 16.599999999999998,
          "velocity": 0.3937007874015748,
          "duration": 0.10000000000000142
        },
        {
          "name": "D#5",
          "midi": 75,
          "time": 16.7,
          "velocity": 0.3937007874015748,
          "duration": 0.10000000000000142
        },
        {
          "name": "F#5",
          "midi": 78,
          "time": 16.8,
          "velocity": 0.3937007874015748,
          "duration": 0.10000000000000142
        },
        {
          "name": "F5",
          "midi": 77,
          "time": 16.900000000000002,
          "velocity": 0.3937007874015748,
          "duration": 0.10000000000000142
        },
        {
          "name": "C#5",
          "midi": 73,
          "time": 17.000000000000004,
          "velocity": 0.3937007874015748,
          "duration": 0.10000000000000142
        },
        {
          "name": "D#5",
          "midi": 75,
          "time": 17.100000000000005,
          "velocity": 0.3937007874015748,
          "duration": 0.10000000000000142
        },
        {
          "name": "C#5",
          "midi": 73,
          "time": 17.200000000000006,
          "velocity": 0.3937007874015748,
          "duration": 0.10000000000000142
        },
        {
          "name": "G#4",
          "midi": 68,
          "time": 17.300000000000008,
          "velocity": 0.3937007874015748,
          "duration": 0.10000000000000142
        },
        {
          "name": "A#4",
          "midi": 70,
          "time": 17.40000000000001,
          "velocity": 0.3937007874015748,
          "duration": 0.10000000000000142
        },
        {
          "name": "F#4",
          "midi": 66,
          "time": 17.50000000000001,
          "velocity": 0.3937007874015748,
          "duration": 0.10000000000000142
        },
        {
          "name": "G#4",
          "midi": 68,
          "time": 17.600000000000012,
          "velocity": 0.3937007874015748,
          "duration": 0.10000000000000142
        },
        {
          "name": "F4",
          "midi": 65,
          "time": 17.700000000000014,
          "velocity": 0.3937007874015748,
          "duration": 0.10000000000000142
        },
        {
          "name": "F#4",
          "midi": 66,
          "time": 17.800000000000015,
          "velocity": 0.3937007874015748,
          "duration": 0.10000000000000142
        },
        {
          "name": "D#4",
          "midi": 63,
          "time": 17.900000000000016,
          "velocity": 0.3937007874015748,
          "duration": 0.10000000000000142
        },
        {
          "name": "F4",
          "midi": 65,
          "time": 18.000000000000018,
          "velocity": 0.3937007874015748,
          "duration": 0.10000000000000142
        },
        {
          "name": "C#4",
          "midi": 61,
          "time": 18.10000000000002,
          "velocity": 0.3937007874015748,
          "duration": 0.10000000000000142
        },
        {
          "name": "D#4",
          "midi": 63,
          "time": 18.20000000000002,
          "velocity": 0.3937007874015748,
          "duration": 0.10000000000000142
        },
        {
          "name": "A#3",
          "midi": 58,
          "time": 18.300000000000022,
          "velocity": 0.3937007874015748,
          "duration": 0.10000000000000142
        },
        {
          "name": "C#4",
          "midi": 61,
          "time": 18.400000000000023,
          "velocity": 0.3937007874015748,
          "duration": 0.10000000000000142
        },
        {
          "name": "G#3",
          "midi": 56,
          "time": 18.500000000000025,
          "velocity": 0.3937007874015748,
          "duration": 0.10000000000000142
        },
        {
          "name": "A#3",
          "midi": 58,
          "time": 18.600000000000026,
          "velocity": 0.3937007874015748,
          "duration": 0.10000000000000142
        },
        {
          "name": "D#4",
          "midi": 63,
          "time": 18.700000000000028,
          "velocity": 0.3937007874015748,
          "duration": 0.10000000000000142
        },
        {
          "name": "G#3",
          "midi": 56,
          "time": 18.80000000000003,
          "velocity": 0.3937007874015748,
          "duration": 0.10000000000000142
        },
        {
          "name": "A#3",
          "midi": 58,
          "time": 18.90000000000003,
          "velocity": 0.3937007874015748,
          "duration": 0.10000000000000142
        },
        {
          "name": "D#4",
          "midi": 63,
          "time": 19.000000000000032,
          "velocity": 0.3937007874015748,
          "duration": 0.10000000000000142
        },
        {
          "name": "F4",
          "midi": 65,
          "time": 19.100000000000033,
          "velocity": 0.3937007874015748,
          "duration": 0.10000000000000142
        },
        {
          "name": "A#4",
          "midi": 70,
          "time": 19.200000000000035,
          "velocity": 0.3937007874015748,
          "duration": 0.10000000000000142
        },
        {
          "name": "G#4",
          "midi": 68,
          "time": 19.300000000000036,
          "velocity": 0.3937007874015748,
          "duration": 0.10000000000000142
        },
        {
          "name": "A#4",
          "midi": 70,
          "time": 19.400000000000038,
          "velocity": 0.3937007874015748,
          "duration": 0.10000000000000142
        },
        {
          "name": "D#5",
          "midi": 75,
          "time": 19.50000000000004,
          "velocity": 0.3937007874015748,
          "duration": 0.1999999999999993
        },
        {
          "name": "A#4",
          "midi": 70,
          "time": 19.70000000000004,
          "velocity": 0.3937007874015748,
          "duration": 0.10000000000000142
        },
        {
          "name": "G#4",
          "midi": 68,
          "time": 19.80000000000004,
          "velocity": 0.3937007874015748,
          "duration": 0.10000000000000142
        },
        {
          "name": "A#4",
          "midi": 70,
          "time": 19.90000000000004,
          "velocity": 0.3937007874015748,
          "duration": 0.10000000000000142
        },
        {
          "name": "C#5",
          "midi": 73,
          "time": 20.000000000000043,
          "velocity": 0.3937007874015748,
          "duration": 0.10000000000000142
        },
        {
          "name": "D#5",
          "midi": 75,
          "time": 20.100000000000044,
          "velocity": 0.3937007874015748,
          "duration": 0.10000000000000142
        },
        {
          "name": "F5",
          "midi": 77,
          "time": 20.200000000000045,
          "velocity": 0.3937007874015748,
          "duration": 0.1999999999999993
        },
        {
          "name": "A#4",
          "midi": 70,
          "time": 20.400000000000045,
          "velocity": 0.3937007874015748,
          "duration": 0.10000000000000142
        },
        {
          "name": "G#4",
          "midi": 68,
          "time": 20.500000000000046,
          "velocity": 0.3937007874015748,
          "duration": 0.10000000000000142
        },
        {
          "name": "A#4",
          "midi": 70,
          "time": 20.600000000000048,
          "velocity": 0.3937007874015748,
          "duration": 0.10000000000000142
        },
        {
          "name": "D#5",
          "midi": 75,
          "time": 20.70000000000005,
          "velocity": 0.3937007874015748,
          "duration": 0.10000000000000142
        },
        {
          "name": "A#4",
          "midi": 70,
          "time": 20.80000000000005,
          "velocity": 0.3937007874015748,
          "duration": 0.10000000000000142
        },
        {
          "name": "G#4",
          "midi": 68,
          "time": 20.900000000000052,
          "velocity": 0.3937007874015748,
          "duration": 0.10000000000000142
        },
        {
          "name": "A#4",
          "midi": 70,
          "time": 21.000000000000053,
          "velocity": 0.3937007874015748,
          "duration": 0.10000000000000142
        },
        {
          "name": "F5",
          "midi": 77,
          "time": 21.100000000000055,
          "velocity": 0.3937007874015748,
          "duration": 0.10000000000000142
        },
        {
          "name": "F#5",
          "midi": 78,
          "time": 21.200000000000056,
          "velocity": 0.3937007874015748,
          "duration": 0.10000000000000142
        },
        {
          "name": "A#4",
          "midi": 70,
          "time": 21.300000000000058,
          "velocity": 0.3937007874015748,
          "duration": 0.10000000000000142
        },
        {
          "name": "F5",
          "midi": 77,
          "time": 21.40000000000006,
          "velocity": 0.3937007874015748,
          "duration": 0.10000000000000142
        },
        {
          "name": "G#4",
          "midi": 68,
          "time": 21.50000000000006,
          "velocity": 0.3937007874015748,
          "duration": 0.10000000000000142
        },
        {
          "name": "D#5",
          "midi": 75,
          "time": 21.600000000000062,
          "velocity": 0.3937007874015748,
          "duration": 0.10000000000000142
        },
        {
          "name": "F#4",
          "midi": 66,
          "time": 21.700000000000063,
          "velocity": 0.3937007874015748,
          "duration": 0.10000000000000142
        },
        {
          "name": "C#5",
          "midi": 73,
          "time": 21.800000000000065,
          "velocity": 0.3937007874015748,
          "duration": 0.10000000000000142
        },
        {
          "name": "F4",
          "midi": 65,
          "time": 21.900000000000066,
          "velocity": 0.3937007874015748,
          "duration": 0.10000000000000142
        },
        {
          "name": "A#4",
          "midi": 70,
          "time": 22.000000000000068,
          "velocity": 0.3937007874015748,
          "duration": 0.10000000000000142
        },
        {
          "name": "G#4",
          "midi": 68,
          "time": 22.10000000000007,
          "velocity": 0.3937007874015748,
          "duration": 0.10000000000000142
        },
        {
          "name": "F#4",
          "midi": 66,
          "time": 22.20000000000007,
          "velocity": 0.3937007874015748,
          "duration": 0.10000000000000142
        },
        {
          "name": "G#4",
          "midi": 68,
          "time": 22.30000000000007,
          "velocity": 0.3937007874015748,
          "duration": 0.10000000000000142
        },
        {
          "name": "D4",
          "midi": 62,
          "time": 22.400000000000073,
          "velocity": 0.3937007874015748,
          "duration": 0.10000000000000142
        },
        {
          "name": "D#4",
          "midi": 63,
          "time": 22.500000000000075,
          "velocity": 0.3937007874015748,
          "duration": 0.10000000000000142
        },
        {
          "name": "F4",
          "midi": 65,
          "time": 22.600000000000076,
          "velocity": 0.3937007874015748,
          "duration": 0.10000000000000142
        },
        {
          "name": "A#4",
          "midi": 70,
          "time": 22.700000000000077,
          "velocity": 0.3937007874015748,
          "duration": 0.10000000000000142
        },
        {
          "name": "D5",
          "midi": 74,
          "time": 22.80000000000008,
          "velocity": 0.3937007874015748,
          "duration": 0.10000000000000142
        },
        {
          "name": "D#5",
          "midi": 75,
          "time": 22.90000000000008,
          "velocity": 0.3937007874015748,
          "duration": 0.10000000000000142
        },
        {
          "name": "F5",
          "midi": 77,
          "time": 23.00000000000008,
          "velocity": 0.3937007874015748,
          "duration": 0.10000000000000142
        },
        {
          "name": "A#5",
          "midi": 82,
          "time": 23.100000000000083,
          "velocity": 0.3937007874015748,
          "duration": 0.10000000000000142
        },
        {
          "name": "F5",
          "midi": 77,
          "time": 23.200000000000085,
          "velocity": 0.3937007874015748,
          "duration": 0.10000000000000142
        },
        {
          "name": "D6",
          "midi": 86,
          "time": 23.300000000000086,
          "velocity": 0.3937007874015748,
          "duration": 0.10000000000000142
        },
        {
          "name": "F5",
          "midi": 77,
          "time": 23.400000000000087,
          "velocity": 0.3937007874015748,
          "duration": 0.10000000000000142
        },
        {
          "name": "D#5",
          "midi": 75,
          "time": 23.50000000000009,
          "velocity": 0.3937007874015748,
          "duration": 0.10000000000000142
        },
        {
          "name": "D5",
          "midi": 74,
          "time": 23.60000000000009,
          "velocity": 0.3937007874015748,
          "duration": 0.10000000000000142
        },
        {
          "name": "D#5",
          "midi": 75,
          "time": 23.70000000000009,
          "velocity": 0.3937007874015748,
          "duration": 0.10000000000000142
        },
        {
          "name": "F5",
          "midi": 77,
          "time": 23.800000000000093,
          "velocity": 0.3937007874015748,
          "duration": 0.10000000000000142
        },
        {
          "name": "A#4",
          "midi": 70,
          "time": 23.900000000000095,
          "velocity": 0.3937007874015748,
          "duration": 0.10000000000000142
        },
        {
          "name": "D5",
          "midi": 74,
          "time": 24.000000000000096,
          "velocity": 0.3937007874015748,
          "duration": 0.10000000000000142
        },
        {
          "name": "D#5",
          "midi": 75,
          "time": 24.100000000000097,
          "velocity": 0.3937007874015748,
          "duration": 0.10000000000000142
        },
        {
          "name": "F5",
          "midi": 77,
          "time": 24.2000000000001,
          "velocity": 0.3937007874015748,
          "duration": 0.10000000000000142
        },
        {
          "name": "D5",
          "midi": 74,
          "time": 24.3000000000001,
          "velocity": 0.3937007874015748,
          "duration": 0.10000000000000142
        },
        {
          "name": "A#4",
          "midi": 70,
          "time": 24.4000000000001,
          "velocity": 0.3937007874015748,
          "duration": 0.10000000000000142
        },
        {
          "name": "G#4",
          "midi": 68,
          "time": 24.500000000000103,
          "velocity": 0.3937007874015748,
          "duration": 0.10000000000000142
        },
        {
          "name": "F#4",
          "midi": 66,
          "time": 24.600000000000104,
          "velocity": 0.3937007874015748,
          "duration": 0.10000000000000142
        },
        {
          "name": "F4",
          "midi": 65,
          "time": 24.700000000000106,
          "velocity": 0.3937007874015748,
          "duration": 0.10000000000000142
        },
        {
          "name": "F#4",
          "midi": 66,
          "time": 24.800000000000107,
          "velocity": 0.3937007874015748,
          "duration": 0.10000000000000142
        },
        {
          "name": "F4",
          "midi": 65,
          "time": 24.90000000000011,
          "velocity": 0.3937007874015748,
          "duration": 0.10000000000000142
        },
        {
          "name": "A#3",
          "midi": 58,
          "time": 25.00000000000011,
          "velocity": 0.3937007874015748,
          "duration": 0.10000000000000142
        },
        {
          "name": "D#4",
          "midi": 63,
          "time": 25.10000000000011,
          "velocity": 0.3937007874015748,
          "duration": 0.10000000000000142
        },
        {
          "name": "F4",
          "midi": 65,
          "time": 25.200000000000113,
          "velocity": 0.3937007874015748,
          "duration": 0.10000000000000142
        },
        {
          "name": "D#4",
          "midi": 63,
          "time": 25.300000000000114,
          "velocity": 0.3937007874015748,
          "duration": 0.10000000000000142
        },
        {
          "name": "D4",
          "midi": 62,
          "time": 25.400000000000116,
          "velocity": 0.3937007874015748,
          "duration": 0.1999999999999993
        },
        {
          "name": "D5",
          "midi": 74,
          "time": 25.600000000000115,
          "velocity": 0.3937007874015748,
          "duration": 0.10000000000000142
        },
        {
          "name": "D4",
          "midi": 62,
          "time": 25.600000000000115,
          "velocity": 0.3937007874015748,
          "duration": 0.10000000000000142
        },
        {
          "name": "F5",
          "midi": 77,
          "time": 25.700000000000117,
          "velocity": 0.3937007874015748,
          "duration": 0.10000000000000142
        },
        {
          "name": "F4",
          "midi": 65,
          "time": 25.700000000000117,
          "velocity": 0.3937007874015748,
          "duration": 0.10000000000000142
        },
        {
          "name": "A#5",
          "midi": 82,
          "time": 25.800000000000118,
          "velocity": 0.3937007874015748,
          "duration": 0.10000000000000142
        },
        {
          "name": "A#4",
          "midi": 70,
          "time": 25.800000000000118,
          "velocity": 0.3937007874015748,
          "duration": 0.10000000000000142
        },
        {
          "name": "D5",
          "midi": 74,
          "time": 25.90000000000012,
          "velocity": 0.3937007874015748,
          "duration": 0.10000000000000142
        },
        {
          "name": "D4",
          "midi": 62,
          "time": 25.90000000000012,
          "velocity": 0.3937007874015748,
          "duration": 0.10000000000000142
        },
        {
          "name": "F5",
          "midi": 77,
          "time": 26.00000000000012,
          "velocity": 0.3937007874015748,
          "duration": 0.10000000000000142
        },
        {
          "name": "F4",
          "midi": 65,
          "time": 26.00000000000012,
          "velocity": 0.3937007874015748,
          "duration": 0.10000000000000142
        },
        {
          "name": "A#5",
          "midi": 82,
          "time": 26.100000000000122,
          "velocity": 0.3937007874015748,
          "duration": 0.10000000000000142
        },
        {
          "name": "A#4",
          "midi": 70,
          "time": 26.100000000000122,
          "velocity": 0.3937007874015748,
          "duration": 0.10000000000000142
        },
        {
          "name": "D5",
          "midi": 74,
          "time": 26.200000000000124,
          "velocity": 0.3937007874015748,
          "duration": 0.10000000000000142
        },
        {
          "name": "D4",
          "midi": 62,
          "time": 26.200000000000124,
          "velocity": 0.3937007874015748,
          "duration": 0.10000000000000142
        },
        {
          "name": "F5",
          "midi": 77,
          "time": 26.300000000000125,
          "velocity": 0.3937007874015748,
          "duration": 0.10000000000000142
        },
        {
          "name": "F4",
          "midi": 65,
          "time": 26.300000000000125,
          "velocity": 0.3937007874015748,
          "duration": 0.10000000000000142
        },
        {
          "name": "A#5",
          "midi": 82,
          "time": 26.400000000000126,
          "velocity": 0.3937007874015748,
          "duration": 0.10000000000000142
        },
        {
          "name": "A#4",
          "midi": 70,
          "time": 26.400000000000126,
          "velocity": 0.3937007874015748,
          "duration": 0.10000000000000142
        },
        {
          "name": "D5",
          "midi": 74,
          "time": 26.500000000000128,
          "velocity": 0.3937007874015748,
          "duration": 0.10000000000000142
        },
        {
          "name": "D4",
          "midi": 62,
          "time": 26.500000000000128,
          "velocity": 0.3937007874015748,
          "duration": 0.10000000000000142
        },
        {
          "name": "F5",
          "midi": 77,
          "time": 26.60000000000013,
          "velocity": 0.3937007874015748,
          "duration": 0.10000000000000142
        },
        {
          "name": "F4",
          "midi": 65,
          "time": 26.60000000000013,
          "velocity": 0.3937007874015748,
          "duration": 0.10000000000000142
        },
        {
          "name": "A#5",
          "midi": 82,
          "time": 26.70000000000013,
          "velocity": 0.3937007874015748,
          "duration": 0.10000000000000142
        },
        {
          "name": "A#4",
          "midi": 70,
          "time": 26.70000000000013,
          "velocity": 0.3937007874015748,
          "duration": 0.10000000000000142
        },
        {
          "name": "D5",
          "midi": 74,
          "time": 26.800000000000132,
          "velocity": 0.3937007874015748,
          "duration": 0.10000000000000142
        },
        {
          "name": "D4",
          "midi": 62,
          "time": 26.800000000000132,
          "velocity": 0.3937007874015748,
          "duration": 0.10000000000000142
        },
        {
          "name": "F5",
          "midi": 77,
          "time": 26.900000000000134,
          "velocity": 0.3937007874015748,
          "duration": 0.10000000000000142
        },
        {
          "name": "F4",
          "midi": 65,
          "time": 26.900000000000134,
          "velocity": 0.3937007874015748,
          "duration": 0.10000000000000142
        },
        {
          "name": "A#5",
          "midi": 82,
          "time": 27.000000000000135,
          "velocity": 0.3937007874015748,
          "duration": 0.10000000000000142
        },
        {
          "name": "A#4",
          "midi": 70,
          "time": 27.000000000000135,
          "velocity": 0.3937007874015748,
          "duration": 0.10000000000000142
        },
        {
          "name": "D5",
          "midi": 74,
          "time": 27.100000000000136,
          "velocity": 0.3937007874015748,
          "duration": 0.10000000000000142
        },
        {
          "name": "D#5",
          "midi": 75,
          "time": 27.200000000000138,
          "velocity": 0.3937007874015748,
          "duration": 0.10000000000000142
        },
        {
          "name": "F5",
          "midi": 77,
          "time": 27.30000000000014,
          "velocity": 0.3937007874015748,
          "duration": 0.10000000000000142
        },
        {
          "name": "F#5",
          "midi": 78,
          "time": 27.40000000000014,
          "velocity": 0.3937007874015748,
          "duration": 0.10000000000000142
        },
        {
          "name": "G#5",
          "midi": 80,
          "time": 27.500000000000142,
          "velocity": 0.3937007874015748,
          "duration": 0.10000000000000142
        },
        {
          "name": "A#5",
          "midi": 82,
          "time": 27.600000000000144,
          "velocity": 0.3937007874015748,
          "duration": 0.10000000000000142
        },
        {
          "name": "D6",
          "midi": 86,
          "time": 27.700000000000145,
          "velocity": 0.3937007874015748,
          "duration": 0.10000000000000142
        },
        {
          "name": "F6",
          "midi": 89,
          "time": 27.800000000000146,
          "velocity": 0.3937007874015748,
          "duration": 0.10000000000000142
        },
        {
          "name": "A#6",
          "midi": 94,
          "time": 27.900000000000148,
          "velocity": 0.3937007874015748,
          "duration": 0.10000000000000142
        },
        {
          "name": "D6",
          "midi": 86,
          "time": 28.00000000000015,
          "velocity": 0.3937007874015748,
          "duration": 0.10000000000000142
        },
        {
          "name": "D#6",
          "midi": 87,
          "time": 28.10000000000015,
          "velocity": 0.3937007874015748,
          "duration": 0.10000000000000142
        },
        {
          "name": "F6",
          "midi": 89,
          "time": 28.200000000000152,
          "velocity": 0.3937007874015748,
          "duration": 0.10000000000000142
        },
        {
          "name": "A#6",
          "midi": 94,
          "time": 28.300000000000153,
          "velocity": 0.3937007874015748,
          "duration": 0.10000000000000142
        },
        {
          "name": "D6",
          "midi": 86,
          "time": 28.400000000000155,
          "velocity": 0.3937007874015748,
          "duration": 0.10000000000000142
        },
        {
          "name": "D#6",
          "midi": 87,
          "time": 28.500000000000156,
          "velocity": 0.3937007874015748,
          "duration": 0.10000000000000142
        },
        {
          "name": "F6",
          "midi": 89,
          "time": 28.600000000000158,
          "velocity": 0.3937007874015748,
          "duration": 0.10000000000000142
        },
        {
          "name": "A#6",
          "midi": 94,
          "time": 28.70000000000016,
          "velocity": 0.3937007874015748,
          "duration": 0.10000000000000142
        },
        {
          "name": "D6",
          "midi": 86,
          "time": 28.80000000000016,
          "velocity": 0.3937007874015748,
          "duration": 0.10000000000000142
        },
        {
          "name": "A#6",
          "midi": 94,
          "time": 28.900000000000162,
          "velocity": 0.3937007874015748,
          "duration": 0.10000000000000142
        },
        {
          "name": "D6",
          "midi": 86,
          "time": 29.000000000000163,
          "velocity": 0.3937007874015748,
          "duration": 0.10000000000000142
        },
        {
          "name": "G#6",
          "midi": 92,
          "time": 29.100000000000165,
          "velocity": 0.3937007874015748,
          "duration": 0.10000000000000142
        },
        {
          "name": "D6",
          "midi": 86,
          "time": 29.200000000000166,
          "velocity": 0.3937007874015748,
          "duration": 0.10000000000000142
        },
        {
          "name": "F#6",
          "midi": 90,
          "time": 29.300000000000168,
          "velocity": 0.3937007874015748,
          "duration": 0.10000000000000142
        },
        {
          "name": "D6",
          "midi": 86,
          "time": 29.40000000000017,
          "velocity": 0.3937007874015748,
          "duration": 0.10000000000000142
        },
        {
          "name": "F6",
          "midi": 89,
          "time": 29.50000000000017,
          "velocity": 0.3937007874015748,
          "duration": 0.10000000000000142
        },
        {
          "name": "A#5",
          "midi": 82,
          "time": 29.600000000000172,
          "velocity": 0.3937007874015748,
          "duration": 0.10000000000000142
        },
        {
          "name": "D6",
          "midi": 86,
          "time": 29.700000000000173,
          "velocity": 0.3937007874015748,
          "duration": 0.10000000000000142
        },
        {
          "name": "G#5",
          "midi": 80,
          "time": 29.800000000000175,
          "velocity": 0.3937007874015748,
          "duration": 0.10000000000000142
        },
        {
          "name": "A#5",
          "midi": 82,
          "time": 29.900000000000176,
          "velocity": 0.3937007874015748,
          "duration": 0.10000000000000142
        },
        {
          "name": "F#5",
          "midi": 78,
          "time": 30.000000000000178,
          "velocity": 0.3937007874015748,
          "duration": 0.10000000000000142
        },
        {
          "name": "G#5",
          "midi": 80,
          "time": 30.10000000000018,
          "velocity": 0.3937007874015748,
          "duration": 0.10000000000000142
        },
        {
          "name": "F5",
          "midi": 77,
          "time": 30.20000000000018,
          "velocity": 0.3937007874015748,
          "duration": 0.10000000000000142
        },
        {
          "name": "F#5",
          "midi": 78,
          "time": 30.300000000000182,
          "velocity": 0.3937007874015748,
          "duration": 0.10000000000000142
        },
        {
          "name": "D#5",
          "midi": 75,
          "time": 30.400000000000183,
          "velocity": 0.3937007874015748,
          "duration": 0.10000000000000142
        },
        {
          "name": "F5",
          "midi": 77,
          "time": 30.500000000000185,
          "velocity": 0.3937007874015748,
          "duration": 0.10000000000000142
        },
        {
          "name": "C#5",
          "midi": 73,
          "time": 30.600000000000186,
          "velocity": 0.3937007874015748,
          "duration": 0.10000000000000142
        },
        {
          "name": "D#5",
          "midi": 75,
          "time": 30.700000000000188,
          "velocity": 0.3937007874015748,
          "duration": 0.10000000000000142
        },
        {
          "name": "A#4",
          "midi": 70,
          "time": 30.80000000000019,
          "velocity": 0.3937007874015748,
          "duration": 0.10000000000000142
        },
        {
          "name": "C#5",
          "midi": 73,
          "time": 30.90000000000019,
          "velocity": 0.3937007874015748,
          "duration": 0.10000000000000142
        },
        {
          "name": "G#4",
          "midi": 68,
          "time": 31.000000000000192,
          "velocity": 0.3937007874015748,
          "duration": 0.10000000000000142
        },
        {
          "name": "A#4",
          "midi": 70,
          "time": 31.100000000000193,
          "velocity": 0.3937007874015748,
          "duration": 0.10000000000000142
        },
        {
          "name": "F4",
          "midi": 65,
          "time": 31.200000000000195,
          "velocity": 0.3937007874015748,
          "duration": 0.10000000000000142
        },
        {
          "name": "F#4",
          "midi": 66,
          "time": 31.300000000000196,
          "velocity": 0.3937007874015748,
          "duration": 0.10000000000000142
        },
        {
          "name": "D4",
          "midi": 62,
          "time": 31.400000000000198,
          "velocity": 0.3937007874015748,
          "duration": 0.10000000000000142
        },
        {
          "name": "F4",
          "midi": 65,
          "time": 31.5000000000002,
          "velocity": 0.3937007874015748,
          "duration": 0.10000000000000142
        },
        {
          "name": "F#4",
          "midi": 66,
          "time": 31.6000000000002,
          "velocity": 0.3937007874015748,
          "duration": 0.1999999999999993
        },
        {
          "name": "G#4",
          "midi": 68,
          "time": 31.8000000000002,
          "velocity": 0.3937007874015748,
          "duration": 0.1999999999999993
        },
        {
          "name": "F4",
          "midi": 65,
          "time": 31.8000000000002,
          "velocity": 0.3937007874015748,
          "duration": 0.1999999999999993
        },
        {
          "name": "F#4",
          "midi": 66,
          "time": 32.0000000000002,
          "velocity": 0.3937007874015748,
          "duration": 0.6000000000000014
        },
        {
          "name": "A#4",
          "midi": 70,
          "time": 32.0000000000002,
          "velocity": 0.3937007874015748,
          "duration": 0.6000000000000014
        },
        {
          "name": "D#5",
          "midi": 75,
          "time": 32.6000000000002,
          "velocity": 0.3937007874015748,
          "duration": 0.20000000000000284
        },
        {
          "name": "A#4",
          "midi": 70,
          "time": 32.6000000000002,
          "velocity": 0.3937007874015748,
          "duration": 0.20000000000000284
        },
        {
          "name": "F#4",
          "midi": 66,
          "time": 32.8000000000002,
          "velocity": 0.3937007874015748,
          "duration": 0.7999999999999972
        },
        {
          "name": "A#4",
          "midi": 70,
          "time": 32.8000000000002,
          "velocity": 0.3937007874015748,
          "duration": 0.7999999999999972
        },
        {
          "name": "A#4",
          "midi": 70,
          "time": 33.6000000000002,
          "velocity": 0.3937007874015748,
          "duration": 0.6000000000000014
        },
        {
          "name": "F#5",
          "midi": 78,
          "time": 33.6000000000002,
          "velocity": 0.3937007874015748,
          "duration": 0.6000000000000014
        },
        {
          "name": "C#5",
          "midi": 73,
          "time": 34.2000000000002,
          "velocity": 0.3937007874015748,
          "duration": 0.10000000000000142
        },
        {
          "name": "D#5",
          "midi": 75,
          "time": 34.3000000000002,
          "velocity": 0.3937007874015748,
          "duration": 0.10000000000000142
        },
        {
          "name": "G#4",
          "midi": 68,
          "time": 34.400000000000205,
          "velocity": 0.3937007874015748,
          "duration": 0.20000000000000284
        },
        {
          "name": "F5",
          "midi": 77,
          "time": 34.400000000000205,
          "velocity": 0.3937007874015748,
          "duration": 0.20000000000000284
        },
        {
          "name": "F#5",
          "midi": 78,
          "time": 34.60000000000021,
          "velocity": 0.3937007874015748,
          "duration": 0.20000000000000284
        },
        {
          "name": "G#4",
          "midi": 68,
          "time": 34.60000000000021,
          "velocity": 0.3937007874015748,
          "duration": 0.20000000000000284
        },
        {
          "name": "F4",
          "midi": 65,
          "time": 34.80000000000021,
          "velocity": 0.3937007874015748,
          "duration": 0.20000000000000284
        },
        {
          "name": "C#5",
          "midi": 73,
          "time": 34.80000000000021,
          "velocity": 0.3937007874015748,
          "duration": 0.20000000000000284
        },
        {
          "name": "F5",
          "midi": 77,
          "time": 35.00000000000021,
          "velocity": 0.3937007874015748,
          "duration": 0.20000000000000284
        },
        {
          "name": "C#5",
          "midi": 73,
          "time": 35.00000000000021,
          "velocity": 0.3937007874015748,
          "duration": 0.20000000000000284
        },
        {
          "name": "F#4",
          "midi": 66,
          "time": 35.200000000000216,
          "velocity": 0.3937007874015748,
          "duration": 0.6000000000000014
        },
        {
          "name": "A#4",
          "midi": 70,
          "time": 35.200000000000216,
          "velocity": 0.3937007874015748,
          "duration": 0.6000000000000014
        },
        {
          "name": "D#5",
          "midi": 75,
          "time": 35.80000000000022,
          "velocity": 0.3937007874015748,
          "duration": 0.20000000000000284
        },
        {
          "name": "A#4",
          "midi": 70,
          "time": 35.80000000000022,
          "velocity": 0.3937007874015748,
          "duration": 0.20000000000000284
        },
        {
          "name": "F#4",
          "midi": 66,
          "time": 36.00000000000022,
          "velocity": 0.3937007874015748,
          "duration": 0.7999999999999972
        },
        {
          "name": "A#4",
          "midi": 70,
          "time": 36.00000000000022,
          "velocity": 0.3937007874015748,
          "duration": 0.7999999999999972
        },
        {
          "name": "F#4",
          "midi": 66,
          "time": 36.80000000000022,
          "velocity": 0.3937007874015748,
          "duration": 0.20000000000000284
        },
        {
          "name": "C#5",
          "midi": 73,
          "time": 36.80000000000022,
          "velocity": 0.3937007874015748,
          "duration": 1.0000000000000142
        },
        {
          "name": "F#5",
          "midi": 78,
          "time": 36.80000000000022,
          "velocity": 0.3937007874015748,
          "duration": 1.0000000000000142
        },
        {
          "name": "A#4",
          "midi": 70,
          "time": 37.00000000000022,
          "velocity": 0.3937007874015748,
          "duration": 0.10000000000000142
        },
        {
          "name": "F4",
          "midi": 65,
          "time": 37.10000000000022,
          "velocity": 0.3937007874015748,
          "duration": 0.10000000000000142
        },
        {
          "name": "F#4",
          "midi": 66,
          "time": 37.20000000000022,
          "velocity": 0.3937007874015748,
          "duration": 0.10000000000000142
        },
        {
          "name": "G#4",
          "midi": 68,
          "time": 37.300000000000225,
          "velocity": 0.3937007874015748,
          "duration": 0.10000000000000142
        },
        {
          "name": "F4",
          "midi": 65,
          "time": 37.400000000000226,
          "velocity": 0.3937007874015748,
          "duration": 0.10000000000000142
        },
        {
          "name": "F#4",
          "midi": 66,
          "time": 37.50000000000023,
          "velocity": 0.3937007874015748,
          "duration": 0.10000000000000142
        },
        {
          "name": "D#4",
          "midi": 63,
          "time": 37.60000000000023,
          "velocity": 0.3937007874015748,
          "duration": 0.10000000000000142
        },
        {
          "name": "F4",
          "midi": 65,
          "time": 37.70000000000023,
          "velocity": 0.3937007874015748,
          "duration": 0.10000000000000142
        },
        {
          "name": "C#4",
          "midi": 61,
          "time": 37.80000000000023,
          "velocity": 0.3937007874015748,
          "duration": 0.10000000000000142
        },
        {
          "name": "D#4",
          "midi": 63,
          "time": 37.90000000000023,
          "velocity": 0.3937007874015748,
          "duration": 0.10000000000000142
        },
        {
          "name": "A#3",
          "midi": 58,
          "time": 38.000000000000234,
          "velocity": 0.3937007874015748,
          "duration": 0.10000000000000142
        },
        {
          "name": "C#4",
          "midi": 61,
          "time": 38.100000000000236,
          "velocity": 0.3937007874015748,
          "duration": 0.10000000000000142
        },
        {
          "name": "G#3",
          "midi": 56,
          "time": 38.20000000000024,
          "velocity": 0.3937007874015748,
          "duration": 0.20000000000000284
        },
        {
          "name": "F#4",
          "midi": 66,
          "time": 38.40000000000024,
          "velocity": 0.3937007874015748,
          "duration": 0.20000000000000284
        },
        {
          "name": "A#4",
          "midi": 70,
          "time": 38.40000000000024,
          "velocity": 0.3937007874015748,
          "duration": 0.6000000000000085
        },
        {
          "name": "A#3",
          "midi": 58,
          "time": 38.60000000000024,
          "velocity": 0.3937007874015748,
          "duration": 0.20000000000000284
        },
        {
          "name": "F4",
          "midi": 65,
          "time": 38.800000000000246,
          "velocity": 0.3937007874015748,
          "duration": 0.10000000000000142
        },
        {
          "name": "F#4",
          "midi": 66,
          "time": 38.90000000000025,
          "velocity": 0.3937007874015748,
          "duration": 0.10000000000000142
        },
        {
          "name": "A#4",
          "midi": 70,
          "time": 39.00000000000025,
          "velocity": 0.3937007874015748,
          "duration": 0.20000000000000284
        },
        {
          "name": "D#5",
          "midi": 75,
          "time": 39.00000000000025,
          "velocity": 0.3937007874015748,
          "duration": 0.20000000000000284
        },
        {
          "name": "F#4",
          "midi": 66,
          "time": 39.20000000000025,
          "velocity": 0.3937007874015748,
          "duration": 0.7999999999999972
        },
        {
          "name": "A#4",
          "midi": 70,
          "time": 39.20000000000025,
          "velocity": 0.3937007874015748,
          "duration": 0.7999999999999972
        },
        {
          "name": "D#5",
          "midi": 75,
          "time": 40.00000000000025,
          "velocity": 0.3937007874015748,
          "duration": 0.10000000000000142
        },
        {
          "name": "F#5",
          "midi": 78,
          "time": 40.00000000000025,
          "velocity": 0.3937007874015748,
          "duration": 0.10000000000000142
        },
        {
          "name": "F#4",
          "midi": 66,
          "time": 40.10000000000025,
          "velocity": 0.3937007874015748,
          "duration": 0.10000000000000142
        },
        {
          "name": "F5",
          "midi": 77,
          "time": 40.20000000000025,
          "velocity": 0.3937007874015748,
          "duration": 0.10000000000000142
        },
        {
          "name": "D#5",
          "midi": 75,
          "time": 40.30000000000025,
          "velocity": 0.3937007874015748,
          "duration": 0.10000000000000142
        },
        {
          "name": "C#5",
          "midi": 73,
          "time": 40.400000000000254,
          "velocity": 0.3937007874015748,
          "duration": 0.10000000000000142
        },
        {
          "name": "A#4",
          "midi": 70,
          "time": 40.500000000000256,
          "velocity": 0.3937007874015748,
          "duration": 0.10000000000000142
        },
        {
          "name": "C#5",
          "midi": 73,
          "time": 40.60000000000026,
          "velocity": 0.3937007874015748,
          "duration": 0.10000000000000142
        },
        {
          "name": "D#5",
          "midi": 75,
          "time": 40.70000000000026,
          "velocity": 0.3937007874015748,
          "duration": 0.10000000000000142
        },
        {
          "name": "F5",
          "midi": 77,
          "time": 40.80000000000026,
          "velocity": 0.3937007874015748,
          "duration": 0.20000000000000284
        },
        {
          "name": "G#4",
          "midi": 68,
          "time": 40.80000000000026,
          "velocity": 0.3937007874015748,
          "duration": 0.20000000000000284
        },
        {
          "name": "F#5",
          "midi": 78,
          "time": 41.00000000000026,
          "velocity": 0.3937007874015748,
          "duration": 0.20000000000000284
        },
        {
          "name": "G#4",
          "midi": 68,
          "time": 41.00000000000026,
          "velocity": 0.3937007874015748,
          "duration": 0.20000000000000284
        },
        {
          "name": "F5",
          "midi": 77,
          "time": 41.200000000000266,
          "velocity": 0.3937007874015748,
          "duration": 0.20000000000000284
        },
        {
          "name": "A#5",
          "midi": 82,
          "time": 41.200000000000266,
          "velocity": 0.3937007874015748,
          "duration": 0.20000000000000284
        },
        {
          "name": "C#5",
          "midi": 73,
          "time": 41.40000000000027,
          "velocity": 0.3937007874015748,
          "duration": 0.20000000000000284
        },
        {
          "name": "F4",
          "midi": 65,
          "time": 41.40000000000027,
          "velocity": 0.3937007874015748,
          "duration": 0.20000000000000284
        },
        {
          "name": "B4",
          "midi": 71,
          "time": 41.60000000000027,
          "velocity": 0.3937007874015748,
          "duration": 0.6000000000000014
        },
        {
          "name": "D#5",
          "midi": 75,
          "time": 41.60000000000027,
          "velocity": 0.3937007874015748,
          "duration": 0.6000000000000014
        },
        {
          "name": "A#5",
          "midi": 82,
          "time": 42.20000000000027,
          "velocity": 0.3937007874015748,
          "duration": 0.20000000000000284
        },
        {
          "name": "A#4",
          "midi": 70,
          "time": 42.20000000000027,
          "velocity": 0.3937007874015748,
          "duration": 0.20000000000000284
        },
        {
          "name": "B4",
          "midi": 71,
          "time": 42.400000000000276,
          "velocity": 0.3937007874015748,
          "duration": 0.6000000000000014
        },
        {
          "name": "D#5",
          "midi": 75,
          "time": 42.400000000000276,
          "velocity": 0.3937007874015748,
          "duration": 0.6000000000000014
        },
        {
          "name": "D#5",
          "midi": 75,
          "time": 43.00000000000028,
          "velocity": 0.3937007874015748,
          "duration": 0.10000000000000142
        },
        {
          "name": "F5",
          "midi": 77,
          "time": 43.10000000000028,
          "velocity": 0.3937007874015748,
          "duration": 0.10000000000000142
        },
        {
          "name": "F#5",
          "midi": 78,
          "time": 43.20000000000028,
          "velocity": 0.3937007874015748,
          "duration": 0.10000000000000142
        },
        {
          "name": "A#4",
          "midi": 70,
          "time": 43.30000000000028,
          "velocity": 0.3937007874015748,
          "duration": 0.10000000000000142
        },
        {
          "name": "F5",
          "midi": 77,
          "time": 43.40000000000028,
          "velocity": 0.3937007874015748,
          "duration": 0.10000000000000142
        },
        {
          "name": "A#4",
          "midi": 70,
          "time": 43.500000000000284,
          "velocity": 0.3937007874015748,
          "duration": 0.10000000000000142
        },
        {
          "name": "D#5",
          "midi": 75,
          "time": 43.600000000000286,
          "velocity": 0.3937007874015748,
          "duration": 0.10000000000000142
        },
        {
          "name": "G#4",
          "midi": 68,
          "time": 43.70000000000029,
          "velocity": 0.3937007874015748,
          "duration": 0.10000000000000142
        },
        {
          "name": "C#5",
          "midi": 73,
          "time": 43.80000000000029,
          "velocity": 0.3937007874015748,
          "duration": 0.10000000000000142
        },
        {
          "name": "F4",
          "midi": 65,
          "time": 43.90000000000029,
          "velocity": 0.3937007874015748,
          "duration": 0.10000000000000142
        },
        {
          "name": "F#4",
          "midi": 66,
          "time": 44.00000000000029,
          "velocity": 0.3937007874015748,
          "duration": 0.10000000000000142
        },
        {
          "name": "G#4",
          "midi": 68,
          "time": 44.10000000000029,
          "velocity": 0.3937007874015748,
          "duration": 0.10000000000000142
        },
        {
          "name": "A#4",
          "midi": 70,
          "time": 44.200000000000294,
          "velocity": 0.3937007874015748,
          "duration": 0.10000000000000142
        },
        {
          "name": "D#4",
          "midi": 63,
          "time": 44.300000000000296,
          "velocity": 0.3937007874015748,
          "duration": 0.10000000000000142
        },
        {
          "name": "G#4",
          "midi": 68,
          "time": 44.4000000000003,
          "velocity": 0.3937007874015748,
          "duration": 0.10000000000000142
        },
        {
          "name": "A#4",
          "midi": 70,
          "time": 44.5000000000003,
          "velocity": 0.3937007874015748,
          "duration": 0.10000000000000142
        },
        {
          "name": "F4",
          "midi": 65,
          "time": 44.6000000000003,
          "velocity": 0.3937007874015748,
          "duration": 0.10000000000000142
        },
        {
          "name": "C#5",
          "midi": 73,
          "time": 44.7000000000003,
          "velocity": 0.3937007874015748,
          "duration": 0.10000000000000142
        },
        {
          "name": "D#5",
          "midi": 75,
          "time": 44.8000000000003,
          "velocity": 0.3937007874015748,
          "duration": 0.6000000000000014
        },
        {
          "name": "F#5",
          "midi": 78,
          "time": 44.8000000000003,
          "velocity": 0.3937007874015748,
          "duration": 0.6000000000000014
        },
        {
          "name": "A#5",
          "midi": 82,
          "time": 45.400000000000304,
          "velocity": 0.3937007874015748,
          "duration": 0.20000000000000284
        },
        {
          "name": "F#5",
          "midi": 78,
          "time": 45.400000000000304,
          "velocity": 0.3937007874015748,
          "duration": 0.20000000000000284
        },
        {
          "name": "D#5",
          "midi": 75,
          "time": 45.60000000000031,
          "velocity": 0.3937007874015748,
          "duration": 0.7999999999999972
        },
        {
          "name": "F#5",
          "midi": 78,
          "time": 45.60000000000031,
          "velocity": 0.3937007874015748,
          "duration": 0.7999999999999972
        },
        {
          "name": "F#5",
          "midi": 78,
          "time": 46.400000000000304,
          "velocity": 0.3937007874015748,
          "duration": 0.6000000000000014
        },
        {
          "name": "D#6",
          "midi": 87,
          "time": 46.400000000000304,
          "velocity": 0.3937007874015748,
          "duration": 0.6000000000000014
        },
        {
          "name": "G#5",
          "midi": 80,
          "time": 47.000000000000306,
          "velocity": 0.3937007874015748,
          "duration": 0.10000000000000142
        },
        {
          "name": "A#5",
          "midi": 82,
          "time": 47.10000000000031,
          "velocity": 0.3937007874015748,
          "duration": 0.10000000000000142
        },
        {
          "name": "F5",
          "midi": 77,
          "time": 47.20000000000031,
          "velocity": 0.3937007874015748,
          "duration": 0.20000000000000284
        },
        {
          "name": "C#5",
          "midi": 73,
          "time": 47.20000000000031,
          "velocity": 0.3937007874015748,
          "duration": 0.20000000000000284
        },
        {
          "name": "F5",
          "midi": 77,
          "time": 47.40000000000031,
          "velocity": 0.3937007874015748,
          "duration": 0.20000000000000284
        },
        {
          "name": "G#5",
          "midi": 80,
          "time": 47.40000000000031,
          "velocity": 0.3937007874015748,
          "duration": 0.20000000000000284
        },
        {
          "name": "C#5",
          "midi": 73,
          "time": 47.600000000000314,
          "velocity": 0.3937007874015748,
          "duration": 0.20000000000000284
        },
        {
          "name": "F5",
          "midi": 77,
          "time": 47.600000000000314,
          "velocity": 0.3937007874015748,
          "duration": 0.20000000000000284
        },
        {
          "name": "F5",
          "midi": 77,
          "time": 47.80000000000032,
          "velocity": 0.3937007874015748,
          "duration": 0.20000000000000284
        },
        {
          "name": "G#5",
          "midi": 80,
          "time": 47.80000000000032,
          "velocity": 0.3937007874015748,
          "duration": 0.20000000000000284
        },
        {
          "name": "D#5",
          "midi": 75,
          "time": 48.00000000000032,
          "velocity": 0.3937007874015748,
          "duration": 0.6000000000000014
        },
        {
          "name": "F#5",
          "midi": 78,
          "time": 48.00000000000032,
          "velocity": 0.3937007874015748,
          "duration": 0.6000000000000014
        },
        {
          "name": "A#5",
          "midi": 82,
          "time": 48.60000000000032,
          "velocity": 0.3937007874015748,
          "duration": 0.20000000000000284
        },
        {
          "name": "F#5",
          "midi": 78,
          "time": 48.60000000000032,
          "velocity": 0.3937007874015748,
          "duration": 0.20000000000000284
        },
        {
          "name": "D#5",
          "midi": 75,
          "time": 48.800000000000324,
          "velocity": 0.3937007874015748,
          "duration": 0.7999999999999972
        },
        {
          "name": "F#5",
          "midi": 78,
          "time": 48.800000000000324,
          "velocity": 0.3937007874015748,
          "duration": 0.7999999999999972
        },
        {
          "name": "B5",
          "midi": 83,
          "time": 49.60000000000032,
          "velocity": 0.3937007874015748,
          "duration": 0.6000000000000085
        },
        {
          "name": "D#6",
          "midi": 87,
          "time": 49.60000000000032,
          "velocity": 0.3937007874015748,
          "duration": 0.6000000000000085
        },
        {
          "name": "F#5",
          "midi": 78,
          "time": 49.60000000000032,
          "velocity": 0.3937007874015748,
          "duration": 0.20000000000000284
        },
        {
          "name": "A#4",
          "midi": 70,
          "time": 49.800000000000324,
          "velocity": 0.3937007874015748,
          "duration": 0.10000000000000142
        },
        {
          "name": "F4",
          "midi": 65,
          "time": 49.900000000000325,
          "velocity": 0.3937007874015748,
          "duration": 0.10000000000000142
        },
        {
          "name": "F#4",
          "midi": 66,
          "time": 50.00000000000033,
          "velocity": 0.3937007874015748,
          "duration": 0.10000000000000142
        },
        {
          "name": "G#4",
          "midi": 68,
          "time": 50.10000000000033,
          "velocity": 0.3937007874015748,
          "duration": 0.10000000000000142
        },
        {
          "name": "F4",
          "midi": 65,
          "time": 50.20000000000033,
          "velocity": 0.3937007874015748,
          "duration": 0.10000000000000142
        },
        {
          "name": "F#4",
          "midi": 66,
          "time": 50.30000000000033,
          "velocity": 0.3937007874015748,
          "duration": 0.10000000000000142
        },
        {
          "name": "D#4",
          "midi": 63,
          "time": 50.40000000000033,
          "velocity": 0.3937007874015748,
          "duration": 0.10000000000000142
        },
        {
          "name": "F4",
          "midi": 65,
          "time": 50.500000000000334,
          "velocity": 0.3937007874015748,
          "duration": 0.10000000000000142
        },
        {
          "name": "C#4",
          "midi": 61,
          "time": 50.600000000000335,
          "velocity": 0.3937007874015748,
          "duration": 0.10000000000000142
        },
        {
          "name": "D#4",
          "midi": 63,
          "time": 50.70000000000034,
          "velocity": 0.3937007874015748,
          "duration": 0.10000000000000142
        },
        {
          "name": "A#3",
          "midi": 58,
          "time": 50.80000000000034,
          "velocity": 0.3937007874015748,
          "duration": 0.10000000000000142
        },
        {
          "name": "C#4",
          "midi": 61,
          "time": 50.90000000000034,
          "velocity": 0.3937007874015748,
          "duration": 0.10000000000000142
        },
        {
          "name": "G#3",
          "midi": 56,
          "time": 51.00000000000034,
          "velocity": 0.3937007874015748,
          "duration": 0.20000000000000284
        },
        {
          "name": "D#5",
          "midi": 75,
          "time": 51.200000000000344,
          "velocity": 0.3937007874015748,
          "duration": 0.20000000000000284
        },
        {
          "name": "F#5",
          "midi": 78,
          "time": 51.200000000000344,
          "velocity": 0.3937007874015748,
          "duration": 0.6000000000000085
        },
        {
          "name": "A#4",
          "midi": 70,
          "time": 51.40000000000035,
          "velocity": 0.3937007874015748,
          "duration": 0.10000000000000142
        },
        {
          "name": "D#5",
          "midi": 75,
          "time": 51.50000000000035,
          "velocity": 0.3937007874015748,
          "duration": 0.10000000000000142
        },
        {
          "name": "F5",
          "midi": 77,
          "time": 51.60000000000035,
          "velocity": 0.3937007874015748,
          "duration": 0.10000000000000142
        },
        {
          "name": "A#5",
          "midi": 82,
          "time": 51.70000000000035,
          "velocity": 0.3937007874015748,
          "duration": 0.10000000000000142
        },
        {
          "name": "F5",
          "midi": 77,
          "time": 51.80000000000035,
          "velocity": 0.3937007874015748,
          "duration": 0.20000000000000284
        },
        {
          "name": "F#5",
          "midi": 78,
          "time": 52.000000000000355,
          "velocity": 0.3937007874015748,
          "duration": 0.7999999999999972
        },
        {
          "name": "F#6",
          "midi": 90,
          "time": 52.80000000000035,
          "velocity": 0.3937007874015748,
          "duration": 0.10000000000000142
        },
        {
          "name": "D#6",
          "midi": 87,
          "time": 52.80000000000035,
          "velocity": 0.3937007874015748,
          "duration": 0.10000000000000142
        },
        {
          "name": "A#4",
          "midi": 70,
          "time": 52.900000000000354,
          "velocity": 0.3937007874015748,
          "duration": 0.10000000000000142
        },
        {
          "name": "F5",
          "midi": 77,
          "time": 53.000000000000355,
          "velocity": 0.3937007874015748,
          "duration": 0.10000000000000142
        },
        {
          "name": "D#5",
          "midi": 75,
          "time": 53.10000000000036,
          "velocity": 0.3937007874015748,
          "duration": 0.10000000000000142
        },
        {
          "name": "C#5",
          "midi": 73,
          "time": 53.20000000000036,
          "velocity": 0.3937007874015748,
          "duration": 0.10000000000000142
        },
        {
          "name": "A#4",
          "midi": 70,
          "time": 53.30000000000036,
          "velocity": 0.3937007874015748,
          "duration": 0.10000000000000142
        },
        {
          "name": "C#5",
          "midi": 73,
          "time": 53.40000000000036,
          "velocity": 0.3937007874015748,
          "duration": 0.10000000000000142
        },
        {
          "name": "D#5",
          "midi": 75,
          "time": 53.50000000000036,
          "velocity": 0.3937007874015748,
          "duration": 0.10000000000000142
        },
        {
          "name": "F6",
          "midi": 89,
          "time": 53.600000000000364,
          "velocity": 0.3937007874015748,
          "duration": 0.20000000000000284
        },
        {
          "name": "G#5",
          "midi": 80,
          "time": 53.600000000000364,
          "velocity": 0.3937007874015748,
          "duration": 0.20000000000000284
        },
        {
          "name": "F#6",
          "midi": 90,
          "time": 53.80000000000037,
          "velocity": 0.3937007874015748,
          "duration": 0.20000000000000284
        },
        {
          "name": "G#5",
          "midi": 80,
          "time": 53.80000000000037,
          "velocity": 0.3937007874015748,
          "duration": 0.20000000000000284
        },
        {
          "name": "A#6",
          "midi": 94,
          "time": 54.00000000000037,
          "velocity": 0.3937007874015748,
          "duration": 0.20000000000000284
        },
        {
          "name": "F6",
          "midi": 89,
          "time": 54.00000000000037,
          "velocity": 0.3937007874015748,
          "duration": 0.20000000000000284
        },
        {
          "name": "C#5",
          "midi": 73,
          "time": 54.20000000000037,
          "velocity": 0.3937007874015748,
          "duration": 0.20000000000000284
        },
        {
          "name": "F4",
          "midi": 65,
          "time": 54.20000000000037,
          "velocity": 0.3937007874015748,
          "duration": 0.20000000000000284
        },
        {
          "name": "B5",
          "midi": 83,
          "time": 54.400000000000375,
          "velocity": 0.3937007874015748,
          "duration": 0.6000000000000014
        },
        {
          "name": "D#6",
          "midi": 87,
          "time": 54.400000000000375,
          "velocity": 0.3937007874015748,
          "duration": 0.6000000000000014
        },
        {
          "name": "A#5",
          "midi": 82,
          "time": 55.00000000000038,
          "velocity": 0.3937007874015748,
          "duration": 0.20000000000000284
        },
        {
          "name": "A#6",
          "midi": 94,
          "time": 55.00000000000038,
          "velocity": 0.3937007874015748,
          "duration": 0.20000000000000284
        },
        {
          "name": "B5",
          "midi": 83,
          "time": 55.20000000000038,
          "velocity": 0.3937007874015748,
          "duration": 0.6000000000000014
        },
        {
          "name": "D#6",
          "midi": 87,
          "time": 55.20000000000038,
          "velocity": 0.3937007874015748,
          "duration": 0.6000000000000014
        },
        {
          "name": "D#5",
          "midi": 75,
          "time": 55.80000000000038,
          "velocity": 0.3937007874015748,
          "duration": 0.10000000000000142
        },
        {
          "name": "F5",
          "midi": 77,
          "time": 55.90000000000038,
          "velocity": 0.3937007874015748,
          "duration": 0.10000000000000142
        },
        {
          "name": "F#5",
          "midi": 78,
          "time": 56.000000000000384,
          "velocity": 0.3937007874015748,
          "duration": 0.10000000000000142
        },
        {
          "name": "A#4",
          "midi": 70,
          "time": 56.100000000000385,
          "velocity": 0.3937007874015748,
          "duration": 0.10000000000000142
        },
        {
          "name": "F5",
          "midi": 77,
          "time": 56.20000000000039,
          "velocity": 0.3937007874015748,
          "duration": 0.10000000000000142
        },
        {
          "name": "A#4",
          "midi": 70,
          "time": 56.30000000000039,
          "velocity": 0.3937007874015748,
          "duration": 0.10000000000000142
        },
        {
          "name": "D#5",
          "midi": 75,
          "time": 56.40000000000039,
          "velocity": 0.3937007874015748,
          "duration": 0.10000000000000142
        },
        {
          "name": "G#4",
          "midi": 68,
          "time": 56.50000000000039,
          "velocity": 0.3937007874015748,
          "duration": 0.10000000000000142
        },
        {
          "name": "C#5",
          "midi": 73,
          "time": 56.60000000000039,
          "velocity": 0.3937007874015748,
          "duration": 0.10000000000000142
        },
        {
          "name": "F4",
          "midi": 65,
          "time": 56.700000000000394,
          "velocity": 0.3937007874015748,
          "duration": 0.10000000000000142
        },
        {
          "name": "F#4",
          "midi": 66,
          "time": 56.800000000000395,
          "velocity": 0.3937007874015748,
          "duration": 0.10000000000000142
        },
        {
          "name": "G#4",
          "midi": 68,
          "time": 56.9000000000004,
          "velocity": 0.3937007874015748,
          "duration": 0.10000000000000142
        },
        {
          "name": "A#4",
          "midi": 70,
          "time": 57.0000000000004,
          "velocity": 0.3937007874015748,
          "duration": 0.10000000000000142
        },
        {
          "name": "D#4",
          "midi": 63,
          "time": 57.1000000000004,
          "velocity": 0.3937007874015748,
          "duration": 0.10000000000000142
        },
        {
          "name": "G#4",
          "midi": 68,
          "time": 57.2000000000004,
          "velocity": 0.3937007874015748,
          "duration": 0.10000000000000142
        },
        {
          "name": "A#4",
          "midi": 70,
          "time": 57.3000000000004,
          "velocity": 0.3937007874015748,
          "duration": 0.10000000000000142
        },
        {
          "name": "F4",
          "midi": 65,
          "time": 57.400000000000404,
          "velocity": 0.3937007874015748,
          "duration": 0.10000000000000142
        },
        {
          "name": "C#5",
          "midi": 73,
          "time": 57.500000000000405,
          "velocity": 0.3937007874015748,
          "duration": 0.10000000000000142
        },
        {
          "name": "F#4",
          "midi": 66,
          "time": 57.600000000000406,
          "velocity": 0.3937007874015748,
          "duration": 0.6000000000000014
        },
        {
          "name": "A#4",
          "midi": 70,
          "time": 57.600000000000406,
          "velocity": 0.3937007874015748,
          "duration": 0.6000000000000014
        },
        {
          "name": "D#5",
          "midi": 75,
          "time": 58.20000000000041,
          "velocity": 0.3937007874015748,
          "duration": 0.20000000000000284
        },
        {
          "name": "F4",
          "midi": 65,
          "time": 58.20000000000041,
          "velocity": 0.3937007874015748,
          "duration": 0.20000000000000284
        },
        {
          "name": "F#4",
          "midi": 66,
          "time": 58.40000000000041,
          "velocity": 0.3937007874015748,
          "duration": 0.7999999999999972
        },
        {
          "name": "A#4",
          "midi": 70,
          "time": 58.40000000000041,
          "velocity": 0.3937007874015748,
          "duration": 0.7999999999999972
        },
        {
          "name": "A#4",
          "midi": 70,
          "time": 59.20000000000041,
          "velocity": 0.3937007874015748,
          "duration": 0.6000000000000014
        },
        {
          "name": "F#5",
          "midi": 78,
          "time": 59.20000000000041,
          "velocity": 0.3937007874015748,
          "duration": 0.6000000000000014
        },
        {
          "name": "C#5",
          "midi": 73,
          "time": 59.80000000000041,
          "velocity": 0.3937007874015748,
          "duration": 0.10000000000000142
        },
        {
          "name": "D#5",
          "midi": 75,
          "time": 59.90000000000041,
          "velocity": 0.3937007874015748,
          "duration": 0.10000000000000142
        },
        {
          "name": "F5",
          "midi": 77,
          "time": 60.00000000000041,
          "velocity": 0.3937007874015748,
          "duration": 0.20000000000000284
        },
        {
          "name": "G#4",
          "midi": 68,
          "time": 60.00000000000041,
          "velocity": 0.3937007874015748,
          "duration": 0.20000000000000284
        },
        {
          "name": "F#5",
          "midi": 78,
          "time": 60.200000000000415,
          "velocity": 0.3937007874015748,
          "duration": 0.20000000000000284
        },
        {
          "name": "G#4",
          "midi": 68,
          "time": 60.200000000000415,
          "velocity": 0.3937007874015748,
          "duration": 0.20000000000000284
        },
        {
          "name": "C#5",
          "midi": 73,
          "time": 60.40000000000042,
          "velocity": 0.3937007874015748,
          "duration": 0.20000000000000284
        },
        {
          "name": "F4",
          "midi": 65,
          "time": 60.40000000000042,
          "velocity": 0.3937007874015748,
          "duration": 0.20000000000000284
        },
        {
          "name": "D#5",
          "midi": 75,
          "time": 60.60000000000042,
          "velocity": 0.3937007874015748,
          "duration": 0.20000000000000284
        },
        {
          "name": "F4",
          "midi": 65,
          "time": 60.60000000000042,
          "velocity": 0.3937007874015748,
          "duration": 0.20000000000000284
        },
        {
          "name": "F#4",
          "midi": 66,
          "time": 60.80000000000042,
          "velocity": 0.3937007874015748,
          "duration": 0.6000000000000014
        },
        {
          "name": "A#4",
          "midi": 70,
          "time": 60.80000000000042,
          "velocity": 0.3937007874015748,
          "duration": 0.6000000000000014
        },
        {
          "name": "D#5",
          "midi": 75,
          "time": 61.400000000000425,
          "velocity": 0.3937007874015748,
          "duration": 0.20000000000000284
        },
        {
          "name": "F4",
          "midi": 65,
          "time": 61.400000000000425,
          "velocity": 0.3937007874015748,
          "duration": 0.20000000000000284
        },
        {
          "name": "F#4",
          "midi": 66,
          "time": 61.60000000000043,
          "velocity": 0.3937007874015748,
          "duration": 0.7999999999999972
        },
        {
          "name": "A#4",
          "midi": 70,
          "time": 61.60000000000043,
          "velocity": 0.3937007874015748,
          "duration": 0.7999999999999972
        },
        {
          "name": "A#4",
          "midi": 70,
          "time": 62.400000000000425,
          "velocity": 0.3937007874015748,
          "duration": 0.7999999999999972
        },
        {
          "name": "F#5",
          "midi": 78,
          "time": 62.400000000000425,
          "velocity": 0.3937007874015748,
          "duration": 0.7999999999999972
        },
        {
          "name": "A#4",
          "midi": 70,
          "time": 63.400000000000425,
          "velocity": 0.3937007874015748,
          "duration": 0.20000000000000284
        },
        {
          "name": "C#5",
          "midi": 73,
          "time": 63.400000000000425,
          "velocity": 0.3937007874015748,
          "duration": 0.20000000000000284
        },
        {
          "name": "F#4",
          "midi": 66,
          "time": 63.60000000000043,
          "velocity": 0.3937007874015748,
          "duration": 0.20000000000000284
        },
        {
          "name": "C#4",
          "midi": 61,
          "time": 63.60000000000043,
          "velocity": 0.3937007874015748,
          "duration": 0.20000000000000284
        },
        {
          "name": "G#4",
          "midi": 68,
          "time": 63.80000000000043,
          "velocity": 0.3937007874015748,
          "duration": 0.19999999999999574
        },
        {
          "name": "F4",
          "midi": 65,
          "time": 63.80000000000043,
          "velocity": 0.3937007874015748,
          "duration": 0.19999999999999574
        },
        {
          "name": "F#4",
          "midi": 66,
          "time": 64.00000000000043,
          "velocity": 0.3937007874015748,
          "duration": 0.5999999999999943
        },
        {
          "name": "A#4",
          "midi": 70,
          "time": 64.00000000000043,
          "velocity": 0.3937007874015748,
          "duration": 0.5999999999999943
        },
        {
          "name": "D#5",
          "midi": 75,
          "time": 64.60000000000042,
          "velocity": 0.3937007874015748,
          "duration": 0.20000000000000284
        },
        {
          "name": "F4",
          "midi": 65,
          "time": 64.60000000000042,
          "velocity": 0.3937007874015748,
          "duration": 0.20000000000000284
        },
        {
          "name": "F#4",
          "midi": 66,
          "time": 64.80000000000042,
          "velocity": 0.3937007874015748,
          "duration": 0.7999999999999972
        },
        {
          "name": "A#4",
          "midi": 70,
          "time": 64.80000000000042,
          "velocity": 0.3937007874015748,
          "duration": 0.7999999999999972
        },
        {
          "name": "A#4",
          "midi": 70,
          "time": 65.60000000000042,
          "velocity": 0.3937007874015748,
          "duration": 0.5999999999999943
        },
        {
          "name": "F#5",
          "midi": 78,
          "time": 65.60000000000042,
          "velocity": 0.3937007874015748,
          "duration": 0.5999999999999943
        },
        {
          "name": "C#5",
          "midi": 73,
          "time": 66.20000000000041,
          "velocity": 0.3937007874015748,
          "duration": 0.09999999999999432
        },
        {
          "name": "D#5",
          "midi": 75,
          "time": 66.30000000000041,
          "velocity": 0.3937007874015748,
          "duration": 0.09999999999999432
        },
        {
          "name": "F5",
          "midi": 77,
          "time": 66.4000000000004,
          "velocity": 0.3937007874015748,
          "duration": 0.20000000000000284
        },
        {
          "name": "G#4",
          "midi": 68,
          "time": 66.4000000000004,
          "velocity": 0.3937007874015748,
          "duration": 0.20000000000000284
        },
        {
          "name": "F#5",
          "midi": 78,
          "time": 66.6000000000004,
          "velocity": 0.3937007874015748,
          "duration": 0.20000000000000284
        },
        {
          "name": "G#4",
          "midi": 68,
          "time": 66.6000000000004,
          "velocity": 0.3937007874015748,
          "duration": 0.20000000000000284
        },
        {
          "name": "A#5",
          "midi": 82,
          "time": 66.80000000000041,
          "velocity": 0.3937007874015748,
          "duration": 0.20000000000000284
        },
        {
          "name": "F5",
          "midi": 77,
          "time": 66.80000000000041,
          "velocity": 0.3937007874015748,
          "duration": 0.20000000000000284
        },
        {
          "name": "C#5",
          "midi": 73,
          "time": 67.00000000000041,
          "velocity": 0.3937007874015748,
          "duration": 0.20000000000000284
        },
        {
          "name": "F4",
          "midi": 65,
          "time": 67.00000000000041,
          "velocity": 0.3937007874015748,
          "duration": 0.20000000000000284
        },
        {
          "name": "D#5",
          "midi": 75,
          "time": 67.20000000000041,
          "velocity": 0.3937007874015748,
          "duration": 0.5999999999999943
        },
        {
          "name": "B4",
          "midi": 71,
          "time": 67.20000000000041,
          "velocity": 0.3937007874015748,
          "duration": 0.5999999999999943
        },
        {
          "name": "A#5",
          "midi": 82,
          "time": 67.80000000000041,
          "velocity": 0.3937007874015748,
          "duration": 0.20000000000000284
        },
        {
          "name": "A#4",
          "midi": 70,
          "time": 67.80000000000041,
          "velocity": 0.3937007874015748,
          "duration": 0.20000000000000284
        },
        {
          "name": "B4",
          "midi": 71,
          "time": 68.00000000000041,
          "velocity": 0.3937007874015748,
          "duration": 1
        },
        {
          "name": "D#5",
          "midi": 75,
          "time": 68.00000000000041,
          "velocity": 0.3937007874015748,
          "duration": 1
        },
        {
          "name": "F#4",
          "midi": 66,
          "time": 69.00000000000041,
          "velocity": 0.3937007874015748,
          "duration": 0.20000000000000284
        },
        {
          "name": "G#4",
          "midi": 68,
          "time": 69.20000000000041,
          "velocity": 0.3937007874015748,
          "duration": 0.5999999999999943
        },
        {
          "name": "C#5",
          "midi": 73,
          "time": 69.20000000000041,
          "velocity": 0.3937007874015748,
          "duration": 0.5999999999999943
        },
        {
          "name": "C#5",
          "midi": 73,
          "time": 69.80000000000041,
          "velocity": 0.3937007874015748,
          "duration": 0.20000000000000284
        },
        {
          "name": "F#5",
          "midi": 78,
          "time": 69.80000000000041,
          "velocity": 0.3937007874015748,
          "duration": 0.20000000000000284
        },
        {
          "name": "B4",
          "midi": 71,
          "time": 70.00000000000041,
          "velocity": 0.3937007874015748,
          "duration": 0.20000000000000284
        },
        {
          "name": "C#5",
          "midi": 73,
          "time": 70.20000000000041,
          "velocity": 0.3937007874015748,
          "duration": 0.20000000000000284
        },
        {
          "name": "D#5",
          "midi": 75,
          "time": 70.40000000000042,
          "velocity": 0.3937007874015748,
          "duration": 0.5999999999999943
        },
        {
          "name": "F#5",
          "midi": 78,
          "time": 70.40000000000042,
          "velocity": 0.3937007874015748,
          "duration": 0.5999999999999943
        },
        {
          "name": "A#5",
          "midi": 82,
          "time": 71.00000000000041,
          "velocity": 0.3937007874015748,
          "duration": 0.20000000000000284
        },
        {
          "name": "A#4",
          "midi": 70,
          "time": 71.00000000000041,
          "velocity": 0.3937007874015748,
          "duration": 0.20000000000000284
        },
        {
          "name": "D#5",
          "midi": 75,
          "time": 71.20000000000041,
          "velocity": 0.3937007874015748,
          "duration": 0.7999999999999972
        },
        {
          "name": "F#5",
          "midi": 78,
          "time": 71.20000000000041,
          "velocity": 0.3937007874015748,
          "duration": 0.7999999999999972
        },
        {
          "name": "F#5",
          "midi": 78,
          "time": 72.00000000000041,
          "velocity": 0.3937007874015748,
          "duration": 0.5999999999999943
        },
        {
          "name": "D#6",
          "midi": 87,
          "time": 72.00000000000041,
          "velocity": 0.3937007874015748,
          "duration": 0.5999999999999943
        },
        {
          "name": "G#5",
          "midi": 80,
          "time": 72.6000000000004,
          "velocity": 0.3937007874015748,
          "duration": 0.09999999999999432
        },
        {
          "name": "A#5",
          "midi": 82,
          "time": 72.7000000000004,
          "velocity": 0.3937007874015748,
          "duration": 0.09999999999999432
        },
        {
          "name": "F5",
          "midi": 77,
          "time": 72.8000000000004,
          "velocity": 0.3937007874015748,
          "duration": 0.20000000000000284
        },
        {
          "name": "C#6",
          "midi": 85,
          "time": 72.8000000000004,
          "velocity": 0.3937007874015748,
          "duration": 0.20000000000000284
        },
        {
          "name": "F5",
          "midi": 77,
          "time": 73.0000000000004,
          "velocity": 0.3937007874015748,
          "duration": 0.20000000000000284
        },
        {
          "name": "G#5",
          "midi": 80,
          "time": 73.0000000000004,
          "velocity": 0.3937007874015748,
          "duration": 0.20000000000000284
        },
        {
          "name": "C#5",
          "midi": 73,
          "time": 73.2000000000004,
          "velocity": 0.3937007874015748,
          "duration": 0.20000000000000284
        },
        {
          "name": "F5",
          "midi": 77,
          "time": 73.2000000000004,
          "velocity": 0.3937007874015748,
          "duration": 0.20000000000000284
        },
        {
          "name": "F5",
          "midi": 77,
          "time": 73.4000000000004,
          "velocity": 0.3937007874015748,
          "duration": 0.20000000000000284
        },
        {
          "name": "G#5",
          "midi": 80,
          "time": 73.4000000000004,
          "velocity": 0.3937007874015748,
          "duration": 0.20000000000000284
        },
        {
          "name": "D#5",
          "midi": 75,
          "time": 73.6000000000004,
          "velocity": 0.3937007874015748,
          "duration": 0.5999999999999943
        },
        {
          "name": "F#5",
          "midi": 78,
          "time": 73.6000000000004,
          "velocity": 0.3937007874015748,
          "duration": 0.5999999999999943
        },
        {
          "name": "A#5",
          "midi": 82,
          "time": 74.2000000000004,
          "velocity": 0.3937007874015748,
          "duration": 0.20000000000000284
        },
        {
          "name": "A#4",
          "midi": 70,
          "time": 74.2000000000004,
          "velocity": 0.3937007874015748,
          "duration": 0.20000000000000284
        },
        {
          "name": "D#5",
          "midi": 75,
          "time": 74.4000000000004,
          "velocity": 0.3937007874015748,
          "duration": 0.7999999999999972
        },
        {
          "name": "F#5",
          "midi": 78,
          "time": 74.4000000000004,
          "velocity": 0.3937007874015748,
          "duration": 0.7999999999999972
        },
        {
          "name": "F#5",
          "midi": 78,
          "time": 75.2000000000004,
          "velocity": 0.3937007874015748,
          "duration": 0.9000000000000057
        },
        {
          "name": "D#6",
          "midi": 87,
          "time": 75.2000000000004,
          "velocity": 0.3937007874015748,
          "duration": 0.9000000000000057
        },
        {
          "name": "G#5",
          "midi": 80,
          "time": 76.1000000000004,
          "velocity": 0.3937007874015748,
          "duration": 0.09999999999999432
        },
        {
          "name": "F#5",
          "midi": 78,
          "time": 76.2000000000004,
          "velocity": 0.3937007874015748,
          "duration": 0.09999999999999432
        },
        {
          "name": "C#5",
          "midi": 73,
          "time": 76.3000000000004,
          "velocity": 0.3937007874015748,
          "duration": 0.09999999999999432
        },
        {
          "name": "B4",
          "midi": 71,
          "time": 76.40000000000039,
          "velocity": 0.3937007874015748,
          "duration": 0.09999999999999432
        },
        {
          "name": "F#5",
          "midi": 78,
          "time": 76.50000000000038,
          "velocity": 0.3937007874015748,
          "duration": 0.09999999999999432
        },
        {
          "name": "A#4",
          "midi": 70,
          "time": 76.60000000000038,
          "velocity": 0.3937007874015748,
          "duration": 0.09999999999999432
        },
        {
          "name": "G#4",
          "midi": 68,
          "time": 76.70000000000037,
          "velocity": 0.3937007874015748,
          "duration": 0.09999999999999432
        },
        {
          "name": "D#5",
          "midi": 75,
          "time": 76.80000000000037,
          "velocity": 0.3937007874015748,
          "duration": 0.5999999999999943
        },
        {
          "name": "F#5",
          "midi": 78,
          "time": 76.80000000000037,
          "velocity": 0.3937007874015748,
          "duration": 0.5999999999999943
        },
        {
          "name": "A#5",
          "midi": 82,
          "time": 77.40000000000036,
          "velocity": 0.3937007874015748,
          "duration": 0.20000000000000284
        },
        {
          "name": "A#4",
          "midi": 70,
          "time": 77.40000000000036,
          "velocity": 0.3937007874015748,
          "duration": 0.20000000000000284
        },
        {
          "name": "D#5",
          "midi": 75,
          "time": 77.60000000000036,
          "velocity": 0.3937007874015748,
          "duration": 0.7999999999999972
        },
        {
          "name": "F#5",
          "midi": 78,
          "time": 77.60000000000036,
          "velocity": 0.3937007874015748,
          "duration": 0.7999999999999972
        },
        {
          "name": "F#5",
          "midi": 78,
          "time": 78.40000000000036,
          "velocity": 0.3937007874015748,
          "duration": 0.5999999999999943
        },
        {
          "name": "D#6",
          "midi": 87,
          "time": 78.40000000000036,
          "velocity": 0.3937007874015748,
          "duration": 0.5999999999999943
        },
        {
          "name": "C#5",
          "midi": 73,
          "time": 79.00000000000036,
          "velocity": 0.3937007874015748,
          "duration": 0.09999999999999432
        },
        {
          "name": "D#5",
          "midi": 75,
          "time": 79.10000000000035,
          "velocity": 0.3937007874015748,
          "duration": 0.09999999999999432
        },
        {
          "name": "G#4",
          "midi": 68,
          "time": 79.20000000000034,
          "velocity": 0.3937007874015748,
          "duration": 0.20000000000000284
        },
        {
          "name": "F5",
          "midi": 77,
          "time": 79.20000000000034,
          "velocity": 0.3937007874015748,
          "duration": 0.20000000000000284
        },
        {
          "name": "G#4",
          "midi": 68,
          "time": 79.40000000000035,
          "velocity": 0.3937007874015748,
          "duration": 0.20000000000000284
        },
        {
          "name": "F#5",
          "midi": 78,
          "time": 79.40000000000035,
          "velocity": 0.3937007874015748,
          "duration": 0.20000000000000284
        },
        {
          "name": "F5",
          "midi": 77,
          "time": 79.60000000000035,
          "velocity": 0.3937007874015748,
          "duration": 0.20000000000000284
        },
        {
          "name": "A#5",
          "midi": 82,
          "time": 79.60000000000035,
          "velocity": 0.3937007874015748,
          "duration": 0.20000000000000284
        },
        {
          "name": "G#4",
          "midi": 68,
          "time": 79.80000000000035,
          "velocity": 0.3937007874015748,
          "duration": 0.20000000000000284
        },
        {
          "name": "C#5",
          "midi": 73,
          "time": 79.80000000000035,
          "velocity": 0.3937007874015748,
          "duration": 0.20000000000000284
        },
        {
          "name": "B4",
          "midi": 71,
          "time": 80.00000000000036,
          "velocity": 0.3937007874015748,
          "duration": 0.5999999999999943
        },
        {
          "name": "D#5",
          "midi": 75,
          "time": 80.00000000000036,
          "velocity": 0.3937007874015748,
          "duration": 0.5999999999999943
        },
        {
          "name": "A#5",
          "midi": 82,
          "time": 80.60000000000035,
          "velocity": 0.3937007874015748,
          "duration": 0.20000000000000284
        },
        {
          "name": "A#4",
          "midi": 70,
          "time": 80.60000000000035,
          "velocity": 0.3937007874015748,
          "duration": 0.20000000000000284
        },
        {
          "name": "B4",
          "midi": 71,
          "time": 80.80000000000035,
          "velocity": 0.3937007874015748,
          "duration": 0.7999999999999972
        },
        {
          "name": "D#5",
          "midi": 75,
          "time": 80.80000000000035,
          "velocity": 0.3937007874015748,
          "duration": 0.7999999999999972
        },
        {
          "name": "A#4",
          "midi": 70,
          "time": 82.20000000000034,
          "velocity": 0.3937007874015748,
          "duration": 0.20000000000000284
        },
        {
          "name": "F#4",
          "midi": 66,
          "time": 82.40000000000035,
          "velocity": 0.3937007874015748,
          "duration": 0.7999999999999972
        },
        {
          "name": "D#4",
          "midi": 63,
          "time": 82.40000000000035,
          "velocity": 0.3937007874015748,
          "duration": 0.7999999999999972
        },
        {
          "name": "G5",
          "midi": 79,
          "time": 96.00000000000034,
          "velocity": 0.3937007874015748,
          "duration": 0.09999999999999432
        },
        {
          "name": "A5",
          "midi": 81,
          "time": 96.10000000000034,
          "velocity": 0.3937007874015748,
          "duration": 0.09999999999999432
        },
        {
          "name": "B5",
          "midi": 83,
          "time": 96.20000000000033,
          "velocity": 0.3937007874015748,
          "duration": 0.09999999999999432
        },
        {
          "name": "E6",
          "midi": 88,
          "time": 96.30000000000032,
          "velocity": 0.3937007874015748,
          "duration": 0.09999999999999432
        },
        {
          "name": "B5",
          "midi": 83,
          "time": 96.40000000000032,
          "velocity": 0.3937007874015748,
          "duration": 0.09999999999999432
        },
        {
          "name": "D6",
          "midi": 86,
          "time": 96.50000000000031,
          "velocity": 0.3937007874015748,
          "duration": 0.09999999999999432
        },
        {
          "name": "A5",
          "midi": 81,
          "time": 96.6000000000003,
          "velocity": 0.3937007874015748,
          "duration": 0.09999999999999432
        },
        {
          "name": "B5",
          "midi": 83,
          "time": 96.7000000000003,
          "velocity": 0.3937007874015748,
          "duration": 0.09999999999999432
        },
        {
          "name": "G5",
          "midi": 79,
          "time": 96.8000000000003,
          "velocity": 0.3937007874015748,
          "duration": 0.09999999999999432
        },
        {
          "name": "A5",
          "midi": 81,
          "time": 96.90000000000029,
          "velocity": 0.3937007874015748,
          "duration": 0.09999999999999432
        },
        {
          "name": "F#5",
          "midi": 78,
          "time": 97.00000000000028,
          "velocity": 0.3937007874015748,
          "duration": 0.09999999999999432
        },
        {
          "name": "G5",
          "midi": 79,
          "time": 97.10000000000028,
          "velocity": 0.3937007874015748,
          "duration": 0.09999999999999432
        },
        {
          "name": "E5",
          "midi": 76,
          "time": 97.20000000000027,
          "velocity": 0.3937007874015748,
          "duration": 0.09999999999999432
        },
        {
          "name": "F#5",
          "midi": 78,
          "time": 97.30000000000027,
          "velocity": 0.3937007874015748,
          "duration": 0.09999999999999432
        },
        {
          "name": "D5",
          "midi": 74,
          "time": 97.40000000000026,
          "velocity": 0.3937007874015748,
          "duration": 0.09999999999999432
        },
        {
          "name": "E5",
          "midi": 76,
          "time": 97.50000000000026,
          "velocity": 0.3937007874015748,
          "duration": 0.09999999999999432
        },
        {
          "name": "A4",
          "midi": 69,
          "time": 97.60000000000025,
          "velocity": 0.3937007874015748,
          "duration": 0.09999999999999432
        },
        {
          "name": "B4",
          "midi": 71,
          "time": 97.70000000000024,
          "velocity": 0.3937007874015748,
          "duration": 0.09999999999999432
        },
        {
          "name": "G4",
          "midi": 67,
          "time": 97.80000000000024,
          "velocity": 0.3937007874015748,
          "duration": 0.09999999999999432
        },
        {
          "name": "D5",
          "midi": 74,
          "time": 97.90000000000023,
          "velocity": 0.3937007874015748,
          "duration": 0.09999999999999432
        },
        {
          "name": "G5",
          "midi": 79,
          "time": 98.00000000000023,
          "velocity": 0.3937007874015748,
          "duration": 0.09999999999999432
        },
        {
          "name": "F#5",
          "midi": 78,
          "time": 98.10000000000022,
          "velocity": 0.3937007874015748,
          "duration": 0.09999999999999432
        },
        {
          "name": "D5",
          "midi": 74,
          "time": 98.20000000000022,
          "velocity": 0.3937007874015748,
          "duration": 0.09999999999999432
        },
        {
          "name": "E5",
          "midi": 76,
          "time": 98.30000000000021,
          "velocity": 0.3937007874015748,
          "duration": 0.09999999999999432
        },
        {
          "name": "B4",
          "midi": 71,
          "time": 98.4000000000002,
          "velocity": 0.3937007874015748,
          "duration": 0.09999999999999432
        },
        {
          "name": "D5",
          "midi": 74,
          "time": 98.5000000000002,
          "velocity": 0.3937007874015748,
          "duration": 0.09999999999999432
        },
        {
          "name": "E5",
          "midi": 76,
          "time": 98.6000000000002,
          "velocity": 0.3937007874015748,
          "duration": 0.09999999999999432
        },
        {
          "name": "F#5",
          "midi": 78,
          "time": 98.70000000000019,
          "velocity": 0.3937007874015748,
          "duration": 0.09999999999999432
        },
        {
          "name": "G5",
          "midi": 79,
          "time": 98.80000000000018,
          "velocity": 0.3937007874015748,
          "duration": 0.09999999999999432
        },
        {
          "name": "A5",
          "midi": 81,
          "time": 98.90000000000018,
          "velocity": 0.3937007874015748,
          "duration": 0.09999999999999432
        },
        {
          "name": "B5",
          "midi": 83,
          "time": 99.00000000000017,
          "velocity": 0.3937007874015748,
          "duration": 0.09999999999999432
        },
        {
          "name": "C6",
          "midi": 84,
          "time": 99.10000000000016,
          "velocity": 0.3937007874015748,
          "duration": 0.09999999999999432
        },
        {
          "name": "B5",
          "midi": 83,
          "time": 99.20000000000016,
          "velocity": 0.3937007874015748,
          "duration": 0.09999999999999432
        },
        {
          "name": "G5",
          "midi": 79,
          "time": 99.30000000000015,
          "velocity": 0.3937007874015748,
          "duration": 0.09999999999999432
        },
        {
          "name": "B5",
          "midi": 83,
          "time": 99.40000000000015,
          "velocity": 0.3937007874015748,
          "duration": 0.09999999999999432
        },
        {
          "name": "A5",
          "midi": 81,
          "time": 99.50000000000014,
          "velocity": 0.3937007874015748,
          "duration": 0.09999999999999432
        },
        {
          "name": "F#5",
          "midi": 78,
          "time": 99.60000000000014,
          "velocity": 0.3937007874015748,
          "duration": 0.09999999999999432
        },
        {
          "name": "A5",
          "midi": 81,
          "time": 99.70000000000013,
          "velocity": 0.3937007874015748,
          "duration": 0.09999999999999432
        },
        {
          "name": "G5",
          "midi": 79,
          "time": 99.80000000000013,
          "velocity": 0.3937007874015748,
          "duration": 0.09999999999999432
        },
        {
          "name": "E5",
          "midi": 76,
          "time": 99.90000000000012,
          "velocity": 0.3937007874015748,
          "duration": 0.09999999999999432
        },
        {
          "name": "G5",
          "midi": 79,
          "time": 100.00000000000011,
          "velocity": 0.3937007874015748,
          "duration": 0.09999999999999432
        },
        {
          "name": "F#5",
          "midi": 78,
          "time": 100.10000000000011,
          "velocity": 0.3937007874015748,
          "duration": 0.09999999999999432
        },
        {
          "name": "D5",
          "midi": 74,
          "time": 100.2000000000001,
          "velocity": 0.3937007874015748,
          "duration": 0.09999999999999432
        },
        {
          "name": "E5",
          "midi": 76,
          "time": 100.3000000000001,
          "velocity": 0.3937007874015748,
          "duration": 0.09999999999999432
        },
        {
          "name": "D5",
          "midi": 74,
          "time": 100.40000000000009,
          "velocity": 0.3937007874015748,
          "duration": 0.09999999999999432
        },
        {
          "name": "A4",
          "midi": 69,
          "time": 100.50000000000009,
          "velocity": 0.3937007874015748,
          "duration": 0.09999999999999432
        },
        {
          "name": "B4",
          "midi": 71,
          "time": 100.60000000000008,
          "velocity": 0.3937007874015748,
          "duration": 0.09999999999999432
        },
        {
          "name": "G4",
          "midi": 67,
          "time": 100.70000000000007,
          "velocity": 0.3937007874015748,
          "duration": 0.09999999999999432
        },
        {
          "name": "A4",
          "midi": 69,
          "time": 100.80000000000007,
          "velocity": 0.3937007874015748,
          "duration": 0.09999999999999432
        },
        {
          "name": "F#4",
          "midi": 66,
          "time": 100.90000000000006,
          "velocity": 0.3937007874015748,
          "duration": 0.09999999999999432
        },
        {
          "name": "G4",
          "midi": 67,
          "time": 101.00000000000006,
          "velocity": 0.3937007874015748,
          "duration": 0.09999999999999432
        },
        {
          "name": "E4",
          "midi": 64,
          "time": 101.10000000000005,
          "velocity": 0.3937007874015748,
          "duration": 0.09999999999999432
        },
        {
          "name": "F#4",
          "midi": 66,
          "time": 101.20000000000005,
          "velocity": 0.3937007874015748,
          "duration": 0.09999999999999432
        },
        {
          "name": "D4",
          "midi": 62,
          "time": 101.30000000000004,
          "velocity": 0.3937007874015748,
          "duration": 0.09999999999999432
        },
        {
          "name": "E4",
          "midi": 64,
          "time": 101.40000000000003,
          "velocity": 0.3937007874015748,
          "duration": 0.09999999999999432
        },
        {
          "name": "B3",
          "midi": 59,
          "time": 101.50000000000003,
          "velocity": 0.3937007874015748,
          "duration": 0.09999999999999432
        },
        {
          "name": "D4",
          "midi": 62,
          "time": 101.60000000000002,
          "velocity": 0.3937007874015748,
          "duration": 0.09999999999999432
        },
        {
          "name": "A3",
          "midi": 57,
          "time": 101.70000000000002,
          "velocity": 0.3937007874015748,
          "duration": 0.09999999999999432
        },
        {
          "name": "B3",
          "midi": 59,
          "time": 101.80000000000001,
          "velocity": 0.3937007874015748,
          "duration": 0.09999999999999432
        },
        {
          "name": "E4",
          "midi": 64,
          "time": 101.9,
          "velocity": 0.3937007874015748,
          "duration": 0.09999999999999432
        },
        {
          "name": "A3",
          "midi": 57,
          "time": 102,
          "velocity": 0.3937007874015748,
          "duration": 0.09999999999999432
        },
        {
          "name": "B3",
          "midi": 59,
          "time": 102.1,
          "velocity": 0.3937007874015748,
          "duration": 0.09999999999999432
        },
        {
          "name": "E4",
          "midi": 64,
          "time": 102.19999999999999,
          "velocity": 0.3937007874015748,
          "duration": 0.09999999999999432
        },
        {
          "name": "F#4",
          "midi": 66,
          "time": 102.29999999999998,
          "velocity": 0.3937007874015748,
          "duration": 0.09999999999999432
        },
        {
          "name": "B4",
          "midi": 71,
          "time": 102.39999999999998,
          "velocity": 0.3937007874015748,
          "duration": 0.09999999999999432
        },
        {
          "name": "A4",
          "midi": 69,
          "time": 102.49999999999997,
          "velocity": 0.3937007874015748,
          "duration": 0.09999999999999432
        },
        {
          "name": "B4",
          "midi": 71,
          "time": 102.59999999999997,
          "velocity": 0.3937007874015748,
          "duration": 0.09999999999999432
        },
        {
          "name": "E5",
          "midi": 76,
          "time": 102.69999999999996,
          "velocity": 0.3937007874015748,
          "duration": 0.20000000000000284
        },
        {
          "name": "B4",
          "midi": 71,
          "time": 102.89999999999996,
          "velocity": 0.3937007874015748,
          "duration": 0.09999999999999432
        },
        {
          "name": "A4",
          "midi": 69,
          "time": 102.99999999999996,
          "velocity": 0.3937007874015748,
          "duration": 0.09999999999999432
        },
        {
          "name": "B4",
          "midi": 71,
          "time": 103.09999999999995,
          "velocity": 0.3937007874015748,
          "duration": 0.09999999999999432
        },
        {
          "name": "D5",
          "midi": 74,
          "time": 103.19999999999995,
          "velocity": 0.3937007874015748,
          "duration": 0.09999999999999432
        },
        {
          "name": "E5",
          "midi": 76,
          "time": 103.29999999999994,
          "velocity": 0.3937007874015748,
          "duration": 0.09999999999999432
        },
        {
          "name": "F#5",
          "midi": 78,
          "time": 103.39999999999993,
          "velocity": 0.3937007874015748,
          "duration": 0.20000000000000284
        },
        {
          "name": "B4",
          "midi": 71,
          "time": 103.59999999999994,
          "velocity": 0.3937007874015748,
          "duration": 0.09999999999999432
        },
        {
          "name": "A4",
          "midi": 69,
          "time": 103.69999999999993,
          "velocity": 0.3937007874015748,
          "duration": 0.09999999999999432
        },
        {
          "name": "B4",
          "midi": 71,
          "time": 103.79999999999993,
          "velocity": 0.3937007874015748,
          "duration": 0.09999999999999432
        },
        {
          "name": "E5",
          "midi": 76,
          "time": 103.89999999999992,
          "velocity": 0.3937007874015748,
          "duration": 0.09999999999999432
        },
        {
          "name": "B4",
          "midi": 71,
          "time": 103.99999999999991,
          "velocity": 0.3937007874015748,
          "duration": 0.09999999999999432
        },
        {
          "name": "A4",
          "midi": 69,
          "time": 104.09999999999991,
          "velocity": 0.3937007874015748,
          "duration": 0.09999999999999432
        },
        {
          "name": "B4",
          "midi": 71,
          "time": 104.1999999999999,
          "velocity": 0.3937007874015748,
          "duration": 0.09999999999999432
        },
        {
          "name": "F#5",
          "midi": 78,
          "time": 104.2999999999999,
          "velocity": 0.3937007874015748,
          "duration": 0.09999999999999432
        },
        {
          "name": "G5",
          "midi": 79,
          "time": 104.39999999999989,
          "velocity": 0.3937007874015748,
          "duration": 0.09999999999999432
        },
        {
          "name": "B4",
          "midi": 71,
          "time": 104.49999999999989,
          "velocity": 0.3937007874015748,
          "duration": 0.09999999999999432
        },
        {
          "name": "F#5",
          "midi": 78,
          "time": 104.59999999999988,
          "velocity": 0.3937007874015748,
          "duration": 0.09999999999999432
        },
        {
          "name": "G4",
          "midi": 67,
          "time": 104.69999999999987,
          "velocity": 0.3937007874015748,
          "duration": 0.09999999999999432
        },
        {
          "name": "E5",
          "midi": 76,
          "time": 104.79999999999987,
          "velocity": 0.3937007874015748,
          "duration": 0.09999999999999432
        },
        {
          "name": "F#4",
          "midi": 66,
          "time": 104.89999999999986,
          "velocity": 0.3937007874015748,
          "duration": 0.09999999999999432
        },
        {
          "name": "D5",
          "midi": 74,
          "time": 104.99999999999986,
          "velocity": 0.3937007874015748,
          "duration": 0.09999999999999432
        },
        {
          "name": "E4",
          "midi": 64,
          "time": 105.09999999999985,
          "velocity": 0.3937007874015748,
          "duration": 0.09999999999999432
        },
        {
          "name": "B4",
          "midi": 71,
          "time": 105.19999999999985,
          "velocity": 0.3937007874015748,
          "duration": 0.09999999999999432
        },
        {
          "name": "A4",
          "midi": 69,
          "time": 105.29999999999984,
          "velocity": 0.3937007874015748,
          "duration": 0.09999999999999432
        },
        {
          "name": "G4",
          "midi": 67,
          "time": 105.39999999999984,
          "velocity": 0.3937007874015748,
          "duration": 0.09999999999999432
        },
        {
          "name": "A4",
          "midi": 69,
          "time": 105.49999999999983,
          "velocity": 0.3937007874015748,
          "duration": 0.09999999999999432
        },
        {
          "name": "D#4",
          "midi": 63,
          "time": 105.59999999999982,
          "velocity": 0.3937007874015748,
          "duration": 0.09999999999999432
        },
        {
          "name": "E4",
          "midi": 64,
          "time": 105.69999999999982,
          "velocity": 0.3937007874015748,
          "duration": 0.09999999999999432
        },
        {
          "name": "F#4",
          "midi": 66,
          "time": 105.79999999999981,
          "velocity": 0.3937007874015748,
          "duration": 0.09999999999999432
        },
        {
          "name": "B4",
          "midi": 71,
          "time": 105.8999999999998,
          "velocity": 0.3937007874015748,
          "duration": 0.09999999999999432
        },
        {
          "name": "D#5",
          "midi": 75,
          "time": 105.9999999999998,
          "velocity": 0.3937007874015748,
          "duration": 0.09999999999999432
        },
        {
          "name": "E5",
          "midi": 76,
          "time": 106.0999999999998,
          "velocity": 0.3937007874015748,
          "duration": 0.09999999999999432
        },
        {
          "name": "F#5",
          "midi": 78,
          "time": 106.19999999999979,
          "velocity": 0.3937007874015748,
          "duration": 0.09999999999999432
        },
        {
          "name": "B5",
          "midi": 83,
          "time": 106.29999999999978,
          "velocity": 0.3937007874015748,
          "duration": 0.09999999999999432
        },
        {
          "name": "F#5",
          "midi": 78,
          "time": 106.39999999999978,
          "velocity": 0.3937007874015748,
          "duration": 0.09999999999999432
        },
        {
          "name": "D#6",
          "midi": 87,
          "time": 106.49999999999977,
          "velocity": 0.3937007874015748,
          "duration": 0.09999999999999432
        },
        {
          "name": "F#5",
          "midi": 78,
          "time": 106.59999999999977,
          "velocity": 0.3937007874015748,
          "duration": 0.09999999999999432
        },
        {
          "name": "E5",
          "midi": 76,
          "time": 106.69999999999976,
          "velocity": 0.3937007874015748,
          "duration": 0.09999999999999432
        },
        {
          "name": "D#5",
          "midi": 75,
          "time": 106.79999999999976,
          "velocity": 0.3937007874015748,
          "duration": 0.09999999999999432
        },
        {
          "name": "E5",
          "midi": 76,
          "time": 106.89999999999975,
          "velocity": 0.3937007874015748,
          "duration": 0.09999999999999432
        },
        {
          "name": "F#5",
          "midi": 78,
          "time": 106.99999999999974,
          "velocity": 0.3937007874015748,
          "duration": 0.09999999999999432
        },
        {
          "name": "B4",
          "midi": 71,
          "time": 107.09999999999974,
          "velocity": 0.3937007874015748,
          "duration": 0.09999999999999432
        },
        {
          "name": "D#5",
          "midi": 75,
          "time": 107.19999999999973,
          "velocity": 0.3937007874015748,
          "duration": 0.09999999999999432
        },
        {
          "name": "E5",
          "midi": 76,
          "time": 107.29999999999973,
          "velocity": 0.3937007874015748,
          "duration": 0.09999999999999432
        },
        {
          "name": "F#5",
          "midi": 78,
          "time": 107.39999999999972,
          "velocity": 0.3937007874015748,
          "duration": 0.09999999999999432
        },
        {
          "name": "D#5",
          "midi": 75,
          "time": 107.49999999999972,
          "velocity": 0.3937007874015748,
          "duration": 0.09999999999999432
        },
        {
          "name": "B4",
          "midi": 71,
          "time": 107.59999999999971,
          "velocity": 0.3937007874015748,
          "duration": 0.09999999999999432
        },
        {
          "name": "A4",
          "midi": 69,
          "time": 107.6999999999997,
          "velocity": 0.3937007874015748,
          "duration": 0.09999999999999432
        },
        {
          "name": "G4",
          "midi": 67,
          "time": 107.7999999999997,
          "velocity": 0.3937007874015748,
          "duration": 0.09999999999999432
        },
        {
          "name": "F#4",
          "midi": 66,
          "time": 107.8999999999997,
          "velocity": 0.3937007874015748,
          "duration": 0.09999999999999432
        },
        {
          "name": "G4",
          "midi": 67,
          "time": 107.99999999999969,
          "velocity": 0.3937007874015748,
          "duration": 0.09999999999999432
        },
        {
          "name": "F#4",
          "midi": 66,
          "time": 108.09999999999968,
          "velocity": 0.3937007874015748,
          "duration": 0.09999999999999432
        },
        {
          "name": "B3",
          "midi": 59,
          "time": 108.19999999999968,
          "velocity": 0.3937007874015748,
          "duration": 0.09999999999999432
        },
        {
          "name": "E4",
          "midi": 64,
          "time": 108.29999999999967,
          "velocity": 0.3937007874015748,
          "duration": 0.09999999999999432
        },
        {
          "name": "F#4",
          "midi": 66,
          "time": 108.39999999999966,
          "velocity": 0.3937007874015748,
          "duration": 0.09999999999999432
        },
        {
          "name": "E4",
          "midi": 64,
          "time": 108.49999999999966,
          "velocity": 0.3937007874015748,
          "duration": 0.09999999999999432
        },
        {
          "name": "D#4",
          "midi": 63,
          "time": 108.59999999999965,
          "velocity": 0.3937007874015748,
          "duration": 0.09999999999999432
        },
        {
          "name": "C#4",
          "midi": 61,
          "time": 108.69999999999965,
          "velocity": 0.3937007874015748,
          "duration": 0.09999999999999432
        },
        {
          "name": "G#4",
          "midi": 68,
          "time": 108.79999999999964,
          "velocity": 0.3937007874015748,
          "duration": 0.20000000000000284
        },
        {
          "name": "E4",
          "midi": 64,
          "time": 108.79999999999964,
          "velocity": 0.3937007874015748,
          "duration": 0.20000000000000284
        },
        {
          "name": "F#4",
          "midi": 66,
          "time": 108.99999999999964,
          "velocity": 0.3937007874015748,
          "duration": 0.09999999999999432
        },
        {
          "name": "C#5",
          "midi": 73,
          "time": 109.09999999999964,
          "velocity": 0.3937007874015748,
          "duration": 0.09999999999999432
        },
        {
          "name": "E5",
          "midi": 76,
          "time": 109.19999999999963,
          "velocity": 0.3937007874015748,
          "duration": 0.09999999999999432
        },
        {
          "name": "F#5",
          "midi": 78,
          "time": 109.29999999999963,
          "velocity": 0.3937007874015748,
          "duration": 0.09999999999999432
        },
        {
          "name": "C#6",
          "midi": 85,
          "time": 109.39999999999962,
          "velocity": 0.3937007874015748,
          "duration": 0.20000000000000284
        },
        {
          "name": "G#5",
          "midi": 80,
          "time": 109.39999999999962,
          "velocity": 0.3937007874015748,
          "duration": 0.20000000000000284
        },
        {
          "name": "G#5",
          "midi": 80,
          "time": 109.59999999999962,
          "velocity": 0.3937007874015748,
          "duration": 0.5999999999999943
        },
        {
          "name": "E5",
          "midi": 76,
          "time": 109.59999999999962,
          "velocity": 0.3937007874015748,
          "duration": 0.4000000000000057
        },
        {
          "name": "B4",
          "midi": 71,
          "time": 109.99999999999963,
          "velocity": 0.3937007874015748,
          "duration": 0.09999999999999432
        },
        {
          "name": "F#5",
          "midi": 78,
          "time": 110.09999999999962,
          "velocity": 0.3937007874015748,
          "duration": 0.09999999999999432
        },
        {
          "name": "G#5",
          "midi": 80,
          "time": 110.19999999999962,
          "velocity": 0.3937007874015748,
          "duration": 0.19999999999998863
        },
        {
          "name": "F#5",
          "midi": 78,
          "time": 110.29999999999961,
          "velocity": 0.3937007874015748,
          "duration": 0.09999999999999432
        },
        {
          "name": "E6",
          "midi": 88,
          "time": 110.39999999999961,
          "velocity": 0.3937007874015748,
          "duration": 0.20000000000000284
        },
        {
          "name": "G#5",
          "midi": 80,
          "time": 110.39999999999961,
          "velocity": 0.3937007874015748,
          "duration": 0.20000000000000284
        },
        {
          "name": "B4",
          "midi": 71,
          "time": 110.59999999999961,
          "velocity": 0.3937007874015748,
          "duration": 0.09999999999999432
        },
        {
          "name": "C#5",
          "midi": 73,
          "time": 110.6999999999996,
          "velocity": 0.3937007874015748,
          "duration": 0.09999999999999432
        },
        {
          "name": "D#5",
          "midi": 75,
          "time": 110.7999999999996,
          "velocity": 0.3937007874015748,
          "duration": 0.09999999999999432
        },
        {
          "name": "E5",
          "midi": 76,
          "time": 110.8999999999996,
          "velocity": 0.3937007874015748,
          "duration": 0.09999999999999432
        },
        {
          "name": "G#5",
          "midi": 80,
          "time": 110.99999999999959,
          "velocity": 0.3937007874015748,
          "duration": 0.20000000000000284
        },
        {
          "name": "F#5",
          "midi": 78,
          "time": 110.99999999999959,
          "velocity": 0.3937007874015748,
          "duration": 0.20000000000000284
        },
        {
          "name": "D#6",
          "midi": 87,
          "time": 111.19999999999959,
          "velocity": 0.3937007874015748,
          "duration": 0.20000000000000284
        },
        {
          "name": "F#5",
          "midi": 78,
          "time": 111.19999999999959,
          "velocity": 0.3937007874015748,
          "duration": 0.20000000000000284
        },
        {
          "name": "E6",
          "midi": 88,
          "time": 111.3999999999996,
          "velocity": 0.3937007874015748,
          "duration": 0.20000000000000284
        },
        {
          "name": "F#5",
          "midi": 78,
          "time": 111.3999999999996,
          "velocity": 0.3937007874015748,
          "duration": 0.20000000000000284
        },
        {
          "name": "B5",
          "midi": 83,
          "time": 111.5999999999996,
          "velocity": 0.3937007874015748,
          "duration": 0.19999999999998863
        },
        {
          "name": "E5",
          "midi": 76,
          "time": 111.5999999999996,
          "velocity": 0.3937007874015748,
          "duration": 0.09999999999999432
        },
        {
          "name": "E5",
          "midi": 76,
          "time": 111.69999999999959,
          "velocity": 0.3937007874015748,
          "duration": 0.09999999999999432
        },
        {
          "name": "C#6",
          "midi": 85,
          "time": 111.79999999999959,
          "velocity": 0.3937007874015748,
          "duration": 0.20000000000000284
        },
        {
          "name": "F#5",
          "midi": 78,
          "time": 111.79999999999959,
          "velocity": 0.3937007874015748,
          "duration": 0.20000000000000284
        },
        {
          "name": "G#4",
          "midi": 68,
          "time": 111.99999999999959,
          "velocity": 0.3937007874015748,
          "duration": 0.20000000000000284
        },
        {
          "name": "E4",
          "midi": 64,
          "time": 111.99999999999959,
          "velocity": 0.3937007874015748,
          "duration": 0.20000000000000284
        },
        {
          "name": "F#4",
          "midi": 66,
          "time": 112.19999999999959,
          "velocity": 0.3937007874015748,
          "duration": 0.09999999999999432
        },
        {
          "name": "C#5",
          "midi": 73,
          "time": 112.29999999999959,
          "velocity": 0.3937007874015748,
          "duration": 0.09999999999999432
        },
        {
          "name": "E5",
          "midi": 76,
          "time": 112.39999999999958,
          "velocity": 0.3937007874015748,
          "duration": 0.09999999999999432
        },
        {
          "name": "F#5",
          "midi": 78,
          "time": 112.49999999999957,
          "velocity": 0.3937007874015748,
          "duration": 0.09999999999999432
        },
        {
          "name": "C#6",
          "midi": 85,
          "time": 112.59999999999957,
          "velocity": 0.3937007874015748,
          "duration": 0.20000000000000284
        },
        {
          "name": "G#5",
          "midi": 80,
          "time": 112.59999999999957,
          "velocity": 0.3937007874015748,
          "duration": 0.20000000000000284
        },
        {
          "name": "G#5",
          "midi": 80,
          "time": 112.79999999999957,
          "velocity": 0.3937007874015748,
          "duration": 0.5999999999999943
        },
        {
          "name": "E5",
          "midi": 76,
          "time": 112.79999999999957,
          "velocity": 0.3937007874015748,
          "duration": 0.4000000000000057
        },
        {
          "name": "E5",
          "midi": 76,
          "time": 113.19999999999958,
          "velocity": 0.3937007874015748,
          "duration": 0.09999999999999432
        },
        {
          "name": "F#5",
          "midi": 78,
          "time": 113.29999999999957,
          "velocity": 0.3937007874015748,
          "duration": 0.09999999999999432
        },
        {
          "name": "C#6",
          "midi": 85,
          "time": 113.39999999999957,
          "velocity": 0.3937007874015748,
          "duration": 0.19999999999998863
        },
        {
          "name": "G#5",
          "midi": 80,
          "time": 113.39999999999957,
          "velocity": 0.3937007874015748,
          "duration": 0.19999999999998863
        },
        {
          "name": "F#5",
          "midi": 78,
          "time": 113.49999999999956,
          "velocity": 0.3937007874015748,
          "duration": 0.09999999999999432
        },
        {
          "name": "A5",
          "midi": 81,
          "time": 113.59999999999955,
          "velocity": 0.3937007874015748,
          "duration": 0.09999999999999432
        },
        {
          "name": "E6",
          "midi": 88,
          "time": 113.59999999999955,
          "velocity": 0.3937007874015748,
          "duration": 0.09999999999999432
        },
        {
          "name": "D#6",
          "midi": 87,
          "time": 113.69999999999955,
          "velocity": 0.3937007874015748,
          "duration": 0.09999999999999432
        },
        {
          "name": "B5",
          "midi": 83,
          "time": 113.79999999999954,
          "velocity": 0.3937007874015748,
          "duration": 0.09999999999999432
        },
        {
          "name": "E5",
          "midi": 76,
          "time": 113.89999999999954,
          "velocity": 0.3937007874015748,
          "duration": 0.09999999999999432
        },
        {
          "name": "B5",
          "midi": 83,
          "time": 113.99999999999953,
          "velocity": 0.3937007874015748,
          "duration": 0.09999999999999432
        },
        {
          "name": "A5",
          "midi": 81,
          "time": 114.09999999999953,
          "velocity": 0.3937007874015748,
          "duration": 0.09999999999999432
        },
        {
          "name": "E5",
          "midi": 76,
          "time": 114.19999999999952,
          "velocity": 0.3937007874015748,
          "duration": 0.09999999999999432
        },
        {
          "name": "B4",
          "midi": 71,
          "time": 114.29999999999951,
          "velocity": 0.3937007874015748,
          "duration": 0.09999999999999432
        },
        {
          "name": "B5",
          "midi": 83,
          "time": 114.39999999999951,
          "velocity": 0.3937007874015748,
          "duration": 0.09999999999999432
        },
        {
          "name": "A5",
          "midi": 81,
          "time": 114.4999999999995,
          "velocity": 0.3937007874015748,
          "duration": 0.09999999999999432
        },
        {
          "name": "E5",
          "midi": 76,
          "time": 114.5999999999995,
          "velocity": 0.3937007874015748,
          "duration": 0.09999999999999432
        },
        {
          "name": "B4",
          "midi": 71,
          "time": 114.69999999999949,
          "velocity": 0.3937007874015748,
          "duration": 0.09999999999999432
        },
        {
          "name": "B4",
          "midi": 71,
          "time": 114.79999999999949,
          "velocity": 0.3937007874015748,
          "duration": 0.09999999999999432
        },
        {
          "name": "A4",
          "midi": 69,
          "time": 114.89999999999948,
          "velocity": 0.3937007874015748,
          "duration": 0.09999999999999432
        },
        {
          "name": "E4",
          "midi": 64,
          "time": 114.99999999999947,
          "velocity": 0.3937007874015748,
          "duration": 0.20000000000000284
        },
        {
          "name": "G#4",
          "midi": 68,
          "time": 115.19999999999948,
          "velocity": 0.3937007874015748,
          "duration": 0.20000000000000284
        },
        {
          "name": "E4",
          "midi": 64,
          "time": 115.19999999999948,
          "velocity": 0.3937007874015748,
          "duration": 0.20000000000000284
        },
        {
          "name": "F#4",
          "midi": 66,
          "time": 115.39999999999948,
          "velocity": 0.3937007874015748,
          "duration": 0.09999999999999432
        },
        {
          "name": "C#5",
          "midi": 73,
          "time": 115.49999999999947,
          "velocity": 0.3937007874015748,
          "duration": 0.09999999999999432
        },
        {
          "name": "E5",
          "midi": 76,
          "time": 115.59999999999947,
          "velocity": 0.3937007874015748,
          "duration": 0.09999999999999432
        },
        {
          "name": "F#5",
          "midi": 78,
          "time": 115.69999999999946,
          "velocity": 0.3937007874015748,
          "duration": 0.09999999999999432
        },
        {
          "name": "C#6",
          "midi": 85,
          "time": 115.79999999999946,
          "velocity": 0.3937007874015748,
          "duration": 0.20000000000000284
        },
        {
          "name": "G#5",
          "midi": 80,
          "time": 115.79999999999946,
          "velocity": 0.3937007874015748,
          "duration": 0.20000000000000284
        },
        {
          "name": "G#5",
          "midi": 80,
          "time": 115.99999999999946,
          "velocity": 0.3937007874015748,
          "duration": 0.5999999999999943
        },
        {
          "name": "E5",
          "midi": 76,
          "time": 115.99999999999946,
          "velocity": 0.3937007874015748,
          "duration": 0.4000000000000057
        },
        {
          "name": "B4",
          "midi": 71,
          "time": 116.39999999999947,
          "velocity": 0.3937007874015748,
          "duration": 0.09999999999999432
        },
        {
          "name": "F#5",
          "midi": 78,
          "time": 116.49999999999946,
          "velocity": 0.3937007874015748,
          "duration": 0.09999999999999432
        },
        {
          "name": "G#5",
          "midi": 80,
          "time": 116.59999999999945,
          "velocity": 0.3937007874015748,
          "duration": 0.19999999999998863
        },
        {
          "name": "F#5",
          "midi": 78,
          "time": 116.69999999999945,
          "velocity": 0.3937007874015748,
          "duration": 0.09999999999999432
        },
        {
          "name": "E6",
          "midi": 88,
          "time": 116.79999999999944,
          "velocity": 0.3937007874015748,
          "duration": 0.4000000000000057
        },
        {
          "name": "G#5",
          "midi": 80,
          "time": 116.79999999999944,
          "velocity": 0.3937007874015748,
          "duration": 0.4000000000000057
        },
        {
          "name": "E5",
          "midi": 76,
          "time": 117.19999999999945,
          "velocity": 0.3937007874015748,
          "duration": 0.20000000000000284
        },
        {
          "name": "B5",
          "midi": 83,
          "time": 117.39999999999945,
          "velocity": 0.3937007874015748,
          "duration": 0.09999999999999432
        },
        {
          "name": "G#5",
          "midi": 80,
          "time": 117.49999999999945,
          "velocity": 0.3937007874015748,
          "duration": 0.09999999999999432
        },
        {
          "name": "D#6",
          "midi": 87,
          "time": 117.59999999999944,
          "velocity": 0.3937007874015748,
          "duration": 0.20000000000000284
        },
        {
          "name": "F#5",
          "midi": 78,
          "time": 117.59999999999944,
          "velocity": 0.3937007874015748,
          "duration": 0.20000000000000284
        },
        {
          "name": "E6",
          "midi": 88,
          "time": 117.79999999999944,
          "velocity": 0.3937007874015748,
          "duration": 0.20000000000000284
        },
        {
          "name": "G#5",
          "midi": 80,
          "time": 117.79999999999944,
          "velocity": 0.3937007874015748,
          "duration": 0.20000000000000284
        },
        {
          "name": "G#6",
          "midi": 92,
          "time": 117.99999999999945,
          "velocity": 0.3937007874015748,
          "duration": 0.20000000000000284
        },
        {
          "name": "D#6",
          "midi": 87,
          "time": 117.99999999999945,
          "velocity": 0.3937007874015748,
          "duration": 0.20000000000000284
        },
        {
          "name": "B5",
          "midi": 83,
          "time": 118.19999999999945,
          "velocity": 0.3937007874015748,
          "duration": 0.20000000000000284
        },
        {
          "name": "F#5",
          "midi": 78,
          "time": 118.19999999999945,
          "velocity": 0.3937007874015748,
          "duration": 0.20000000000000284
        },
        {
          "name": "C#6",
          "midi": 85,
          "time": 118.39999999999945,
          "velocity": 0.3937007874015748,
          "duration": 0.19999999999998863
        },
        {
          "name": "A5",
          "midi": 81,
          "time": 118.39999999999945,
          "velocity": 0.3937007874015748,
          "duration": 0.09999999999999432
        },
        {
          "name": "E5",
          "midi": 76,
          "time": 118.49999999999945,
          "velocity": 0.3937007874015748,
          "duration": 0.09999999999999432
        },
        {
          "name": "B5",
          "midi": 83,
          "time": 118.59999999999944,
          "velocity": 0.3937007874015748,
          "duration": 0.20000000000000284
        },
        {
          "name": "A5",
          "midi": 81,
          "time": 118.79999999999944,
          "velocity": 0.3937007874015748,
          "duration": 0.09999999999999432
        },
        {
          "name": "C#6",
          "midi": 85,
          "time": 118.89999999999944,
          "velocity": 0.3937007874015748,
          "duration": 0.09999999999999432
        },
        {
          "name": "G#6",
          "midi": 92,
          "time": 118.99999999999943,
          "velocity": 0.3937007874015748,
          "duration": 0.20000000000000284
        },
        {
          "name": "E6",
          "midi": 88,
          "time": 118.99999999999943,
          "velocity": 0.3937007874015748,
          "duration": 0.20000000000000284
        },
        {
          "name": "C#6",
          "midi": 85,
          "time": 119.19999999999943,
          "velocity": 0.3937007874015748,
          "duration": 0.5999999999999943
        },
        {
          "name": "A5",
          "midi": 81,
          "time": 119.19999999999943,
          "velocity": 0.3937007874015748,
          "duration": 0.5999999999999943
        },
        {
          "name": "E5",
          "midi": 76,
          "time": 119.79999999999943,
          "velocity": 0.3937007874015748,
          "duration": 0.20000000000000284
        },
        {
          "name": "C#6",
          "midi": 85,
          "time": 119.99999999999943,
          "velocity": 0.3937007874015748,
          "duration": 0.20000000000000284
        },
        {
          "name": "A5",
          "midi": 81,
          "time": 119.99999999999943,
          "velocity": 0.3937007874015748,
          "duration": 0.20000000000000284
        },
        {
          "name": "B5",
          "midi": 83,
          "time": 120.19999999999943,
          "velocity": 0.3937007874015748,
          "duration": 0.20000000000000284
        },
        {
          "name": "E5",
          "midi": 76,
          "time": 120.19999999999943,
          "velocity": 0.3937007874015748,
          "duration": 0.20000000000000284
        },
        {
          "name": "F#5",
          "midi": 78,
          "time": 120.39999999999944,
          "velocity": 0.3937007874015748,
          "duration": 0.20000000000000284
        },
        {
          "name": "D#5",
          "midi": 75,
          "time": 120.39999999999944,
          "velocity": 0.3937007874015748,
          "duration": 0.20000000000000284
        },
        {
          "name": "B4",
          "midi": 71,
          "time": 120.59999999999944,
          "velocity": 0.3937007874015748,
          "duration": 0.20000000000000284
        },
        {
          "name": "G#4",
          "midi": 68,
          "time": 120.59999999999944,
          "velocity": 0.3937007874015748,
          "duration": 0.20000000000000284
        },
        {
          "name": "C#5",
          "midi": 73,
          "time": 120.79999999999944,
          "velocity": 0.3937007874015748,
          "duration": 0.20000000000000284
        },
        {
          "name": "A4",
          "midi": 69,
          "time": 120.79999999999944,
          "velocity": 0.3937007874015748,
          "duration": 0.20000000000000284
        },
        {
          "name": "E4",
          "midi": 64,
          "time": 120.99999999999945,
          "velocity": 0.3937007874015748,
          "duration": 0.20000000000000284
        },
        {
          "name": "C#4",
          "midi": 61,
          "time": 120.99999999999945,
          "velocity": 0.3937007874015748,
          "duration": 0.20000000000000284
        },
        {
          "name": "F#4",
          "midi": 66,
          "time": 121.19999999999945,
          "velocity": 0.3937007874015748,
          "duration": 0.4000000000000057
        },
        {
          "name": "D#4",
          "midi": 63,
          "time": 121.19999999999945,
          "velocity": 0.3937007874015748,
          "duration": 0.4000000000000057
        },
        {
          "name": "E5",
          "midi": 76,
          "time": 121.59999999999945,
          "velocity": 0.3937007874015748,
          "duration": 0.20000000000000284
        },
        {
          "name": "G#4",
          "midi": 68,
          "time": 121.59999999999945,
          "velocity": 0.3937007874015748,
          "duration": 0.20000000000000284
        },
        {
          "name": "E4",
          "midi": 64,
          "time": 121.79999999999946,
          "velocity": 0.3937007874015748,
          "duration": 0.09999999999999432
        },
        {
          "name": "D#5",
          "midi": 75,
          "time": 121.89999999999945,
          "velocity": 0.3937007874015748,
          "duration": 0.09999999999999432
        },
        {
          "name": "B4",
          "midi": 71,
          "time": 121.99999999999945,
          "velocity": 0.3937007874015748,
          "duration": 0.09999999999999432
        },
        {
          "name": "C#5",
          "midi": 73,
          "time": 122.09999999999944,
          "velocity": 0.3937007874015748,
          "duration": 0.09999999999999432
        },
        {
          "name": "G#5",
          "midi": 80,
          "time": 122.19999999999943,
          "velocity": 0.3937007874015748,
          "duration": 0.20000000000000284
        },
        {
          "name": "C#5",
          "midi": 73,
          "time": 122.19999999999943,
          "velocity": 0.3937007874015748,
          "duration": 0.20000000000000284
        },
        {
          "name": "E5",
          "midi": 76,
          "time": 122.39999999999944,
          "velocity": 0.3937007874015748,
          "duration": 0.4000000000000057
        },
        {
          "name": "C#5",
          "midi": 73,
          "time": 122.39999999999944,
          "velocity": 0.3937007874015748,
          "duration": 0.4000000000000057
        },
        {
          "name": "B4",
          "midi": 71,
          "time": 122.79999999999944,
          "velocity": 0.3937007874015748,
          "duration": 0.20000000000000284
        },
        {
          "name": "G#4",
          "midi": 68,
          "time": 122.79999999999944,
          "velocity": 0.3937007874015748,
          "duration": 0.20000000000000284
        },
        {
          "name": "G#5",
          "midi": 80,
          "time": 122.99999999999945,
          "velocity": 0.3937007874015748,
          "duration": 0.20000000000000284
        },
        {
          "name": "E5",
          "midi": 76,
          "time": 122.99999999999945,
          "velocity": 0.3937007874015748,
          "duration": 0.20000000000000284
        },
        {
          "name": "C#6",
          "midi": 85,
          "time": 123.19999999999945,
          "velocity": 0.3937007874015748,
          "duration": 0.20000000000000284
        },
        {
          "name": "E5",
          "midi": 76,
          "time": 123.19999999999945,
          "velocity": 0.3937007874015748,
          "duration": 0.20000000000000284
        },
        {
          "name": "G#5",
          "midi": 80,
          "time": 123.39999999999945,
          "velocity": 0.3937007874015748,
          "duration": 0.20000000000000284
        },
        {
          "name": "E5",
          "midi": 76,
          "time": 123.39999999999945,
          "velocity": 0.3937007874015748,
          "duration": 0.20000000000000284
        },
        {
          "name": "C#5",
          "midi": 73,
          "time": 123.59999999999945,
          "velocity": 0.3937007874015748,
          "duration": 0.20000000000000284
        },
        {
          "name": "G#4",
          "midi": 68,
          "time": 123.59999999999945,
          "velocity": 0.3937007874015748,
          "duration": 0.20000000000000284
        },
        {
          "name": "F#4",
          "midi": 66,
          "time": 123.79999999999946,
          "velocity": 0.3937007874015748,
          "duration": 0.09999999999999432
        },
        {
          "name": "G#4",
          "midi": 68,
          "time": 123.89999999999945,
          "velocity": 0.3937007874015748,
          "duration": 0.09999999999999432
        },
        {
          "name": "B4",
          "midi": 71,
          "time": 123.99999999999945,
          "velocity": 0.3937007874015748,
          "duration": 0.20000000000000284
        },
        {
          "name": "D#4",
          "midi": 63,
          "time": 123.99999999999945,
          "velocity": 0.3937007874015748,
          "duration": 0.20000000000000284
        },
        {
          "name": "F#4",
          "midi": 66,
          "time": 124.19999999999945,
          "velocity": 0.3937007874015748,
          "duration": 0.20000000000000284
        },
        {
          "name": "D#4",
          "midi": 63,
          "time": 124.19999999999945,
          "velocity": 0.3937007874015748,
          "duration": 0.20000000000000284
        },
        {
          "name": "D#4",
          "midi": 63,
          "time": 124.39999999999945,
          "velocity": 0.3937007874015748,
          "duration": 0.19999999999998863
        },
        {
          "name": "B3",
          "midi": 59,
          "time": 124.49999999999945,
          "velocity": 0.3937007874015748,
          "duration": 0.09999999999999432
        },
        {
          "name": "F#4",
          "midi": 66,
          "time": 124.59999999999944,
          "velocity": 0.3937007874015748,
          "duration": 0.20000000000000284
        },
        {
          "name": "D#4",
          "midi": 63,
          "time": 124.59999999999944,
          "velocity": 0.3937007874015748,
          "duration": 0.20000000000000284
        },
        {
          "name": "E5",
          "midi": 76,
          "time": 124.79999999999944,
          "velocity": 0.3937007874015748,
          "duration": 0.20000000000000284
        },
        {
          "name": "G#4",
          "midi": 68,
          "time": 124.79999999999944,
          "velocity": 0.3937007874015748,
          "duration": 0.20000000000000284
        },
        {
          "name": "E4",
          "midi": 64,
          "time": 124.99999999999945,
          "velocity": 0.3937007874015748,
          "duration": 0.09999999999999432
        },
        {
          "name": "D#5",
          "midi": 75,
          "time": 125.09999999999944,
          "velocity": 0.3937007874015748,
          "duration": 0.09999999999999432
        },
        {
          "name": "B4",
          "midi": 71,
          "time": 125.19999999999943,
          "velocity": 0.3937007874015748,
          "duration": 0.09999999999999432
        },
        {
          "name": "C#5",
          "midi": 73,
          "time": 125.29999999999943,
          "velocity": 0.3937007874015748,
          "duration": 0.09999999999999432
        },
        {
          "name": "G#5",
          "midi": 80,
          "time": 125.39999999999942,
          "velocity": 0.3937007874015748,
          "duration": 0.20000000000000284
        },
        {
          "name": "E5",
          "midi": 76,
          "time": 125.39999999999942,
          "velocity": 0.3937007874015748,
          "duration": 0.20000000000000284
        },
        {
          "name": "E5",
          "midi": 76,
          "time": 125.59999999999943,
          "velocity": 0.3937007874015748,
          "duration": 0.4000000000000057
        },
        {
          "name": "C#5",
          "midi": 73,
          "time": 125.59999999999943,
          "velocity": 0.3937007874015748,
          "duration": 0.4000000000000057
        },
        {
          "name": "B4",
          "midi": 71,
          "time": 125.99999999999943,
          "velocity": 0.3937007874015748,
          "duration": 0.20000000000000284
        },
        {
          "name": "G#4",
          "midi": 68,
          "time": 125.99999999999943,
          "velocity": 0.3937007874015748,
          "duration": 0.20000000000000284
        },
        {
          "name": "G#5",
          "midi": 80,
          "time": 126.19999999999943,
          "velocity": 0.3937007874015748,
          "duration": 0.20000000000000284
        },
        {
          "name": "E5",
          "midi": 76,
          "time": 126.19999999999943,
          "velocity": 0.3937007874015748,
          "duration": 0.20000000000000284
        },
        {
          "name": "C#6",
          "midi": 85,
          "time": 126.39999999999944,
          "velocity": 0.3937007874015748,
          "duration": 0.4000000000000057
        },
        {
          "name": "E5",
          "midi": 76,
          "time": 126.39999999999944,
          "velocity": 0.3937007874015748,
          "duration": 0.4000000000000057
        },
        {
          "name": "B5",
          "midi": 83,
          "time": 126.79999999999944,
          "velocity": 0.3937007874015748,
          "duration": 0.20000000000000284
        },
        {
          "name": "E5",
          "midi": 76,
          "time": 126.79999999999944,
          "velocity": 0.3937007874015748,
          "duration": 0.20000000000000284
        },
        {
          "name": "D#5",
          "midi": 75,
          "time": 126.99999999999945,
          "velocity": 0.3937007874015748,
          "duration": 0.20000000000000284
        },
        {
          "name": "B4",
          "midi": 71,
          "time": 126.99999999999945,
          "velocity": 0.3937007874015748,
          "duration": 0.20000000000000284
        },
        {
          "name": "G#5",
          "midi": 80,
          "time": 127.19999999999945,
          "velocity": 0.3937007874015748,
          "duration": 0.09999999999999432
        },
        {
          "name": "F#5",
          "midi": 78,
          "time": 127.29999999999944,
          "velocity": 0.3937007874015748,
          "duration": 0.09999999999999432
        },
        {
          "name": "B4",
          "midi": 71,
          "time": 127.39999999999944,
          "velocity": 0.3937007874015748,
          "duration": 0.20000000000000284
        },
        {
          "name": "G#4",
          "midi": 68,
          "time": 127.39999999999944,
          "velocity": 0.3937007874015748,
          "duration": 0.20000000000000284
        },
        {
          "name": "D#5",
          "midi": 75,
          "time": 127.59999999999944,
          "velocity": 0.3937007874015748,
          "duration": 0.09999999999999432
        },
        {
          "name": "C#5",
          "midi": 73,
          "time": 127.69999999999943,
          "velocity": 0.3937007874015748,
          "duration": 0.09999999999999432
        },
        {
          "name": "F#4",
          "midi": 66,
          "time": 127.79999999999943,
          "velocity": 0.3937007874015748,
          "duration": 0.20000000000000284
        },
        {
          "name": "D#4",
          "midi": 63,
          "time": 127.79999999999943,
          "velocity": 0.3937007874015748,
          "duration": 0.20000000000000284
        },
        {
          "name": "E5",
          "midi": 76,
          "time": 127.99999999999943,
          "velocity": 0.3937007874015748,
          "duration": 0.19999999999998863
        },
        {
          "name": "G#4",
          "midi": 68,
          "time": 127.99999999999943,
          "velocity": 0.3937007874015748,
          "duration": 0.19999999999998863
        },
        {
          "name": "E4",
          "midi": 64,
          "time": 128.19999999999942,
          "velocity": 0.3937007874015748,
          "duration": 0.09999999999999432
        },
        {
          "name": "D#5",
          "midi": 75,
          "time": 128.29999999999941,
          "velocity": 0.3937007874015748,
          "duration": 0.09999999999999432
        },
        {
          "name": "B4",
          "midi": 71,
          "time": 128.3999999999994,
          "velocity": 0.3937007874015748,
          "duration": 0.09999999999999432
        },
        {
          "name": "C#5",
          "midi": 73,
          "time": 128.4999999999994,
          "velocity": 0.3937007874015748,
          "duration": 0.09999999999999432
        },
        {
          "name": "G#5",
          "midi": 80,
          "time": 128.5999999999994,
          "velocity": 0.3937007874015748,
          "duration": 0.19999999999998863
        },
        {
          "name": "E5",
          "midi": 76,
          "time": 128.5999999999994,
          "velocity": 0.3937007874015748,
          "duration": 0.19999999999998863
        },
        {
          "name": "E5",
          "midi": 76,
          "time": 128.7999999999994,
          "velocity": 0.3937007874015748,
          "duration": 0.4000000000000057
        },
        {
          "name": "C#5",
          "midi": 73,
          "time": 128.7999999999994,
          "velocity": 0.3937007874015748,
          "duration": 0.4000000000000057
        },
        {
          "name": "B4",
          "midi": 71,
          "time": 129.1999999999994,
          "velocity": 0.3937007874015748,
          "duration": 0.19999999999998863
        },
        {
          "name": "G#4",
          "midi": 68,
          "time": 129.1999999999994,
          "velocity": 0.3937007874015748,
          "duration": 0.19999999999998863
        },
        {
          "name": "G#5",
          "midi": 80,
          "time": 129.39999999999938,
          "velocity": 0.3937007874015748,
          "duration": 0.19999999999998863
        },
        {
          "name": "E5",
          "midi": 76,
          "time": 129.39999999999938,
          "velocity": 0.3937007874015748,
          "duration": 0.19999999999998863
        },
        {
          "name": "C#6",
          "midi": 85,
          "time": 129.59999999999937,
          "velocity": 0.3937007874015748,
          "duration": 0.19999999999998863
        },
        {
          "name": "E5",
          "midi": 76,
          "time": 129.59999999999937,
          "velocity": 0.3937007874015748,
          "duration": 0.19999999999998863
        },
        {
          "name": "G#5",
          "midi": 80,
          "time": 129.79999999999936,
          "velocity": 0.3937007874015748,
          "duration": 0.19999999999998863
        },
        {
          "name": "E5",
          "midi": 76,
          "time": 129.79999999999936,
          "velocity": 0.3937007874015748,
          "duration": 0.19999999999998863
        },
        {
          "name": "D#5",
          "midi": 75,
          "time": 129.99999999999935,
          "velocity": 0.3937007874015748,
          "duration": 0.19999999999998863
        },
        {
          "name": "B4",
          "midi": 71,
          "time": 129.99999999999935,
          "velocity": 0.3937007874015748,
          "duration": 0.19999999999998863
        },
        {
          "name": "B5",
          "midi": 83,
          "time": 130.19999999999933,
          "velocity": 0.3937007874015748,
          "duration": 0.09999999999999432
        },
        {
          "name": "C#6",
          "midi": 85,
          "time": 130.29999999999933,
          "velocity": 0.3937007874015748,
          "duration": 0.09999999999999432
        },
        {
          "name": "D#6",
          "midi": 87,
          "time": 130.39999999999932,
          "velocity": 0.3937007874015748,
          "duration": 0.19999999999998863
        },
        {
          "name": "F#5",
          "midi": 78,
          "time": 130.39999999999932,
          "velocity": 0.3937007874015748,
          "duration": 0.19999999999998863
        },
        {
          "name": "E6",
          "midi": 88,
          "time": 130.5999999999993,
          "velocity": 0.3937007874015748,
          "duration": 0.19999999999998863
        },
        {
          "name": "F#5",
          "midi": 78,
          "time": 130.5999999999993,
          "velocity": 0.3937007874015748,
          "duration": 0.19999999999998863
        },
        {
          "name": "G#6",
          "midi": 92,
          "time": 130.7999999999993,
          "velocity": 0.3937007874015748,
          "duration": 0.09999999999999432
        },
        {
          "name": "E6",
          "midi": 88,
          "time": 130.7999999999993,
          "velocity": 0.3937007874015748,
          "duration": 0.09999999999999432
        },
        {
          "name": "B5",
          "midi": 83,
          "time": 130.8999999999993,
          "velocity": 0.3937007874015748,
          "duration": 0.09999999999999432
        },
        {
          "name": "D#6",
          "midi": 87,
          "time": 130.9999999999993,
          "velocity": 0.3937007874015748,
          "duration": 0.19999999999998863
        },
        {
          "name": "B5",
          "midi": 83,
          "time": 130.9999999999993,
          "velocity": 0.3937007874015748,
          "duration": 0.19999999999998863
        },
        {
          "name": "E6",
          "midi": 88,
          "time": 131.19999999999928,
          "velocity": 0.3937007874015748,
          "duration": 0.09999999999999432
        },
        {
          "name": "C#6",
          "midi": 85,
          "time": 131.19999999999928,
          "velocity": 0.3937007874015748,
          "duration": 0.09999999999999432
        },
        {
          "name": "E4",
          "midi": 64,
          "time": 131.29999999999927,
          "velocity": 0.3937007874015748,
          "duration": 0.09999999999999432
        },
        {
          "name": "B5",
          "midi": 83,
          "time": 131.39999999999927,
          "velocity": 0.3937007874015748,
          "duration": 0.19999999999998863
        },
        {
          "name": "E5",
          "midi": 76,
          "time": 131.39999999999927,
          "velocity": 0.3937007874015748,
          "duration": 0.19999999999998863
        },
        {
          "name": "A5",
          "midi": 81,
          "time": 131.59999999999926,
          "velocity": 0.3937007874015748,
          "duration": 0.19999999999998863
        },
        {
          "name": "E5",
          "midi": 76,
          "time": 131.59999999999926,
          "velocity": 0.3937007874015748,
          "duration": 0.19999999999998863
        },
        {
          "name": "G#6",
          "midi": 92,
          "time": 131.79999999999924,
          "velocity": 0.3937007874015748,
          "duration": 0.19999999999998863
        },
        {
          "name": "E6",
          "midi": 88,
          "time": 131.79999999999924,
          "velocity": 0.3937007874015748,
          "duration": 0.19999999999998863
        },
        {
          "name": "C#6",
          "midi": 85,
          "time": 131.99999999999923,
          "velocity": 0.3937007874015748,
          "duration": 0.19999999999998863
        },
        {
          "name": "E6",
          "midi": 88,
          "time": 131.99999999999923,
          "velocity": 0.3937007874015748,
          "duration": 0.19999999999998863
        },
        {
          "name": "G#5",
          "midi": 80,
          "time": 132.19999999999922,
          "velocity": 0.3937007874015748,
          "duration": 0.19999999999998863
        },
        {
          "name": "E5",
          "midi": 76,
          "time": 132.19999999999922,
          "velocity": 0.3937007874015748,
          "duration": 0.19999999999998863
        },
        {
          "name": "C#6",
          "midi": 85,
          "time": 132.3999999999992,
          "velocity": 0.3937007874015748,
          "duration": 0.09999999999999432
        },
        {
          "name": "B5",
          "midi": 83,
          "time": 132.4999999999992,
          "velocity": 0.3937007874015748,
          "duration": 0.09999999999999432
        },
        {
          "name": "E5",
          "midi": 76,
          "time": 132.5999999999992,
          "velocity": 0.3937007874015748,
          "duration": 0.19999999999998863
        },
        {
          "name": "C#5",
          "midi": 73,
          "time": 132.5999999999992,
          "velocity": 0.3937007874015748,
          "duration": 0.19999999999998863
        },
        {
          "name": "E5",
          "midi": 76,
          "time": 132.7999999999992,
          "velocity": 0.3937007874015748,
          "duration": 0.09999999999999432
        },
        {
          "name": "B4",
          "midi": 71,
          "time": 132.89999999999918,
          "velocity": 0.3937007874015748,
          "duration": 0.09999999999999432
        },
        {
          "name": "A4",
          "midi": 69,
          "time": 132.99999999999918,
          "velocity": 0.3937007874015748,
          "duration": 0.09999999999999432
        },
        {
          "name": "C#5",
          "midi": 73,
          "time": 133.19999999999916,
          "velocity": 0.3937007874015748,
          "duration": 0.09999999999999432
        },
        {
          "name": "B4",
          "midi": 71,
          "time": 133.29999999999916,
          "velocity": 0.3937007874015748,
          "duration": 0.09999999999999432
        },
        {
          "name": "E4",
          "midi": 64,
          "time": 133.39999999999915,
          "velocity": 0.3937007874015748,
          "duration": 0.09999999999999432
        },
        {
          "name": "C#5",
          "midi": 73,
          "time": 133.59999999999914,
          "velocity": 0.3937007874015748,
          "duration": 0.09999999999999432
        },
        {
          "name": "B4",
          "midi": 71,
          "time": 133.69999999999914,
          "velocity": 0.3937007874015748,
          "duration": 0.09999999999999432
        },
        {
          "name": "E4",
          "midi": 64,
          "time": 133.79999999999913,
          "velocity": 0.3937007874015748,
          "duration": 0.09999999999999432
        },
        {
          "name": "F#4",
          "midi": 66,
          "time": 133.99999999999912,
          "velocity": 0.3937007874015748,
          "duration": 0.09999999999999432
        },
        {
          "name": "C#4",
          "midi": 61,
          "time": 134.0999999999991,
          "velocity": 0.3937007874015748,
          "duration": 0.09999999999999432
        },
        {
          "name": "B3",
          "midi": 59,
          "time": 134.1999999999991,
          "velocity": 0.3937007874015748,
          "duration": 0.09999999999999432
        },
        {
          "name": "A4",
          "midi": 69,
          "time": 134.3999999999991,
          "velocity": 0.3937007874015748,
          "duration": 0.5999999999999943
        },
        {
          "name": "F4",
          "midi": 65,
          "time": 134.3999999999991,
          "velocity": 0.3937007874015748,
          "duration": 0.5999999999999943
        },
        {
          "name": "D5",
          "midi": 74,
          "time": 134.9999999999991,
          "velocity": 0.3937007874015748,
          "duration": 0.19999999999998863
        },
        {
          "name": "E4",
          "midi": 64,
          "time": 134.9999999999991,
          "velocity": 0.3937007874015748,
          "duration": 0.19999999999998863
        },
        {
          "name": "A4",
          "midi": 69,
          "time": 135.19999999999908,
          "velocity": 0.3937007874015748,
          "duration": 0.8000000000000114
        },
        {
          "name": "F4",
          "midi": 65,
          "time": 135.19999999999908,
          "velocity": 0.3937007874015748,
          "duration": 0.8000000000000114
        },
        {
          "name": "F5",
          "midi": 77,
          "time": 135.9999999999991,
          "velocity": 0.3937007874015748,
          "duration": 0.5999999999999943
        },
        {
          "name": "A4",
          "midi": 69,
          "time": 135.9999999999991,
          "velocity": 0.3937007874015748,
          "duration": 0.5999999999999943
        },
        {
          "name": "C5",
          "midi": 72,
          "time": 136.59999999999908,
          "velocity": 0.3937007874015748,
          "duration": 0.09999999999999432
        },
        {
          "name": "D5",
          "midi": 74,
          "time": 136.69999999999908,
          "velocity": 0.3937007874015748,
          "duration": 0.09999999999999432
        },
        {
          "name": "E5",
          "midi": 76,
          "time": 136.79999999999907,
          "velocity": 0.3937007874015748,
          "duration": 0.19999999999998863
        },
        {
          "name": "G4",
          "midi": 67,
          "time": 136.79999999999907,
          "velocity": 0.3937007874015748,
          "duration": 0.19999999999998863
        },
        {
          "name": "F5",
          "midi": 77,
          "time": 136.99999999999906,
          "velocity": 0.3937007874015748,
          "duration": 0.19999999999998863
        },
        {
          "name": "G4",
          "midi": 67,
          "time": 136.99999999999906,
          "velocity": 0.3937007874015748,
          "duration": 0.19999999999998863
        },
        {
          "name": "C5",
          "midi": 72,
          "time": 137.19999999999905,
          "velocity": 0.3937007874015748,
          "duration": 0.19999999999998863
        },
        {
          "name": "E4",
          "midi": 64,
          "time": 137.19999999999905,
          "velocity": 0.3937007874015748,
          "duration": 0.19999999999998863
        },
        {
          "name": "E5",
          "midi": 76,
          "time": 137.39999999999904,
          "velocity": 0.3937007874015748,
          "duration": 0.19999999999998863
        },
        {
          "name": "G4",
          "midi": 67,
          "time": 137.39999999999904,
          "velocity": 0.3937007874015748,
          "duration": 0.19999999999998863
        },
        {
          "name": "A4",
          "midi": 69,
          "time": 137.59999999999903,
          "velocity": 0.3937007874015748,
          "duration": 0.5999999999999943
        },
        {
          "name": "F4",
          "midi": 65,
          "time": 137.59999999999903,
          "velocity": 0.3937007874015748,
          "duration": 0.5999999999999943
        },
        {
          "name": "D5",
          "midi": 74,
          "time": 138.19999999999902,
          "velocity": 0.3937007874015748,
          "duration": 0.19999999999998863
        },
        {
          "name": "A4",
          "midi": 69,
          "time": 138.19999999999902,
          "velocity": 0.3937007874015748,
          "duration": 0.19999999999998863
        },
        {
          "name": "A4",
          "midi": 69,
          "time": 138.399999999999,
          "velocity": 0.3937007874015748,
          "duration": 0.8000000000000114
        },
        {
          "name": "F4",
          "midi": 65,
          "time": 138.399999999999,
          "velocity": 0.3937007874015748,
          "duration": 0.8000000000000114
        },
        {
          "name": "F5",
          "midi": 77,
          "time": 139.19999999999902,
          "velocity": 0.3937007874015748,
          "duration": 0.8000000000000114
        },
        {
          "name": "A4",
          "midi": 69,
          "time": 139.19999999999902,
          "velocity": 0.3937007874015748,
          "duration": 1
        },
        {
          "name": "C5",
          "midi": 72,
          "time": 140.19999999999902,
          "velocity": 0.3937007874015748,
          "duration": 0.19999999999998863
        },
        {
          "name": "G4",
          "midi": 67,
          "time": 140.19999999999902,
          "velocity": 0.3937007874015748,
          "duration": 0.19999999999998863
        },
        {
          "name": "F4",
          "midi": 65,
          "time": 140.399999999999,
          "velocity": 0.3937007874015748,
          "duration": 0.19999999999998863
        },
        {
          "name": "C4",
          "midi": 60,
          "time": 140.399999999999,
          "velocity": 0.3937007874015748,
          "duration": 0.19999999999998863
        },
        {
          "name": "G4",
          "midi": 67,
          "time": 140.599999999999,
          "velocity": 0.3937007874015748,
          "duration": 0.19999999999998863
        },
        {
          "name": "D4",
          "midi": 62,
          "time": 140.599999999999,
          "velocity": 0.3937007874015748,
          "duration": 0.19999999999998863
        },
        {
          "name": "A4",
          "midi": 69,
          "time": 140.799999999999,
          "velocity": 0.3937007874015748,
          "duration": 0.5999999999999943
        },
        {
          "name": "F4",
          "midi": 65,
          "time": 140.799999999999,
          "velocity": 0.3937007874015748,
          "duration": 0.5999999999999943
        },
        {
          "name": "D5",
          "midi": 74,
          "time": 141.39999999999898,
          "velocity": 0.3937007874015748,
          "duration": 0.19999999999998863
        },
        {
          "name": "E4",
          "midi": 64,
          "time": 141.39999999999898,
          "velocity": 0.3937007874015748,
          "duration": 0.19999999999998863
        },
        {
          "name": "A4",
          "midi": 69,
          "time": 141.59999999999897,
          "velocity": 0.3937007874015748,
          "duration": 0.8000000000000114
        },
        {
          "name": "F4",
          "midi": 65,
          "time": 141.59999999999897,
          "velocity": 0.3937007874015748,
          "duration": 0.8000000000000114
        },
        {
          "name": "F5",
          "midi": 77,
          "time": 142.39999999999898,
          "velocity": 0.3937007874015748,
          "duration": 0.5999999999999943
        },
        {
          "name": "A4",
          "midi": 69,
          "time": 142.39999999999898,
          "velocity": 0.3937007874015748,
          "duration": 0.5999999999999943
        },
        {
          "name": "C5",
          "midi": 72,
          "time": 142.99999999999898,
          "velocity": 0.3937007874015748,
          "duration": 0.09999999999999432
        },
        {
          "name": "D5",
          "midi": 74,
          "time": 143.09999999999897,
          "velocity": 0.3937007874015748,
          "duration": 0.09999999999999432
        },
        {
          "name": "E5",
          "midi": 76,
          "time": 143.19999999999897,
          "velocity": 0.3937007874015748,
          "duration": 0.19999999999998863
        },
        {
          "name": "G4",
          "midi": 67,
          "time": 143.19999999999897,
          "velocity": 0.3937007874015748,
          "duration": 0.19999999999998863
        },
        {
          "name": "F5",
          "midi": 77,
          "time": 143.39999999999895,
          "velocity": 0.3937007874015748,
          "duration": 0.19999999999998863
        },
        {
          "name": "G4",
          "midi": 67,
          "time": 143.39999999999895,
          "velocity": 0.3937007874015748,
          "duration": 0.19999999999998863
        },
        {
          "name": "C5",
          "midi": 72,
          "time": 143.59999999999894,
          "velocity": 0.3937007874015748,
          "duration": 0.19999999999998863
        },
        {
          "name": "E4",
          "midi": 64,
          "time": 143.59999999999894,
          "velocity": 0.3937007874015748,
          "duration": 0.19999999999998863
        },
        {
          "name": "E5",
          "midi": 76,
          "time": 143.79999999999893,
          "velocity": 0.3937007874015748,
          "duration": 0.19999999999998863
        },
        {
          "name": "G4",
          "midi": 67,
          "time": 143.79999999999893,
          "velocity": 0.3937007874015748,
          "duration": 0.19999999999998863
        },
        {
          "name": "D5",
          "midi": 74,
          "time": 143.99999999999892,
          "velocity": 0.3937007874015748,
          "duration": 0.5999999999999943
        },
        {
          "name": "A#4",
          "midi": 70,
          "time": 143.99999999999892,
          "velocity": 0.3937007874015748,
          "duration": 0.5999999999999943
        },
        {
          "name": "A5",
          "midi": 81,
          "time": 144.59999999999891,
          "velocity": 0.3937007874015748,
          "duration": 0.19999999999998863
        },
        {
          "name": "D5",
          "midi": 74,
          "time": 144.59999999999891,
          "velocity": 0.3937007874015748,
          "duration": 0.19999999999998863
        },
        {
          "name": "D5",
          "midi": 74,
          "time": 144.7999999999989,
          "velocity": 0.3937007874015748,
          "duration": 1
        },
        {
          "name": "A#4",
          "midi": 70,
          "time": 144.7999999999989,
          "velocity": 0.3937007874015748,
          "duration": 1
        },
        {
          "name": "F4",
          "midi": 65,
          "time": 145.7999999999989,
          "velocity": 0.3937007874015748,
          "duration": 0.19999999999998863
        },
        {
          "name": "D4",
          "midi": 62,
          "time": 145.7999999999989,
          "velocity": 0.3937007874015748,
          "duration": 0.19999999999998863
        },
        {
          "name": "C5",
          "midi": 72,
          "time": 145.9999999999989,
          "velocity": 0.3937007874015748,
          "duration": 0.5999999999999943
        },
        {
          "name": "G4",
          "midi": 67,
          "time": 145.9999999999989,
          "velocity": 0.3937007874015748,
          "duration": 0.5999999999999943
        },
        {
          "name": "F5",
          "midi": 77,
          "time": 146.5999999999989,
          "velocity": 0.3937007874015748,
          "duration": 0.19999999999998863
        },
        {
          "name": "C5",
          "midi": 72,
          "time": 146.5999999999989,
          "velocity": 0.3937007874015748,
          "duration": 0.19999999999998863
        },
        {
          "name": "A#4",
          "midi": 70,
          "time": 146.79999999999887,
          "velocity": 0.3937007874015748,
          "duration": 0.19999999999998863
        },
        {
          "name": "F4",
          "midi": 65,
          "time": 146.79999999999887,
          "velocity": 0.3937007874015748,
          "duration": 0.19999999999998863
        },
        {
          "name": "C5",
          "midi": 72,
          "time": 146.99999999999886,
          "velocity": 0.3937007874015748,
          "duration": 0.19999999999998863
        },
        {
          "name": "G4",
          "midi": 67,
          "time": 146.99999999999886,
          "velocity": 0.3937007874015748,
          "duration": 0.19999999999998863
        },
        {
          "name": "F5",
          "midi": 77,
          "time": 147.19999999999885,
          "velocity": 0.3937007874015748,
          "duration": 0.5999999999999943
        },
        {
          "name": "F4",
          "midi": 65,
          "time": 147.19999999999885,
          "velocity": 0.3937007874015748,
          "duration": 0.5999999999999943
        },
        {
          "name": "D5",
          "midi": 74,
          "time": 147.19999999999885,
          "velocity": 0.3937007874015748,
          "duration": 0.5999999999999943
        },
        {
          "name": "A5",
          "midi": 81,
          "time": 147.79999999999885,
          "velocity": 0.3937007874015748,
          "duration": 0.19999999999998863
        },
        {
          "name": "A4",
          "midi": 69,
          "time": 147.79999999999885,
          "velocity": 0.3937007874015748,
          "duration": 0.19999999999998863
        },
        {
          "name": "F5",
          "midi": 77,
          "time": 147.79999999999885,
          "velocity": 0.3937007874015748,
          "duration": 0.19999999999998863
        },
        {
          "name": "F5",
          "midi": 77,
          "time": 147.99999999999883,
          "velocity": 0.3937007874015748,
          "duration": 0.8000000000000114
        },
        {
          "name": "F4",
          "midi": 65,
          "time": 147.99999999999883,
          "velocity": 0.3937007874015748,
          "duration": 0.8000000000000114
        },
        {
          "name": "D5",
          "midi": 74,
          "time": 147.99999999999883,
          "velocity": 0.3937007874015748,
          "duration": 0.8000000000000114
        },
        {
          "name": "D6",
          "midi": 86,
          "time": 148.79999999999885,
          "velocity": 0.3937007874015748,
          "duration": 0.5999999999999943
        },
        {
          "name": "F5",
          "midi": 77,
          "time": 148.79999999999885,
          "velocity": 0.3937007874015748,
          "duration": 0.5999999999999943
        },
        {
          "name": "G5",
          "midi": 79,
          "time": 149.39999999999884,
          "velocity": 0.3937007874015748,
          "duration": 0.09999999999999432
        },
        {
          "name": "A5",
          "midi": 81,
          "time": 149.49999999999883,
          "velocity": 0.3937007874015748,
          "duration": 0.09999999999999432
        },
        {
          "name": "C6",
          "midi": 84,
          "time": 149.59999999999883,
          "velocity": 0.3937007874015748,
          "duration": 0.19999999999998863
        },
        {
          "name": "E5",
          "midi": 76,
          "time": 149.59999999999883,
          "velocity": 0.3937007874015748,
          "duration": 0.19999999999998863
        },
        {
          "name": "G5",
          "midi": 79,
          "time": 149.79999999999882,
          "velocity": 0.3937007874015748,
          "duration": 0.19999999999998863
        },
        {
          "name": "E5",
          "midi": 76,
          "time": 149.79999999999882,
          "velocity": 0.3937007874015748,
          "duration": 0.19999999999998863
        },
        {
          "name": "E5",
          "midi": 76,
          "time": 149.9999999999988,
          "velocity": 0.3937007874015748,
          "duration": 0.19999999999998863
        },
        {
          "name": "C5",
          "midi": 72,
          "time": 149.9999999999988,
          "velocity": 0.3937007874015748,
          "duration": 0.19999999999998863
        },
        {
          "name": "G5",
          "midi": 79,
          "time": 150.1999999999988,
          "velocity": 0.3937007874015748,
          "duration": 0.19999999999998863
        },
        {
          "name": "E5",
          "midi": 76,
          "time": 150.1999999999988,
          "velocity": 0.3937007874015748,
          "duration": 0.19999999999998863
        },
        {
          "name": "F5",
          "midi": 77,
          "time": 150.39999999999878,
          "velocity": 0.3937007874015748,
          "duration": 0.5999999999999943
        },
        {
          "name": "F4",
          "midi": 65,
          "time": 150.39999999999878,
          "velocity": 0.3937007874015748,
          "duration": 0.5999999999999943
        },
        {
          "name": "D5",
          "midi": 74,
          "time": 150.39999999999878,
          "velocity": 0.3937007874015748,
          "duration": 0.5999999999999943
        },
        {
          "name": "A5",
          "midi": 81,
          "time": 150.99999999999878,
          "velocity": 0.3937007874015748,
          "duration": 0.19999999999998863
        },
        {
          "name": "A4",
          "midi": 69,
          "time": 150.99999999999878,
          "velocity": 0.3937007874015748,
          "duration": 0.19999999999998863
        },
        {
          "name": "F5",
          "midi": 77,
          "time": 150.99999999999878,
          "velocity": 0.3937007874015748,
          "duration": 0.19999999999998863
        },
        {
          "name": "F5",
          "midi": 77,
          "time": 151.19999999999877,
          "velocity": 0.3937007874015748,
          "duration": 0.8000000000000114
        },
        {
          "name": "F4",
          "midi": 65,
          "time": 151.19999999999877,
          "velocity": 0.3937007874015748,
          "duration": 0.8000000000000114
        },
        {
          "name": "D5",
          "midi": 74,
          "time": 151.19999999999877,
          "velocity": 0.3937007874015748,
          "duration": 0.8000000000000114
        },
        {
          "name": "D6",
          "midi": 86,
          "time": 151.99999999999878,
          "velocity": 0.3937007874015748,
          "duration": 0.8000000000000114
        },
        {
          "name": "F5",
          "midi": 77,
          "time": 151.99999999999878,
          "velocity": 0.3937007874015748,
          "duration": 0.8000000000000114
        },
        {
          "name": "G5",
          "midi": 79,
          "time": 152.89999999999878,
          "velocity": 0.3937007874015748,
          "duration": 0.09999999999999432
        },
        {
          "name": "F5",
          "midi": 77,
          "time": 152.99999999999878,
          "velocity": 0.3937007874015748,
          "duration": 0.09999999999999432
        },
        {
          "name": "C5",
          "midi": 72,
          "time": 153.09999999999877,
          "velocity": 0.3937007874015748,
          "duration": 0.09999999999999432
        },
        {
          "name": "A#4",
          "midi": 70,
          "time": 153.19999999999877,
          "velocity": 0.3937007874015748,
          "duration": 0.09999999999999432
        },
        {
          "name": "F5",
          "midi": 77,
          "time": 153.29999999999876,
          "velocity": 0.3937007874015748,
          "duration": 0.09999999999999432
        },
        {
          "name": "A4",
          "midi": 69,
          "time": 153.39999999999876,
          "velocity": 0.3937007874015748,
          "duration": 0.09999999999999432
        },
        {
          "name": "C5",
          "midi": 72,
          "time": 153.49999999999875,
          "velocity": 0.3937007874015748,
          "duration": 0.09999999999999432
        },
        {
          "name": "F5",
          "midi": 77,
          "time": 153.59999999999874,
          "velocity": 0.3937007874015748,
          "duration": 0.5999999999999943
        },
        {
          "name": "F4",
          "midi": 65,
          "time": 153.59999999999874,
          "velocity": 0.3937007874015748,
          "duration": 0.5999999999999943
        },
        {
          "name": "D5",
          "midi": 74,
          "time": 153.59999999999874,
          "velocity": 0.3937007874015748,
          "duration": 0.5999999999999943
        },
        {
          "name": "A5",
          "midi": 81,
          "time": 154.19999999999874,
          "velocity": 0.3937007874015748,
          "duration": 0.19999999999998863
        },
        {
          "name": "A4",
          "midi": 69,
          "time": 154.19999999999874,
          "velocity": 0.3937007874015748,
          "duration": 0.19999999999998863
        },
        {
          "name": "F5",
          "midi": 77,
          "time": 154.19999999999874,
          "velocity": 0.3937007874015748,
          "duration": 0.19999999999998863
        },
        {
          "name": "F5",
          "midi": 77,
          "time": 154.39999999999873,
          "velocity": 0.3937007874015748,
          "duration": 0.8000000000000114
        },
        {
          "name": "F4",
          "midi": 65,
          "time": 154.39999999999873,
          "velocity": 0.3937007874015748,
          "duration": 0.8000000000000114
        },
        {
          "name": "D5",
          "midi": 74,
          "time": 154.39999999999873,
          "velocity": 0.3937007874015748,
          "duration": 0.8000000000000114
        },
        {
          "name": "D6",
          "midi": 86,
          "time": 155.19999999999874,
          "velocity": 0.3937007874015748,
          "duration": 0.5999999999999943
        },
        {
          "name": "F5",
          "midi": 77,
          "time": 155.19999999999874,
          "velocity": 0.3937007874015748,
          "duration": 0.5999999999999943
        },
        {
          "name": "C6",
          "midi": 84,
          "time": 155.79999999999873,
          "velocity": 0.3937007874015748,
          "duration": 0.09999999999999432
        },
        {
          "name": "D6",
          "midi": 86,
          "time": 155.89999999999873,
          "velocity": 0.3937007874015748,
          "duration": 0.09999999999999432
        },
        {
          "name": "E6",
          "midi": 88,
          "time": 155.99999999999872,
          "velocity": 0.3937007874015748,
          "duration": 0.19999999999998863
        },
        {
          "name": "G5",
          "midi": 79,
          "time": 155.99999999999872,
          "velocity": 0.3937007874015748,
          "duration": 0.19999999999998863
        },
        {
          "name": "F6",
          "midi": 89,
          "time": 156.1999999999987,
          "velocity": 0.3937007874015748,
          "duration": 0.19999999999998863
        },
        {
          "name": "G5",
          "midi": 79,
          "time": 156.1999999999987,
          "velocity": 0.3937007874015748,
          "duration": 0.19999999999998863
        },
        {
          "name": "A6",
          "midi": 93,
          "time": 156.3999999999987,
          "velocity": 0.3937007874015748,
          "duration": 0.19999999999998863
        },
        {
          "name": "E6",
          "midi": 88,
          "time": 156.3999999999987,
          "velocity": 0.3937007874015748,
          "duration": 0.19999999999998863
        },
        {
          "name": "C6",
          "midi": 84,
          "time": 156.5999999999987,
          "velocity": 0.3937007874015748,
          "duration": 0.19999999999998863
        },
        {
          "name": "G5",
          "midi": 79,
          "time": 156.5999999999987,
          "velocity": 0.3937007874015748,
          "duration": 0.19999999999998863
        },
        {
          "name": "D6",
          "midi": 86,
          "time": 156.79999999999868,
          "velocity": 0.3937007874015748,
          "duration": 0.5999999999999943
        },
        {
          "name": "A#5",
          "midi": 82,
          "time": 156.79999999999868,
          "velocity": 0.3937007874015748,
          "duration": 0.5999999999999943
        },
        {
          "name": "A6",
          "midi": 93,
          "time": 157.39999999999867,
          "velocity": 0.3937007874015748,
          "duration": 0.19999999999998863
        },
        {
          "name": "A5",
          "midi": 81,
          "time": 157.39999999999867,
          "velocity": 0.3937007874015748,
          "duration": 0.19999999999998863
        },
        {
          "name": "D6",
          "midi": 86,
          "time": 157.59999999999866,
          "velocity": 0.3937007874015748,
          "duration": 0.8000000000000114
        },
        {
          "name": "A#5",
          "midi": 82,
          "time": 157.59999999999866,
          "velocity": 0.3937007874015748,
          "duration": 0.8000000000000114
        },
        {
          "name": "D5",
          "midi": 74,
          "time": 172.99999999999866,
          "velocity": 0.3937007874015748,
          "duration": 0.19999999999998863
        },
        {
          "name": "G4",
          "midi": 67,
          "time": 173.39999999999864,
          "velocity": 0.3937007874015748,
          "duration": 0.19999999999998863
        },
        {
          "name": "D5",
          "midi": 74,
          "time": 173.79999999999862,
          "velocity": 0.3937007874015748,
          "duration": 0.19999999999998863
        },
        {
          "name": "G4",
          "midi": 67,
          "time": 174.1999999999986,
          "velocity": 0.3937007874015748,
          "duration": 0.19999999999998863
        },
        {
          "name": "E5",
          "midi": 76,
          "time": 174.59999999999857,
          "velocity": 0.3937007874015748,
          "duration": 0.19999999999998863
        },
        {
          "name": "G4",
          "midi": 67,
          "time": 174.99999999999855,
          "velocity": 0.3937007874015748,
          "duration": 0.19999999999998863
        },
        {
          "name": "E5",
          "midi": 76,
          "time": 175.39999999999853,
          "velocity": 0.3937007874015748,
          "duration": 0.19999999999998863
        },
        {
          "name": "G4",
          "midi": 67,
          "time": 175.7999999999985,
          "velocity": 0.3937007874015748,
          "duration": 0.19999999999998863
        },
        {
          "name": "F5",
          "midi": 77,
          "time": 176.19999999999848,
          "velocity": 0.3937007874015748,
          "duration": 0.19999999999998863
        },
        {
          "name": "A4",
          "midi": 69,
          "time": 176.59999999999846,
          "velocity": 0.3937007874015748,
          "duration": 0.19999999999998863
        },
        {
          "name": "F5",
          "midi": 77,
          "time": 176.99999999999844,
          "velocity": 0.3937007874015748,
          "duration": 0.19999999999998863
        },
        {
          "name": "G4",
          "midi": 67,
          "time": 177.3999999999984,
          "velocity": 0.3937007874015748,
          "duration": 0.19999999999998863
        },
        {
          "name": "D5",
          "midi": 74,
          "time": 177.7999999999984,
          "velocity": 0.3937007874015748,
          "duration": 0.19999999999998863
        },
        {
          "name": "E4",
          "midi": 64,
          "time": 178.19999999999837,
          "velocity": 0.3937007874015748,
          "duration": 0.19999999999998863
        },
        {
          "name": "A4",
          "midi": 69,
          "time": 178.59999999999835,
          "velocity": 0.3937007874015748,
          "duration": 0.19999999999998863
        },
        {
          "name": "C4",
          "midi": 60,
          "time": 178.99999999999832,
          "velocity": 0.3937007874015748,
          "duration": 0.19999999999998863
        },
        {
          "name": "F#5",
          "midi": 78,
          "time": 198.39999999999833,
          "velocity": 0.3937007874015748,
          "duration": 0.09999999999999432
        },
        {
          "name": "G#5",
          "midi": 80,
          "time": 198.49999999999832,
          "velocity": 0.3937007874015748,
          "duration": 0.09999999999999432
        },
        {
          "name": "A#5",
          "midi": 82,
          "time": 198.59999999999832,
          "velocity": 0.3937007874015748,
          "duration": 0.09999999999999432
        },
        {
          "name": "D#6",
          "midi": 87,
          "time": 198.6999999999983,
          "velocity": 0.3937007874015748,
          "duration": 0.09999999999999432
        },
        {
          "name": "A#5",
          "midi": 82,
          "time": 198.7999999999983,
          "velocity": 0.3937007874015748,
          "duration": 0.09999999999999432
        },
        {
          "name": "C#6",
          "midi": 85,
          "time": 198.8999999999983,
          "velocity": 0.3937007874015748,
          "duration": 0.09999999999999432
        },
        {
          "name": "G#5",
          "midi": 80,
          "time": 198.9999999999983,
          "velocity": 0.3937007874015748,
          "duration": 0.09999999999999432
        },
        {
          "name": "A#5",
          "midi": 82,
          "time": 199.0999999999983,
          "velocity": 0.3937007874015748,
          "duration": 0.09999999999999432
        },
        {
          "name": "F#5",
          "midi": 78,
          "time": 199.19999999999828,
          "velocity": 0.3937007874015748,
          "duration": 0.09999999999999432
        },
        {
          "name": "G#5",
          "midi": 80,
          "time": 199.29999999999828,
          "velocity": 0.3937007874015748,
          "duration": 0.09999999999999432
        },
        {
          "name": "F5",
          "midi": 77,
          "time": 199.39999999999827,
          "velocity": 0.3937007874015748,
          "duration": 0.09999999999999432
        },
        {
          "name": "F#5",
          "midi": 78,
          "time": 199.49999999999827,
          "velocity": 0.3937007874015748,
          "duration": 0.09999999999999432
        },
        {
          "name": "D#5",
          "midi": 75,
          "time": 199.59999999999826,
          "velocity": 0.3937007874015748,
          "duration": 0.09999999999999432
        },
        {
          "name": "F5",
          "midi": 77,
          "time": 199.69999999999825,
          "velocity": 0.3937007874015748,
          "duration": 0.09999999999999432
        },
        {
          "name": "C#5",
          "midi": 73,
          "time": 199.79999999999825,
          "velocity": 0.3937007874015748,
          "duration": 0.09999999999999432
        },
        {
          "name": "D#5",
          "midi": 75,
          "time": 199.89999999999824,
          "velocity": 0.3937007874015748,
          "duration": 0.09999999999999432
        },
        {
          "name": "G#4",
          "midi": 68,
          "time": 199.99999999999824,
          "velocity": 0.3937007874015748,
          "duration": 0.09999999999999432
        },
        {
          "name": "A#4",
          "midi": 70,
          "time": 200.09999999999823,
          "velocity": 0.3937007874015748,
          "duration": 0.09999999999999432
        },
        {
          "name": "F#4",
          "midi": 66,
          "time": 200.19999999999823,
          "velocity": 0.3937007874015748,
          "duration": 0.09999999999999432
        },
        {
          "name": "C#5",
          "midi": 73,
          "time": 200.29999999999822,
          "velocity": 0.3937007874015748,
          "duration": 0.09999999999999432
        },
        {
          "name": "F#5",
          "midi": 78,
          "time": 200.39999999999822,
          "velocity": 0.3937007874015748,
          "duration": 0.09999999999999432
        },
        {
          "name": "F5",
          "midi": 77,
          "time": 200.4999999999982,
          "velocity": 0.3937007874015748,
          "duration": 0.09999999999999432
        },
        {
          "name": "C#5",
          "midi": 73,
          "time": 200.5999999999982,
          "velocity": 0.3937007874015748,
          "duration": 0.09999999999999432
        },
        {
          "name": "D#5",
          "midi": 75,
          "time": 200.6999999999982,
          "velocity": 0.3937007874015748,
          "duration": 0.09999999999999432
        },
        {
          "name": "A#4",
          "midi": 70,
          "time": 200.7999999999982,
          "velocity": 0.3937007874015748,
          "duration": 0.09999999999999432
        },
        {
          "name": "C#5",
          "midi": 73,
          "time": 200.8999999999982,
          "velocity": 0.3937007874015748,
          "duration": 0.09999999999999432
        },
        {
          "name": "D#5",
          "midi": 75,
          "time": 200.99999999999818,
          "velocity": 0.3937007874015748,
          "duration": 0.09999999999999432
        },
        {
          "name": "F5",
          "midi": 77,
          "time": 201.09999999999818,
          "velocity": 0.3937007874015748,
          "duration": 0.09999999999999432
        },
        {
          "name": "F#5",
          "midi": 78,
          "time": 201.19999999999817,
          "velocity": 0.3937007874015748,
          "duration": 0.09999999999999432
        },
        {
          "name": "G#5",
          "midi": 80,
          "time": 201.29999999999816,
          "velocity": 0.3937007874015748,
          "duration": 0.09999999999999432
        },
        {
          "name": "A#5",
          "midi": 82,
          "time": 201.39999999999816,
          "velocity": 0.3937007874015748,
          "duration": 0.09999999999999432
        },
        {
          "name": "B5",
          "midi": 83,
          "time": 201.49999999999815,
          "velocity": 0.3937007874015748,
          "duration": 0.09999999999999432
        },
        {
          "name": "A#5",
          "midi": 82,
          "time": 201.59999999999815,
          "velocity": 0.3937007874015748,
          "duration": 0.09999999999999432
        },
        {
          "name": "F#5",
          "midi": 78,
          "time": 201.69999999999814,
          "velocity": 0.3937007874015748,
          "duration": 0.09999999999999432
        },
        {
          "name": "A#5",
          "midi": 82,
          "time": 201.79999999999814,
          "velocity": 0.3937007874015748,
          "duration": 0.09999999999999432
        },
        {
          "name": "G#5",
          "midi": 80,
          "time": 201.89999999999813,
          "velocity": 0.3937007874015748,
          "duration": 0.09999999999999432
        },
        {
          "name": "F5",
          "midi": 77,
          "time": 201.99999999999812,
          "velocity": 0.3937007874015748,
          "duration": 0.09999999999999432
        },
        {
          "name": "G#5",
          "midi": 80,
          "time": 202.09999999999812,
          "velocity": 0.3937007874015748,
          "duration": 0.09999999999999432
        },
        {
          "name": "F#5",
          "midi": 78,
          "time": 202.1999999999981,
          "velocity": 0.3937007874015748,
          "duration": 0.09999999999999432
        },
        {
          "name": "D#5",
          "midi": 75,
          "time": 202.2999999999981,
          "velocity": 0.3937007874015748,
          "duration": 0.09999999999999432
        },
        {
          "name": "F#5",
          "midi": 78,
          "time": 202.3999999999981,
          "velocity": 0.3937007874015748,
          "duration": 0.09999999999999432
        },
        {
          "name": "F5",
          "midi": 77,
          "time": 202.4999999999981,
          "velocity": 0.3937007874015748,
          "duration": 0.09999999999999432
        },
        {
          "name": "C#5",
          "midi": 73,
          "time": 202.5999999999981,
          "velocity": 0.3937007874015748,
          "duration": 0.09999999999999432
        },
        {
          "name": "D#5",
          "midi": 75,
          "time": 202.69999999999808,
          "velocity": 0.3937007874015748,
          "duration": 0.09999999999999432
        },
        {
          "name": "C#5",
          "midi": 73,
          "time": 202.79999999999808,
          "velocity": 0.3937007874015748,
          "duration": 0.09999999999999432
        },
        {
          "name": "G#4",
          "midi": 68,
          "time": 202.89999999999807,
          "velocity": 0.3937007874015748,
          "duration": 0.09999999999999432
        },
        {
          "name": "A#4",
          "midi": 70,
          "time": 202.99999999999807,
          "velocity": 0.3937007874015748,
          "duration": 0.09999999999999432
        },
        {
          "name": "F#4",
          "midi": 66,
          "time": 203.09999999999806,
          "velocity": 0.3937007874015748,
          "duration": 0.09999999999999432
        },
        {
          "name": "G#4",
          "midi": 68,
          "time": 203.19999999999806,
          "velocity": 0.3937007874015748,
          "duration": 0.09999999999999432
        },
        {
          "name": "F4",
          "midi": 65,
          "time": 203.29999999999805,
          "velocity": 0.3937007874015748,
          "duration": 0.09999999999999432
        },
        {
          "name": "F#4",
          "midi": 66,
          "time": 203.39999999999804,
          "velocity": 0.3937007874015748,
          "duration": 0.09999999999999432
        },
        {
          "name": "D#4",
          "midi": 63,
          "time": 203.49999999999804,
          "velocity": 0.3937007874015748,
          "duration": 0.09999999999999432
        },
        {
          "name": "F4",
          "midi": 65,
          "time": 203.59999999999803,
          "velocity": 0.3937007874015748,
          "duration": 0.09999999999999432
        },
        {
          "name": "C#4",
          "midi": 61,
          "time": 203.69999999999803,
          "velocity": 0.3937007874015748,
          "duration": 0.09999999999999432
        },
        {
          "name": "D#4",
          "midi": 63,
          "time": 203.79999999999802,
          "velocity": 0.3937007874015748,
          "duration": 0.09999999999999432
        },
        {
          "name": "A#3",
          "midi": 58,
          "time": 203.89999999999802,
          "velocity": 0.3937007874015748,
          "duration": 0.09999999999999432
        },
        {
          "name": "C#4",
          "midi": 61,
          "time": 203.999999999998,
          "velocity": 0.3937007874015748,
          "duration": 0.09999999999999432
        },
        {
          "name": "G#3",
          "midi": 56,
          "time": 204.099999999998,
          "velocity": 0.3937007874015748,
          "duration": 0.09999999999999432
        },
        {
          "name": "A#3",
          "midi": 58,
          "time": 204.199999999998,
          "velocity": 0.3937007874015748,
          "duration": 0.09999999999999432
        },
        {
          "name": "D#4",
          "midi": 63,
          "time": 204.299999999998,
          "velocity": 0.3937007874015748,
          "duration": 0.09999999999999432
        },
        {
          "name": "G#3",
          "midi": 56,
          "time": 204.399999999998,
          "velocity": 0.3937007874015748,
          "duration": 0.09999999999999432
        },
        {
          "name": "A#3",
          "midi": 58,
          "time": 204.49999999999798,
          "velocity": 0.3937007874015748,
          "duration": 0.09999999999999432
        },
        {
          "name": "D#4",
          "midi": 63,
          "time": 204.59999999999798,
          "velocity": 0.3937007874015748,
          "duration": 0.09999999999999432
        },
        {
          "name": "F4",
          "midi": 65,
          "time": 204.69999999999797,
          "velocity": 0.3937007874015748,
          "duration": 0.09999999999999432
        },
        {
          "name": "A#4",
          "midi": 70,
          "time": 204.79999999999797,
          "velocity": 0.3937007874015748,
          "duration": 0.09999999999999432
        },
        {
          "name": "G#4",
          "midi": 68,
          "time": 204.89999999999796,
          "velocity": 0.3937007874015748,
          "duration": 0.09999999999999432
        },
        {
          "name": "A#4",
          "midi": 70,
          "time": 204.99999999999795,
          "velocity": 0.3937007874015748,
          "duration": 0.09999999999999432
        },
        {
          "name": "D#5",
          "midi": 75,
          "time": 205.09999999999795,
          "velocity": 0.3937007874015748,
          "duration": 0.19999999999998863
        },
        {
          "name": "A#4",
          "midi": 70,
          "time": 205.29999999999794,
          "velocity": 0.3937007874015748,
          "duration": 0.09999999999999432
        },
        {
          "name": "G#4",
          "midi": 68,
          "time": 205.39999999999793,
          "velocity": 0.3937007874015748,
          "duration": 0.09999999999999432
        },
        {
          "name": "A#4",
          "midi": 70,
          "time": 205.49999999999793,
          "velocity": 0.3937007874015748,
          "duration": 0.09999999999999432
        },
        {
          "name": "C#5",
          "midi": 73,
          "time": 205.59999999999792,
          "velocity": 0.3937007874015748,
          "duration": 0.09999999999999432
        },
        {
          "name": "D#5",
          "midi": 75,
          "time": 205.6999999999979,
          "velocity": 0.3937007874015748,
          "duration": 0.09999999999999432
        },
        {
          "name": "F5",
          "midi": 77,
          "time": 205.7999999999979,
          "velocity": 0.3937007874015748,
          "duration": 0.19999999999998863
        },
        {
          "name": "A#4",
          "midi": 70,
          "time": 205.9999999999979,
          "velocity": 0.3937007874015748,
          "duration": 0.09999999999999432
        },
        {
          "name": "G#4",
          "midi": 68,
          "time": 206.0999999999979,
          "velocity": 0.3937007874015748,
          "duration": 0.09999999999999432
        },
        {
          "name": "A#4",
          "midi": 70,
          "time": 206.19999999999789,
          "velocity": 0.3937007874015748,
          "duration": 0.09999999999999432
        },
        {
          "name": "D#5",
          "midi": 75,
          "time": 206.29999999999788,
          "velocity": 0.3937007874015748,
          "duration": 0.09999999999999432
        },
        {
          "name": "A#4",
          "midi": 70,
          "time": 206.39999999999787,
          "velocity": 0.3937007874015748,
          "duration": 0.09999999999999432
        },
        {
          "name": "G#4",
          "midi": 68,
          "time": 206.49999999999787,
          "velocity": 0.3937007874015748,
          "duration": 0.09999999999999432
        },
        {
          "name": "A#4",
          "midi": 70,
          "time": 206.59999999999786,
          "velocity": 0.3937007874015748,
          "duration": 0.09999999999999432
        },
        {
          "name": "F5",
          "midi": 77,
          "time": 206.69999999999786,
          "velocity": 0.3937007874015748,
          "duration": 0.09999999999999432
        },
        {
          "name": "F#5",
          "midi": 78,
          "time": 206.79999999999785,
          "velocity": 0.3937007874015748,
          "duration": 0.09999999999999432
        },
        {
          "name": "A#4",
          "midi": 70,
          "time": 206.89999999999785,
          "velocity": 0.3937007874015748,
          "duration": 0.09999999999999432
        },
        {
          "name": "F5",
          "midi": 77,
          "time": 206.99999999999784,
          "velocity": 0.3937007874015748,
          "duration": 0.09999999999999432
        },
        {
          "name": "F#4",
          "midi": 66,
          "time": 207.09999999999783,
          "velocity": 0.3937007874015748,
          "duration": 0.09999999999999432
        },
        {
          "name": "D#5",
          "midi": 75,
          "time": 207.19999999999783,
          "velocity": 0.3937007874015748,
          "duration": 0.09999999999999432
        },
        {
          "name": "F4",
          "midi": 65,
          "time": 207.29999999999782,
          "velocity": 0.3937007874015748,
          "duration": 0.09999999999999432
        },
        {
          "name": "C#5",
          "midi": 73,
          "time": 207.39999999999782,
          "velocity": 0.3937007874015748,
          "duration": 0.09999999999999432
        },
        {
          "name": "D#4",
          "midi": 63,
          "time": 207.4999999999978,
          "velocity": 0.3937007874015748,
          "duration": 0.09999999999999432
        },
        {
          "name": "A#4",
          "midi": 70,
          "time": 207.5999999999978,
          "velocity": 0.3937007874015748,
          "duration": 0.09999999999999432
        },
        {
          "name": "G#4",
          "midi": 68,
          "time": 207.6999999999978,
          "velocity": 0.3937007874015748,
          "duration": 0.09999999999999432
        },
        {
          "name": "F#4",
          "midi": 66,
          "time": 207.7999999999978,
          "velocity": 0.3937007874015748,
          "duration": 0.09999999999999432
        },
        {
          "name": "G#4",
          "midi": 68,
          "time": 207.8999999999978,
          "velocity": 0.3937007874015748,
          "duration": 0.09999999999999432
        },
        {
          "name": "D4",
          "midi": 62,
          "time": 207.99999999999778,
          "velocity": 0.3937007874015748,
          "duration": 0.09999999999999432
        },
        {
          "name": "D#4",
          "midi": 63,
          "time": 208.09999999999778,
          "velocity": 0.3937007874015748,
          "duration": 0.09999999999999432
        },
        {
          "name": "F4",
          "midi": 65,
          "time": 208.19999999999777,
          "velocity": 0.3937007874015748,
          "duration": 0.09999999999999432
        },
        {
          "name": "A#4",
          "midi": 70,
          "time": 208.29999999999777,
          "velocity": 0.3937007874015748,
          "duration": 0.09999999999999432
        },
        {
          "name": "D5",
          "midi": 74,
          "time": 208.39999999999776,
          "velocity": 0.3937007874015748,
          "duration": 0.09999999999999432
        },
        {
          "name": "D#5",
          "midi": 75,
          "time": 208.49999999999775,
          "velocity": 0.3937007874015748,
          "duration": 0.09999999999999432
        },
        {
          "name": "F5",
          "midi": 77,
          "time": 208.59999999999775,
          "velocity": 0.3937007874015748,
          "duration": 0.09999999999999432
        },
        {
          "name": "A#5",
          "midi": 82,
          "time": 208.69999999999774,
          "velocity": 0.3937007874015748,
          "duration": 0.09999999999999432
        },
        {
          "name": "F5",
          "midi": 77,
          "time": 208.79999999999774,
          "velocity": 0.3937007874015748,
          "duration": 0.09999999999999432
        },
        {
          "name": "D6",
          "midi": 86,
          "time": 208.89999999999773,
          "velocity": 0.3937007874015748,
          "duration": 0.09999999999999432
        },
        {
          "name": "F5",
          "midi": 77,
          "time": 208.99999999999773,
          "velocity": 0.3937007874015748,
          "duration": 0.09999999999999432
        },
        {
          "name": "D#5",
          "midi": 75,
          "time": 209.09999999999772,
          "velocity": 0.3937007874015748,
          "duration": 0.09999999999999432
        },
        {
          "name": "D5",
          "midi": 74,
          "time": 209.19999999999771,
          "velocity": 0.3937007874015748,
          "duration": 0.09999999999999432
        },
        {
          "name": "D#5",
          "midi": 75,
          "time": 209.2999999999977,
          "velocity": 0.3937007874015748,
          "duration": 0.09999999999999432
        },
        {
          "name": "F5",
          "midi": 77,
          "time": 209.3999999999977,
          "velocity": 0.3937007874015748,
          "duration": 0.09999999999999432
        },
        {
          "name": "A#4",
          "midi": 70,
          "time": 209.4999999999977,
          "velocity": 0.3937007874015748,
          "duration": 0.09999999999999432
        },
        {
          "name": "D5",
          "midi": 74,
          "time": 209.5999999999977,
          "velocity": 0.3937007874015748,
          "duration": 0.09999999999999432
        },
        {
          "name": "D#5",
          "midi": 75,
          "time": 209.6999999999977,
          "velocity": 0.3937007874015748,
          "duration": 0.09999999999999432
        },
        {
          "name": "F5",
          "midi": 77,
          "time": 209.79999999999768,
          "velocity": 0.3937007874015748,
          "duration": 0.09999999999999432
        },
        {
          "name": "D5",
          "midi": 74,
          "time": 209.89999999999768,
          "velocity": 0.3937007874015748,
          "duration": 0.09999999999999432
        },
        {
          "name": "A#4",
          "midi": 70,
          "time": 209.99999999999767,
          "velocity": 0.3937007874015748,
          "duration": 0.09999999999999432
        },
        {
          "name": "G#4",
          "midi": 68,
          "time": 210.09999999999766,
          "velocity": 0.3937007874015748,
          "duration": 0.09999999999999432
        },
        {
          "name": "F#4",
          "midi": 66,
          "time": 210.19999999999766,
          "velocity": 0.3937007874015748,
          "duration": 0.09999999999999432
        },
        {
          "name": "F4",
          "midi": 65,
          "time": 210.29999999999765,
          "velocity": 0.3937007874015748,
          "duration": 0.09999999999999432
        },
        {
          "name": "F#4",
          "midi": 66,
          "time": 210.39999999999765,
          "velocity": 0.3937007874015748,
          "duration": 0.09999999999999432
        },
        {
          "name": "F4",
          "midi": 65,
          "time": 210.49999999999764,
          "velocity": 0.3937007874015748,
          "duration": 0.09999999999999432
        },
        {
          "name": "B3",
          "midi": 59,
          "time": 210.59999999999764,
          "velocity": 0.3937007874015748,
          "duration": 0.09999999999999432
        },
        {
          "name": "D#4",
          "midi": 63,
          "time": 210.69999999999763,
          "velocity": 0.3937007874015748,
          "duration": 0.09999999999999432
        },
        {
          "name": "F4",
          "midi": 65,
          "time": 210.79999999999762,
          "velocity": 0.3937007874015748,
          "duration": 0.09999999999999432
        },
        {
          "name": "D#4",
          "midi": 63,
          "time": 210.89999999999762,
          "velocity": 0.3937007874015748,
          "duration": 0.09999999999999432
        },
        {
          "name": "D4",
          "midi": 62,
          "time": 210.9999999999976,
          "velocity": 0.3937007874015748,
          "duration": 0.09999999999999432
        },
        {
          "name": "D#4",
          "midi": 63,
          "time": 211.0999999999976,
          "velocity": 0.3937007874015748,
          "duration": 0.09999999999999432
        }
      ],
      "controlChanges": {},
      "id": 1,
      "name": "8-Bit Triangle",
      "instrumentNumber": 80,
      "instrument": "lead 1 (square)",
      "instrumentFamily": "synth lead",
      "channelNumber": 1,
      "isPercussion": false
    },
    {
      "startTime": 0,
      "duration": 197.99999999999568,
      "length": 1604,
      "notes": [
        {
          "name": "D#5",
          "midi": 75,
          "time": 0,
          "velocity": 0.3937007874015748,
          "duration": 0.1
        },
        {
          "name": "F#4",
          "midi": 66,
          "time": 0,
          "velocity": 0.3937007874015748,
          "duration": 0.1
        },
        {
          "name": "D#5",
          "midi": 75,
          "time": 0.4,
          "velocity": 0.3937007874015748,
          "duration": 0.09999999999999998
        },
        {
          "name": "F#4",
          "midi": 66,
          "time": 0.4,
          "velocity": 0.3937007874015748,
          "duration": 0.09999999999999998
        },
        {
          "name": "D#5",
          "midi": 75,
          "time": 0.8,
          "velocity": 0.3937007874015748,
          "duration": 0.09999999999999998
        },
        {
          "name": "F#4",
          "midi": 66,
          "time": 0.8,
          "velocity": 0.3937007874015748,
          "duration": 0.09999999999999998
        },
        {
          "name": "D#5",
          "midi": 75,
          "time": 1.1,
          "velocity": 0.3937007874015748,
          "duration": 0.10000000000000009
        },
        {
          "name": "F#4",
          "midi": 66,
          "time": 1.1,
          "velocity": 0.3937007874015748,
          "duration": 0.10000000000000009
        },
        {
          "name": "D#5",
          "midi": 75,
          "time": 1.4000000000000001,
          "velocity": 0.3937007874015748,
          "duration": 0.10000000000000009
        },
        {
          "name": "F#4",
          "midi": 66,
          "time": 1.4000000000000001,
          "velocity": 0.3937007874015748,
          "duration": 0.10000000000000009
        },
        {
          "name": "C#5",
          "midi": 73,
          "time": 1.8000000000000003,
          "velocity": 0.3937007874015748,
          "duration": 0.10000000000000009
        },
        {
          "name": "F4",
          "midi": 65,
          "time": 1.8000000000000003,
          "velocity": 0.3937007874015748,
          "duration": 0.10000000000000009
        },
        {
          "name": "C#5",
          "midi": 73,
          "time": 2.0000000000000004,
          "velocity": 0.3937007874015748,
          "duration": 0.10000000000000009
        },
        {
          "name": "F4",
          "midi": 65,
          "time": 2.0000000000000004,
          "velocity": 0.3937007874015748,
          "duration": 0.10000000000000009
        },
        {
          "name": "C#5",
          "midi": 73,
          "time": 2.4000000000000004,
          "velocity": 0.3937007874015748,
          "duration": 0.10000000000000009
        },
        {
          "name": "F4",
          "midi": 65,
          "time": 2.4000000000000004,
          "velocity": 0.3937007874015748,
          "duration": 0.10000000000000009
        },
        {
          "name": "C#5",
          "midi": 73,
          "time": 2.7000000000000006,
          "velocity": 0.3937007874015748,
          "duration": 0.10000000000000009
        },
        {
          "name": "F4",
          "midi": 65,
          "time": 2.7000000000000006,
          "velocity": 0.3937007874015748,
          "duration": 0.10000000000000009
        },
        {
          "name": "A#4",
          "midi": 70,
          "time": 3.000000000000001,
          "velocity": 0.3937007874015748,
          "duration": 0.10000000000000009
        },
        {
          "name": "F#4",
          "midi": 66,
          "time": 3.000000000000001,
          "velocity": 0.3937007874015748,
          "duration": 0.10000000000000009
        },
        {
          "name": "A#4",
          "midi": 70,
          "time": 3.600000000000001,
          "velocity": 0.3937007874015748,
          "duration": 0.10000000000000009
        },
        {
          "name": "F#4",
          "midi": 66,
          "time": 3.600000000000001,
          "velocity": 0.3937007874015748,
          "duration": 0.10000000000000009
        },
        {
          "name": "A#4",
          "midi": 70,
          "time": 4.000000000000001,
          "velocity": 0.3937007874015748,
          "duration": 0.09999999999999964
        },
        {
          "name": "F#4",
          "midi": 66,
          "time": 4.000000000000001,
          "velocity": 0.3937007874015748,
          "duration": 0.09999999999999964
        },
        {
          "name": "A#4",
          "midi": 70,
          "time": 4.300000000000001,
          "velocity": 0.3937007874015748,
          "duration": 0.09999999999999964
        },
        {
          "name": "F#4",
          "midi": 66,
          "time": 4.300000000000001,
          "velocity": 0.3937007874015748,
          "duration": 0.09999999999999964
        },
        {
          "name": "A#4",
          "midi": 70,
          "time": 4.6000000000000005,
          "velocity": 0.3937007874015748,
          "duration": 0.09999999999999964
        },
        {
          "name": "F#4",
          "midi": 66,
          "time": 4.6000000000000005,
          "velocity": 0.3937007874015748,
          "duration": 0.09999999999999964
        },
        {
          "name": "A#4",
          "midi": 70,
          "time": 5.2,
          "velocity": 0.3937007874015748,
          "duration": 0.09999999999999964
        },
        {
          "name": "F#4",
          "midi": 66,
          "time": 5.2,
          "velocity": 0.3937007874015748,
          "duration": 0.09999999999999964
        },
        {
          "name": "A#4",
          "midi": 70,
          "time": 5.6,
          "velocity": 0.3937007874015748,
          "duration": 0.09999999999999964
        },
        {
          "name": "F#4",
          "midi": 66,
          "time": 5.6,
          "velocity": 0.3937007874015748,
          "duration": 0.09999999999999964
        },
        {
          "name": "A#4",
          "midi": 70,
          "time": 5.8999999999999995,
          "velocity": 0.3937007874015748,
          "duration": 0.09999999999999964
        },
        {
          "name": "F#4",
          "midi": 66,
          "time": 5.8999999999999995,
          "velocity": 0.3937007874015748,
          "duration": 0.09999999999999964
        },
        {
          "name": "C#5",
          "midi": 73,
          "time": 6.199999999999999,
          "velocity": 0.3937007874015748,
          "duration": 0.09999999999999964
        },
        {
          "name": "F#4",
          "midi": 66,
          "time": 6.199999999999999,
          "velocity": 0.3937007874015748,
          "duration": 0.09999999999999964
        },
        {
          "name": "D#5",
          "midi": 75,
          "time": 6.399999999999999,
          "velocity": 0.3937007874015748,
          "duration": 0.09999999999999964
        },
        {
          "name": "F#4",
          "midi": 66,
          "time": 6.399999999999999,
          "velocity": 0.3937007874015748,
          "duration": 0.09999999999999964
        },
        {
          "name": "D#5",
          "midi": 75,
          "time": 6.799999999999998,
          "velocity": 0.3937007874015748,
          "duration": 0.09999999999999964
        },
        {
          "name": "F#4",
          "midi": 66,
          "time": 6.799999999999998,
          "velocity": 0.3937007874015748,
          "duration": 0.09999999999999964
        },
        {
          "name": "D#5",
          "midi": 75,
          "time": 7.1999999999999975,
          "velocity": 0.3937007874015748,
          "duration": 0.09999999999999964
        },
        {
          "name": "F#4",
          "midi": 66,
          "time": 7.1999999999999975,
          "velocity": 0.3937007874015748,
          "duration": 0.09999999999999964
        },
        {
          "name": "D#5",
          "midi": 75,
          "time": 7.499999999999997,
          "velocity": 0.3937007874015748,
          "duration": 0.09999999999999964
        },
        {
          "name": "F#4",
          "midi": 66,
          "time": 7.499999999999997,
          "velocity": 0.3937007874015748,
          "duration": 0.09999999999999964
        },
        {
          "name": "D#5",
          "midi": 75,
          "time": 7.799999999999997,
          "velocity": 0.3937007874015748,
          "duration": 0.09999999999999964
        },
        {
          "name": "F#4",
          "midi": 66,
          "time": 7.799999999999997,
          "velocity": 0.3937007874015748,
          "duration": 0.09999999999999964
        },
        {
          "name": "F5",
          "midi": 77,
          "time": 8.199999999999998,
          "velocity": 0.3937007874015748,
          "duration": 0.09999999999999964
        },
        {
          "name": "G#4",
          "midi": 68,
          "time": 8.199999999999998,
          "velocity": 0.3937007874015748,
          "duration": 0.09999999999999964
        },
        {
          "name": "F5",
          "midi": 77,
          "time": 8.399999999999997,
          "velocity": 0.3937007874015748,
          "duration": 0.09999999999999964
        },
        {
          "name": "G#4",
          "midi": 68,
          "time": 8.399999999999997,
          "velocity": 0.3937007874015748,
          "duration": 0.09999999999999964
        },
        {
          "name": "F5",
          "midi": 77,
          "time": 8.799999999999997,
          "velocity": 0.3937007874015748,
          "duration": 0.09999999999999964
        },
        {
          "name": "G#4",
          "midi": 68,
          "time": 8.799999999999997,
          "velocity": 0.3937007874015748,
          "duration": 0.09999999999999964
        },
        {
          "name": "F5",
          "midi": 77,
          "time": 9.099999999999996,
          "velocity": 0.3937007874015748,
          "duration": 0.09999999999999964
        },
        {
          "name": "G#4",
          "midi": 68,
          "time": 9.099999999999996,
          "velocity": 0.3937007874015748,
          "duration": 0.09999999999999964
        },
        {
          "name": "D#5",
          "midi": 75,
          "time": 9.399999999999995,
          "velocity": 0.3937007874015748,
          "duration": 0.09999999999999964
        },
        {
          "name": "F#4",
          "midi": 66,
          "time": 9.399999999999995,
          "velocity": 0.3937007874015748,
          "duration": 0.09999999999999964
        },
        {
          "name": "D#5",
          "midi": 75,
          "time": 9.999999999999995,
          "velocity": 0.3937007874015748,
          "duration": 0.09999999999999964
        },
        {
          "name": "F#4",
          "midi": 66,
          "time": 9.999999999999995,
          "velocity": 0.3937007874015748,
          "duration": 0.09999999999999964
        },
        {
          "name": "D#5",
          "midi": 75,
          "time": 10.399999999999995,
          "velocity": 0.3937007874015748,
          "duration": 0.09999999999999964
        },
        {
          "name": "F#4",
          "midi": 66,
          "time": 10.399999999999995,
          "velocity": 0.3937007874015748,
          "duration": 0.09999999999999964
        },
        {
          "name": "D#5",
          "midi": 75,
          "time": 10.699999999999994,
          "velocity": 0.3937007874015748,
          "duration": 0.09999999999999964
        },
        {
          "name": "F#4",
          "midi": 66,
          "time": 10.699999999999994,
          "velocity": 0.3937007874015748,
          "duration": 0.09999999999999964
        },
        {
          "name": "D#5",
          "midi": 75,
          "time": 10.999999999999993,
          "velocity": 0.3937007874015748,
          "duration": 0.09999999999999964
        },
        {
          "name": "F#4",
          "midi": 66,
          "time": 10.999999999999993,
          "velocity": 0.3937007874015748,
          "duration": 0.09999999999999964
        },
        {
          "name": "D#5",
          "midi": 75,
          "time": 11.399999999999993,
          "velocity": 0.3937007874015748,
          "duration": 0.09999999999999964
        },
        {
          "name": "F#4",
          "midi": 66,
          "time": 11.399999999999993,
          "velocity": 0.3937007874015748,
          "duration": 0.09999999999999964
        },
        {
          "name": "D#5",
          "midi": 75,
          "time": 11.599999999999993,
          "velocity": 0.3937007874015748,
          "duration": 0.09999999999999964
        },
        {
          "name": "F#4",
          "midi": 66,
          "time": 11.599999999999993,
          "velocity": 0.3937007874015748,
          "duration": 0.09999999999999964
        },
        {
          "name": "D#5",
          "midi": 75,
          "time": 11.999999999999993,
          "velocity": 0.3937007874015748,
          "duration": 0.09999999999999964
        },
        {
          "name": "F#4",
          "midi": 66,
          "time": 11.999999999999993,
          "velocity": 0.3937007874015748,
          "duration": 0.09999999999999964
        },
        {
          "name": "D#5",
          "midi": 75,
          "time": 12.299999999999992,
          "velocity": 0.3937007874015748,
          "duration": 0.09999999999999964
        },
        {
          "name": "F#4",
          "midi": 66,
          "time": 12.299999999999992,
          "velocity": 0.3937007874015748,
          "duration": 0.09999999999999964
        },
        {
          "name": "D#5",
          "midi": 75,
          "time": 12.59999999999999,
          "velocity": 0.3937007874015748,
          "duration": 0.09999999999999964
        },
        {
          "name": "F#4",
          "midi": 66,
          "time": 12.59999999999999,
          "velocity": 0.3937007874015748,
          "duration": 0.09999999999999964
        },
        {
          "name": "D#5",
          "midi": 75,
          "time": 12.79999999999999,
          "velocity": 0.3937007874015748,
          "duration": 0.09999999999999964
        },
        {
          "name": "F#4",
          "midi": 66,
          "time": 12.79999999999999,
          "velocity": 0.3937007874015748,
          "duration": 0.09999999999999964
        },
        {
          "name": "D#5",
          "midi": 75,
          "time": 13.19999999999999,
          "velocity": 0.3937007874015748,
          "duration": 0.09999999999999964
        },
        {
          "name": "F#4",
          "midi": 66,
          "time": 13.19999999999999,
          "velocity": 0.3937007874015748,
          "duration": 0.09999999999999964
        },
        {
          "name": "D#5",
          "midi": 75,
          "time": 13.59999999999999,
          "velocity": 0.3937007874015748,
          "duration": 0.09999999999999964
        },
        {
          "name": "F#4",
          "midi": 66,
          "time": 13.59999999999999,
          "velocity": 0.3937007874015748,
          "duration": 0.09999999999999964
        },
        {
          "name": "D#5",
          "midi": 75,
          "time": 13.89999999999999,
          "velocity": 0.3937007874015748,
          "duration": 0.09999999999999964
        },
        {
          "name": "F#4",
          "midi": 66,
          "time": 13.89999999999999,
          "velocity": 0.3937007874015748,
          "duration": 0.09999999999999964
        },
        {
          "name": "D#5",
          "midi": 75,
          "time": 14.199999999999989,
          "velocity": 0.3937007874015748,
          "duration": 0.09999999999999964
        },
        {
          "name": "F#4",
          "midi": 66,
          "time": 14.199999999999989,
          "velocity": 0.3937007874015748,
          "duration": 0.09999999999999964
        },
        {
          "name": "C#5",
          "midi": 73,
          "time": 14.599999999999989,
          "velocity": 0.3937007874015748,
          "duration": 0.09999999999999964
        },
        {
          "name": "F4",
          "midi": 65,
          "time": 14.599999999999989,
          "velocity": 0.3937007874015748,
          "duration": 0.09999999999999964
        },
        {
          "name": "C#5",
          "midi": 73,
          "time": 14.799999999999988,
          "velocity": 0.3937007874015748,
          "duration": 0.09999999999999964
        },
        {
          "name": "F4",
          "midi": 65,
          "time": 14.799999999999988,
          "velocity": 0.3937007874015748,
          "duration": 0.09999999999999964
        },
        {
          "name": "C#5",
          "midi": 73,
          "time": 15.199999999999989,
          "velocity": 0.3937007874015748,
          "duration": 0.09999999999999964
        },
        {
          "name": "F4",
          "midi": 65,
          "time": 15.199999999999989,
          "velocity": 0.3937007874015748,
          "duration": 0.09999999999999964
        },
        {
          "name": "C#5",
          "midi": 73,
          "time": 15.499999999999988,
          "velocity": 0.3937007874015748,
          "duration": 0.09999999999999964
        },
        {
          "name": "F4",
          "midi": 65,
          "time": 15.499999999999988,
          "velocity": 0.3937007874015748,
          "duration": 0.09999999999999964
        },
        {
          "name": "A#4",
          "midi": 70,
          "time": 15.799999999999986,
          "velocity": 0.3937007874015748,
          "duration": 0.09999999999999964
        },
        {
          "name": "F#4",
          "midi": 66,
          "time": 15.799999999999986,
          "velocity": 0.3937007874015748,
          "duration": 0.09999999999999964
        },
        {
          "name": "A#4",
          "midi": 70,
          "time": 16.399999999999984,
          "velocity": 0.3937007874015748,
          "duration": 0.10000000000000142
        },
        {
          "name": "F#4",
          "midi": 66,
          "time": 16.399999999999984,
          "velocity": 0.3937007874015748,
          "duration": 0.10000000000000142
        },
        {
          "name": "A#4",
          "midi": 70,
          "time": 16.799999999999986,
          "velocity": 0.3937007874015748,
          "duration": 0.10000000000000142
        },
        {
          "name": "F#4",
          "midi": 66,
          "time": 16.799999999999986,
          "velocity": 0.3937007874015748,
          "duration": 0.10000000000000142
        },
        {
          "name": "A#4",
          "midi": 70,
          "time": 17.099999999999987,
          "velocity": 0.3937007874015748,
          "duration": 0.10000000000000142
        },
        {
          "name": "F#4",
          "midi": 66,
          "time": 17.099999999999987,
          "velocity": 0.3937007874015748,
          "duration": 0.10000000000000142
        },
        {
          "name": "A#4",
          "midi": 70,
          "time": 17.399999999999988,
          "velocity": 0.3937007874015748,
          "duration": 0.10000000000000142
        },
        {
          "name": "F#4",
          "midi": 66,
          "time": 17.399999999999988,
          "velocity": 0.3937007874015748,
          "duration": 0.10000000000000142
        },
        {
          "name": "A#4",
          "midi": 70,
          "time": 17.99999999999999,
          "velocity": 0.3937007874015748,
          "duration": 0.10000000000000142
        },
        {
          "name": "F#4",
          "midi": 66,
          "time": 17.99999999999999,
          "velocity": 0.3937007874015748,
          "duration": 0.10000000000000142
        },
        {
          "name": "A#4",
          "midi": 70,
          "time": 18.39999999999999,
          "velocity": 0.3937007874015748,
          "duration": 0.10000000000000142
        },
        {
          "name": "F#4",
          "midi": 66,
          "time": 18.39999999999999,
          "velocity": 0.3937007874015748,
          "duration": 0.10000000000000142
        },
        {
          "name": "A#4",
          "midi": 70,
          "time": 18.699999999999992,
          "velocity": 0.3937007874015748,
          "duration": 0.10000000000000142
        },
        {
          "name": "F#4",
          "midi": 66,
          "time": 18.699999999999992,
          "velocity": 0.3937007874015748,
          "duration": 0.10000000000000142
        },
        {
          "name": "C#5",
          "midi": 73,
          "time": 18.999999999999993,
          "velocity": 0.3937007874015748,
          "duration": 0.10000000000000142
        },
        {
          "name": "F#4",
          "midi": 66,
          "time": 18.999999999999993,
          "velocity": 0.3937007874015748,
          "duration": 0.10000000000000142
        },
        {
          "name": "D#5",
          "midi": 75,
          "time": 19.199999999999996,
          "velocity": 0.3937007874015748,
          "duration": 0.10000000000000142
        },
        {
          "name": "F#4",
          "midi": 66,
          "time": 19.199999999999996,
          "velocity": 0.3937007874015748,
          "duration": 0.10000000000000142
        },
        {
          "name": "D#5",
          "midi": 75,
          "time": 19.599999999999998,
          "velocity": 0.3937007874015748,
          "duration": 0.10000000000000142
        },
        {
          "name": "F#4",
          "midi": 66,
          "time": 19.599999999999998,
          "velocity": 0.3937007874015748,
          "duration": 0.10000000000000142
        },
        {
          "name": "D#5",
          "midi": 75,
          "time": 20,
          "velocity": 0.3937007874015748,
          "duration": 0.10000000000000142
        },
        {
          "name": "F#4",
          "midi": 66,
          "time": 20,
          "velocity": 0.3937007874015748,
          "duration": 0.10000000000000142
        },
        {
          "name": "D#5",
          "midi": 75,
          "time": 20.3,
          "velocity": 0.3937007874015748,
          "duration": 0.10000000000000142
        },
        {
          "name": "F#4",
          "midi": 66,
          "time": 20.3,
          "velocity": 0.3937007874015748,
          "duration": 0.10000000000000142
        },
        {
          "name": "D#5",
          "midi": 75,
          "time": 20.6,
          "velocity": 0.3937007874015748,
          "duration": 0.10000000000000142
        },
        {
          "name": "F#4",
          "midi": 66,
          "time": 20.6,
          "velocity": 0.3937007874015748,
          "duration": 0.10000000000000142
        },
        {
          "name": "F5",
          "midi": 77,
          "time": 21.000000000000004,
          "velocity": 0.3937007874015748,
          "duration": 0.10000000000000142
        },
        {
          "name": "G#4",
          "midi": 68,
          "time": 21.000000000000004,
          "velocity": 0.3937007874015748,
          "duration": 0.10000000000000142
        },
        {
          "name": "F5",
          "midi": 77,
          "time": 21.200000000000006,
          "velocity": 0.3937007874015748,
          "duration": 0.10000000000000142
        },
        {
          "name": "G#4",
          "midi": 68,
          "time": 21.200000000000006,
          "velocity": 0.3937007874015748,
          "duration": 0.10000000000000142
        },
        {
          "name": "F5",
          "midi": 77,
          "time": 21.60000000000001,
          "velocity": 0.3937007874015748,
          "duration": 0.10000000000000142
        },
        {
          "name": "G#4",
          "midi": 68,
          "time": 21.60000000000001,
          "velocity": 0.3937007874015748,
          "duration": 0.10000000000000142
        },
        {
          "name": "F5",
          "midi": 77,
          "time": 21.90000000000001,
          "velocity": 0.3937007874015748,
          "duration": 0.10000000000000142
        },
        {
          "name": "G#4",
          "midi": 68,
          "time": 21.90000000000001,
          "velocity": 0.3937007874015748,
          "duration": 0.10000000000000142
        },
        {
          "name": "D#5",
          "midi": 75,
          "time": 22.20000000000001,
          "velocity": 0.3937007874015748,
          "duration": 0.10000000000000142
        },
        {
          "name": "F#4",
          "midi": 66,
          "time": 22.20000000000001,
          "velocity": 0.3937007874015748,
          "duration": 0.10000000000000142
        },
        {
          "name": "D#5",
          "midi": 75,
          "time": 22.80000000000001,
          "velocity": 0.3937007874015748,
          "duration": 0.10000000000000142
        },
        {
          "name": "F#4",
          "midi": 66,
          "time": 22.80000000000001,
          "velocity": 0.3937007874015748,
          "duration": 0.10000000000000142
        },
        {
          "name": "D#5",
          "midi": 75,
          "time": 23.200000000000014,
          "velocity": 0.3937007874015748,
          "duration": 0.10000000000000142
        },
        {
          "name": "F#4",
          "midi": 66,
          "time": 23.200000000000014,
          "velocity": 0.3937007874015748,
          "duration": 0.10000000000000142
        },
        {
          "name": "D#5",
          "midi": 75,
          "time": 23.500000000000014,
          "velocity": 0.3937007874015748,
          "duration": 0.10000000000000142
        },
        {
          "name": "F#4",
          "midi": 66,
          "time": 23.500000000000014,
          "velocity": 0.3937007874015748,
          "duration": 0.10000000000000142
        },
        {
          "name": "D#5",
          "midi": 75,
          "time": 23.800000000000015,
          "velocity": 0.3937007874015748,
          "duration": 0.10000000000000142
        },
        {
          "name": "F#4",
          "midi": 66,
          "time": 23.800000000000015,
          "velocity": 0.3937007874015748,
          "duration": 0.10000000000000142
        },
        {
          "name": "D#5",
          "midi": 75,
          "time": 24.200000000000017,
          "velocity": 0.3937007874015748,
          "duration": 0.10000000000000142
        },
        {
          "name": "F#4",
          "midi": 66,
          "time": 24.200000000000017,
          "velocity": 0.3937007874015748,
          "duration": 0.10000000000000142
        },
        {
          "name": "D#5",
          "midi": 75,
          "time": 24.40000000000002,
          "velocity": 0.3937007874015748,
          "duration": 0.10000000000000142
        },
        {
          "name": "F#4",
          "midi": 66,
          "time": 24.40000000000002,
          "velocity": 0.3937007874015748,
          "duration": 0.10000000000000142
        },
        {
          "name": "D#5",
          "midi": 75,
          "time": 24.800000000000022,
          "velocity": 0.3937007874015748,
          "duration": 0.10000000000000142
        },
        {
          "name": "F#4",
          "midi": 66,
          "time": 24.800000000000022,
          "velocity": 0.3937007874015748,
          "duration": 0.10000000000000142
        },
        {
          "name": "D#5",
          "midi": 75,
          "time": 25.100000000000023,
          "velocity": 0.3937007874015748,
          "duration": 0.10000000000000142
        },
        {
          "name": "F#4",
          "midi": 66,
          "time": 25.100000000000023,
          "velocity": 0.3937007874015748,
          "duration": 0.10000000000000142
        },
        {
          "name": "D#5",
          "midi": 75,
          "time": 25.400000000000023,
          "velocity": 0.3937007874015748,
          "duration": 0.10000000000000142
        },
        {
          "name": "F#4",
          "midi": 66,
          "time": 25.400000000000023,
          "velocity": 0.3937007874015748,
          "duration": 0.10000000000000142
        },
        {
          "name": "F#4",
          "midi": 66,
          "time": 31.600000000000026,
          "velocity": 0.3937007874015748,
          "duration": 0.10000000000000142
        },
        {
          "name": "F#3",
          "midi": 54,
          "time": 31.600000000000026,
          "velocity": 0.3937007874015748,
          "duration": 0.10000000000000142
        },
        {
          "name": "G#4",
          "midi": 68,
          "time": 31.80000000000003,
          "velocity": 0.3937007874015748,
          "duration": 0.10000000000000142
        },
        {
          "name": "F4",
          "midi": 65,
          "time": 31.80000000000003,
          "velocity": 0.3937007874015748,
          "duration": 0.10000000000000142
        },
        {
          "name": "F3",
          "midi": 53,
          "time": 31.80000000000003,
          "velocity": 0.3937007874015748,
          "duration": 0.10000000000000142
        },
        {
          "name": "G#3",
          "midi": 56,
          "time": 31.80000000000003,
          "velocity": 0.3937007874015748,
          "duration": 0.10000000000000142
        },
        {
          "name": "F#4",
          "midi": 66,
          "time": 32.00000000000003,
          "velocity": 0.3937007874015748,
          "duration": 0.10000000000000142
        },
        {
          "name": "A#4",
          "midi": 70,
          "time": 32.00000000000003,
          "velocity": 0.3937007874015748,
          "duration": 0.10000000000000142
        },
        {
          "name": "F#3",
          "midi": 54,
          "time": 32.00000000000003,
          "velocity": 0.3937007874015748,
          "duration": 0.10000000000000142
        },
        {
          "name": "A#3",
          "midi": 58,
          "time": 32.00000000000003,
          "velocity": 0.3937007874015748,
          "duration": 0.10000000000000142
        },
        {
          "name": "D#5",
          "midi": 75,
          "time": 32.60000000000003,
          "velocity": 0.3937007874015748,
          "duration": 0.10000000000000142
        },
        {
          "name": "A#4",
          "midi": 70,
          "time": 32.60000000000003,
          "velocity": 0.3937007874015748,
          "duration": 0.10000000000000142
        },
        {
          "name": "A#3",
          "midi": 58,
          "time": 32.60000000000003,
          "velocity": 0.3937007874015748,
          "duration": 0.10000000000000142
        },
        {
          "name": "D#4",
          "midi": 63,
          "time": 32.60000000000003,
          "velocity": 0.3937007874015748,
          "duration": 0.10000000000000142
        },
        {
          "name": "A#3",
          "midi": 58,
          "time": 32.80000000000003,
          "velocity": 0.3937007874015748,
          "duration": 0.10000000000000142
        },
        {
          "name": "F#3",
          "midi": 54,
          "time": 32.80000000000003,
          "velocity": 0.3937007874015748,
          "duration": 0.10000000000000142
        },
        {
          "name": "F#4",
          "midi": 66,
          "time": 32.80000000000003,
          "velocity": 0.3937007874015748,
          "duration": 0.10000000000000142
        },
        {
          "name": "A#4",
          "midi": 70,
          "time": 32.80000000000003,
          "velocity": 0.3937007874015748,
          "duration": 0.10000000000000142
        },
        {
          "name": "A#3",
          "midi": 58,
          "time": 33.60000000000004,
          "velocity": 0.3937007874015748,
          "duration": 0.10000000000000142
        },
        {
          "name": "F#4",
          "midi": 66,
          "time": 33.60000000000004,
          "velocity": 0.3937007874015748,
          "duration": 0.10000000000000142
        },
        {
          "name": "A#4",
          "midi": 70,
          "time": 33.60000000000004,
          "velocity": 0.3937007874015748,
          "duration": 0.10000000000000142
        },
        {
          "name": "F#5",
          "midi": 78,
          "time": 33.60000000000004,
          "velocity": 0.3937007874015748,
          "duration": 0.10000000000000142
        },
        {
          "name": "C#4",
          "midi": 61,
          "time": 34.20000000000004,
          "velocity": 0.3937007874015748,
          "duration": 0.10000000000000142
        },
        {
          "name": "C#5",
          "midi": 73,
          "time": 34.20000000000004,
          "velocity": 0.3937007874015748,
          "duration": 0.10000000000000142
        },
        {
          "name": "D#4",
          "midi": 63,
          "time": 34.30000000000004,
          "velocity": 0.3937007874015748,
          "duration": 0.10000000000000142
        },
        {
          "name": "D#5",
          "midi": 75,
          "time": 34.30000000000004,
          "velocity": 0.3937007874015748,
          "duration": 0.10000000000000142
        },
        {
          "name": "F4",
          "midi": 65,
          "time": 34.40000000000004,
          "velocity": 0.3937007874015748,
          "duration": 0.10000000000000142
        },
        {
          "name": "G#4",
          "midi": 68,
          "time": 34.40000000000004,
          "velocity": 0.3937007874015748,
          "duration": 0.10000000000000142
        },
        {
          "name": "F5",
          "midi": 77,
          "time": 34.40000000000004,
          "velocity": 0.3937007874015748,
          "duration": 0.10000000000000142
        },
        {
          "name": "G#3",
          "midi": 56,
          "time": 34.40000000000004,
          "velocity": 0.3937007874015748,
          "duration": 0.10000000000000142
        },
        {
          "name": "F#5",
          "midi": 78,
          "time": 34.600000000000044,
          "velocity": 0.3937007874015748,
          "duration": 0.10000000000000142
        },
        {
          "name": "F#4",
          "midi": 66,
          "time": 34.600000000000044,
          "velocity": 0.3937007874015748,
          "duration": 0.10000000000000142
        },
        {
          "name": "G#3",
          "midi": 56,
          "time": 34.600000000000044,
          "velocity": 0.3937007874015748,
          "duration": 0.10000000000000142
        },
        {
          "name": "G#4",
          "midi": 68,
          "time": 34.600000000000044,
          "velocity": 0.3937007874015748,
          "duration": 0.10000000000000142
        },
        {
          "name": "F3",
          "midi": 53,
          "time": 34.80000000000005,
          "velocity": 0.3937007874015748,
          "duration": 0.10000000000000142
        },
        {
          "name": "F4",
          "midi": 65,
          "time": 34.80000000000005,
          "velocity": 0.3937007874015748,
          "duration": 0.10000000000000142
        },
        {
          "name": "C#5",
          "midi": 73,
          "time": 34.80000000000005,
          "velocity": 0.3937007874015748,
          "duration": 0.10000000000000142
        },
        {
          "name": "C#4",
          "midi": 61,
          "time": 34.80000000000005,
          "velocity": 0.3937007874015748,
          "duration": 0.10000000000000142
        },
        {
          "name": "F4",
          "midi": 65,
          "time": 35.00000000000005,
          "velocity": 0.3937007874015748,
          "duration": 0.10000000000000142
        },
        {
          "name": "F5",
          "midi": 77,
          "time": 35.00000000000005,
          "velocity": 0.3937007874015748,
          "duration": 0.10000000000000142
        },
        {
          "name": "C#4",
          "midi": 61,
          "time": 35.00000000000005,
          "velocity": 0.3937007874015748,
          "duration": 0.10000000000000142
        },
        {
          "name": "C#5",
          "midi": 73,
          "time": 35.00000000000005,
          "velocity": 0.3937007874015748,
          "duration": 0.10000000000000142
        },
        {
          "name": "F#4",
          "midi": 66,
          "time": 35.20000000000005,
          "velocity": 0.3937007874015748,
          "duration": 0.10000000000000142
        },
        {
          "name": "A#4",
          "midi": 70,
          "time": 35.20000000000005,
          "velocity": 0.3937007874015748,
          "duration": 0.10000000000000142
        },
        {
          "name": "A#3",
          "midi": 58,
          "time": 35.20000000000005,
          "velocity": 0.3937007874015748,
          "duration": 0.10000000000000142
        },
        {
          "name": "F#3",
          "midi": 54,
          "time": 35.20000000000005,
          "velocity": 0.3937007874015748,
          "duration": 0.10000000000000142
        },
        {
          "name": "A#4",
          "midi": 70,
          "time": 35.800000000000054,
          "velocity": 0.3937007874015748,
          "duration": 0.10000000000000142
        },
        {
          "name": "D#5",
          "midi": 75,
          "time": 35.800000000000054,
          "velocity": 0.3937007874015748,
          "duration": 0.10000000000000142
        },
        {
          "name": "A#3",
          "midi": 58,
          "time": 35.800000000000054,
          "velocity": 0.3937007874015748,
          "duration": 0.10000000000000142
        },
        {
          "name": "D#4",
          "midi": 63,
          "time": 35.800000000000054,
          "velocity": 0.3937007874015748,
          "duration": 0.10000000000000142
        },
        {
          "name": "A#4",
          "midi": 70,
          "time": 36.00000000000006,
          "velocity": 0.3937007874015748,
          "duration": 0.10000000000000142
        },
        {
          "name": "F#4",
          "midi": 66,
          "time": 36.00000000000006,
          "velocity": 0.3937007874015748,
          "duration": 0.10000000000000142
        },
        {
          "name": "F#3",
          "midi": 54,
          "time": 36.00000000000006,
          "velocity": 0.3937007874015748,
          "duration": 0.10000000000000142
        },
        {
          "name": "A#3",
          "midi": 58,
          "time": 36.00000000000006,
          "velocity": 0.3937007874015748,
          "duration": 0.10000000000000142
        },
        {
          "name": "F#3",
          "midi": 54,
          "time": 36.80000000000006,
          "velocity": 0.3937007874015748,
          "duration": 0.10000000000000142
        },
        {
          "name": "C#4",
          "midi": 61,
          "time": 36.80000000000006,
          "velocity": 0.3937007874015748,
          "duration": 0.10000000000000142
        },
        {
          "name": "F#4",
          "midi": 66,
          "time": 36.80000000000006,
          "velocity": 0.3937007874015748,
          "duration": 0.10000000000000142
        },
        {
          "name": "C#5",
          "midi": 73,
          "time": 36.80000000000006,
          "velocity": 0.3937007874015748,
          "duration": 0.10000000000000142
        },
        {
          "name": "F#5",
          "midi": 78,
          "time": 36.80000000000006,
          "velocity": 0.3937007874015748,
          "duration": 0.10000000000000142
        },
        {
          "name": "A#4",
          "midi": 70,
          "time": 37.000000000000064,
          "velocity": 0.3937007874015748,
          "duration": 0.10000000000000142
        },
        {
          "name": "F4",
          "midi": 65,
          "time": 37.100000000000065,
          "velocity": 0.3937007874015748,
          "duration": 0.10000000000000142
        },
        {
          "name": "F#4",
          "midi": 66,
          "time": 37.20000000000007,
          "velocity": 0.3937007874015748,
          "duration": 0.10000000000000142
        },
        {
          "name": "G#4",
          "midi": 68,
          "time": 37.30000000000007,
          "velocity": 0.3937007874015748,
          "duration": 0.10000000000000142
        },
        {
          "name": "F4",
          "midi": 65,
          "time": 37.40000000000007,
          "velocity": 0.3937007874015748,
          "duration": 0.10000000000000142
        },
        {
          "name": "F#4",
          "midi": 66,
          "time": 37.50000000000007,
          "velocity": 0.3937007874015748,
          "duration": 0.10000000000000142
        },
        {
          "name": "D#4",
          "midi": 63,
          "time": 37.60000000000007,
          "velocity": 0.3937007874015748,
          "duration": 0.10000000000000142
        },
        {
          "name": "F4",
          "midi": 65,
          "time": 37.700000000000074,
          "velocity": 0.3937007874015748,
          "duration": 0.10000000000000142
        },
        {
          "name": "C#4",
          "midi": 61,
          "time": 37.800000000000075,
          "velocity": 0.3937007874015748,
          "duration": 0.10000000000000142
        },
        {
          "name": "D#4",
          "midi": 63,
          "time": 37.90000000000008,
          "velocity": 0.3937007874015748,
          "duration": 0.10000000000000142
        },
        {
          "name": "A#3",
          "midi": 58,
          "time": 38.00000000000008,
          "velocity": 0.3937007874015748,
          "duration": 0.10000000000000142
        },
        {
          "name": "C#4",
          "midi": 61,
          "time": 38.10000000000008,
          "velocity": 0.3937007874015748,
          "duration": 0.10000000000000142
        },
        {
          "name": "G#3",
          "midi": 56,
          "time": 38.20000000000008,
          "velocity": 0.3937007874015748,
          "duration": 0.10000000000000142
        },
        {
          "name": "A#3",
          "midi": 58,
          "time": 38.400000000000084,
          "velocity": 0.3937007874015748,
          "duration": 0.10000000000000142
        },
        {
          "name": "F#3",
          "midi": 54,
          "time": 38.400000000000084,
          "velocity": 0.3937007874015748,
          "duration": 0.10000000000000142
        },
        {
          "name": "F#4",
          "midi": 66,
          "time": 38.400000000000084,
          "velocity": 0.3937007874015748,
          "duration": 0.10000000000000142
        },
        {
          "name": "A#4",
          "midi": 70,
          "time": 38.400000000000084,
          "velocity": 0.3937007874015748,
          "duration": 0.10000000000000142
        },
        {
          "name": "A#3",
          "midi": 58,
          "time": 38.60000000000009,
          "velocity": 0.3937007874015748,
          "duration": 0.10000000000000142
        },
        {
          "name": "F4",
          "midi": 65,
          "time": 38.80000000000009,
          "velocity": 0.3937007874015748,
          "duration": 0.10000000000000142
        },
        {
          "name": "F#4",
          "midi": 66,
          "time": 38.90000000000009,
          "velocity": 0.3937007874015748,
          "duration": 0.10000000000000142
        },
        {
          "name": "A#3",
          "midi": 58,
          "time": 39.00000000000009,
          "velocity": 0.3937007874015748,
          "duration": 0.10000000000000142
        },
        {
          "name": "D#4",
          "midi": 63,
          "time": 39.00000000000009,
          "velocity": 0.3937007874015748,
          "duration": 0.10000000000000142
        },
        {
          "name": "A#4",
          "midi": 70,
          "time": 39.00000000000009,
          "velocity": 0.3937007874015748,
          "duration": 0.10000000000000142
        },
        {
          "name": "D#5",
          "midi": 75,
          "time": 39.00000000000009,
          "velocity": 0.3937007874015748,
          "duration": 0.10000000000000142
        },
        {
          "name": "A#3",
          "midi": 58,
          "time": 39.200000000000095,
          "velocity": 0.3937007874015748,
          "duration": 0.10000000000000142
        },
        {
          "name": "F#3",
          "midi": 54,
          "time": 39.200000000000095,
          "velocity": 0.3937007874015748,
          "duration": 0.10000000000000142
        },
        {
          "name": "F#4",
          "midi": 66,
          "time": 39.200000000000095,
          "velocity": 0.3937007874015748,
          "duration": 0.10000000000000142
        },
        {
          "name": "A#4",
          "midi": 70,
          "time": 39.200000000000095,
          "velocity": 0.3937007874015748,
          "duration": 0.10000000000000142
        },
        {
          "name": "D#5",
          "midi": 75,
          "time": 40.0000000000001,
          "velocity": 0.3937007874015748,
          "duration": 0.10000000000000142
        },
        {
          "name": "F#5",
          "midi": 78,
          "time": 40.0000000000001,
          "velocity": 0.3937007874015748,
          "duration": 0.10000000000000142
        },
        {
          "name": "F#4",
          "midi": 66,
          "time": 40.0000000000001,
          "velocity": 0.3937007874015748,
          "duration": 0.10000000000000142
        },
        {
          "name": "D#4",
          "midi": 63,
          "time": 40.0000000000001,
          "velocity": 0.3937007874015748,
          "duration": 0.10000000000000142
        },
        {
          "name": "F#4",
          "midi": 66,
          "time": 40.1000000000001,
          "velocity": 0.3937007874015748,
          "duration": 0.10000000000000142
        },
        {
          "name": "F5",
          "midi": 77,
          "time": 40.2000000000001,
          "velocity": 0.3937007874015748,
          "duration": 0.10000000000000142
        },
        {
          "name": "D#5",
          "midi": 75,
          "time": 40.300000000000104,
          "velocity": 0.3937007874015748,
          "duration": 0.10000000000000142
        },
        {
          "name": "C#5",
          "midi": 73,
          "time": 40.400000000000105,
          "velocity": 0.3937007874015748,
          "duration": 0.10000000000000142
        },
        {
          "name": "A#4",
          "midi": 70,
          "time": 40.50000000000011,
          "velocity": 0.3937007874015748,
          "duration": 0.10000000000000142
        },
        {
          "name": "C#5",
          "midi": 73,
          "time": 40.60000000000011,
          "velocity": 0.3937007874015748,
          "duration": 0.10000000000000142
        },
        {
          "name": "D#5",
          "midi": 75,
          "time": 40.70000000000011,
          "velocity": 0.3937007874015748,
          "duration": 0.10000000000000142
        },
        {
          "name": "F5",
          "midi": 77,
          "time": 40.80000000000011,
          "velocity": 0.3937007874015748,
          "duration": 0.10000000000000142
        },
        {
          "name": "F4",
          "midi": 65,
          "time": 40.80000000000011,
          "velocity": 0.3937007874015748,
          "duration": 0.10000000000000142
        },
        {
          "name": "G#4",
          "midi": 68,
          "time": 40.80000000000011,
          "velocity": 0.3937007874015748,
          "duration": 0.10000000000000142
        },
        {
          "name": "G#3",
          "midi": 56,
          "time": 40.80000000000011,
          "velocity": 0.3937007874015748,
          "duration": 0.10000000000000142
        },
        {
          "name": "F#5",
          "midi": 78,
          "time": 41.000000000000114,
          "velocity": 0.3937007874015748,
          "duration": 0.10000000000000142
        },
        {
          "name": "F#4",
          "midi": 66,
          "time": 41.000000000000114,
          "velocity": 0.3937007874015748,
          "duration": 0.10000000000000142
        },
        {
          "name": "G#4",
          "midi": 68,
          "time": 41.000000000000114,
          "velocity": 0.3937007874015748,
          "duration": 0.10000000000000142
        },
        {
          "name": "G#3",
          "midi": 56,
          "time": 41.000000000000114,
          "velocity": 0.3937007874015748,
          "duration": 0.10000000000000142
        },
        {
          "name": "F5",
          "midi": 77,
          "time": 41.20000000000012,
          "velocity": 0.3937007874015748,
          "duration": 0.10000000000000142
        },
        {
          "name": "F4",
          "midi": 65,
          "time": 41.20000000000012,
          "velocity": 0.3937007874015748,
          "duration": 0.10000000000000142
        },
        {
          "name": "A#5",
          "midi": 82,
          "time": 41.20000000000012,
          "velocity": 0.3937007874015748,
          "duration": 0.10000000000000142
        },
        {
          "name": "A#4",
          "midi": 70,
          "time": 41.20000000000012,
          "velocity": 0.3937007874015748,
          "duration": 0.10000000000000142
        },
        {
          "name": "C#5",
          "midi": 73,
          "time": 41.40000000000012,
          "velocity": 0.3937007874015748,
          "duration": 0.10000000000000142
        },
        {
          "name": "C#4",
          "midi": 61,
          "time": 41.40000000000012,
          "velocity": 0.3937007874015748,
          "duration": 0.10000000000000142
        },
        {
          "name": "F4",
          "midi": 65,
          "time": 41.40000000000012,
          "velocity": 0.3937007874015748,
          "duration": 0.10000000000000142
        },
        {
          "name": "F3",
          "midi": 53,
          "time": 41.40000000000012,
          "velocity": 0.3937007874015748,
          "duration": 0.10000000000000142
        },
        {
          "name": "B4",
          "midi": 71,
          "time": 41.60000000000012,
          "velocity": 0.3937007874015748,
          "duration": 0.10000000000000142
        },
        {
          "name": "D#5",
          "midi": 75,
          "time": 41.60000000000012,
          "velocity": 0.3937007874015748,
          "duration": 0.10000000000000142
        },
        {
          "name": "D#4",
          "midi": 63,
          "time": 41.60000000000012,
          "velocity": 0.3937007874015748,
          "duration": 0.10000000000000142
        },
        {
          "name": "B3",
          "midi": 59,
          "time": 41.60000000000012,
          "velocity": 0.3937007874015748,
          "duration": 0.10000000000000142
        },
        {
          "name": "A#5",
          "midi": 82,
          "time": 42.200000000000124,
          "velocity": 0.3937007874015748,
          "duration": 0.10000000000000142
        },
        {
          "name": "A#4",
          "midi": 70,
          "time": 42.200000000000124,
          "velocity": 0.3937007874015748,
          "duration": 0.10000000000000142
        },
        {
          "name": "A#3",
          "midi": 58,
          "time": 42.200000000000124,
          "velocity": 0.3937007874015748,
          "duration": 0.10000000000000142
        },
        {
          "name": "B4",
          "midi": 71,
          "time": 42.40000000000013,
          "velocity": 0.3937007874015748,
          "duration": 0.10000000000000142
        },
        {
          "name": "D#5",
          "midi": 75,
          "time": 42.40000000000013,
          "velocity": 0.3937007874015748,
          "duration": 0.10000000000000142
        },
        {
          "name": "D#4",
          "midi": 63,
          "time": 42.40000000000013,
          "velocity": 0.3937007874015748,
          "duration": 0.10000000000000142
        },
        {
          "name": "B3",
          "midi": 59,
          "time": 42.40000000000013,
          "velocity": 0.3937007874015748,
          "duration": 0.10000000000000142
        },
        {
          "name": "D#5",
          "midi": 75,
          "time": 43.00000000000013,
          "velocity": 0.3937007874015748,
          "duration": 0.10000000000000142
        },
        {
          "name": "F5",
          "midi": 77,
          "time": 43.10000000000013,
          "velocity": 0.3937007874015748,
          "duration": 0.10000000000000142
        },
        {
          "name": "F#5",
          "midi": 78,
          "time": 43.20000000000013,
          "velocity": 0.3937007874015748,
          "duration": 0.10000000000000142
        },
        {
          "name": "A#4",
          "midi": 70,
          "time": 43.30000000000013,
          "velocity": 0.3937007874015748,
          "duration": 0.10000000000000142
        },
        {
          "name": "F5",
          "midi": 77,
          "time": 43.400000000000134,
          "velocity": 0.3937007874015748,
          "duration": 0.10000000000000142
        },
        {
          "name": "A#4",
          "midi": 70,
          "time": 43.500000000000135,
          "velocity": 0.3937007874015748,
          "duration": 0.10000000000000142
        },
        {
          "name": "D#5",
          "midi": 75,
          "time": 43.600000000000136,
          "velocity": 0.3937007874015748,
          "duration": 0.10000000000000142
        },
        {
          "name": "G#4",
          "midi": 68,
          "time": 43.70000000000014,
          "velocity": 0.3937007874015748,
          "duration": 0.10000000000000142
        },
        {
          "name": "C#5",
          "midi": 73,
          "time": 43.80000000000014,
          "velocity": 0.3937007874015748,
          "duration": 0.10000000000000142
        },
        {
          "name": "F4",
          "midi": 65,
          "time": 43.90000000000014,
          "velocity": 0.3937007874015748,
          "duration": 0.10000000000000142
        },
        {
          "name": "F#4",
          "midi": 66,
          "time": 44.00000000000014,
          "velocity": 0.3937007874015748,
          "duration": 0.10000000000000142
        },
        {
          "name": "G#4",
          "midi": 68,
          "time": 44.10000000000014,
          "velocity": 0.3937007874015748,
          "duration": 0.10000000000000142
        },
        {
          "name": "A#4",
          "midi": 70,
          "time": 44.200000000000145,
          "velocity": 0.3937007874015748,
          "duration": 0.10000000000000142
        },
        {
          "name": "D#4",
          "midi": 63,
          "time": 44.300000000000146,
          "velocity": 0.3937007874015748,
          "duration": 0.10000000000000142
        },
        {
          "name": "G#4",
          "midi": 68,
          "time": 44.40000000000015,
          "velocity": 0.3937007874015748,
          "duration": 0.10000000000000142
        },
        {
          "name": "A#4",
          "midi": 70,
          "time": 44.50000000000015,
          "velocity": 0.3937007874015748,
          "duration": 0.10000000000000142
        },
        {
          "name": "F4",
          "midi": 65,
          "time": 44.60000000000015,
          "velocity": 0.3937007874015748,
          "duration": 0.10000000000000142
        },
        {
          "name": "C#5",
          "midi": 73,
          "time": 44.70000000000015,
          "velocity": 0.3937007874015748,
          "duration": 0.10000000000000142
        },
        {
          "name": "F#4",
          "midi": 66,
          "time": 44.80000000000015,
          "velocity": 0.3937007874015748,
          "duration": 0.10000000000000142
        },
        {
          "name": "D#5",
          "midi": 75,
          "time": 44.80000000000015,
          "velocity": 0.3937007874015748,
          "duration": 0.10000000000000142
        },
        {
          "name": "F#3",
          "midi": 54,
          "time": 44.80000000000015,
          "velocity": 0.3937007874015748,
          "duration": 0.10000000000000142
        },
        {
          "name": "F#5",
          "midi": 78,
          "time": 44.80000000000015,
          "velocity": 0.3937007874015748,
          "duration": 0.10000000000000142
        },
        {
          "name": "D#4",
          "midi": 63,
          "time": 44.80000000000015,
          "velocity": 0.3937007874015748,
          "duration": 0.10000000000000142
        },
        {
          "name": "A#4",
          "midi": 70,
          "time": 45.400000000000155,
          "velocity": 0.3937007874015748,
          "duration": 0.10000000000000142
        },
        {
          "name": "A#5",
          "midi": 82,
          "time": 45.400000000000155,
          "velocity": 0.3937007874015748,
          "duration": 0.10000000000000142
        },
        {
          "name": "F#5",
          "midi": 78,
          "time": 45.400000000000155,
          "velocity": 0.3937007874015748,
          "duration": 0.10000000000000142
        },
        {
          "name": "F#4",
          "midi": 66,
          "time": 45.400000000000155,
          "velocity": 0.3937007874015748,
          "duration": 0.10000000000000142
        },
        {
          "name": "F#4",
          "midi": 66,
          "time": 45.60000000000016,
          "velocity": 0.3937007874015748,
          "duration": 0.10000000000000142
        },
        {
          "name": "D#5",
          "midi": 75,
          "time": 45.60000000000016,
          "velocity": 0.3937007874015748,
          "duration": 0.10000000000000142
        },
        {
          "name": "F#5",
          "midi": 78,
          "time": 45.60000000000016,
          "velocity": 0.3937007874015748,
          "duration": 0.10000000000000142
        },
        {
          "name": "D#4",
          "midi": 63,
          "time": 45.60000000000016,
          "velocity": 0.3937007874015748,
          "duration": 0.10000000000000142
        },
        {
          "name": "F#4",
          "midi": 66,
          "time": 46.40000000000016,
          "velocity": 0.3937007874015748,
          "duration": 0.10000000000000142
        },
        {
          "name": "D#6",
          "midi": 87,
          "time": 46.40000000000016,
          "velocity": 0.3937007874015748,
          "duration": 0.10000000000000142
        },
        {
          "name": "D#5",
          "midi": 75,
          "time": 46.40000000000016,
          "velocity": 0.3937007874015748,
          "duration": 0.10000000000000142
        },
        {
          "name": "F#5",
          "midi": 78,
          "time": 46.40000000000016,
          "velocity": 0.3937007874015748,
          "duration": 0.10000000000000142
        },
        {
          "name": "G#5",
          "midi": 80,
          "time": 47.00000000000016,
          "velocity": 0.3937007874015748,
          "duration": 0.10000000000000142
        },
        {
          "name": "A#5",
          "midi": 82,
          "time": 47.100000000000165,
          "velocity": 0.3937007874015748,
          "duration": 0.10000000000000142
        },
        {
          "name": "C#5",
          "midi": 73,
          "time": 47.200000000000166,
          "velocity": 0.3937007874015748,
          "duration": 0.10000000000000142
        },
        {
          "name": "C#6",
          "midi": 85,
          "time": 47.200000000000166,
          "velocity": 0.3937007874015748,
          "duration": 0.10000000000000142
        },
        {
          "name": "F5",
          "midi": 77,
          "time": 47.200000000000166,
          "velocity": 0.3937007874015748,
          "duration": 0.10000000000000142
        },
        {
          "name": "F4",
          "midi": 65,
          "time": 47.200000000000166,
          "velocity": 0.3937007874015748,
          "duration": 0.10000000000000142
        },
        {
          "name": "G#4",
          "midi": 68,
          "time": 47.40000000000017,
          "velocity": 0.3937007874015748,
          "duration": 0.10000000000000142
        },
        {
          "name": "G#5",
          "midi": 80,
          "time": 47.40000000000017,
          "velocity": 0.3937007874015748,
          "duration": 0.10000000000000142
        },
        {
          "name": "F5",
          "midi": 77,
          "time": 47.40000000000017,
          "velocity": 0.3937007874015748,
          "duration": 0.10000000000000142
        },
        {
          "name": "F4",
          "midi": 65,
          "time": 47.40000000000017,
          "velocity": 0.3937007874015748,
          "duration": 0.10000000000000142
        },
        {
          "name": "F4",
          "midi": 65,
          "time": 47.60000000000017,
          "velocity": 0.3937007874015748,
          "duration": 0.10000000000000142
        },
        {
          "name": "F5",
          "midi": 77,
          "time": 47.60000000000017,
          "velocity": 0.3937007874015748,
          "duration": 0.10000000000000142
        },
        {
          "name": "C#5",
          "midi": 73,
          "time": 47.60000000000017,
          "velocity": 0.3937007874015748,
          "duration": 0.10000000000000142
        },
        {
          "name": "C#4",
          "midi": 61,
          "time": 47.60000000000017,
          "velocity": 0.3937007874015748,
          "duration": 0.10000000000000142
        },
        {
          "name": "G#4",
          "midi": 68,
          "time": 47.800000000000175,
          "velocity": 0.3937007874015748,
          "duration": 0.10000000000000142
        },
        {
          "name": "G#5",
          "midi": 80,
          "time": 47.800000000000175,
          "velocity": 0.3937007874015748,
          "duration": 0.10000000000000142
        },
        {
          "name": "F5",
          "midi": 77,
          "time": 47.800000000000175,
          "velocity": 0.3937007874015748,
          "duration": 0.10000000000000142
        },
        {
          "name": "F4",
          "midi": 65,
          "time": 47.800000000000175,
          "velocity": 0.3937007874015748,
          "duration": 0.10000000000000142
        },
        {
          "name": "F#4",
          "midi": 66,
          "time": 48.00000000000018,
          "velocity": 0.3937007874015748,
          "duration": 0.10000000000000142
        },
        {
          "name": "D#5",
          "midi": 75,
          "time": 48.00000000000018,
          "velocity": 0.3937007874015748,
          "duration": 0.10000000000000142
        },
        {
          "name": "F#5",
          "midi": 78,
          "time": 48.00000000000018,
          "velocity": 0.3937007874015748,
          "duration": 0.10000000000000142
        },
        {
          "name": "D#4",
          "midi": 63,
          "time": 48.00000000000018,
          "velocity": 0.3937007874015748,
          "duration": 0.10000000000000142
        },
        {
          "name": "A#4",
          "midi": 70,
          "time": 48.60000000000018,
          "velocity": 0.3937007874015748,
          "duration": 0.10000000000000142
        },
        {
          "name": "A#5",
          "midi": 82,
          "time": 48.60000000000018,
          "velocity": 0.3937007874015748,
          "duration": 0.10000000000000142
        },
        {
          "name": "F#5",
          "midi": 78,
          "time": 48.60000000000018,
          "velocity": 0.3937007874015748,
          "duration": 0.10000000000000142
        },
        {
          "name": "F#4",
          "midi": 66,
          "time": 48.60000000000018,
          "velocity": 0.3937007874015748,
          "duration": 0.10000000000000142
        },
        {
          "name": "F#4",
          "midi": 66,
          "time": 48.80000000000018,
          "velocity": 0.3937007874015748,
          "duration": 0.10000000000000142
        },
        {
          "name": "D#5",
          "midi": 75,
          "time": 48.80000000000018,
          "velocity": 0.3937007874015748,
          "duration": 0.10000000000000142
        },
        {
          "name": "F#5",
          "midi": 78,
          "time": 48.80000000000018,
          "velocity": 0.3937007874015748,
          "duration": 0.10000000000000142
        },
        {
          "name": "D#4",
          "midi": 63,
          "time": 48.80000000000018,
          "velocity": 0.3937007874015748,
          "duration": 0.10000000000000142
        },
        {
          "name": "B5",
          "midi": 83,
          "time": 49.600000000000186,
          "velocity": 0.3937007874015748,
          "duration": 0.10000000000000142
        },
        {
          "name": "B4",
          "midi": 71,
          "time": 49.600000000000186,
          "velocity": 0.3937007874015748,
          "duration": 0.10000000000000142
        },
        {
          "name": "D#6",
          "midi": 87,
          "time": 49.600000000000186,
          "velocity": 0.3937007874015748,
          "duration": 0.10000000000000142
        },
        {
          "name": "D#5",
          "midi": 75,
          "time": 49.600000000000186,
          "velocity": 0.3937007874015748,
          "duration": 0.10000000000000142
        },
        {
          "name": "F#5",
          "midi": 78,
          "time": 49.600000000000186,
          "velocity": 0.3937007874015748,
          "duration": 0.10000000000000142
        },
        {
          "name": "F#4",
          "midi": 66,
          "time": 49.600000000000186,
          "velocity": 0.3937007874015748,
          "duration": 0.10000000000000142
        },
        {
          "name": "A#4",
          "midi": 70,
          "time": 49.80000000000019,
          "velocity": 0.3937007874015748,
          "duration": 0.10000000000000142
        },
        {
          "name": "F4",
          "midi": 65,
          "time": 49.90000000000019,
          "velocity": 0.3937007874015748,
          "duration": 0.10000000000000142
        },
        {
          "name": "F#4",
          "midi": 66,
          "time": 50.00000000000019,
          "velocity": 0.3937007874015748,
          "duration": 0.10000000000000142
        },
        {
          "name": "G#4",
          "midi": 68,
          "time": 50.10000000000019,
          "velocity": 0.3937007874015748,
          "duration": 0.10000000000000142
        },
        {
          "name": "F4",
          "midi": 65,
          "time": 50.200000000000195,
          "velocity": 0.3937007874015748,
          "duration": 0.10000000000000142
        },
        {
          "name": "F#4",
          "midi": 66,
          "time": 50.300000000000196,
          "velocity": 0.3937007874015748,
          "duration": 0.10000000000000142
        },
        {
          "name": "D#4",
          "midi": 63,
          "time": 50.4000000000002,
          "velocity": 0.3937007874015748,
          "duration": 0.10000000000000142
        },
        {
          "name": "F4",
          "midi": 65,
          "time": 50.5000000000002,
          "velocity": 0.3937007874015748,
          "duration": 0.10000000000000142
        },
        {
          "name": "C#4",
          "midi": 61,
          "time": 50.6000000000002,
          "velocity": 0.3937007874015748,
          "duration": 0.10000000000000142
        },
        {
          "name": "D#4",
          "midi": 63,
          "time": 50.7000000000002,
          "velocity": 0.3937007874015748,
          "duration": 0.10000000000000142
        },
        {
          "name": "A#3",
          "midi": 58,
          "time": 50.8000000000002,
          "velocity": 0.3937007874015748,
          "duration": 0.10000000000000142
        },
        {
          "name": "C#4",
          "midi": 61,
          "time": 50.900000000000205,
          "velocity": 0.3937007874015748,
          "duration": 0.10000000000000142
        },
        {
          "name": "G#3",
          "midi": 56,
          "time": 51.000000000000206,
          "velocity": 0.3937007874015748,
          "duration": 0.10000000000000142
        },
        {
          "name": "F#4",
          "midi": 66,
          "time": 51.20000000000021,
          "velocity": 0.3937007874015748,
          "duration": 0.10000000000000142
        },
        {
          "name": "D#5",
          "midi": 75,
          "time": 51.20000000000021,
          "velocity": 0.3937007874015748,
          "duration": 0.10000000000000142
        },
        {
          "name": "F#5",
          "midi": 78,
          "time": 51.20000000000021,
          "velocity": 0.3937007874015748,
          "duration": 0.10000000000000142
        },
        {
          "name": "D#4",
          "midi": 63,
          "time": 51.20000000000021,
          "velocity": 0.3937007874015748,
          "duration": 0.10000000000000142
        },
        {
          "name": "A#4",
          "midi": 70,
          "time": 51.40000000000021,
          "velocity": 0.3937007874015748,
          "duration": 0.10000000000000142
        },
        {
          "name": "D#5",
          "midi": 75,
          "time": 51.50000000000021,
          "velocity": 0.3937007874015748,
          "duration": 0.10000000000000142
        },
        {
          "name": "F5",
          "midi": 77,
          "time": 51.600000000000215,
          "velocity": 0.3937007874015748,
          "duration": 0.10000000000000142
        },
        {
          "name": "A#5",
          "midi": 82,
          "time": 51.700000000000216,
          "velocity": 0.3937007874015748,
          "duration": 0.10000000000000142
        },
        {
          "name": "F5",
          "midi": 77,
          "time": 51.80000000000022,
          "velocity": 0.3937007874015748,
          "duration": 0.10000000000000142
        },
        {
          "name": "F6",
          "midi": 89,
          "time": 51.80000000000022,
          "velocity": 0.3937007874015748,
          "duration": 0.10000000000000142
        },
        {
          "name": "D#6",
          "midi": 87,
          "time": 52.00000000000022,
          "velocity": 0.3937007874015748,
          "duration": 0.10000000000000142
        },
        {
          "name": "F#5",
          "midi": 78,
          "time": 52.00000000000022,
          "velocity": 0.3937007874015748,
          "duration": 0.10000000000000142
        },
        {
          "name": "F#4",
          "midi": 66,
          "time": 52.00000000000022,
          "velocity": 0.3937007874015748,
          "duration": 0.10000000000000142
        },
        {
          "name": "D#5",
          "midi": 75,
          "time": 52.00000000000022,
          "velocity": 0.3937007874015748,
          "duration": 0.10000000000000142
        },
        {
          "name": "D#5",
          "midi": 75,
          "time": 52.800000000000225,
          "velocity": 0.3937007874015748,
          "duration": 0.10000000000000142
        },
        {
          "name": "F#5",
          "midi": 78,
          "time": 52.800000000000225,
          "velocity": 0.3937007874015748,
          "duration": 0.10000000000000142
        },
        {
          "name": "F#6",
          "midi": 90,
          "time": 52.800000000000225,
          "velocity": 0.3937007874015748,
          "duration": 0.10000000000000142
        },
        {
          "name": "D#6",
          "midi": 87,
          "time": 52.800000000000225,
          "velocity": 0.3937007874015748,
          "duration": 0.10000000000000142
        },
        {
          "name": "A#4",
          "midi": 70,
          "time": 52.900000000000226,
          "velocity": 0.3937007874015748,
          "duration": 0.10000000000000142
        },
        {
          "name": "F5",
          "midi": 77,
          "time": 53.00000000000023,
          "velocity": 0.3937007874015748,
          "duration": 0.10000000000000142
        },
        {
          "name": "D#5",
          "midi": 75,
          "time": 53.10000000000023,
          "velocity": 0.3937007874015748,
          "duration": 0.10000000000000142
        },
        {
          "name": "C#5",
          "midi": 73,
          "time": 53.20000000000023,
          "velocity": 0.3937007874015748,
          "duration": 0.10000000000000142
        },
        {
          "name": "A#4",
          "midi": 70,
          "time": 53.30000000000023,
          "velocity": 0.3937007874015748,
          "duration": 0.10000000000000142
        },
        {
          "name": "C#5",
          "midi": 73,
          "time": 53.40000000000023,
          "velocity": 0.3937007874015748,
          "duration": 0.10000000000000142
        },
        {
          "name": "D#5",
          "midi": 75,
          "time": 53.500000000000234,
          "velocity": 0.3937007874015748,
          "duration": 0.10000000000000142
        },
        {
          "name": "F5",
          "midi": 77,
          "time": 53.600000000000236,
          "velocity": 0.3937007874015748,
          "duration": 0.10000000000000142
        },
        {
          "name": "F6",
          "midi": 89,
          "time": 53.600000000000236,
          "velocity": 0.3937007874015748,
          "duration": 0.10000000000000142
        },
        {
          "name": "G#4",
          "midi": 68,
          "time": 53.600000000000236,
          "velocity": 0.3937007874015748,
          "duration": 0.10000000000000142
        },
        {
          "name": "G#5",
          "midi": 80,
          "time": 53.600000000000236,
          "velocity": 0.3937007874015748,
          "duration": 0.10000000000000142
        },
        {
          "name": "F#5",
          "midi": 78,
          "time": 53.80000000000024,
          "velocity": 0.3937007874015748,
          "duration": 0.10000000000000142
        },
        {
          "name": "F#6",
          "midi": 90,
          "time": 53.80000000000024,
          "velocity": 0.3937007874015748,
          "duration": 0.10000000000000142
        },
        {
          "name": "G#4",
          "midi": 68,
          "time": 53.80000000000024,
          "velocity": 0.3937007874015748,
          "duration": 0.10000000000000142
        },
        {
          "name": "G#5",
          "midi": 80,
          "time": 53.80000000000024,
          "velocity": 0.3937007874015748,
          "duration": 0.10000000000000142
        },
        {
          "name": "F5",
          "midi": 77,
          "time": 54.00000000000024,
          "velocity": 0.3937007874015748,
          "duration": 0.10000000000000142
        },
        {
          "name": "F6",
          "midi": 89,
          "time": 54.00000000000024,
          "velocity": 0.3937007874015748,
          "duration": 0.10000000000000142
        },
        {
          "name": "A#5",
          "midi": 82,
          "time": 54.00000000000024,
          "velocity": 0.3937007874015748,
          "duration": 0.10000000000000142
        },
        {
          "name": "A#6",
          "midi": 94,
          "time": 54.00000000000024,
          "velocity": 0.3937007874015748,
          "duration": 0.10000000000000142
        },
        {
          "name": "C#5",
          "midi": 73,
          "time": 54.200000000000244,
          "velocity": 0.3937007874015748,
          "duration": 0.10000000000000142
        },
        {
          "name": "F5",
          "midi": 77,
          "time": 54.200000000000244,
          "velocity": 0.3937007874015748,
          "duration": 0.10000000000000142
        },
        {
          "name": "F4",
          "midi": 65,
          "time": 54.200000000000244,
          "velocity": 0.3937007874015748,
          "duration": 0.10000000000000142
        },
        {
          "name": "F3",
          "midi": 53,
          "time": 54.200000000000244,
          "velocity": 0.3937007874015748,
          "duration": 0.10000000000000142
        },
        {
          "name": "C#6",
          "midi": 85,
          "time": 54.200000000000244,
          "velocity": 0.3937007874015748,
          "duration": 0.10000000000000142
        },
        {
          "name": "B5",
          "midi": 83,
          "time": 54.40000000000025,
          "velocity": 0.3937007874015748,
          "duration": 0.10000000000000142
        },
        {
          "name": "D#6",
          "midi": 87,
          "time": 54.40000000000025,
          "velocity": 0.3937007874015748,
          "duration": 0.10000000000000142
        },
        {
          "name": "D#5",
          "midi": 75,
          "time": 54.40000000000025,
          "velocity": 0.3937007874015748,
          "duration": 0.10000000000000142
        },
        {
          "name": "B4",
          "midi": 71,
          "time": 54.40000000000025,
          "velocity": 0.3937007874015748,
          "duration": 0.10000000000000142
        },
        {
          "name": "A#5",
          "midi": 82,
          "time": 55.00000000000025,
          "velocity": 0.3937007874015748,
          "duration": 0.10000000000000142
        },
        {
          "name": "A#4",
          "midi": 70,
          "time": 55.00000000000025,
          "velocity": 0.3937007874015748,
          "duration": 0.10000000000000142
        },
        {
          "name": "A#6",
          "midi": 94,
          "time": 55.00000000000025,
          "velocity": 0.3937007874015748,
          "duration": 0.10000000000000142
        },
        {
          "name": "B5",
          "midi": 83,
          "time": 55.20000000000025,
          "velocity": 0.3937007874015748,
          "duration": 0.10000000000000142
        },
        {
          "name": "D#6",
          "midi": 87,
          "time": 55.20000000000025,
          "velocity": 0.3937007874015748,
          "duration": 0.10000000000000142
        },
        {
          "name": "D#5",
          "midi": 75,
          "time": 55.20000000000025,
          "velocity": 0.3937007874015748,
          "duration": 0.10000000000000142
        },
        {
          "name": "B4",
          "midi": 71,
          "time": 55.20000000000025,
          "velocity": 0.3937007874015748,
          "duration": 0.10000000000000142
        },
        {
          "name": "D#5",
          "midi": 75,
          "time": 55.80000000000025,
          "velocity": 0.3937007874015748,
          "duration": 0.10000000000000142
        },
        {
          "name": "F5",
          "midi": 77,
          "time": 55.900000000000254,
          "velocity": 0.3937007874015748,
          "duration": 0.10000000000000142
        },
        {
          "name": "F#5",
          "midi": 78,
          "time": 56.000000000000256,
          "velocity": 0.3937007874015748,
          "duration": 0.10000000000000142
        },
        {
          "name": "A#4",
          "midi": 70,
          "time": 56.10000000000026,
          "velocity": 0.3937007874015748,
          "duration": 0.10000000000000142
        },
        {
          "name": "F5",
          "midi": 77,
          "time": 56.20000000000026,
          "velocity": 0.3937007874015748,
          "duration": 0.10000000000000142
        },
        {
          "name": "A#4",
          "midi": 70,
          "time": 56.30000000000026,
          "velocity": 0.3937007874015748,
          "duration": 0.10000000000000142
        },
        {
          "name": "D#5",
          "midi": 75,
          "time": 56.40000000000026,
          "velocity": 0.3937007874015748,
          "duration": 0.10000000000000142
        },
        {
          "name": "G#4",
          "midi": 68,
          "time": 56.50000000000026,
          "velocity": 0.3937007874015748,
          "duration": 0.10000000000000142
        },
        {
          "name": "C#5",
          "midi": 73,
          "time": 56.600000000000264,
          "velocity": 0.3937007874015748,
          "duration": 0.10000000000000142
        },
        {
          "name": "F4",
          "midi": 65,
          "time": 56.700000000000266,
          "velocity": 0.3937007874015748,
          "duration": 0.10000000000000142
        },
        {
          "name": "F#4",
          "midi": 66,
          "time": 56.80000000000027,
          "velocity": 0.3937007874015748,
          "duration": 0.10000000000000142
        },
        {
          "name": "G#4",
          "midi": 68,
          "time": 56.90000000000027,
          "velocity": 0.3937007874015748,
          "duration": 0.10000000000000142
        },
        {
          "name": "A#4",
          "midi": 70,
          "time": 57.00000000000027,
          "velocity": 0.3937007874015748,
          "duration": 0.10000000000000142
        },
        {
          "name": "D#4",
          "midi": 63,
          "time": 57.10000000000027,
          "velocity": 0.3937007874015748,
          "duration": 0.10000000000000142
        },
        {
          "name": "G#4",
          "midi": 68,
          "time": 57.20000000000027,
          "velocity": 0.3937007874015748,
          "duration": 0.10000000000000142
        },
        {
          "name": "A#4",
          "midi": 70,
          "time": 57.300000000000274,
          "velocity": 0.3937007874015748,
          "duration": 0.10000000000000142
        },
        {
          "name": "F4",
          "midi": 65,
          "time": 57.400000000000276,
          "velocity": 0.3937007874015748,
          "duration": 0.10000000000000142
        },
        {
          "name": "C#5",
          "midi": 73,
          "time": 57.50000000000028,
          "velocity": 0.3937007874015748,
          "duration": 0.10000000000000142
        },
        {
          "name": "F#4",
          "midi": 66,
          "time": 57.60000000000028,
          "velocity": 0.3937007874015748,
          "duration": 0.10000000000000142
        },
        {
          "name": "A#4",
          "midi": 70,
          "time": 57.60000000000028,
          "velocity": 0.3937007874015748,
          "duration": 0.10000000000000142
        },
        {
          "name": "F#3",
          "midi": 54,
          "time": 57.60000000000028,
          "velocity": 0.3937007874015748,
          "duration": 0.10000000000000142
        },
        {
          "name": "A#3",
          "midi": 58,
          "time": 57.60000000000028,
          "velocity": 0.3937007874015748,
          "duration": 0.10000000000000142
        },
        {
          "name": "D#5",
          "midi": 75,
          "time": 58.20000000000028,
          "velocity": 0.3937007874015748,
          "duration": 0.10000000000000142
        },
        {
          "name": "F4",
          "midi": 65,
          "time": 58.20000000000028,
          "velocity": 0.3937007874015748,
          "duration": 0.10000000000000142
        },
        {
          "name": "F3",
          "midi": 53,
          "time": 58.20000000000028,
          "velocity": 0.3937007874015748,
          "duration": 0.10000000000000142
        },
        {
          "name": "D#4",
          "midi": 63,
          "time": 58.20000000000028,
          "velocity": 0.3937007874015748,
          "duration": 0.10000000000000142
        },
        {
          "name": "A#3",
          "midi": 58,
          "time": 58.40000000000028,
          "velocity": 0.3937007874015748,
          "duration": 0.10000000000000142
        },
        {
          "name": "F#3",
          "midi": 54,
          "time": 58.40000000000028,
          "velocity": 0.3937007874015748,
          "duration": 0.10000000000000142
        },
        {
          "name": "F#4",
          "midi": 66,
          "time": 58.40000000000028,
          "velocity": 0.3937007874015748,
          "duration": 0.10000000000000142
        },
        {
          "name": "A#4",
          "midi": 70,
          "time": 58.40000000000028,
          "velocity": 0.3937007874015748,
          "duration": 0.10000000000000142
        },
        {
          "name": "A#4",
          "midi": 70,
          "time": 59.20000000000029,
          "velocity": 0.3937007874015748,
          "duration": 0.10000000000000142
        },
        {
          "name": "F#5",
          "midi": 78,
          "time": 59.20000000000029,
          "velocity": 0.3937007874015748,
          "duration": 0.10000000000000142
        },
        {
          "name": "A#3",
          "midi": 58,
          "time": 59.20000000000029,
          "velocity": 0.3937007874015748,
          "duration": 0.10000000000000142
        },
        {
          "name": "F#4",
          "midi": 66,
          "time": 59.20000000000029,
          "velocity": 0.3937007874015748,
          "duration": 0.10000000000000142
        },
        {
          "name": "C#5",
          "midi": 73,
          "time": 59.80000000000029,
          "velocity": 0.3937007874015748,
          "duration": 0.10000000000000142
        },
        {
          "name": "D#5",
          "midi": 75,
          "time": 59.90000000000029,
          "velocity": 0.3937007874015748,
          "duration": 0.10000000000000142
        },
        {
          "name": "F5",
          "midi": 77,
          "time": 60.00000000000029,
          "velocity": 0.3937007874015748,
          "duration": 0.10000000000000142
        },
        {
          "name": "G#4",
          "midi": 68,
          "time": 60.00000000000029,
          "velocity": 0.3937007874015748,
          "duration": 0.10000000000000142
        },
        {
          "name": "F4",
          "midi": 65,
          "time": 60.00000000000029,
          "velocity": 0.3937007874015748,
          "duration": 0.10000000000000142
        },
        {
          "name": "G#3",
          "midi": 56,
          "time": 60.00000000000029,
          "velocity": 0.3937007874015748,
          "duration": 0.10000000000000142
        },
        {
          "name": "F#5",
          "midi": 78,
          "time": 60.200000000000294,
          "velocity": 0.3937007874015748,
          "duration": 0.10000000000000142
        },
        {
          "name": "G#4",
          "midi": 68,
          "time": 60.200000000000294,
          "velocity": 0.3937007874015748,
          "duration": 0.10000000000000142
        },
        {
          "name": "F#4",
          "midi": 66,
          "time": 60.200000000000294,
          "velocity": 0.3937007874015748,
          "duration": 0.10000000000000142
        },
        {
          "name": "G#3",
          "midi": 56,
          "time": 60.200000000000294,
          "velocity": 0.3937007874015748,
          "duration": 0.10000000000000142
        },
        {
          "name": "C#5",
          "midi": 73,
          "time": 60.4000000000003,
          "velocity": 0.3937007874015748,
          "duration": 0.10000000000000142
        },
        {
          "name": "F4",
          "midi": 65,
          "time": 60.4000000000003,
          "velocity": 0.3937007874015748,
          "duration": 0.10000000000000142
        },
        {
          "name": "C#4",
          "midi": 61,
          "time": 60.4000000000003,
          "velocity": 0.3937007874015748,
          "duration": 0.10000000000000142
        },
        {
          "name": "F3",
          "midi": 53,
          "time": 60.4000000000003,
          "velocity": 0.3937007874015748,
          "duration": 0.10000000000000142
        },
        {
          "name": "D#5",
          "midi": 75,
          "time": 60.6000000000003,
          "velocity": 0.3937007874015748,
          "duration": 0.10000000000000142
        },
        {
          "name": "F4",
          "midi": 65,
          "time": 60.6000000000003,
          "velocity": 0.3937007874015748,
          "duration": 0.10000000000000142
        },
        {
          "name": "D#4",
          "midi": 63,
          "time": 60.6000000000003,
          "velocity": 0.3937007874015748,
          "duration": 0.10000000000000142
        },
        {
          "name": "F3",
          "midi": 53,
          "time": 60.6000000000003,
          "velocity": 0.3937007874015748,
          "duration": 0.10000000000000142
        },
        {
          "name": "F#4",
          "midi": 66,
          "time": 60.8000000000003,
          "velocity": 0.3937007874015748,
          "duration": 0.10000000000000142
        },
        {
          "name": "A#4",
          "midi": 70,
          "time": 60.8000000000003,
          "velocity": 0.3937007874015748,
          "duration": 0.10000000000000142
        },
        {
          "name": "F#3",
          "midi": 54,
          "time": 60.8000000000003,
          "velocity": 0.3937007874015748,
          "duration": 0.10000000000000142
        },
        {
          "name": "A#3",
          "midi": 58,
          "time": 60.8000000000003,
          "velocity": 0.3937007874015748,
          "duration": 0.10000000000000142
        },
        {
          "name": "D#5",
          "midi": 75,
          "time": 61.400000000000304,
          "velocity": 0.3937007874015748,
          "duration": 0.10000000000000142
        },
        {
          "name": "F4",
          "midi": 65,
          "time": 61.400000000000304,
          "velocity": 0.3937007874015748,
          "duration": 0.10000000000000142
        },
        {
          "name": "F3",
          "midi": 53,
          "time": 61.400000000000304,
          "velocity": 0.3937007874015748,
          "duration": 0.10000000000000142
        },
        {
          "name": "D#4",
          "midi": 63,
          "time": 61.400000000000304,
          "velocity": 0.3937007874015748,
          "duration": 0.10000000000000142
        },
        {
          "name": "A#3",
          "midi": 58,
          "time": 61.60000000000031,
          "velocity": 0.3937007874015748,
          "duration": 0.10000000000000142
        },
        {
          "name": "F#3",
          "midi": 54,
          "time": 61.60000000000031,
          "velocity": 0.3937007874015748,
          "duration": 0.10000000000000142
        },
        {
          "name": "F#4",
          "midi": 66,
          "time": 61.60000000000031,
          "velocity": 0.3937007874015748,
          "duration": 0.10000000000000142
        },
        {
          "name": "A#4",
          "midi": 70,
          "time": 61.60000000000031,
          "velocity": 0.3937007874015748,
          "duration": 0.10000000000000142
        },
        {
          "name": "A#4",
          "midi": 70,
          "time": 62.40000000000031,
          "velocity": 0.3937007874015748,
          "duration": 0.10000000000000142
        },
        {
          "name": "F#5",
          "midi": 78,
          "time": 62.40000000000031,
          "velocity": 0.3937007874015748,
          "duration": 0.10000000000000142
        },
        {
          "name": "A#3",
          "midi": 58,
          "time": 62.40000000000031,
          "velocity": 0.3937007874015748,
          "duration": 0.10000000000000142
        },
        {
          "name": "F#4",
          "midi": 66,
          "time": 62.40000000000031,
          "velocity": 0.3937007874015748,
          "duration": 0.10000000000000142
        },
        {
          "name": "A#4",
          "midi": 70,
          "time": 63.40000000000031,
          "velocity": 0.3937007874015748,
          "duration": 0.10000000000000142
        },
        {
          "name": "C#5",
          "midi": 73,
          "time": 63.40000000000031,
          "velocity": 0.3937007874015748,
          "duration": 0.10000000000000142
        },
        {
          "name": "A#3",
          "midi": 58,
          "time": 63.40000000000031,
          "velocity": 0.3937007874015748,
          "duration": 0.10000000000000142
        },
        {
          "name": "C#4",
          "midi": 61,
          "time": 63.40000000000031,
          "velocity": 0.3937007874015748,
          "duration": 0.10000000000000142
        },
        {
          "name": "F#3",
          "midi": 54,
          "time": 63.600000000000314,
          "velocity": 0.3937007874015748,
          "duration": 0.10000000000000142
        },
        {
          "name": "F#4",
          "midi": 66,
          "time": 63.600000000000314,
          "velocity": 0.3937007874015748,
          "duration": 0.10000000000000142
        },
        {
          "name": "C#4",
          "midi": 61,
          "time": 63.600000000000314,
          "velocity": 0.3937007874015748,
          "duration": 0.10000000000000142
        },
        {
          "name": "C#3",
          "midi": 49,
          "time": 63.600000000000314,
          "velocity": 0.3937007874015748,
          "duration": 0.10000000000000142
        },
        {
          "name": "G#3",
          "midi": 56,
          "time": 63.80000000000032,
          "velocity": 0.3937007874015748,
          "duration": 0.10000000000000142
        },
        {
          "name": "G#4",
          "midi": 68,
          "time": 63.80000000000032,
          "velocity": 0.3937007874015748,
          "duration": 0.10000000000000142
        },
        {
          "name": "F4",
          "midi": 65,
          "time": 63.80000000000032,
          "velocity": 0.3937007874015748,
          "duration": 0.10000000000000142
        },
        {
          "name": "F3",
          "midi": 53,
          "time": 63.80000000000032,
          "velocity": 0.3937007874015748,
          "duration": 0.10000000000000142
        },
        {
          "name": "F#4",
          "midi": 66,
          "time": 64.00000000000031,
          "velocity": 0.3937007874015748,
          "duration": 0.09999999999999432
        },
        {
          "name": "A#4",
          "midi": 70,
          "time": 64.00000000000031,
          "velocity": 0.3937007874015748,
          "duration": 0.09999999999999432
        },
        {
          "name": "F#3",
          "midi": 54,
          "time": 64.00000000000031,
          "velocity": 0.3937007874015748,
          "duration": 0.09999999999999432
        },
        {
          "name": "A#3",
          "midi": 58,
          "time": 64.00000000000031,
          "velocity": 0.3937007874015748,
          "duration": 0.09999999999999432
        },
        {
          "name": "D#5",
          "midi": 75,
          "time": 64.6000000000003,
          "velocity": 0.3937007874015748,
          "duration": 0.09999999999999432
        },
        {
          "name": "F4",
          "midi": 65,
          "time": 64.6000000000003,
          "velocity": 0.3937007874015748,
          "duration": 0.09999999999999432
        },
        {
          "name": "F3",
          "midi": 53,
          "time": 64.6000000000003,
          "velocity": 0.3937007874015748,
          "duration": 0.09999999999999432
        },
        {
          "name": "D#4",
          "midi": 63,
          "time": 64.6000000000003,
          "velocity": 0.3937007874015748,
          "duration": 0.09999999999999432
        },
        {
          "name": "A#3",
          "midi": 58,
          "time": 64.8000000000003,
          "velocity": 0.3937007874015748,
          "duration": 0.09999999999999432
        },
        {
          "name": "F#3",
          "midi": 54,
          "time": 64.8000000000003,
          "velocity": 0.3937007874015748,
          "duration": 0.09999999999999432
        },
        {
          "name": "F#4",
          "midi": 66,
          "time": 64.8000000000003,
          "velocity": 0.3937007874015748,
          "duration": 0.09999999999999432
        },
        {
          "name": "A#4",
          "midi": 70,
          "time": 64.8000000000003,
          "velocity": 0.3937007874015748,
          "duration": 0.09999999999999432
        },
        {
          "name": "A#4",
          "midi": 70,
          "time": 65.60000000000029,
          "velocity": 0.3937007874015748,
          "duration": 0.09999999999999432
        },
        {
          "name": "F#5",
          "midi": 78,
          "time": 65.60000000000029,
          "velocity": 0.3937007874015748,
          "duration": 0.09999999999999432
        },
        {
          "name": "A#3",
          "midi": 58,
          "time": 65.60000000000029,
          "velocity": 0.3937007874015748,
          "duration": 0.09999999999999432
        },
        {
          "name": "F#4",
          "midi": 66,
          "time": 65.60000000000029,
          "velocity": 0.3937007874015748,
          "duration": 0.09999999999999432
        },
        {
          "name": "C#5",
          "midi": 73,
          "time": 66.20000000000029,
          "velocity": 0.3937007874015748,
          "duration": 0.09999999999999432
        },
        {
          "name": "D#5",
          "midi": 75,
          "time": 66.30000000000028,
          "velocity": 0.3937007874015748,
          "duration": 0.09999999999999432
        },
        {
          "name": "F5",
          "midi": 77,
          "time": 66.40000000000028,
          "velocity": 0.3937007874015748,
          "duration": 0.09999999999999432
        },
        {
          "name": "G#4",
          "midi": 68,
          "time": 66.40000000000028,
          "velocity": 0.3937007874015748,
          "duration": 0.09999999999999432
        },
        {
          "name": "F4",
          "midi": 65,
          "time": 66.40000000000028,
          "velocity": 0.3937007874015748,
          "duration": 0.09999999999999432
        },
        {
          "name": "G#3",
          "midi": 56,
          "time": 66.40000000000028,
          "velocity": 0.3937007874015748,
          "duration": 0.09999999999999432
        },
        {
          "name": "F#5",
          "midi": 78,
          "time": 66.60000000000026,
          "velocity": 0.3937007874015748,
          "duration": 0.09999999999999432
        },
        {
          "name": "G#4",
          "midi": 68,
          "time": 66.60000000000026,
          "velocity": 0.3937007874015748,
          "duration": 0.09999999999999432
        },
        {
          "name": "F#4",
          "midi": 66,
          "time": 66.60000000000026,
          "velocity": 0.3937007874015748,
          "duration": 0.09999999999999432
        },
        {
          "name": "G#3",
          "midi": 56,
          "time": 66.60000000000026,
          "velocity": 0.3937007874015748,
          "duration": 0.09999999999999432
        },
        {
          "name": "A#5",
          "midi": 82,
          "time": 66.80000000000025,
          "velocity": 0.3937007874015748,
          "duration": 0.09999999999999432
        },
        {
          "name": "F5",
          "midi": 77,
          "time": 66.80000000000025,
          "velocity": 0.3937007874015748,
          "duration": 0.09999999999999432
        },
        {
          "name": "A#4",
          "midi": 70,
          "time": 66.80000000000025,
          "velocity": 0.3937007874015748,
          "duration": 0.09999999999999432
        },
        {
          "name": "F4",
          "midi": 65,
          "time": 66.80000000000025,
          "velocity": 0.3937007874015748,
          "duration": 0.09999999999999432
        },
        {
          "name": "C#5",
          "midi": 73,
          "time": 67.00000000000024,
          "velocity": 0.3937007874015748,
          "duration": 0.09999999999999432
        },
        {
          "name": "F4",
          "midi": 65,
          "time": 67.00000000000024,
          "velocity": 0.3937007874015748,
          "duration": 0.09999999999999432
        },
        {
          "name": "F3",
          "midi": 53,
          "time": 67.00000000000024,
          "velocity": 0.3937007874015748,
          "duration": 0.09999999999999432
        },
        {
          "name": "C#4",
          "midi": 61,
          "time": 67.00000000000024,
          "velocity": 0.3937007874015748,
          "duration": 0.09999999999999432
        },
        {
          "name": "B3",
          "midi": 59,
          "time": 67.20000000000023,
          "velocity": 0.3937007874015748,
          "duration": 0.09999999999999432
        },
        {
          "name": "D#4",
          "midi": 63,
          "time": 67.20000000000023,
          "velocity": 0.3937007874015748,
          "duration": 0.09999999999999432
        },
        {
          "name": "D#5",
          "midi": 75,
          "time": 67.20000000000023,
          "velocity": 0.3937007874015748,
          "duration": 0.09999999999999432
        },
        {
          "name": "B4",
          "midi": 71,
          "time": 67.20000000000023,
          "velocity": 0.3937007874015748,
          "duration": 0.09999999999999432
        },
        {
          "name": "A#5",
          "midi": 82,
          "time": 67.80000000000022,
          "velocity": 0.3937007874015748,
          "duration": 0.09999999999999432
        },
        {
          "name": "A#4",
          "midi": 70,
          "time": 67.80000000000022,
          "velocity": 0.3937007874015748,
          "duration": 0.09999999999999432
        },
        {
          "name": "A#3",
          "midi": 58,
          "time": 67.80000000000022,
          "velocity": 0.3937007874015748,
          "duration": 0.09999999999999432
        },
        {
          "name": "D#4",
          "midi": 63,
          "time": 68.00000000000021,
          "velocity": 0.3937007874015748,
          "duration": 0.09999999999999432
        },
        {
          "name": "B3",
          "midi": 59,
          "time": 68.00000000000021,
          "velocity": 0.3937007874015748,
          "duration": 0.09999999999999432
        },
        {
          "name": "B4",
          "midi": 71,
          "time": 68.00000000000021,
          "velocity": 0.3937007874015748,
          "duration": 0.09999999999999432
        },
        {
          "name": "D#5",
          "midi": 75,
          "time": 68.00000000000021,
          "velocity": 0.3937007874015748,
          "duration": 0.09999999999999432
        },
        {
          "name": "F#3",
          "midi": 54,
          "time": 69.00000000000021,
          "velocity": 0.3937007874015748,
          "duration": 0.09999999999999432
        },
        {
          "name": "F#4",
          "midi": 66,
          "time": 69.00000000000021,
          "velocity": 0.3937007874015748,
          "duration": 0.09999999999999432
        },
        {
          "name": "G#3",
          "midi": 56,
          "time": 69.2000000000002,
          "velocity": 0.3937007874015748,
          "duration": 0.09999999999999432
        },
        {
          "name": "G#4",
          "midi": 68,
          "time": 69.2000000000002,
          "velocity": 0.3937007874015748,
          "duration": 0.09999999999999432
        },
        {
          "name": "C#4",
          "midi": 61,
          "time": 69.2000000000002,
          "velocity": 0.3937007874015748,
          "duration": 0.09999999999999432
        },
        {
          "name": "C#5",
          "midi": 73,
          "time": 69.2000000000002,
          "velocity": 0.3937007874015748,
          "duration": 0.09999999999999432
        },
        {
          "name": "C#5",
          "midi": 73,
          "time": 69.8000000000002,
          "velocity": 0.3937007874015748,
          "duration": 0.09999999999999432
        },
        {
          "name": "F#5",
          "midi": 78,
          "time": 69.8000000000002,
          "velocity": 0.3937007874015748,
          "duration": 0.09999999999999432
        },
        {
          "name": "C#4",
          "midi": 61,
          "time": 69.8000000000002,
          "velocity": 0.3937007874015748,
          "duration": 0.09999999999999432
        },
        {
          "name": "F#4",
          "midi": 66,
          "time": 69.8000000000002,
          "velocity": 0.3937007874015748,
          "duration": 0.09999999999999432
        },
        {
          "name": "B3",
          "midi": 59,
          "time": 70.00000000000018,
          "velocity": 0.3937007874015748,
          "duration": 0.09999999999999432
        },
        {
          "name": "B4",
          "midi": 71,
          "time": 70.00000000000018,
          "velocity": 0.3937007874015748,
          "duration": 0.09999999999999432
        },
        {
          "name": "C#4",
          "midi": 61,
          "time": 70.20000000000017,
          "velocity": 0.3937007874015748,
          "duration": 0.09999999999999432
        },
        {
          "name": "C#5",
          "midi": 73,
          "time": 70.20000000000017,
          "velocity": 0.3937007874015748,
          "duration": 0.09999999999999432
        },
        {
          "name": "F#4",
          "midi": 66,
          "time": 70.40000000000016,
          "velocity": 0.3937007874015748,
          "duration": 0.09999999999999432
        },
        {
          "name": "F#5",
          "midi": 78,
          "time": 70.40000000000016,
          "velocity": 0.3937007874015748,
          "duration": 0.09999999999999432
        },
        {
          "name": "D#5",
          "midi": 75,
          "time": 70.40000000000016,
          "velocity": 0.3937007874015748,
          "duration": 0.09999999999999432
        },
        {
          "name": "D#4",
          "midi": 63,
          "time": 70.40000000000016,
          "velocity": 0.3937007874015748,
          "duration": 0.09999999999999432
        },
        {
          "name": "A#5",
          "midi": 82,
          "time": 71.00000000000016,
          "velocity": 0.3937007874015748,
          "duration": 0.09999999999999432
        },
        {
          "name": "A#4",
          "midi": 70,
          "time": 71.00000000000016,
          "velocity": 0.3937007874015748,
          "duration": 0.09999999999999432
        },
        {
          "name": "A#3",
          "midi": 58,
          "time": 71.00000000000016,
          "velocity": 0.3937007874015748,
          "duration": 0.09999999999999432
        },
        {
          "name": "F#4",
          "midi": 66,
          "time": 71.20000000000014,
          "velocity": 0.3937007874015748,
          "duration": 0.09999999999999432
        },
        {
          "name": "F#5",
          "midi": 78,
          "time": 71.20000000000014,
          "velocity": 0.3937007874015748,
          "duration": 0.09999999999999432
        },
        {
          "name": "D#5",
          "midi": 75,
          "time": 71.20000000000014,
          "velocity": 0.3937007874015748,
          "duration": 0.09999999999999432
        },
        {
          "name": "D#4",
          "midi": 63,
          "time": 71.20000000000014,
          "velocity": 0.3937007874015748,
          "duration": 0.09999999999999432
        },
        {
          "name": "D#6",
          "midi": 87,
          "time": 72.00000000000014,
          "velocity": 0.3937007874015748,
          "duration": 0.09999999999999432
        },
        {
          "name": "F#5",
          "midi": 78,
          "time": 72.00000000000014,
          "velocity": 0.3937007874015748,
          "duration": 0.09999999999999432
        },
        {
          "name": "F#4",
          "midi": 66,
          "time": 72.00000000000014,
          "velocity": 0.3937007874015748,
          "duration": 0.09999999999999432
        },
        {
          "name": "D#5",
          "midi": 75,
          "time": 72.00000000000014,
          "velocity": 0.3937007874015748,
          "duration": 0.09999999999999432
        },
        {
          "name": "G#5",
          "midi": 80,
          "time": 72.60000000000014,
          "velocity": 0.3937007874015748,
          "duration": 0.09999999999999432
        },
        {
          "name": "A#5",
          "midi": 82,
          "time": 72.70000000000013,
          "velocity": 0.3937007874015748,
          "duration": 0.09999999999999432
        },
        {
          "name": "F5",
          "midi": 77,
          "time": 72.80000000000013,
          "velocity": 0.3937007874015748,
          "duration": 0.09999999999999432
        },
        {
          "name": "C#5",
          "midi": 73,
          "time": 72.80000000000013,
          "velocity": 0.3937007874015748,
          "duration": 0.09999999999999432
        },
        {
          "name": "F4",
          "midi": 65,
          "time": 72.80000000000013,
          "velocity": 0.3937007874015748,
          "duration": 0.09999999999999432
        },
        {
          "name": "C#6",
          "midi": 85,
          "time": 72.80000000000013,
          "velocity": 0.3937007874015748,
          "duration": 0.09999999999999432
        },
        {
          "name": "F5",
          "midi": 77,
          "time": 73.00000000000011,
          "velocity": 0.3937007874015748,
          "duration": 0.09999999999999432
        },
        {
          "name": "G#4",
          "midi": 68,
          "time": 73.00000000000011,
          "velocity": 0.3937007874015748,
          "duration": 0.09999999999999432
        },
        {
          "name": "F4",
          "midi": 65,
          "time": 73.00000000000011,
          "velocity": 0.3937007874015748,
          "duration": 0.09999999999999432
        },
        {
          "name": "G#5",
          "midi": 80,
          "time": 73.00000000000011,
          "velocity": 0.3937007874015748,
          "duration": 0.09999999999999432
        },
        {
          "name": "C#5",
          "midi": 73,
          "time": 73.2000000000001,
          "velocity": 0.3937007874015748,
          "duration": 0.09999999999999432
        },
        {
          "name": "F4",
          "midi": 65,
          "time": 73.2000000000001,
          "velocity": 0.3937007874015748,
          "duration": 0.09999999999999432
        },
        {
          "name": "C#4",
          "midi": 61,
          "time": 73.2000000000001,
          "velocity": 0.3937007874015748,
          "duration": 0.09999999999999432
        },
        {
          "name": "F5",
          "midi": 77,
          "time": 73.2000000000001,
          "velocity": 0.3937007874015748,
          "duration": 0.09999999999999432
        },
        {
          "name": "F5",
          "midi": 77,
          "time": 73.40000000000009,
          "velocity": 0.3937007874015748,
          "duration": 0.09999999999999432
        },
        {
          "name": "G#4",
          "midi": 68,
          "time": 73.40000000000009,
          "velocity": 0.3937007874015748,
          "duration": 0.09999999999999432
        },
        {
          "name": "F4",
          "midi": 65,
          "time": 73.40000000000009,
          "velocity": 0.3937007874015748,
          "duration": 0.09999999999999432
        },
        {
          "name": "G#5",
          "midi": 80,
          "time": 73.40000000000009,
          "velocity": 0.3937007874015748,
          "duration": 0.09999999999999432
        },
        {
          "name": "F#4",
          "midi": 66,
          "time": 73.60000000000008,
          "velocity": 0.3937007874015748,
          "duration": 0.09999999999999432
        },
        {
          "name": "F#5",
          "midi": 78,
          "time": 73.60000000000008,
          "velocity": 0.3937007874015748,
          "duration": 0.09999999999999432
        },
        {
          "name": "D#5",
          "midi": 75,
          "time": 73.60000000000008,
          "velocity": 0.3937007874015748,
          "duration": 0.09999999999999432
        },
        {
          "name": "D#4",
          "midi": 63,
          "time": 73.60000000000008,
          "velocity": 0.3937007874015748,
          "duration": 0.09999999999999432
        },
        {
          "name": "A#5",
          "midi": 82,
          "time": 74.20000000000007,
          "velocity": 0.3937007874015748,
          "duration": 0.09999999999999432
        },
        {
          "name": "A#4",
          "midi": 70,
          "time": 74.20000000000007,
          "velocity": 0.3937007874015748,
          "duration": 0.09999999999999432
        },
        {
          "name": "A#3",
          "midi": 58,
          "time": 74.20000000000007,
          "velocity": 0.3937007874015748,
          "duration": 0.09999999999999432
        },
        {
          "name": "F#4",
          "midi": 66,
          "time": 74.40000000000006,
          "velocity": 0.3937007874015748,
          "duration": 0.09999999999999432
        },
        {
          "name": "F#5",
          "midi": 78,
          "time": 74.40000000000006,
          "velocity": 0.3937007874015748,
          "duration": 0.09999999999999432
        },
        {
          "name": "D#5",
          "midi": 75,
          "time": 74.40000000000006,
          "velocity": 0.3937007874015748,
          "duration": 0.09999999999999432
        },
        {
          "name": "D#4",
          "midi": 63,
          "time": 74.40000000000006,
          "velocity": 0.3937007874015748,
          "duration": 0.09999999999999432
        },
        {
          "name": "F#5",
          "midi": 78,
          "time": 75.20000000000006,
          "velocity": 0.3937007874015748,
          "duration": 0.09999999999999432
        },
        {
          "name": "D#5",
          "midi": 75,
          "time": 75.20000000000006,
          "velocity": 0.3937007874015748,
          "duration": 0.09999999999999432
        },
        {
          "name": "F#4",
          "midi": 66,
          "time": 75.20000000000006,
          "velocity": 0.3937007874015748,
          "duration": 0.09999999999999432
        },
        {
          "name": "D#6",
          "midi": 87,
          "time": 75.20000000000006,
          "velocity": 0.3937007874015748,
          "duration": 0.09999999999999432
        },
        {
          "name": "G#5",
          "midi": 80,
          "time": 76.10000000000005,
          "velocity": 0.3937007874015748,
          "duration": 0.09999999999999432
        },
        {
          "name": "F#5",
          "midi": 78,
          "time": 76.20000000000005,
          "velocity": 0.3937007874015748,
          "duration": 0.09999999999999432
        },
        {
          "name": "C#5",
          "midi": 73,
          "time": 76.30000000000004,
          "velocity": 0.3937007874015748,
          "duration": 0.09999999999999432
        },
        {
          "name": "B4",
          "midi": 71,
          "time": 76.40000000000003,
          "velocity": 0.3937007874015748,
          "duration": 0.09999999999999432
        },
        {
          "name": "F#5",
          "midi": 78,
          "time": 76.50000000000003,
          "velocity": 0.3937007874015748,
          "duration": 0.09999999999999432
        },
        {
          "name": "A#4",
          "midi": 70,
          "time": 76.60000000000002,
          "velocity": 0.3937007874015748,
          "duration": 0.09999999999999432
        },
        {
          "name": "G#4",
          "midi": 68,
          "time": 76.70000000000002,
          "velocity": 0.3937007874015748,
          "duration": 0.09999999999999432
        },
        {
          "name": "F#4",
          "midi": 66,
          "time": 76.80000000000001,
          "velocity": 0.3937007874015748,
          "duration": 0.09999999999999432
        },
        {
          "name": "F#5",
          "midi": 78,
          "time": 76.80000000000001,
          "velocity": 0.3937007874015748,
          "duration": 0.09999999999999432
        },
        {
          "name": "D#5",
          "midi": 75,
          "time": 76.80000000000001,
          "velocity": 0.3937007874015748,
          "duration": 0.09999999999999432
        },
        {
          "name": "D#4",
          "midi": 63,
          "time": 76.80000000000001,
          "velocity": 0.3937007874015748,
          "duration": 0.09999999999999432
        },
        {
          "name": "A#5",
          "midi": 82,
          "time": 77.4,
          "velocity": 0.3937007874015748,
          "duration": 0.09999999999999432
        },
        {
          "name": "A#4",
          "midi": 70,
          "time": 77.4,
          "velocity": 0.3937007874015748,
          "duration": 0.09999999999999432
        },
        {
          "name": "A#3",
          "midi": 58,
          "time": 77.4,
          "velocity": 0.3937007874015748,
          "duration": 0.09999999999999432
        },
        {
          "name": "F#4",
          "midi": 66,
          "time": 77.6,
          "velocity": 0.3937007874015748,
          "duration": 0.09999999999999432
        },
        {
          "name": "F#5",
          "midi": 78,
          "time": 77.6,
          "velocity": 0.3937007874015748,
          "duration": 0.09999999999999432
        },
        {
          "name": "D#5",
          "midi": 75,
          "time": 77.6,
          "velocity": 0.3937007874015748,
          "duration": 0.09999999999999432
        },
        {
          "name": "D#4",
          "midi": 63,
          "time": 77.6,
          "velocity": 0.3937007874015748,
          "duration": 0.09999999999999432
        },
        {
          "name": "F#4",
          "midi": 66,
          "time": 78.39999999999999,
          "velocity": 0.3937007874015748,
          "duration": 0.09999999999999432
        },
        {
          "name": "D#6",
          "midi": 87,
          "time": 78.39999999999999,
          "velocity": 0.3937007874015748,
          "duration": 0.09999999999999432
        },
        {
          "name": "F#5",
          "midi": 78,
          "time": 78.39999999999999,
          "velocity": 0.3937007874015748,
          "duration": 0.09999999999999432
        },
        {
          "name": "D#5",
          "midi": 75,
          "time": 78.39999999999999,
          "velocity": 0.3937007874015748,
          "duration": 0.09999999999999432
        },
        {
          "name": "C#5",
          "midi": 73,
          "time": 78.99999999999999,
          "velocity": 0.3937007874015748,
          "duration": 0.09999999999999432
        },
        {
          "name": "D#5",
          "midi": 75,
          "time": 79.09999999999998,
          "velocity": 0.3937007874015748,
          "duration": 0.09999999999999432
        },
        {
          "name": "G#4",
          "midi": 68,
          "time": 79.19999999999997,
          "velocity": 0.3937007874015748,
          "duration": 0.09999999999999432
        },
        {
          "name": "F5",
          "midi": 77,
          "time": 79.19999999999997,
          "velocity": 0.3937007874015748,
          "duration": 0.09999999999999432
        },
        {
          "name": "F4",
          "midi": 65,
          "time": 79.19999999999997,
          "velocity": 0.3937007874015748,
          "duration": 0.09999999999999432
        },
        {
          "name": "G#3",
          "midi": 56,
          "time": 79.19999999999997,
          "velocity": 0.3937007874015748,
          "duration": 0.09999999999999432
        },
        {
          "name": "G#4",
          "midi": 68,
          "time": 79.39999999999996,
          "velocity": 0.3937007874015748,
          "duration": 0.09999999999999432
        },
        {
          "name": "F#5",
          "midi": 78,
          "time": 79.39999999999996,
          "velocity": 0.3937007874015748,
          "duration": 0.09999999999999432
        },
        {
          "name": "F#4",
          "midi": 66,
          "time": 79.39999999999996,
          "velocity": 0.3937007874015748,
          "duration": 0.09999999999999432
        },
        {
          "name": "G#3",
          "midi": 56,
          "time": 79.39999999999996,
          "velocity": 0.3937007874015748,
          "duration": 0.09999999999999432
        },
        {
          "name": "F5",
          "midi": 77,
          "time": 79.59999999999995,
          "velocity": 0.3937007874015748,
          "duration": 0.09999999999999432
        },
        {
          "name": "A#5",
          "midi": 82,
          "time": 79.59999999999995,
          "velocity": 0.3937007874015748,
          "duration": 0.09999999999999432
        },
        {
          "name": "A#4",
          "midi": 70,
          "time": 79.59999999999995,
          "velocity": 0.3937007874015748,
          "duration": 0.09999999999999432
        },
        {
          "name": "F4",
          "midi": 65,
          "time": 79.59999999999995,
          "velocity": 0.3937007874015748,
          "duration": 0.09999999999999432
        },
        {
          "name": "G#4",
          "midi": 68,
          "time": 79.79999999999994,
          "velocity": 0.3937007874015748,
          "duration": 0.09999999999999432
        },
        {
          "name": "C#5",
          "midi": 73,
          "time": 79.79999999999994,
          "velocity": 0.3937007874015748,
          "duration": 0.09999999999999432
        },
        {
          "name": "C#4",
          "midi": 61,
          "time": 79.79999999999994,
          "velocity": 0.3937007874015748,
          "duration": 0.09999999999999432
        },
        {
          "name": "G#3",
          "midi": 56,
          "time": 79.79999999999994,
          "velocity": 0.3937007874015748,
          "duration": 0.09999999999999432
        },
        {
          "name": "D#5",
          "midi": 75,
          "time": 79.99999999999993,
          "velocity": 0.3937007874015748,
          "duration": 0.09999999999999432
        },
        {
          "name": "B4",
          "midi": 71,
          "time": 79.99999999999993,
          "velocity": 0.3937007874015748,
          "duration": 0.09999999999999432
        },
        {
          "name": "D#4",
          "midi": 63,
          "time": 79.99999999999993,
          "velocity": 0.3937007874015748,
          "duration": 0.09999999999999432
        },
        {
          "name": "B3",
          "midi": 59,
          "time": 79.99999999999993,
          "velocity": 0.3937007874015748,
          "duration": 0.09999999999999432
        },
        {
          "name": "A#5",
          "midi": 82,
          "time": 80.59999999999992,
          "velocity": 0.3937007874015748,
          "duration": 0.09999999999999432
        },
        {
          "name": "A#4",
          "midi": 70,
          "time": 80.59999999999992,
          "velocity": 0.3937007874015748,
          "duration": 0.09999999999999432
        },
        {
          "name": "A#3",
          "midi": 58,
          "time": 80.59999999999992,
          "velocity": 0.3937007874015748,
          "duration": 0.09999999999999432
        },
        {
          "name": "D#5",
          "midi": 75,
          "time": 80.79999999999991,
          "velocity": 0.3937007874015748,
          "duration": 0.09999999999999432
        },
        {
          "name": "B4",
          "midi": 71,
          "time": 80.79999999999991,
          "velocity": 0.3937007874015748,
          "duration": 0.09999999999999432
        },
        {
          "name": "D#4",
          "midi": 63,
          "time": 80.79999999999991,
          "velocity": 0.3937007874015748,
          "duration": 0.09999999999999432
        },
        {
          "name": "B3",
          "midi": 59,
          "time": 80.79999999999991,
          "velocity": 0.3937007874015748,
          "duration": 0.09999999999999432
        },
        {
          "name": "A#4",
          "midi": 70,
          "time": 82.1999999999999,
          "velocity": 0.3937007874015748,
          "duration": 0.09999999999999432
        },
        {
          "name": "F#4",
          "midi": 66,
          "time": 82.39999999999989,
          "velocity": 0.3937007874015748,
          "duration": 0.09999999999999432
        },
        {
          "name": "D#4",
          "midi": 63,
          "time": 82.39999999999989,
          "velocity": 0.3937007874015748,
          "duration": 0.09999999999999432
        },
        {
          "name": "G4",
          "midi": 67,
          "time": 83.19999999999989,
          "velocity": 0.3937007874015748,
          "duration": 0.09999999999999432
        },
        {
          "name": "A4",
          "midi": 69,
          "time": 83.29999999999988,
          "velocity": 0.3937007874015748,
          "duration": 0.09999999999999432
        },
        {
          "name": "B4",
          "midi": 71,
          "time": 83.39999999999988,
          "velocity": 0.3937007874015748,
          "duration": 0.09999999999999432
        },
        {
          "name": "E5",
          "midi": 76,
          "time": 83.49999999999987,
          "velocity": 0.3937007874015748,
          "duration": 0.09999999999999432
        },
        {
          "name": "B4",
          "midi": 71,
          "time": 83.59999999999987,
          "velocity": 0.3937007874015748,
          "duration": 0.09999999999999432
        },
        {
          "name": "D5",
          "midi": 74,
          "time": 83.69999999999986,
          "velocity": 0.3937007874015748,
          "duration": 0.09999999999999432
        },
        {
          "name": "A4",
          "midi": 69,
          "time": 83.79999999999986,
          "velocity": 0.3937007874015748,
          "duration": 0.09999999999999432
        },
        {
          "name": "B4",
          "midi": 71,
          "time": 83.89999999999985,
          "velocity": 0.3937007874015748,
          "duration": 0.09999999999999432
        },
        {
          "name": "G4",
          "midi": 67,
          "time": 83.99999999999984,
          "velocity": 0.3937007874015748,
          "duration": 0.09999999999999432
        },
        {
          "name": "A4",
          "midi": 69,
          "time": 84.09999999999984,
          "velocity": 0.3937007874015748,
          "duration": 0.09999999999999432
        },
        {
          "name": "F#4",
          "midi": 66,
          "time": 84.19999999999983,
          "velocity": 0.3937007874015748,
          "duration": 0.09999999999999432
        },
        {
          "name": "G4",
          "midi": 67,
          "time": 84.29999999999983,
          "velocity": 0.3937007874015748,
          "duration": 0.09999999999999432
        },
        {
          "name": "E4",
          "midi": 64,
          "time": 84.39999999999982,
          "velocity": 0.3937007874015748,
          "duration": 0.09999999999999432
        },
        {
          "name": "F#4",
          "midi": 66,
          "time": 84.49999999999982,
          "velocity": 0.3937007874015748,
          "duration": 0.09999999999999432
        },
        {
          "name": "D4",
          "midi": 62,
          "time": 84.59999999999981,
          "velocity": 0.3937007874015748,
          "duration": 0.09999999999999432
        },
        {
          "name": "E4",
          "midi": 64,
          "time": 84.6999999999998,
          "velocity": 0.3937007874015748,
          "duration": 0.09999999999999432
        },
        {
          "name": "A3",
          "midi": 57,
          "time": 84.7999999999998,
          "velocity": 0.3937007874015748,
          "duration": 0.09999999999999432
        },
        {
          "name": "B3",
          "midi": 59,
          "time": 84.89999999999979,
          "velocity": 0.3937007874015748,
          "duration": 0.09999999999999432
        },
        {
          "name": "G3",
          "midi": 55,
          "time": 84.99999999999979,
          "velocity": 0.3937007874015748,
          "duration": 0.09999999999999432
        },
        {
          "name": "D4",
          "midi": 62,
          "time": 85.09999999999978,
          "velocity": 0.3937007874015748,
          "duration": 0.09999999999999432
        },
        {
          "name": "G4",
          "midi": 67,
          "time": 85.19999999999978,
          "velocity": 0.3937007874015748,
          "duration": 0.09999999999999432
        },
        {
          "name": "F#4",
          "midi": 66,
          "time": 85.29999999999977,
          "velocity": 0.3937007874015748,
          "duration": 0.09999999999999432
        },
        {
          "name": "D4",
          "midi": 62,
          "time": 85.39999999999976,
          "velocity": 0.3937007874015748,
          "duration": 0.09999999999999432
        },
        {
          "name": "E4",
          "midi": 64,
          "time": 85.49999999999976,
          "velocity": 0.3937007874015748,
          "duration": 0.09999999999999432
        },
        {
          "name": "B3",
          "midi": 59,
          "time": 85.59999999999975,
          "velocity": 0.3937007874015748,
          "duration": 0.09999999999999432
        },
        {
          "name": "D4",
          "midi": 62,
          "time": 85.69999999999975,
          "velocity": 0.3937007874015748,
          "duration": 0.09999999999999432
        },
        {
          "name": "E4",
          "midi": 64,
          "time": 85.79999999999974,
          "velocity": 0.3937007874015748,
          "duration": 0.09999999999999432
        },
        {
          "name": "F#4",
          "midi": 66,
          "time": 85.89999999999974,
          "velocity": 0.3937007874015748,
          "duration": 0.09999999999999432
        },
        {
          "name": "G4",
          "midi": 67,
          "time": 85.99999999999973,
          "velocity": 0.3937007874015748,
          "duration": 0.09999999999999432
        },
        {
          "name": "A4",
          "midi": 69,
          "time": 86.09999999999972,
          "velocity": 0.3937007874015748,
          "duration": 0.09999999999999432
        },
        {
          "name": "B4",
          "midi": 71,
          "time": 86.19999999999972,
          "velocity": 0.3937007874015748,
          "duration": 0.09999999999999432
        },
        {
          "name": "C5",
          "midi": 72,
          "time": 86.29999999999971,
          "velocity": 0.3937007874015748,
          "duration": 0.09999999999999432
        },
        {
          "name": "B4",
          "midi": 71,
          "time": 86.39999999999971,
          "velocity": 0.3937007874015748,
          "duration": 0.09999999999999432
        },
        {
          "name": "G4",
          "midi": 67,
          "time": 86.4999999999997,
          "velocity": 0.3937007874015748,
          "duration": 0.09999999999999432
        },
        {
          "name": "B4",
          "midi": 71,
          "time": 86.5999999999997,
          "velocity": 0.3937007874015748,
          "duration": 0.09999999999999432
        },
        {
          "name": "A4",
          "midi": 69,
          "time": 86.69999999999969,
          "velocity": 0.3937007874015748,
          "duration": 0.09999999999999432
        },
        {
          "name": "F#4",
          "midi": 66,
          "time": 86.79999999999968,
          "velocity": 0.3937007874015748,
          "duration": 0.09999999999999432
        },
        {
          "name": "A4",
          "midi": 69,
          "time": 86.89999999999968,
          "velocity": 0.3937007874015748,
          "duration": 0.09999999999999432
        },
        {
          "name": "G4",
          "midi": 67,
          "time": 86.99999999999967,
          "velocity": 0.3937007874015748,
          "duration": 0.09999999999999432
        },
        {
          "name": "E4",
          "midi": 64,
          "time": 87.09999999999967,
          "velocity": 0.3937007874015748,
          "duration": 0.09999999999999432
        },
        {
          "name": "G4",
          "midi": 67,
          "time": 87.19999999999966,
          "velocity": 0.3937007874015748,
          "duration": 0.09999999999999432
        },
        {
          "name": "F#4",
          "midi": 66,
          "time": 87.29999999999966,
          "velocity": 0.3937007874015748,
          "duration": 0.09999999999999432
        },
        {
          "name": "D4",
          "midi": 62,
          "time": 87.39999999999965,
          "velocity": 0.3937007874015748,
          "duration": 0.09999999999999432
        },
        {
          "name": "E4",
          "midi": 64,
          "time": 87.49999999999964,
          "velocity": 0.3937007874015748,
          "duration": 0.09999999999999432
        },
        {
          "name": "D4",
          "midi": 62,
          "time": 87.59999999999964,
          "velocity": 0.3937007874015748,
          "duration": 0.09999999999999432
        },
        {
          "name": "A3",
          "midi": 57,
          "time": 87.69999999999963,
          "velocity": 0.3937007874015748,
          "duration": 0.09999999999999432
        },
        {
          "name": "B3",
          "midi": 59,
          "time": 87.79999999999963,
          "velocity": 0.3937007874015748,
          "duration": 0.09999999999999432
        },
        {
          "name": "G3",
          "midi": 55,
          "time": 87.89999999999962,
          "velocity": 0.3937007874015748,
          "duration": 0.09999999999999432
        },
        {
          "name": "A3",
          "midi": 57,
          "time": 87.99999999999962,
          "velocity": 0.3937007874015748,
          "duration": 0.09999999999999432
        },
        {
          "name": "F#3",
          "midi": 54,
          "time": 88.09999999999961,
          "velocity": 0.3937007874015748,
          "duration": 0.09999999999999432
        },
        {
          "name": "G3",
          "midi": 55,
          "time": 88.1999999999996,
          "velocity": 0.3937007874015748,
          "duration": 0.09999999999999432
        },
        {
          "name": "E3",
          "midi": 52,
          "time": 88.2999999999996,
          "velocity": 0.3937007874015748,
          "duration": 0.09999999999999432
        },
        {
          "name": "F#3",
          "midi": 54,
          "time": 88.3999999999996,
          "velocity": 0.3937007874015748,
          "duration": 0.09999999999999432
        },
        {
          "name": "D3",
          "midi": 50,
          "time": 88.49999999999959,
          "velocity": 0.3937007874015748,
          "duration": 0.09999999999999432
        },
        {
          "name": "E3",
          "midi": 52,
          "time": 88.59999999999958,
          "velocity": 0.3937007874015748,
          "duration": 0.09999999999999432
        },
        {
          "name": "B2",
          "midi": 47,
          "time": 88.69999999999958,
          "velocity": 0.3937007874015748,
          "duration": 0.09999999999999432
        },
        {
          "name": "D3",
          "midi": 50,
          "time": 88.79999999999957,
          "velocity": 0.3937007874015748,
          "duration": 0.09999999999999432
        },
        {
          "name": "A2",
          "midi": 45,
          "time": 88.89999999999957,
          "velocity": 0.3937007874015748,
          "duration": 0.09999999999999432
        },
        {
          "name": "B2",
          "midi": 47,
          "time": 88.99999999999956,
          "velocity": 0.3937007874015748,
          "duration": 0.09999999999999432
        },
        {
          "name": "E3",
          "midi": 52,
          "time": 89.09999999999955,
          "velocity": 0.3937007874015748,
          "duration": 0.09999999999999432
        },
        {
          "name": "A2",
          "midi": 45,
          "time": 89.19999999999955,
          "velocity": 0.3937007874015748,
          "duration": 0.09999999999999432
        },
        {
          "name": "B2",
          "midi": 47,
          "time": 89.29999999999954,
          "velocity": 0.3937007874015748,
          "duration": 0.09999999999999432
        },
        {
          "name": "E3",
          "midi": 52,
          "time": 89.39999999999954,
          "velocity": 0.3937007874015748,
          "duration": 0.09999999999999432
        },
        {
          "name": "F#3",
          "midi": 54,
          "time": 89.49999999999953,
          "velocity": 0.3937007874015748,
          "duration": 0.09999999999999432
        },
        {
          "name": "B3",
          "midi": 59,
          "time": 89.59999999999953,
          "velocity": 0.3937007874015748,
          "duration": 0.09999999999999432
        },
        {
          "name": "A3",
          "midi": 57,
          "time": 89.69999999999952,
          "velocity": 0.3937007874015748,
          "duration": 0.09999999999999432
        },
        {
          "name": "B3",
          "midi": 59,
          "time": 89.79999999999951,
          "velocity": 0.3937007874015748,
          "duration": 0.09999999999999432
        },
        {
          "name": "E4",
          "midi": 64,
          "time": 89.89999999999951,
          "velocity": 0.3937007874015748,
          "duration": 0.09999999999999432
        },
        {
          "name": "B3",
          "midi": 59,
          "time": 90.0999999999995,
          "velocity": 0.3937007874015748,
          "duration": 0.09999999999999432
        },
        {
          "name": "A3",
          "midi": 57,
          "time": 90.19999999999949,
          "velocity": 0.3937007874015748,
          "duration": 0.09999999999999432
        },
        {
          "name": "B3",
          "midi": 59,
          "time": 90.29999999999949,
          "velocity": 0.3937007874015748,
          "duration": 0.09999999999999432
        },
        {
          "name": "D4",
          "midi": 62,
          "time": 90.39999999999948,
          "velocity": 0.3937007874015748,
          "duration": 0.09999999999999432
        },
        {
          "name": "E4",
          "midi": 64,
          "time": 90.49999999999947,
          "velocity": 0.3937007874015748,
          "duration": 0.09999999999999432
        },
        {
          "name": "F#4",
          "midi": 66,
          "time": 90.59999999999947,
          "velocity": 0.3937007874015748,
          "duration": 0.09999999999999432
        },
        {
          "name": "B3",
          "midi": 59,
          "time": 90.79999999999946,
          "velocity": 0.3937007874015748,
          "duration": 0.09999999999999432
        },
        {
          "name": "A3",
          "midi": 57,
          "time": 90.89999999999945,
          "velocity": 0.3937007874015748,
          "duration": 0.09999999999999432
        },
        {
          "name": "B3",
          "midi": 59,
          "time": 90.99999999999945,
          "velocity": 0.3937007874015748,
          "duration": 0.09999999999999432
        },
        {
          "name": "E4",
          "midi": 64,
          "time": 91.09999999999944,
          "velocity": 0.3937007874015748,
          "duration": 0.09999999999999432
        },
        {
          "name": "B3",
          "midi": 59,
          "time": 91.19999999999943,
          "velocity": 0.3937007874015748,
          "duration": 0.09999999999999432
        },
        {
          "name": "A3",
          "midi": 57,
          "time": 91.29999999999943,
          "velocity": 0.3937007874015748,
          "duration": 0.09999999999999432
        },
        {
          "name": "B3",
          "midi": 59,
          "time": 91.39999999999942,
          "velocity": 0.3937007874015748,
          "duration": 0.09999999999999432
        },
        {
          "name": "F#4",
          "midi": 66,
          "time": 91.49999999999942,
          "velocity": 0.3937007874015748,
          "duration": 0.09999999999999432
        },
        {
          "name": "G4",
          "midi": 67,
          "time": 91.59999999999941,
          "velocity": 0.3937007874015748,
          "duration": 0.09999999999999432
        },
        {
          "name": "B3",
          "midi": 59,
          "time": 91.6999999999994,
          "velocity": 0.3937007874015748,
          "duration": 0.09999999999999432
        },
        {
          "name": "F#4",
          "midi": 66,
          "time": 91.7999999999994,
          "velocity": 0.3937007874015748,
          "duration": 0.09999999999999432
        },
        {
          "name": "G3",
          "midi": 55,
          "time": 91.8999999999994,
          "velocity": 0.3937007874015748,
          "duration": 0.09999999999999432
        },
        {
          "name": "E4",
          "midi": 64,
          "time": 91.99999999999939,
          "velocity": 0.3937007874015748,
          "duration": 0.09999999999999432
        },
        {
          "name": "F#3",
          "midi": 54,
          "time": 92.09999999999938,
          "velocity": 0.3937007874015748,
          "duration": 0.09999999999999432
        },
        {
          "name": "D4",
          "midi": 62,
          "time": 92.19999999999938,
          "velocity": 0.3937007874015748,
          "duration": 0.09999999999999432
        },
        {
          "name": "E3",
          "midi": 52,
          "time": 92.29999999999937,
          "velocity": 0.3937007874015748,
          "duration": 0.09999999999999432
        },
        {
          "name": "B3",
          "midi": 59,
          "time": 92.39999999999937,
          "velocity": 0.3937007874015748,
          "duration": 0.09999999999999432
        },
        {
          "name": "A3",
          "midi": 57,
          "time": 92.49999999999936,
          "velocity": 0.3937007874015748,
          "duration": 0.09999999999999432
        },
        {
          "name": "G3",
          "midi": 55,
          "time": 92.59999999999935,
          "velocity": 0.3937007874015748,
          "duration": 0.09999999999999432
        },
        {
          "name": "A3",
          "midi": 57,
          "time": 92.69999999999935,
          "velocity": 0.3937007874015748,
          "duration": 0.09999999999999432
        },
        {
          "name": "D#3",
          "midi": 51,
          "time": 92.79999999999934,
          "velocity": 0.3937007874015748,
          "duration": 0.09999999999999432
        },
        {
          "name": "E3",
          "midi": 52,
          "time": 92.89999999999934,
          "velocity": 0.3937007874015748,
          "duration": 0.09999999999999432
        },
        {
          "name": "F#3",
          "midi": 54,
          "time": 92.99999999999933,
          "velocity": 0.3937007874015748,
          "duration": 0.09999999999999432
        },
        {
          "name": "B3",
          "midi": 59,
          "time": 93.09999999999933,
          "velocity": 0.3937007874015748,
          "duration": 0.09999999999999432
        },
        {
          "name": "D#4",
          "midi": 63,
          "time": 93.19999999999932,
          "velocity": 0.3937007874015748,
          "duration": 0.09999999999999432
        },
        {
          "name": "E4",
          "midi": 64,
          "time": 93.29999999999932,
          "velocity": 0.3937007874015748,
          "duration": 0.09999999999999432
        },
        {
          "name": "F#4",
          "midi": 66,
          "time": 93.39999999999931,
          "velocity": 0.3937007874015748,
          "duration": 0.09999999999999432
        },
        {
          "name": "B4",
          "midi": 71,
          "time": 93.4999999999993,
          "velocity": 0.3937007874015748,
          "duration": 0.09999999999999432
        },
        {
          "name": "F#4",
          "midi": 66,
          "time": 93.5999999999993,
          "velocity": 0.3937007874015748,
          "duration": 0.09999999999999432
        },
        {
          "name": "D#5",
          "midi": 75,
          "time": 93.69999999999929,
          "velocity": 0.3937007874015748,
          "duration": 0.09999999999999432
        },
        {
          "name": "F#4",
          "midi": 66,
          "time": 93.79999999999929,
          "velocity": 0.3937007874015748,
          "duration": 0.09999999999999432
        },
        {
          "name": "E4",
          "midi": 64,
          "time": 93.89999999999928,
          "velocity": 0.3937007874015748,
          "duration": 0.09999999999999432
        },
        {
          "name": "D#4",
          "midi": 63,
          "time": 93.99999999999928,
          "velocity": 0.3937007874015748,
          "duration": 0.09999999999999432
        },
        {
          "name": "E4",
          "midi": 64,
          "time": 94.09999999999927,
          "velocity": 0.3937007874015748,
          "duration": 0.09999999999999432
        },
        {
          "name": "F#4",
          "midi": 66,
          "time": 94.19999999999926,
          "velocity": 0.3937007874015748,
          "duration": 0.09999999999999432
        },
        {
          "name": "B3",
          "midi": 59,
          "time": 94.29999999999926,
          "velocity": 0.3937007874015748,
          "duration": 0.09999999999999432
        },
        {
          "name": "D#4",
          "midi": 63,
          "time": 94.39999999999925,
          "velocity": 0.3937007874015748,
          "duration": 0.09999999999999432
        },
        {
          "name": "E4",
          "midi": 64,
          "time": 94.49999999999925,
          "velocity": 0.3937007874015748,
          "duration": 0.09999999999999432
        },
        {
          "name": "F#4",
          "midi": 66,
          "time": 94.59999999999924,
          "velocity": 0.3937007874015748,
          "duration": 0.09999999999999432
        },
        {
          "name": "D#4",
          "midi": 63,
          "time": 94.69999999999924,
          "velocity": 0.3937007874015748,
          "duration": 0.09999999999999432
        },
        {
          "name": "B3",
          "midi": 59,
          "time": 94.79999999999923,
          "velocity": 0.3937007874015748,
          "duration": 0.09999999999999432
        },
        {
          "name": "A3",
          "midi": 57,
          "time": 94.89999999999922,
          "velocity": 0.3937007874015748,
          "duration": 0.09999999999999432
        },
        {
          "name": "G3",
          "midi": 55,
          "time": 94.99999999999922,
          "velocity": 0.3937007874015748,
          "duration": 0.09999999999999432
        },
        {
          "name": "F#3",
          "midi": 54,
          "time": 95.09999999999921,
          "velocity": 0.3937007874015748,
          "duration": 0.09999999999999432
        },
        {
          "name": "G3",
          "midi": 55,
          "time": 95.1999999999992,
          "velocity": 0.3937007874015748,
          "duration": 0.09999999999999432
        },
        {
          "name": "F#3",
          "midi": 54,
          "time": 95.2999999999992,
          "velocity": 0.3937007874015748,
          "duration": 0.09999999999999432
        },
        {
          "name": "B2",
          "midi": 47,
          "time": 95.3999999999992,
          "velocity": 0.3937007874015748,
          "duration": 0.09999999999999432
        },
        {
          "name": "E3",
          "midi": 52,
          "time": 95.49999999999919,
          "velocity": 0.3937007874015748,
          "duration": 0.09999999999999432
        },
        {
          "name": "F#3",
          "midi": 54,
          "time": 95.59999999999918,
          "velocity": 0.3937007874015748,
          "duration": 0.09999999999999432
        },
        {
          "name": "E3",
          "midi": 52,
          "time": 95.69999999999918,
          "velocity": 0.3937007874015748,
          "duration": 0.09999999999999432
        },
        {
          "name": "D#3",
          "midi": 51,
          "time": 95.79999999999917,
          "velocity": 0.3937007874015748,
          "duration": 0.09999999999999432
        },
        {
          "name": "E3",
          "midi": 52,
          "time": 95.89999999999917,
          "velocity": 0.3937007874015748,
          "duration": 0.09999999999999432
        },
        {
          "name": "C4",
          "midi": 60,
          "time": 95.99999999999916,
          "velocity": 0.3937007874015748,
          "duration": 0.09999999999999432
        },
        {
          "name": "E4",
          "midi": 64,
          "time": 95.99999999999916,
          "velocity": 0.3937007874015748,
          "duration": 0.09999999999999432
        },
        {
          "name": "C4",
          "midi": 60,
          "time": 96.39999999999915,
          "velocity": 0.3937007874015748,
          "duration": 0.09999999999999432
        },
        {
          "name": "E4",
          "midi": 64,
          "time": 96.39999999999915,
          "velocity": 0.3937007874015748,
          "duration": 0.09999999999999432
        },
        {
          "name": "C4",
          "midi": 60,
          "time": 96.79999999999914,
          "velocity": 0.3937007874015748,
          "duration": 0.09999999999999432
        },
        {
          "name": "E4",
          "midi": 64,
          "time": 96.79999999999914,
          "velocity": 0.3937007874015748,
          "duration": 0.09999999999999432
        },
        {
          "name": "C4",
          "midi": 60,
          "time": 97.09999999999914,
          "velocity": 0.3937007874015748,
          "duration": 0.09999999999999432
        },
        {
          "name": "E4",
          "midi": 64,
          "time": 97.09999999999914,
          "velocity": 0.3937007874015748,
          "duration": 0.09999999999999432
        },
        {
          "name": "C4",
          "midi": 60,
          "time": 97.39999999999914,
          "velocity": 0.3937007874015748,
          "duration": 0.09999999999999432
        },
        {
          "name": "E4",
          "midi": 64,
          "time": 97.39999999999914,
          "velocity": 0.3937007874015748,
          "duration": 0.09999999999999432
        },
        {
          "name": "A3",
          "midi": 57,
          "time": 97.79999999999913,
          "velocity": 0.3937007874015748,
          "duration": 0.09999999999999432
        },
        {
          "name": "D4",
          "midi": 62,
          "time": 97.79999999999913,
          "velocity": 0.3937007874015748,
          "duration": 0.09999999999999432
        },
        {
          "name": "A3",
          "midi": 57,
          "time": 97.99999999999912,
          "velocity": 0.3937007874015748,
          "duration": 0.09999999999999432
        },
        {
          "name": "D4",
          "midi": 62,
          "time": 97.99999999999912,
          "velocity": 0.3937007874015748,
          "duration": 0.09999999999999432
        },
        {
          "name": "A3",
          "midi": 57,
          "time": 98.39999999999911,
          "velocity": 0.3937007874015748,
          "duration": 0.09999999999999432
        },
        {
          "name": "D4",
          "midi": 62,
          "time": 98.39999999999911,
          "velocity": 0.3937007874015748,
          "duration": 0.09999999999999432
        },
        {
          "name": "A3",
          "midi": 57,
          "time": 98.69999999999911,
          "velocity": 0.3937007874015748,
          "duration": 0.09999999999999432
        },
        {
          "name": "D4",
          "midi": 62,
          "time": 98.69999999999911,
          "velocity": 0.3937007874015748,
          "duration": 0.09999999999999432
        },
        {
          "name": "A3",
          "midi": 57,
          "time": 98.9999999999991,
          "velocity": 0.3937007874015748,
          "duration": 0.09999999999999432
        },
        {
          "name": "D4",
          "midi": 62,
          "time": 98.9999999999991,
          "velocity": 0.3937007874015748,
          "duration": 0.09999999999999432
        },
        {
          "name": "G3",
          "midi": 55,
          "time": 99.3999999999991,
          "velocity": 0.3937007874015748,
          "duration": 0.09999999999999432
        },
        {
          "name": "B3",
          "midi": 59,
          "time": 99.3999999999991,
          "velocity": 0.3937007874015748,
          "duration": 0.09999999999999432
        },
        {
          "name": "G3",
          "midi": 55,
          "time": 99.59999999999908,
          "velocity": 0.3937007874015748,
          "duration": 0.09999999999999432
        },
        {
          "name": "B3",
          "midi": 59,
          "time": 99.59999999999908,
          "velocity": 0.3937007874015748,
          "duration": 0.09999999999999432
        },
        {
          "name": "G3",
          "midi": 55,
          "time": 99.99999999999908,
          "velocity": 0.3937007874015748,
          "duration": 0.09999999999999432
        },
        {
          "name": "B3",
          "midi": 59,
          "time": 99.99999999999908,
          "velocity": 0.3937007874015748,
          "duration": 0.09999999999999432
        },
        {
          "name": "G3",
          "midi": 55,
          "time": 100.29999999999907,
          "velocity": 0.3937007874015748,
          "duration": 0.09999999999999432
        },
        {
          "name": "B3",
          "midi": 59,
          "time": 100.29999999999907,
          "velocity": 0.3937007874015748,
          "duration": 0.09999999999999432
        },
        {
          "name": "G3",
          "midi": 55,
          "time": 100.59999999999907,
          "velocity": 0.3937007874015748,
          "duration": 0.09999999999999432
        },
        {
          "name": "B3",
          "midi": 59,
          "time": 100.59999999999907,
          "velocity": 0.3937007874015748,
          "duration": 0.09999999999999432
        },
        {
          "name": "G3",
          "midi": 55,
          "time": 100.99999999999906,
          "velocity": 0.3937007874015748,
          "duration": 0.09999999999999432
        },
        {
          "name": "B3",
          "midi": 59,
          "time": 100.99999999999906,
          "velocity": 0.3937007874015748,
          "duration": 0.09999999999999432
        },
        {
          "name": "G3",
          "midi": 55,
          "time": 101.19999999999905,
          "velocity": 0.3937007874015748,
          "duration": 0.09999999999999432
        },
        {
          "name": "B3",
          "midi": 59,
          "time": 101.19999999999905,
          "velocity": 0.3937007874015748,
          "duration": 0.09999999999999432
        },
        {
          "name": "E3",
          "midi": 52,
          "time": 101.59999999999904,
          "velocity": 0.3937007874015748,
          "duration": 0.09999999999999432
        },
        {
          "name": "B2",
          "midi": 47,
          "time": 101.79999999999903,
          "velocity": 0.3937007874015748,
          "duration": 0.09999999999999432
        },
        {
          "name": "E3",
          "midi": 52,
          "time": 101.99999999999902,
          "velocity": 0.3937007874015748,
          "duration": 0.09999999999999432
        },
        {
          "name": "D3",
          "midi": 50,
          "time": 102.19999999999901,
          "velocity": 0.3937007874015748,
          "duration": 0.09999999999999432
        },
        {
          "name": "C4",
          "midi": 60,
          "time": 102.399999999999,
          "velocity": 0.3937007874015748,
          "duration": 0.09999999999999432
        },
        {
          "name": "E4",
          "midi": 64,
          "time": 102.399999999999,
          "velocity": 0.3937007874015748,
          "duration": 0.09999999999999432
        },
        {
          "name": "C4",
          "midi": 60,
          "time": 102.79999999999899,
          "velocity": 0.3937007874015748,
          "duration": 0.09999999999999432
        },
        {
          "name": "E4",
          "midi": 64,
          "time": 102.79999999999899,
          "velocity": 0.3937007874015748,
          "duration": 0.09999999999999432
        },
        {
          "name": "C4",
          "midi": 60,
          "time": 103.19999999999898,
          "velocity": 0.3937007874015748,
          "duration": 0.09999999999999432
        },
        {
          "name": "E4",
          "midi": 64,
          "time": 103.19999999999898,
          "velocity": 0.3937007874015748,
          "duration": 0.09999999999999432
        },
        {
          "name": "C4",
          "midi": 60,
          "time": 103.49999999999898,
          "velocity": 0.3937007874015748,
          "duration": 0.09999999999999432
        },
        {
          "name": "E4",
          "midi": 64,
          "time": 103.49999999999898,
          "velocity": 0.3937007874015748,
          "duration": 0.09999999999999432
        },
        {
          "name": "C4",
          "midi": 60,
          "time": 103.79999999999897,
          "velocity": 0.3937007874015748,
          "duration": 0.09999999999999432
        },
        {
          "name": "E4",
          "midi": 64,
          "time": 103.79999999999897,
          "velocity": 0.3937007874015748,
          "duration": 0.09999999999999432
        },
        {
          "name": "D4",
          "midi": 62,
          "time": 104.19999999999897,
          "velocity": 0.3937007874015748,
          "duration": 0.09999999999999432
        },
        {
          "name": "F#4",
          "midi": 66,
          "time": 104.19999999999897,
          "velocity": 0.3937007874015748,
          "duration": 0.09999999999999432
        },
        {
          "name": "D4",
          "midi": 62,
          "time": 104.39999999999895,
          "velocity": 0.3937007874015748,
          "duration": 0.09999999999999432
        },
        {
          "name": "F#4",
          "midi": 66,
          "time": 104.39999999999895,
          "velocity": 0.3937007874015748,
          "duration": 0.09999999999999432
        },
        {
          "name": "D4",
          "midi": 62,
          "time": 104.79999999999895,
          "velocity": 0.3937007874015748,
          "duration": 0.09999999999999432
        },
        {
          "name": "F#4",
          "midi": 66,
          "time": 104.79999999999895,
          "velocity": 0.3937007874015748,
          "duration": 0.09999999999999432
        },
        {
          "name": "D4",
          "midi": 62,
          "time": 105.19999999999894,
          "velocity": 0.3937007874015748,
          "duration": 0.09999999999999432
        },
        {
          "name": "A3",
          "midi": 57,
          "time": 105.19999999999894,
          "velocity": 0.3937007874015748,
          "duration": 0.09999999999999432
        },
        {
          "name": "B3",
          "midi": 59,
          "time": 105.79999999999893,
          "velocity": 0.3937007874015748,
          "duration": 0.09999999999999432
        },
        {
          "name": "D#4",
          "midi": 63,
          "time": 105.79999999999893,
          "velocity": 0.3937007874015748,
          "duration": 0.09999999999999432
        },
        {
          "name": "B3",
          "midi": 59,
          "time": 105.99999999999892,
          "velocity": 0.3937007874015748,
          "duration": 0.09999999999999432
        },
        {
          "name": "D#4",
          "midi": 63,
          "time": 105.99999999999892,
          "velocity": 0.3937007874015748,
          "duration": 0.09999999999999432
        },
        {
          "name": "B3",
          "midi": 59,
          "time": 106.39999999999891,
          "velocity": 0.3937007874015748,
          "duration": 0.09999999999999432
        },
        {
          "name": "D#4",
          "midi": 63,
          "time": 106.39999999999891,
          "velocity": 0.3937007874015748,
          "duration": 0.09999999999999432
        },
        {
          "name": "B3",
          "midi": 59,
          "time": 106.69999999999891,
          "velocity": 0.3937007874015748,
          "duration": 0.09999999999999432
        },
        {
          "name": "D#4",
          "midi": 63,
          "time": 106.69999999999891,
          "velocity": 0.3937007874015748,
          "duration": 0.09999999999999432
        },
        {
          "name": "B3",
          "midi": 59,
          "time": 106.9999999999989,
          "velocity": 0.3937007874015748,
          "duration": 0.09999999999999432
        },
        {
          "name": "D#4",
          "midi": 63,
          "time": 106.9999999999989,
          "velocity": 0.3937007874015748,
          "duration": 0.09999999999999432
        },
        {
          "name": "B3",
          "midi": 59,
          "time": 107.3999999999989,
          "velocity": 0.3937007874015748,
          "duration": 0.09999999999999432
        },
        {
          "name": "D#4",
          "midi": 63,
          "time": 107.3999999999989,
          "velocity": 0.3937007874015748,
          "duration": 0.09999999999999432
        },
        {
          "name": "B3",
          "midi": 59,
          "time": 107.59999999999889,
          "velocity": 0.3937007874015748,
          "duration": 0.09999999999999432
        },
        {
          "name": "D#4",
          "midi": 63,
          "time": 107.59999999999889,
          "velocity": 0.3937007874015748,
          "duration": 0.09999999999999432
        },
        {
          "name": "D#4",
          "midi": 63,
          "time": 107.99999999999888,
          "velocity": 0.3937007874015748,
          "duration": 0.09999999999999432
        },
        {
          "name": "F#3",
          "midi": 54,
          "time": 108.19999999999887,
          "velocity": 0.3937007874015748,
          "duration": 0.09999999999999432
        },
        {
          "name": "B2",
          "midi": 47,
          "time": 108.39999999999885,
          "velocity": 0.3937007874015748,
          "duration": 0.09999999999999432
        },
        {
          "name": "G#3",
          "midi": 56,
          "time": 108.79999999999885,
          "velocity": 0.3937007874015748,
          "duration": 0.09999999999999432
        },
        {
          "name": "E4",
          "midi": 64,
          "time": 108.79999999999885,
          "velocity": 0.3937007874015748,
          "duration": 0.09999999999999432
        },
        {
          "name": "G#4",
          "midi": 68,
          "time": 108.79999999999885,
          "velocity": 0.3937007874015748,
          "duration": 0.09999999999999432
        },
        {
          "name": "E3",
          "midi": 52,
          "time": 108.79999999999885,
          "velocity": 0.3937007874015748,
          "duration": 0.09999999999999432
        },
        {
          "name": "F#4",
          "midi": 66,
          "time": 108.99999999999883,
          "velocity": 0.3937007874015748,
          "duration": 0.09999999999999432
        },
        {
          "name": "C#5",
          "midi": 73,
          "time": 109.09999999999883,
          "velocity": 0.3937007874015748,
          "duration": 0.09999999999999432
        },
        {
          "name": "E5",
          "midi": 76,
          "time": 109.19999999999882,
          "velocity": 0.3937007874015748,
          "duration": 0.09999999999999432
        },
        {
          "name": "F#5",
          "midi": 78,
          "time": 109.29999999999882,
          "velocity": 0.3937007874015748,
          "duration": 0.09999999999999432
        },
        {
          "name": "C#6",
          "midi": 85,
          "time": 109.39999999999881,
          "velocity": 0.3937007874015748,
          "duration": 0.09999999999999432
        },
        {
          "name": "C#5",
          "midi": 73,
          "time": 109.39999999999881,
          "velocity": 0.3937007874015748,
          "duration": 0.09999999999999432
        },
        {
          "name": "G#5",
          "midi": 80,
          "time": 109.39999999999881,
          "velocity": 0.3937007874015748,
          "duration": 0.09999999999999432
        },
        {
          "name": "G#4",
          "midi": 68,
          "time": 109.39999999999881,
          "velocity": 0.3937007874015748,
          "duration": 0.09999999999999432
        },
        {
          "name": "G#4",
          "midi": 68,
          "time": 109.5999999999988,
          "velocity": 0.3937007874015748,
          "duration": 0.09999999999999432
        },
        {
          "name": "G#5",
          "midi": 80,
          "time": 109.5999999999988,
          "velocity": 0.3937007874015748,
          "duration": 0.09999999999999432
        },
        {
          "name": "E4",
          "midi": 64,
          "time": 109.5999999999988,
          "velocity": 0.3937007874015748,
          "duration": 0.09999999999999432
        },
        {
          "name": "E5",
          "midi": 76,
          "time": 109.5999999999988,
          "velocity": 0.3937007874015748,
          "duration": 0.09999999999999432
        },
        {
          "name": "B4",
          "midi": 71,
          "time": 109.99999999999879,
          "velocity": 0.3937007874015748,
          "duration": 0.09999999999999432
        },
        {
          "name": "F#5",
          "midi": 78,
          "time": 110.09999999999879,
          "velocity": 0.3937007874015748,
          "duration": 0.09999999999999432
        },
        {
          "name": "G#5",
          "midi": 80,
          "time": 110.19999999999878,
          "velocity": 0.3937007874015748,
          "duration": 0.09999999999999432
        },
        {
          "name": "G#4",
          "midi": 68,
          "time": 110.19999999999878,
          "velocity": 0.3937007874015748,
          "duration": 0.09999999999999432
        },
        {
          "name": "F#5",
          "midi": 78,
          "time": 110.29999999999878,
          "velocity": 0.3937007874015748,
          "duration": 0.09999999999999432
        },
        {
          "name": "E6",
          "midi": 88,
          "time": 110.39999999999877,
          "velocity": 0.3937007874015748,
          "duration": 0.09999999999999432
        },
        {
          "name": "G#5",
          "midi": 80,
          "time": 110.39999999999877,
          "velocity": 0.3937007874015748,
          "duration": 0.09999999999999432
        },
        {
          "name": "G#4",
          "midi": 68,
          "time": 110.39999999999877,
          "velocity": 0.3937007874015748,
          "duration": 0.09999999999999432
        },
        {
          "name": "E5",
          "midi": 76,
          "time": 110.39999999999877,
          "velocity": 0.3937007874015748,
          "duration": 0.09999999999999432
        },
        {
          "name": "B4",
          "midi": 71,
          "time": 110.59999999999876,
          "velocity": 0.3937007874015748,
          "duration": 0.09999999999999432
        },
        {
          "name": "C#5",
          "midi": 73,
          "time": 110.69999999999875,
          "velocity": 0.3937007874015748,
          "duration": 0.09999999999999432
        },
        {
          "name": "D#5",
          "midi": 75,
          "time": 110.79999999999875,
          "velocity": 0.3937007874015748,
          "duration": 0.09999999999999432
        },
        {
          "name": "E5",
          "midi": 76,
          "time": 110.89999999999874,
          "velocity": 0.3937007874015748,
          "duration": 0.09999999999999432
        },
        {
          "name": "G#5",
          "midi": 80,
          "time": 110.99999999999874,
          "velocity": 0.3937007874015748,
          "duration": 0.09999999999999432
        },
        {
          "name": "F#5",
          "midi": 78,
          "time": 110.99999999999874,
          "velocity": 0.3937007874015748,
          "duration": 0.09999999999999432
        },
        {
          "name": "F#4",
          "midi": 66,
          "time": 110.99999999999874,
          "velocity": 0.3937007874015748,
          "duration": 0.09999999999999432
        },
        {
          "name": "G#4",
          "midi": 68,
          "time": 110.99999999999874,
          "velocity": 0.3937007874015748,
          "duration": 0.09999999999999432
        },
        {
          "name": "D#6",
          "midi": 87,
          "time": 111.19999999999872,
          "velocity": 0.3937007874015748,
          "duration": 0.09999999999999432
        },
        {
          "name": "F#5",
          "midi": 78,
          "time": 111.19999999999872,
          "velocity": 0.3937007874015748,
          "duration": 0.09999999999999432
        },
        {
          "name": "F#4",
          "midi": 66,
          "time": 111.19999999999872,
          "velocity": 0.3937007874015748,
          "duration": 0.09999999999999432
        },
        {
          "name": "D#5",
          "midi": 75,
          "time": 111.19999999999872,
          "velocity": 0.3937007874015748,
          "duration": 0.09999999999999432
        },
        {
          "name": "E6",
          "midi": 88,
          "time": 111.39999999999871,
          "velocity": 0.3937007874015748,
          "duration": 0.09999999999999432
        },
        {
          "name": "F#5",
          "midi": 78,
          "time": 111.39999999999871,
          "velocity": 0.3937007874015748,
          "duration": 0.09999999999999432
        },
        {
          "name": "F#4",
          "midi": 66,
          "time": 111.39999999999871,
          "velocity": 0.3937007874015748,
          "duration": 0.09999999999999432
        },
        {
          "name": "E5",
          "midi": 76,
          "time": 111.39999999999871,
          "velocity": 0.3937007874015748,
          "duration": 0.09999999999999432
        },
        {
          "name": "B5",
          "midi": 83,
          "time": 111.5999999999987,
          "velocity": 0.3937007874015748,
          "duration": 0.09999999999999432
        },
        {
          "name": "E5",
          "midi": 76,
          "time": 111.5999999999987,
          "velocity": 0.3937007874015748,
          "duration": 0.09999999999999432
        },
        {
          "name": "B4",
          "midi": 71,
          "time": 111.5999999999987,
          "velocity": 0.3937007874015748,
          "duration": 0.09999999999999432
        },
        {
          "name": "E4",
          "midi": 64,
          "time": 111.5999999999987,
          "velocity": 0.3937007874015748,
          "duration": 0.09999999999999432
        },
        {
          "name": "E5",
          "midi": 76,
          "time": 111.6999999999987,
          "velocity": 0.3937007874015748,
          "duration": 0.09999999999999432
        },
        {
          "name": "E4",
          "midi": 64,
          "time": 111.6999999999987,
          "velocity": 0.3937007874015748,
          "duration": 0.09999999999999432
        },
        {
          "name": "C#6",
          "midi": 85,
          "time": 111.79999999999869,
          "velocity": 0.3937007874015748,
          "duration": 0.09999999999999432
        },
        {
          "name": "F#5",
          "midi": 78,
          "time": 111.79999999999869,
          "velocity": 0.3937007874015748,
          "duration": 0.09999999999999432
        },
        {
          "name": "F#4",
          "midi": 66,
          "time": 111.79999999999869,
          "velocity": 0.3937007874015748,
          "duration": 0.09999999999999432
        },
        {
          "name": "C#5",
          "midi": 73,
          "time": 111.79999999999869,
          "velocity": 0.3937007874015748,
          "duration": 0.09999999999999432
        },
        {
          "name": "G#3",
          "midi": 56,
          "time": 111.99999999999868,
          "velocity": 0.3937007874015748,
          "duration": 0.09999999999999432
        },
        {
          "name": "G#4",
          "midi": 68,
          "time": 111.99999999999868,
          "velocity": 0.3937007874015748,
          "duration": 0.09999999999999432
        },
        {
          "name": "E3",
          "midi": 52,
          "time": 111.99999999999868,
          "velocity": 0.3937007874015748,
          "duration": 0.09999999999999432
        },
        {
          "name": "E4",
          "midi": 64,
          "time": 111.99999999999868,
          "velocity": 0.3937007874015748,
          "duration": 0.09999999999999432
        },
        {
          "name": "F#4",
          "midi": 66,
          "time": 112.19999999999867,
          "velocity": 0.3937007874015748,
          "duration": 0.09999999999999432
        },
        {
          "name": "C#5",
          "midi": 73,
          "time": 112.29999999999866,
          "velocity": 0.3937007874015748,
          "duration": 0.09999999999999432
        },
        {
          "name": "E5",
          "midi": 76,
          "time": 112.39999999999866,
          "velocity": 0.3937007874015748,
          "duration": 0.09999999999999432
        },
        {
          "name": "F#5",
          "midi": 78,
          "time": 112.49999999999865,
          "velocity": 0.3937007874015748,
          "duration": 0.09999999999999432
        },
        {
          "name": "C#6",
          "midi": 85,
          "time": 112.59999999999864,
          "velocity": 0.3937007874015748,
          "duration": 0.09999999999999432
        },
        {
          "name": "C#5",
          "midi": 73,
          "time": 112.59999999999864,
          "velocity": 0.3937007874015748,
          "duration": 0.09999999999999432
        },
        {
          "name": "G#5",
          "midi": 80,
          "time": 112.59999999999864,
          "velocity": 0.3937007874015748,
          "duration": 0.09999999999999432
        },
        {
          "name": "G#4",
          "midi": 68,
          "time": 112.59999999999864,
          "velocity": 0.3937007874015748,
          "duration": 0.09999999999999432
        },
        {
          "name": "G#4",
          "midi": 68,
          "time": 112.79999999999863,
          "velocity": 0.3937007874015748,
          "duration": 0.09999999999999432
        },
        {
          "name": "G#5",
          "midi": 80,
          "time": 112.79999999999863,
          "velocity": 0.3937007874015748,
          "duration": 0.09999999999999432
        },
        {
          "name": "E4",
          "midi": 64,
          "time": 112.79999999999863,
          "velocity": 0.3937007874015748,
          "duration": 0.09999999999999432
        },
        {
          "name": "E5",
          "midi": 76,
          "time": 112.79999999999863,
          "velocity": 0.3937007874015748,
          "duration": 0.09999999999999432
        },
        {
          "name": "E5",
          "midi": 76,
          "time": 113.19999999999862,
          "velocity": 0.3937007874015748,
          "duration": 0.09999999999999432
        },
        {
          "name": "F#5",
          "midi": 78,
          "time": 113.29999999999862,
          "velocity": 0.3937007874015748,
          "duration": 0.09999999999999432
        },
        {
          "name": "C#6",
          "midi": 85,
          "time": 113.39999999999861,
          "velocity": 0.3937007874015748,
          "duration": 0.09999999999999432
        },
        {
          "name": "C#5",
          "midi": 73,
          "time": 113.39999999999861,
          "velocity": 0.3937007874015748,
          "duration": 0.09999999999999432
        },
        {
          "name": "G#5",
          "midi": 80,
          "time": 113.39999999999861,
          "velocity": 0.3937007874015748,
          "duration": 0.09999999999999432
        },
        {
          "name": "G#4",
          "midi": 68,
          "time": 113.39999999999861,
          "velocity": 0.3937007874015748,
          "duration": 0.09999999999999432
        },
        {
          "name": "F#5",
          "midi": 78,
          "time": 113.49999999999861,
          "velocity": 0.3937007874015748,
          "duration": 0.09999999999999432
        },
        {
          "name": "A5",
          "midi": 81,
          "time": 113.5999999999986,
          "velocity": 0.3937007874015748,
          "duration": 0.09999999999999432
        },
        {
          "name": "E6",
          "midi": 88,
          "time": 113.5999999999986,
          "velocity": 0.3937007874015748,
          "duration": 0.09999999999999432
        },
        {
          "name": "D#6",
          "midi": 87,
          "time": 113.6999999999986,
          "velocity": 0.3937007874015748,
          "duration": 0.09999999999999432
        },
        {
          "name": "B5",
          "midi": 83,
          "time": 113.79999999999859,
          "velocity": 0.3937007874015748,
          "duration": 0.09999999999999432
        },
        {
          "name": "E5",
          "midi": 76,
          "time": 113.89999999999858,
          "velocity": 0.3937007874015748,
          "duration": 0.09999999999999432
        },
        {
          "name": "B5",
          "midi": 83,
          "time": 113.99999999999858,
          "velocity": 0.3937007874015748,
          "duration": 0.09999999999999432
        },
        {
          "name": "A5",
          "midi": 81,
          "time": 114.09999999999857,
          "velocity": 0.3937007874015748,
          "duration": 0.09999999999999432
        },
        {
          "name": "E5",
          "midi": 76,
          "time": 114.19999999999857,
          "velocity": 0.3937007874015748,
          "duration": 0.09999999999999432
        },
        {
          "name": "B4",
          "midi": 71,
          "time": 114.29999999999856,
          "velocity": 0.3937007874015748,
          "duration": 0.09999999999999432
        },
        {
          "name": "B5",
          "midi": 83,
          "time": 114.39999999999856,
          "velocity": 0.3937007874015748,
          "duration": 0.09999999999999432
        },
        {
          "name": "A5",
          "midi": 81,
          "time": 114.49999999999855,
          "velocity": 0.3937007874015748,
          "duration": 0.09999999999999432
        },
        {
          "name": "E5",
          "midi": 76,
          "time": 114.59999999999854,
          "velocity": 0.3937007874015748,
          "duration": 0.09999999999999432
        },
        {
          "name": "B4",
          "midi": 71,
          "time": 114.69999999999854,
          "velocity": 0.3937007874015748,
          "duration": 0.09999999999999432
        },
        {
          "name": "B4",
          "midi": 71,
          "time": 114.79999999999853,
          "velocity": 0.3937007874015748,
          "duration": 0.09999999999999432
        },
        {
          "name": "A4",
          "midi": 69,
          "time": 114.89999999999853,
          "velocity": 0.3937007874015748,
          "duration": 0.09999999999999432
        },
        {
          "name": "E4",
          "midi": 64,
          "time": 114.99999999999852,
          "velocity": 0.3937007874015748,
          "duration": 0.09999999999999432
        },
        {
          "name": "G#3",
          "midi": 56,
          "time": 115.19999999999851,
          "velocity": 0.3937007874015748,
          "duration": 0.09999999999999432
        },
        {
          "name": "G#4",
          "midi": 68,
          "time": 115.19999999999851,
          "velocity": 0.3937007874015748,
          "duration": 0.09999999999999432
        },
        {
          "name": "E3",
          "midi": 52,
          "time": 115.19999999999851,
          "velocity": 0.3937007874015748,
          "duration": 0.09999999999999432
        },
        {
          "name": "E4",
          "midi": 64,
          "time": 115.19999999999851,
          "velocity": 0.3937007874015748,
          "duration": 0.09999999999999432
        },
        {
          "name": "F#4",
          "midi": 66,
          "time": 115.3999999999985,
          "velocity": 0.3937007874015748,
          "duration": 0.09999999999999432
        },
        {
          "name": "C#5",
          "midi": 73,
          "time": 115.4999999999985,
          "velocity": 0.3937007874015748,
          "duration": 0.09999999999999432
        },
        {
          "name": "E5",
          "midi": 76,
          "time": 115.59999999999849,
          "velocity": 0.3937007874015748,
          "duration": 0.09999999999999432
        },
        {
          "name": "F#5",
          "midi": 78,
          "time": 115.69999999999848,
          "velocity": 0.3937007874015748,
          "duration": 0.09999999999999432
        },
        {
          "name": "C#6",
          "midi": 85,
          "time": 115.79999999999848,
          "velocity": 0.3937007874015748,
          "duration": 0.09999999999999432
        },
        {
          "name": "C#5",
          "midi": 73,
          "time": 115.79999999999848,
          "velocity": 0.3937007874015748,
          "duration": 0.09999999999999432
        },
        {
          "name": "G#5",
          "midi": 80,
          "time": 115.79999999999848,
          "velocity": 0.3937007874015748,
          "duration": 0.09999999999999432
        },
        {
          "name": "G#4",
          "midi": 68,
          "time": 115.79999999999848,
          "velocity": 0.3937007874015748,
          "duration": 0.09999999999999432
        },
        {
          "name": "G#4",
          "midi": 68,
          "time": 115.99999999999847,
          "velocity": 0.3937007874015748,
          "duration": 0.09999999999999432
        },
        {
          "name": "G#5",
          "midi": 80,
          "time": 115.99999999999847,
          "velocity": 0.3937007874015748,
          "duration": 0.09999999999999432
        },
        {
          "name": "E4",
          "midi": 64,
          "time": 115.99999999999847,
          "velocity": 0.3937007874015748,
          "duration": 0.09999999999999432
        },
        {
          "name": "E5",
          "midi": 76,
          "time": 115.99999999999847,
          "velocity": 0.3937007874015748,
          "duration": 0.09999999999999432
        },
        {
          "name": "B4",
          "midi": 71,
          "time": 116.39999999999846,
          "velocity": 0.3937007874015748,
          "duration": 0.09999999999999432
        },
        {
          "name": "F#5",
          "midi": 78,
          "time": 116.49999999999845,
          "velocity": 0.3937007874015748,
          "duration": 0.09999999999999432
        },
        {
          "name": "G#5",
          "midi": 80,
          "time": 116.59999999999845,
          "velocity": 0.3937007874015748,
          "duration": 0.09999999999999432
        },
        {
          "name": "G#4",
          "midi": 68,
          "time": 116.59999999999845,
          "velocity": 0.3937007874015748,
          "duration": 0.09999999999999432
        },
        {
          "name": "F#5",
          "midi": 78,
          "time": 116.69999999999844,
          "velocity": 0.3937007874015748,
          "duration": 0.09999999999999432
        },
        {
          "name": "E6",
          "midi": 88,
          "time": 116.79999999999843,
          "velocity": 0.3937007874015748,
          "duration": 0.09999999999999432
        },
        {
          "name": "G#5",
          "midi": 80,
          "time": 116.79999999999843,
          "velocity": 0.3937007874015748,
          "duration": 0.09999999999999432
        },
        {
          "name": "G#4",
          "midi": 68,
          "time": 116.79999999999843,
          "velocity": 0.3937007874015748,
          "duration": 0.09999999999999432
        },
        {
          "name": "E5",
          "midi": 76,
          "time": 116.79999999999843,
          "velocity": 0.3937007874015748,
          "duration": 0.09999999999999432
        },
        {
          "name": "E5",
          "midi": 76,
          "time": 117.19999999999843,
          "velocity": 0.3937007874015748,
          "duration": 0.09999999999999432
        },
        {
          "name": "E4",
          "midi": 64,
          "time": 117.19999999999843,
          "velocity": 0.3937007874015748,
          "duration": 0.09999999999999432
        },
        {
          "name": "B4",
          "midi": 71,
          "time": 117.39999999999841,
          "velocity": 0.3937007874015748,
          "duration": 0.09999999999999432
        },
        {
          "name": "B5",
          "midi": 83,
          "time": 117.39999999999841,
          "velocity": 0.3937007874015748,
          "duration": 0.09999999999999432
        },
        {
          "name": "G#4",
          "midi": 68,
          "time": 117.49999999999841,
          "velocity": 0.3937007874015748,
          "duration": 0.09999999999999432
        },
        {
          "name": "G#5",
          "midi": 80,
          "time": 117.49999999999841,
          "velocity": 0.3937007874015748,
          "duration": 0.09999999999999432
        },
        {
          "name": "D#6",
          "midi": 87,
          "time": 117.5999999999984,
          "velocity": 0.3937007874015748,
          "duration": 0.09999999999999432
        },
        {
          "name": "F#5",
          "midi": 78,
          "time": 117.5999999999984,
          "velocity": 0.3937007874015748,
          "duration": 0.09999999999999432
        },
        {
          "name": "D#5",
          "midi": 75,
          "time": 117.5999999999984,
          "velocity": 0.3937007874015748,
          "duration": 0.09999999999999432
        },
        {
          "name": "F#4",
          "midi": 66,
          "time": 117.5999999999984,
          "velocity": 0.3937007874015748,
          "duration": 0.09999999999999432
        },
        {
          "name": "E6",
          "midi": 88,
          "time": 117.79999999999839,
          "velocity": 0.3937007874015748,
          "duration": 0.09999999999999432
        },
        {
          "name": "G#5",
          "midi": 80,
          "time": 117.79999999999839,
          "velocity": 0.3937007874015748,
          "duration": 0.09999999999999432
        },
        {
          "name": "E5",
          "midi": 76,
          "time": 117.79999999999839,
          "velocity": 0.3937007874015748,
          "duration": 0.09999999999999432
        },
        {
          "name": "G#4",
          "midi": 68,
          "time": 117.79999999999839,
          "velocity": 0.3937007874015748,
          "duration": 0.09999999999999432
        },
        {
          "name": "G#6",
          "midi": 92,
          "time": 117.99999999999838,
          "velocity": 0.3937007874015748,
          "duration": 0.09999999999999432
        },
        {
          "name": "D#6",
          "midi": 87,
          "time": 117.99999999999838,
          "velocity": 0.3937007874015748,
          "duration": 0.09999999999999432
        },
        {
          "name": "G#5",
          "midi": 80,
          "time": 117.99999999999838,
          "velocity": 0.3937007874015748,
          "duration": 0.09999999999999432
        },
        {
          "name": "D#5",
          "midi": 75,
          "time": 117.99999999999838,
          "velocity": 0.3937007874015748,
          "duration": 0.09999999999999432
        },
        {
          "name": "B5",
          "midi": 83,
          "time": 118.19999999999837,
          "velocity": 0.3937007874015748,
          "duration": 0.09999999999999432
        },
        {
          "name": "F#5",
          "midi": 78,
          "time": 118.19999999999837,
          "velocity": 0.3937007874015748,
          "duration": 0.09999999999999432
        },
        {
          "name": "B4",
          "midi": 71,
          "time": 118.19999999999837,
          "velocity": 0.3937007874015748,
          "duration": 0.09999999999999432
        },
        {
          "name": "F#4",
          "midi": 66,
          "time": 118.19999999999837,
          "velocity": 0.3937007874015748,
          "duration": 0.09999999999999432
        },
        {
          "name": "C#6",
          "midi": 85,
          "time": 118.39999999999836,
          "velocity": 0.3937007874015748,
          "duration": 0.09999999999999432
        },
        {
          "name": "A5",
          "midi": 81,
          "time": 118.39999999999836,
          "velocity": 0.3937007874015748,
          "duration": 0.09999999999999432
        },
        {
          "name": "C#5",
          "midi": 73,
          "time": 118.39999999999836,
          "velocity": 0.3937007874015748,
          "duration": 0.09999999999999432
        },
        {
          "name": "A4",
          "midi": 69,
          "time": 118.39999999999836,
          "velocity": 0.3937007874015748,
          "duration": 0.09999999999999432
        },
        {
          "name": "E5",
          "midi": 76,
          "time": 118.49999999999835,
          "velocity": 0.3937007874015748,
          "duration": 0.09999999999999432
        },
        {
          "name": "E4",
          "midi": 64,
          "time": 118.49999999999835,
          "velocity": 0.3937007874015748,
          "duration": 0.09999999999999432
        },
        {
          "name": "B5",
          "midi": 83,
          "time": 118.59999999999835,
          "velocity": 0.3937007874015748,
          "duration": 0.09999999999999432
        },
        {
          "name": "B4",
          "midi": 71,
          "time": 118.59999999999835,
          "velocity": 0.3937007874015748,
          "duration": 0.09999999999999432
        },
        {
          "name": "A5",
          "midi": 81,
          "time": 118.79999999999833,
          "velocity": 0.3937007874015748,
          "duration": 0.09999999999999432
        },
        {
          "name": "A4",
          "midi": 69,
          "time": 118.79999999999833,
          "velocity": 0.3937007874015748,
          "duration": 0.09999999999999432
        },
        {
          "name": "C#6",
          "midi": 85,
          "time": 118.89999999999833,
          "velocity": 0.3937007874015748,
          "duration": 0.09999999999999432
        },
        {
          "name": "C#5",
          "midi": 73,
          "time": 118.89999999999833,
          "velocity": 0.3937007874015748,
          "duration": 0.09999999999999432
        },
        {
          "name": "G#6",
          "midi": 92,
          "time": 118.99999999999832,
          "velocity": 0.3937007874015748,
          "duration": 0.09999999999999432
        },
        {
          "name": "G#5",
          "midi": 80,
          "time": 118.99999999999832,
          "velocity": 0.3937007874015748,
          "duration": 0.09999999999999432
        },
        {
          "name": "E6",
          "midi": 88,
          "time": 118.99999999999832,
          "velocity": 0.3937007874015748,
          "duration": 0.09999999999999432
        },
        {
          "name": "E5",
          "midi": 76,
          "time": 118.99999999999832,
          "velocity": 0.3937007874015748,
          "duration": 0.09999999999999432
        },
        {
          "name": "C#6",
          "midi": 85,
          "time": 119.19999999999831,
          "velocity": 0.3937007874015748,
          "duration": 0.09999999999999432
        },
        {
          "name": "A5",
          "midi": 81,
          "time": 119.19999999999831,
          "velocity": 0.3937007874015748,
          "duration": 0.09999999999999432
        },
        {
          "name": "C#5",
          "midi": 73,
          "time": 119.19999999999831,
          "velocity": 0.3937007874015748,
          "duration": 0.09999999999999432
        },
        {
          "name": "A4",
          "midi": 69,
          "time": 119.19999999999831,
          "velocity": 0.3937007874015748,
          "duration": 0.09999999999999432
        },
        {
          "name": "E5",
          "midi": 76,
          "time": 119.7999999999983,
          "velocity": 0.3937007874015748,
          "duration": 0.09999999999999432
        },
        {
          "name": "E4",
          "midi": 64,
          "time": 119.7999999999983,
          "velocity": 0.3937007874015748,
          "duration": 0.09999999999999432
        },
        {
          "name": "C#6",
          "midi": 85,
          "time": 119.9999999999983,
          "velocity": 0.3937007874015748,
          "duration": 0.09999999999999432
        },
        {
          "name": "A5",
          "midi": 81,
          "time": 119.9999999999983,
          "velocity": 0.3937007874015748,
          "duration": 0.09999999999999432
        },
        {
          "name": "C#5",
          "midi": 73,
          "time": 119.9999999999983,
          "velocity": 0.3937007874015748,
          "duration": 0.09999999999999432
        },
        {
          "name": "A4",
          "midi": 69,
          "time": 119.9999999999983,
          "velocity": 0.3937007874015748,
          "duration": 0.09999999999999432
        },
        {
          "name": "B5",
          "midi": 83,
          "time": 120.19999999999828,
          "velocity": 0.3937007874015748,
          "duration": 0.09999999999999432
        },
        {
          "name": "E5",
          "midi": 76,
          "time": 120.19999999999828,
          "velocity": 0.3937007874015748,
          "duration": 0.09999999999999432
        },
        {
          "name": "B4",
          "midi": 71,
          "time": 120.19999999999828,
          "velocity": 0.3937007874015748,
          "duration": 0.09999999999999432
        },
        {
          "name": "E4",
          "midi": 64,
          "time": 120.19999999999828,
          "velocity": 0.3937007874015748,
          "duration": 0.09999999999999432
        },
        {
          "name": "F#5",
          "midi": 78,
          "time": 120.39999999999827,
          "velocity": 0.3937007874015748,
          "duration": 0.09999999999999432
        },
        {
          "name": "D#5",
          "midi": 75,
          "time": 120.39999999999827,
          "velocity": 0.3937007874015748,
          "duration": 0.09999999999999432
        },
        {
          "name": "F#4",
          "midi": 66,
          "time": 120.39999999999827,
          "velocity": 0.3937007874015748,
          "duration": 0.09999999999999432
        },
        {
          "name": "D#4",
          "midi": 63,
          "time": 120.39999999999827,
          "velocity": 0.3937007874015748,
          "duration": 0.09999999999999432
        },
        {
          "name": "B4",
          "midi": 71,
          "time": 120.59999999999826,
          "velocity": 0.3937007874015748,
          "duration": 0.09999999999999432
        },
        {
          "name": "G#4",
          "midi": 68,
          "time": 120.59999999999826,
          "velocity": 0.3937007874015748,
          "duration": 0.09999999999999432
        },
        {
          "name": "B3",
          "midi": 59,
          "time": 120.59999999999826,
          "velocity": 0.3937007874015748,
          "duration": 0.09999999999999432
        },
        {
          "name": "G#3",
          "midi": 56,
          "time": 120.59999999999826,
          "velocity": 0.3937007874015748,
          "duration": 0.09999999999999432
        },
        {
          "name": "C#5",
          "midi": 73,
          "time": 120.79999999999825,
          "velocity": 0.3937007874015748,
          "duration": 0.09999999999999432
        },
        {
          "name": "A4",
          "midi": 69,
          "time": 120.79999999999825,
          "velocity": 0.3937007874015748,
          "duration": 0.09999999999999432
        },
        {
          "name": "C#4",
          "midi": 61,
          "time": 120.79999999999825,
          "velocity": 0.3937007874015748,
          "duration": 0.09999999999999432
        },
        {
          "name": "A3",
          "midi": 57,
          "time": 120.79999999999825,
          "velocity": 0.3937007874015748,
          "duration": 0.09999999999999432
        },
        {
          "name": "E4",
          "midi": 64,
          "time": 120.99999999999824,
          "velocity": 0.3937007874015748,
          "duration": 0.09999999999999432
        },
        {
          "name": "C#4",
          "midi": 61,
          "time": 120.99999999999824,
          "velocity": 0.3937007874015748,
          "duration": 0.09999999999999432
        },
        {
          "name": "E3",
          "midi": 52,
          "time": 120.99999999999824,
          "velocity": 0.3937007874015748,
          "duration": 0.09999999999999432
        },
        {
          "name": "C#3",
          "midi": 49,
          "time": 121.19999999999823,
          "velocity": 0.3937007874015748,
          "duration": 0.09999999999999432
        },
        {
          "name": "F#4",
          "midi": 66,
          "time": 121.19999999999823,
          "velocity": 0.3937007874015748,
          "duration": 0.09999999999999432
        },
        {
          "name": "D#4",
          "midi": 63,
          "time": 121.19999999999823,
          "velocity": 0.3937007874015748,
          "duration": 0.09999999999999432
        },
        {
          "name": "F#3",
          "midi": 54,
          "time": 121.19999999999823,
          "velocity": 0.3937007874015748,
          "duration": 0.09999999999999432
        },
        {
          "name": "G#3",
          "midi": 56,
          "time": 121.59999999999822,
          "velocity": 0.3937007874015748,
          "duration": 0.09999999999999432
        },
        {
          "name": "E5",
          "midi": 76,
          "time": 121.59999999999822,
          "velocity": 0.3937007874015748,
          "duration": 0.09999999999999432
        },
        {
          "name": "G#4",
          "midi": 68,
          "time": 121.59999999999822,
          "velocity": 0.3937007874015748,
          "duration": 0.09999999999999432
        },
        {
          "name": "E4",
          "midi": 64,
          "time": 121.59999999999822,
          "velocity": 0.3937007874015748,
          "duration": 0.09999999999999432
        },
        {
          "name": "E4",
          "midi": 64,
          "time": 121.7999999999982,
          "velocity": 0.3937007874015748,
          "duration": 0.09999999999999432
        },
        {
          "name": "E3",
          "midi": 52,
          "time": 121.7999999999982,
          "velocity": 0.3937007874015748,
          "duration": 0.09999999999999432
        },
        {
          "name": "D#4",
          "midi": 63,
          "time": 121.8999999999982,
          "velocity": 0.3937007874015748,
          "duration": 0.09999999999999432
        },
        {
          "name": "D#5",
          "midi": 75,
          "time": 121.8999999999982,
          "velocity": 0.3937007874015748,
          "duration": 0.09999999999999432
        },
        {
          "name": "B4",
          "midi": 71,
          "time": 121.9999999999982,
          "velocity": 0.3937007874015748,
          "duration": 0.09999999999999432
        },
        {
          "name": "B3",
          "midi": 59,
          "time": 121.9999999999982,
          "velocity": 0.3937007874015748,
          "duration": 0.09999999999999432
        },
        {
          "name": "C#5",
          "midi": 73,
          "time": 122.09999999999819,
          "velocity": 0.3937007874015748,
          "duration": 0.09999999999999432
        },
        {
          "name": "C#4",
          "midi": 61,
          "time": 122.09999999999819,
          "velocity": 0.3937007874015748,
          "duration": 0.09999999999999432
        },
        {
          "name": "C#4",
          "midi": 61,
          "time": 122.19999999999818,
          "velocity": 0.3937007874015748,
          "duration": 0.09999999999999432
        },
        {
          "name": "G#5",
          "midi": 80,
          "time": 122.19999999999818,
          "velocity": 0.3937007874015748,
          "duration": 0.09999999999999432
        },
        {
          "name": "C#5",
          "midi": 73,
          "time": 122.19999999999818,
          "velocity": 0.3937007874015748,
          "duration": 0.09999999999999432
        },
        {
          "name": "G#4",
          "midi": 68,
          "time": 122.19999999999818,
          "velocity": 0.3937007874015748,
          "duration": 0.09999999999999432
        },
        {
          "name": "C#4",
          "midi": 61,
          "time": 122.39999999999817,
          "velocity": 0.3937007874015748,
          "duration": 0.09999999999999432
        },
        {
          "name": "E5",
          "midi": 76,
          "time": 122.39999999999817,
          "velocity": 0.3937007874015748,
          "duration": 0.09999999999999432
        },
        {
          "name": "C#5",
          "midi": 73,
          "time": 122.39999999999817,
          "velocity": 0.3937007874015748,
          "duration": 0.09999999999999432
        },
        {
          "name": "E4",
          "midi": 64,
          "time": 122.39999999999817,
          "velocity": 0.3937007874015748,
          "duration": 0.09999999999999432
        },
        {
          "name": "G#3",
          "midi": 56,
          "time": 122.79999999999816,
          "velocity": 0.3937007874015748,
          "duration": 0.09999999999999432
        },
        {
          "name": "B4",
          "midi": 71,
          "time": 122.79999999999816,
          "velocity": 0.3937007874015748,
          "duration": 0.09999999999999432
        },
        {
          "name": "G#4",
          "midi": 68,
          "time": 122.79999999999816,
          "velocity": 0.3937007874015748,
          "duration": 0.09999999999999432
        },
        {
          "name": "B3",
          "midi": 59,
          "time": 122.79999999999816,
          "velocity": 0.3937007874015748,
          "duration": 0.09999999999999432
        },
        {
          "name": "E4",
          "midi": 64,
          "time": 122.99999999999815,
          "velocity": 0.3937007874015748,
          "duration": 0.09999999999999432
        },
        {
          "name": "G#5",
          "midi": 80,
          "time": 122.99999999999815,
          "velocity": 0.3937007874015748,
          "duration": 0.09999999999999432
        },
        {
          "name": "G#4",
          "midi": 68,
          "time": 122.99999999999815,
          "velocity": 0.3937007874015748,
          "duration": 0.09999999999999432
        },
        {
          "name": "E5",
          "midi": 76,
          "time": 122.99999999999815,
          "velocity": 0.3937007874015748,
          "duration": 0.09999999999999432
        },
        {
          "name": "E4",
          "midi": 64,
          "time": 123.19999999999814,
          "velocity": 0.3937007874015748,
          "duration": 0.09999999999999432
        },
        {
          "name": "C#6",
          "midi": 85,
          "time": 123.19999999999814,
          "velocity": 0.3937007874015748,
          "duration": 0.09999999999999432
        },
        {
          "name": "E5",
          "midi": 76,
          "time": 123.19999999999814,
          "velocity": 0.3937007874015748,
          "duration": 0.09999999999999432
        },
        {
          "name": "C#5",
          "midi": 73,
          "time": 123.19999999999814,
          "velocity": 0.3937007874015748,
          "duration": 0.09999999999999432
        },
        {
          "name": "E4",
          "midi": 64,
          "time": 123.39999999999813,
          "velocity": 0.3937007874015748,
          "duration": 0.09999999999999432
        },
        {
          "name": "G#5",
          "midi": 80,
          "time": 123.39999999999813,
          "velocity": 0.3937007874015748,
          "duration": 0.09999999999999432
        },
        {
          "name": "G#4",
          "midi": 68,
          "time": 123.39999999999813,
          "velocity": 0.3937007874015748,
          "duration": 0.09999999999999432
        },
        {
          "name": "E5",
          "midi": 76,
          "time": 123.39999999999813,
          "velocity": 0.3937007874015748,
          "duration": 0.09999999999999432
        },
        {
          "name": "G#3",
          "midi": 56,
          "time": 123.59999999999812,
          "velocity": 0.3937007874015748,
          "duration": 0.09999999999999432
        },
        {
          "name": "C#5",
          "midi": 73,
          "time": 123.59999999999812,
          "velocity": 0.3937007874015748,
          "duration": 0.09999999999999432
        },
        {
          "name": "C#4",
          "midi": 61,
          "time": 123.59999999999812,
          "velocity": 0.3937007874015748,
          "duration": 0.09999999999999432
        },
        {
          "name": "G#4",
          "midi": 68,
          "time": 123.59999999999812,
          "velocity": 0.3937007874015748,
          "duration": 0.09999999999999432
        },
        {
          "name": "F#4",
          "midi": 66,
          "time": 123.79999999999811,
          "velocity": 0.3937007874015748,
          "duration": 0.09999999999999432
        },
        {
          "name": "G#4",
          "midi": 68,
          "time": 123.8999999999981,
          "velocity": 0.3937007874015748,
          "duration": 0.09999999999999432
        },
        {
          "name": "D#3",
          "midi": 51,
          "time": 123.9999999999981,
          "velocity": 0.3937007874015748,
          "duration": 0.09999999999999432
        },
        {
          "name": "B4",
          "midi": 71,
          "time": 123.9999999999981,
          "velocity": 0.3937007874015748,
          "duration": 0.09999999999999432
        },
        {
          "name": "B3",
          "midi": 59,
          "time": 123.9999999999981,
          "velocity": 0.3937007874015748,
          "duration": 0.09999999999999432
        },
        {
          "name": "D#4",
          "midi": 63,
          "time": 123.9999999999981,
          "velocity": 0.3937007874015748,
          "duration": 0.09999999999999432
        },
        {
          "name": "D#3",
          "midi": 51,
          "time": 124.19999999999808,
          "velocity": 0.3937007874015748,
          "duration": 0.09999999999999432
        },
        {
          "name": "F#4",
          "midi": 66,
          "time": 124.19999999999808,
          "velocity": 0.3937007874015748,
          "duration": 0.09999999999999432
        },
        {
          "name": "F#3",
          "midi": 54,
          "time": 124.19999999999808,
          "velocity": 0.3937007874015748,
          "duration": 0.09999999999999432
        },
        {
          "name": "D#4",
          "midi": 63,
          "time": 124.19999999999808,
          "velocity": 0.3937007874015748,
          "duration": 0.09999999999999432
        },
        {
          "name": "D#4",
          "midi": 63,
          "time": 124.39999999999807,
          "velocity": 0.3937007874015748,
          "duration": 0.09999999999999432
        },
        {
          "name": "B3",
          "midi": 59,
          "time": 124.49999999999807,
          "velocity": 0.3937007874015748,
          "duration": 0.09999999999999432
        },
        {
          "name": "D#3",
          "midi": 51,
          "time": 124.59999999999806,
          "velocity": 0.3937007874015748,
          "duration": 0.09999999999999432
        },
        {
          "name": "F#4",
          "midi": 66,
          "time": 124.59999999999806,
          "velocity": 0.3937007874015748,
          "duration": 0.09999999999999432
        },
        {
          "name": "F#3",
          "midi": 54,
          "time": 124.59999999999806,
          "velocity": 0.3937007874015748,
          "duration": 0.09999999999999432
        },
        {
          "name": "D#4",
          "midi": 63,
          "time": 124.59999999999806,
          "velocity": 0.3937007874015748,
          "duration": 0.09999999999999432
        },
        {
          "name": "G#3",
          "midi": 56,
          "time": 124.79999999999805,
          "velocity": 0.3937007874015748,
          "duration": 0.09999999999999432
        },
        {
          "name": "E5",
          "midi": 76,
          "time": 124.79999999999805,
          "velocity": 0.3937007874015748,
          "duration": 0.09999999999999432
        },
        {
          "name": "E4",
          "midi": 64,
          "time": 124.79999999999805,
          "velocity": 0.3937007874015748,
          "duration": 0.09999999999999432
        },
        {
          "name": "G#4",
          "midi": 68,
          "time": 124.79999999999805,
          "velocity": 0.3937007874015748,
          "duration": 0.09999999999999432
        },
        {
          "name": "E4",
          "midi": 64,
          "time": 124.99999999999804,
          "velocity": 0.3937007874015748,
          "duration": 0.09999999999999432
        },
        {
          "name": "D#5",
          "midi": 75,
          "time": 125.09999999999803,
          "velocity": 0.3937007874015748,
          "duration": 0.09999999999999432
        },
        {
          "name": "B4",
          "midi": 71,
          "time": 125.19999999999803,
          "velocity": 0.3937007874015748,
          "duration": 0.09999999999999432
        },
        {
          "name": "C#5",
          "midi": 73,
          "time": 125.29999999999802,
          "velocity": 0.3937007874015748,
          "duration": 0.09999999999999432
        },
        {
          "name": "E4",
          "midi": 64,
          "time": 125.39999999999802,
          "velocity": 0.3937007874015748,
          "duration": 0.09999999999999432
        },
        {
          "name": "G#5",
          "midi": 80,
          "time": 125.39999999999802,
          "velocity": 0.3937007874015748,
          "duration": 0.09999999999999432
        },
        {
          "name": "E5",
          "midi": 76,
          "time": 125.39999999999802,
          "velocity": 0.3937007874015748,
          "duration": 0.09999999999999432
        },
        {
          "name": "G#4",
          "midi": 68,
          "time": 125.39999999999802,
          "velocity": 0.3937007874015748,
          "duration": 0.09999999999999432
        },
        {
          "name": "C#4",
          "midi": 61,
          "time": 125.599999999998,
          "velocity": 0.3937007874015748,
          "duration": 0.09999999999999432
        },
        {
          "name": "E5",
          "midi": 76,
          "time": 125.599999999998,
          "velocity": 0.3937007874015748,
          "duration": 0.09999999999999432
        },
        {
          "name": "C#5",
          "midi": 73,
          "time": 125.599999999998,
          "velocity": 0.3937007874015748,
          "duration": 0.09999999999999432
        },
        {
          "name": "E4",
          "midi": 64,
          "time": 125.599999999998,
          "velocity": 0.3937007874015748,
          "duration": 0.09999999999999432
        },
        {
          "name": "G#3",
          "midi": 56,
          "time": 125.999999999998,
          "velocity": 0.3937007874015748,
          "duration": 0.09999999999999432
        },
        {
          "name": "B4",
          "midi": 71,
          "time": 125.999999999998,
          "velocity": 0.3937007874015748,
          "duration": 0.09999999999999432
        },
        {
          "name": "G#4",
          "midi": 68,
          "time": 125.999999999998,
          "velocity": 0.3937007874015748,
          "duration": 0.09999999999999432
        },
        {
          "name": "B3",
          "midi": 59,
          "time": 125.999999999998,
          "velocity": 0.3937007874015748,
          "duration": 0.09999999999999432
        },
        {
          "name": "E4",
          "midi": 64,
          "time": 126.19999999999798,
          "velocity": 0.3937007874015748,
          "duration": 0.09999999999999432
        },
        {
          "name": "G#5",
          "midi": 80,
          "time": 126.19999999999798,
          "velocity": 0.3937007874015748,
          "duration": 0.09999999999999432
        },
        {
          "name": "G#4",
          "midi": 68,
          "time": 126.19999999999798,
          "velocity": 0.3937007874015748,
          "duration": 0.09999999999999432
        },
        {
          "name": "E5",
          "midi": 76,
          "time": 126.19999999999798,
          "velocity": 0.3937007874015748,
          "duration": 0.09999999999999432
        },
        {
          "name": "E4",
          "midi": 64,
          "time": 126.39999999999797,
          "velocity": 0.3937007874015748,
          "duration": 0.09999999999999432
        },
        {
          "name": "C#6",
          "midi": 85,
          "time": 126.39999999999797,
          "velocity": 0.3937007874015748,
          "duration": 0.09999999999999432
        },
        {
          "name": "E5",
          "midi": 76,
          "time": 126.39999999999797,
          "velocity": 0.3937007874015748,
          "duration": 0.09999999999999432
        },
        {
          "name": "C#5",
          "midi": 73,
          "time": 126.39999999999797,
          "velocity": 0.3937007874015748,
          "duration": 0.09999999999999432
        },
        {
          "name": "E4",
          "midi": 64,
          "time": 126.79999999999797,
          "velocity": 0.3937007874015748,
          "duration": 0.09999999999999432
        },
        {
          "name": "B5",
          "midi": 83,
          "time": 126.79999999999797,
          "velocity": 0.3937007874015748,
          "duration": 0.09999999999999432
        },
        {
          "name": "E5",
          "midi": 76,
          "time": 126.79999999999797,
          "velocity": 0.3937007874015748,
          "duration": 0.09999999999999432
        },
        {
          "name": "B4",
          "midi": 71,
          "time": 126.79999999999797,
          "velocity": 0.3937007874015748,
          "duration": 0.09999999999999432
        },
        {
          "name": "B3",
          "midi": 59,
          "time": 126.99999999999795,
          "velocity": 0.3937007874015748,
          "duration": 0.09999999999999432
        },
        {
          "name": "D#5",
          "midi": 75,
          "time": 126.99999999999795,
          "velocity": 0.3937007874015748,
          "duration": 0.09999999999999432
        },
        {
          "name": "B4",
          "midi": 71,
          "time": 126.99999999999795,
          "velocity": 0.3937007874015748,
          "duration": 0.09999999999999432
        },
        {
          "name": "D#4",
          "midi": 63,
          "time": 126.99999999999795,
          "velocity": 0.3937007874015748,
          "duration": 0.09999999999999432
        },
        {
          "name": "G#5",
          "midi": 80,
          "time": 127.19999999999794,
          "velocity": 0.3937007874015748,
          "duration": 0.09999999999999432
        },
        {
          "name": "F#5",
          "midi": 78,
          "time": 127.29999999999794,
          "velocity": 0.3937007874015748,
          "duration": 0.09999999999999432
        },
        {
          "name": "G#3",
          "midi": 56,
          "time": 127.39999999999793,
          "velocity": 0.3937007874015748,
          "duration": 0.09999999999999432
        },
        {
          "name": "B4",
          "midi": 71,
          "time": 127.39999999999793,
          "velocity": 0.3937007874015748,
          "duration": 0.09999999999999432
        },
        {
          "name": "B3",
          "midi": 59,
          "time": 127.39999999999793,
          "velocity": 0.3937007874015748,
          "duration": 0.09999999999999432
        },
        {
          "name": "G#4",
          "midi": 68,
          "time": 127.39999999999793,
          "velocity": 0.3937007874015748,
          "duration": 0.09999999999999432
        },
        {
          "name": "D#5",
          "midi": 75,
          "time": 127.59999999999792,
          "velocity": 0.3937007874015748,
          "duration": 0.09999999999999432
        },
        {
          "name": "C#5",
          "midi": 73,
          "time": 127.69999999999791,
          "velocity": 0.3937007874015748,
          "duration": 0.09999999999999432
        },
        {
          "name": "D#3",
          "midi": 51,
          "time": 127.79999999999791,
          "velocity": 0.3937007874015748,
          "duration": 0.09999999999999432
        },
        {
          "name": "F#4",
          "midi": 66,
          "time": 127.79999999999791,
          "velocity": 0.3937007874015748,
          "duration": 0.09999999999999432
        },
        {
          "name": "D#4",
          "midi": 63,
          "time": 127.79999999999791,
          "velocity": 0.3937007874015748,
          "duration": 0.09999999999999432
        },
        {
          "name": "F#3",
          "midi": 54,
          "time": 127.79999999999791,
          "velocity": 0.3937007874015748,
          "duration": 0.09999999999999432
        },
        {
          "name": "G#3",
          "midi": 56,
          "time": 127.9999999999979,
          "velocity": 0.3937007874015748,
          "duration": 0.09999999999999432
        },
        {
          "name": "E5",
          "midi": 76,
          "time": 127.9999999999979,
          "velocity": 0.3937007874015748,
          "duration": 0.09999999999999432
        },
        {
          "name": "E4",
          "midi": 64,
          "time": 127.9999999999979,
          "velocity": 0.3937007874015748,
          "duration": 0.09999999999999432
        },
        {
          "name": "G#4",
          "midi": 68,
          "time": 127.9999999999979,
          "velocity": 0.3937007874015748,
          "duration": 0.09999999999999432
        },
        {
          "name": "E4",
          "midi": 64,
          "time": 128.19999999999789,
          "velocity": 0.3937007874015748,
          "duration": 0.09999999999999432
        },
        {
          "name": "D#5",
          "midi": 75,
          "time": 128.29999999999788,
          "velocity": 0.3937007874015748,
          "duration": 0.09999999999999432
        },
        {
          "name": "B4",
          "midi": 71,
          "time": 128.39999999999787,
          "velocity": 0.3937007874015748,
          "duration": 0.09999999999999432
        },
        {
          "name": "C#5",
          "midi": 73,
          "time": 128.49999999999787,
          "velocity": 0.3937007874015748,
          "duration": 0.09999999999999432
        },
        {
          "name": "E4",
          "midi": 64,
          "time": 128.59999999999786,
          "velocity": 0.3937007874015748,
          "duration": 0.09999999999999432
        },
        {
          "name": "G#5",
          "midi": 80,
          "time": 128.59999999999786,
          "velocity": 0.3937007874015748,
          "duration": 0.09999999999999432
        },
        {
          "name": "E5",
          "midi": 76,
          "time": 128.59999999999786,
          "velocity": 0.3937007874015748,
          "duration": 0.09999999999999432
        },
        {
          "name": "G#4",
          "midi": 68,
          "time": 128.59999999999786,
          "velocity": 0.3937007874015748,
          "duration": 0.09999999999999432
        },
        {
          "name": "C#4",
          "midi": 61,
          "time": 128.79999999999785,
          "velocity": 0.3937007874015748,
          "duration": 0.09999999999999432
        },
        {
          "name": "E5",
          "midi": 76,
          "time": 128.79999999999785,
          "velocity": 0.3937007874015748,
          "duration": 0.09999999999999432
        },
        {
          "name": "C#5",
          "midi": 73,
          "time": 128.79999999999785,
          "velocity": 0.3937007874015748,
          "duration": 0.09999999999999432
        },
        {
          "name": "E4",
          "midi": 64,
          "time": 128.79999999999785,
          "velocity": 0.3937007874015748,
          "duration": 0.09999999999999432
        },
        {
          "name": "G#3",
          "midi": 56,
          "time": 129.19999999999786,
          "velocity": 0.3937007874015748,
          "duration": 0.09999999999999432
        },
        {
          "name": "B4",
          "midi": 71,
          "time": 129.19999999999786,
          "velocity": 0.3937007874015748,
          "duration": 0.09999999999999432
        },
        {
          "name": "G#4",
          "midi": 68,
          "time": 129.19999999999786,
          "velocity": 0.3937007874015748,
          "duration": 0.09999999999999432
        },
        {
          "name": "B3",
          "midi": 59,
          "time": 129.19999999999786,
          "velocity": 0.3937007874015748,
          "duration": 0.09999999999999432
        },
        {
          "name": "E4",
          "midi": 64,
          "time": 129.39999999999785,
          "velocity": 0.3937007874015748,
          "duration": 0.09999999999999432
        },
        {
          "name": "G#5",
          "midi": 80,
          "time": 129.39999999999785,
          "velocity": 0.3937007874015748,
          "duration": 0.09999999999999432
        },
        {
          "name": "G#4",
          "midi": 68,
          "time": 129.39999999999785,
          "velocity": 0.3937007874015748,
          "duration": 0.09999999999999432
        },
        {
          "name": "E5",
          "midi": 76,
          "time": 129.39999999999785,
          "velocity": 0.3937007874015748,
          "duration": 0.09999999999999432
        },
        {
          "name": "E4",
          "midi": 64,
          "time": 129.59999999999783,
          "velocity": 0.3937007874015748,
          "duration": 0.09999999999999432
        },
        {
          "name": "C#6",
          "midi": 85,
          "time": 129.59999999999783,
          "velocity": 0.3937007874015748,
          "duration": 0.09999999999999432
        },
        {
          "name": "E5",
          "midi": 76,
          "time": 129.59999999999783,
          "velocity": 0.3937007874015748,
          "duration": 0.09999999999999432
        },
        {
          "name": "C#5",
          "midi": 73,
          "time": 129.59999999999783,
          "velocity": 0.3937007874015748,
          "duration": 0.09999999999999432
        },
        {
          "name": "E4",
          "midi": 64,
          "time": 129.79999999999782,
          "velocity": 0.3937007874015748,
          "duration": 0.09999999999999432
        },
        {
          "name": "G#5",
          "midi": 80,
          "time": 129.79999999999782,
          "velocity": 0.3937007874015748,
          "duration": 0.09999999999999432
        },
        {
          "name": "G#4",
          "midi": 68,
          "time": 129.79999999999782,
          "velocity": 0.3937007874015748,
          "duration": 0.09999999999999432
        },
        {
          "name": "E5",
          "midi": 76,
          "time": 129.79999999999782,
          "velocity": 0.3937007874015748,
          "duration": 0.09999999999999432
        },
        {
          "name": "B3",
          "midi": 59,
          "time": 129.9999999999978,
          "velocity": 0.3937007874015748,
          "duration": 0.09999999999999432
        },
        {
          "name": "D#5",
          "midi": 75,
          "time": 129.9999999999978,
          "velocity": 0.3937007874015748,
          "duration": 0.09999999999999432
        },
        {
          "name": "D#4",
          "midi": 63,
          "time": 129.9999999999978,
          "velocity": 0.3937007874015748,
          "duration": 0.09999999999999432
        },
        {
          "name": "B4",
          "midi": 71,
          "time": 129.9999999999978,
          "velocity": 0.3937007874015748,
          "duration": 0.09999999999999432
        },
        {
          "name": "B5",
          "midi": 83,
          "time": 130.1999999999978,
          "velocity": 0.3937007874015748,
          "duration": 0.09999999999999432
        },
        {
          "name": "C#6",
          "midi": 85,
          "time": 130.2999999999978,
          "velocity": 0.3937007874015748,
          "duration": 0.09999999999999432
        },
        {
          "name": "F#4",
          "midi": 66,
          "time": 130.3999999999978,
          "velocity": 0.3937007874015748,
          "duration": 0.09999999999999432
        },
        {
          "name": "D#6",
          "midi": 87,
          "time": 130.3999999999978,
          "velocity": 0.3937007874015748,
          "duration": 0.09999999999999432
        },
        {
          "name": "D#5",
          "midi": 75,
          "time": 130.3999999999978,
          "velocity": 0.3937007874015748,
          "duration": 0.09999999999999432
        },
        {
          "name": "F#5",
          "midi": 78,
          "time": 130.3999999999978,
          "velocity": 0.3937007874015748,
          "duration": 0.09999999999999432
        },
        {
          "name": "F#4",
          "midi": 66,
          "time": 130.59999999999778,
          "velocity": 0.3937007874015748,
          "duration": 0.09999999999999432
        },
        {
          "name": "E6",
          "midi": 88,
          "time": 130.59999999999778,
          "velocity": 0.3937007874015748,
          "duration": 0.09999999999999432
        },
        {
          "name": "E5",
          "midi": 76,
          "time": 130.59999999999778,
          "velocity": 0.3937007874015748,
          "duration": 0.09999999999999432
        },
        {
          "name": "F#5",
          "midi": 78,
          "time": 130.59999999999778,
          "velocity": 0.3937007874015748,
          "duration": 0.09999999999999432
        },
        {
          "name": "E5",
          "midi": 76,
          "time": 130.79999999999777,
          "velocity": 0.3937007874015748,
          "duration": 0.09999999999999432
        },
        {
          "name": "G#6",
          "midi": 92,
          "time": 130.79999999999777,
          "velocity": 0.3937007874015748,
          "duration": 0.09999999999999432
        },
        {
          "name": "G#5",
          "midi": 80,
          "time": 130.79999999999777,
          "velocity": 0.3937007874015748,
          "duration": 0.09999999999999432
        },
        {
          "name": "E6",
          "midi": 88,
          "time": 130.79999999999777,
          "velocity": 0.3937007874015748,
          "duration": 0.09999999999999432
        },
        {
          "name": "B5",
          "midi": 83,
          "time": 130.89999999999776,
          "velocity": 0.3937007874015748,
          "duration": 0.09999999999999432
        },
        {
          "name": "B4",
          "midi": 71,
          "time": 130.89999999999776,
          "velocity": 0.3937007874015748,
          "duration": 0.09999999999999432
        },
        {
          "name": "B4",
          "midi": 71,
          "time": 130.99999999999775,
          "velocity": 0.3937007874015748,
          "duration": 0.09999999999999432
        },
        {
          "name": "D#6",
          "midi": 87,
          "time": 130.99999999999775,
          "velocity": 0.3937007874015748,
          "duration": 0.09999999999999432
        },
        {
          "name": "D#5",
          "midi": 75,
          "time": 130.99999999999775,
          "velocity": 0.3937007874015748,
          "duration": 0.09999999999999432
        },
        {
          "name": "B5",
          "midi": 83,
          "time": 130.99999999999775,
          "velocity": 0.3937007874015748,
          "duration": 0.09999999999999432
        },
        {
          "name": "C#5",
          "midi": 73,
          "time": 131.19999999999774,
          "velocity": 0.3937007874015748,
          "duration": 0.09999999999999432
        },
        {
          "name": "E6",
          "midi": 88,
          "time": 131.19999999999774,
          "velocity": 0.3937007874015748,
          "duration": 0.09999999999999432
        },
        {
          "name": "E5",
          "midi": 76,
          "time": 131.19999999999774,
          "velocity": 0.3937007874015748,
          "duration": 0.09999999999999432
        },
        {
          "name": "C#6",
          "midi": 85,
          "time": 131.19999999999774,
          "velocity": 0.3937007874015748,
          "duration": 0.09999999999999432
        },
        {
          "name": "E5",
          "midi": 76,
          "time": 131.29999999999774,
          "velocity": 0.3937007874015748,
          "duration": 0.09999999999999432
        },
        {
          "name": "E4",
          "midi": 64,
          "time": 131.29999999999774,
          "velocity": 0.3937007874015748,
          "duration": 0.09999999999999432
        },
        {
          "name": "B5",
          "midi": 83,
          "time": 131.39999999999773,
          "velocity": 0.3937007874015748,
          "duration": 0.09999999999999432
        },
        {
          "name": "B4",
          "midi": 71,
          "time": 131.39999999999773,
          "velocity": 0.3937007874015748,
          "duration": 0.09999999999999432
        },
        {
          "name": "E5",
          "midi": 76,
          "time": 131.39999999999773,
          "velocity": 0.3937007874015748,
          "duration": 0.09999999999999432
        },
        {
          "name": "E4",
          "midi": 64,
          "time": 131.39999999999773,
          "velocity": 0.3937007874015748,
          "duration": 0.09999999999999432
        },
        {
          "name": "A5",
          "midi": 81,
          "time": 131.59999999999772,
          "velocity": 0.3937007874015748,
          "duration": 0.09999999999999432
        },
        {
          "name": "A4",
          "midi": 69,
          "time": 131.59999999999772,
          "velocity": 0.3937007874015748,
          "duration": 0.09999999999999432
        },
        {
          "name": "E5",
          "midi": 76,
          "time": 131.59999999999772,
          "velocity": 0.3937007874015748,
          "duration": 0.09999999999999432
        },
        {
          "name": "E4",
          "midi": 64,
          "time": 131.59999999999772,
          "velocity": 0.3937007874015748,
          "duration": 0.09999999999999432
        },
        {
          "name": "E5",
          "midi": 76,
          "time": 131.7999999999977,
          "velocity": 0.3937007874015748,
          "duration": 0.09999999999999432
        },
        {
          "name": "G#6",
          "midi": 92,
          "time": 131.7999999999977,
          "velocity": 0.3937007874015748,
          "duration": 0.09999999999999432
        },
        {
          "name": "G#5",
          "midi": 80,
          "time": 131.7999999999977,
          "velocity": 0.3937007874015748,
          "duration": 0.09999999999999432
        },
        {
          "name": "E6",
          "midi": 88,
          "time": 131.7999999999977,
          "velocity": 0.3937007874015748,
          "duration": 0.09999999999999432
        },
        {
          "name": "C#5",
          "midi": 73,
          "time": 131.9999999999977,
          "velocity": 0.3937007874015748,
          "duration": 0.09999999999999432
        },
        {
          "name": "E5",
          "midi": 76,
          "time": 131.9999999999977,
          "velocity": 0.3937007874015748,
          "duration": 0.09999999999999432
        },
        {
          "name": "C#6",
          "midi": 85,
          "time": 131.9999999999977,
          "velocity": 0.3937007874015748,
          "duration": 0.09999999999999432
        },
        {
          "name": "E6",
          "midi": 88,
          "time": 131.9999999999977,
          "velocity": 0.3937007874015748,
          "duration": 0.09999999999999432
        },
        {
          "name": "E4",
          "midi": 64,
          "time": 132.1999999999977,
          "velocity": 0.3937007874015748,
          "duration": 0.09999999999999432
        },
        {
          "name": "G#5",
          "midi": 80,
          "time": 132.1999999999977,
          "velocity": 0.3937007874015748,
          "duration": 0.09999999999999432
        },
        {
          "name": "G#4",
          "midi": 68,
          "time": 132.1999999999977,
          "velocity": 0.3937007874015748,
          "duration": 0.09999999999999432
        },
        {
          "name": "E5",
          "midi": 76,
          "time": 132.1999999999977,
          "velocity": 0.3937007874015748,
          "duration": 0.09999999999999432
        },
        {
          "name": "C#6",
          "midi": 85,
          "time": 132.39999999999768,
          "velocity": 0.3937007874015748,
          "duration": 0.09999999999999432
        },
        {
          "name": "C#5",
          "midi": 73,
          "time": 132.39999999999768,
          "velocity": 0.3937007874015748,
          "duration": 0.09999999999999432
        },
        {
          "name": "B5",
          "midi": 83,
          "time": 132.49999999999767,
          "velocity": 0.3937007874015748,
          "duration": 0.09999999999999432
        },
        {
          "name": "B4",
          "midi": 71,
          "time": 132.49999999999767,
          "velocity": 0.3937007874015748,
          "duration": 0.09999999999999432
        },
        {
          "name": "C#4",
          "midi": 61,
          "time": 132.59999999999766,
          "velocity": 0.3937007874015748,
          "duration": 0.09999999999999432
        },
        {
          "name": "E5",
          "midi": 76,
          "time": 132.59999999999766,
          "velocity": 0.3937007874015748,
          "duration": 0.09999999999999432
        },
        {
          "name": "E4",
          "midi": 64,
          "time": 132.59999999999766,
          "velocity": 0.3937007874015748,
          "duration": 0.09999999999999432
        },
        {
          "name": "C#5",
          "midi": 73,
          "time": 132.59999999999766,
          "velocity": 0.3937007874015748,
          "duration": 0.09999999999999432
        },
        {
          "name": "E5",
          "midi": 76,
          "time": 132.79999999999765,
          "velocity": 0.3937007874015748,
          "duration": 0.09999999999999432
        },
        {
          "name": "B4",
          "midi": 71,
          "time": 132.89999999999765,
          "velocity": 0.3937007874015748,
          "duration": 0.09999999999999432
        },
        {
          "name": "A4",
          "midi": 69,
          "time": 132.99999999999764,
          "velocity": 0.3937007874015748,
          "duration": 0.09999999999999432
        },
        {
          "name": "C#5",
          "midi": 73,
          "time": 133.19999999999763,
          "velocity": 0.3937007874015748,
          "duration": 0.09999999999999432
        },
        {
          "name": "B4",
          "midi": 71,
          "time": 133.29999999999762,
          "velocity": 0.3937007874015748,
          "duration": 0.09999999999999432
        },
        {
          "name": "E4",
          "midi": 64,
          "time": 133.39999999999762,
          "velocity": 0.3937007874015748,
          "duration": 0.09999999999999432
        },
        {
          "name": "C#5",
          "midi": 73,
          "time": 133.5999999999976,
          "velocity": 0.3937007874015748,
          "duration": 0.09999999999999432
        },
        {
          "name": "B4",
          "midi": 71,
          "time": 133.6999999999976,
          "velocity": 0.3937007874015748,
          "duration": 0.09999999999999432
        },
        {
          "name": "E4",
          "midi": 64,
          "time": 133.7999999999976,
          "velocity": 0.3937007874015748,
          "duration": 0.09999999999999432
        },
        {
          "name": "F#4",
          "midi": 66,
          "time": 133.99999999999758,
          "velocity": 0.3937007874015748,
          "duration": 0.09999999999999432
        },
        {
          "name": "C#4",
          "midi": 61,
          "time": 134.09999999999758,
          "velocity": 0.3937007874015748,
          "duration": 0.09999999999999432
        },
        {
          "name": "B3",
          "midi": 59,
          "time": 134.19999999999757,
          "velocity": 0.3937007874015748,
          "duration": 0.09999999999999432
        },
        {
          "name": "A4",
          "midi": 69,
          "time": 134.39999999999756,
          "velocity": 0.3937007874015748,
          "duration": 0.09999999999999432
        },
        {
          "name": "F4",
          "midi": 65,
          "time": 134.39999999999756,
          "velocity": 0.3937007874015748,
          "duration": 0.09999999999999432
        },
        {
          "name": "D5",
          "midi": 74,
          "time": 134.99999999999756,
          "velocity": 0.3937007874015748,
          "duration": 0.09999999999999432
        },
        {
          "name": "E4",
          "midi": 64,
          "time": 134.99999999999756,
          "velocity": 0.3937007874015748,
          "duration": 0.09999999999999432
        },
        {
          "name": "A4",
          "midi": 69,
          "time": 135.19999999999754,
          "velocity": 0.3937007874015748,
          "duration": 0.09999999999999432
        },
        {
          "name": "F4",
          "midi": 65,
          "time": 135.19999999999754,
          "velocity": 0.3937007874015748,
          "duration": 0.09999999999999432
        },
        {
          "name": "F5",
          "midi": 77,
          "time": 135.99999999999753,
          "velocity": 0.3937007874015748,
          "duration": 0.09999999999999432
        },
        {
          "name": "A4",
          "midi": 69,
          "time": 135.99999999999753,
          "velocity": 0.3937007874015748,
          "duration": 0.09999999999999432
        },
        {
          "name": "C5",
          "midi": 72,
          "time": 136.59999999999752,
          "velocity": 0.3937007874015748,
          "duration": 0.09999999999999432
        },
        {
          "name": "D5",
          "midi": 74,
          "time": 136.69999999999752,
          "velocity": 0.3937007874015748,
          "duration": 0.09999999999999432
        },
        {
          "name": "E5",
          "midi": 76,
          "time": 136.7999999999975,
          "velocity": 0.3937007874015748,
          "duration": 0.09999999999999432
        },
        {
          "name": "G4",
          "midi": 67,
          "time": 136.7999999999975,
          "velocity": 0.3937007874015748,
          "duration": 0.09999999999999432
        },
        {
          "name": "F5",
          "midi": 77,
          "time": 136.9999999999975,
          "velocity": 0.3937007874015748,
          "duration": 0.09999999999999432
        },
        {
          "name": "G4",
          "midi": 67,
          "time": 136.9999999999975,
          "velocity": 0.3937007874015748,
          "duration": 0.09999999999999432
        },
        {
          "name": "C5",
          "midi": 72,
          "time": 137.1999999999975,
          "velocity": 0.3937007874015748,
          "duration": 0.09999999999999432
        },
        {
          "name": "E4",
          "midi": 64,
          "time": 137.1999999999975,
          "velocity": 0.3937007874015748,
          "duration": 0.09999999999999432
        },
        {
          "name": "E5",
          "midi": 76,
          "time": 137.39999999999748,
          "velocity": 0.3937007874015748,
          "duration": 0.09999999999999432
        },
        {
          "name": "G4",
          "midi": 67,
          "time": 137.39999999999748,
          "velocity": 0.3937007874015748,
          "duration": 0.09999999999999432
        },
        {
          "name": "A4",
          "midi": 69,
          "time": 137.59999999999746,
          "velocity": 0.3937007874015748,
          "duration": 0.09999999999999432
        },
        {
          "name": "F4",
          "midi": 65,
          "time": 137.59999999999746,
          "velocity": 0.3937007874015748,
          "duration": 0.09999999999999432
        },
        {
          "name": "D5",
          "midi": 74,
          "time": 138.19999999999746,
          "velocity": 0.3937007874015748,
          "duration": 0.09999999999999432
        },
        {
          "name": "A4",
          "midi": 69,
          "time": 138.19999999999746,
          "velocity": 0.3937007874015748,
          "duration": 0.09999999999999432
        },
        {
          "name": "A4",
          "midi": 69,
          "time": 138.39999999999745,
          "velocity": 0.3937007874015748,
          "duration": 0.09999999999999432
        },
        {
          "name": "F4",
          "midi": 65,
          "time": 138.39999999999745,
          "velocity": 0.3937007874015748,
          "duration": 0.09999999999999432
        },
        {
          "name": "F5",
          "midi": 77,
          "time": 139.19999999999743,
          "velocity": 0.3937007874015748,
          "duration": 0.09999999999999432
        },
        {
          "name": "A4",
          "midi": 69,
          "time": 139.19999999999743,
          "velocity": 0.3937007874015748,
          "duration": 0.09999999999999432
        },
        {
          "name": "C5",
          "midi": 72,
          "time": 140.19999999999743,
          "velocity": 0.3937007874015748,
          "duration": 0.09999999999999432
        },
        {
          "name": "G4",
          "midi": 67,
          "time": 140.19999999999743,
          "velocity": 0.3937007874015748,
          "duration": 0.09999999999999432
        },
        {
          "name": "F4",
          "midi": 65,
          "time": 140.39999999999742,
          "velocity": 0.3937007874015748,
          "duration": 0.09999999999999432
        },
        {
          "name": "C4",
          "midi": 60,
          "time": 140.39999999999742,
          "velocity": 0.3937007874015748,
          "duration": 0.09999999999999432
        },
        {
          "name": "G4",
          "midi": 67,
          "time": 140.5999999999974,
          "velocity": 0.3937007874015748,
          "duration": 0.09999999999999432
        },
        {
          "name": "D4",
          "midi": 62,
          "time": 140.5999999999974,
          "velocity": 0.3937007874015748,
          "duration": 0.09999999999999432
        },
        {
          "name": "A4",
          "midi": 69,
          "time": 140.7999999999974,
          "velocity": 0.3937007874015748,
          "duration": 0.09999999999999432
        },
        {
          "name": "F4",
          "midi": 65,
          "time": 140.7999999999974,
          "velocity": 0.3937007874015748,
          "duration": 0.09999999999999432
        },
        {
          "name": "D5",
          "midi": 74,
          "time": 141.3999999999974,
          "velocity": 0.3937007874015748,
          "duration": 0.09999999999999432
        },
        {
          "name": "E4",
          "midi": 64,
          "time": 141.3999999999974,
          "velocity": 0.3937007874015748,
          "duration": 0.09999999999999432
        },
        {
          "name": "A4",
          "midi": 69,
          "time": 141.59999999999738,
          "velocity": 0.3937007874015748,
          "duration": 0.09999999999999432
        },
        {
          "name": "F4",
          "midi": 65,
          "time": 141.59999999999738,
          "velocity": 0.3937007874015748,
          "duration": 0.09999999999999432
        },
        {
          "name": "F5",
          "midi": 77,
          "time": 142.39999999999736,
          "velocity": 0.3937007874015748,
          "duration": 0.09999999999999432
        },
        {
          "name": "A4",
          "midi": 69,
          "time": 142.39999999999736,
          "velocity": 0.3937007874015748,
          "duration": 0.09999999999999432
        },
        {
          "name": "C5",
          "midi": 72,
          "time": 142.99999999999736,
          "velocity": 0.3937007874015748,
          "duration": 0.09999999999999432
        },
        {
          "name": "D5",
          "midi": 74,
          "time": 143.09999999999735,
          "velocity": 0.3937007874015748,
          "duration": 0.09999999999999432
        },
        {
          "name": "E5",
          "midi": 76,
          "time": 143.19999999999735,
          "velocity": 0.3937007874015748,
          "duration": 0.09999999999999432
        },
        {
          "name": "G4",
          "midi": 67,
          "time": 143.19999999999735,
          "velocity": 0.3937007874015748,
          "duration": 0.09999999999999432
        },
        {
          "name": "F5",
          "midi": 77,
          "time": 143.39999999999733,
          "velocity": 0.3937007874015748,
          "duration": 0.09999999999999432
        },
        {
          "name": "G4",
          "midi": 67,
          "time": 143.39999999999733,
          "velocity": 0.3937007874015748,
          "duration": 0.09999999999999432
        },
        {
          "name": "C5",
          "midi": 72,
          "time": 143.59999999999732,
          "velocity": 0.3937007874015748,
          "duration": 0.09999999999999432
        },
        {
          "name": "E4",
          "midi": 64,
          "time": 143.59999999999732,
          "velocity": 0.3937007874015748,
          "duration": 0.09999999999999432
        },
        {
          "name": "E5",
          "midi": 76,
          "time": 143.7999999999973,
          "velocity": 0.3937007874015748,
          "duration": 0.09999999999999432
        },
        {
          "name": "G4",
          "midi": 67,
          "time": 143.7999999999973,
          "velocity": 0.3937007874015748,
          "duration": 0.09999999999999432
        },
        {
          "name": "D5",
          "midi": 74,
          "time": 143.9999999999973,
          "velocity": 0.3937007874015748,
          "duration": 0.09999999999999432
        },
        {
          "name": "A#4",
          "midi": 70,
          "time": 143.9999999999973,
          "velocity": 0.3937007874015748,
          "duration": 0.09999999999999432
        },
        {
          "name": "A5",
          "midi": 81,
          "time": 144.5999999999973,
          "velocity": 0.3937007874015748,
          "duration": 0.09999999999999432
        },
        {
          "name": "D5",
          "midi": 74,
          "time": 144.5999999999973,
          "velocity": 0.3937007874015748,
          "duration": 0.09999999999999432
        },
        {
          "name": "D5",
          "midi": 74,
          "time": 144.79999999999728,
          "velocity": 0.3937007874015748,
          "duration": 0.09999999999999432
        },
        {
          "name": "A#4",
          "midi": 70,
          "time": 144.79999999999728,
          "velocity": 0.3937007874015748,
          "duration": 0.09999999999999432
        },
        {
          "name": "F4",
          "midi": 65,
          "time": 145.79999999999728,
          "velocity": 0.3937007874015748,
          "duration": 0.09999999999999432
        },
        {
          "name": "D4",
          "midi": 62,
          "time": 145.79999999999728,
          "velocity": 0.3937007874015748,
          "duration": 0.09999999999999432
        },
        {
          "name": "C5",
          "midi": 72,
          "time": 145.99999999999727,
          "velocity": 0.3937007874015748,
          "duration": 0.09999999999999432
        },
        {
          "name": "G4",
          "midi": 67,
          "time": 145.99999999999727,
          "velocity": 0.3937007874015748,
          "duration": 0.09999999999999432
        },
        {
          "name": "F5",
          "midi": 77,
          "time": 146.59999999999727,
          "velocity": 0.3937007874015748,
          "duration": 0.09999999999999432
        },
        {
          "name": "C5",
          "midi": 72,
          "time": 146.59999999999727,
          "velocity": 0.3937007874015748,
          "duration": 0.09999999999999432
        },
        {
          "name": "A#4",
          "midi": 70,
          "time": 146.79999999999725,
          "velocity": 0.3937007874015748,
          "duration": 0.09999999999999432
        },
        {
          "name": "F4",
          "midi": 65,
          "time": 146.79999999999725,
          "velocity": 0.3937007874015748,
          "duration": 0.09999999999999432
        },
        {
          "name": "C5",
          "midi": 72,
          "time": 146.99999999999724,
          "velocity": 0.3937007874015748,
          "duration": 0.09999999999999432
        },
        {
          "name": "G4",
          "midi": 67,
          "time": 146.99999999999724,
          "velocity": 0.3937007874015748,
          "duration": 0.09999999999999432
        },
        {
          "name": "F5",
          "midi": 77,
          "time": 147.19999999999723,
          "velocity": 0.3937007874015748,
          "duration": 0.09999999999999432
        },
        {
          "name": "F4",
          "midi": 65,
          "time": 147.19999999999723,
          "velocity": 0.3937007874015748,
          "duration": 0.09999999999999432
        },
        {
          "name": "D5",
          "midi": 74,
          "time": 147.19999999999723,
          "velocity": 0.3937007874015748,
          "duration": 0.09999999999999432
        },
        {
          "name": "A5",
          "midi": 81,
          "time": 147.79999999999723,
          "velocity": 0.3937007874015748,
          "duration": 0.09999999999999432
        },
        {
          "name": "A4",
          "midi": 69,
          "time": 147.79999999999723,
          "velocity": 0.3937007874015748,
          "duration": 0.09999999999999432
        },
        {
          "name": "F5",
          "midi": 77,
          "time": 147.79999999999723,
          "velocity": 0.3937007874015748,
          "duration": 0.09999999999999432
        },
        {
          "name": "F5",
          "midi": 77,
          "time": 147.99999999999721,
          "velocity": 0.3937007874015748,
          "duration": 0.09999999999999432
        },
        {
          "name": "F4",
          "midi": 65,
          "time": 147.99999999999721,
          "velocity": 0.3937007874015748,
          "duration": 0.09999999999999432
        },
        {
          "name": "D5",
          "midi": 74,
          "time": 147.99999999999721,
          "velocity": 0.3937007874015748,
          "duration": 0.09999999999999432
        },
        {
          "name": "D6",
          "midi": 86,
          "time": 148.7999999999972,
          "velocity": 0.3937007874015748,
          "duration": 0.09999999999999432
        },
        {
          "name": "F5",
          "midi": 77,
          "time": 148.7999999999972,
          "velocity": 0.3937007874015748,
          "duration": 0.09999999999999432
        },
        {
          "name": "G5",
          "midi": 79,
          "time": 149.3999999999972,
          "velocity": 0.3937007874015748,
          "duration": 0.09999999999999432
        },
        {
          "name": "A5",
          "midi": 81,
          "time": 149.4999999999972,
          "velocity": 0.3937007874015748,
          "duration": 0.09999999999999432
        },
        {
          "name": "C6",
          "midi": 84,
          "time": 149.59999999999718,
          "velocity": 0.3937007874015748,
          "duration": 0.09999999999999432
        },
        {
          "name": "E5",
          "midi": 76,
          "time": 149.59999999999718,
          "velocity": 0.3937007874015748,
          "duration": 0.09999999999999432
        },
        {
          "name": "G5",
          "midi": 79,
          "time": 149.79999999999717,
          "velocity": 0.3937007874015748,
          "duration": 0.09999999999999432
        },
        {
          "name": "E5",
          "midi": 76,
          "time": 149.79999999999717,
          "velocity": 0.3937007874015748,
          "duration": 0.09999999999999432
        },
        {
          "name": "E5",
          "midi": 76,
          "time": 149.99999999999716,
          "velocity": 0.3937007874015748,
          "duration": 0.09999999999999432
        },
        {
          "name": "C5",
          "midi": 72,
          "time": 149.99999999999716,
          "velocity": 0.3937007874015748,
          "duration": 0.09999999999999432
        },
        {
          "name": "G5",
          "midi": 79,
          "time": 150.19999999999715,
          "velocity": 0.3937007874015748,
          "duration": 0.09999999999999432
        },
        {
          "name": "E5",
          "midi": 76,
          "time": 150.19999999999715,
          "velocity": 0.3937007874015748,
          "duration": 0.09999999999999432
        },
        {
          "name": "F5",
          "midi": 77,
          "time": 150.39999999999714,
          "velocity": 0.3937007874015748,
          "duration": 0.09999999999999432
        },
        {
          "name": "F4",
          "midi": 65,
          "time": 150.39999999999714,
          "velocity": 0.3937007874015748,
          "duration": 0.09999999999999432
        },
        {
          "name": "D5",
          "midi": 74,
          "time": 150.39999999999714,
          "velocity": 0.3937007874015748,
          "duration": 0.09999999999999432
        },
        {
          "name": "A5",
          "midi": 81,
          "time": 150.99999999999713,
          "velocity": 0.3937007874015748,
          "duration": 0.09999999999999432
        },
        {
          "name": "A4",
          "midi": 69,
          "time": 150.99999999999713,
          "velocity": 0.3937007874015748,
          "duration": 0.09999999999999432
        },
        {
          "name": "F5",
          "midi": 77,
          "time": 150.99999999999713,
          "velocity": 0.3937007874015748,
          "duration": 0.09999999999999432
        },
        {
          "name": "F5",
          "midi": 77,
          "time": 151.19999999999712,
          "velocity": 0.3937007874015748,
          "duration": 0.09999999999999432
        },
        {
          "name": "F4",
          "midi": 65,
          "time": 151.19999999999712,
          "velocity": 0.3937007874015748,
          "duration": 0.09999999999999432
        },
        {
          "name": "D5",
          "midi": 74,
          "time": 151.19999999999712,
          "velocity": 0.3937007874015748,
          "duration": 0.09999999999999432
        },
        {
          "name": "D6",
          "midi": 86,
          "time": 151.9999999999971,
          "velocity": 0.3937007874015748,
          "duration": 0.09999999999999432
        },
        {
          "name": "F5",
          "midi": 77,
          "time": 151.9999999999971,
          "velocity": 0.3937007874015748,
          "duration": 0.09999999999999432
        },
        {
          "name": "G5",
          "midi": 79,
          "time": 152.8999999999971,
          "velocity": 0.3937007874015748,
          "duration": 0.09999999999999432
        },
        {
          "name": "F5",
          "midi": 77,
          "time": 152.9999999999971,
          "velocity": 0.3937007874015748,
          "duration": 0.09999999999999432
        },
        {
          "name": "C5",
          "midi": 72,
          "time": 153.0999999999971,
          "velocity": 0.3937007874015748,
          "duration": 0.09999999999999432
        },
        {
          "name": "A#4",
          "midi": 70,
          "time": 153.1999999999971,
          "velocity": 0.3937007874015748,
          "duration": 0.09999999999999432
        },
        {
          "name": "F5",
          "midi": 77,
          "time": 153.29999999999708,
          "velocity": 0.3937007874015748,
          "duration": 0.09999999999999432
        },
        {
          "name": "A4",
          "midi": 69,
          "time": 153.39999999999708,
          "velocity": 0.3937007874015748,
          "duration": 0.09999999999999432
        },
        {
          "name": "C5",
          "midi": 72,
          "time": 153.49999999999707,
          "velocity": 0.3937007874015748,
          "duration": 0.09999999999999432
        },
        {
          "name": "F5",
          "midi": 77,
          "time": 153.59999999999707,
          "velocity": 0.3937007874015748,
          "duration": 0.09999999999999432
        },
        {
          "name": "F4",
          "midi": 65,
          "time": 153.59999999999707,
          "velocity": 0.3937007874015748,
          "duration": 0.09999999999999432
        },
        {
          "name": "D5",
          "midi": 74,
          "time": 153.59999999999707,
          "velocity": 0.3937007874015748,
          "duration": 0.09999999999999432
        },
        {
          "name": "A5",
          "midi": 81,
          "time": 154.19999999999706,
          "velocity": 0.3937007874015748,
          "duration": 0.09999999999999432
        },
        {
          "name": "A4",
          "midi": 69,
          "time": 154.19999999999706,
          "velocity": 0.3937007874015748,
          "duration": 0.09999999999999432
        },
        {
          "name": "F5",
          "midi": 77,
          "time": 154.19999999999706,
          "velocity": 0.3937007874015748,
          "duration": 0.09999999999999432
        },
        {
          "name": "F5",
          "midi": 77,
          "time": 154.39999999999705,
          "velocity": 0.3937007874015748,
          "duration": 0.09999999999999432
        },
        {
          "name": "F4",
          "midi": 65,
          "time": 154.39999999999705,
          "velocity": 0.3937007874015748,
          "duration": 0.09999999999999432
        },
        {
          "name": "D5",
          "midi": 74,
          "time": 154.39999999999705,
          "velocity": 0.3937007874015748,
          "duration": 0.09999999999999432
        },
        {
          "name": "D6",
          "midi": 86,
          "time": 155.19999999999703,
          "velocity": 0.3937007874015748,
          "duration": 0.09999999999999432
        },
        {
          "name": "F5",
          "midi": 77,
          "time": 155.19999999999703,
          "velocity": 0.3937007874015748,
          "duration": 0.09999999999999432
        },
        {
          "name": "C6",
          "midi": 84,
          "time": 155.79999999999703,
          "velocity": 0.3937007874015748,
          "duration": 0.09999999999999432
        },
        {
          "name": "D6",
          "midi": 86,
          "time": 155.89999999999702,
          "velocity": 0.3937007874015748,
          "duration": 0.09999999999999432
        },
        {
          "name": "E6",
          "midi": 88,
          "time": 155.99999999999702,
          "velocity": 0.3937007874015748,
          "duration": 0.09999999999999432
        },
        {
          "name": "G5",
          "midi": 79,
          "time": 155.99999999999702,
          "velocity": 0.3937007874015748,
          "duration": 0.09999999999999432
        },
        {
          "name": "F6",
          "midi": 89,
          "time": 156.199999999997,
          "velocity": 0.3937007874015748,
          "duration": 0.09999999999999432
        },
        {
          "name": "G5",
          "midi": 79,
          "time": 156.199999999997,
          "velocity": 0.3937007874015748,
          "duration": 0.09999999999999432
        },
        {
          "name": "A6",
          "midi": 93,
          "time": 156.399999999997,
          "velocity": 0.3937007874015748,
          "duration": 0.09999999999999432
        },
        {
          "name": "E6",
          "midi": 88,
          "time": 156.399999999997,
          "velocity": 0.3937007874015748,
          "duration": 0.09999999999999432
        },
        {
          "name": "C6",
          "midi": 84,
          "time": 156.59999999999698,
          "velocity": 0.3937007874015748,
          "duration": 0.09999999999999432
        },
        {
          "name": "G5",
          "midi": 79,
          "time": 156.59999999999698,
          "velocity": 0.3937007874015748,
          "duration": 0.09999999999999432
        },
        {
          "name": "D6",
          "midi": 86,
          "time": 156.79999999999697,
          "velocity": 0.3937007874015748,
          "duration": 0.09999999999999432
        },
        {
          "name": "A#5",
          "midi": 82,
          "time": 156.79999999999697,
          "velocity": 0.3937007874015748,
          "duration": 0.09999999999999432
        },
        {
          "name": "A6",
          "midi": 93,
          "time": 157.39999999999696,
          "velocity": 0.3937007874015748,
          "duration": 0.09999999999999432
        },
        {
          "name": "A5",
          "midi": 81,
          "time": 157.39999999999696,
          "velocity": 0.3937007874015748,
          "duration": 0.09999999999999432
        },
        {
          "name": "D6",
          "midi": 86,
          "time": 157.59999999999695,
          "velocity": 0.3937007874015748,
          "duration": 0.09999999999999432
        },
        {
          "name": "A#5",
          "midi": 82,
          "time": 157.59999999999695,
          "velocity": 0.3937007874015748,
          "duration": 0.09999999999999432
        },
        {
          "name": "D#4",
          "midi": 63,
          "time": 159.79999999999694,
          "velocity": 0.3937007874015748,
          "duration": 0.03333333333333144
        },
        {
          "name": "F#4",
          "midi": 66,
          "time": 159.83333333333027,
          "velocity": 0.3937007874015748,
          "duration": 0.03333333333333144
        },
        {
          "name": "G#4",
          "midi": 68,
          "time": 159.8666666666636,
          "velocity": 0.3937007874015748,
          "duration": 0.03333333333333144
        },
        {
          "name": "A#4",
          "midi": 70,
          "time": 159.89999999999694,
          "velocity": 0.3937007874015748,
          "duration": 0.03333333333333144
        },
        {
          "name": "B4",
          "midi": 71,
          "time": 159.93333333333027,
          "velocity": 0.3937007874015748,
          "duration": 0.03333333333333144
        },
        {
          "name": "C#5",
          "midi": 73,
          "time": 159.9666666666636,
          "velocity": 0.3937007874015748,
          "duration": 0.03333333333333144
        },
        {
          "name": "D#5",
          "midi": 75,
          "time": 159.99999999999693,
          "velocity": 0.3937007874015748,
          "duration": 0.09999999999999432
        },
        {
          "name": "F#4",
          "midi": 66,
          "time": 159.99999999999693,
          "velocity": 0.3937007874015748,
          "duration": 0.09999999999999432
        },
        {
          "name": "D#5",
          "midi": 75,
          "time": 160.39999999999694,
          "velocity": 0.3937007874015748,
          "duration": 0.09999999999999432
        },
        {
          "name": "F#4",
          "midi": 66,
          "time": 160.39999999999694,
          "velocity": 0.3937007874015748,
          "duration": 0.09999999999999432
        },
        {
          "name": "D#5",
          "midi": 75,
          "time": 160.79999999999694,
          "velocity": 0.3937007874015748,
          "duration": 0.09999999999999432
        },
        {
          "name": "F#4",
          "midi": 66,
          "time": 160.79999999999694,
          "velocity": 0.3937007874015748,
          "duration": 0.09999999999999432
        },
        {
          "name": "D#5",
          "midi": 75,
          "time": 161.09999999999692,
          "velocity": 0.3937007874015748,
          "duration": 0.09999999999999432
        },
        {
          "name": "F#4",
          "midi": 66,
          "time": 161.09999999999692,
          "velocity": 0.3937007874015748,
          "duration": 0.09999999999999432
        },
        {
          "name": "D#5",
          "midi": 75,
          "time": 161.3999999999969,
          "velocity": 0.3937007874015748,
          "duration": 0.09999999999999432
        },
        {
          "name": "F#4",
          "midi": 66,
          "time": 161.3999999999969,
          "velocity": 0.3937007874015748,
          "duration": 0.09999999999999432
        },
        {
          "name": "C#5",
          "midi": 73,
          "time": 161.7999999999969,
          "velocity": 0.3937007874015748,
          "duration": 0.09999999999999432
        },
        {
          "name": "F4",
          "midi": 65,
          "time": 161.7999999999969,
          "velocity": 0.3937007874015748,
          "duration": 0.09999999999999432
        },
        {
          "name": "C#5",
          "midi": 73,
          "time": 161.9999999999969,
          "velocity": 0.3937007874015748,
          "duration": 0.09999999999999432
        },
        {
          "name": "F4",
          "midi": 65,
          "time": 161.9999999999969,
          "velocity": 0.3937007874015748,
          "duration": 0.09999999999999432
        },
        {
          "name": "C#5",
          "midi": 73,
          "time": 162.3999999999969,
          "velocity": 0.3937007874015748,
          "duration": 0.09999999999999432
        },
        {
          "name": "F4",
          "midi": 65,
          "time": 162.3999999999969,
          "velocity": 0.3937007874015748,
          "duration": 0.09999999999999432
        },
        {
          "name": "C#5",
          "midi": 73,
          "time": 162.6999999999969,
          "velocity": 0.3937007874015748,
          "duration": 0.09999999999999432
        },
        {
          "name": "F4",
          "midi": 65,
          "time": 162.6999999999969,
          "velocity": 0.3937007874015748,
          "duration": 0.09999999999999432
        },
        {
          "name": "A#4",
          "midi": 70,
          "time": 162.99999999999687,
          "velocity": 0.3937007874015748,
          "duration": 0.09999999999999432
        },
        {
          "name": "F#4",
          "midi": 66,
          "time": 162.99999999999687,
          "velocity": 0.3937007874015748,
          "duration": 0.09999999999999432
        },
        {
          "name": "A#4",
          "midi": 70,
          "time": 163.59999999999687,
          "velocity": 0.3937007874015748,
          "duration": 0.09999999999999432
        },
        {
          "name": "F#4",
          "midi": 66,
          "time": 163.59999999999687,
          "velocity": 0.3937007874015748,
          "duration": 0.09999999999999432
        },
        {
          "name": "A#4",
          "midi": 70,
          "time": 163.99999999999687,
          "velocity": 0.3937007874015748,
          "duration": 0.09999999999999432
        },
        {
          "name": "F#4",
          "midi": 66,
          "time": 163.99999999999687,
          "velocity": 0.3937007874015748,
          "duration": 0.09999999999999432
        },
        {
          "name": "A#4",
          "midi": 70,
          "time": 164.29999999999686,
          "velocity": 0.3937007874015748,
          "duration": 0.09999999999999432
        },
        {
          "name": "F#4",
          "midi": 66,
          "time": 164.29999999999686,
          "velocity": 0.3937007874015748,
          "duration": 0.09999999999999432
        },
        {
          "name": "A#4",
          "midi": 70,
          "time": 164.59999999999684,
          "velocity": 0.3937007874015748,
          "duration": 0.09999999999999432
        },
        {
          "name": "F#4",
          "midi": 66,
          "time": 164.59999999999684,
          "velocity": 0.3937007874015748,
          "duration": 0.09999999999999432
        },
        {
          "name": "A#4",
          "midi": 70,
          "time": 165.19999999999683,
          "velocity": 0.3937007874015748,
          "duration": 0.09999999999999432
        },
        {
          "name": "F#4",
          "midi": 66,
          "time": 165.19999999999683,
          "velocity": 0.3937007874015748,
          "duration": 0.09999999999999432
        },
        {
          "name": "A#4",
          "midi": 70,
          "time": 165.59999999999684,
          "velocity": 0.3937007874015748,
          "duration": 0.09999999999999432
        },
        {
          "name": "F#4",
          "midi": 66,
          "time": 165.59999999999684,
          "velocity": 0.3937007874015748,
          "duration": 0.09999999999999432
        },
        {
          "name": "A#4",
          "midi": 70,
          "time": 165.89999999999682,
          "velocity": 0.3937007874015748,
          "duration": 0.09999999999999432
        },
        {
          "name": "F#4",
          "midi": 66,
          "time": 165.89999999999682,
          "velocity": 0.3937007874015748,
          "duration": 0.09999999999999432
        },
        {
          "name": "C#5",
          "midi": 73,
          "time": 166.1999999999968,
          "velocity": 0.3937007874015748,
          "duration": 0.09999999999999432
        },
        {
          "name": "F#4",
          "midi": 66,
          "time": 166.1999999999968,
          "velocity": 0.3937007874015748,
          "duration": 0.09999999999999432
        },
        {
          "name": "D#5",
          "midi": 75,
          "time": 166.3999999999968,
          "velocity": 0.3937007874015748,
          "duration": 0.09999999999999432
        },
        {
          "name": "F#4",
          "midi": 66,
          "time": 166.3999999999968,
          "velocity": 0.3937007874015748,
          "duration": 0.09999999999999432
        },
        {
          "name": "D#5",
          "midi": 75,
          "time": 166.7999999999968,
          "velocity": 0.3937007874015748,
          "duration": 0.09999999999999432
        },
        {
          "name": "F#4",
          "midi": 66,
          "time": 166.7999999999968,
          "velocity": 0.3937007874015748,
          "duration": 0.09999999999999432
        },
        {
          "name": "D#5",
          "midi": 75,
          "time": 167.1999999999968,
          "velocity": 0.3937007874015748,
          "duration": 0.09999999999999432
        },
        {
          "name": "F#4",
          "midi": 66,
          "time": 167.1999999999968,
          "velocity": 0.3937007874015748,
          "duration": 0.09999999999999432
        },
        {
          "name": "D#5",
          "midi": 75,
          "time": 167.4999999999968,
          "velocity": 0.3937007874015748,
          "duration": 0.09999999999999432
        },
        {
          "name": "F#4",
          "midi": 66,
          "time": 167.4999999999968,
          "velocity": 0.3937007874015748,
          "duration": 0.09999999999999432
        },
        {
          "name": "D#5",
          "midi": 75,
          "time": 167.79999999999677,
          "velocity": 0.3937007874015748,
          "duration": 0.09999999999999432
        },
        {
          "name": "F#4",
          "midi": 66,
          "time": 167.79999999999677,
          "velocity": 0.3937007874015748,
          "duration": 0.09999999999999432
        },
        {
          "name": "F5",
          "midi": 77,
          "time": 168.19999999999678,
          "velocity": 0.3937007874015748,
          "duration": 0.09999999999999432
        },
        {
          "name": "G#4",
          "midi": 68,
          "time": 168.19999999999678,
          "velocity": 0.3937007874015748,
          "duration": 0.09999999999999432
        },
        {
          "name": "F5",
          "midi": 77,
          "time": 168.39999999999677,
          "velocity": 0.3937007874015748,
          "duration": 0.09999999999999432
        },
        {
          "name": "G#4",
          "midi": 68,
          "time": 168.39999999999677,
          "velocity": 0.3937007874015748,
          "duration": 0.09999999999999432
        },
        {
          "name": "F5",
          "midi": 77,
          "time": 168.79999999999677,
          "velocity": 0.3937007874015748,
          "duration": 0.09999999999999432
        },
        {
          "name": "G#4",
          "midi": 68,
          "time": 168.79999999999677,
          "velocity": 0.3937007874015748,
          "duration": 0.09999999999999432
        },
        {
          "name": "F5",
          "midi": 77,
          "time": 169.09999999999675,
          "velocity": 0.3937007874015748,
          "duration": 0.09999999999999432
        },
        {
          "name": "G#4",
          "midi": 68,
          "time": 169.09999999999675,
          "velocity": 0.3937007874015748,
          "duration": 0.09999999999999432
        },
        {
          "name": "D#5",
          "midi": 75,
          "time": 169.39999999999674,
          "velocity": 0.3937007874015748,
          "duration": 0.09999999999999432
        },
        {
          "name": "F#4",
          "midi": 66,
          "time": 169.39999999999674,
          "velocity": 0.3937007874015748,
          "duration": 0.09999999999999432
        },
        {
          "name": "D#5",
          "midi": 75,
          "time": 169.99999999999673,
          "velocity": 0.3937007874015748,
          "duration": 0.09999999999999432
        },
        {
          "name": "F#4",
          "midi": 66,
          "time": 169.99999999999673,
          "velocity": 0.3937007874015748,
          "duration": 0.09999999999999432
        },
        {
          "name": "D#5",
          "midi": 75,
          "time": 170.39999999999674,
          "velocity": 0.3937007874015748,
          "duration": 0.09999999999999432
        },
        {
          "name": "F#4",
          "midi": 66,
          "time": 170.39999999999674,
          "velocity": 0.3937007874015748,
          "duration": 0.09999999999999432
        },
        {
          "name": "D#5",
          "midi": 75,
          "time": 170.69999999999672,
          "velocity": 0.3937007874015748,
          "duration": 0.09999999999999432
        },
        {
          "name": "F#4",
          "midi": 66,
          "time": 170.69999999999672,
          "velocity": 0.3937007874015748,
          "duration": 0.09999999999999432
        },
        {
          "name": "D#5",
          "midi": 75,
          "time": 170.9999999999967,
          "velocity": 0.3937007874015748,
          "duration": 0.09999999999999432
        },
        {
          "name": "F#4",
          "midi": 66,
          "time": 170.9999999999967,
          "velocity": 0.3937007874015748,
          "duration": 0.09999999999999432
        },
        {
          "name": "D#5",
          "midi": 75,
          "time": 171.3999999999967,
          "velocity": 0.3937007874015748,
          "duration": 0.09999999999999432
        },
        {
          "name": "F#4",
          "midi": 66,
          "time": 171.3999999999967,
          "velocity": 0.3937007874015748,
          "duration": 0.09999999999999432
        },
        {
          "name": "D#5",
          "midi": 75,
          "time": 171.5999999999967,
          "velocity": 0.3937007874015748,
          "duration": 0.09999999999999432
        },
        {
          "name": "F#4",
          "midi": 66,
          "time": 171.5999999999967,
          "velocity": 0.3937007874015748,
          "duration": 0.09999999999999432
        },
        {
          "name": "D#5",
          "midi": 75,
          "time": 171.9999999999967,
          "velocity": 0.3937007874015748,
          "duration": 0.09999999999999432
        },
        {
          "name": "F#4",
          "midi": 66,
          "time": 171.9999999999967,
          "velocity": 0.3937007874015748,
          "duration": 0.09999999999999432
        },
        {
          "name": "G4",
          "midi": 67,
          "time": 172.8999999999967,
          "velocity": 0.3937007874015748,
          "duration": 0.09999999999999432
        },
        {
          "name": "D5",
          "midi": 74,
          "time": 172.9999999999967,
          "velocity": 0.3937007874015748,
          "duration": 0.09999999999999432
        },
        {
          "name": "E5",
          "midi": 76,
          "time": 173.2999999999967,
          "velocity": 0.3937007874015748,
          "duration": 0.09999999999999432
        },
        {
          "name": "G4",
          "midi": 67,
          "time": 173.39999999999668,
          "velocity": 0.3937007874015748,
          "duration": 0.09999999999999432
        },
        {
          "name": "G4",
          "midi": 67,
          "time": 173.69999999999666,
          "velocity": 0.3937007874015748,
          "duration": 0.09999999999999432
        },
        {
          "name": "D5",
          "midi": 74,
          "time": 173.79999999999666,
          "velocity": 0.3937007874015748,
          "duration": 0.09999999999999432
        },
        {
          "name": "E5",
          "midi": 76,
          "time": 174.09999999999664,
          "velocity": 0.3937007874015748,
          "duration": 0.09999999999999432
        },
        {
          "name": "G4",
          "midi": 67,
          "time": 174.19999999999663,
          "velocity": 0.3937007874015748,
          "duration": 0.09999999999999432
        },
        {
          "name": "G4",
          "midi": 67,
          "time": 174.49999999999662,
          "velocity": 0.3937007874015748,
          "duration": 0.09999999999999432
        },
        {
          "name": "E5",
          "midi": 76,
          "time": 174.5999999999966,
          "velocity": 0.3937007874015748,
          "duration": 0.09999999999999432
        },
        {
          "name": "F5",
          "midi": 77,
          "time": 174.8999999999966,
          "velocity": 0.3937007874015748,
          "duration": 0.09999999999999432
        },
        {
          "name": "G4",
          "midi": 67,
          "time": 174.9999999999966,
          "velocity": 0.3937007874015748,
          "duration": 0.09999999999999432
        },
        {
          "name": "G4",
          "midi": 67,
          "time": 175.29999999999657,
          "velocity": 0.3937007874015748,
          "duration": 0.09999999999999432
        },
        {
          "name": "E5",
          "midi": 76,
          "time": 175.39999999999657,
          "velocity": 0.3937007874015748,
          "duration": 0.09999999999999432
        },
        {
          "name": "F5",
          "midi": 77,
          "time": 175.69999999999655,
          "velocity": 0.3937007874015748,
          "duration": 0.09999999999999432
        },
        {
          "name": "G4",
          "midi": 67,
          "time": 175.79999999999654,
          "velocity": 0.3937007874015748,
          "duration": 0.09999999999999432
        },
        {
          "name": "A4",
          "midi": 69,
          "time": 176.09999999999653,
          "velocity": 0.3937007874015748,
          "duration": 0.09999999999999432
        },
        {
          "name": "F5",
          "midi": 77,
          "time": 176.19999999999652,
          "velocity": 0.3937007874015748,
          "duration": 0.09999999999999432
        },
        {
          "name": "G5",
          "midi": 79,
          "time": 176.4999999999965,
          "velocity": 0.3937007874015748,
          "duration": 0.09999999999999432
        },
        {
          "name": "A4",
          "midi": 69,
          "time": 176.5999999999965,
          "velocity": 0.3937007874015748,
          "duration": 0.09999999999999432
        },
        {
          "name": "A4",
          "midi": 69,
          "time": 176.89999999999648,
          "velocity": 0.3937007874015748,
          "duration": 0.09999999999999432
        },
        {
          "name": "F5",
          "midi": 77,
          "time": 176.99999999999648,
          "velocity": 0.3937007874015748,
          "duration": 0.09999999999999432
        },
        {
          "name": "G5",
          "midi": 79,
          "time": 177.29999999999646,
          "velocity": 0.3937007874015748,
          "duration": 0.09999999999999432
        },
        {
          "name": "G4",
          "midi": 67,
          "time": 177.39999999999645,
          "velocity": 0.3937007874015748,
          "duration": 0.09999999999999432
        },
        {
          "name": "F4",
          "midi": 65,
          "time": 177.69999999999644,
          "velocity": 0.3937007874015748,
          "duration": 0.09999999999999432
        },
        {
          "name": "D5",
          "midi": 74,
          "time": 177.79999999999643,
          "velocity": 0.3937007874015748,
          "duration": 0.09999999999999432
        },
        {
          "name": "C5",
          "midi": 72,
          "time": 178.0999999999964,
          "velocity": 0.3937007874015748,
          "duration": 0.09999999999999432
        },
        {
          "name": "E4",
          "midi": 64,
          "time": 178.1999999999964,
          "velocity": 0.3937007874015748,
          "duration": 0.09999999999999432
        },
        {
          "name": "D4",
          "midi": 62,
          "time": 178.4999999999964,
          "velocity": 0.3937007874015748,
          "duration": 0.09999999999999432
        },
        {
          "name": "A4",
          "midi": 69,
          "time": 178.59999999999638,
          "velocity": 0.3937007874015748,
          "duration": 0.09999999999999432
        },
        {
          "name": "G4",
          "midi": 67,
          "time": 178.89999999999637,
          "velocity": 0.3937007874015748,
          "duration": 0.09999999999999432
        },
        {
          "name": "C4",
          "midi": 60,
          "time": 178.99999999999636,
          "velocity": 0.3937007874015748,
          "duration": 0.09999999999999432
        },
        {
          "name": "G4",
          "midi": 67,
          "time": 179.29999999999634,
          "velocity": 0.3937007874015748,
          "duration": 0.09999999999999432
        },
        {
          "name": "A4",
          "midi": 69,
          "time": 179.39999999999634,
          "velocity": 0.3937007874015748,
          "duration": 0.09999999999999432
        },
        {
          "name": "D5",
          "midi": 74,
          "time": 179.49999999999633,
          "velocity": 0.3937007874015748,
          "duration": 0.09999999999999432
        },
        {
          "name": "E5",
          "midi": 76,
          "time": 179.69999999999632,
          "velocity": 0.3937007874015748,
          "duration": 0.09999999999999432
        },
        {
          "name": "G4",
          "midi": 67,
          "time": 179.79999999999632,
          "velocity": 0.3937007874015748,
          "duration": 0.09999999999999432
        },
        {
          "name": "D5",
          "midi": 74,
          "time": 179.8999999999963,
          "velocity": 0.3937007874015748,
          "duration": 0.09999999999999432
        },
        {
          "name": "G4",
          "midi": 67,
          "time": 180.0999999999963,
          "velocity": 0.3937007874015748,
          "duration": 0.09999999999999432
        },
        {
          "name": "A4",
          "midi": 69,
          "time": 180.1999999999963,
          "velocity": 0.3937007874015748,
          "duration": 0.09999999999999432
        },
        {
          "name": "D5",
          "midi": 74,
          "time": 180.2999999999963,
          "velocity": 0.3937007874015748,
          "duration": 0.09999999999999432
        },
        {
          "name": "E5",
          "midi": 76,
          "time": 180.49999999999628,
          "velocity": 0.3937007874015748,
          "duration": 0.09999999999999432
        },
        {
          "name": "G4",
          "midi": 67,
          "time": 180.59999999999627,
          "velocity": 0.3937007874015748,
          "duration": 0.09999999999999432
        },
        {
          "name": "D5",
          "midi": 74,
          "time": 180.69999999999627,
          "velocity": 0.3937007874015748,
          "duration": 0.09999999999999432
        },
        {
          "name": "G4",
          "midi": 67,
          "time": 180.89999999999625,
          "velocity": 0.3937007874015748,
          "duration": 0.09999999999999432
        },
        {
          "name": "A4",
          "midi": 69,
          "time": 180.99999999999625,
          "velocity": 0.3937007874015748,
          "duration": 0.09999999999999432
        },
        {
          "name": "D5",
          "midi": 74,
          "time": 181.09999999999624,
          "velocity": 0.3937007874015748,
          "duration": 0.09999999999999432
        },
        {
          "name": "E5",
          "midi": 76,
          "time": 181.29999999999623,
          "velocity": 0.3937007874015748,
          "duration": 0.09999999999999432
        },
        {
          "name": "A4",
          "midi": 69,
          "time": 181.39999999999623,
          "velocity": 0.3937007874015748,
          "duration": 0.09999999999999432
        },
        {
          "name": "C5",
          "midi": 72,
          "time": 181.49999999999622,
          "velocity": 0.3937007874015748,
          "duration": 0.09999999999999432
        },
        {
          "name": "G4",
          "midi": 67,
          "time": 181.6999999999962,
          "velocity": 0.3937007874015748,
          "duration": 0.09999999999999432
        },
        {
          "name": "A4",
          "midi": 69,
          "time": 181.7999999999962,
          "velocity": 0.3937007874015748,
          "duration": 0.09999999999999432
        },
        {
          "name": "D5",
          "midi": 74,
          "time": 181.8999999999962,
          "velocity": 0.3937007874015748,
          "duration": 0.09999999999999432
        },
        {
          "name": "E5",
          "midi": 76,
          "time": 182.0999999999962,
          "velocity": 0.3937007874015748,
          "duration": 0.09999999999999432
        },
        {
          "name": "A4",
          "midi": 69,
          "time": 182.19999999999618,
          "velocity": 0.3937007874015748,
          "duration": 0.09999999999999432
        },
        {
          "name": "C5",
          "midi": 72,
          "time": 182.29999999999617,
          "velocity": 0.3937007874015748,
          "duration": 0.09999999999999432
        },
        {
          "name": "G4",
          "midi": 67,
          "time": 182.49999999999616,
          "velocity": 0.3937007874015748,
          "duration": 0.09999999999999432
        },
        {
          "name": "A4",
          "midi": 69,
          "time": 182.59999999999616,
          "velocity": 0.3937007874015748,
          "duration": 0.09999999999999432
        },
        {
          "name": "E5",
          "midi": 76,
          "time": 182.69999999999615,
          "velocity": 0.3937007874015748,
          "duration": 0.09999999999999432
        },
        {
          "name": "F5",
          "midi": 77,
          "time": 182.89999999999614,
          "velocity": 0.3937007874015748,
          "duration": 0.09999999999999432
        },
        {
          "name": "A4",
          "midi": 69,
          "time": 182.99999999999613,
          "velocity": 0.3937007874015748,
          "duration": 0.09999999999999432
        },
        {
          "name": "C5",
          "midi": 72,
          "time": 183.09999999999613,
          "velocity": 0.3937007874015748,
          "duration": 0.09999999999999432
        },
        {
          "name": "G4",
          "midi": 67,
          "time": 183.29999999999612,
          "velocity": 0.3937007874015748,
          "duration": 0.09999999999999432
        },
        {
          "name": "A4",
          "midi": 69,
          "time": 183.3999999999961,
          "velocity": 0.3937007874015748,
          "duration": 0.09999999999999432
        },
        {
          "name": "E5",
          "midi": 76,
          "time": 183.4999999999961,
          "velocity": 0.3937007874015748,
          "duration": 0.09999999999999432
        },
        {
          "name": "F5",
          "midi": 77,
          "time": 183.6999999999961,
          "velocity": 0.3937007874015748,
          "duration": 0.09999999999999432
        },
        {
          "name": "A4",
          "midi": 69,
          "time": 183.7999999999961,
          "velocity": 0.3937007874015748,
          "duration": 0.09999999999999432
        },
        {
          "name": "C5",
          "midi": 72,
          "time": 183.89999999999608,
          "velocity": 0.3937007874015748,
          "duration": 0.09999999999999432
        },
        {
          "name": "G4",
          "midi": 67,
          "time": 184.09999999999607,
          "velocity": 0.3937007874015748,
          "duration": 0.09999999999999432
        },
        {
          "name": "A4",
          "midi": 69,
          "time": 184.19999999999607,
          "velocity": 0.3937007874015748,
          "duration": 0.09999999999999432
        },
        {
          "name": "E5",
          "midi": 76,
          "time": 184.29999999999606,
          "velocity": 0.3937007874015748,
          "duration": 0.09999999999999432
        },
        {
          "name": "F5",
          "midi": 77,
          "time": 184.49999999999605,
          "velocity": 0.3937007874015748,
          "duration": 0.09999999999999432
        },
        {
          "name": "A4",
          "midi": 69,
          "time": 184.59999999999604,
          "velocity": 0.3937007874015748,
          "duration": 0.09999999999999432
        },
        {
          "name": "C5",
          "midi": 72,
          "time": 184.69999999999604,
          "velocity": 0.3937007874015748,
          "duration": 0.09999999999999432
        },
        {
          "name": "C5",
          "midi": 72,
          "time": 184.89999999999603,
          "velocity": 0.3937007874015748,
          "duration": 0.09999999999999432
        },
        {
          "name": "D5",
          "midi": 74,
          "time": 184.99999999999602,
          "velocity": 0.3937007874015748,
          "duration": 0.09999999999999432
        },
        {
          "name": "G5",
          "midi": 79,
          "time": 185.09999999999602,
          "velocity": 0.3937007874015748,
          "duration": 0.09999999999999432
        },
        {
          "name": "F5",
          "midi": 77,
          "time": 185.299999999996,
          "velocity": 0.3937007874015748,
          "duration": 0.09999999999999432
        },
        {
          "name": "G4",
          "midi": 67,
          "time": 185.399999999996,
          "velocity": 0.3937007874015748,
          "duration": 0.09999999999999432
        },
        {
          "name": "G#4",
          "midi": 68,
          "time": 185.499999999996,
          "velocity": 0.3937007874015748,
          "duration": 0.09999999999999432
        },
        {
          "name": "D#5",
          "midi": 75,
          "time": 185.599999999996,
          "velocity": 0.3937007874015748,
          "duration": 0.09999999999999432
        },
        {
          "name": "F#4",
          "midi": 66,
          "time": 185.599999999996,
          "velocity": 0.3937007874015748,
          "duration": 0.09999999999999432
        },
        {
          "name": "D#5",
          "midi": 75,
          "time": 185.999999999996,
          "velocity": 0.3937007874015748,
          "duration": 0.09999999999999432
        },
        {
          "name": "F#4",
          "midi": 66,
          "time": 185.999999999996,
          "velocity": 0.3937007874015748,
          "duration": 0.09999999999999432
        },
        {
          "name": "D#5",
          "midi": 75,
          "time": 186.399999999996,
          "velocity": 0.3937007874015748,
          "duration": 0.09999999999999432
        },
        {
          "name": "F#4",
          "midi": 66,
          "time": 186.399999999996,
          "velocity": 0.3937007874015748,
          "duration": 0.09999999999999432
        },
        {
          "name": "D#5",
          "midi": 75,
          "time": 186.69999999999598,
          "velocity": 0.3937007874015748,
          "duration": 0.09999999999999432
        },
        {
          "name": "F#4",
          "midi": 66,
          "time": 186.69999999999598,
          "velocity": 0.3937007874015748,
          "duration": 0.09999999999999432
        },
        {
          "name": "D#5",
          "midi": 75,
          "time": 186.99999999999596,
          "velocity": 0.3937007874015748,
          "duration": 0.09999999999999432
        },
        {
          "name": "F#4",
          "midi": 66,
          "time": 186.99999999999596,
          "velocity": 0.3937007874015748,
          "duration": 0.09999999999999432
        },
        {
          "name": "C#5",
          "midi": 73,
          "time": 187.39999999999597,
          "velocity": 0.3937007874015748,
          "duration": 0.09999999999999432
        },
        {
          "name": "F4",
          "midi": 65,
          "time": 187.39999999999597,
          "velocity": 0.3937007874015748,
          "duration": 0.09999999999999432
        },
        {
          "name": "C#5",
          "midi": 73,
          "time": 187.59999999999596,
          "velocity": 0.3937007874015748,
          "duration": 0.09999999999999432
        },
        {
          "name": "F4",
          "midi": 65,
          "time": 187.59999999999596,
          "velocity": 0.3937007874015748,
          "duration": 0.09999999999999432
        },
        {
          "name": "C#5",
          "midi": 73,
          "time": 187.99999999999596,
          "velocity": 0.3937007874015748,
          "duration": 0.09999999999999432
        },
        {
          "name": "F4",
          "midi": 65,
          "time": 187.99999999999596,
          "velocity": 0.3937007874015748,
          "duration": 0.09999999999999432
        },
        {
          "name": "C#5",
          "midi": 73,
          "time": 188.29999999999595,
          "velocity": 0.3937007874015748,
          "duration": 0.09999999999999432
        },
        {
          "name": "F4",
          "midi": 65,
          "time": 188.29999999999595,
          "velocity": 0.3937007874015748,
          "duration": 0.09999999999999432
        },
        {
          "name": "A#4",
          "midi": 70,
          "time": 188.59999999999593,
          "velocity": 0.3937007874015748,
          "duration": 0.09999999999999432
        },
        {
          "name": "F#4",
          "midi": 66,
          "time": 188.59999999999593,
          "velocity": 0.3937007874015748,
          "duration": 0.09999999999999432
        },
        {
          "name": "A#4",
          "midi": 70,
          "time": 189.19999999999592,
          "velocity": 0.3937007874015748,
          "duration": 0.09999999999999432
        },
        {
          "name": "F#4",
          "midi": 66,
          "time": 189.19999999999592,
          "velocity": 0.3937007874015748,
          "duration": 0.09999999999999432
        },
        {
          "name": "A#4",
          "midi": 70,
          "time": 189.59999999999593,
          "velocity": 0.3937007874015748,
          "duration": 0.09999999999999432
        },
        {
          "name": "F#4",
          "midi": 66,
          "time": 189.59999999999593,
          "velocity": 0.3937007874015748,
          "duration": 0.09999999999999432
        },
        {
          "name": "A#4",
          "midi": 70,
          "time": 189.8999999999959,
          "velocity": 0.3937007874015748,
          "duration": 0.09999999999999432
        },
        {
          "name": "F#4",
          "midi": 66,
          "time": 189.8999999999959,
          "velocity": 0.3937007874015748,
          "duration": 0.09999999999999432
        },
        {
          "name": "A#4",
          "midi": 70,
          "time": 190.1999999999959,
          "velocity": 0.3937007874015748,
          "duration": 0.09999999999999432
        },
        {
          "name": "F#4",
          "midi": 66,
          "time": 190.1999999999959,
          "velocity": 0.3937007874015748,
          "duration": 0.09999999999999432
        },
        {
          "name": "A#4",
          "midi": 70,
          "time": 190.7999999999959,
          "velocity": 0.3937007874015748,
          "duration": 0.09999999999999432
        },
        {
          "name": "F#4",
          "midi": 66,
          "time": 190.7999999999959,
          "velocity": 0.3937007874015748,
          "duration": 0.09999999999999432
        },
        {
          "name": "A#4",
          "midi": 70,
          "time": 191.1999999999959,
          "velocity": 0.3937007874015748,
          "duration": 0.09999999999999432
        },
        {
          "name": "F#4",
          "midi": 66,
          "time": 191.1999999999959,
          "velocity": 0.3937007874015748,
          "duration": 0.09999999999999432
        },
        {
          "name": "A#4",
          "midi": 70,
          "time": 191.49999999999588,
          "velocity": 0.3937007874015748,
          "duration": 0.09999999999999432
        },
        {
          "name": "F#4",
          "midi": 66,
          "time": 191.49999999999588,
          "velocity": 0.3937007874015748,
          "duration": 0.09999999999999432
        },
        {
          "name": "C#5",
          "midi": 73,
          "time": 191.79999999999586,
          "velocity": 0.3937007874015748,
          "duration": 0.09999999999999432
        },
        {
          "name": "F#4",
          "midi": 66,
          "time": 191.79999999999586,
          "velocity": 0.3937007874015748,
          "duration": 0.09999999999999432
        },
        {
          "name": "D#5",
          "midi": 75,
          "time": 191.99999999999585,
          "velocity": 0.3937007874015748,
          "duration": 0.09999999999999432
        },
        {
          "name": "F#4",
          "midi": 66,
          "time": 191.99999999999585,
          "velocity": 0.3937007874015748,
          "duration": 0.09999999999999432
        },
        {
          "name": "D#5",
          "midi": 75,
          "time": 192.39999999999586,
          "velocity": 0.3937007874015748,
          "duration": 0.09999999999999432
        },
        {
          "name": "F#4",
          "midi": 66,
          "time": 192.39999999999586,
          "velocity": 0.3937007874015748,
          "duration": 0.09999999999999432
        },
        {
          "name": "D#5",
          "midi": 75,
          "time": 192.79999999999586,
          "velocity": 0.3937007874015748,
          "duration": 0.09999999999999432
        },
        {
          "name": "F#4",
          "midi": 66,
          "time": 192.79999999999586,
          "velocity": 0.3937007874015748,
          "duration": 0.09999999999999432
        },
        {
          "name": "D#5",
          "midi": 75,
          "time": 193.09999999999584,
          "velocity": 0.3937007874015748,
          "duration": 0.09999999999999432
        },
        {
          "name": "F#4",
          "midi": 66,
          "time": 193.09999999999584,
          "velocity": 0.3937007874015748,
          "duration": 0.09999999999999432
        },
        {
          "name": "D#5",
          "midi": 75,
          "time": 193.39999999999583,
          "velocity": 0.3937007874015748,
          "duration": 0.09999999999999432
        },
        {
          "name": "F#4",
          "midi": 66,
          "time": 193.39999999999583,
          "velocity": 0.3937007874015748,
          "duration": 0.09999999999999432
        },
        {
          "name": "F5",
          "midi": 77,
          "time": 193.79999999999583,
          "velocity": 0.3937007874015748,
          "duration": 0.09999999999999432
        },
        {
          "name": "G#4",
          "midi": 68,
          "time": 193.79999999999583,
          "velocity": 0.3937007874015748,
          "duration": 0.09999999999999432
        },
        {
          "name": "F5",
          "midi": 77,
          "time": 193.99999999999582,
          "velocity": 0.3937007874015748,
          "duration": 0.09999999999999432
        },
        {
          "name": "G#4",
          "midi": 68,
          "time": 193.99999999999582,
          "velocity": 0.3937007874015748,
          "duration": 0.09999999999999432
        },
        {
          "name": "F5",
          "midi": 77,
          "time": 194.39999999999583,
          "velocity": 0.3937007874015748,
          "duration": 0.09999999999999432
        },
        {
          "name": "G#4",
          "midi": 68,
          "time": 194.39999999999583,
          "velocity": 0.3937007874015748,
          "duration": 0.09999999999999432
        },
        {
          "name": "F5",
          "midi": 77,
          "time": 194.6999999999958,
          "velocity": 0.3937007874015748,
          "duration": 0.09999999999999432
        },
        {
          "name": "G#4",
          "midi": 68,
          "time": 194.6999999999958,
          "velocity": 0.3937007874015748,
          "duration": 0.09999999999999432
        },
        {
          "name": "D#5",
          "midi": 75,
          "time": 194.9999999999958,
          "velocity": 0.3937007874015748,
          "duration": 0.09999999999999432
        },
        {
          "name": "G4",
          "midi": 67,
          "time": 194.9999999999958,
          "velocity": 0.3937007874015748,
          "duration": 0.09999999999999432
        },
        {
          "name": "D#5",
          "midi": 75,
          "time": 195.5999999999958,
          "velocity": 0.3937007874015748,
          "duration": 0.09999999999999432
        },
        {
          "name": "G4",
          "midi": 67,
          "time": 195.5999999999958,
          "velocity": 0.3937007874015748,
          "duration": 0.09999999999999432
        },
        {
          "name": "D#5",
          "midi": 75,
          "time": 195.9999999999958,
          "velocity": 0.3937007874015748,
          "duration": 0.09999999999999432
        },
        {
          "name": "G4",
          "midi": 67,
          "time": 195.9999999999958,
          "velocity": 0.3937007874015748,
          "duration": 0.09999999999999432
        },
        {
          "name": "D#5",
          "midi": 75,
          "time": 196.29999999999578,
          "velocity": 0.3937007874015748,
          "duration": 0.09999999999999432
        },
        {
          "name": "G4",
          "midi": 67,
          "time": 196.29999999999578,
          "velocity": 0.3937007874015748,
          "duration": 0.09999999999999432
        },
        {
          "name": "D#5",
          "midi": 75,
          "time": 196.59999999999576,
          "velocity": 0.3937007874015748,
          "duration": 0.09999999999999432
        },
        {
          "name": "G4",
          "midi": 67,
          "time": 196.59999999999576,
          "velocity": 0.3937007874015748,
          "duration": 0.09999999999999432
        },
        {
          "name": "G4",
          "midi": 67,
          "time": 196.79999999999575,
          "velocity": 0.3937007874015748,
          "duration": 0.09999999999999432
        },
        {
          "name": "G#4",
          "midi": 68,
          "time": 196.89999999999574,
          "velocity": 0.3937007874015748,
          "duration": 0.09999999999999432
        },
        {
          "name": "A#4",
          "midi": 70,
          "time": 196.99999999999574,
          "velocity": 0.3937007874015748,
          "duration": 0.09999999999999432
        },
        {
          "name": "D#5",
          "midi": 75,
          "time": 197.09999999999573,
          "velocity": 0.3937007874015748,
          "duration": 0.09999999999999432
        },
        {
          "name": "D#4",
          "midi": 63,
          "time": 197.3999999999957,
          "velocity": 0.3937007874015748,
          "duration": 0.09999999999999432
        },
        {
          "name": "A#3",
          "midi": 58,
          "time": 197.4999999999957,
          "velocity": 0.3937007874015748,
          "duration": 0.09999999999999432
        },
        {
          "name": "F#3",
          "midi": 54,
          "time": 197.5999999999957,
          "velocity": 0.3937007874015748,
          "duration": 0.09999999999999432
        },
        {
          "name": "D#3",
          "midi": 51,
          "time": 197.6999999999957,
          "velocity": 0.3937007874015748,
          "duration": 0.09999999999999432
        },
        {
          "name": "A#2",
          "midi": 46,
          "time": 197.7999999999957,
          "velocity": 0.3937007874015748,
          "duration": 0.09999999999999432
        },
        {
          "name": "G2",
          "midi": 43,
          "time": 197.89999999999569,
          "velocity": 0.3937007874015748,
          "duration": 0.09999999999999432
        }
      ],
      "controlChanges": {},
      "id": 2,
      "name": "Acoustic Gtr (Classic)",
      "instrumentNumber": 25,
      "instrument": "acoustic guitar (steel)",
      "instrumentFamily": "guitar",
      "channelNumber": 2,
      "isPercussion": false
    },
    {
      "startTime": 31.6,
      "duration": 158.3999999999997,
      "length": 239,
      "notes": [
        {
          "name": "F#4",
          "midi": 66,
          "time": 31.6,
          "velocity": 0.6692913385826772,
          "duration": 0.1999999999999993
        },
        {
          "name": "G#4",
          "midi": 68,
          "time": 31.8,
          "velocity": 0.6692913385826772,
          "duration": 0.1999999999999993
        },
        {
          "name": "A#4",
          "midi": 70,
          "time": 32,
          "velocity": 0.6692913385826772,
          "duration": 0.6000000000000014
        },
        {
          "name": "D#5",
          "midi": 75,
          "time": 32.6,
          "velocity": 0.6692913385826772,
          "duration": 0.20000000000000284
        },
        {
          "name": "A#4",
          "midi": 70,
          "time": 32.800000000000004,
          "velocity": 0.6692913385826772,
          "duration": 0.7999999999999972
        },
        {
          "name": "F#5",
          "midi": 78,
          "time": 33.6,
          "velocity": 0.6692913385826772,
          "duration": 0.7999999999999972
        },
        {
          "name": "F5",
          "midi": 77,
          "time": 34.4,
          "velocity": 0.6692913385826772,
          "duration": 0.20000000000000284
        },
        {
          "name": "F#5",
          "midi": 78,
          "time": 34.6,
          "velocity": 0.6692913385826772,
          "duration": 0.20000000000000284
        },
        {
          "name": "C#5",
          "midi": 73,
          "time": 34.800000000000004,
          "velocity": 0.6692913385826772,
          "duration": 0.20000000000000284
        },
        {
          "name": "F5",
          "midi": 77,
          "time": 35.00000000000001,
          "velocity": 0.6692913385826772,
          "duration": 0.20000000000000284
        },
        {
          "name": "A#4",
          "midi": 70,
          "time": 35.20000000000001,
          "velocity": 0.6692913385826772,
          "duration": 0.6000000000000014
        },
        {
          "name": "D#5",
          "midi": 75,
          "time": 35.80000000000001,
          "velocity": 0.6692913385826772,
          "duration": 0.20000000000000284
        },
        {
          "name": "A#4",
          "midi": 70,
          "time": 36.000000000000014,
          "velocity": 0.6692913385826772,
          "duration": 0.7999999999999972
        },
        {
          "name": "F#5",
          "midi": 78,
          "time": 36.80000000000001,
          "velocity": 0.6692913385826772,
          "duration": 1.6000000000000014
        },
        {
          "name": "A#4",
          "midi": 70,
          "time": 38.40000000000001,
          "velocity": 0.6692913385826772,
          "duration": 0.6000000000000014
        },
        {
          "name": "D#5",
          "midi": 75,
          "time": 39.000000000000014,
          "velocity": 0.6692913385826772,
          "duration": 0.20000000000000284
        },
        {
          "name": "A#4",
          "midi": 70,
          "time": 39.20000000000002,
          "velocity": 0.6692913385826772,
          "duration": 0.7999999999999972
        },
        {
          "name": "F#5",
          "midi": 78,
          "time": 40.000000000000014,
          "velocity": 0.6692913385826772,
          "duration": 0.7999999999999972
        },
        {
          "name": "F5",
          "midi": 77,
          "time": 40.80000000000001,
          "velocity": 0.6692913385826772,
          "duration": 0.20000000000000284
        },
        {
          "name": "F#5",
          "midi": 78,
          "time": 41.000000000000014,
          "velocity": 0.6692913385826772,
          "duration": 0.20000000000000284
        },
        {
          "name": "A#5",
          "midi": 82,
          "time": 41.20000000000002,
          "velocity": 0.6692913385826772,
          "duration": 0.20000000000000284
        },
        {
          "name": "F5",
          "midi": 77,
          "time": 41.40000000000002,
          "velocity": 0.6692913385826772,
          "duration": 0.20000000000000284
        },
        {
          "name": "D#5",
          "midi": 75,
          "time": 41.60000000000002,
          "velocity": 0.6692913385826772,
          "duration": 0.6000000000000014
        },
        {
          "name": "A#5",
          "midi": 82,
          "time": 42.200000000000024,
          "velocity": 0.6692913385826772,
          "duration": 0.20000000000000284
        },
        {
          "name": "D#5",
          "midi": 75,
          "time": 42.40000000000003,
          "velocity": 0.6692913385826772,
          "duration": 2.3999999999999986
        },
        {
          "name": "F#5",
          "midi": 78,
          "time": 44.800000000000026,
          "velocity": 0.6692913385826772,
          "duration": 0.6000000000000014
        },
        {
          "name": "A#5",
          "midi": 82,
          "time": 45.40000000000003,
          "velocity": 0.6692913385826772,
          "duration": 0.20000000000000284
        },
        {
          "name": "F#5",
          "midi": 78,
          "time": 45.60000000000003,
          "velocity": 0.6692913385826772,
          "duration": 0.7999999999999972
        },
        {
          "name": "D#6",
          "midi": 87,
          "time": 46.40000000000003,
          "velocity": 0.6692913385826772,
          "duration": 0.7999999999999972
        },
        {
          "name": "C#6",
          "midi": 85,
          "time": 47.200000000000024,
          "velocity": 0.6692913385826772,
          "duration": 0.20000000000000284
        },
        {
          "name": "G#5",
          "midi": 80,
          "time": 47.40000000000003,
          "velocity": 0.6692913385826772,
          "duration": 0.20000000000000284
        },
        {
          "name": "F5",
          "midi": 77,
          "time": 47.60000000000003,
          "velocity": 0.6692913385826772,
          "duration": 0.20000000000000284
        },
        {
          "name": "G#5",
          "midi": 80,
          "time": 47.80000000000003,
          "velocity": 0.6692913385826772,
          "duration": 0.20000000000000284
        },
        {
          "name": "F#5",
          "midi": 78,
          "time": 48.000000000000036,
          "velocity": 0.6692913385826772,
          "duration": 0.6000000000000014
        },
        {
          "name": "A#5",
          "midi": 82,
          "time": 48.60000000000004,
          "velocity": 0.6692913385826772,
          "duration": 0.20000000000000284
        },
        {
          "name": "F#5",
          "midi": 78,
          "time": 48.80000000000004,
          "velocity": 0.6692913385826772,
          "duration": 0.7999999999999972
        },
        {
          "name": "D#6",
          "midi": 87,
          "time": 49.60000000000004,
          "velocity": 0.6692913385826772,
          "duration": 1.6000000000000014
        },
        {
          "name": "F#5",
          "midi": 78,
          "time": 51.20000000000004,
          "velocity": 0.6692913385826772,
          "duration": 0.6000000000000014
        },
        {
          "name": "F6",
          "midi": 89,
          "time": 51.80000000000004,
          "velocity": 0.6692913385826772,
          "duration": 0.20000000000000284
        },
        {
          "name": "D#6",
          "midi": 87,
          "time": 52.00000000000004,
          "velocity": 0.6692913385826772,
          "duration": 0.7999999999999972
        },
        {
          "name": "F#6",
          "midi": 90,
          "time": 52.80000000000004,
          "velocity": 0.6692913385826772,
          "duration": 0.7999999999999972
        },
        {
          "name": "F6",
          "midi": 89,
          "time": 53.60000000000004,
          "velocity": 0.6692913385826772,
          "duration": 0.20000000000000284
        },
        {
          "name": "F#6",
          "midi": 90,
          "time": 53.80000000000004,
          "velocity": 0.6692913385826772,
          "duration": 0.20000000000000284
        },
        {
          "name": "A#6",
          "midi": 94,
          "time": 54.00000000000004,
          "velocity": 0.6692913385826772,
          "duration": 0.20000000000000284
        },
        {
          "name": "C#6",
          "midi": 85,
          "time": 54.200000000000045,
          "velocity": 0.6692913385826772,
          "duration": 0.20000000000000284
        },
        {
          "name": "D#6",
          "midi": 87,
          "time": 54.40000000000005,
          "velocity": 0.6692913385826772,
          "duration": 0.6000000000000014
        },
        {
          "name": "A#6",
          "midi": 94,
          "time": 55.00000000000005,
          "velocity": 0.6692913385826772,
          "duration": 0.20000000000000284
        },
        {
          "name": "D#6",
          "midi": 87,
          "time": 55.20000000000005,
          "velocity": 0.6692913385826772,
          "duration": 2.3999999999999986
        },
        {
          "name": "A#4",
          "midi": 70,
          "time": 57.60000000000005,
          "velocity": 0.6692913385826772,
          "duration": 0.6000000000000014
        },
        {
          "name": "D#5",
          "midi": 75,
          "time": 58.20000000000005,
          "velocity": 0.6692913385826772,
          "duration": 0.20000000000000284
        },
        {
          "name": "A#4",
          "midi": 70,
          "time": 58.400000000000055,
          "velocity": 0.6692913385826772,
          "duration": 0.7999999999999972
        },
        {
          "name": "F#5",
          "midi": 78,
          "time": 59.20000000000005,
          "velocity": 0.6692913385826772,
          "duration": 0.7999999999999972
        },
        {
          "name": "F5",
          "midi": 77,
          "time": 60.00000000000005,
          "velocity": 0.6692913385826772,
          "duration": 0.20000000000000284
        },
        {
          "name": "F#5",
          "midi": 78,
          "time": 60.20000000000005,
          "velocity": 0.6692913385826772,
          "duration": 0.20000000000000284
        },
        {
          "name": "C#5",
          "midi": 73,
          "time": 60.400000000000055,
          "velocity": 0.6692913385826772,
          "duration": 0.20000000000000284
        },
        {
          "name": "D#5",
          "midi": 75,
          "time": 60.60000000000006,
          "velocity": 0.6692913385826772,
          "duration": 0.20000000000000284
        },
        {
          "name": "A#4",
          "midi": 70,
          "time": 60.80000000000006,
          "velocity": 0.6692913385826772,
          "duration": 0.6000000000000014
        },
        {
          "name": "D#5",
          "midi": 75,
          "time": 61.40000000000006,
          "velocity": 0.6692913385826772,
          "duration": 0.20000000000000284
        },
        {
          "name": "A#4",
          "midi": 70,
          "time": 61.600000000000065,
          "velocity": 0.6692913385826772,
          "duration": 0.7999999999999972
        },
        {
          "name": "F#5",
          "midi": 78,
          "time": 62.40000000000006,
          "velocity": 0.6692913385826772,
          "duration": 0.7999999999999972
        },
        {
          "name": "C#5",
          "midi": 73,
          "time": 63.40000000000006,
          "velocity": 0.6692913385826772,
          "duration": 0.20000000000000284
        },
        {
          "name": "F#4",
          "midi": 66,
          "time": 63.600000000000065,
          "velocity": 0.6692913385826772,
          "duration": 0.20000000000000284
        },
        {
          "name": "G#4",
          "midi": 68,
          "time": 63.80000000000007,
          "velocity": 0.6692913385826772,
          "duration": 0.20000000000000284
        },
        {
          "name": "A#4",
          "midi": 70,
          "time": 64.00000000000007,
          "velocity": 0.6692913385826772,
          "duration": 0.5999999999999943
        },
        {
          "name": "D#5",
          "midi": 75,
          "time": 64.60000000000007,
          "velocity": 0.6692913385826772,
          "duration": 0.20000000000000284
        },
        {
          "name": "A#4",
          "midi": 70,
          "time": 64.80000000000007,
          "velocity": 0.6692913385826772,
          "duration": 0.7999999999999972
        },
        {
          "name": "F#5",
          "midi": 78,
          "time": 65.60000000000007,
          "velocity": 0.6692913385826772,
          "duration": 0.7999999999999972
        },
        {
          "name": "F5",
          "midi": 77,
          "time": 66.40000000000006,
          "velocity": 0.6692913385826772,
          "duration": 0.20000000000000284
        },
        {
          "name": "F#5",
          "midi": 78,
          "time": 66.60000000000007,
          "velocity": 0.6692913385826772,
          "duration": 0.20000000000000284
        },
        {
          "name": "A#5",
          "midi": 82,
          "time": 66.80000000000007,
          "velocity": 0.6692913385826772,
          "duration": 0.20000000000000284
        },
        {
          "name": "C#5",
          "midi": 73,
          "time": 67.00000000000007,
          "velocity": 0.6692913385826772,
          "duration": 0.20000000000000284
        },
        {
          "name": "D#5",
          "midi": 75,
          "time": 67.20000000000007,
          "velocity": 0.6692913385826772,
          "duration": 0.5999999999999943
        },
        {
          "name": "A#5",
          "midi": 82,
          "time": 67.80000000000007,
          "velocity": 0.6692913385826772,
          "duration": 0.20000000000000284
        },
        {
          "name": "D#5",
          "midi": 75,
          "time": 68.00000000000007,
          "velocity": 0.6692913385826772,
          "duration": 1
        },
        {
          "name": "F#4",
          "midi": 66,
          "time": 69.00000000000007,
          "velocity": 0.6692913385826772,
          "duration": 0.20000000000000284
        },
        {
          "name": "C#5",
          "midi": 73,
          "time": 69.20000000000007,
          "velocity": 0.6692913385826772,
          "duration": 0.5999999999999943
        },
        {
          "name": "F#5",
          "midi": 78,
          "time": 69.80000000000007,
          "velocity": 0.6692913385826772,
          "duration": 0.20000000000000284
        },
        {
          "name": "B4",
          "midi": 71,
          "time": 70.00000000000007,
          "velocity": 0.6692913385826772,
          "duration": 0.20000000000000284
        },
        {
          "name": "C#5",
          "midi": 73,
          "time": 70.20000000000007,
          "velocity": 0.6692913385826772,
          "duration": 0.20000000000000284
        },
        {
          "name": "F#5",
          "midi": 78,
          "time": 70.40000000000008,
          "velocity": 0.6692913385826772,
          "duration": 0.5999999999999943
        },
        {
          "name": "A#5",
          "midi": 82,
          "time": 71.00000000000007,
          "velocity": 0.6692913385826772,
          "duration": 0.20000000000000284
        },
        {
          "name": "F#5",
          "midi": 78,
          "time": 71.20000000000007,
          "velocity": 0.6692913385826772,
          "duration": 0.7999999999999972
        },
        {
          "name": "D#6",
          "midi": 87,
          "time": 72.00000000000007,
          "velocity": 0.6692913385826772,
          "duration": 0.7999999999999972
        },
        {
          "name": "C#6",
          "midi": 85,
          "time": 72.80000000000007,
          "velocity": 0.6692913385826772,
          "duration": 0.20000000000000284
        },
        {
          "name": "G#5",
          "midi": 80,
          "time": 73.00000000000007,
          "velocity": 0.6692913385826772,
          "duration": 0.20000000000000284
        },
        {
          "name": "F5",
          "midi": 77,
          "time": 73.20000000000007,
          "velocity": 0.6692913385826772,
          "duration": 0.20000000000000284
        },
        {
          "name": "G#5",
          "midi": 80,
          "time": 73.40000000000008,
          "velocity": 0.6692913385826772,
          "duration": 0.20000000000000284
        },
        {
          "name": "F#5",
          "midi": 78,
          "time": 73.60000000000008,
          "velocity": 0.6692913385826772,
          "duration": 0.5999999999999943
        },
        {
          "name": "A#5",
          "midi": 82,
          "time": 74.20000000000007,
          "velocity": 0.6692913385826772,
          "duration": 0.20000000000000284
        },
        {
          "name": "F#5",
          "midi": 78,
          "time": 74.40000000000008,
          "velocity": 0.6692913385826772,
          "duration": 0.7999999999999972
        },
        {
          "name": "D#6",
          "midi": 87,
          "time": 75.20000000000007,
          "velocity": 0.6692913385826772,
          "duration": 0.9000000000000057
        },
        {
          "name": "F#5",
          "midi": 78,
          "time": 76.80000000000008,
          "velocity": 0.6692913385826772,
          "duration": 0.5999999999999943
        },
        {
          "name": "A#5",
          "midi": 82,
          "time": 77.40000000000008,
          "velocity": 0.6692913385826772,
          "duration": 0.20000000000000284
        },
        {
          "name": "F#5",
          "midi": 78,
          "time": 77.60000000000008,
          "velocity": 0.6692913385826772,
          "duration": 0.7999999999999972
        },
        {
          "name": "D#6",
          "midi": 87,
          "time": 78.40000000000008,
          "velocity": 0.6692913385826772,
          "duration": 0.7999999999999972
        },
        {
          "name": "F5",
          "midi": 77,
          "time": 79.20000000000007,
          "velocity": 0.6692913385826772,
          "duration": 0.20000000000000284
        },
        {
          "name": "F#5",
          "midi": 78,
          "time": 79.40000000000008,
          "velocity": 0.6692913385826772,
          "duration": 0.20000000000000284
        },
        {
          "name": "A#5",
          "midi": 82,
          "time": 79.60000000000008,
          "velocity": 0.6692913385826772,
          "duration": 0.20000000000000284
        },
        {
          "name": "C#5",
          "midi": 73,
          "time": 79.80000000000008,
          "velocity": 0.6692913385826772,
          "duration": 0.20000000000000284
        },
        {
          "name": "D#5",
          "midi": 75,
          "time": 80.00000000000009,
          "velocity": 0.6692913385826772,
          "duration": 0.5999999999999943
        },
        {
          "name": "A#5",
          "midi": 82,
          "time": 80.60000000000008,
          "velocity": 0.6692913385826772,
          "duration": 0.20000000000000284
        },
        {
          "name": "D#5",
          "midi": 75,
          "time": 80.80000000000008,
          "velocity": 0.6692913385826772,
          "duration": 1.4000000000000057
        },
        {
          "name": "A#4",
          "midi": 70,
          "time": 82.20000000000009,
          "velocity": 0.6692913385826772,
          "duration": 0.20000000000000284
        },
        {
          "name": "F#4",
          "midi": 66,
          "time": 82.40000000000009,
          "velocity": 0.6692913385826772,
          "duration": 0.7999999999999972
        },
        {
          "name": "G#4",
          "midi": 68,
          "time": 108.8000000000001,
          "velocity": 0.6692913385826772,
          "duration": 0.5999999999999943
        },
        {
          "name": "C#6",
          "midi": 85,
          "time": 109.40000000000009,
          "velocity": 0.6692913385826772,
          "duration": 0.20000000000000284
        },
        {
          "name": "G#5",
          "midi": 80,
          "time": 109.6000000000001,
          "velocity": 0.6692913385826772,
          "duration": 0.5999999999999943
        },
        {
          "name": "G#5",
          "midi": 80,
          "time": 110.20000000000009,
          "velocity": 0.6692913385826772,
          "duration": 0.20000000000000284
        },
        {
          "name": "E6",
          "midi": 88,
          "time": 110.40000000000009,
          "velocity": 0.6692913385826772,
          "duration": 0.5999999999999943
        },
        {
          "name": "G#5",
          "midi": 80,
          "time": 111.00000000000009,
          "velocity": 0.6692913385826772,
          "duration": 0.20000000000000284
        },
        {
          "name": "D#6",
          "midi": 87,
          "time": 111.20000000000009,
          "velocity": 0.6692913385826772,
          "duration": 0.20000000000000284
        },
        {
          "name": "E6",
          "midi": 88,
          "time": 111.40000000000009,
          "velocity": 0.6692913385826772,
          "duration": 0.20000000000000284
        },
        {
          "name": "B5",
          "midi": 83,
          "time": 111.6000000000001,
          "velocity": 0.6692913385826772,
          "duration": 0.20000000000000284
        },
        {
          "name": "C#6",
          "midi": 85,
          "time": 111.8000000000001,
          "velocity": 0.6692913385826772,
          "duration": 0.20000000000000284
        },
        {
          "name": "G#4",
          "midi": 68,
          "time": 112.0000000000001,
          "velocity": 0.6692913385826772,
          "duration": 0.5999999999999943
        },
        {
          "name": "C#6",
          "midi": 85,
          "time": 112.6000000000001,
          "velocity": 0.6692913385826772,
          "duration": 0.20000000000000284
        },
        {
          "name": "G#5",
          "midi": 80,
          "time": 112.8000000000001,
          "velocity": 0.6692913385826772,
          "duration": 0.5999999999999943
        },
        {
          "name": "C#6",
          "midi": 85,
          "time": 113.40000000000009,
          "velocity": 0.6692913385826772,
          "duration": 0.20000000000000284
        },
        {
          "name": "E6",
          "midi": 88,
          "time": 113.6000000000001,
          "velocity": 0.6692913385826772,
          "duration": 1.5999999999999943
        },
        {
          "name": "G#4",
          "midi": 68,
          "time": 115.20000000000009,
          "velocity": 0.6692913385826772,
          "duration": 0.5999999999999943
        },
        {
          "name": "C#6",
          "midi": 85,
          "time": 115.80000000000008,
          "velocity": 0.6692913385826772,
          "duration": 0.20000000000000284
        },
        {
          "name": "G#5",
          "midi": 80,
          "time": 116.00000000000009,
          "velocity": 0.6692913385826772,
          "duration": 0.5999999999999943
        },
        {
          "name": "G#5",
          "midi": 80,
          "time": 116.60000000000008,
          "velocity": 0.6692913385826772,
          "duration": 0.20000000000000284
        },
        {
          "name": "E6",
          "midi": 88,
          "time": 116.80000000000008,
          "velocity": 0.6692913385826772,
          "duration": 0.7999999999999972
        },
        {
          "name": "D#6",
          "midi": 87,
          "time": 117.60000000000008,
          "velocity": 0.6692913385826772,
          "duration": 0.20000000000000284
        },
        {
          "name": "E6",
          "midi": 88,
          "time": 117.80000000000008,
          "velocity": 0.6692913385826772,
          "duration": 0.20000000000000284
        },
        {
          "name": "G#6",
          "midi": 92,
          "time": 118.00000000000009,
          "velocity": 0.6692913385826772,
          "duration": 0.20000000000000284
        },
        {
          "name": "B5",
          "midi": 83,
          "time": 118.20000000000009,
          "velocity": 0.6692913385826772,
          "duration": 0.20000000000000284
        },
        {
          "name": "C#6",
          "midi": 85,
          "time": 118.40000000000009,
          "velocity": 0.6692913385826772,
          "duration": 0.20000000000000284
        },
        {
          "name": "B5",
          "midi": 83,
          "time": 118.6000000000001,
          "velocity": 0.6692913385826772,
          "duration": 0.4000000000000057
        },
        {
          "name": "G#6",
          "midi": 92,
          "time": 119.0000000000001,
          "velocity": 0.6692913385826772,
          "duration": 0.20000000000000284
        },
        {
          "name": "C#6",
          "midi": 85,
          "time": 119.2000000000001,
          "velocity": 0.6692913385826772,
          "duration": 0.5999999999999943
        },
        {
          "name": "E5",
          "midi": 76,
          "time": 119.8000000000001,
          "velocity": 0.6692913385826772,
          "duration": 0.20000000000000284
        },
        {
          "name": "C#6",
          "midi": 85,
          "time": 120.0000000000001,
          "velocity": 0.6692913385826772,
          "duration": 0.20000000000000284
        },
        {
          "name": "B5",
          "midi": 83,
          "time": 120.2000000000001,
          "velocity": 0.6692913385826772,
          "duration": 0.20000000000000284
        },
        {
          "name": "F#5",
          "midi": 78,
          "time": 120.4000000000001,
          "velocity": 0.6692913385826772,
          "duration": 0.20000000000000284
        },
        {
          "name": "B4",
          "midi": 71,
          "time": 120.60000000000011,
          "velocity": 0.6692913385826772,
          "duration": 0.20000000000000284
        },
        {
          "name": "C#5",
          "midi": 73,
          "time": 120.80000000000011,
          "velocity": 0.6692913385826772,
          "duration": 0.20000000000000284
        },
        {
          "name": "E4",
          "midi": 64,
          "time": 121.00000000000011,
          "velocity": 0.6692913385826772,
          "duration": 0.20000000000000284
        },
        {
          "name": "F#4",
          "midi": 66,
          "time": 121.20000000000012,
          "velocity": 0.6692913385826772,
          "duration": 0.4000000000000057
        },
        {
          "name": "E5",
          "midi": 76,
          "time": 121.60000000000012,
          "velocity": 0.6692913385826772,
          "duration": 0.5999999999999943
        },
        {
          "name": "G#5",
          "midi": 80,
          "time": 122.20000000000012,
          "velocity": 0.6692913385826772,
          "duration": 0.20000000000000284
        },
        {
          "name": "E5",
          "midi": 76,
          "time": 122.40000000000012,
          "velocity": 0.6692913385826772,
          "duration": 0.4000000000000057
        },
        {
          "name": "B4",
          "midi": 71,
          "time": 122.80000000000013,
          "velocity": 0.6692913385826772,
          "duration": 0.20000000000000284
        },
        {
          "name": "G#5",
          "midi": 80,
          "time": 123.00000000000013,
          "velocity": 0.6692913385826772,
          "duration": 0.20000000000000284
        },
        {
          "name": "C#6",
          "midi": 85,
          "time": 123.20000000000013,
          "velocity": 0.6692913385826772,
          "duration": 0.20000000000000284
        },
        {
          "name": "G#5",
          "midi": 80,
          "time": 123.40000000000013,
          "velocity": 0.6692913385826772,
          "duration": 0.20000000000000284
        },
        {
          "name": "C#5",
          "midi": 73,
          "time": 123.60000000000014,
          "velocity": 0.6692913385826772,
          "duration": 0.20000000000000284
        },
        {
          "name": "F#4",
          "midi": 66,
          "time": 123.80000000000014,
          "velocity": 0.6692913385826772,
          "duration": 0.20000000000000284
        },
        {
          "name": "B4",
          "midi": 71,
          "time": 124.00000000000014,
          "velocity": 0.6692913385826772,
          "duration": 0.20000000000000284
        },
        {
          "name": "F#4",
          "midi": 66,
          "time": 124.20000000000014,
          "velocity": 0.6692913385826772,
          "duration": 0.20000000000000284
        },
        {
          "name": "D#4",
          "midi": 63,
          "time": 124.40000000000015,
          "velocity": 0.6692913385826772,
          "duration": 0.20000000000000284
        },
        {
          "name": "F#4",
          "midi": 66,
          "time": 124.60000000000015,
          "velocity": 0.6692913385826772,
          "duration": 0.20000000000000284
        },
        {
          "name": "E5",
          "midi": 76,
          "time": 124.80000000000015,
          "velocity": 0.6692913385826772,
          "duration": 0.5999999999999943
        },
        {
          "name": "G#5",
          "midi": 80,
          "time": 125.40000000000015,
          "velocity": 0.6692913385826772,
          "duration": 0.20000000000000284
        },
        {
          "name": "E5",
          "midi": 76,
          "time": 125.60000000000015,
          "velocity": 0.6692913385826772,
          "duration": 0.4000000000000057
        },
        {
          "name": "B4",
          "midi": 71,
          "time": 126.00000000000016,
          "velocity": 0.6692913385826772,
          "duration": 0.20000000000000284
        },
        {
          "name": "G#5",
          "midi": 80,
          "time": 126.20000000000016,
          "velocity": 0.6692913385826772,
          "duration": 0.20000000000000284
        },
        {
          "name": "C#6",
          "midi": 85,
          "time": 126.40000000000016,
          "velocity": 0.6692913385826772,
          "duration": 0.4000000000000057
        },
        {
          "name": "B5",
          "midi": 83,
          "time": 126.80000000000017,
          "velocity": 0.6692913385826772,
          "duration": 0.20000000000000284
        },
        {
          "name": "D#5",
          "midi": 75,
          "time": 127.00000000000017,
          "velocity": 0.6692913385826772,
          "duration": 0.4000000000000057
        },
        {
          "name": "B4",
          "midi": 71,
          "time": 127.40000000000018,
          "velocity": 0.6692913385826772,
          "duration": 0.4000000000000057
        },
        {
          "name": "F#4",
          "midi": 66,
          "time": 127.80000000000018,
          "velocity": 0.6692913385826772,
          "duration": 0.19999999999998863
        },
        {
          "name": "E5",
          "midi": 76,
          "time": 128.00000000000017,
          "velocity": 0.6692913385826772,
          "duration": 0.5999999999999943
        },
        {
          "name": "G#5",
          "midi": 80,
          "time": 128.60000000000016,
          "velocity": 0.6692913385826772,
          "duration": 0.19999999999998863
        },
        {
          "name": "E5",
          "midi": 76,
          "time": 128.80000000000015,
          "velocity": 0.6692913385826772,
          "duration": 0.4000000000000057
        },
        {
          "name": "B4",
          "midi": 71,
          "time": 129.20000000000016,
          "velocity": 0.6692913385826772,
          "duration": 0.19999999999998863
        },
        {
          "name": "G#5",
          "midi": 80,
          "time": 129.40000000000015,
          "velocity": 0.6692913385826772,
          "duration": 0.19999999999998863
        },
        {
          "name": "C#6",
          "midi": 85,
          "time": 129.60000000000014,
          "velocity": 0.6692913385826772,
          "duration": 0.19999999999998863
        },
        {
          "name": "G#5",
          "midi": 80,
          "time": 129.80000000000013,
          "velocity": 0.6692913385826772,
          "duration": 0.19999999999998863
        },
        {
          "name": "D#5",
          "midi": 75,
          "time": 130.0000000000001,
          "velocity": 0.6692913385826772,
          "duration": 0.4000000000000057
        },
        {
          "name": "D#6",
          "midi": 87,
          "time": 130.40000000000012,
          "velocity": 0.6692913385826772,
          "duration": 0.19999999999998863
        },
        {
          "name": "E6",
          "midi": 88,
          "time": 130.6000000000001,
          "velocity": 0.6692913385826772,
          "duration": 0.19999999999998863
        },
        {
          "name": "G#6",
          "midi": 92,
          "time": 130.8000000000001,
          "velocity": 0.6692913385826772,
          "duration": 0.19999999999998863
        },
        {
          "name": "D#6",
          "midi": 87,
          "time": 131.00000000000009,
          "velocity": 0.6692913385826772,
          "duration": 0.19999999999998863
        },
        {
          "name": "E6",
          "midi": 88,
          "time": 131.20000000000007,
          "velocity": 0.6692913385826772,
          "duration": 0.19999999999998863
        },
        {
          "name": "B5",
          "midi": 83,
          "time": 131.40000000000006,
          "velocity": 0.6692913385826772,
          "duration": 0.19999999999998863
        },
        {
          "name": "A5",
          "midi": 81,
          "time": 131.60000000000005,
          "velocity": 0.6692913385826772,
          "duration": 0.19999999999998863
        },
        {
          "name": "G#6",
          "midi": 92,
          "time": 131.80000000000004,
          "velocity": 0.6692913385826772,
          "duration": 0.19999999999998863
        },
        {
          "name": "E6",
          "midi": 88,
          "time": 132.00000000000003,
          "velocity": 0.6692913385826772,
          "duration": 0.19999999999998863
        },
        {
          "name": "G#5",
          "midi": 80,
          "time": 132.20000000000002,
          "velocity": 0.6692913385826772,
          "duration": 0.19999999999998863
        },
        {
          "name": "C#6",
          "midi": 85,
          "time": 132.4,
          "velocity": 0.6692913385826772,
          "duration": 0.09999999999999432
        },
        {
          "name": "B5",
          "midi": 83,
          "time": 132.5,
          "velocity": 0.6692913385826772,
          "duration": 0.09999999999999432
        },
        {
          "name": "E5",
          "midi": 76,
          "time": 132.6,
          "velocity": 0.6692913385826772,
          "duration": 0.19999999999998863
        },
        {
          "name": "E5",
          "midi": 76,
          "time": 132.79999999999998,
          "velocity": 0.6692913385826772,
          "duration": 1.5999999999999943
        },
        {
          "name": "A4",
          "midi": 69,
          "time": 134.39999999999998,
          "velocity": 0.6692913385826772,
          "duration": 0.5999999999999943
        },
        {
          "name": "D5",
          "midi": 74,
          "time": 134.99999999999997,
          "velocity": 0.6692913385826772,
          "duration": 0.19999999999998863
        },
        {
          "name": "A4",
          "midi": 69,
          "time": 135.19999999999996,
          "velocity": 0.6692913385826772,
          "duration": 0.8000000000000114
        },
        {
          "name": "F5",
          "midi": 77,
          "time": 135.99999999999997,
          "velocity": 0.6692913385826772,
          "duration": 0.8000000000000114
        },
        {
          "name": "E5",
          "midi": 76,
          "time": 136.79999999999998,
          "velocity": 0.6692913385826772,
          "duration": 0.19999999999998863
        },
        {
          "name": "F5",
          "midi": 77,
          "time": 136.99999999999997,
          "velocity": 0.6692913385826772,
          "duration": 0.19999999999998863
        },
        {
          "name": "C5",
          "midi": 72,
          "time": 137.19999999999996,
          "velocity": 0.6692913385826772,
          "duration": 0.19999999999998863
        },
        {
          "name": "E5",
          "midi": 76,
          "time": 137.39999999999995,
          "velocity": 0.6692913385826772,
          "duration": 0.19999999999998863
        },
        {
          "name": "A4",
          "midi": 69,
          "time": 137.59999999999994,
          "velocity": 0.6692913385826772,
          "duration": 0.5999999999999943
        },
        {
          "name": "D5",
          "midi": 74,
          "time": 138.19999999999993,
          "velocity": 0.6692913385826772,
          "duration": 0.19999999999998863
        },
        {
          "name": "A4",
          "midi": 69,
          "time": 138.39999999999992,
          "velocity": 0.6692913385826772,
          "duration": 0.8000000000000114
        },
        {
          "name": "F5",
          "midi": 77,
          "time": 139.19999999999993,
          "velocity": 0.6692913385826772,
          "duration": 1
        },
        {
          "name": "C5",
          "midi": 72,
          "time": 140.19999999999993,
          "velocity": 0.6692913385826772,
          "duration": 0.19999999999998863
        },
        {
          "name": "F4",
          "midi": 65,
          "time": 140.39999999999992,
          "velocity": 0.6692913385826772,
          "duration": 0.19999999999998863
        },
        {
          "name": "G4",
          "midi": 67,
          "time": 140.5999999999999,
          "velocity": 0.6692913385826772,
          "duration": 0.19999999999998863
        },
        {
          "name": "A4",
          "midi": 69,
          "time": 140.7999999999999,
          "velocity": 0.6692913385826772,
          "duration": 0.5999999999999943
        },
        {
          "name": "D5",
          "midi": 74,
          "time": 141.3999999999999,
          "velocity": 0.6692913385826772,
          "duration": 0.19999999999998863
        },
        {
          "name": "A4",
          "midi": 69,
          "time": 141.59999999999988,
          "velocity": 0.6692913385826772,
          "duration": 0.8000000000000114
        },
        {
          "name": "F5",
          "midi": 77,
          "time": 142.3999999999999,
          "velocity": 0.6692913385826772,
          "duration": 0.8000000000000114
        },
        {
          "name": "E5",
          "midi": 76,
          "time": 143.1999999999999,
          "velocity": 0.6692913385826772,
          "duration": 0.19999999999998863
        },
        {
          "name": "F5",
          "midi": 77,
          "time": 143.3999999999999,
          "velocity": 0.6692913385826772,
          "duration": 0.19999999999998863
        },
        {
          "name": "C5",
          "midi": 72,
          "time": 143.59999999999988,
          "velocity": 0.6692913385826772,
          "duration": 0.19999999999998863
        },
        {
          "name": "E5",
          "midi": 76,
          "time": 143.79999999999987,
          "velocity": 0.6692913385826772,
          "duration": 0.19999999999998863
        },
        {
          "name": "D5",
          "midi": 74,
          "time": 143.99999999999986,
          "velocity": 0.6692913385826772,
          "duration": 0.5999999999999943
        },
        {
          "name": "A5",
          "midi": 81,
          "time": 144.59999999999985,
          "velocity": 0.6692913385826772,
          "duration": 0.19999999999998863
        },
        {
          "name": "D5",
          "midi": 74,
          "time": 144.79999999999984,
          "velocity": 0.6692913385826772,
          "duration": 1
        },
        {
          "name": "F4",
          "midi": 65,
          "time": 145.79999999999984,
          "velocity": 0.6692913385826772,
          "duration": 0.19999999999998863
        },
        {
          "name": "C5",
          "midi": 72,
          "time": 145.99999999999983,
          "velocity": 0.6692913385826772,
          "duration": 0.5999999999999943
        },
        {
          "name": "F5",
          "midi": 77,
          "time": 146.59999999999982,
          "velocity": 0.6692913385826772,
          "duration": 0.19999999999998863
        },
        {
          "name": "A#4",
          "midi": 70,
          "time": 146.7999999999998,
          "velocity": 0.6692913385826772,
          "duration": 0.19999999999998863
        },
        {
          "name": "C5",
          "midi": 72,
          "time": 146.9999999999998,
          "velocity": 0.6692913385826772,
          "duration": 0.19999999999998863
        },
        {
          "name": "F5",
          "midi": 77,
          "time": 147.1999999999998,
          "velocity": 0.6692913385826772,
          "duration": 0.5999999999999943
        },
        {
          "name": "A5",
          "midi": 81,
          "time": 147.79999999999978,
          "velocity": 0.6692913385826772,
          "duration": 0.19999999999998863
        },
        {
          "name": "F5",
          "midi": 77,
          "time": 147.99999999999977,
          "velocity": 0.6692913385826772,
          "duration": 0.8000000000000114
        },
        {
          "name": "D6",
          "midi": 86,
          "time": 148.79999999999978,
          "velocity": 0.6692913385826772,
          "duration": 0.8000000000000114
        },
        {
          "name": "C6",
          "midi": 84,
          "time": 149.5999999999998,
          "velocity": 0.6692913385826772,
          "duration": 0.19999999999998863
        },
        {
          "name": "G5",
          "midi": 79,
          "time": 149.79999999999978,
          "velocity": 0.6692913385826772,
          "duration": 0.19999999999998863
        },
        {
          "name": "E5",
          "midi": 76,
          "time": 149.99999999999977,
          "velocity": 0.6692913385826772,
          "duration": 0.19999999999998863
        },
        {
          "name": "G5",
          "midi": 79,
          "time": 150.19999999999976,
          "velocity": 0.6692913385826772,
          "duration": 0.19999999999998863
        },
        {
          "name": "F5",
          "midi": 77,
          "time": 150.39999999999975,
          "velocity": 0.6692913385826772,
          "duration": 0.5999999999999943
        },
        {
          "name": "A5",
          "midi": 81,
          "time": 150.99999999999974,
          "velocity": 0.6692913385826772,
          "duration": 0.19999999999998863
        },
        {
          "name": "F5",
          "midi": 77,
          "time": 151.19999999999973,
          "velocity": 0.6692913385826772,
          "duration": 0.8000000000000114
        },
        {
          "name": "D6",
          "midi": 86,
          "time": 151.99999999999974,
          "velocity": 0.6692913385826772,
          "duration": 1.5999999999999943
        },
        {
          "name": "F5",
          "midi": 77,
          "time": 153.59999999999974,
          "velocity": 0.6692913385826772,
          "duration": 0.5999999999999943
        },
        {
          "name": "A5",
          "midi": 81,
          "time": 154.19999999999973,
          "velocity": 0.6692913385826772,
          "duration": 0.19999999999998863
        },
        {
          "name": "F5",
          "midi": 77,
          "time": 154.39999999999972,
          "velocity": 0.6692913385826772,
          "duration": 0.8000000000000114
        },
        {
          "name": "D6",
          "midi": 86,
          "time": 155.19999999999973,
          "velocity": 0.6692913385826772,
          "duration": 0.8000000000000114
        },
        {
          "name": "E6",
          "midi": 88,
          "time": 155.99999999999974,
          "velocity": 0.6692913385826772,
          "duration": 0.19999999999998863
        },
        {
          "name": "F6",
          "midi": 89,
          "time": 156.19999999999973,
          "velocity": 0.6692913385826772,
          "duration": 0.19999999999998863
        },
        {
          "name": "A6",
          "midi": 93,
          "time": 156.39999999999972,
          "velocity": 0.6692913385826772,
          "duration": 0.19999999999998863
        },
        {
          "name": "C6",
          "midi": 84,
          "time": 156.5999999999997,
          "velocity": 0.6692913385826772,
          "duration": 0.19999999999998863
        },
        {
          "name": "D6",
          "midi": 86,
          "time": 156.7999999999997,
          "velocity": 0.6692913385826772,
          "duration": 0.5999999999999943
        },
        {
          "name": "A6",
          "midi": 93,
          "time": 157.3999999999997,
          "velocity": 0.6692913385826772,
          "duration": 0.19999999999998863
        },
        {
          "name": "D6",
          "midi": 86,
          "time": 157.59999999999968,
          "velocity": 0.6692913385826772,
          "duration": 0.8000000000000114
        }
      ],
      "controlChanges": {},
      "id": 3,
      "name": "Flute",
      "instrumentNumber": 73,
      "instrument": "flute",
      "instrumentFamily": "pipe",
      "channelNumber": 3,
      "isPercussion": false
    },
    {
      "startTime": 0,
      "duration": 197.99999999999568,
      "length": 1602,
      "notes": [
        {
          "name": "D#5",
          "midi": 75,
          "time": 0,
          "velocity": 0.3937007874015748,
          "duration": 0.1
        },
        {
          "name": "F#4",
          "midi": 66,
          "time": 0,
          "velocity": 0.3937007874015748,
          "duration": 0.1
        },
        {
          "name": "D#5",
          "midi": 75,
          "time": 0.4,
          "velocity": 0.3937007874015748,
          "duration": 0.09999999999999998
        },
        {
          "name": "F#4",
          "midi": 66,
          "time": 0.4,
          "velocity": 0.3937007874015748,
          "duration": 0.09999999999999998
        },
        {
          "name": "D#5",
          "midi": 75,
          "time": 0.8,
          "velocity": 0.3937007874015748,
          "duration": 0.09999999999999998
        },
        {
          "name": "F#4",
          "midi": 66,
          "time": 0.8,
          "velocity": 0.3937007874015748,
          "duration": 0.09999999999999998
        },
        {
          "name": "D#5",
          "midi": 75,
          "time": 1.1,
          "velocity": 0.3937007874015748,
          "duration": 0.10000000000000009
        },
        {
          "name": "F#4",
          "midi": 66,
          "time": 1.1,
          "velocity": 0.3937007874015748,
          "duration": 0.10000000000000009
        },
        {
          "name": "D#5",
          "midi": 75,
          "time": 1.4000000000000001,
          "velocity": 0.3937007874015748,
          "duration": 0.10000000000000009
        },
        {
          "name": "F#4",
          "midi": 66,
          "time": 1.4000000000000001,
          "velocity": 0.3937007874015748,
          "duration": 0.10000000000000009
        },
        {
          "name": "C#5",
          "midi": 73,
          "time": 1.8000000000000003,
          "velocity": 0.3937007874015748,
          "duration": 0.10000000000000009
        },
        {
          "name": "F4",
          "midi": 65,
          "time": 1.8000000000000003,
          "velocity": 0.3937007874015748,
          "duration": 0.10000000000000009
        },
        {
          "name": "C#5",
          "midi": 73,
          "time": 2.0000000000000004,
          "velocity": 0.3937007874015748,
          "duration": 0.10000000000000009
        },
        {
          "name": "F4",
          "midi": 65,
          "time": 2.0000000000000004,
          "velocity": 0.3937007874015748,
          "duration": 0.10000000000000009
        },
        {
          "name": "C#5",
          "midi": 73,
          "time": 2.4000000000000004,
          "velocity": 0.3937007874015748,
          "duration": 0.10000000000000009
        },
        {
          "name": "F4",
          "midi": 65,
          "time": 2.4000000000000004,
          "velocity": 0.3937007874015748,
          "duration": 0.10000000000000009
        },
        {
          "name": "C#5",
          "midi": 73,
          "time": 2.7000000000000006,
          "velocity": 0.3937007874015748,
          "duration": 0.10000000000000009
        },
        {
          "name": "F4",
          "midi": 65,
          "time": 2.7000000000000006,
          "velocity": 0.3937007874015748,
          "duration": 0.10000000000000009
        },
        {
          "name": "A#4",
          "midi": 70,
          "time": 3.000000000000001,
          "velocity": 0.3937007874015748,
          "duration": 0.10000000000000009
        },
        {
          "name": "F#4",
          "midi": 66,
          "time": 3.000000000000001,
          "velocity": 0.3937007874015748,
          "duration": 0.10000000000000009
        },
        {
          "name": "A#4",
          "midi": 70,
          "time": 3.600000000000001,
          "velocity": 0.3937007874015748,
          "duration": 0.10000000000000009
        },
        {
          "name": "F#4",
          "midi": 66,
          "time": 3.600000000000001,
          "velocity": 0.3937007874015748,
          "duration": 0.10000000000000009
        },
        {
          "name": "A#4",
          "midi": 70,
          "time": 4.000000000000001,
          "velocity": 0.3937007874015748,
          "duration": 0.09999999999999964
        },
        {
          "name": "F#4",
          "midi": 66,
          "time": 4.000000000000001,
          "velocity": 0.3937007874015748,
          "duration": 0.09999999999999964
        },
        {
          "name": "A#4",
          "midi": 70,
          "time": 4.300000000000001,
          "velocity": 0.3937007874015748,
          "duration": 0.09999999999999964
        },
        {
          "name": "F#4",
          "midi": 66,
          "time": 4.300000000000001,
          "velocity": 0.3937007874015748,
          "duration": 0.09999999999999964
        },
        {
          "name": "A#4",
          "midi": 70,
          "time": 4.6000000000000005,
          "velocity": 0.3937007874015748,
          "duration": 0.09999999999999964
        },
        {
          "name": "F#4",
          "midi": 66,
          "time": 4.6000000000000005,
          "velocity": 0.3937007874015748,
          "duration": 0.09999999999999964
        },
        {
          "name": "A#4",
          "midi": 70,
          "time": 5.2,
          "velocity": 0.3937007874015748,
          "duration": 0.09999999999999964
        },
        {
          "name": "F#4",
          "midi": 66,
          "time": 5.2,
          "velocity": 0.3937007874015748,
          "duration": 0.09999999999999964
        },
        {
          "name": "A#4",
          "midi": 70,
          "time": 5.6,
          "velocity": 0.3937007874015748,
          "duration": 0.09999999999999964
        },
        {
          "name": "F#4",
          "midi": 66,
          "time": 5.6,
          "velocity": 0.3937007874015748,
          "duration": 0.09999999999999964
        },
        {
          "name": "A#4",
          "midi": 70,
          "time": 5.8999999999999995,
          "velocity": 0.3937007874015748,
          "duration": 0.09999999999999964
        },
        {
          "name": "F#4",
          "midi": 66,
          "time": 5.8999999999999995,
          "velocity": 0.3937007874015748,
          "duration": 0.09999999999999964
        },
        {
          "name": "C#5",
          "midi": 73,
          "time": 6.199999999999999,
          "velocity": 0.3937007874015748,
          "duration": 0.09999999999999964
        },
        {
          "name": "F#4",
          "midi": 66,
          "time": 6.199999999999999,
          "velocity": 0.3937007874015748,
          "duration": 0.09999999999999964
        },
        {
          "name": "D#5",
          "midi": 75,
          "time": 6.399999999999999,
          "velocity": 0.3937007874015748,
          "duration": 0.09999999999999964
        },
        {
          "name": "F#4",
          "midi": 66,
          "time": 6.399999999999999,
          "velocity": 0.3937007874015748,
          "duration": 0.09999999999999964
        },
        {
          "name": "D#5",
          "midi": 75,
          "time": 6.799999999999998,
          "velocity": 0.3937007874015748,
          "duration": 0.09999999999999964
        },
        {
          "name": "F#4",
          "midi": 66,
          "time": 6.799999999999998,
          "velocity": 0.3937007874015748,
          "duration": 0.09999999999999964
        },
        {
          "name": "D#5",
          "midi": 75,
          "time": 7.1999999999999975,
          "velocity": 0.3937007874015748,
          "duration": 0.09999999999999964
        },
        {
          "name": "F#4",
          "midi": 66,
          "time": 7.1999999999999975,
          "velocity": 0.3937007874015748,
          "duration": 0.09999999999999964
        },
        {
          "name": "D#5",
          "midi": 75,
          "time": 7.499999999999997,
          "velocity": 0.3937007874015748,
          "duration": 0.09999999999999964
        },
        {
          "name": "F#4",
          "midi": 66,
          "time": 7.499999999999997,
          "velocity": 0.3937007874015748,
          "duration": 0.09999999999999964
        },
        {
          "name": "D#5",
          "midi": 75,
          "time": 7.799999999999997,
          "velocity": 0.3937007874015748,
          "duration": 0.09999999999999964
        },
        {
          "name": "F#4",
          "midi": 66,
          "time": 7.799999999999997,
          "velocity": 0.3937007874015748,
          "duration": 0.09999999999999964
        },
        {
          "name": "F5",
          "midi": 77,
          "time": 8.199999999999998,
          "velocity": 0.3937007874015748,
          "duration": 0.09999999999999964
        },
        {
          "name": "G#4",
          "midi": 68,
          "time": 8.199999999999998,
          "velocity": 0.3937007874015748,
          "duration": 0.09999999999999964
        },
        {
          "name": "F5",
          "midi": 77,
          "time": 8.399999999999997,
          "velocity": 0.3937007874015748,
          "duration": 0.09999999999999964
        },
        {
          "name": "G#4",
          "midi": 68,
          "time": 8.399999999999997,
          "velocity": 0.3937007874015748,
          "duration": 0.09999999999999964
        },
        {
          "name": "F5",
          "midi": 77,
          "time": 8.799999999999997,
          "velocity": 0.3937007874015748,
          "duration": 0.09999999999999964
        },
        {
          "name": "G#4",
          "midi": 68,
          "time": 8.799999999999997,
          "velocity": 0.3937007874015748,
          "duration": 0.09999999999999964
        },
        {
          "name": "F5",
          "midi": 77,
          "time": 9.099999999999996,
          "velocity": 0.3937007874015748,
          "duration": 0.09999999999999964
        },
        {
          "name": "G#4",
          "midi": 68,
          "time": 9.099999999999996,
          "velocity": 0.3937007874015748,
          "duration": 0.09999999999999964
        },
        {
          "name": "D#5",
          "midi": 75,
          "time": 9.399999999999995,
          "velocity": 0.3937007874015748,
          "duration": 0.09999999999999964
        },
        {
          "name": "F#4",
          "midi": 66,
          "time": 9.399999999999995,
          "velocity": 0.3937007874015748,
          "duration": 0.09999999999999964
        },
        {
          "name": "D#5",
          "midi": 75,
          "time": 9.999999999999995,
          "velocity": 0.3937007874015748,
          "duration": 0.09999999999999964
        },
        {
          "name": "F#4",
          "midi": 66,
          "time": 9.999999999999995,
          "velocity": 0.3937007874015748,
          "duration": 0.09999999999999964
        },
        {
          "name": "D#5",
          "midi": 75,
          "time": 10.399999999999995,
          "velocity": 0.3937007874015748,
          "duration": 0.09999999999999964
        },
        {
          "name": "F#4",
          "midi": 66,
          "time": 10.399999999999995,
          "velocity": 0.3937007874015748,
          "duration": 0.09999999999999964
        },
        {
          "name": "D#5",
          "midi": 75,
          "time": 10.699999999999994,
          "velocity": 0.3937007874015748,
          "duration": 0.09999999999999964
        },
        {
          "name": "F#4",
          "midi": 66,
          "time": 10.699999999999994,
          "velocity": 0.3937007874015748,
          "duration": 0.09999999999999964
        },
        {
          "name": "D#5",
          "midi": 75,
          "time": 10.999999999999993,
          "velocity": 0.3937007874015748,
          "duration": 0.09999999999999964
        },
        {
          "name": "F#4",
          "midi": 66,
          "time": 10.999999999999993,
          "velocity": 0.3937007874015748,
          "duration": 0.09999999999999964
        },
        {
          "name": "D#5",
          "midi": 75,
          "time": 11.399999999999993,
          "velocity": 0.3937007874015748,
          "duration": 0.09999999999999964
        },
        {
          "name": "F#4",
          "midi": 66,
          "time": 11.399999999999993,
          "velocity": 0.3937007874015748,
          "duration": 0.09999999999999964
        },
        {
          "name": "D#5",
          "midi": 75,
          "time": 11.599999999999993,
          "velocity": 0.3937007874015748,
          "duration": 0.09999999999999964
        },
        {
          "name": "F#4",
          "midi": 66,
          "time": 11.599999999999993,
          "velocity": 0.3937007874015748,
          "duration": 0.09999999999999964
        },
        {
          "name": "D#5",
          "midi": 75,
          "time": 11.999999999999993,
          "velocity": 0.3937007874015748,
          "duration": 0.09999999999999964
        },
        {
          "name": "F#4",
          "midi": 66,
          "time": 11.999999999999993,
          "velocity": 0.3937007874015748,
          "duration": 0.09999999999999964
        },
        {
          "name": "D#5",
          "midi": 75,
          "time": 12.299999999999992,
          "velocity": 0.3937007874015748,
          "duration": 0.09999999999999964
        },
        {
          "name": "F#4",
          "midi": 66,
          "time": 12.299999999999992,
          "velocity": 0.3937007874015748,
          "duration": 0.09999999999999964
        },
        {
          "name": "D#5",
          "midi": 75,
          "time": 12.59999999999999,
          "velocity": 0.3937007874015748,
          "duration": 0.09999999999999964
        },
        {
          "name": "F#4",
          "midi": 66,
          "time": 12.59999999999999,
          "velocity": 0.3937007874015748,
          "duration": 0.09999999999999964
        },
        {
          "name": "D#5",
          "midi": 75,
          "time": 12.79999999999999,
          "velocity": 0.3937007874015748,
          "duration": 0.09999999999999964
        },
        {
          "name": "F#4",
          "midi": 66,
          "time": 12.79999999999999,
          "velocity": 0.3937007874015748,
          "duration": 0.09999999999999964
        },
        {
          "name": "D#5",
          "midi": 75,
          "time": 13.19999999999999,
          "velocity": 0.3937007874015748,
          "duration": 0.09999999999999964
        },
        {
          "name": "F#4",
          "midi": 66,
          "time": 13.19999999999999,
          "velocity": 0.3937007874015748,
          "duration": 0.09999999999999964
        },
        {
          "name": "D#5",
          "midi": 75,
          "time": 13.59999999999999,
          "velocity": 0.3937007874015748,
          "duration": 0.09999999999999964
        },
        {
          "name": "F#4",
          "midi": 66,
          "time": 13.59999999999999,
          "velocity": 0.3937007874015748,
          "duration": 0.09999999999999964
        },
        {
          "name": "D#5",
          "midi": 75,
          "time": 13.89999999999999,
          "velocity": 0.3937007874015748,
          "duration": 0.09999999999999964
        },
        {
          "name": "F#4",
          "midi": 66,
          "time": 13.89999999999999,
          "velocity": 0.3937007874015748,
          "duration": 0.09999999999999964
        },
        {
          "name": "D#5",
          "midi": 75,
          "time": 14.199999999999989,
          "velocity": 0.3937007874015748,
          "duration": 0.09999999999999964
        },
        {
          "name": "F#4",
          "midi": 66,
          "time": 14.199999999999989,
          "velocity": 0.3937007874015748,
          "duration": 0.09999999999999964
        },
        {
          "name": "C#5",
          "midi": 73,
          "time": 14.599999999999989,
          "velocity": 0.3937007874015748,
          "duration": 0.09999999999999964
        },
        {
          "name": "F4",
          "midi": 65,
          "time": 14.599999999999989,
          "velocity": 0.3937007874015748,
          "duration": 0.09999999999999964
        },
        {
          "name": "C#5",
          "midi": 73,
          "time": 14.799999999999988,
          "velocity": 0.3937007874015748,
          "duration": 0.09999999999999964
        },
        {
          "name": "F4",
          "midi": 65,
          "time": 14.799999999999988,
          "velocity": 0.3937007874015748,
          "duration": 0.09999999999999964
        },
        {
          "name": "C#5",
          "midi": 73,
          "time": 15.199999999999989,
          "velocity": 0.3937007874015748,
          "duration": 0.09999999999999964
        },
        {
          "name": "F4",
          "midi": 65,
          "time": 15.199999999999989,
          "velocity": 0.3937007874015748,
          "duration": 0.09999999999999964
        },
        {
          "name": "C#5",
          "midi": 73,
          "time": 15.499999999999988,
          "velocity": 0.3937007874015748,
          "duration": 0.09999999999999964
        },
        {
          "name": "F4",
          "midi": 65,
          "time": 15.499999999999988,
          "velocity": 0.3937007874015748,
          "duration": 0.09999999999999964
        },
        {
          "name": "A#4",
          "midi": 70,
          "time": 15.799999999999986,
          "velocity": 0.3937007874015748,
          "duration": 0.09999999999999964
        },
        {
          "name": "F#4",
          "midi": 66,
          "time": 15.799999999999986,
          "velocity": 0.3937007874015748,
          "duration": 0.09999999999999964
        },
        {
          "name": "A#4",
          "midi": 70,
          "time": 16.399999999999984,
          "velocity": 0.3937007874015748,
          "duration": 0.10000000000000142
        },
        {
          "name": "F#4",
          "midi": 66,
          "time": 16.399999999999984,
          "velocity": 0.3937007874015748,
          "duration": 0.10000000000000142
        },
        {
          "name": "A#4",
          "midi": 70,
          "time": 16.799999999999986,
          "velocity": 0.3937007874015748,
          "duration": 0.10000000000000142
        },
        {
          "name": "F#4",
          "midi": 66,
          "time": 16.799999999999986,
          "velocity": 0.3937007874015748,
          "duration": 0.10000000000000142
        },
        {
          "name": "A#4",
          "midi": 70,
          "time": 17.099999999999987,
          "velocity": 0.3937007874015748,
          "duration": 0.10000000000000142
        },
        {
          "name": "F#4",
          "midi": 66,
          "time": 17.099999999999987,
          "velocity": 0.3937007874015748,
          "duration": 0.10000000000000142
        },
        {
          "name": "A#4",
          "midi": 70,
          "time": 17.399999999999988,
          "velocity": 0.3937007874015748,
          "duration": 0.10000000000000142
        },
        {
          "name": "F#4",
          "midi": 66,
          "time": 17.399999999999988,
          "velocity": 0.3937007874015748,
          "duration": 0.10000000000000142
        },
        {
          "name": "A#4",
          "midi": 70,
          "time": 17.99999999999999,
          "velocity": 0.3937007874015748,
          "duration": 0.10000000000000142
        },
        {
          "name": "F#4",
          "midi": 66,
          "time": 17.99999999999999,
          "velocity": 0.3937007874015748,
          "duration": 0.10000000000000142
        },
        {
          "name": "A#4",
          "midi": 70,
          "time": 18.39999999999999,
          "velocity": 0.3937007874015748,
          "duration": 0.10000000000000142
        },
        {
          "name": "F#4",
          "midi": 66,
          "time": 18.39999999999999,
          "velocity": 0.3937007874015748,
          "duration": 0.10000000000000142
        },
        {
          "name": "A#4",
          "midi": 70,
          "time": 18.699999999999992,
          "velocity": 0.3937007874015748,
          "duration": 0.10000000000000142
        },
        {
          "name": "F#4",
          "midi": 66,
          "time": 18.699999999999992,
          "velocity": 0.3937007874015748,
          "duration": 0.10000000000000142
        },
        {
          "name": "C#5",
          "midi": 73,
          "time": 18.999999999999993,
          "velocity": 0.3937007874015748,
          "duration": 0.10000000000000142
        },
        {
          "name": "F#4",
          "midi": 66,
          "time": 18.999999999999993,
          "velocity": 0.3937007874015748,
          "duration": 0.10000000000000142
        },
        {
          "name": "D#5",
          "midi": 75,
          "time": 19.199999999999996,
          "velocity": 0.3937007874015748,
          "duration": 0.10000000000000142
        },
        {
          "name": "F#4",
          "midi": 66,
          "time": 19.199999999999996,
          "velocity": 0.3937007874015748,
          "duration": 0.10000000000000142
        },
        {
          "name": "D#5",
          "midi": 75,
          "time": 19.599999999999998,
          "velocity": 0.3937007874015748,
          "duration": 0.10000000000000142
        },
        {
          "name": "F#4",
          "midi": 66,
          "time": 19.599999999999998,
          "velocity": 0.3937007874015748,
          "duration": 0.10000000000000142
        },
        {
          "name": "D#5",
          "midi": 75,
          "time": 20,
          "velocity": 0.3937007874015748,
          "duration": 0.10000000000000142
        },
        {
          "name": "F#4",
          "midi": 66,
          "time": 20,
          "velocity": 0.3937007874015748,
          "duration": 0.10000000000000142
        },
        {
          "name": "D#5",
          "midi": 75,
          "time": 20.3,
          "velocity": 0.3937007874015748,
          "duration": 0.10000000000000142
        },
        {
          "name": "F#4",
          "midi": 66,
          "time": 20.3,
          "velocity": 0.3937007874015748,
          "duration": 0.10000000000000142
        },
        {
          "name": "D#5",
          "midi": 75,
          "time": 20.6,
          "velocity": 0.3937007874015748,
          "duration": 0.10000000000000142
        },
        {
          "name": "F#4",
          "midi": 66,
          "time": 20.6,
          "velocity": 0.3937007874015748,
          "duration": 0.10000000000000142
        },
        {
          "name": "F5",
          "midi": 77,
          "time": 21.000000000000004,
          "velocity": 0.3937007874015748,
          "duration": 0.10000000000000142
        },
        {
          "name": "G#4",
          "midi": 68,
          "time": 21.000000000000004,
          "velocity": 0.3937007874015748,
          "duration": 0.10000000000000142
        },
        {
          "name": "F5",
          "midi": 77,
          "time": 21.200000000000006,
          "velocity": 0.3937007874015748,
          "duration": 0.10000000000000142
        },
        {
          "name": "G#4",
          "midi": 68,
          "time": 21.200000000000006,
          "velocity": 0.3937007874015748,
          "duration": 0.10000000000000142
        },
        {
          "name": "F5",
          "midi": 77,
          "time": 21.60000000000001,
          "velocity": 0.3937007874015748,
          "duration": 0.10000000000000142
        },
        {
          "name": "G#4",
          "midi": 68,
          "time": 21.60000000000001,
          "velocity": 0.3937007874015748,
          "duration": 0.10000000000000142
        },
        {
          "name": "F5",
          "midi": 77,
          "time": 21.90000000000001,
          "velocity": 0.3937007874015748,
          "duration": 0.10000000000000142
        },
        {
          "name": "G#4",
          "midi": 68,
          "time": 21.90000000000001,
          "velocity": 0.3937007874015748,
          "duration": 0.10000000000000142
        },
        {
          "name": "D#5",
          "midi": 75,
          "time": 22.20000000000001,
          "velocity": 0.3937007874015748,
          "duration": 0.10000000000000142
        },
        {
          "name": "F#4",
          "midi": 66,
          "time": 22.20000000000001,
          "velocity": 0.3937007874015748,
          "duration": 0.10000000000000142
        },
        {
          "name": "D#5",
          "midi": 75,
          "time": 22.80000000000001,
          "velocity": 0.3937007874015748,
          "duration": 0.10000000000000142
        },
        {
          "name": "F#4",
          "midi": 66,
          "time": 22.80000000000001,
          "velocity": 0.3937007874015748,
          "duration": 0.10000000000000142
        },
        {
          "name": "D#5",
          "midi": 75,
          "time": 23.200000000000014,
          "velocity": 0.3937007874015748,
          "duration": 0.10000000000000142
        },
        {
          "name": "F#4",
          "midi": 66,
          "time": 23.200000000000014,
          "velocity": 0.3937007874015748,
          "duration": 0.10000000000000142
        },
        {
          "name": "D#5",
          "midi": 75,
          "time": 23.500000000000014,
          "velocity": 0.3937007874015748,
          "duration": 0.10000000000000142
        },
        {
          "name": "F#4",
          "midi": 66,
          "time": 23.500000000000014,
          "velocity": 0.3937007874015748,
          "duration": 0.10000000000000142
        },
        {
          "name": "D#5",
          "midi": 75,
          "time": 23.800000000000015,
          "velocity": 0.3937007874015748,
          "duration": 0.10000000000000142
        },
        {
          "name": "F#4",
          "midi": 66,
          "time": 23.800000000000015,
          "velocity": 0.3937007874015748,
          "duration": 0.10000000000000142
        },
        {
          "name": "D#5",
          "midi": 75,
          "time": 24.200000000000017,
          "velocity": 0.3937007874015748,
          "duration": 0.10000000000000142
        },
        {
          "name": "F#4",
          "midi": 66,
          "time": 24.200000000000017,
          "velocity": 0.3937007874015748,
          "duration": 0.10000000000000142
        },
        {
          "name": "D#5",
          "midi": 75,
          "time": 24.40000000000002,
          "velocity": 0.3937007874015748,
          "duration": 0.10000000000000142
        },
        {
          "name": "F#4",
          "midi": 66,
          "time": 24.40000000000002,
          "velocity": 0.3937007874015748,
          "duration": 0.10000000000000142
        },
        {
          "name": "D#5",
          "midi": 75,
          "time": 24.800000000000022,
          "velocity": 0.3937007874015748,
          "duration": 0.10000000000000142
        },
        {
          "name": "F#4",
          "midi": 66,
          "time": 24.800000000000022,
          "velocity": 0.3937007874015748,
          "duration": 0.10000000000000142
        },
        {
          "name": "D#5",
          "midi": 75,
          "time": 25.100000000000023,
          "velocity": 0.3937007874015748,
          "duration": 0.10000000000000142
        },
        {
          "name": "F#4",
          "midi": 66,
          "time": 25.100000000000023,
          "velocity": 0.3937007874015748,
          "duration": 0.10000000000000142
        },
        {
          "name": "D#5",
          "midi": 75,
          "time": 25.400000000000023,
          "velocity": 0.3937007874015748,
          "duration": 0.10000000000000142
        },
        {
          "name": "F#4",
          "midi": 66,
          "time": 25.400000000000023,
          "velocity": 0.3937007874015748,
          "duration": 0.10000000000000142
        },
        {
          "name": "F#4",
          "midi": 66,
          "time": 31.600000000000026,
          "velocity": 0.3937007874015748,
          "duration": 0.10000000000000142
        },
        {
          "name": "F#3",
          "midi": 54,
          "time": 31.600000000000026,
          "velocity": 0.3937007874015748,
          "duration": 0.10000000000000142
        },
        {
          "name": "G#4",
          "midi": 68,
          "time": 31.80000000000003,
          "velocity": 0.3937007874015748,
          "duration": 0.10000000000000142
        },
        {
          "name": "F4",
          "midi": 65,
          "time": 31.80000000000003,
          "velocity": 0.3937007874015748,
          "duration": 0.10000000000000142
        },
        {
          "name": "F3",
          "midi": 53,
          "time": 31.80000000000003,
          "velocity": 0.3937007874015748,
          "duration": 0.10000000000000142
        },
        {
          "name": "G#3",
          "midi": 56,
          "time": 31.80000000000003,
          "velocity": 0.3937007874015748,
          "duration": 0.10000000000000142
        },
        {
          "name": "F#4",
          "midi": 66,
          "time": 32.00000000000003,
          "velocity": 0.3937007874015748,
          "duration": 0.10000000000000142
        },
        {
          "name": "A#4",
          "midi": 70,
          "time": 32.00000000000003,
          "velocity": 0.3937007874015748,
          "duration": 0.10000000000000142
        },
        {
          "name": "F#3",
          "midi": 54,
          "time": 32.00000000000003,
          "velocity": 0.3937007874015748,
          "duration": 0.10000000000000142
        },
        {
          "name": "A#3",
          "midi": 58,
          "time": 32.00000000000003,
          "velocity": 0.3937007874015748,
          "duration": 0.10000000000000142
        },
        {
          "name": "D#5",
          "midi": 75,
          "time": 32.60000000000003,
          "velocity": 0.3937007874015748,
          "duration": 0.10000000000000142
        },
        {
          "name": "A#4",
          "midi": 70,
          "time": 32.60000000000003,
          "velocity": 0.3937007874015748,
          "duration": 0.10000000000000142
        },
        {
          "name": "A#3",
          "midi": 58,
          "time": 32.60000000000003,
          "velocity": 0.3937007874015748,
          "duration": 0.10000000000000142
        },
        {
          "name": "D#4",
          "midi": 63,
          "time": 32.60000000000003,
          "velocity": 0.3937007874015748,
          "duration": 0.10000000000000142
        },
        {
          "name": "A#3",
          "midi": 58,
          "time": 32.80000000000003,
          "velocity": 0.3937007874015748,
          "duration": 0.10000000000000142
        },
        {
          "name": "F#3",
          "midi": 54,
          "time": 32.80000000000003,
          "velocity": 0.3937007874015748,
          "duration": 0.10000000000000142
        },
        {
          "name": "F#4",
          "midi": 66,
          "time": 32.80000000000003,
          "velocity": 0.3937007874015748,
          "duration": 0.10000000000000142
        },
        {
          "name": "A#4",
          "midi": 70,
          "time": 32.80000000000003,
          "velocity": 0.3937007874015748,
          "duration": 0.10000000000000142
        },
        {
          "name": "A#3",
          "midi": 58,
          "time": 33.60000000000004,
          "velocity": 0.3937007874015748,
          "duration": 0.10000000000000142
        },
        {
          "name": "F#4",
          "midi": 66,
          "time": 33.60000000000004,
          "velocity": 0.3937007874015748,
          "duration": 0.10000000000000142
        },
        {
          "name": "A#4",
          "midi": 70,
          "time": 33.60000000000004,
          "velocity": 0.3937007874015748,
          "duration": 0.10000000000000142
        },
        {
          "name": "F#5",
          "midi": 78,
          "time": 33.60000000000004,
          "velocity": 0.3937007874015748,
          "duration": 0.10000000000000142
        },
        {
          "name": "C#4",
          "midi": 61,
          "time": 34.20000000000004,
          "velocity": 0.3937007874015748,
          "duration": 0.10000000000000142
        },
        {
          "name": "C#5",
          "midi": 73,
          "time": 34.20000000000004,
          "velocity": 0.3937007874015748,
          "duration": 0.10000000000000142
        },
        {
          "name": "D#4",
          "midi": 63,
          "time": 34.30000000000004,
          "velocity": 0.3937007874015748,
          "duration": 0.10000000000000142
        },
        {
          "name": "D#5",
          "midi": 75,
          "time": 34.30000000000004,
          "velocity": 0.3937007874015748,
          "duration": 0.10000000000000142
        },
        {
          "name": "F4",
          "midi": 65,
          "time": 34.40000000000004,
          "velocity": 0.3937007874015748,
          "duration": 0.10000000000000142
        },
        {
          "name": "G#4",
          "midi": 68,
          "time": 34.40000000000004,
          "velocity": 0.3937007874015748,
          "duration": 0.10000000000000142
        },
        {
          "name": "F5",
          "midi": 77,
          "time": 34.40000000000004,
          "velocity": 0.3937007874015748,
          "duration": 0.10000000000000142
        },
        {
          "name": "G#3",
          "midi": 56,
          "time": 34.40000000000004,
          "velocity": 0.3937007874015748,
          "duration": 0.10000000000000142
        },
        {
          "name": "F#5",
          "midi": 78,
          "time": 34.600000000000044,
          "velocity": 0.3937007874015748,
          "duration": 0.10000000000000142
        },
        {
          "name": "F#4",
          "midi": 66,
          "time": 34.600000000000044,
          "velocity": 0.3937007874015748,
          "duration": 0.10000000000000142
        },
        {
          "name": "G#3",
          "midi": 56,
          "time": 34.600000000000044,
          "velocity": 0.3937007874015748,
          "duration": 0.10000000000000142
        },
        {
          "name": "G#4",
          "midi": 68,
          "time": 34.600000000000044,
          "velocity": 0.3937007874015748,
          "duration": 0.10000000000000142
        },
        {
          "name": "F3",
          "midi": 53,
          "time": 34.80000000000005,
          "velocity": 0.3937007874015748,
          "duration": 0.10000000000000142
        },
        {
          "name": "F4",
          "midi": 65,
          "time": 34.80000000000005,
          "velocity": 0.3937007874015748,
          "duration": 0.10000000000000142
        },
        {
          "name": "C#5",
          "midi": 73,
          "time": 34.80000000000005,
          "velocity": 0.3937007874015748,
          "duration": 0.10000000000000142
        },
        {
          "name": "C#4",
          "midi": 61,
          "time": 34.80000000000005,
          "velocity": 0.3937007874015748,
          "duration": 0.10000000000000142
        },
        {
          "name": "F4",
          "midi": 65,
          "time": 35.00000000000005,
          "velocity": 0.3937007874015748,
          "duration": 0.10000000000000142
        },
        {
          "name": "F5",
          "midi": 77,
          "time": 35.00000000000005,
          "velocity": 0.3937007874015748,
          "duration": 0.10000000000000142
        },
        {
          "name": "C#4",
          "midi": 61,
          "time": 35.00000000000005,
          "velocity": 0.3937007874015748,
          "duration": 0.10000000000000142
        },
        {
          "name": "C#5",
          "midi": 73,
          "time": 35.00000000000005,
          "velocity": 0.3937007874015748,
          "duration": 0.10000000000000142
        },
        {
          "name": "F#4",
          "midi": 66,
          "time": 35.20000000000005,
          "velocity": 0.3937007874015748,
          "duration": 0.10000000000000142
        },
        {
          "name": "A#4",
          "midi": 70,
          "time": 35.20000000000005,
          "velocity": 0.3937007874015748,
          "duration": 0.10000000000000142
        },
        {
          "name": "A#3",
          "midi": 58,
          "time": 35.20000000000005,
          "velocity": 0.3937007874015748,
          "duration": 0.10000000000000142
        },
        {
          "name": "F#3",
          "midi": 54,
          "time": 35.20000000000005,
          "velocity": 0.3937007874015748,
          "duration": 0.10000000000000142
        },
        {
          "name": "A#4",
          "midi": 70,
          "time": 35.800000000000054,
          "velocity": 0.3937007874015748,
          "duration": 0.10000000000000142
        },
        {
          "name": "D#5",
          "midi": 75,
          "time": 35.800000000000054,
          "velocity": 0.3937007874015748,
          "duration": 0.10000000000000142
        },
        {
          "name": "A#3",
          "midi": 58,
          "time": 35.800000000000054,
          "velocity": 0.3937007874015748,
          "duration": 0.10000000000000142
        },
        {
          "name": "D#4",
          "midi": 63,
          "time": 35.800000000000054,
          "velocity": 0.3937007874015748,
          "duration": 0.10000000000000142
        },
        {
          "name": "A#4",
          "midi": 70,
          "time": 36.00000000000006,
          "velocity": 0.3937007874015748,
          "duration": 0.10000000000000142
        },
        {
          "name": "F#4",
          "midi": 66,
          "time": 36.00000000000006,
          "velocity": 0.3937007874015748,
          "duration": 0.10000000000000142
        },
        {
          "name": "F#3",
          "midi": 54,
          "time": 36.00000000000006,
          "velocity": 0.3937007874015748,
          "duration": 0.10000000000000142
        },
        {
          "name": "A#3",
          "midi": 58,
          "time": 36.00000000000006,
          "velocity": 0.3937007874015748,
          "duration": 0.10000000000000142
        },
        {
          "name": "F#3",
          "midi": 54,
          "time": 36.80000000000006,
          "velocity": 0.3937007874015748,
          "duration": 0.10000000000000142
        },
        {
          "name": "C#4",
          "midi": 61,
          "time": 36.80000000000006,
          "velocity": 0.3937007874015748,
          "duration": 0.10000000000000142
        },
        {
          "name": "F#4",
          "midi": 66,
          "time": 36.80000000000006,
          "velocity": 0.3937007874015748,
          "duration": 0.10000000000000142
        },
        {
          "name": "C#5",
          "midi": 73,
          "time": 36.80000000000006,
          "velocity": 0.3937007874015748,
          "duration": 0.10000000000000142
        },
        {
          "name": "F#5",
          "midi": 78,
          "time": 36.80000000000006,
          "velocity": 0.3937007874015748,
          "duration": 0.10000000000000142
        },
        {
          "name": "A#4",
          "midi": 70,
          "time": 37.000000000000064,
          "velocity": 0.3937007874015748,
          "duration": 0.10000000000000142
        },
        {
          "name": "F4",
          "midi": 65,
          "time": 37.100000000000065,
          "velocity": 0.3937007874015748,
          "duration": 0.10000000000000142
        },
        {
          "name": "F#4",
          "midi": 66,
          "time": 37.20000000000007,
          "velocity": 0.3937007874015748,
          "duration": 0.10000000000000142
        },
        {
          "name": "G#4",
          "midi": 68,
          "time": 37.30000000000007,
          "velocity": 0.3937007874015748,
          "duration": 0.10000000000000142
        },
        {
          "name": "F4",
          "midi": 65,
          "time": 37.40000000000007,
          "velocity": 0.3937007874015748,
          "duration": 0.10000000000000142
        },
        {
          "name": "F#4",
          "midi": 66,
          "time": 37.50000000000007,
          "velocity": 0.3937007874015748,
          "duration": 0.10000000000000142
        },
        {
          "name": "D#4",
          "midi": 63,
          "time": 37.60000000000007,
          "velocity": 0.3937007874015748,
          "duration": 0.10000000000000142
        },
        {
          "name": "F4",
          "midi": 65,
          "time": 37.700000000000074,
          "velocity": 0.3937007874015748,
          "duration": 0.10000000000000142
        },
        {
          "name": "C#4",
          "midi": 61,
          "time": 37.800000000000075,
          "velocity": 0.3937007874015748,
          "duration": 0.10000000000000142
        },
        {
          "name": "D#4",
          "midi": 63,
          "time": 37.90000000000008,
          "velocity": 0.3937007874015748,
          "duration": 0.10000000000000142
        },
        {
          "name": "A#3",
          "midi": 58,
          "time": 38.00000000000008,
          "velocity": 0.3937007874015748,
          "duration": 0.10000000000000142
        },
        {
          "name": "C#4",
          "midi": 61,
          "time": 38.10000000000008,
          "velocity": 0.3937007874015748,
          "duration": 0.10000000000000142
        },
        {
          "name": "G#3",
          "midi": 56,
          "time": 38.20000000000008,
          "velocity": 0.3937007874015748,
          "duration": 0.10000000000000142
        },
        {
          "name": "A#3",
          "midi": 58,
          "time": 38.400000000000084,
          "velocity": 0.3937007874015748,
          "duration": 0.10000000000000142
        },
        {
          "name": "F#3",
          "midi": 54,
          "time": 38.400000000000084,
          "velocity": 0.3937007874015748,
          "duration": 0.10000000000000142
        },
        {
          "name": "F#4",
          "midi": 66,
          "time": 38.400000000000084,
          "velocity": 0.3937007874015748,
          "duration": 0.10000000000000142
        },
        {
          "name": "A#4",
          "midi": 70,
          "time": 38.400000000000084,
          "velocity": 0.3937007874015748,
          "duration": 0.10000000000000142
        },
        {
          "name": "A#3",
          "midi": 58,
          "time": 38.60000000000009,
          "velocity": 0.3937007874015748,
          "duration": 0.10000000000000142
        },
        {
          "name": "F4",
          "midi": 65,
          "time": 38.80000000000009,
          "velocity": 0.3937007874015748,
          "duration": 0.10000000000000142
        },
        {
          "name": "F#4",
          "midi": 66,
          "time": 38.90000000000009,
          "velocity": 0.3937007874015748,
          "duration": 0.10000000000000142
        },
        {
          "name": "A#3",
          "midi": 58,
          "time": 39.00000000000009,
          "velocity": 0.3937007874015748,
          "duration": 0.10000000000000142
        },
        {
          "name": "D#4",
          "midi": 63,
          "time": 39.00000000000009,
          "velocity": 0.3937007874015748,
          "duration": 0.10000000000000142
        },
        {
          "name": "A#4",
          "midi": 70,
          "time": 39.00000000000009,
          "velocity": 0.3937007874015748,
          "duration": 0.10000000000000142
        },
        {
          "name": "D#5",
          "midi": 75,
          "time": 39.00000000000009,
          "velocity": 0.3937007874015748,
          "duration": 0.10000000000000142
        },
        {
          "name": "A#3",
          "midi": 58,
          "time": 39.200000000000095,
          "velocity": 0.3937007874015748,
          "duration": 0.10000000000000142
        },
        {
          "name": "F#3",
          "midi": 54,
          "time": 39.200000000000095,
          "velocity": 0.3937007874015748,
          "duration": 0.10000000000000142
        },
        {
          "name": "F#4",
          "midi": 66,
          "time": 39.200000000000095,
          "velocity": 0.3937007874015748,
          "duration": 0.10000000000000142
        },
        {
          "name": "A#4",
          "midi": 70,
          "time": 39.200000000000095,
          "velocity": 0.3937007874015748,
          "duration": 0.10000000000000142
        },
        {
          "name": "D#5",
          "midi": 75,
          "time": 40.0000000000001,
          "velocity": 0.3937007874015748,
          "duration": 0.10000000000000142
        },
        {
          "name": "F#5",
          "midi": 78,
          "time": 40.0000000000001,
          "velocity": 0.3937007874015748,
          "duration": 0.10000000000000142
        },
        {
          "name": "F#4",
          "midi": 66,
          "time": 40.0000000000001,
          "velocity": 0.3937007874015748,
          "duration": 0.10000000000000142
        },
        {
          "name": "D#4",
          "midi": 63,
          "time": 40.0000000000001,
          "velocity": 0.3937007874015748,
          "duration": 0.10000000000000142
        },
        {
          "name": "F#4",
          "midi": 66,
          "time": 40.1000000000001,
          "velocity": 0.3937007874015748,
          "duration": 0.10000000000000142
        },
        {
          "name": "F5",
          "midi": 77,
          "time": 40.2000000000001,
          "velocity": 0.3937007874015748,
          "duration": 0.10000000000000142
        },
        {
          "name": "D#5",
          "midi": 75,
          "time": 40.300000000000104,
          "velocity": 0.3937007874015748,
          "duration": 0.10000000000000142
        },
        {
          "name": "C#5",
          "midi": 73,
          "time": 40.400000000000105,
          "velocity": 0.3937007874015748,
          "duration": 0.10000000000000142
        },
        {
          "name": "A#4",
          "midi": 70,
          "time": 40.50000000000011,
          "velocity": 0.3937007874015748,
          "duration": 0.10000000000000142
        },
        {
          "name": "C#5",
          "midi": 73,
          "time": 40.60000000000011,
          "velocity": 0.3937007874015748,
          "duration": 0.10000000000000142
        },
        {
          "name": "D#5",
          "midi": 75,
          "time": 40.70000000000011,
          "velocity": 0.3937007874015748,
          "duration": 0.10000000000000142
        },
        {
          "name": "F5",
          "midi": 77,
          "time": 40.80000000000011,
          "velocity": 0.3937007874015748,
          "duration": 0.10000000000000142
        },
        {
          "name": "F4",
          "midi": 65,
          "time": 40.80000000000011,
          "velocity": 0.3937007874015748,
          "duration": 0.10000000000000142
        },
        {
          "name": "G#4",
          "midi": 68,
          "time": 40.80000000000011,
          "velocity": 0.3937007874015748,
          "duration": 0.10000000000000142
        },
        {
          "name": "G#3",
          "midi": 56,
          "time": 40.80000000000011,
          "velocity": 0.3937007874015748,
          "duration": 0.10000000000000142
        },
        {
          "name": "F#5",
          "midi": 78,
          "time": 41.000000000000114,
          "velocity": 0.3937007874015748,
          "duration": 0.10000000000000142
        },
        {
          "name": "F#4",
          "midi": 66,
          "time": 41.000000000000114,
          "velocity": 0.3937007874015748,
          "duration": 0.10000000000000142
        },
        {
          "name": "G#4",
          "midi": 68,
          "time": 41.000000000000114,
          "velocity": 0.3937007874015748,
          "duration": 0.10000000000000142
        },
        {
          "name": "G#3",
          "midi": 56,
          "time": 41.000000000000114,
          "velocity": 0.3937007874015748,
          "duration": 0.10000000000000142
        },
        {
          "name": "F5",
          "midi": 77,
          "time": 41.20000000000012,
          "velocity": 0.3937007874015748,
          "duration": 0.10000000000000142
        },
        {
          "name": "F4",
          "midi": 65,
          "time": 41.20000000000012,
          "velocity": 0.3937007874015748,
          "duration": 0.10000000000000142
        },
        {
          "name": "A#5",
          "midi": 82,
          "time": 41.20000000000012,
          "velocity": 0.3937007874015748,
          "duration": 0.10000000000000142
        },
        {
          "name": "A#4",
          "midi": 70,
          "time": 41.20000000000012,
          "velocity": 0.3937007874015748,
          "duration": 0.10000000000000142
        },
        {
          "name": "C#5",
          "midi": 73,
          "time": 41.40000000000012,
          "velocity": 0.3937007874015748,
          "duration": 0.10000000000000142
        },
        {
          "name": "C#4",
          "midi": 61,
          "time": 41.40000000000012,
          "velocity": 0.3937007874015748,
          "duration": 0.10000000000000142
        },
        {
          "name": "F4",
          "midi": 65,
          "time": 41.40000000000012,
          "velocity": 0.3937007874015748,
          "duration": 0.10000000000000142
        },
        {
          "name": "F3",
          "midi": 53,
          "time": 41.40000000000012,
          "velocity": 0.3937007874015748,
          "duration": 0.10000000000000142
        },
        {
          "name": "B4",
          "midi": 71,
          "time": 41.60000000000012,
          "velocity": 0.3937007874015748,
          "duration": 0.10000000000000142
        },
        {
          "name": "D#5",
          "midi": 75,
          "time": 41.60000000000012,
          "velocity": 0.3937007874015748,
          "duration": 0.10000000000000142
        },
        {
          "name": "D#4",
          "midi": 63,
          "time": 41.60000000000012,
          "velocity": 0.3937007874015748,
          "duration": 0.10000000000000142
        },
        {
          "name": "B3",
          "midi": 59,
          "time": 41.60000000000012,
          "velocity": 0.3937007874015748,
          "duration": 0.10000000000000142
        },
        {
          "name": "A#5",
          "midi": 82,
          "time": 42.200000000000124,
          "velocity": 0.3937007874015748,
          "duration": 0.10000000000000142
        },
        {
          "name": "A#4",
          "midi": 70,
          "time": 42.200000000000124,
          "velocity": 0.3937007874015748,
          "duration": 0.10000000000000142
        },
        {
          "name": "A#3",
          "midi": 58,
          "time": 42.200000000000124,
          "velocity": 0.3937007874015748,
          "duration": 0.10000000000000142
        },
        {
          "name": "B4",
          "midi": 71,
          "time": 42.40000000000013,
          "velocity": 0.3937007874015748,
          "duration": 0.10000000000000142
        },
        {
          "name": "D#5",
          "midi": 75,
          "time": 42.40000000000013,
          "velocity": 0.3937007874015748,
          "duration": 0.10000000000000142
        },
        {
          "name": "D#4",
          "midi": 63,
          "time": 42.40000000000013,
          "velocity": 0.3937007874015748,
          "duration": 0.10000000000000142
        },
        {
          "name": "B3",
          "midi": 59,
          "time": 42.40000000000013,
          "velocity": 0.3937007874015748,
          "duration": 0.10000000000000142
        },
        {
          "name": "D#5",
          "midi": 75,
          "time": 43.00000000000013,
          "velocity": 0.3937007874015748,
          "duration": 0.10000000000000142
        },
        {
          "name": "F5",
          "midi": 77,
          "time": 43.10000000000013,
          "velocity": 0.3937007874015748,
          "duration": 0.10000000000000142
        },
        {
          "name": "F#5",
          "midi": 78,
          "time": 43.20000000000013,
          "velocity": 0.3937007874015748,
          "duration": 0.10000000000000142
        },
        {
          "name": "A#4",
          "midi": 70,
          "time": 43.30000000000013,
          "velocity": 0.3937007874015748,
          "duration": 0.10000000000000142
        },
        {
          "name": "F5",
          "midi": 77,
          "time": 43.400000000000134,
          "velocity": 0.3937007874015748,
          "duration": 0.10000000000000142
        },
        {
          "name": "A#4",
          "midi": 70,
          "time": 43.500000000000135,
          "velocity": 0.3937007874015748,
          "duration": 0.10000000000000142
        },
        {
          "name": "D#5",
          "midi": 75,
          "time": 43.600000000000136,
          "velocity": 0.3937007874015748,
          "duration": 0.10000000000000142
        },
        {
          "name": "G#4",
          "midi": 68,
          "time": 43.70000000000014,
          "velocity": 0.3937007874015748,
          "duration": 0.10000000000000142
        },
        {
          "name": "C#5",
          "midi": 73,
          "time": 43.80000000000014,
          "velocity": 0.3937007874015748,
          "duration": 0.10000000000000142
        },
        {
          "name": "F4",
          "midi": 65,
          "time": 43.90000000000014,
          "velocity": 0.3937007874015748,
          "duration": 0.10000000000000142
        },
        {
          "name": "F#4",
          "midi": 66,
          "time": 44.00000000000014,
          "velocity": 0.3937007874015748,
          "duration": 0.10000000000000142
        },
        {
          "name": "G#4",
          "midi": 68,
          "time": 44.10000000000014,
          "velocity": 0.3937007874015748,
          "duration": 0.10000000000000142
        },
        {
          "name": "A#4",
          "midi": 70,
          "time": 44.200000000000145,
          "velocity": 0.3937007874015748,
          "duration": 0.10000000000000142
        },
        {
          "name": "D#4",
          "midi": 63,
          "time": 44.300000000000146,
          "velocity": 0.3937007874015748,
          "duration": 0.10000000000000142
        },
        {
          "name": "G#4",
          "midi": 68,
          "time": 44.40000000000015,
          "velocity": 0.3937007874015748,
          "duration": 0.10000000000000142
        },
        {
          "name": "A#4",
          "midi": 70,
          "time": 44.50000000000015,
          "velocity": 0.3937007874015748,
          "duration": 0.10000000000000142
        },
        {
          "name": "F4",
          "midi": 65,
          "time": 44.60000000000015,
          "velocity": 0.3937007874015748,
          "duration": 0.10000000000000142
        },
        {
          "name": "C#5",
          "midi": 73,
          "time": 44.70000000000015,
          "velocity": 0.3937007874015748,
          "duration": 0.10000000000000142
        },
        {
          "name": "F#4",
          "midi": 66,
          "time": 44.80000000000015,
          "velocity": 0.3937007874015748,
          "duration": 0.10000000000000142
        },
        {
          "name": "D#5",
          "midi": 75,
          "time": 44.80000000000015,
          "velocity": 0.3937007874015748,
          "duration": 0.10000000000000142
        },
        {
          "name": "F#3",
          "midi": 54,
          "time": 44.80000000000015,
          "velocity": 0.3937007874015748,
          "duration": 0.10000000000000142
        },
        {
          "name": "F#5",
          "midi": 78,
          "time": 44.80000000000015,
          "velocity": 0.3937007874015748,
          "duration": 0.10000000000000142
        },
        {
          "name": "D#4",
          "midi": 63,
          "time": 44.80000000000015,
          "velocity": 0.3937007874015748,
          "duration": 0.10000000000000142
        },
        {
          "name": "A#4",
          "midi": 70,
          "time": 45.400000000000155,
          "velocity": 0.3937007874015748,
          "duration": 0.10000000000000142
        },
        {
          "name": "A#5",
          "midi": 82,
          "time": 45.400000000000155,
          "velocity": 0.3937007874015748,
          "duration": 0.10000000000000142
        },
        {
          "name": "F#5",
          "midi": 78,
          "time": 45.400000000000155,
          "velocity": 0.3937007874015748,
          "duration": 0.10000000000000142
        },
        {
          "name": "F#4",
          "midi": 66,
          "time": 45.400000000000155,
          "velocity": 0.3937007874015748,
          "duration": 0.10000000000000142
        },
        {
          "name": "F#4",
          "midi": 66,
          "time": 45.60000000000016,
          "velocity": 0.3937007874015748,
          "duration": 0.10000000000000142
        },
        {
          "name": "D#5",
          "midi": 75,
          "time": 45.60000000000016,
          "velocity": 0.3937007874015748,
          "duration": 0.10000000000000142
        },
        {
          "name": "F#5",
          "midi": 78,
          "time": 45.60000000000016,
          "velocity": 0.3937007874015748,
          "duration": 0.10000000000000142
        },
        {
          "name": "D#4",
          "midi": 63,
          "time": 45.60000000000016,
          "velocity": 0.3937007874015748,
          "duration": 0.10000000000000142
        },
        {
          "name": "F#4",
          "midi": 66,
          "time": 46.40000000000016,
          "velocity": 0.3937007874015748,
          "duration": 0.10000000000000142
        },
        {
          "name": "D#6",
          "midi": 87,
          "time": 46.40000000000016,
          "velocity": 0.3937007874015748,
          "duration": 0.10000000000000142
        },
        {
          "name": "D#5",
          "midi": 75,
          "time": 46.40000000000016,
          "velocity": 0.3937007874015748,
          "duration": 0.10000000000000142
        },
        {
          "name": "F#5",
          "midi": 78,
          "time": 46.40000000000016,
          "velocity": 0.3937007874015748,
          "duration": 0.10000000000000142
        },
        {
          "name": "G#5",
          "midi": 80,
          "time": 47.00000000000016,
          "velocity": 0.3937007874015748,
          "duration": 0.10000000000000142
        },
        {
          "name": "A#5",
          "midi": 82,
          "time": 47.100000000000165,
          "velocity": 0.3937007874015748,
          "duration": 0.10000000000000142
        },
        {
          "name": "C#5",
          "midi": 73,
          "time": 47.200000000000166,
          "velocity": 0.3937007874015748,
          "duration": 0.10000000000000142
        },
        {
          "name": "C#6",
          "midi": 85,
          "time": 47.200000000000166,
          "velocity": 0.3937007874015748,
          "duration": 0.10000000000000142
        },
        {
          "name": "F5",
          "midi": 77,
          "time": 47.200000000000166,
          "velocity": 0.3937007874015748,
          "duration": 0.10000000000000142
        },
        {
          "name": "F4",
          "midi": 65,
          "time": 47.200000000000166,
          "velocity": 0.3937007874015748,
          "duration": 0.10000000000000142
        },
        {
          "name": "G#4",
          "midi": 68,
          "time": 47.40000000000017,
          "velocity": 0.3937007874015748,
          "duration": 0.10000000000000142
        },
        {
          "name": "G#5",
          "midi": 80,
          "time": 47.40000000000017,
          "velocity": 0.3937007874015748,
          "duration": 0.10000000000000142
        },
        {
          "name": "F5",
          "midi": 77,
          "time": 47.40000000000017,
          "velocity": 0.3937007874015748,
          "duration": 0.10000000000000142
        },
        {
          "name": "F4",
          "midi": 65,
          "time": 47.40000000000017,
          "velocity": 0.3937007874015748,
          "duration": 0.10000000000000142
        },
        {
          "name": "F4",
          "midi": 65,
          "time": 47.60000000000017,
          "velocity": 0.3937007874015748,
          "duration": 0.10000000000000142
        },
        {
          "name": "F5",
          "midi": 77,
          "time": 47.60000000000017,
          "velocity": 0.3937007874015748,
          "duration": 0.10000000000000142
        },
        {
          "name": "C#5",
          "midi": 73,
          "time": 47.60000000000017,
          "velocity": 0.3937007874015748,
          "duration": 0.10000000000000142
        },
        {
          "name": "C#4",
          "midi": 61,
          "time": 47.60000000000017,
          "velocity": 0.3937007874015748,
          "duration": 0.10000000000000142
        },
        {
          "name": "G#4",
          "midi": 68,
          "time": 47.800000000000175,
          "velocity": 0.3937007874015748,
          "duration": 0.10000000000000142
        },
        {
          "name": "G#5",
          "midi": 80,
          "time": 47.800000000000175,
          "velocity": 0.3937007874015748,
          "duration": 0.10000000000000142
        },
        {
          "name": "F5",
          "midi": 77,
          "time": 47.800000000000175,
          "velocity": 0.3937007874015748,
          "duration": 0.10000000000000142
        },
        {
          "name": "F4",
          "midi": 65,
          "time": 47.800000000000175,
          "velocity": 0.3937007874015748,
          "duration": 0.10000000000000142
        },
        {
          "name": "F#4",
          "midi": 66,
          "time": 48.00000000000018,
          "velocity": 0.3937007874015748,
          "duration": 0.10000000000000142
        },
        {
          "name": "D#5",
          "midi": 75,
          "time": 48.00000000000018,
          "velocity": 0.3937007874015748,
          "duration": 0.10000000000000142
        },
        {
          "name": "F#5",
          "midi": 78,
          "time": 48.00000000000018,
          "velocity": 0.3937007874015748,
          "duration": 0.10000000000000142
        },
        {
          "name": "D#4",
          "midi": 63,
          "time": 48.00000000000018,
          "velocity": 0.3937007874015748,
          "duration": 0.10000000000000142
        },
        {
          "name": "A#4",
          "midi": 70,
          "time": 48.60000000000018,
          "velocity": 0.3937007874015748,
          "duration": 0.10000000000000142
        },
        {
          "name": "A#5",
          "midi": 82,
          "time": 48.60000000000018,
          "velocity": 0.3937007874015748,
          "duration": 0.10000000000000142
        },
        {
          "name": "F#5",
          "midi": 78,
          "time": 48.60000000000018,
          "velocity": 0.3937007874015748,
          "duration": 0.10000000000000142
        },
        {
          "name": "F#4",
          "midi": 66,
          "time": 48.60000000000018,
          "velocity": 0.3937007874015748,
          "duration": 0.10000000000000142
        },
        {
          "name": "F#4",
          "midi": 66,
          "time": 48.80000000000018,
          "velocity": 0.3937007874015748,
          "duration": 0.10000000000000142
        },
        {
          "name": "D#5",
          "midi": 75,
          "time": 48.80000000000018,
          "velocity": 0.3937007874015748,
          "duration": 0.10000000000000142
        },
        {
          "name": "F#5",
          "midi": 78,
          "time": 48.80000000000018,
          "velocity": 0.3937007874015748,
          "duration": 0.10000000000000142
        },
        {
          "name": "D#4",
          "midi": 63,
          "time": 48.80000000000018,
          "velocity": 0.3937007874015748,
          "duration": 0.10000000000000142
        },
        {
          "name": "B5",
          "midi": 83,
          "time": 49.600000000000186,
          "velocity": 0.3937007874015748,
          "duration": 0.10000000000000142
        },
        {
          "name": "B4",
          "midi": 71,
          "time": 49.600000000000186,
          "velocity": 0.3937007874015748,
          "duration": 0.10000000000000142
        },
        {
          "name": "D#6",
          "midi": 87,
          "time": 49.600000000000186,
          "velocity": 0.3937007874015748,
          "duration": 0.10000000000000142
        },
        {
          "name": "D#5",
          "midi": 75,
          "time": 49.600000000000186,
          "velocity": 0.3937007874015748,
          "duration": 0.10000000000000142
        },
        {
          "name": "F#4",
          "midi": 66,
          "time": 49.600000000000186,
          "velocity": 0.3937007874015748,
          "duration": 0.10000000000000142
        },
        {
          "name": "F#5",
          "midi": 78,
          "time": 49.600000000000186,
          "velocity": 0.3937007874015748,
          "duration": 0.10000000000000142
        },
        {
          "name": "A#4",
          "midi": 70,
          "time": 49.80000000000019,
          "velocity": 0.3937007874015748,
          "duration": 0.10000000000000142
        },
        {
          "name": "F4",
          "midi": 65,
          "time": 49.90000000000019,
          "velocity": 0.3937007874015748,
          "duration": 0.10000000000000142
        },
        {
          "name": "F#4",
          "midi": 66,
          "time": 50.00000000000019,
          "velocity": 0.3937007874015748,
          "duration": 0.10000000000000142
        },
        {
          "name": "G#4",
          "midi": 68,
          "time": 50.10000000000019,
          "velocity": 0.3937007874015748,
          "duration": 0.10000000000000142
        },
        {
          "name": "F4",
          "midi": 65,
          "time": 50.200000000000195,
          "velocity": 0.3937007874015748,
          "duration": 0.10000000000000142
        },
        {
          "name": "F#4",
          "midi": 66,
          "time": 50.300000000000196,
          "velocity": 0.3937007874015748,
          "duration": 0.10000000000000142
        },
        {
          "name": "D#4",
          "midi": 63,
          "time": 50.4000000000002,
          "velocity": 0.3937007874015748,
          "duration": 0.10000000000000142
        },
        {
          "name": "F4",
          "midi": 65,
          "time": 50.5000000000002,
          "velocity": 0.3937007874015748,
          "duration": 0.10000000000000142
        },
        {
          "name": "C#4",
          "midi": 61,
          "time": 50.6000000000002,
          "velocity": 0.3937007874015748,
          "duration": 0.10000000000000142
        },
        {
          "name": "D#4",
          "midi": 63,
          "time": 50.7000000000002,
          "velocity": 0.3937007874015748,
          "duration": 0.10000000000000142
        },
        {
          "name": "A#3",
          "midi": 58,
          "time": 50.8000000000002,
          "velocity": 0.3937007874015748,
          "duration": 0.10000000000000142
        },
        {
          "name": "C#4",
          "midi": 61,
          "time": 50.900000000000205,
          "velocity": 0.3937007874015748,
          "duration": 0.10000000000000142
        },
        {
          "name": "G#3",
          "midi": 56,
          "time": 51.000000000000206,
          "velocity": 0.3937007874015748,
          "duration": 0.10000000000000142
        },
        {
          "name": "F#4",
          "midi": 66,
          "time": 51.20000000000021,
          "velocity": 0.3937007874015748,
          "duration": 0.10000000000000142
        },
        {
          "name": "D#5",
          "midi": 75,
          "time": 51.20000000000021,
          "velocity": 0.3937007874015748,
          "duration": 0.10000000000000142
        },
        {
          "name": "F#5",
          "midi": 78,
          "time": 51.20000000000021,
          "velocity": 0.3937007874015748,
          "duration": 0.10000000000000142
        },
        {
          "name": "D#4",
          "midi": 63,
          "time": 51.20000000000021,
          "velocity": 0.3937007874015748,
          "duration": 0.10000000000000142
        },
        {
          "name": "A#4",
          "midi": 70,
          "time": 51.40000000000021,
          "velocity": 0.3937007874015748,
          "duration": 0.10000000000000142
        },
        {
          "name": "D#5",
          "midi": 75,
          "time": 51.50000000000021,
          "velocity": 0.3937007874015748,
          "duration": 0.10000000000000142
        },
        {
          "name": "F5",
          "midi": 77,
          "time": 51.600000000000215,
          "velocity": 0.3937007874015748,
          "duration": 0.10000000000000142
        },
        {
          "name": "A#5",
          "midi": 82,
          "time": 51.700000000000216,
          "velocity": 0.3937007874015748,
          "duration": 0.10000000000000142
        },
        {
          "name": "F5",
          "midi": 77,
          "time": 51.80000000000022,
          "velocity": 0.3937007874015748,
          "duration": 0.10000000000000142
        },
        {
          "name": "F6",
          "midi": 89,
          "time": 51.80000000000022,
          "velocity": 0.3937007874015748,
          "duration": 0.10000000000000142
        },
        {
          "name": "D#6",
          "midi": 87,
          "time": 52.00000000000022,
          "velocity": 0.3937007874015748,
          "duration": 0.10000000000000142
        },
        {
          "name": "F#5",
          "midi": 78,
          "time": 52.00000000000022,
          "velocity": 0.3937007874015748,
          "duration": 0.10000000000000142
        },
        {
          "name": "F#4",
          "midi": 66,
          "time": 52.00000000000022,
          "velocity": 0.3937007874015748,
          "duration": 0.10000000000000142
        },
        {
          "name": "D#5",
          "midi": 75,
          "time": 52.00000000000022,
          "velocity": 0.3937007874015748,
          "duration": 0.10000000000000142
        },
        {
          "name": "D#5",
          "midi": 75,
          "time": 52.800000000000225,
          "velocity": 0.3937007874015748,
          "duration": 0.10000000000000142
        },
        {
          "name": "F#5",
          "midi": 78,
          "time": 52.800000000000225,
          "velocity": 0.3937007874015748,
          "duration": 0.10000000000000142
        },
        {
          "name": "F#6",
          "midi": 90,
          "time": 52.800000000000225,
          "velocity": 0.3937007874015748,
          "duration": 0.10000000000000142
        },
        {
          "name": "D#6",
          "midi": 87,
          "time": 52.800000000000225,
          "velocity": 0.3937007874015748,
          "duration": 0.10000000000000142
        },
        {
          "name": "A#4",
          "midi": 70,
          "time": 52.900000000000226,
          "velocity": 0.3937007874015748,
          "duration": 0.10000000000000142
        },
        {
          "name": "F5",
          "midi": 77,
          "time": 53.00000000000023,
          "velocity": 0.3937007874015748,
          "duration": 0.10000000000000142
        },
        {
          "name": "D#5",
          "midi": 75,
          "time": 53.10000000000023,
          "velocity": 0.3937007874015748,
          "duration": 0.10000000000000142
        },
        {
          "name": "C#5",
          "midi": 73,
          "time": 53.20000000000023,
          "velocity": 0.3937007874015748,
          "duration": 0.10000000000000142
        },
        {
          "name": "A#4",
          "midi": 70,
          "time": 53.30000000000023,
          "velocity": 0.3937007874015748,
          "duration": 0.10000000000000142
        },
        {
          "name": "C#5",
          "midi": 73,
          "time": 53.40000000000023,
          "velocity": 0.3937007874015748,
          "duration": 0.10000000000000142
        },
        {
          "name": "D#5",
          "midi": 75,
          "time": 53.500000000000234,
          "velocity": 0.3937007874015748,
          "duration": 0.10000000000000142
        },
        {
          "name": "F5",
          "midi": 77,
          "time": 53.600000000000236,
          "velocity": 0.3937007874015748,
          "duration": 0.10000000000000142
        },
        {
          "name": "F6",
          "midi": 89,
          "time": 53.600000000000236,
          "velocity": 0.3937007874015748,
          "duration": 0.10000000000000142
        },
        {
          "name": "G#4",
          "midi": 68,
          "time": 53.600000000000236,
          "velocity": 0.3937007874015748,
          "duration": 0.10000000000000142
        },
        {
          "name": "G#5",
          "midi": 80,
          "time": 53.600000000000236,
          "velocity": 0.3937007874015748,
          "duration": 0.10000000000000142
        },
        {
          "name": "F#5",
          "midi": 78,
          "time": 53.80000000000024,
          "velocity": 0.3937007874015748,
          "duration": 0.10000000000000142
        },
        {
          "name": "F#6",
          "midi": 90,
          "time": 53.80000000000024,
          "velocity": 0.3937007874015748,
          "duration": 0.10000000000000142
        },
        {
          "name": "G#4",
          "midi": 68,
          "time": 53.80000000000024,
          "velocity": 0.3937007874015748,
          "duration": 0.10000000000000142
        },
        {
          "name": "G#5",
          "midi": 80,
          "time": 53.80000000000024,
          "velocity": 0.3937007874015748,
          "duration": 0.10000000000000142
        },
        {
          "name": "F5",
          "midi": 77,
          "time": 54.00000000000024,
          "velocity": 0.3937007874015748,
          "duration": 0.10000000000000142
        },
        {
          "name": "F6",
          "midi": 89,
          "time": 54.00000000000024,
          "velocity": 0.3937007874015748,
          "duration": 0.10000000000000142
        },
        {
          "name": "A#5",
          "midi": 82,
          "time": 54.00000000000024,
          "velocity": 0.3937007874015748,
          "duration": 0.10000000000000142
        },
        {
          "name": "A#6",
          "midi": 94,
          "time": 54.00000000000024,
          "velocity": 0.3937007874015748,
          "duration": 0.10000000000000142
        },
        {
          "name": "C#5",
          "midi": 73,
          "time": 54.200000000000244,
          "velocity": 0.3937007874015748,
          "duration": 0.10000000000000142
        },
        {
          "name": "F5",
          "midi": 77,
          "time": 54.200000000000244,
          "velocity": 0.3937007874015748,
          "duration": 0.10000000000000142
        },
        {
          "name": "F4",
          "midi": 65,
          "time": 54.200000000000244,
          "velocity": 0.3937007874015748,
          "duration": 0.10000000000000142
        },
        {
          "name": "F3",
          "midi": 53,
          "time": 54.200000000000244,
          "velocity": 0.3937007874015748,
          "duration": 0.10000000000000142
        },
        {
          "name": "C#6",
          "midi": 85,
          "time": 54.200000000000244,
          "velocity": 0.3937007874015748,
          "duration": 0.10000000000000142
        },
        {
          "name": "B5",
          "midi": 83,
          "time": 54.40000000000025,
          "velocity": 0.3937007874015748,
          "duration": 0.10000000000000142
        },
        {
          "name": "D#6",
          "midi": 87,
          "time": 54.40000000000025,
          "velocity": 0.3937007874015748,
          "duration": 0.10000000000000142
        },
        {
          "name": "D#5",
          "midi": 75,
          "time": 54.40000000000025,
          "velocity": 0.3937007874015748,
          "duration": 0.10000000000000142
        },
        {
          "name": "B4",
          "midi": 71,
          "time": 54.40000000000025,
          "velocity": 0.3937007874015748,
          "duration": 0.10000000000000142
        },
        {
          "name": "A#5",
          "midi": 82,
          "time": 55.00000000000025,
          "velocity": 0.3937007874015748,
          "duration": 0.10000000000000142
        },
        {
          "name": "A#4",
          "midi": 70,
          "time": 55.00000000000025,
          "velocity": 0.3937007874015748,
          "duration": 0.10000000000000142
        },
        {
          "name": "A#6",
          "midi": 94,
          "time": 55.00000000000025,
          "velocity": 0.3937007874015748,
          "duration": 0.10000000000000142
        },
        {
          "name": "B5",
          "midi": 83,
          "time": 55.20000000000025,
          "velocity": 0.3937007874015748,
          "duration": 0.10000000000000142
        },
        {
          "name": "D#6",
          "midi": 87,
          "time": 55.20000000000025,
          "velocity": 0.3937007874015748,
          "duration": 0.10000000000000142
        },
        {
          "name": "D#5",
          "midi": 75,
          "time": 55.20000000000025,
          "velocity": 0.3937007874015748,
          "duration": 0.10000000000000142
        },
        {
          "name": "B4",
          "midi": 71,
          "time": 55.20000000000025,
          "velocity": 0.3937007874015748,
          "duration": 0.10000000000000142
        },
        {
          "name": "D#5",
          "midi": 75,
          "time": 55.80000000000025,
          "velocity": 0.3937007874015748,
          "duration": 0.10000000000000142
        },
        {
          "name": "F5",
          "midi": 77,
          "time": 55.900000000000254,
          "velocity": 0.3937007874015748,
          "duration": 0.10000000000000142
        },
        {
          "name": "F#5",
          "midi": 78,
          "time": 56.000000000000256,
          "velocity": 0.3937007874015748,
          "duration": 0.10000000000000142
        },
        {
          "name": "A#4",
          "midi": 70,
          "time": 56.10000000000026,
          "velocity": 0.3937007874015748,
          "duration": 0.10000000000000142
        },
        {
          "name": "F5",
          "midi": 77,
          "time": 56.20000000000026,
          "velocity": 0.3937007874015748,
          "duration": 0.10000000000000142
        },
        {
          "name": "A#4",
          "midi": 70,
          "time": 56.30000000000026,
          "velocity": 0.3937007874015748,
          "duration": 0.10000000000000142
        },
        {
          "name": "D#5",
          "midi": 75,
          "time": 56.40000000000026,
          "velocity": 0.3937007874015748,
          "duration": 0.10000000000000142
        },
        {
          "name": "G#4",
          "midi": 68,
          "time": 56.50000000000026,
          "velocity": 0.3937007874015748,
          "duration": 0.10000000000000142
        },
        {
          "name": "C#5",
          "midi": 73,
          "time": 56.600000000000264,
          "velocity": 0.3937007874015748,
          "duration": 0.10000000000000142
        },
        {
          "name": "F4",
          "midi": 65,
          "time": 56.700000000000266,
          "velocity": 0.3937007874015748,
          "duration": 0.10000000000000142
        },
        {
          "name": "F#4",
          "midi": 66,
          "time": 56.80000000000027,
          "velocity": 0.3937007874015748,
          "duration": 0.10000000000000142
        },
        {
          "name": "G#4",
          "midi": 68,
          "time": 56.90000000000027,
          "velocity": 0.3937007874015748,
          "duration": 0.10000000000000142
        },
        {
          "name": "A#4",
          "midi": 70,
          "time": 57.00000000000027,
          "velocity": 0.3937007874015748,
          "duration": 0.10000000000000142
        },
        {
          "name": "D#4",
          "midi": 63,
          "time": 57.10000000000027,
          "velocity": 0.3937007874015748,
          "duration": 0.10000000000000142
        },
        {
          "name": "G#4",
          "midi": 68,
          "time": 57.20000000000027,
          "velocity": 0.3937007874015748,
          "duration": 0.10000000000000142
        },
        {
          "name": "A#4",
          "midi": 70,
          "time": 57.300000000000274,
          "velocity": 0.3937007874015748,
          "duration": 0.10000000000000142
        },
        {
          "name": "F4",
          "midi": 65,
          "time": 57.400000000000276,
          "velocity": 0.3937007874015748,
          "duration": 0.10000000000000142
        },
        {
          "name": "C#5",
          "midi": 73,
          "time": 57.50000000000028,
          "velocity": 0.3937007874015748,
          "duration": 0.10000000000000142
        },
        {
          "name": "F#4",
          "midi": 66,
          "time": 57.60000000000028,
          "velocity": 0.3937007874015748,
          "duration": 0.10000000000000142
        },
        {
          "name": "A#4",
          "midi": 70,
          "time": 57.60000000000028,
          "velocity": 0.3937007874015748,
          "duration": 0.10000000000000142
        },
        {
          "name": "F#3",
          "midi": 54,
          "time": 57.60000000000028,
          "velocity": 0.3937007874015748,
          "duration": 0.10000000000000142
        },
        {
          "name": "A#3",
          "midi": 58,
          "time": 57.60000000000028,
          "velocity": 0.3937007874015748,
          "duration": 0.10000000000000142
        },
        {
          "name": "F4",
          "midi": 65,
          "time": 58.20000000000028,
          "velocity": 0.3937007874015748,
          "duration": 0.10000000000000142
        },
        {
          "name": "F3",
          "midi": 53,
          "time": 58.20000000000028,
          "velocity": 0.3937007874015748,
          "duration": 0.10000000000000142
        },
        {
          "name": "D#4",
          "midi": 63,
          "time": 58.20000000000028,
          "velocity": 0.3937007874015748,
          "duration": 0.10000000000000142
        },
        {
          "name": "D#5",
          "midi": 75,
          "time": 58.20000000000028,
          "velocity": 0.3937007874015748,
          "duration": 0.10000000000000142
        },
        {
          "name": "A#3",
          "midi": 58,
          "time": 58.40000000000028,
          "velocity": 0.3937007874015748,
          "duration": 0.10000000000000142
        },
        {
          "name": "F#3",
          "midi": 54,
          "time": 58.40000000000028,
          "velocity": 0.3937007874015748,
          "duration": 0.10000000000000142
        },
        {
          "name": "F#4",
          "midi": 66,
          "time": 58.40000000000028,
          "velocity": 0.3937007874015748,
          "duration": 0.10000000000000142
        },
        {
          "name": "A#4",
          "midi": 70,
          "time": 58.40000000000028,
          "velocity": 0.3937007874015748,
          "duration": 0.10000000000000142
        },
        {
          "name": "A#4",
          "midi": 70,
          "time": 59.20000000000029,
          "velocity": 0.3937007874015748,
          "duration": 0.10000000000000142
        },
        {
          "name": "F#5",
          "midi": 78,
          "time": 59.20000000000029,
          "velocity": 0.3937007874015748,
          "duration": 0.10000000000000142
        },
        {
          "name": "A#3",
          "midi": 58,
          "time": 59.20000000000029,
          "velocity": 0.3937007874015748,
          "duration": 0.10000000000000142
        },
        {
          "name": "F#4",
          "midi": 66,
          "time": 59.20000000000029,
          "velocity": 0.3937007874015748,
          "duration": 0.10000000000000142
        },
        {
          "name": "C#5",
          "midi": 73,
          "time": 59.80000000000029,
          "velocity": 0.3937007874015748,
          "duration": 0.10000000000000142
        },
        {
          "name": "D#5",
          "midi": 75,
          "time": 59.90000000000029,
          "velocity": 0.3937007874015748,
          "duration": 0.10000000000000142
        },
        {
          "name": "F5",
          "midi": 77,
          "time": 60.00000000000029,
          "velocity": 0.3937007874015748,
          "duration": 0.10000000000000142
        },
        {
          "name": "G#4",
          "midi": 68,
          "time": 60.00000000000029,
          "velocity": 0.3937007874015748,
          "duration": 0.10000000000000142
        },
        {
          "name": "F4",
          "midi": 65,
          "time": 60.00000000000029,
          "velocity": 0.3937007874015748,
          "duration": 0.10000000000000142
        },
        {
          "name": "G#3",
          "midi": 56,
          "time": 60.00000000000029,
          "velocity": 0.3937007874015748,
          "duration": 0.10000000000000142
        },
        {
          "name": "F#5",
          "midi": 78,
          "time": 60.200000000000294,
          "velocity": 0.3937007874015748,
          "duration": 0.10000000000000142
        },
        {
          "name": "G#4",
          "midi": 68,
          "time": 60.200000000000294,
          "velocity": 0.3937007874015748,
          "duration": 0.10000000000000142
        },
        {
          "name": "F#4",
          "midi": 66,
          "time": 60.200000000000294,
          "velocity": 0.3937007874015748,
          "duration": 0.10000000000000142
        },
        {
          "name": "G#3",
          "midi": 56,
          "time": 60.200000000000294,
          "velocity": 0.3937007874015748,
          "duration": 0.10000000000000142
        },
        {
          "name": "C#5",
          "midi": 73,
          "time": 60.4000000000003,
          "velocity": 0.3937007874015748,
          "duration": 0.10000000000000142
        },
        {
          "name": "F4",
          "midi": 65,
          "time": 60.4000000000003,
          "velocity": 0.3937007874015748,
          "duration": 0.10000000000000142
        },
        {
          "name": "C#4",
          "midi": 61,
          "time": 60.4000000000003,
          "velocity": 0.3937007874015748,
          "duration": 0.10000000000000142
        },
        {
          "name": "F3",
          "midi": 53,
          "time": 60.4000000000003,
          "velocity": 0.3937007874015748,
          "duration": 0.10000000000000142
        },
        {
          "name": "D#5",
          "midi": 75,
          "time": 60.6000000000003,
          "velocity": 0.3937007874015748,
          "duration": 0.10000000000000142
        },
        {
          "name": "F4",
          "midi": 65,
          "time": 60.6000000000003,
          "velocity": 0.3937007874015748,
          "duration": 0.10000000000000142
        },
        {
          "name": "D#4",
          "midi": 63,
          "time": 60.6000000000003,
          "velocity": 0.3937007874015748,
          "duration": 0.10000000000000142
        },
        {
          "name": "F3",
          "midi": 53,
          "time": 60.6000000000003,
          "velocity": 0.3937007874015748,
          "duration": 0.10000000000000142
        },
        {
          "name": "F#4",
          "midi": 66,
          "time": 60.8000000000003,
          "velocity": 0.3937007874015748,
          "duration": 0.10000000000000142
        },
        {
          "name": "A#4",
          "midi": 70,
          "time": 60.8000000000003,
          "velocity": 0.3937007874015748,
          "duration": 0.10000000000000142
        },
        {
          "name": "F#3",
          "midi": 54,
          "time": 60.8000000000003,
          "velocity": 0.3937007874015748,
          "duration": 0.10000000000000142
        },
        {
          "name": "A#3",
          "midi": 58,
          "time": 60.8000000000003,
          "velocity": 0.3937007874015748,
          "duration": 0.10000000000000142
        },
        {
          "name": "F4",
          "midi": 65,
          "time": 61.400000000000304,
          "velocity": 0.3937007874015748,
          "duration": 0.10000000000000142
        },
        {
          "name": "F3",
          "midi": 53,
          "time": 61.400000000000304,
          "velocity": 0.3937007874015748,
          "duration": 0.10000000000000142
        },
        {
          "name": "D#4",
          "midi": 63,
          "time": 61.400000000000304,
          "velocity": 0.3937007874015748,
          "duration": 0.10000000000000142
        },
        {
          "name": "D#5",
          "midi": 75,
          "time": 61.400000000000304,
          "velocity": 0.3937007874015748,
          "duration": 0.10000000000000142
        },
        {
          "name": "A#3",
          "midi": 58,
          "time": 61.60000000000031,
          "velocity": 0.3937007874015748,
          "duration": 0.10000000000000142
        },
        {
          "name": "F#3",
          "midi": 54,
          "time": 61.60000000000031,
          "velocity": 0.3937007874015748,
          "duration": 0.10000000000000142
        },
        {
          "name": "F#4",
          "midi": 66,
          "time": 61.60000000000031,
          "velocity": 0.3937007874015748,
          "duration": 0.10000000000000142
        },
        {
          "name": "A#4",
          "midi": 70,
          "time": 61.60000000000031,
          "velocity": 0.3937007874015748,
          "duration": 0.10000000000000142
        },
        {
          "name": "A#4",
          "midi": 70,
          "time": 62.40000000000031,
          "velocity": 0.3937007874015748,
          "duration": 0.10000000000000142
        },
        {
          "name": "F#5",
          "midi": 78,
          "time": 62.40000000000031,
          "velocity": 0.3937007874015748,
          "duration": 0.10000000000000142
        },
        {
          "name": "A#3",
          "midi": 58,
          "time": 62.40000000000031,
          "velocity": 0.3937007874015748,
          "duration": 0.10000000000000142
        },
        {
          "name": "F#4",
          "midi": 66,
          "time": 62.40000000000031,
          "velocity": 0.3937007874015748,
          "duration": 0.10000000000000142
        },
        {
          "name": "A#4",
          "midi": 70,
          "time": 63.40000000000031,
          "velocity": 0.3937007874015748,
          "duration": 0.10000000000000142
        },
        {
          "name": "C#5",
          "midi": 73,
          "time": 63.40000000000031,
          "velocity": 0.3937007874015748,
          "duration": 0.10000000000000142
        },
        {
          "name": "A#3",
          "midi": 58,
          "time": 63.40000000000031,
          "velocity": 0.3937007874015748,
          "duration": 0.10000000000000142
        },
        {
          "name": "C#4",
          "midi": 61,
          "time": 63.40000000000031,
          "velocity": 0.3937007874015748,
          "duration": 0.10000000000000142
        },
        {
          "name": "F#3",
          "midi": 54,
          "time": 63.600000000000314,
          "velocity": 0.3937007874015748,
          "duration": 0.10000000000000142
        },
        {
          "name": "F#4",
          "midi": 66,
          "time": 63.600000000000314,
          "velocity": 0.3937007874015748,
          "duration": 0.10000000000000142
        },
        {
          "name": "C#4",
          "midi": 61,
          "time": 63.600000000000314,
          "velocity": 0.3937007874015748,
          "duration": 0.10000000000000142
        },
        {
          "name": "C#3",
          "midi": 49,
          "time": 63.600000000000314,
          "velocity": 0.3937007874015748,
          "duration": 0.10000000000000142
        },
        {
          "name": "G#3",
          "midi": 56,
          "time": 63.80000000000032,
          "velocity": 0.3937007874015748,
          "duration": 0.10000000000000142
        },
        {
          "name": "G#4",
          "midi": 68,
          "time": 63.80000000000032,
          "velocity": 0.3937007874015748,
          "duration": 0.10000000000000142
        },
        {
          "name": "F4",
          "midi": 65,
          "time": 63.80000000000032,
          "velocity": 0.3937007874015748,
          "duration": 0.10000000000000142
        },
        {
          "name": "F3",
          "midi": 53,
          "time": 63.80000000000032,
          "velocity": 0.3937007874015748,
          "duration": 0.10000000000000142
        },
        {
          "name": "F#4",
          "midi": 66,
          "time": 64.00000000000031,
          "velocity": 0.3937007874015748,
          "duration": 0.09999999999999432
        },
        {
          "name": "A#4",
          "midi": 70,
          "time": 64.00000000000031,
          "velocity": 0.3937007874015748,
          "duration": 0.09999999999999432
        },
        {
          "name": "F#3",
          "midi": 54,
          "time": 64.00000000000031,
          "velocity": 0.3937007874015748,
          "duration": 0.09999999999999432
        },
        {
          "name": "A#3",
          "midi": 58,
          "time": 64.00000000000031,
          "velocity": 0.3937007874015748,
          "duration": 0.09999999999999432
        },
        {
          "name": "F4",
          "midi": 65,
          "time": 64.6000000000003,
          "velocity": 0.3937007874015748,
          "duration": 0.09999999999999432
        },
        {
          "name": "F3",
          "midi": 53,
          "time": 64.6000000000003,
          "velocity": 0.3937007874015748,
          "duration": 0.09999999999999432
        },
        {
          "name": "D#4",
          "midi": 63,
          "time": 64.6000000000003,
          "velocity": 0.3937007874015748,
          "duration": 0.09999999999999432
        },
        {
          "name": "D#5",
          "midi": 75,
          "time": 64.6000000000003,
          "velocity": 0.3937007874015748,
          "duration": 0.09999999999999432
        },
        {
          "name": "A#3",
          "midi": 58,
          "time": 64.8000000000003,
          "velocity": 0.3937007874015748,
          "duration": 0.09999999999999432
        },
        {
          "name": "F#3",
          "midi": 54,
          "time": 64.8000000000003,
          "velocity": 0.3937007874015748,
          "duration": 0.09999999999999432
        },
        {
          "name": "F#4",
          "midi": 66,
          "time": 64.8000000000003,
          "velocity": 0.3937007874015748,
          "duration": 0.09999999999999432
        },
        {
          "name": "A#4",
          "midi": 70,
          "time": 64.8000000000003,
          "velocity": 0.3937007874015748,
          "duration": 0.09999999999999432
        },
        {
          "name": "A#4",
          "midi": 70,
          "time": 65.60000000000029,
          "velocity": 0.3937007874015748,
          "duration": 0.09999999999999432
        },
        {
          "name": "F#5",
          "midi": 78,
          "time": 65.60000000000029,
          "velocity": 0.3937007874015748,
          "duration": 0.09999999999999432
        },
        {
          "name": "A#3",
          "midi": 58,
          "time": 65.60000000000029,
          "velocity": 0.3937007874015748,
          "duration": 0.09999999999999432
        },
        {
          "name": "F#4",
          "midi": 66,
          "time": 65.60000000000029,
          "velocity": 0.3937007874015748,
          "duration": 0.09999999999999432
        },
        {
          "name": "C#5",
          "midi": 73,
          "time": 66.20000000000029,
          "velocity": 0.3937007874015748,
          "duration": 0.09999999999999432
        },
        {
          "name": "D#5",
          "midi": 75,
          "time": 66.30000000000028,
          "velocity": 0.3937007874015748,
          "duration": 0.09999999999999432
        },
        {
          "name": "F5",
          "midi": 77,
          "time": 66.40000000000028,
          "velocity": 0.3937007874015748,
          "duration": 0.09999999999999432
        },
        {
          "name": "G#4",
          "midi": 68,
          "time": 66.40000000000028,
          "velocity": 0.3937007874015748,
          "duration": 0.09999999999999432
        },
        {
          "name": "F4",
          "midi": 65,
          "time": 66.40000000000028,
          "velocity": 0.3937007874015748,
          "duration": 0.09999999999999432
        },
        {
          "name": "G#3",
          "midi": 56,
          "time": 66.40000000000028,
          "velocity": 0.3937007874015748,
          "duration": 0.09999999999999432
        },
        {
          "name": "F#5",
          "midi": 78,
          "time": 66.60000000000026,
          "velocity": 0.3937007874015748,
          "duration": 0.09999999999999432
        },
        {
          "name": "G#4",
          "midi": 68,
          "time": 66.60000000000026,
          "velocity": 0.3937007874015748,
          "duration": 0.09999999999999432
        },
        {
          "name": "F#4",
          "midi": 66,
          "time": 66.60000000000026,
          "velocity": 0.3937007874015748,
          "duration": 0.09999999999999432
        },
        {
          "name": "G#3",
          "midi": 56,
          "time": 66.60000000000026,
          "velocity": 0.3937007874015748,
          "duration": 0.09999999999999432
        },
        {
          "name": "A#5",
          "midi": 82,
          "time": 66.80000000000025,
          "velocity": 0.3937007874015748,
          "duration": 0.09999999999999432
        },
        {
          "name": "F5",
          "midi": 77,
          "time": 66.80000000000025,
          "velocity": 0.3937007874015748,
          "duration": 0.09999999999999432
        },
        {
          "name": "A#4",
          "midi": 70,
          "time": 66.80000000000025,
          "velocity": 0.3937007874015748,
          "duration": 0.09999999999999432
        },
        {
          "name": "F4",
          "midi": 65,
          "time": 66.80000000000025,
          "velocity": 0.3937007874015748,
          "duration": 0.09999999999999432
        },
        {
          "name": "C#5",
          "midi": 73,
          "time": 67.00000000000024,
          "velocity": 0.3937007874015748,
          "duration": 0.09999999999999432
        },
        {
          "name": "F4",
          "midi": 65,
          "time": 67.00000000000024,
          "velocity": 0.3937007874015748,
          "duration": 0.09999999999999432
        },
        {
          "name": "F3",
          "midi": 53,
          "time": 67.00000000000024,
          "velocity": 0.3937007874015748,
          "duration": 0.09999999999999432
        },
        {
          "name": "C#4",
          "midi": 61,
          "time": 67.00000000000024,
          "velocity": 0.3937007874015748,
          "duration": 0.09999999999999432
        },
        {
          "name": "B3",
          "midi": 59,
          "time": 67.20000000000023,
          "velocity": 0.3937007874015748,
          "duration": 0.09999999999999432
        },
        {
          "name": "D#4",
          "midi": 63,
          "time": 67.20000000000023,
          "velocity": 0.3937007874015748,
          "duration": 0.09999999999999432
        },
        {
          "name": "D#5",
          "midi": 75,
          "time": 67.20000000000023,
          "velocity": 0.3937007874015748,
          "duration": 0.09999999999999432
        },
        {
          "name": "B4",
          "midi": 71,
          "time": 67.20000000000023,
          "velocity": 0.3937007874015748,
          "duration": 0.09999999999999432
        },
        {
          "name": "A#4",
          "midi": 70,
          "time": 67.80000000000022,
          "velocity": 0.3937007874015748,
          "duration": 0.09999999999999432
        },
        {
          "name": "A#3",
          "midi": 58,
          "time": 67.80000000000022,
          "velocity": 0.3937007874015748,
          "duration": 0.09999999999999432
        },
        {
          "name": "A#5",
          "midi": 82,
          "time": 67.80000000000022,
          "velocity": 0.3937007874015748,
          "duration": 0.09999999999999432
        },
        {
          "name": "D#4",
          "midi": 63,
          "time": 68.00000000000021,
          "velocity": 0.3937007874015748,
          "duration": 0.09999999999999432
        },
        {
          "name": "B3",
          "midi": 59,
          "time": 68.00000000000021,
          "velocity": 0.3937007874015748,
          "duration": 0.09999999999999432
        },
        {
          "name": "B4",
          "midi": 71,
          "time": 68.00000000000021,
          "velocity": 0.3937007874015748,
          "duration": 0.09999999999999432
        },
        {
          "name": "D#5",
          "midi": 75,
          "time": 68.00000000000021,
          "velocity": 0.3937007874015748,
          "duration": 0.09999999999999432
        },
        {
          "name": "F#3",
          "midi": 54,
          "time": 69.00000000000021,
          "velocity": 0.3937007874015748,
          "duration": 0.09999999999999432
        },
        {
          "name": "F#4",
          "midi": 66,
          "time": 69.00000000000021,
          "velocity": 0.3937007874015748,
          "duration": 0.09999999999999432
        },
        {
          "name": "G#3",
          "midi": 56,
          "time": 69.2000000000002,
          "velocity": 0.3937007874015748,
          "duration": 0.09999999999999432
        },
        {
          "name": "G#4",
          "midi": 68,
          "time": 69.2000000000002,
          "velocity": 0.3937007874015748,
          "duration": 0.09999999999999432
        },
        {
          "name": "C#4",
          "midi": 61,
          "time": 69.2000000000002,
          "velocity": 0.3937007874015748,
          "duration": 0.09999999999999432
        },
        {
          "name": "C#5",
          "midi": 73,
          "time": 69.2000000000002,
          "velocity": 0.3937007874015748,
          "duration": 0.09999999999999432
        },
        {
          "name": "C#5",
          "midi": 73,
          "time": 69.8000000000002,
          "velocity": 0.3937007874015748,
          "duration": 0.09999999999999432
        },
        {
          "name": "F#5",
          "midi": 78,
          "time": 69.8000000000002,
          "velocity": 0.3937007874015748,
          "duration": 0.09999999999999432
        },
        {
          "name": "C#4",
          "midi": 61,
          "time": 69.8000000000002,
          "velocity": 0.3937007874015748,
          "duration": 0.09999999999999432
        },
        {
          "name": "F#4",
          "midi": 66,
          "time": 69.8000000000002,
          "velocity": 0.3937007874015748,
          "duration": 0.09999999999999432
        },
        {
          "name": "B3",
          "midi": 59,
          "time": 70.00000000000018,
          "velocity": 0.3937007874015748,
          "duration": 0.09999999999999432
        },
        {
          "name": "B4",
          "midi": 71,
          "time": 70.00000000000018,
          "velocity": 0.3937007874015748,
          "duration": 0.09999999999999432
        },
        {
          "name": "C#4",
          "midi": 61,
          "time": 70.20000000000017,
          "velocity": 0.3937007874015748,
          "duration": 0.09999999999999432
        },
        {
          "name": "C#5",
          "midi": 73,
          "time": 70.20000000000017,
          "velocity": 0.3937007874015748,
          "duration": 0.09999999999999432
        },
        {
          "name": "F#4",
          "midi": 66,
          "time": 70.40000000000016,
          "velocity": 0.3937007874015748,
          "duration": 0.09999999999999432
        },
        {
          "name": "F#5",
          "midi": 78,
          "time": 70.40000000000016,
          "velocity": 0.3937007874015748,
          "duration": 0.09999999999999432
        },
        {
          "name": "D#5",
          "midi": 75,
          "time": 70.40000000000016,
          "velocity": 0.3937007874015748,
          "duration": 0.09999999999999432
        },
        {
          "name": "D#4",
          "midi": 63,
          "time": 70.40000000000016,
          "velocity": 0.3937007874015748,
          "duration": 0.09999999999999432
        },
        {
          "name": "A#4",
          "midi": 70,
          "time": 71.00000000000016,
          "velocity": 0.3937007874015748,
          "duration": 0.09999999999999432
        },
        {
          "name": "A#3",
          "midi": 58,
          "time": 71.00000000000016,
          "velocity": 0.3937007874015748,
          "duration": 0.09999999999999432
        },
        {
          "name": "A#5",
          "midi": 82,
          "time": 71.00000000000016,
          "velocity": 0.3937007874015748,
          "duration": 0.09999999999999432
        },
        {
          "name": "F#4",
          "midi": 66,
          "time": 71.20000000000014,
          "velocity": 0.3937007874015748,
          "duration": 0.09999999999999432
        },
        {
          "name": "F#5",
          "midi": 78,
          "time": 71.20000000000014,
          "velocity": 0.3937007874015748,
          "duration": 0.09999999999999432
        },
        {
          "name": "D#5",
          "midi": 75,
          "time": 71.20000000000014,
          "velocity": 0.3937007874015748,
          "duration": 0.09999999999999432
        },
        {
          "name": "D#4",
          "midi": 63,
          "time": 71.20000000000014,
          "velocity": 0.3937007874015748,
          "duration": 0.09999999999999432
        },
        {
          "name": "D#6",
          "midi": 87,
          "time": 72.00000000000014,
          "velocity": 0.3937007874015748,
          "duration": 0.09999999999999432
        },
        {
          "name": "F#5",
          "midi": 78,
          "time": 72.00000000000014,
          "velocity": 0.3937007874015748,
          "duration": 0.09999999999999432
        },
        {
          "name": "F#4",
          "midi": 66,
          "time": 72.00000000000014,
          "velocity": 0.3937007874015748,
          "duration": 0.09999999999999432
        },
        {
          "name": "D#5",
          "midi": 75,
          "time": 72.00000000000014,
          "velocity": 0.3937007874015748,
          "duration": 0.09999999999999432
        },
        {
          "name": "G#5",
          "midi": 80,
          "time": 72.60000000000014,
          "velocity": 0.3937007874015748,
          "duration": 0.09999999999999432
        },
        {
          "name": "A#5",
          "midi": 82,
          "time": 72.70000000000013,
          "velocity": 0.3937007874015748,
          "duration": 0.09999999999999432
        },
        {
          "name": "F5",
          "midi": 77,
          "time": 72.80000000000013,
          "velocity": 0.3937007874015748,
          "duration": 0.09999999999999432
        },
        {
          "name": "C#5",
          "midi": 73,
          "time": 72.80000000000013,
          "velocity": 0.3937007874015748,
          "duration": 0.09999999999999432
        },
        {
          "name": "F4",
          "midi": 65,
          "time": 72.80000000000013,
          "velocity": 0.3937007874015748,
          "duration": 0.09999999999999432
        },
        {
          "name": "C#6",
          "midi": 85,
          "time": 72.80000000000013,
          "velocity": 0.3937007874015748,
          "duration": 0.09999999999999432
        },
        {
          "name": "F5",
          "midi": 77,
          "time": 73.00000000000011,
          "velocity": 0.3937007874015748,
          "duration": 0.09999999999999432
        },
        {
          "name": "G#4",
          "midi": 68,
          "time": 73.00000000000011,
          "velocity": 0.3937007874015748,
          "duration": 0.09999999999999432
        },
        {
          "name": "F4",
          "midi": 65,
          "time": 73.00000000000011,
          "velocity": 0.3937007874015748,
          "duration": 0.09999999999999432
        },
        {
          "name": "G#5",
          "midi": 80,
          "time": 73.00000000000011,
          "velocity": 0.3937007874015748,
          "duration": 0.09999999999999432
        },
        {
          "name": "C#5",
          "midi": 73,
          "time": 73.2000000000001,
          "velocity": 0.3937007874015748,
          "duration": 0.09999999999999432
        },
        {
          "name": "F4",
          "midi": 65,
          "time": 73.2000000000001,
          "velocity": 0.3937007874015748,
          "duration": 0.09999999999999432
        },
        {
          "name": "C#4",
          "midi": 61,
          "time": 73.2000000000001,
          "velocity": 0.3937007874015748,
          "duration": 0.09999999999999432
        },
        {
          "name": "F5",
          "midi": 77,
          "time": 73.2000000000001,
          "velocity": 0.3937007874015748,
          "duration": 0.09999999999999432
        },
        {
          "name": "F5",
          "midi": 77,
          "time": 73.40000000000009,
          "velocity": 0.3937007874015748,
          "duration": 0.09999999999999432
        },
        {
          "name": "G#4",
          "midi": 68,
          "time": 73.40000000000009,
          "velocity": 0.3937007874015748,
          "duration": 0.09999999999999432
        },
        {
          "name": "F4",
          "midi": 65,
          "time": 73.40000000000009,
          "velocity": 0.3937007874015748,
          "duration": 0.09999999999999432
        },
        {
          "name": "G#5",
          "midi": 80,
          "time": 73.40000000000009,
          "velocity": 0.3937007874015748,
          "duration": 0.09999999999999432
        },
        {
          "name": "F#4",
          "midi": 66,
          "time": 73.60000000000008,
          "velocity": 0.3937007874015748,
          "duration": 0.09999999999999432
        },
        {
          "name": "F#5",
          "midi": 78,
          "time": 73.60000000000008,
          "velocity": 0.3937007874015748,
          "duration": 0.09999999999999432
        },
        {
          "name": "D#5",
          "midi": 75,
          "time": 73.60000000000008,
          "velocity": 0.3937007874015748,
          "duration": 0.09999999999999432
        },
        {
          "name": "D#4",
          "midi": 63,
          "time": 73.60000000000008,
          "velocity": 0.3937007874015748,
          "duration": 0.09999999999999432
        },
        {
          "name": "A#4",
          "midi": 70,
          "time": 74.20000000000007,
          "velocity": 0.3937007874015748,
          "duration": 0.09999999999999432
        },
        {
          "name": "A#5",
          "midi": 82,
          "time": 74.20000000000007,
          "velocity": 0.3937007874015748,
          "duration": 0.09999999999999432
        },
        {
          "name": "A#3",
          "midi": 58,
          "time": 74.20000000000007,
          "velocity": 0.3937007874015748,
          "duration": 0.09999999999999432
        },
        {
          "name": "F#4",
          "midi": 66,
          "time": 74.40000000000006,
          "velocity": 0.3937007874015748,
          "duration": 0.09999999999999432
        },
        {
          "name": "F#5",
          "midi": 78,
          "time": 74.40000000000006,
          "velocity": 0.3937007874015748,
          "duration": 0.09999999999999432
        },
        {
          "name": "D#5",
          "midi": 75,
          "time": 74.40000000000006,
          "velocity": 0.3937007874015748,
          "duration": 0.09999999999999432
        },
        {
          "name": "D#4",
          "midi": 63,
          "time": 74.40000000000006,
          "velocity": 0.3937007874015748,
          "duration": 0.09999999999999432
        },
        {
          "name": "F#5",
          "midi": 78,
          "time": 75.20000000000006,
          "velocity": 0.3937007874015748,
          "duration": 0.09999999999999432
        },
        {
          "name": "D#5",
          "midi": 75,
          "time": 75.20000000000006,
          "velocity": 0.3937007874015748,
          "duration": 0.09999999999999432
        },
        {
          "name": "F#4",
          "midi": 66,
          "time": 75.20000000000006,
          "velocity": 0.3937007874015748,
          "duration": 0.09999999999999432
        },
        {
          "name": "D#6",
          "midi": 87,
          "time": 75.20000000000006,
          "velocity": 0.3937007874015748,
          "duration": 0.09999999999999432
        },
        {
          "name": "G#5",
          "midi": 80,
          "time": 76.10000000000005,
          "velocity": 0.3937007874015748,
          "duration": 0.09999999999999432
        },
        {
          "name": "F#5",
          "midi": 78,
          "time": 76.20000000000005,
          "velocity": 0.3937007874015748,
          "duration": 0.09999999999999432
        },
        {
          "name": "C#5",
          "midi": 73,
          "time": 76.30000000000004,
          "velocity": 0.3937007874015748,
          "duration": 0.09999999999999432
        },
        {
          "name": "B4",
          "midi": 71,
          "time": 76.40000000000003,
          "velocity": 0.3937007874015748,
          "duration": 0.09999999999999432
        },
        {
          "name": "F#5",
          "midi": 78,
          "time": 76.50000000000003,
          "velocity": 0.3937007874015748,
          "duration": 0.09999999999999432
        },
        {
          "name": "A#4",
          "midi": 70,
          "time": 76.60000000000002,
          "velocity": 0.3937007874015748,
          "duration": 0.09999999999999432
        },
        {
          "name": "G#4",
          "midi": 68,
          "time": 76.70000000000002,
          "velocity": 0.3937007874015748,
          "duration": 0.09999999999999432
        },
        {
          "name": "F#4",
          "midi": 66,
          "time": 76.80000000000001,
          "velocity": 0.3937007874015748,
          "duration": 0.09999999999999432
        },
        {
          "name": "F#5",
          "midi": 78,
          "time": 76.80000000000001,
          "velocity": 0.3937007874015748,
          "duration": 0.09999999999999432
        },
        {
          "name": "D#5",
          "midi": 75,
          "time": 76.80000000000001,
          "velocity": 0.3937007874015748,
          "duration": 0.09999999999999432
        },
        {
          "name": "D#4",
          "midi": 63,
          "time": 76.80000000000001,
          "velocity": 0.3937007874015748,
          "duration": 0.09999999999999432
        },
        {
          "name": "A#4",
          "midi": 70,
          "time": 77.4,
          "velocity": 0.3937007874015748,
          "duration": 0.09999999999999432
        },
        {
          "name": "A#5",
          "midi": 82,
          "time": 77.4,
          "velocity": 0.3937007874015748,
          "duration": 0.09999999999999432
        },
        {
          "name": "A#3",
          "midi": 58,
          "time": 77.4,
          "velocity": 0.3937007874015748,
          "duration": 0.09999999999999432
        },
        {
          "name": "F#4",
          "midi": 66,
          "time": 77.6,
          "velocity": 0.3937007874015748,
          "duration": 0.09999999999999432
        },
        {
          "name": "F#5",
          "midi": 78,
          "time": 77.6,
          "velocity": 0.3937007874015748,
          "duration": 0.09999999999999432
        },
        {
          "name": "D#5",
          "midi": 75,
          "time": 77.6,
          "velocity": 0.3937007874015748,
          "duration": 0.09999999999999432
        },
        {
          "name": "D#4",
          "midi": 63,
          "time": 77.6,
          "velocity": 0.3937007874015748,
          "duration": 0.09999999999999432
        },
        {
          "name": "F#4",
          "midi": 66,
          "time": 78.39999999999999,
          "velocity": 0.3937007874015748,
          "duration": 0.09999999999999432
        },
        {
          "name": "D#6",
          "midi": 87,
          "time": 78.39999999999999,
          "velocity": 0.3937007874015748,
          "duration": 0.09999999999999432
        },
        {
          "name": "F#5",
          "midi": 78,
          "time": 78.39999999999999,
          "velocity": 0.3937007874015748,
          "duration": 0.09999999999999432
        },
        {
          "name": "D#5",
          "midi": 75,
          "time": 78.39999999999999,
          "velocity": 0.3937007874015748,
          "duration": 0.09999999999999432
        },
        {
          "name": "C#5",
          "midi": 73,
          "time": 78.99999999999999,
          "velocity": 0.3937007874015748,
          "duration": 0.09999999999999432
        },
        {
          "name": "D#5",
          "midi": 75,
          "time": 79.09999999999998,
          "velocity": 0.3937007874015748,
          "duration": 0.09999999999999432
        },
        {
          "name": "G#4",
          "midi": 68,
          "time": 79.19999999999997,
          "velocity": 0.3937007874015748,
          "duration": 0.09999999999999432
        },
        {
          "name": "F5",
          "midi": 77,
          "time": 79.19999999999997,
          "velocity": 0.3937007874015748,
          "duration": 0.09999999999999432
        },
        {
          "name": "F4",
          "midi": 65,
          "time": 79.19999999999997,
          "velocity": 0.3937007874015748,
          "duration": 0.09999999999999432
        },
        {
          "name": "G#3",
          "midi": 56,
          "time": 79.19999999999997,
          "velocity": 0.3937007874015748,
          "duration": 0.09999999999999432
        },
        {
          "name": "G#4",
          "midi": 68,
          "time": 79.39999999999996,
          "velocity": 0.3937007874015748,
          "duration": 0.09999999999999432
        },
        {
          "name": "F#5",
          "midi": 78,
          "time": 79.39999999999996,
          "velocity": 0.3937007874015748,
          "duration": 0.09999999999999432
        },
        {
          "name": "F#4",
          "midi": 66,
          "time": 79.39999999999996,
          "velocity": 0.3937007874015748,
          "duration": 0.09999999999999432
        },
        {
          "name": "G#3",
          "midi": 56,
          "time": 79.39999999999996,
          "velocity": 0.3937007874015748,
          "duration": 0.09999999999999432
        },
        {
          "name": "F5",
          "midi": 77,
          "time": 79.59999999999995,
          "velocity": 0.3937007874015748,
          "duration": 0.09999999999999432
        },
        {
          "name": "A#5",
          "midi": 82,
          "time": 79.59999999999995,
          "velocity": 0.3937007874015748,
          "duration": 0.09999999999999432
        },
        {
          "name": "A#4",
          "midi": 70,
          "time": 79.59999999999995,
          "velocity": 0.3937007874015748,
          "duration": 0.09999999999999432
        },
        {
          "name": "F4",
          "midi": 65,
          "time": 79.59999999999995,
          "velocity": 0.3937007874015748,
          "duration": 0.09999999999999432
        },
        {
          "name": "G#4",
          "midi": 68,
          "time": 79.79999999999994,
          "velocity": 0.3937007874015748,
          "duration": 0.09999999999999432
        },
        {
          "name": "C#5",
          "midi": 73,
          "time": 79.79999999999994,
          "velocity": 0.3937007874015748,
          "duration": 0.09999999999999432
        },
        {
          "name": "C#4",
          "midi": 61,
          "time": 79.79999999999994,
          "velocity": 0.3937007874015748,
          "duration": 0.09999999999999432
        },
        {
          "name": "G#3",
          "midi": 56,
          "time": 79.79999999999994,
          "velocity": 0.3937007874015748,
          "duration": 0.09999999999999432
        },
        {
          "name": "D#5",
          "midi": 75,
          "time": 79.99999999999993,
          "velocity": 0.3937007874015748,
          "duration": 0.09999999999999432
        },
        {
          "name": "B4",
          "midi": 71,
          "time": 79.99999999999993,
          "velocity": 0.3937007874015748,
          "duration": 0.09999999999999432
        },
        {
          "name": "D#4",
          "midi": 63,
          "time": 79.99999999999993,
          "velocity": 0.3937007874015748,
          "duration": 0.09999999999999432
        },
        {
          "name": "B3",
          "midi": 59,
          "time": 79.99999999999993,
          "velocity": 0.3937007874015748,
          "duration": 0.09999999999999432
        },
        {
          "name": "A#5",
          "midi": 82,
          "time": 80.59999999999992,
          "velocity": 0.3937007874015748,
          "duration": 0.09999999999999432
        },
        {
          "name": "A#3",
          "midi": 58,
          "time": 80.59999999999992,
          "velocity": 0.3937007874015748,
          "duration": 0.09999999999999432
        },
        {
          "name": "D#5",
          "midi": 75,
          "time": 80.79999999999991,
          "velocity": 0.3937007874015748,
          "duration": 0.09999999999999432
        },
        {
          "name": "B4",
          "midi": 71,
          "time": 80.79999999999991,
          "velocity": 0.3937007874015748,
          "duration": 0.09999999999999432
        },
        {
          "name": "D#4",
          "midi": 63,
          "time": 80.79999999999991,
          "velocity": 0.3937007874015748,
          "duration": 0.09999999999999432
        },
        {
          "name": "B3",
          "midi": 59,
          "time": 80.79999999999991,
          "velocity": 0.3937007874015748,
          "duration": 0.09999999999999432
        },
        {
          "name": "A#4",
          "midi": 70,
          "time": 82.1999999999999,
          "velocity": 0.3937007874015748,
          "duration": 0.09999999999999432
        },
        {
          "name": "F#4",
          "midi": 66,
          "time": 82.39999999999989,
          "velocity": 0.3937007874015748,
          "duration": 0.09999999999999432
        },
        {
          "name": "G4",
          "midi": 67,
          "time": 83.19999999999989,
          "velocity": 0.3937007874015748,
          "duration": 0.09999999999999432
        },
        {
          "name": "A4",
          "midi": 69,
          "time": 83.29999999999988,
          "velocity": 0.3937007874015748,
          "duration": 0.09999999999999432
        },
        {
          "name": "B4",
          "midi": 71,
          "time": 83.39999999999988,
          "velocity": 0.3937007874015748,
          "duration": 0.09999999999999432
        },
        {
          "name": "E5",
          "midi": 76,
          "time": 83.49999999999987,
          "velocity": 0.3937007874015748,
          "duration": 0.09999999999999432
        },
        {
          "name": "B4",
          "midi": 71,
          "time": 83.59999999999987,
          "velocity": 0.3937007874015748,
          "duration": 0.09999999999999432
        },
        {
          "name": "D5",
          "midi": 74,
          "time": 83.69999999999986,
          "velocity": 0.3937007874015748,
          "duration": 0.09999999999999432
        },
        {
          "name": "A4",
          "midi": 69,
          "time": 83.79999999999986,
          "velocity": 0.3937007874015748,
          "duration": 0.09999999999999432
        },
        {
          "name": "B4",
          "midi": 71,
          "time": 83.89999999999985,
          "velocity": 0.3937007874015748,
          "duration": 0.09999999999999432
        },
        {
          "name": "G4",
          "midi": 67,
          "time": 83.99999999999984,
          "velocity": 0.3937007874015748,
          "duration": 0.09999999999999432
        },
        {
          "name": "A4",
          "midi": 69,
          "time": 84.09999999999984,
          "velocity": 0.3937007874015748,
          "duration": 0.09999999999999432
        },
        {
          "name": "F#4",
          "midi": 66,
          "time": 84.19999999999983,
          "velocity": 0.3937007874015748,
          "duration": 0.09999999999999432
        },
        {
          "name": "G4",
          "midi": 67,
          "time": 84.29999999999983,
          "velocity": 0.3937007874015748,
          "duration": 0.09999999999999432
        },
        {
          "name": "E4",
          "midi": 64,
          "time": 84.39999999999982,
          "velocity": 0.3937007874015748,
          "duration": 0.09999999999999432
        },
        {
          "name": "F#4",
          "midi": 66,
          "time": 84.49999999999982,
          "velocity": 0.3937007874015748,
          "duration": 0.09999999999999432
        },
        {
          "name": "D4",
          "midi": 62,
          "time": 84.59999999999981,
          "velocity": 0.3937007874015748,
          "duration": 0.09999999999999432
        },
        {
          "name": "E4",
          "midi": 64,
          "time": 84.6999999999998,
          "velocity": 0.3937007874015748,
          "duration": 0.09999999999999432
        },
        {
          "name": "A3",
          "midi": 57,
          "time": 84.7999999999998,
          "velocity": 0.3937007874015748,
          "duration": 0.09999999999999432
        },
        {
          "name": "B3",
          "midi": 59,
          "time": 84.89999999999979,
          "velocity": 0.3937007874015748,
          "duration": 0.09999999999999432
        },
        {
          "name": "G3",
          "midi": 55,
          "time": 84.99999999999979,
          "velocity": 0.3937007874015748,
          "duration": 0.09999999999999432
        },
        {
          "name": "D4",
          "midi": 62,
          "time": 85.09999999999978,
          "velocity": 0.3937007874015748,
          "duration": 0.09999999999999432
        },
        {
          "name": "G4",
          "midi": 67,
          "time": 85.19999999999978,
          "velocity": 0.3937007874015748,
          "duration": 0.09999999999999432
        },
        {
          "name": "F#4",
          "midi": 66,
          "time": 85.29999999999977,
          "velocity": 0.3937007874015748,
          "duration": 0.09999999999999432
        },
        {
          "name": "D4",
          "midi": 62,
          "time": 85.39999999999976,
          "velocity": 0.3937007874015748,
          "duration": 0.09999999999999432
        },
        {
          "name": "E4",
          "midi": 64,
          "time": 85.49999999999976,
          "velocity": 0.3937007874015748,
          "duration": 0.09999999999999432
        },
        {
          "name": "B3",
          "midi": 59,
          "time": 85.59999999999975,
          "velocity": 0.3937007874015748,
          "duration": 0.09999999999999432
        },
        {
          "name": "D4",
          "midi": 62,
          "time": 85.69999999999975,
          "velocity": 0.3937007874015748,
          "duration": 0.09999999999999432
        },
        {
          "name": "E4",
          "midi": 64,
          "time": 85.79999999999974,
          "velocity": 0.3937007874015748,
          "duration": 0.09999999999999432
        },
        {
          "name": "F#4",
          "midi": 66,
          "time": 85.89999999999974,
          "velocity": 0.3937007874015748,
          "duration": 0.09999999999999432
        },
        {
          "name": "G4",
          "midi": 67,
          "time": 85.99999999999973,
          "velocity": 0.3937007874015748,
          "duration": 0.09999999999999432
        },
        {
          "name": "A4",
          "midi": 69,
          "time": 86.09999999999972,
          "velocity": 0.3937007874015748,
          "duration": 0.09999999999999432
        },
        {
          "name": "B4",
          "midi": 71,
          "time": 86.19999999999972,
          "velocity": 0.3937007874015748,
          "duration": 0.09999999999999432
        },
        {
          "name": "C5",
          "midi": 72,
          "time": 86.29999999999971,
          "velocity": 0.3937007874015748,
          "duration": 0.09999999999999432
        },
        {
          "name": "B4",
          "midi": 71,
          "time": 86.39999999999971,
          "velocity": 0.3937007874015748,
          "duration": 0.09999999999999432
        },
        {
          "name": "G4",
          "midi": 67,
          "time": 86.4999999999997,
          "velocity": 0.3937007874015748,
          "duration": 0.09999999999999432
        },
        {
          "name": "B4",
          "midi": 71,
          "time": 86.5999999999997,
          "velocity": 0.3937007874015748,
          "duration": 0.09999999999999432
        },
        {
          "name": "A4",
          "midi": 69,
          "time": 86.69999999999969,
          "velocity": 0.3937007874015748,
          "duration": 0.09999999999999432
        },
        {
          "name": "F#4",
          "midi": 66,
          "time": 86.79999999999968,
          "velocity": 0.3937007874015748,
          "duration": 0.09999999999999432
        },
        {
          "name": "A4",
          "midi": 69,
          "time": 86.89999999999968,
          "velocity": 0.3937007874015748,
          "duration": 0.09999999999999432
        },
        {
          "name": "G4",
          "midi": 67,
          "time": 86.99999999999967,
          "velocity": 0.3937007874015748,
          "duration": 0.09999999999999432
        },
        {
          "name": "E4",
          "midi": 64,
          "time": 87.09999999999967,
          "velocity": 0.3937007874015748,
          "duration": 0.09999999999999432
        },
        {
          "name": "G4",
          "midi": 67,
          "time": 87.19999999999966,
          "velocity": 0.3937007874015748,
          "duration": 0.09999999999999432
        },
        {
          "name": "F#4",
          "midi": 66,
          "time": 87.29999999999966,
          "velocity": 0.3937007874015748,
          "duration": 0.09999999999999432
        },
        {
          "name": "D4",
          "midi": 62,
          "time": 87.39999999999965,
          "velocity": 0.3937007874015748,
          "duration": 0.09999999999999432
        },
        {
          "name": "E4",
          "midi": 64,
          "time": 87.49999999999964,
          "velocity": 0.3937007874015748,
          "duration": 0.09999999999999432
        },
        {
          "name": "D4",
          "midi": 62,
          "time": 87.59999999999964,
          "velocity": 0.3937007874015748,
          "duration": 0.09999999999999432
        },
        {
          "name": "A3",
          "midi": 57,
          "time": 87.69999999999963,
          "velocity": 0.3937007874015748,
          "duration": 0.09999999999999432
        },
        {
          "name": "B3",
          "midi": 59,
          "time": 87.79999999999963,
          "velocity": 0.3937007874015748,
          "duration": 0.09999999999999432
        },
        {
          "name": "G3",
          "midi": 55,
          "time": 87.89999999999962,
          "velocity": 0.3937007874015748,
          "duration": 0.09999999999999432
        },
        {
          "name": "A3",
          "midi": 57,
          "time": 87.99999999999962,
          "velocity": 0.3937007874015748,
          "duration": 0.09999999999999432
        },
        {
          "name": "F#3",
          "midi": 54,
          "time": 88.09999999999961,
          "velocity": 0.3937007874015748,
          "duration": 0.09999999999999432
        },
        {
          "name": "G3",
          "midi": 55,
          "time": 88.1999999999996,
          "velocity": 0.3937007874015748,
          "duration": 0.09999999999999432
        },
        {
          "name": "E3",
          "midi": 52,
          "time": 88.2999999999996,
          "velocity": 0.3937007874015748,
          "duration": 0.09999999999999432
        },
        {
          "name": "F#3",
          "midi": 54,
          "time": 88.3999999999996,
          "velocity": 0.3937007874015748,
          "duration": 0.09999999999999432
        },
        {
          "name": "D3",
          "midi": 50,
          "time": 88.49999999999959,
          "velocity": 0.3937007874015748,
          "duration": 0.09999999999999432
        },
        {
          "name": "E3",
          "midi": 52,
          "time": 88.59999999999958,
          "velocity": 0.3937007874015748,
          "duration": 0.09999999999999432
        },
        {
          "name": "B2",
          "midi": 47,
          "time": 88.69999999999958,
          "velocity": 0.3937007874015748,
          "duration": 0.09999999999999432
        },
        {
          "name": "D3",
          "midi": 50,
          "time": 88.79999999999957,
          "velocity": 0.3937007874015748,
          "duration": 0.09999999999999432
        },
        {
          "name": "A2",
          "midi": 45,
          "time": 88.89999999999957,
          "velocity": 0.3937007874015748,
          "duration": 0.09999999999999432
        },
        {
          "name": "B2",
          "midi": 47,
          "time": 88.99999999999956,
          "velocity": 0.3937007874015748,
          "duration": 0.09999999999999432
        },
        {
          "name": "E3",
          "midi": 52,
          "time": 89.09999999999955,
          "velocity": 0.3937007874015748,
          "duration": 0.09999999999999432
        },
        {
          "name": "A2",
          "midi": 45,
          "time": 89.19999999999955,
          "velocity": 0.3937007874015748,
          "duration": 0.09999999999999432
        },
        {
          "name": "B2",
          "midi": 47,
          "time": 89.29999999999954,
          "velocity": 0.3937007874015748,
          "duration": 0.09999999999999432
        },
        {
          "name": "E3",
          "midi": 52,
          "time": 89.39999999999954,
          "velocity": 0.3937007874015748,
          "duration": 0.09999999999999432
        },
        {
          "name": "F#3",
          "midi": 54,
          "time": 89.49999999999953,
          "velocity": 0.3937007874015748,
          "duration": 0.09999999999999432
        },
        {
          "name": "B3",
          "midi": 59,
          "time": 89.59999999999953,
          "velocity": 0.3937007874015748,
          "duration": 0.09999999999999432
        },
        {
          "name": "A3",
          "midi": 57,
          "time": 89.69999999999952,
          "velocity": 0.3937007874015748,
          "duration": 0.09999999999999432
        },
        {
          "name": "B3",
          "midi": 59,
          "time": 89.79999999999951,
          "velocity": 0.3937007874015748,
          "duration": 0.09999999999999432
        },
        {
          "name": "E4",
          "midi": 64,
          "time": 89.89999999999951,
          "velocity": 0.3937007874015748,
          "duration": 0.09999999999999432
        },
        {
          "name": "B3",
          "midi": 59,
          "time": 90.0999999999995,
          "velocity": 0.3937007874015748,
          "duration": 0.09999999999999432
        },
        {
          "name": "A3",
          "midi": 57,
          "time": 90.19999999999949,
          "velocity": 0.3937007874015748,
          "duration": 0.09999999999999432
        },
        {
          "name": "B3",
          "midi": 59,
          "time": 90.29999999999949,
          "velocity": 0.3937007874015748,
          "duration": 0.09999999999999432
        },
        {
          "name": "D4",
          "midi": 62,
          "time": 90.39999999999948,
          "velocity": 0.3937007874015748,
          "duration": 0.09999999999999432
        },
        {
          "name": "E4",
          "midi": 64,
          "time": 90.49999999999947,
          "velocity": 0.3937007874015748,
          "duration": 0.09999999999999432
        },
        {
          "name": "F#4",
          "midi": 66,
          "time": 90.59999999999947,
          "velocity": 0.3937007874015748,
          "duration": 0.09999999999999432
        },
        {
          "name": "B3",
          "midi": 59,
          "time": 90.79999999999946,
          "velocity": 0.3937007874015748,
          "duration": 0.09999999999999432
        },
        {
          "name": "A3",
          "midi": 57,
          "time": 90.89999999999945,
          "velocity": 0.3937007874015748,
          "duration": 0.09999999999999432
        },
        {
          "name": "B3",
          "midi": 59,
          "time": 90.99999999999945,
          "velocity": 0.3937007874015748,
          "duration": 0.09999999999999432
        },
        {
          "name": "E4",
          "midi": 64,
          "time": 91.09999999999944,
          "velocity": 0.3937007874015748,
          "duration": 0.09999999999999432
        },
        {
          "name": "B3",
          "midi": 59,
          "time": 91.19999999999943,
          "velocity": 0.3937007874015748,
          "duration": 0.09999999999999432
        },
        {
          "name": "A3",
          "midi": 57,
          "time": 91.29999999999943,
          "velocity": 0.3937007874015748,
          "duration": 0.09999999999999432
        },
        {
          "name": "B3",
          "midi": 59,
          "time": 91.39999999999942,
          "velocity": 0.3937007874015748,
          "duration": 0.09999999999999432
        },
        {
          "name": "F#4",
          "midi": 66,
          "time": 91.49999999999942,
          "velocity": 0.3937007874015748,
          "duration": 0.09999999999999432
        },
        {
          "name": "G4",
          "midi": 67,
          "time": 91.59999999999941,
          "velocity": 0.3937007874015748,
          "duration": 0.09999999999999432
        },
        {
          "name": "B3",
          "midi": 59,
          "time": 91.6999999999994,
          "velocity": 0.3937007874015748,
          "duration": 0.09999999999999432
        },
        {
          "name": "F#4",
          "midi": 66,
          "time": 91.7999999999994,
          "velocity": 0.3937007874015748,
          "duration": 0.09999999999999432
        },
        {
          "name": "G3",
          "midi": 55,
          "time": 91.8999999999994,
          "velocity": 0.3937007874015748,
          "duration": 0.09999999999999432
        },
        {
          "name": "E4",
          "midi": 64,
          "time": 91.99999999999939,
          "velocity": 0.3937007874015748,
          "duration": 0.09999999999999432
        },
        {
          "name": "F#3",
          "midi": 54,
          "time": 92.09999999999938,
          "velocity": 0.3937007874015748,
          "duration": 0.09999999999999432
        },
        {
          "name": "D4",
          "midi": 62,
          "time": 92.19999999999938,
          "velocity": 0.3937007874015748,
          "duration": 0.09999999999999432
        },
        {
          "name": "E3",
          "midi": 52,
          "time": 92.29999999999937,
          "velocity": 0.3937007874015748,
          "duration": 0.09999999999999432
        },
        {
          "name": "B3",
          "midi": 59,
          "time": 92.39999999999937,
          "velocity": 0.3937007874015748,
          "duration": 0.09999999999999432
        },
        {
          "name": "A3",
          "midi": 57,
          "time": 92.49999999999936,
          "velocity": 0.3937007874015748,
          "duration": 0.09999999999999432
        },
        {
          "name": "G3",
          "midi": 55,
          "time": 92.59999999999935,
          "velocity": 0.3937007874015748,
          "duration": 0.09999999999999432
        },
        {
          "name": "A3",
          "midi": 57,
          "time": 92.69999999999935,
          "velocity": 0.3937007874015748,
          "duration": 0.09999999999999432
        },
        {
          "name": "D#3",
          "midi": 51,
          "time": 92.79999999999934,
          "velocity": 0.3937007874015748,
          "duration": 0.09999999999999432
        },
        {
          "name": "E3",
          "midi": 52,
          "time": 92.89999999999934,
          "velocity": 0.3937007874015748,
          "duration": 0.09999999999999432
        },
        {
          "name": "F#3",
          "midi": 54,
          "time": 92.99999999999933,
          "velocity": 0.3937007874015748,
          "duration": 0.09999999999999432
        },
        {
          "name": "B3",
          "midi": 59,
          "time": 93.09999999999933,
          "velocity": 0.3937007874015748,
          "duration": 0.09999999999999432
        },
        {
          "name": "D#4",
          "midi": 63,
          "time": 93.19999999999932,
          "velocity": 0.3937007874015748,
          "duration": 0.09999999999999432
        },
        {
          "name": "E4",
          "midi": 64,
          "time": 93.29999999999932,
          "velocity": 0.3937007874015748,
          "duration": 0.09999999999999432
        },
        {
          "name": "F#4",
          "midi": 66,
          "time": 93.39999999999931,
          "velocity": 0.3937007874015748,
          "duration": 0.09999999999999432
        },
        {
          "name": "B4",
          "midi": 71,
          "time": 93.4999999999993,
          "velocity": 0.3937007874015748,
          "duration": 0.09999999999999432
        },
        {
          "name": "F#4",
          "midi": 66,
          "time": 93.5999999999993,
          "velocity": 0.3937007874015748,
          "duration": 0.09999999999999432
        },
        {
          "name": "D#5",
          "midi": 75,
          "time": 93.69999999999929,
          "velocity": 0.3937007874015748,
          "duration": 0.09999999999999432
        },
        {
          "name": "F#4",
          "midi": 66,
          "time": 93.79999999999929,
          "velocity": 0.3937007874015748,
          "duration": 0.09999999999999432
        },
        {
          "name": "E4",
          "midi": 64,
          "time": 93.89999999999928,
          "velocity": 0.3937007874015748,
          "duration": 0.09999999999999432
        },
        {
          "name": "D#4",
          "midi": 63,
          "time": 93.99999999999928,
          "velocity": 0.3937007874015748,
          "duration": 0.09999999999999432
        },
        {
          "name": "E4",
          "midi": 64,
          "time": 94.09999999999927,
          "velocity": 0.3937007874015748,
          "duration": 0.09999999999999432
        },
        {
          "name": "F#4",
          "midi": 66,
          "time": 94.19999999999926,
          "velocity": 0.3937007874015748,
          "duration": 0.09999999999999432
        },
        {
          "name": "B3",
          "midi": 59,
          "time": 94.29999999999926,
          "velocity": 0.3937007874015748,
          "duration": 0.09999999999999432
        },
        {
          "name": "D#4",
          "midi": 63,
          "time": 94.39999999999925,
          "velocity": 0.3937007874015748,
          "duration": 0.09999999999999432
        },
        {
          "name": "E4",
          "midi": 64,
          "time": 94.49999999999925,
          "velocity": 0.3937007874015748,
          "duration": 0.09999999999999432
        },
        {
          "name": "F#4",
          "midi": 66,
          "time": 94.59999999999924,
          "velocity": 0.3937007874015748,
          "duration": 0.09999999999999432
        },
        {
          "name": "D#4",
          "midi": 63,
          "time": 94.69999999999924,
          "velocity": 0.3937007874015748,
          "duration": 0.09999999999999432
        },
        {
          "name": "B3",
          "midi": 59,
          "time": 94.79999999999923,
          "velocity": 0.3937007874015748,
          "duration": 0.09999999999999432
        },
        {
          "name": "A3",
          "midi": 57,
          "time": 94.89999999999922,
          "velocity": 0.3937007874015748,
          "duration": 0.09999999999999432
        },
        {
          "name": "G3",
          "midi": 55,
          "time": 94.99999999999922,
          "velocity": 0.3937007874015748,
          "duration": 0.09999999999999432
        },
        {
          "name": "F#3",
          "midi": 54,
          "time": 95.09999999999921,
          "velocity": 0.3937007874015748,
          "duration": 0.09999999999999432
        },
        {
          "name": "G3",
          "midi": 55,
          "time": 95.1999999999992,
          "velocity": 0.3937007874015748,
          "duration": 0.09999999999999432
        },
        {
          "name": "F#3",
          "midi": 54,
          "time": 95.2999999999992,
          "velocity": 0.3937007874015748,
          "duration": 0.09999999999999432
        },
        {
          "name": "B2",
          "midi": 47,
          "time": 95.3999999999992,
          "velocity": 0.3937007874015748,
          "duration": 0.09999999999999432
        },
        {
          "name": "E3",
          "midi": 52,
          "time": 95.49999999999919,
          "velocity": 0.3937007874015748,
          "duration": 0.09999999999999432
        },
        {
          "name": "F#3",
          "midi": 54,
          "time": 95.59999999999918,
          "velocity": 0.3937007874015748,
          "duration": 0.09999999999999432
        },
        {
          "name": "E3",
          "midi": 52,
          "time": 95.69999999999918,
          "velocity": 0.3937007874015748,
          "duration": 0.09999999999999432
        },
        {
          "name": "D#3",
          "midi": 51,
          "time": 95.79999999999917,
          "velocity": 0.3937007874015748,
          "duration": 0.09999999999999432
        },
        {
          "name": "E3",
          "midi": 52,
          "time": 95.89999999999917,
          "velocity": 0.3937007874015748,
          "duration": 0.09999999999999432
        },
        {
          "name": "C4",
          "midi": 60,
          "time": 95.99999999999916,
          "velocity": 0.3937007874015748,
          "duration": 0.09999999999999432
        },
        {
          "name": "E4",
          "midi": 64,
          "time": 95.99999999999916,
          "velocity": 0.3937007874015748,
          "duration": 0.09999999999999432
        },
        {
          "name": "C4",
          "midi": 60,
          "time": 96.39999999999915,
          "velocity": 0.3937007874015748,
          "duration": 0.09999999999999432
        },
        {
          "name": "E4",
          "midi": 64,
          "time": 96.39999999999915,
          "velocity": 0.3937007874015748,
          "duration": 0.09999999999999432
        },
        {
          "name": "C4",
          "midi": 60,
          "time": 96.79999999999914,
          "velocity": 0.3937007874015748,
          "duration": 0.09999999999999432
        },
        {
          "name": "E4",
          "midi": 64,
          "time": 96.79999999999914,
          "velocity": 0.3937007874015748,
          "duration": 0.09999999999999432
        },
        {
          "name": "C4",
          "midi": 60,
          "time": 97.09999999999914,
          "velocity": 0.3937007874015748,
          "duration": 0.09999999999999432
        },
        {
          "name": "E4",
          "midi": 64,
          "time": 97.09999999999914,
          "velocity": 0.3937007874015748,
          "duration": 0.09999999999999432
        },
        {
          "name": "C4",
          "midi": 60,
          "time": 97.39999999999914,
          "velocity": 0.3937007874015748,
          "duration": 0.09999999999999432
        },
        {
          "name": "E4",
          "midi": 64,
          "time": 97.39999999999914,
          "velocity": 0.3937007874015748,
          "duration": 0.09999999999999432
        },
        {
          "name": "A3",
          "midi": 57,
          "time": 97.79999999999913,
          "velocity": 0.3937007874015748,
          "duration": 0.09999999999999432
        },
        {
          "name": "D4",
          "midi": 62,
          "time": 97.79999999999913,
          "velocity": 0.3937007874015748,
          "duration": 0.09999999999999432
        },
        {
          "name": "A3",
          "midi": 57,
          "time": 97.99999999999912,
          "velocity": 0.3937007874015748,
          "duration": 0.09999999999999432
        },
        {
          "name": "D4",
          "midi": 62,
          "time": 97.99999999999912,
          "velocity": 0.3937007874015748,
          "duration": 0.09999999999999432
        },
        {
          "name": "A3",
          "midi": 57,
          "time": 98.39999999999911,
          "velocity": 0.3937007874015748,
          "duration": 0.09999999999999432
        },
        {
          "name": "D4",
          "midi": 62,
          "time": 98.39999999999911,
          "velocity": 0.3937007874015748,
          "duration": 0.09999999999999432
        },
        {
          "name": "A3",
          "midi": 57,
          "time": 98.69999999999911,
          "velocity": 0.3937007874015748,
          "duration": 0.09999999999999432
        },
        {
          "name": "D4",
          "midi": 62,
          "time": 98.69999999999911,
          "velocity": 0.3937007874015748,
          "duration": 0.09999999999999432
        },
        {
          "name": "A3",
          "midi": 57,
          "time": 98.9999999999991,
          "velocity": 0.3937007874015748,
          "duration": 0.09999999999999432
        },
        {
          "name": "D4",
          "midi": 62,
          "time": 98.9999999999991,
          "velocity": 0.3937007874015748,
          "duration": 0.09999999999999432
        },
        {
          "name": "G3",
          "midi": 55,
          "time": 99.3999999999991,
          "velocity": 0.3937007874015748,
          "duration": 0.09999999999999432
        },
        {
          "name": "B3",
          "midi": 59,
          "time": 99.3999999999991,
          "velocity": 0.3937007874015748,
          "duration": 0.09999999999999432
        },
        {
          "name": "G3",
          "midi": 55,
          "time": 99.59999999999908,
          "velocity": 0.3937007874015748,
          "duration": 0.09999999999999432
        },
        {
          "name": "B3",
          "midi": 59,
          "time": 99.59999999999908,
          "velocity": 0.3937007874015748,
          "duration": 0.09999999999999432
        },
        {
          "name": "G3",
          "midi": 55,
          "time": 99.99999999999908,
          "velocity": 0.3937007874015748,
          "duration": 0.09999999999999432
        },
        {
          "name": "B3",
          "midi": 59,
          "time": 99.99999999999908,
          "velocity": 0.3937007874015748,
          "duration": 0.09999999999999432
        },
        {
          "name": "G3",
          "midi": 55,
          "time": 100.29999999999907,
          "velocity": 0.3937007874015748,
          "duration": 0.09999999999999432
        },
        {
          "name": "B3",
          "midi": 59,
          "time": 100.29999999999907,
          "velocity": 0.3937007874015748,
          "duration": 0.09999999999999432
        },
        {
          "name": "G3",
          "midi": 55,
          "time": 100.59999999999907,
          "velocity": 0.3937007874015748,
          "duration": 0.09999999999999432
        },
        {
          "name": "B3",
          "midi": 59,
          "time": 100.59999999999907,
          "velocity": 0.3937007874015748,
          "duration": 0.09999999999999432
        },
        {
          "name": "G3",
          "midi": 55,
          "time": 100.99999999999906,
          "velocity": 0.3937007874015748,
          "duration": 0.09999999999999432
        },
        {
          "name": "B3",
          "midi": 59,
          "time": 100.99999999999906,
          "velocity": 0.3937007874015748,
          "duration": 0.09999999999999432
        },
        {
          "name": "G3",
          "midi": 55,
          "time": 101.19999999999905,
          "velocity": 0.3937007874015748,
          "duration": 0.09999999999999432
        },
        {
          "name": "B3",
          "midi": 59,
          "time": 101.19999999999905,
          "velocity": 0.3937007874015748,
          "duration": 0.09999999999999432
        },
        {
          "name": "E3",
          "midi": 52,
          "time": 101.59999999999904,
          "velocity": 0.3937007874015748,
          "duration": 0.09999999999999432
        },
        {
          "name": "B2",
          "midi": 47,
          "time": 101.79999999999903,
          "velocity": 0.3937007874015748,
          "duration": 0.09999999999999432
        },
        {
          "name": "E3",
          "midi": 52,
          "time": 101.99999999999902,
          "velocity": 0.3937007874015748,
          "duration": 0.09999999999999432
        },
        {
          "name": "D3",
          "midi": 50,
          "time": 102.19999999999901,
          "velocity": 0.3937007874015748,
          "duration": 0.09999999999999432
        },
        {
          "name": "C4",
          "midi": 60,
          "time": 102.399999999999,
          "velocity": 0.3937007874015748,
          "duration": 0.09999999999999432
        },
        {
          "name": "E4",
          "midi": 64,
          "time": 102.399999999999,
          "velocity": 0.3937007874015748,
          "duration": 0.09999999999999432
        },
        {
          "name": "C4",
          "midi": 60,
          "time": 102.79999999999899,
          "velocity": 0.3937007874015748,
          "duration": 0.09999999999999432
        },
        {
          "name": "E4",
          "midi": 64,
          "time": 102.79999999999899,
          "velocity": 0.3937007874015748,
          "duration": 0.09999999999999432
        },
        {
          "name": "C4",
          "midi": 60,
          "time": 103.19999999999898,
          "velocity": 0.3937007874015748,
          "duration": 0.09999999999999432
        },
        {
          "name": "E4",
          "midi": 64,
          "time": 103.19999999999898,
          "velocity": 0.3937007874015748,
          "duration": 0.09999999999999432
        },
        {
          "name": "C4",
          "midi": 60,
          "time": 103.49999999999898,
          "velocity": 0.3937007874015748,
          "duration": 0.09999999999999432
        },
        {
          "name": "E4",
          "midi": 64,
          "time": 103.49999999999898,
          "velocity": 0.3937007874015748,
          "duration": 0.09999999999999432
        },
        {
          "name": "C4",
          "midi": 60,
          "time": 103.79999999999897,
          "velocity": 0.3937007874015748,
          "duration": 0.09999999999999432
        },
        {
          "name": "E4",
          "midi": 64,
          "time": 103.79999999999897,
          "velocity": 0.3937007874015748,
          "duration": 0.09999999999999432
        },
        {
          "name": "D4",
          "midi": 62,
          "time": 104.19999999999897,
          "velocity": 0.3937007874015748,
          "duration": 0.09999999999999432
        },
        {
          "name": "F#4",
          "midi": 66,
          "time": 104.19999999999897,
          "velocity": 0.3937007874015748,
          "duration": 0.09999999999999432
        },
        {
          "name": "D4",
          "midi": 62,
          "time": 104.39999999999895,
          "velocity": 0.3937007874015748,
          "duration": 0.09999999999999432
        },
        {
          "name": "F#4",
          "midi": 66,
          "time": 104.39999999999895,
          "velocity": 0.3937007874015748,
          "duration": 0.09999999999999432
        },
        {
          "name": "D4",
          "midi": 62,
          "time": 104.79999999999895,
          "velocity": 0.3937007874015748,
          "duration": 0.09999999999999432
        },
        {
          "name": "F#4",
          "midi": 66,
          "time": 104.79999999999895,
          "velocity": 0.3937007874015748,
          "duration": 0.09999999999999432
        },
        {
          "name": "D4",
          "midi": 62,
          "time": 105.19999999999894,
          "velocity": 0.3937007874015748,
          "duration": 0.09999999999999432
        },
        {
          "name": "A3",
          "midi": 57,
          "time": 105.19999999999894,
          "velocity": 0.3937007874015748,
          "duration": 0.09999999999999432
        },
        {
          "name": "B3",
          "midi": 59,
          "time": 105.79999999999893,
          "velocity": 0.3937007874015748,
          "duration": 0.09999999999999432
        },
        {
          "name": "D#4",
          "midi": 63,
          "time": 105.79999999999893,
          "velocity": 0.3937007874015748,
          "duration": 0.09999999999999432
        },
        {
          "name": "B3",
          "midi": 59,
          "time": 105.99999999999892,
          "velocity": 0.3937007874015748,
          "duration": 0.09999999999999432
        },
        {
          "name": "D#4",
          "midi": 63,
          "time": 105.99999999999892,
          "velocity": 0.3937007874015748,
          "duration": 0.09999999999999432
        },
        {
          "name": "B3",
          "midi": 59,
          "time": 106.39999999999891,
          "velocity": 0.3937007874015748,
          "duration": 0.09999999999999432
        },
        {
          "name": "D#4",
          "midi": 63,
          "time": 106.39999999999891,
          "velocity": 0.3937007874015748,
          "duration": 0.09999999999999432
        },
        {
          "name": "B3",
          "midi": 59,
          "time": 106.69999999999891,
          "velocity": 0.3937007874015748,
          "duration": 0.09999999999999432
        },
        {
          "name": "D#4",
          "midi": 63,
          "time": 106.69999999999891,
          "velocity": 0.3937007874015748,
          "duration": 0.09999999999999432
        },
        {
          "name": "B3",
          "midi": 59,
          "time": 106.9999999999989,
          "velocity": 0.3937007874015748,
          "duration": 0.09999999999999432
        },
        {
          "name": "D#4",
          "midi": 63,
          "time": 106.9999999999989,
          "velocity": 0.3937007874015748,
          "duration": 0.09999999999999432
        },
        {
          "name": "B3",
          "midi": 59,
          "time": 107.3999999999989,
          "velocity": 0.3937007874015748,
          "duration": 0.09999999999999432
        },
        {
          "name": "D#4",
          "midi": 63,
          "time": 107.3999999999989,
          "velocity": 0.3937007874015748,
          "duration": 0.09999999999999432
        },
        {
          "name": "B3",
          "midi": 59,
          "time": 107.59999999999889,
          "velocity": 0.3937007874015748,
          "duration": 0.09999999999999432
        },
        {
          "name": "D#4",
          "midi": 63,
          "time": 107.59999999999889,
          "velocity": 0.3937007874015748,
          "duration": 0.09999999999999432
        },
        {
          "name": "D#4",
          "midi": 63,
          "time": 107.99999999999888,
          "velocity": 0.3937007874015748,
          "duration": 0.09999999999999432
        },
        {
          "name": "F#3",
          "midi": 54,
          "time": 108.19999999999887,
          "velocity": 0.3937007874015748,
          "duration": 0.09999999999999432
        },
        {
          "name": "B2",
          "midi": 47,
          "time": 108.39999999999885,
          "velocity": 0.3937007874015748,
          "duration": 0.09999999999999432
        },
        {
          "name": "G#3",
          "midi": 56,
          "time": 108.79999999999885,
          "velocity": 0.3937007874015748,
          "duration": 0.09999999999999432
        },
        {
          "name": "E4",
          "midi": 64,
          "time": 108.79999999999885,
          "velocity": 0.3937007874015748,
          "duration": 0.09999999999999432
        },
        {
          "name": "E3",
          "midi": 52,
          "time": 108.79999999999885,
          "velocity": 0.3937007874015748,
          "duration": 0.09999999999999432
        },
        {
          "name": "G#4",
          "midi": 68,
          "time": 108.79999999999885,
          "velocity": 0.3937007874015748,
          "duration": 0.09999999999999432
        },
        {
          "name": "F#4",
          "midi": 66,
          "time": 108.99999999999883,
          "velocity": 0.3937007874015748,
          "duration": 0.09999999999999432
        },
        {
          "name": "C#5",
          "midi": 73,
          "time": 109.09999999999883,
          "velocity": 0.3937007874015748,
          "duration": 0.09999999999999432
        },
        {
          "name": "E5",
          "midi": 76,
          "time": 109.19999999999882,
          "velocity": 0.3937007874015748,
          "duration": 0.09999999999999432
        },
        {
          "name": "F#5",
          "midi": 78,
          "time": 109.29999999999882,
          "velocity": 0.3937007874015748,
          "duration": 0.09999999999999432
        },
        {
          "name": "C#6",
          "midi": 85,
          "time": 109.39999999999881,
          "velocity": 0.3937007874015748,
          "duration": 0.09999999999999432
        },
        {
          "name": "C#5",
          "midi": 73,
          "time": 109.39999999999881,
          "velocity": 0.3937007874015748,
          "duration": 0.09999999999999432
        },
        {
          "name": "G#5",
          "midi": 80,
          "time": 109.39999999999881,
          "velocity": 0.3937007874015748,
          "duration": 0.09999999999999432
        },
        {
          "name": "G#4",
          "midi": 68,
          "time": 109.39999999999881,
          "velocity": 0.3937007874015748,
          "duration": 0.09999999999999432
        },
        {
          "name": "G#4",
          "midi": 68,
          "time": 109.5999999999988,
          "velocity": 0.3937007874015748,
          "duration": 0.09999999999999432
        },
        {
          "name": "E4",
          "midi": 64,
          "time": 109.5999999999988,
          "velocity": 0.3937007874015748,
          "duration": 0.09999999999999432
        },
        {
          "name": "G#5",
          "midi": 80,
          "time": 109.5999999999988,
          "velocity": 0.3937007874015748,
          "duration": 0.09999999999999432
        },
        {
          "name": "E5",
          "midi": 76,
          "time": 109.5999999999988,
          "velocity": 0.3937007874015748,
          "duration": 0.09999999999999432
        },
        {
          "name": "B4",
          "midi": 71,
          "time": 109.99999999999879,
          "velocity": 0.3937007874015748,
          "duration": 0.09999999999999432
        },
        {
          "name": "F#5",
          "midi": 78,
          "time": 110.09999999999879,
          "velocity": 0.3937007874015748,
          "duration": 0.09999999999999432
        },
        {
          "name": "G#5",
          "midi": 80,
          "time": 110.19999999999878,
          "velocity": 0.3937007874015748,
          "duration": 0.09999999999999432
        },
        {
          "name": "G#4",
          "midi": 68,
          "time": 110.19999999999878,
          "velocity": 0.3937007874015748,
          "duration": 0.09999999999999432
        },
        {
          "name": "F#5",
          "midi": 78,
          "time": 110.29999999999878,
          "velocity": 0.3937007874015748,
          "duration": 0.09999999999999432
        },
        {
          "name": "E6",
          "midi": 88,
          "time": 110.39999999999877,
          "velocity": 0.3937007874015748,
          "duration": 0.09999999999999432
        },
        {
          "name": "G#5",
          "midi": 80,
          "time": 110.39999999999877,
          "velocity": 0.3937007874015748,
          "duration": 0.09999999999999432
        },
        {
          "name": "G#4",
          "midi": 68,
          "time": 110.39999999999877,
          "velocity": 0.3937007874015748,
          "duration": 0.09999999999999432
        },
        {
          "name": "E5",
          "midi": 76,
          "time": 110.39999999999877,
          "velocity": 0.3937007874015748,
          "duration": 0.09999999999999432
        },
        {
          "name": "B4",
          "midi": 71,
          "time": 110.59999999999876,
          "velocity": 0.3937007874015748,
          "duration": 0.09999999999999432
        },
        {
          "name": "C#5",
          "midi": 73,
          "time": 110.69999999999875,
          "velocity": 0.3937007874015748,
          "duration": 0.09999999999999432
        },
        {
          "name": "D#5",
          "midi": 75,
          "time": 110.79999999999875,
          "velocity": 0.3937007874015748,
          "duration": 0.09999999999999432
        },
        {
          "name": "E5",
          "midi": 76,
          "time": 110.89999999999874,
          "velocity": 0.3937007874015748,
          "duration": 0.09999999999999432
        },
        {
          "name": "G#5",
          "midi": 80,
          "time": 110.99999999999874,
          "velocity": 0.3937007874015748,
          "duration": 0.09999999999999432
        },
        {
          "name": "F#5",
          "midi": 78,
          "time": 110.99999999999874,
          "velocity": 0.3937007874015748,
          "duration": 0.09999999999999432
        },
        {
          "name": "F#4",
          "midi": 66,
          "time": 110.99999999999874,
          "velocity": 0.3937007874015748,
          "duration": 0.09999999999999432
        },
        {
          "name": "G#4",
          "midi": 68,
          "time": 110.99999999999874,
          "velocity": 0.3937007874015748,
          "duration": 0.09999999999999432
        },
        {
          "name": "D#6",
          "midi": 87,
          "time": 111.19999999999872,
          "velocity": 0.3937007874015748,
          "duration": 0.09999999999999432
        },
        {
          "name": "F#5",
          "midi": 78,
          "time": 111.19999999999872,
          "velocity": 0.3937007874015748,
          "duration": 0.09999999999999432
        },
        {
          "name": "F#4",
          "midi": 66,
          "time": 111.19999999999872,
          "velocity": 0.3937007874015748,
          "duration": 0.09999999999999432
        },
        {
          "name": "D#5",
          "midi": 75,
          "time": 111.19999999999872,
          "velocity": 0.3937007874015748,
          "duration": 0.09999999999999432
        },
        {
          "name": "E6",
          "midi": 88,
          "time": 111.39999999999871,
          "velocity": 0.3937007874015748,
          "duration": 0.09999999999999432
        },
        {
          "name": "F#5",
          "midi": 78,
          "time": 111.39999999999871,
          "velocity": 0.3937007874015748,
          "duration": 0.09999999999999432
        },
        {
          "name": "F#4",
          "midi": 66,
          "time": 111.39999999999871,
          "velocity": 0.3937007874015748,
          "duration": 0.09999999999999432
        },
        {
          "name": "E5",
          "midi": 76,
          "time": 111.39999999999871,
          "velocity": 0.3937007874015748,
          "duration": 0.09999999999999432
        },
        {
          "name": "B5",
          "midi": 83,
          "time": 111.5999999999987,
          "velocity": 0.3937007874015748,
          "duration": 0.09999999999999432
        },
        {
          "name": "E5",
          "midi": 76,
          "time": 111.5999999999987,
          "velocity": 0.3937007874015748,
          "duration": 0.09999999999999432
        },
        {
          "name": "B4",
          "midi": 71,
          "time": 111.5999999999987,
          "velocity": 0.3937007874015748,
          "duration": 0.09999999999999432
        },
        {
          "name": "E4",
          "midi": 64,
          "time": 111.5999999999987,
          "velocity": 0.3937007874015748,
          "duration": 0.09999999999999432
        },
        {
          "name": "E5",
          "midi": 76,
          "time": 111.6999999999987,
          "velocity": 0.3937007874015748,
          "duration": 0.09999999999999432
        },
        {
          "name": "E4",
          "midi": 64,
          "time": 111.6999999999987,
          "velocity": 0.3937007874015748,
          "duration": 0.09999999999999432
        },
        {
          "name": "C#6",
          "midi": 85,
          "time": 111.79999999999869,
          "velocity": 0.3937007874015748,
          "duration": 0.09999999999999432
        },
        {
          "name": "F#5",
          "midi": 78,
          "time": 111.79999999999869,
          "velocity": 0.3937007874015748,
          "duration": 0.09999999999999432
        },
        {
          "name": "F#4",
          "midi": 66,
          "time": 111.79999999999869,
          "velocity": 0.3937007874015748,
          "duration": 0.09999999999999432
        },
        {
          "name": "C#5",
          "midi": 73,
          "time": 111.79999999999869,
          "velocity": 0.3937007874015748,
          "duration": 0.09999999999999432
        },
        {
          "name": "G#3",
          "midi": 56,
          "time": 111.99999999999868,
          "velocity": 0.3937007874015748,
          "duration": 0.09999999999999432
        },
        {
          "name": "E3",
          "midi": 52,
          "time": 111.99999999999868,
          "velocity": 0.3937007874015748,
          "duration": 0.09999999999999432
        },
        {
          "name": "G#4",
          "midi": 68,
          "time": 111.99999999999868,
          "velocity": 0.3937007874015748,
          "duration": 0.09999999999999432
        },
        {
          "name": "E4",
          "midi": 64,
          "time": 111.99999999999868,
          "velocity": 0.3937007874015748,
          "duration": 0.09999999999999432
        },
        {
          "name": "F#4",
          "midi": 66,
          "time": 112.19999999999867,
          "velocity": 0.3937007874015748,
          "duration": 0.09999999999999432
        },
        {
          "name": "C#5",
          "midi": 73,
          "time": 112.29999999999866,
          "velocity": 0.3937007874015748,
          "duration": 0.09999999999999432
        },
        {
          "name": "E5",
          "midi": 76,
          "time": 112.39999999999866,
          "velocity": 0.3937007874015748,
          "duration": 0.09999999999999432
        },
        {
          "name": "F#5",
          "midi": 78,
          "time": 112.49999999999865,
          "velocity": 0.3937007874015748,
          "duration": 0.09999999999999432
        },
        {
          "name": "C#6",
          "midi": 85,
          "time": 112.59999999999864,
          "velocity": 0.3937007874015748,
          "duration": 0.09999999999999432
        },
        {
          "name": "C#5",
          "midi": 73,
          "time": 112.59999999999864,
          "velocity": 0.3937007874015748,
          "duration": 0.09999999999999432
        },
        {
          "name": "G#5",
          "midi": 80,
          "time": 112.59999999999864,
          "velocity": 0.3937007874015748,
          "duration": 0.09999999999999432
        },
        {
          "name": "G#4",
          "midi": 68,
          "time": 112.59999999999864,
          "velocity": 0.3937007874015748,
          "duration": 0.09999999999999432
        },
        {
          "name": "G#4",
          "midi": 68,
          "time": 112.79999999999863,
          "velocity": 0.3937007874015748,
          "duration": 0.09999999999999432
        },
        {
          "name": "E4",
          "midi": 64,
          "time": 112.79999999999863,
          "velocity": 0.3937007874015748,
          "duration": 0.09999999999999432
        },
        {
          "name": "G#5",
          "midi": 80,
          "time": 112.79999999999863,
          "velocity": 0.3937007874015748,
          "duration": 0.09999999999999432
        },
        {
          "name": "E5",
          "midi": 76,
          "time": 112.79999999999863,
          "velocity": 0.3937007874015748,
          "duration": 0.09999999999999432
        },
        {
          "name": "E5",
          "midi": 76,
          "time": 113.19999999999862,
          "velocity": 0.3937007874015748,
          "duration": 0.09999999999999432
        },
        {
          "name": "F#5",
          "midi": 78,
          "time": 113.29999999999862,
          "velocity": 0.3937007874015748,
          "duration": 0.09999999999999432
        },
        {
          "name": "C#6",
          "midi": 85,
          "time": 113.39999999999861,
          "velocity": 0.3937007874015748,
          "duration": 0.09999999999999432
        },
        {
          "name": "C#5",
          "midi": 73,
          "time": 113.39999999999861,
          "velocity": 0.3937007874015748,
          "duration": 0.09999999999999432
        },
        {
          "name": "G#5",
          "midi": 80,
          "time": 113.39999999999861,
          "velocity": 0.3937007874015748,
          "duration": 0.09999999999999432
        },
        {
          "name": "G#4",
          "midi": 68,
          "time": 113.39999999999861,
          "velocity": 0.3937007874015748,
          "duration": 0.09999999999999432
        },
        {
          "name": "F#5",
          "midi": 78,
          "time": 113.49999999999861,
          "velocity": 0.3937007874015748,
          "duration": 0.09999999999999432
        },
        {
          "name": "A5",
          "midi": 81,
          "time": 113.5999999999986,
          "velocity": 0.3937007874015748,
          "duration": 0.09999999999999432
        },
        {
          "name": "E6",
          "midi": 88,
          "time": 113.5999999999986,
          "velocity": 0.3937007874015748,
          "duration": 0.09999999999999432
        },
        {
          "name": "D#6",
          "midi": 87,
          "time": 113.6999999999986,
          "velocity": 0.3937007874015748,
          "duration": 0.09999999999999432
        },
        {
          "name": "B5",
          "midi": 83,
          "time": 113.79999999999859,
          "velocity": 0.3937007874015748,
          "duration": 0.09999999999999432
        },
        {
          "name": "E5",
          "midi": 76,
          "time": 113.89999999999858,
          "velocity": 0.3937007874015748,
          "duration": 0.09999999999999432
        },
        {
          "name": "B5",
          "midi": 83,
          "time": 113.99999999999858,
          "velocity": 0.3937007874015748,
          "duration": 0.09999999999999432
        },
        {
          "name": "A5",
          "midi": 81,
          "time": 114.09999999999857,
          "velocity": 0.3937007874015748,
          "duration": 0.09999999999999432
        },
        {
          "name": "E5",
          "midi": 76,
          "time": 114.19999999999857,
          "velocity": 0.3937007874015748,
          "duration": 0.09999999999999432
        },
        {
          "name": "B4",
          "midi": 71,
          "time": 114.29999999999856,
          "velocity": 0.3937007874015748,
          "duration": 0.09999999999999432
        },
        {
          "name": "B5",
          "midi": 83,
          "time": 114.39999999999856,
          "velocity": 0.3937007874015748,
          "duration": 0.09999999999999432
        },
        {
          "name": "A5",
          "midi": 81,
          "time": 114.49999999999855,
          "velocity": 0.3937007874015748,
          "duration": 0.09999999999999432
        },
        {
          "name": "E5",
          "midi": 76,
          "time": 114.59999999999854,
          "velocity": 0.3937007874015748,
          "duration": 0.09999999999999432
        },
        {
          "name": "B4",
          "midi": 71,
          "time": 114.69999999999854,
          "velocity": 0.3937007874015748,
          "duration": 0.09999999999999432
        },
        {
          "name": "B4",
          "midi": 71,
          "time": 114.79999999999853,
          "velocity": 0.3937007874015748,
          "duration": 0.09999999999999432
        },
        {
          "name": "A4",
          "midi": 69,
          "time": 114.89999999999853,
          "velocity": 0.3937007874015748,
          "duration": 0.09999999999999432
        },
        {
          "name": "E4",
          "midi": 64,
          "time": 114.99999999999852,
          "velocity": 0.3937007874015748,
          "duration": 0.09999999999999432
        },
        {
          "name": "G#3",
          "midi": 56,
          "time": 115.19999999999851,
          "velocity": 0.3937007874015748,
          "duration": 0.09999999999999432
        },
        {
          "name": "E3",
          "midi": 52,
          "time": 115.19999999999851,
          "velocity": 0.3937007874015748,
          "duration": 0.09999999999999432
        },
        {
          "name": "G#4",
          "midi": 68,
          "time": 115.19999999999851,
          "velocity": 0.3937007874015748,
          "duration": 0.09999999999999432
        },
        {
          "name": "E4",
          "midi": 64,
          "time": 115.19999999999851,
          "velocity": 0.3937007874015748,
          "duration": 0.09999999999999432
        },
        {
          "name": "F#4",
          "midi": 66,
          "time": 115.3999999999985,
          "velocity": 0.3937007874015748,
          "duration": 0.09999999999999432
        },
        {
          "name": "C#5",
          "midi": 73,
          "time": 115.4999999999985,
          "velocity": 0.3937007874015748,
          "duration": 0.09999999999999432
        },
        {
          "name": "E5",
          "midi": 76,
          "time": 115.59999999999849,
          "velocity": 0.3937007874015748,
          "duration": 0.09999999999999432
        },
        {
          "name": "F#5",
          "midi": 78,
          "time": 115.69999999999848,
          "velocity": 0.3937007874015748,
          "duration": 0.09999999999999432
        },
        {
          "name": "C#6",
          "midi": 85,
          "time": 115.79999999999848,
          "velocity": 0.3937007874015748,
          "duration": 0.09999999999999432
        },
        {
          "name": "C#5",
          "midi": 73,
          "time": 115.79999999999848,
          "velocity": 0.3937007874015748,
          "duration": 0.09999999999999432
        },
        {
          "name": "G#5",
          "midi": 80,
          "time": 115.79999999999848,
          "velocity": 0.3937007874015748,
          "duration": 0.09999999999999432
        },
        {
          "name": "G#4",
          "midi": 68,
          "time": 115.79999999999848,
          "velocity": 0.3937007874015748,
          "duration": 0.09999999999999432
        },
        {
          "name": "G#4",
          "midi": 68,
          "time": 115.99999999999847,
          "velocity": 0.3937007874015748,
          "duration": 0.09999999999999432
        },
        {
          "name": "E4",
          "midi": 64,
          "time": 115.99999999999847,
          "velocity": 0.3937007874015748,
          "duration": 0.09999999999999432
        },
        {
          "name": "G#5",
          "midi": 80,
          "time": 115.99999999999847,
          "velocity": 0.3937007874015748,
          "duration": 0.09999999999999432
        },
        {
          "name": "E5",
          "midi": 76,
          "time": 115.99999999999847,
          "velocity": 0.3937007874015748,
          "duration": 0.09999999999999432
        },
        {
          "name": "B4",
          "midi": 71,
          "time": 116.39999999999846,
          "velocity": 0.3937007874015748,
          "duration": 0.09999999999999432
        },
        {
          "name": "F#5",
          "midi": 78,
          "time": 116.49999999999845,
          "velocity": 0.3937007874015748,
          "duration": 0.09999999999999432
        },
        {
          "name": "G#5",
          "midi": 80,
          "time": 116.59999999999845,
          "velocity": 0.3937007874015748,
          "duration": 0.09999999999999432
        },
        {
          "name": "G#4",
          "midi": 68,
          "time": 116.59999999999845,
          "velocity": 0.3937007874015748,
          "duration": 0.09999999999999432
        },
        {
          "name": "F#5",
          "midi": 78,
          "time": 116.69999999999844,
          "velocity": 0.3937007874015748,
          "duration": 0.09999999999999432
        },
        {
          "name": "E6",
          "midi": 88,
          "time": 116.79999999999843,
          "velocity": 0.3937007874015748,
          "duration": 0.09999999999999432
        },
        {
          "name": "G#5",
          "midi": 80,
          "time": 116.79999999999843,
          "velocity": 0.3937007874015748,
          "duration": 0.09999999999999432
        },
        {
          "name": "G#4",
          "midi": 68,
          "time": 116.79999999999843,
          "velocity": 0.3937007874015748,
          "duration": 0.09999999999999432
        },
        {
          "name": "E5",
          "midi": 76,
          "time": 116.79999999999843,
          "velocity": 0.3937007874015748,
          "duration": 0.09999999999999432
        },
        {
          "name": "E5",
          "midi": 76,
          "time": 117.19999999999843,
          "velocity": 0.3937007874015748,
          "duration": 0.09999999999999432
        },
        {
          "name": "E4",
          "midi": 64,
          "time": 117.19999999999843,
          "velocity": 0.3937007874015748,
          "duration": 0.09999999999999432
        },
        {
          "name": "B4",
          "midi": 71,
          "time": 117.39999999999841,
          "velocity": 0.3937007874015748,
          "duration": 0.09999999999999432
        },
        {
          "name": "B5",
          "midi": 83,
          "time": 117.39999999999841,
          "velocity": 0.3937007874015748,
          "duration": 0.09999999999999432
        },
        {
          "name": "G#4",
          "midi": 68,
          "time": 117.49999999999841,
          "velocity": 0.3937007874015748,
          "duration": 0.09999999999999432
        },
        {
          "name": "G#5",
          "midi": 80,
          "time": 117.49999999999841,
          "velocity": 0.3937007874015748,
          "duration": 0.09999999999999432
        },
        {
          "name": "D#6",
          "midi": 87,
          "time": 117.5999999999984,
          "velocity": 0.3937007874015748,
          "duration": 0.09999999999999432
        },
        {
          "name": "F#5",
          "midi": 78,
          "time": 117.5999999999984,
          "velocity": 0.3937007874015748,
          "duration": 0.09999999999999432
        },
        {
          "name": "D#5",
          "midi": 75,
          "time": 117.5999999999984,
          "velocity": 0.3937007874015748,
          "duration": 0.09999999999999432
        },
        {
          "name": "F#4",
          "midi": 66,
          "time": 117.5999999999984,
          "velocity": 0.3937007874015748,
          "duration": 0.09999999999999432
        },
        {
          "name": "E6",
          "midi": 88,
          "time": 117.79999999999839,
          "velocity": 0.3937007874015748,
          "duration": 0.09999999999999432
        },
        {
          "name": "G#5",
          "midi": 80,
          "time": 117.79999999999839,
          "velocity": 0.3937007874015748,
          "duration": 0.09999999999999432
        },
        {
          "name": "E5",
          "midi": 76,
          "time": 117.79999999999839,
          "velocity": 0.3937007874015748,
          "duration": 0.09999999999999432
        },
        {
          "name": "G#4",
          "midi": 68,
          "time": 117.79999999999839,
          "velocity": 0.3937007874015748,
          "duration": 0.09999999999999432
        },
        {
          "name": "G#6",
          "midi": 92,
          "time": 117.99999999999838,
          "velocity": 0.3937007874015748,
          "duration": 0.09999999999999432
        },
        {
          "name": "D#6",
          "midi": 87,
          "time": 117.99999999999838,
          "velocity": 0.3937007874015748,
          "duration": 0.09999999999999432
        },
        {
          "name": "G#5",
          "midi": 80,
          "time": 117.99999999999838,
          "velocity": 0.3937007874015748,
          "duration": 0.09999999999999432
        },
        {
          "name": "D#5",
          "midi": 75,
          "time": 117.99999999999838,
          "velocity": 0.3937007874015748,
          "duration": 0.09999999999999432
        },
        {
          "name": "B5",
          "midi": 83,
          "time": 118.19999999999837,
          "velocity": 0.3937007874015748,
          "duration": 0.09999999999999432
        },
        {
          "name": "F#5",
          "midi": 78,
          "time": 118.19999999999837,
          "velocity": 0.3937007874015748,
          "duration": 0.09999999999999432
        },
        {
          "name": "B4",
          "midi": 71,
          "time": 118.19999999999837,
          "velocity": 0.3937007874015748,
          "duration": 0.09999999999999432
        },
        {
          "name": "F#4",
          "midi": 66,
          "time": 118.19999999999837,
          "velocity": 0.3937007874015748,
          "duration": 0.09999999999999432
        },
        {
          "name": "C#6",
          "midi": 85,
          "time": 118.39999999999836,
          "velocity": 0.3937007874015748,
          "duration": 0.09999999999999432
        },
        {
          "name": "A5",
          "midi": 81,
          "time": 118.39999999999836,
          "velocity": 0.3937007874015748,
          "duration": 0.09999999999999432
        },
        {
          "name": "C#5",
          "midi": 73,
          "time": 118.39999999999836,
          "velocity": 0.3937007874015748,
          "duration": 0.09999999999999432
        },
        {
          "name": "A4",
          "midi": 69,
          "time": 118.39999999999836,
          "velocity": 0.3937007874015748,
          "duration": 0.09999999999999432
        },
        {
          "name": "E5",
          "midi": 76,
          "time": 118.49999999999835,
          "velocity": 0.3937007874015748,
          "duration": 0.09999999999999432
        },
        {
          "name": "E4",
          "midi": 64,
          "time": 118.49999999999835,
          "velocity": 0.3937007874015748,
          "duration": 0.09999999999999432
        },
        {
          "name": "B5",
          "midi": 83,
          "time": 118.59999999999835,
          "velocity": 0.3937007874015748,
          "duration": 0.09999999999999432
        },
        {
          "name": "B4",
          "midi": 71,
          "time": 118.59999999999835,
          "velocity": 0.3937007874015748,
          "duration": 0.09999999999999432
        },
        {
          "name": "A5",
          "midi": 81,
          "time": 118.79999999999833,
          "velocity": 0.3937007874015748,
          "duration": 0.09999999999999432
        },
        {
          "name": "A4",
          "midi": 69,
          "time": 118.79999999999833,
          "velocity": 0.3937007874015748,
          "duration": 0.09999999999999432
        },
        {
          "name": "C#6",
          "midi": 85,
          "time": 118.89999999999833,
          "velocity": 0.3937007874015748,
          "duration": 0.09999999999999432
        },
        {
          "name": "C#5",
          "midi": 73,
          "time": 118.89999999999833,
          "velocity": 0.3937007874015748,
          "duration": 0.09999999999999432
        },
        {
          "name": "G#6",
          "midi": 92,
          "time": 118.99999999999832,
          "velocity": 0.3937007874015748,
          "duration": 0.09999999999999432
        },
        {
          "name": "G#5",
          "midi": 80,
          "time": 118.99999999999832,
          "velocity": 0.3937007874015748,
          "duration": 0.09999999999999432
        },
        {
          "name": "E6",
          "midi": 88,
          "time": 118.99999999999832,
          "velocity": 0.3937007874015748,
          "duration": 0.09999999999999432
        },
        {
          "name": "E5",
          "midi": 76,
          "time": 118.99999999999832,
          "velocity": 0.3937007874015748,
          "duration": 0.09999999999999432
        },
        {
          "name": "C#6",
          "midi": 85,
          "time": 119.19999999999831,
          "velocity": 0.3937007874015748,
          "duration": 0.09999999999999432
        },
        {
          "name": "A5",
          "midi": 81,
          "time": 119.19999999999831,
          "velocity": 0.3937007874015748,
          "duration": 0.09999999999999432
        },
        {
          "name": "C#5",
          "midi": 73,
          "time": 119.19999999999831,
          "velocity": 0.3937007874015748,
          "duration": 0.09999999999999432
        },
        {
          "name": "A4",
          "midi": 69,
          "time": 119.19999999999831,
          "velocity": 0.3937007874015748,
          "duration": 0.09999999999999432
        },
        {
          "name": "E5",
          "midi": 76,
          "time": 119.7999999999983,
          "velocity": 0.3937007874015748,
          "duration": 0.09999999999999432
        },
        {
          "name": "E4",
          "midi": 64,
          "time": 119.7999999999983,
          "velocity": 0.3937007874015748,
          "duration": 0.09999999999999432
        },
        {
          "name": "C#6",
          "midi": 85,
          "time": 119.9999999999983,
          "velocity": 0.3937007874015748,
          "duration": 0.09999999999999432
        },
        {
          "name": "A5",
          "midi": 81,
          "time": 119.9999999999983,
          "velocity": 0.3937007874015748,
          "duration": 0.09999999999999432
        },
        {
          "name": "C#5",
          "midi": 73,
          "time": 119.9999999999983,
          "velocity": 0.3937007874015748,
          "duration": 0.09999999999999432
        },
        {
          "name": "A4",
          "midi": 69,
          "time": 119.9999999999983,
          "velocity": 0.3937007874015748,
          "duration": 0.09999999999999432
        },
        {
          "name": "B5",
          "midi": 83,
          "time": 120.19999999999828,
          "velocity": 0.3937007874015748,
          "duration": 0.09999999999999432
        },
        {
          "name": "E5",
          "midi": 76,
          "time": 120.19999999999828,
          "velocity": 0.3937007874015748,
          "duration": 0.09999999999999432
        },
        {
          "name": "B4",
          "midi": 71,
          "time": 120.19999999999828,
          "velocity": 0.3937007874015748,
          "duration": 0.09999999999999432
        },
        {
          "name": "E4",
          "midi": 64,
          "time": 120.19999999999828,
          "velocity": 0.3937007874015748,
          "duration": 0.09999999999999432
        },
        {
          "name": "F#5",
          "midi": 78,
          "time": 120.39999999999827,
          "velocity": 0.3937007874015748,
          "duration": 0.09999999999999432
        },
        {
          "name": "D#5",
          "midi": 75,
          "time": 120.39999999999827,
          "velocity": 0.3937007874015748,
          "duration": 0.09999999999999432
        },
        {
          "name": "F#4",
          "midi": 66,
          "time": 120.39999999999827,
          "velocity": 0.3937007874015748,
          "duration": 0.09999999999999432
        },
        {
          "name": "D#4",
          "midi": 63,
          "time": 120.39999999999827,
          "velocity": 0.3937007874015748,
          "duration": 0.09999999999999432
        },
        {
          "name": "B4",
          "midi": 71,
          "time": 120.59999999999826,
          "velocity": 0.3937007874015748,
          "duration": 0.09999999999999432
        },
        {
          "name": "G#4",
          "midi": 68,
          "time": 120.59999999999826,
          "velocity": 0.3937007874015748,
          "duration": 0.09999999999999432
        },
        {
          "name": "B3",
          "midi": 59,
          "time": 120.59999999999826,
          "velocity": 0.3937007874015748,
          "duration": 0.09999999999999432
        },
        {
          "name": "G#3",
          "midi": 56,
          "time": 120.59999999999826,
          "velocity": 0.3937007874015748,
          "duration": 0.09999999999999432
        },
        {
          "name": "C#5",
          "midi": 73,
          "time": 120.79999999999825,
          "velocity": 0.3937007874015748,
          "duration": 0.09999999999999432
        },
        {
          "name": "A4",
          "midi": 69,
          "time": 120.79999999999825,
          "velocity": 0.3937007874015748,
          "duration": 0.09999999999999432
        },
        {
          "name": "C#4",
          "midi": 61,
          "time": 120.79999999999825,
          "velocity": 0.3937007874015748,
          "duration": 0.09999999999999432
        },
        {
          "name": "A3",
          "midi": 57,
          "time": 120.79999999999825,
          "velocity": 0.3937007874015748,
          "duration": 0.09999999999999432
        },
        {
          "name": "E4",
          "midi": 64,
          "time": 120.99999999999824,
          "velocity": 0.3937007874015748,
          "duration": 0.09999999999999432
        },
        {
          "name": "C#4",
          "midi": 61,
          "time": 120.99999999999824,
          "velocity": 0.3937007874015748,
          "duration": 0.09999999999999432
        },
        {
          "name": "E3",
          "midi": 52,
          "time": 120.99999999999824,
          "velocity": 0.3937007874015748,
          "duration": 0.09999999999999432
        },
        {
          "name": "C#3",
          "midi": 49,
          "time": 121.19999999999823,
          "velocity": 0.3937007874015748,
          "duration": 0.09999999999999432
        },
        {
          "name": "F#4",
          "midi": 66,
          "time": 121.19999999999823,
          "velocity": 0.3937007874015748,
          "duration": 0.09999999999999432
        },
        {
          "name": "D#4",
          "midi": 63,
          "time": 121.19999999999823,
          "velocity": 0.3937007874015748,
          "duration": 0.09999999999999432
        },
        {
          "name": "F#3",
          "midi": 54,
          "time": 121.19999999999823,
          "velocity": 0.3937007874015748,
          "duration": 0.09999999999999432
        },
        {
          "name": "G#3",
          "midi": 56,
          "time": 121.59999999999822,
          "velocity": 0.3937007874015748,
          "duration": 0.09999999999999432
        },
        {
          "name": "E5",
          "midi": 76,
          "time": 121.59999999999822,
          "velocity": 0.3937007874015748,
          "duration": 0.09999999999999432
        },
        {
          "name": "G#4",
          "midi": 68,
          "time": 121.59999999999822,
          "velocity": 0.3937007874015748,
          "duration": 0.09999999999999432
        },
        {
          "name": "E4",
          "midi": 64,
          "time": 121.59999999999822,
          "velocity": 0.3937007874015748,
          "duration": 0.09999999999999432
        },
        {
          "name": "E4",
          "midi": 64,
          "time": 121.7999999999982,
          "velocity": 0.3937007874015748,
          "duration": 0.09999999999999432
        },
        {
          "name": "E3",
          "midi": 52,
          "time": 121.7999999999982,
          "velocity": 0.3937007874015748,
          "duration": 0.09999999999999432
        },
        {
          "name": "D#4",
          "midi": 63,
          "time": 121.8999999999982,
          "velocity": 0.3937007874015748,
          "duration": 0.09999999999999432
        },
        {
          "name": "D#5",
          "midi": 75,
          "time": 121.8999999999982,
          "velocity": 0.3937007874015748,
          "duration": 0.09999999999999432
        },
        {
          "name": "B4",
          "midi": 71,
          "time": 121.9999999999982,
          "velocity": 0.3937007874015748,
          "duration": 0.09999999999999432
        },
        {
          "name": "B3",
          "midi": 59,
          "time": 121.9999999999982,
          "velocity": 0.3937007874015748,
          "duration": 0.09999999999999432
        },
        {
          "name": "C#5",
          "midi": 73,
          "time": 122.09999999999819,
          "velocity": 0.3937007874015748,
          "duration": 0.09999999999999432
        },
        {
          "name": "C#4",
          "midi": 61,
          "time": 122.09999999999819,
          "velocity": 0.3937007874015748,
          "duration": 0.09999999999999432
        },
        {
          "name": "C#4",
          "midi": 61,
          "time": 122.19999999999818,
          "velocity": 0.3937007874015748,
          "duration": 0.09999999999999432
        },
        {
          "name": "G#5",
          "midi": 80,
          "time": 122.19999999999818,
          "velocity": 0.3937007874015748,
          "duration": 0.09999999999999432
        },
        {
          "name": "C#5",
          "midi": 73,
          "time": 122.19999999999818,
          "velocity": 0.3937007874015748,
          "duration": 0.09999999999999432
        },
        {
          "name": "G#4",
          "midi": 68,
          "time": 122.19999999999818,
          "velocity": 0.3937007874015748,
          "duration": 0.09999999999999432
        },
        {
          "name": "C#4",
          "midi": 61,
          "time": 122.39999999999817,
          "velocity": 0.3937007874015748,
          "duration": 0.09999999999999432
        },
        {
          "name": "E5",
          "midi": 76,
          "time": 122.39999999999817,
          "velocity": 0.3937007874015748,
          "duration": 0.09999999999999432
        },
        {
          "name": "C#5",
          "midi": 73,
          "time": 122.39999999999817,
          "velocity": 0.3937007874015748,
          "duration": 0.09999999999999432
        },
        {
          "name": "E4",
          "midi": 64,
          "time": 122.39999999999817,
          "velocity": 0.3937007874015748,
          "duration": 0.09999999999999432
        },
        {
          "name": "G#3",
          "midi": 56,
          "time": 122.79999999999816,
          "velocity": 0.3937007874015748,
          "duration": 0.09999999999999432
        },
        {
          "name": "B4",
          "midi": 71,
          "time": 122.79999999999816,
          "velocity": 0.3937007874015748,
          "duration": 0.09999999999999432
        },
        {
          "name": "G#4",
          "midi": 68,
          "time": 122.79999999999816,
          "velocity": 0.3937007874015748,
          "duration": 0.09999999999999432
        },
        {
          "name": "B3",
          "midi": 59,
          "time": 122.79999999999816,
          "velocity": 0.3937007874015748,
          "duration": 0.09999999999999432
        },
        {
          "name": "E4",
          "midi": 64,
          "time": 122.99999999999815,
          "velocity": 0.3937007874015748,
          "duration": 0.09999999999999432
        },
        {
          "name": "G#5",
          "midi": 80,
          "time": 122.99999999999815,
          "velocity": 0.3937007874015748,
          "duration": 0.09999999999999432
        },
        {
          "name": "G#4",
          "midi": 68,
          "time": 122.99999999999815,
          "velocity": 0.3937007874015748,
          "duration": 0.09999999999999432
        },
        {
          "name": "E5",
          "midi": 76,
          "time": 122.99999999999815,
          "velocity": 0.3937007874015748,
          "duration": 0.09999999999999432
        },
        {
          "name": "E4",
          "midi": 64,
          "time": 123.19999999999814,
          "velocity": 0.3937007874015748,
          "duration": 0.09999999999999432
        },
        {
          "name": "C#6",
          "midi": 85,
          "time": 123.19999999999814,
          "velocity": 0.3937007874015748,
          "duration": 0.09999999999999432
        },
        {
          "name": "E5",
          "midi": 76,
          "time": 123.19999999999814,
          "velocity": 0.3937007874015748,
          "duration": 0.09999999999999432
        },
        {
          "name": "C#5",
          "midi": 73,
          "time": 123.19999999999814,
          "velocity": 0.3937007874015748,
          "duration": 0.09999999999999432
        },
        {
          "name": "E4",
          "midi": 64,
          "time": 123.39999999999813,
          "velocity": 0.3937007874015748,
          "duration": 0.09999999999999432
        },
        {
          "name": "G#5",
          "midi": 80,
          "time": 123.39999999999813,
          "velocity": 0.3937007874015748,
          "duration": 0.09999999999999432
        },
        {
          "name": "G#4",
          "midi": 68,
          "time": 123.39999999999813,
          "velocity": 0.3937007874015748,
          "duration": 0.09999999999999432
        },
        {
          "name": "E5",
          "midi": 76,
          "time": 123.39999999999813,
          "velocity": 0.3937007874015748,
          "duration": 0.09999999999999432
        },
        {
          "name": "G#3",
          "midi": 56,
          "time": 123.59999999999812,
          "velocity": 0.3937007874015748,
          "duration": 0.09999999999999432
        },
        {
          "name": "C#5",
          "midi": 73,
          "time": 123.59999999999812,
          "velocity": 0.3937007874015748,
          "duration": 0.09999999999999432
        },
        {
          "name": "C#4",
          "midi": 61,
          "time": 123.59999999999812,
          "velocity": 0.3937007874015748,
          "duration": 0.09999999999999432
        },
        {
          "name": "G#4",
          "midi": 68,
          "time": 123.59999999999812,
          "velocity": 0.3937007874015748,
          "duration": 0.09999999999999432
        },
        {
          "name": "F#4",
          "midi": 66,
          "time": 123.79999999999811,
          "velocity": 0.3937007874015748,
          "duration": 0.09999999999999432
        },
        {
          "name": "G#4",
          "midi": 68,
          "time": 123.8999999999981,
          "velocity": 0.3937007874015748,
          "duration": 0.09999999999999432
        },
        {
          "name": "D#3",
          "midi": 51,
          "time": 123.9999999999981,
          "velocity": 0.3937007874015748,
          "duration": 0.09999999999999432
        },
        {
          "name": "B4",
          "midi": 71,
          "time": 123.9999999999981,
          "velocity": 0.3937007874015748,
          "duration": 0.09999999999999432
        },
        {
          "name": "B3",
          "midi": 59,
          "time": 123.9999999999981,
          "velocity": 0.3937007874015748,
          "duration": 0.09999999999999432
        },
        {
          "name": "D#4",
          "midi": 63,
          "time": 123.9999999999981,
          "velocity": 0.3937007874015748,
          "duration": 0.09999999999999432
        },
        {
          "name": "D#3",
          "midi": 51,
          "time": 124.19999999999808,
          "velocity": 0.3937007874015748,
          "duration": 0.09999999999999432
        },
        {
          "name": "F#4",
          "midi": 66,
          "time": 124.19999999999808,
          "velocity": 0.3937007874015748,
          "duration": 0.09999999999999432
        },
        {
          "name": "F#3",
          "midi": 54,
          "time": 124.19999999999808,
          "velocity": 0.3937007874015748,
          "duration": 0.09999999999999432
        },
        {
          "name": "D#4",
          "midi": 63,
          "time": 124.19999999999808,
          "velocity": 0.3937007874015748,
          "duration": 0.09999999999999432
        },
        {
          "name": "D#4",
          "midi": 63,
          "time": 124.39999999999807,
          "velocity": 0.3937007874015748,
          "duration": 0.09999999999999432
        },
        {
          "name": "B3",
          "midi": 59,
          "time": 124.49999999999807,
          "velocity": 0.3937007874015748,
          "duration": 0.09999999999999432
        },
        {
          "name": "D#3",
          "midi": 51,
          "time": 124.59999999999806,
          "velocity": 0.3937007874015748,
          "duration": 0.09999999999999432
        },
        {
          "name": "F#4",
          "midi": 66,
          "time": 124.59999999999806,
          "velocity": 0.3937007874015748,
          "duration": 0.09999999999999432
        },
        {
          "name": "F#3",
          "midi": 54,
          "time": 124.59999999999806,
          "velocity": 0.3937007874015748,
          "duration": 0.09999999999999432
        },
        {
          "name": "D#4",
          "midi": 63,
          "time": 124.59999999999806,
          "velocity": 0.3937007874015748,
          "duration": 0.09999999999999432
        },
        {
          "name": "G#3",
          "midi": 56,
          "time": 124.79999999999805,
          "velocity": 0.3937007874015748,
          "duration": 0.09999999999999432
        },
        {
          "name": "E5",
          "midi": 76,
          "time": 124.79999999999805,
          "velocity": 0.3937007874015748,
          "duration": 0.09999999999999432
        },
        {
          "name": "E4",
          "midi": 64,
          "time": 124.79999999999805,
          "velocity": 0.3937007874015748,
          "duration": 0.09999999999999432
        },
        {
          "name": "G#4",
          "midi": 68,
          "time": 124.79999999999805,
          "velocity": 0.3937007874015748,
          "duration": 0.09999999999999432
        },
        {
          "name": "E4",
          "midi": 64,
          "time": 124.99999999999804,
          "velocity": 0.3937007874015748,
          "duration": 0.09999999999999432
        },
        {
          "name": "D#5",
          "midi": 75,
          "time": 125.09999999999803,
          "velocity": 0.3937007874015748,
          "duration": 0.09999999999999432
        },
        {
          "name": "B4",
          "midi": 71,
          "time": 125.19999999999803,
          "velocity": 0.3937007874015748,
          "duration": 0.09999999999999432
        },
        {
          "name": "C#5",
          "midi": 73,
          "time": 125.29999999999802,
          "velocity": 0.3937007874015748,
          "duration": 0.09999999999999432
        },
        {
          "name": "E4",
          "midi": 64,
          "time": 125.39999999999802,
          "velocity": 0.3937007874015748,
          "duration": 0.09999999999999432
        },
        {
          "name": "G#5",
          "midi": 80,
          "time": 125.39999999999802,
          "velocity": 0.3937007874015748,
          "duration": 0.09999999999999432
        },
        {
          "name": "E5",
          "midi": 76,
          "time": 125.39999999999802,
          "velocity": 0.3937007874015748,
          "duration": 0.09999999999999432
        },
        {
          "name": "G#4",
          "midi": 68,
          "time": 125.39999999999802,
          "velocity": 0.3937007874015748,
          "duration": 0.09999999999999432
        },
        {
          "name": "C#4",
          "midi": 61,
          "time": 125.599999999998,
          "velocity": 0.3937007874015748,
          "duration": 0.09999999999999432
        },
        {
          "name": "E5",
          "midi": 76,
          "time": 125.599999999998,
          "velocity": 0.3937007874015748,
          "duration": 0.09999999999999432
        },
        {
          "name": "C#5",
          "midi": 73,
          "time": 125.599999999998,
          "velocity": 0.3937007874015748,
          "duration": 0.09999999999999432
        },
        {
          "name": "E4",
          "midi": 64,
          "time": 125.599999999998,
          "velocity": 0.3937007874015748,
          "duration": 0.09999999999999432
        },
        {
          "name": "G#3",
          "midi": 56,
          "time": 125.999999999998,
          "velocity": 0.3937007874015748,
          "duration": 0.09999999999999432
        },
        {
          "name": "B4",
          "midi": 71,
          "time": 125.999999999998,
          "velocity": 0.3937007874015748,
          "duration": 0.09999999999999432
        },
        {
          "name": "G#4",
          "midi": 68,
          "time": 125.999999999998,
          "velocity": 0.3937007874015748,
          "duration": 0.09999999999999432
        },
        {
          "name": "B3",
          "midi": 59,
          "time": 125.999999999998,
          "velocity": 0.3937007874015748,
          "duration": 0.09999999999999432
        },
        {
          "name": "E4",
          "midi": 64,
          "time": 126.19999999999798,
          "velocity": 0.3937007874015748,
          "duration": 0.09999999999999432
        },
        {
          "name": "G#5",
          "midi": 80,
          "time": 126.19999999999798,
          "velocity": 0.3937007874015748,
          "duration": 0.09999999999999432
        },
        {
          "name": "G#4",
          "midi": 68,
          "time": 126.19999999999798,
          "velocity": 0.3937007874015748,
          "duration": 0.09999999999999432
        },
        {
          "name": "E5",
          "midi": 76,
          "time": 126.19999999999798,
          "velocity": 0.3937007874015748,
          "duration": 0.09999999999999432
        },
        {
          "name": "E4",
          "midi": 64,
          "time": 126.39999999999797,
          "velocity": 0.3937007874015748,
          "duration": 0.09999999999999432
        },
        {
          "name": "C#6",
          "midi": 85,
          "time": 126.39999999999797,
          "velocity": 0.3937007874015748,
          "duration": 0.09999999999999432
        },
        {
          "name": "E5",
          "midi": 76,
          "time": 126.39999999999797,
          "velocity": 0.3937007874015748,
          "duration": 0.09999999999999432
        },
        {
          "name": "C#5",
          "midi": 73,
          "time": 126.39999999999797,
          "velocity": 0.3937007874015748,
          "duration": 0.09999999999999432
        },
        {
          "name": "E4",
          "midi": 64,
          "time": 126.79999999999797,
          "velocity": 0.3937007874015748,
          "duration": 0.09999999999999432
        },
        {
          "name": "B5",
          "midi": 83,
          "time": 126.79999999999797,
          "velocity": 0.3937007874015748,
          "duration": 0.09999999999999432
        },
        {
          "name": "E5",
          "midi": 76,
          "time": 126.79999999999797,
          "velocity": 0.3937007874015748,
          "duration": 0.09999999999999432
        },
        {
          "name": "B4",
          "midi": 71,
          "time": 126.79999999999797,
          "velocity": 0.3937007874015748,
          "duration": 0.09999999999999432
        },
        {
          "name": "B3",
          "midi": 59,
          "time": 126.99999999999795,
          "velocity": 0.3937007874015748,
          "duration": 0.09999999999999432
        },
        {
          "name": "D#5",
          "midi": 75,
          "time": 126.99999999999795,
          "velocity": 0.3937007874015748,
          "duration": 0.09999999999999432
        },
        {
          "name": "B4",
          "midi": 71,
          "time": 126.99999999999795,
          "velocity": 0.3937007874015748,
          "duration": 0.09999999999999432
        },
        {
          "name": "D#4",
          "midi": 63,
          "time": 126.99999999999795,
          "velocity": 0.3937007874015748,
          "duration": 0.09999999999999432
        },
        {
          "name": "G#5",
          "midi": 80,
          "time": 127.19999999999794,
          "velocity": 0.3937007874015748,
          "duration": 0.09999999999999432
        },
        {
          "name": "F#5",
          "midi": 78,
          "time": 127.29999999999794,
          "velocity": 0.3937007874015748,
          "duration": 0.09999999999999432
        },
        {
          "name": "G#3",
          "midi": 56,
          "time": 127.39999999999793,
          "velocity": 0.3937007874015748,
          "duration": 0.09999999999999432
        },
        {
          "name": "B4",
          "midi": 71,
          "time": 127.39999999999793,
          "velocity": 0.3937007874015748,
          "duration": 0.09999999999999432
        },
        {
          "name": "B3",
          "midi": 59,
          "time": 127.39999999999793,
          "velocity": 0.3937007874015748,
          "duration": 0.09999999999999432
        },
        {
          "name": "G#4",
          "midi": 68,
          "time": 127.39999999999793,
          "velocity": 0.3937007874015748,
          "duration": 0.09999999999999432
        },
        {
          "name": "D#5",
          "midi": 75,
          "time": 127.59999999999792,
          "velocity": 0.3937007874015748,
          "duration": 0.09999999999999432
        },
        {
          "name": "C#5",
          "midi": 73,
          "time": 127.69999999999791,
          "velocity": 0.3937007874015748,
          "duration": 0.09999999999999432
        },
        {
          "name": "D#3",
          "midi": 51,
          "time": 127.79999999999791,
          "velocity": 0.3937007874015748,
          "duration": 0.09999999999999432
        },
        {
          "name": "F#4",
          "midi": 66,
          "time": 127.79999999999791,
          "velocity": 0.3937007874015748,
          "duration": 0.09999999999999432
        },
        {
          "name": "D#4",
          "midi": 63,
          "time": 127.79999999999791,
          "velocity": 0.3937007874015748,
          "duration": 0.09999999999999432
        },
        {
          "name": "F#3",
          "midi": 54,
          "time": 127.79999999999791,
          "velocity": 0.3937007874015748,
          "duration": 0.09999999999999432
        },
        {
          "name": "G#3",
          "midi": 56,
          "time": 127.9999999999979,
          "velocity": 0.3937007874015748,
          "duration": 0.09999999999999432
        },
        {
          "name": "E5",
          "midi": 76,
          "time": 127.9999999999979,
          "velocity": 0.3937007874015748,
          "duration": 0.09999999999999432
        },
        {
          "name": "E4",
          "midi": 64,
          "time": 127.9999999999979,
          "velocity": 0.3937007874015748,
          "duration": 0.09999999999999432
        },
        {
          "name": "G#4",
          "midi": 68,
          "time": 127.9999999999979,
          "velocity": 0.3937007874015748,
          "duration": 0.09999999999999432
        },
        {
          "name": "E4",
          "midi": 64,
          "time": 128.19999999999789,
          "velocity": 0.3937007874015748,
          "duration": 0.09999999999999432
        },
        {
          "name": "D#5",
          "midi": 75,
          "time": 128.29999999999788,
          "velocity": 0.3937007874015748,
          "duration": 0.09999999999999432
        },
        {
          "name": "B4",
          "midi": 71,
          "time": 128.39999999999787,
          "velocity": 0.3937007874015748,
          "duration": 0.09999999999999432
        },
        {
          "name": "C#5",
          "midi": 73,
          "time": 128.49999999999787,
          "velocity": 0.3937007874015748,
          "duration": 0.09999999999999432
        },
        {
          "name": "E4",
          "midi": 64,
          "time": 128.59999999999786,
          "velocity": 0.3937007874015748,
          "duration": 0.09999999999999432
        },
        {
          "name": "G#5",
          "midi": 80,
          "time": 128.59999999999786,
          "velocity": 0.3937007874015748,
          "duration": 0.09999999999999432
        },
        {
          "name": "E5",
          "midi": 76,
          "time": 128.59999999999786,
          "velocity": 0.3937007874015748,
          "duration": 0.09999999999999432
        },
        {
          "name": "G#4",
          "midi": 68,
          "time": 128.59999999999786,
          "velocity": 0.3937007874015748,
          "duration": 0.09999999999999432
        },
        {
          "name": "C#4",
          "midi": 61,
          "time": 128.79999999999785,
          "velocity": 0.3937007874015748,
          "duration": 0.09999999999999432
        },
        {
          "name": "E5",
          "midi": 76,
          "time": 128.79999999999785,
          "velocity": 0.3937007874015748,
          "duration": 0.09999999999999432
        },
        {
          "name": "C#5",
          "midi": 73,
          "time": 128.79999999999785,
          "velocity": 0.3937007874015748,
          "duration": 0.09999999999999432
        },
        {
          "name": "E4",
          "midi": 64,
          "time": 128.79999999999785,
          "velocity": 0.3937007874015748,
          "duration": 0.09999999999999432
        },
        {
          "name": "G#3",
          "midi": 56,
          "time": 129.19999999999786,
          "velocity": 0.3937007874015748,
          "duration": 0.09999999999999432
        },
        {
          "name": "B4",
          "midi": 71,
          "time": 129.19999999999786,
          "velocity": 0.3937007874015748,
          "duration": 0.09999999999999432
        },
        {
          "name": "G#4",
          "midi": 68,
          "time": 129.19999999999786,
          "velocity": 0.3937007874015748,
          "duration": 0.09999999999999432
        },
        {
          "name": "B3",
          "midi": 59,
          "time": 129.19999999999786,
          "velocity": 0.3937007874015748,
          "duration": 0.09999999999999432
        },
        {
          "name": "E4",
          "midi": 64,
          "time": 129.39999999999785,
          "velocity": 0.3937007874015748,
          "duration": 0.09999999999999432
        },
        {
          "name": "G#5",
          "midi": 80,
          "time": 129.39999999999785,
          "velocity": 0.3937007874015748,
          "duration": 0.09999999999999432
        },
        {
          "name": "G#4",
          "midi": 68,
          "time": 129.39999999999785,
          "velocity": 0.3937007874015748,
          "duration": 0.09999999999999432
        },
        {
          "name": "E5",
          "midi": 76,
          "time": 129.39999999999785,
          "velocity": 0.3937007874015748,
          "duration": 0.09999999999999432
        },
        {
          "name": "E4",
          "midi": 64,
          "time": 129.59999999999783,
          "velocity": 0.3937007874015748,
          "duration": 0.09999999999999432
        },
        {
          "name": "C#6",
          "midi": 85,
          "time": 129.59999999999783,
          "velocity": 0.3937007874015748,
          "duration": 0.09999999999999432
        },
        {
          "name": "E5",
          "midi": 76,
          "time": 129.59999999999783,
          "velocity": 0.3937007874015748,
          "duration": 0.09999999999999432
        },
        {
          "name": "C#5",
          "midi": 73,
          "time": 129.59999999999783,
          "velocity": 0.3937007874015748,
          "duration": 0.09999999999999432
        },
        {
          "name": "E4",
          "midi": 64,
          "time": 129.79999999999782,
          "velocity": 0.3937007874015748,
          "duration": 0.09999999999999432
        },
        {
          "name": "G#5",
          "midi": 80,
          "time": 129.79999999999782,
          "velocity": 0.3937007874015748,
          "duration": 0.09999999999999432
        },
        {
          "name": "G#4",
          "midi": 68,
          "time": 129.79999999999782,
          "velocity": 0.3937007874015748,
          "duration": 0.09999999999999432
        },
        {
          "name": "E5",
          "midi": 76,
          "time": 129.79999999999782,
          "velocity": 0.3937007874015748,
          "duration": 0.09999999999999432
        },
        {
          "name": "B3",
          "midi": 59,
          "time": 129.9999999999978,
          "velocity": 0.3937007874015748,
          "duration": 0.09999999999999432
        },
        {
          "name": "D#5",
          "midi": 75,
          "time": 129.9999999999978,
          "velocity": 0.3937007874015748,
          "duration": 0.09999999999999432
        },
        {
          "name": "D#4",
          "midi": 63,
          "time": 129.9999999999978,
          "velocity": 0.3937007874015748,
          "duration": 0.09999999999999432
        },
        {
          "name": "B4",
          "midi": 71,
          "time": 129.9999999999978,
          "velocity": 0.3937007874015748,
          "duration": 0.09999999999999432
        },
        {
          "name": "B5",
          "midi": 83,
          "time": 130.1999999999978,
          "velocity": 0.3937007874015748,
          "duration": 0.09999999999999432
        },
        {
          "name": "C#6",
          "midi": 85,
          "time": 130.2999999999978,
          "velocity": 0.3937007874015748,
          "duration": 0.09999999999999432
        },
        {
          "name": "F#4",
          "midi": 66,
          "time": 130.3999999999978,
          "velocity": 0.3937007874015748,
          "duration": 0.09999999999999432
        },
        {
          "name": "D#6",
          "midi": 87,
          "time": 130.3999999999978,
          "velocity": 0.3937007874015748,
          "duration": 0.09999999999999432
        },
        {
          "name": "D#5",
          "midi": 75,
          "time": 130.3999999999978,
          "velocity": 0.3937007874015748,
          "duration": 0.09999999999999432
        },
        {
          "name": "F#5",
          "midi": 78,
          "time": 130.3999999999978,
          "velocity": 0.3937007874015748,
          "duration": 0.09999999999999432
        },
        {
          "name": "F#4",
          "midi": 66,
          "time": 130.59999999999778,
          "velocity": 0.3937007874015748,
          "duration": 0.09999999999999432
        },
        {
          "name": "E6",
          "midi": 88,
          "time": 130.59999999999778,
          "velocity": 0.3937007874015748,
          "duration": 0.09999999999999432
        },
        {
          "name": "E5",
          "midi": 76,
          "time": 130.59999999999778,
          "velocity": 0.3937007874015748,
          "duration": 0.09999999999999432
        },
        {
          "name": "F#5",
          "midi": 78,
          "time": 130.59999999999778,
          "velocity": 0.3937007874015748,
          "duration": 0.09999999999999432
        },
        {
          "name": "E5",
          "midi": 76,
          "time": 130.79999999999777,
          "velocity": 0.3937007874015748,
          "duration": 0.09999999999999432
        },
        {
          "name": "G#6",
          "midi": 92,
          "time": 130.79999999999777,
          "velocity": 0.3937007874015748,
          "duration": 0.09999999999999432
        },
        {
          "name": "G#5",
          "midi": 80,
          "time": 130.79999999999777,
          "velocity": 0.3937007874015748,
          "duration": 0.09999999999999432
        },
        {
          "name": "E6",
          "midi": 88,
          "time": 130.79999999999777,
          "velocity": 0.3937007874015748,
          "duration": 0.09999999999999432
        },
        {
          "name": "B5",
          "midi": 83,
          "time": 130.89999999999776,
          "velocity": 0.3937007874015748,
          "duration": 0.09999999999999432
        },
        {
          "name": "B4",
          "midi": 71,
          "time": 130.89999999999776,
          "velocity": 0.3937007874015748,
          "duration": 0.09999999999999432
        },
        {
          "name": "B4",
          "midi": 71,
          "time": 130.99999999999775,
          "velocity": 0.3937007874015748,
          "duration": 0.09999999999999432
        },
        {
          "name": "D#6",
          "midi": 87,
          "time": 130.99999999999775,
          "velocity": 0.3937007874015748,
          "duration": 0.09999999999999432
        },
        {
          "name": "D#5",
          "midi": 75,
          "time": 130.99999999999775,
          "velocity": 0.3937007874015748,
          "duration": 0.09999999999999432
        },
        {
          "name": "B5",
          "midi": 83,
          "time": 130.99999999999775,
          "velocity": 0.3937007874015748,
          "duration": 0.09999999999999432
        },
        {
          "name": "C#5",
          "midi": 73,
          "time": 131.19999999999774,
          "velocity": 0.3937007874015748,
          "duration": 0.09999999999999432
        },
        {
          "name": "E6",
          "midi": 88,
          "time": 131.19999999999774,
          "velocity": 0.3937007874015748,
          "duration": 0.09999999999999432
        },
        {
          "name": "E5",
          "midi": 76,
          "time": 131.19999999999774,
          "velocity": 0.3937007874015748,
          "duration": 0.09999999999999432
        },
        {
          "name": "C#6",
          "midi": 85,
          "time": 131.19999999999774,
          "velocity": 0.3937007874015748,
          "duration": 0.09999999999999432
        },
        {
          "name": "E5",
          "midi": 76,
          "time": 131.29999999999774,
          "velocity": 0.3937007874015748,
          "duration": 0.09999999999999432
        },
        {
          "name": "E4",
          "midi": 64,
          "time": 131.29999999999774,
          "velocity": 0.3937007874015748,
          "duration": 0.09999999999999432
        },
        {
          "name": "B5",
          "midi": 83,
          "time": 131.39999999999773,
          "velocity": 0.3937007874015748,
          "duration": 0.09999999999999432
        },
        {
          "name": "B4",
          "midi": 71,
          "time": 131.39999999999773,
          "velocity": 0.3937007874015748,
          "duration": 0.09999999999999432
        },
        {
          "name": "E5",
          "midi": 76,
          "time": 131.39999999999773,
          "velocity": 0.3937007874015748,
          "duration": 0.09999999999999432
        },
        {
          "name": "E4",
          "midi": 64,
          "time": 131.39999999999773,
          "velocity": 0.3937007874015748,
          "duration": 0.09999999999999432
        },
        {
          "name": "A5",
          "midi": 81,
          "time": 131.59999999999772,
          "velocity": 0.3937007874015748,
          "duration": 0.09999999999999432
        },
        {
          "name": "A4",
          "midi": 69,
          "time": 131.59999999999772,
          "velocity": 0.3937007874015748,
          "duration": 0.09999999999999432
        },
        {
          "name": "E5",
          "midi": 76,
          "time": 131.59999999999772,
          "velocity": 0.3937007874015748,
          "duration": 0.09999999999999432
        },
        {
          "name": "E4",
          "midi": 64,
          "time": 131.59999999999772,
          "velocity": 0.3937007874015748,
          "duration": 0.09999999999999432
        },
        {
          "name": "E5",
          "midi": 76,
          "time": 131.7999999999977,
          "velocity": 0.3937007874015748,
          "duration": 0.09999999999999432
        },
        {
          "name": "G#6",
          "midi": 92,
          "time": 131.7999999999977,
          "velocity": 0.3937007874015748,
          "duration": 0.09999999999999432
        },
        {
          "name": "G#5",
          "midi": 80,
          "time": 131.7999999999977,
          "velocity": 0.3937007874015748,
          "duration": 0.09999999999999432
        },
        {
          "name": "E6",
          "midi": 88,
          "time": 131.7999999999977,
          "velocity": 0.3937007874015748,
          "duration": 0.09999999999999432
        },
        {
          "name": "C#5",
          "midi": 73,
          "time": 131.9999999999977,
          "velocity": 0.3937007874015748,
          "duration": 0.09999999999999432
        },
        {
          "name": "E5",
          "midi": 76,
          "time": 131.9999999999977,
          "velocity": 0.3937007874015748,
          "duration": 0.09999999999999432
        },
        {
          "name": "C#6",
          "midi": 85,
          "time": 131.9999999999977,
          "velocity": 0.3937007874015748,
          "duration": 0.09999999999999432
        },
        {
          "name": "E6",
          "midi": 88,
          "time": 131.9999999999977,
          "velocity": 0.3937007874015748,
          "duration": 0.09999999999999432
        },
        {
          "name": "E4",
          "midi": 64,
          "time": 132.1999999999977,
          "velocity": 0.3937007874015748,
          "duration": 0.09999999999999432
        },
        {
          "name": "G#5",
          "midi": 80,
          "time": 132.1999999999977,
          "velocity": 0.3937007874015748,
          "duration": 0.09999999999999432
        },
        {
          "name": "G#4",
          "midi": 68,
          "time": 132.1999999999977,
          "velocity": 0.3937007874015748,
          "duration": 0.09999999999999432
        },
        {
          "name": "E5",
          "midi": 76,
          "time": 132.1999999999977,
          "velocity": 0.3937007874015748,
          "duration": 0.09999999999999432
        },
        {
          "name": "C#6",
          "midi": 85,
          "time": 132.39999999999768,
          "velocity": 0.3937007874015748,
          "duration": 0.09999999999999432
        },
        {
          "name": "C#5",
          "midi": 73,
          "time": 132.39999999999768,
          "velocity": 0.3937007874015748,
          "duration": 0.09999999999999432
        },
        {
          "name": "B5",
          "midi": 83,
          "time": 132.49999999999767,
          "velocity": 0.3937007874015748,
          "duration": 0.09999999999999432
        },
        {
          "name": "B4",
          "midi": 71,
          "time": 132.49999999999767,
          "velocity": 0.3937007874015748,
          "duration": 0.09999999999999432
        },
        {
          "name": "C#4",
          "midi": 61,
          "time": 132.59999999999766,
          "velocity": 0.3937007874015748,
          "duration": 0.09999999999999432
        },
        {
          "name": "E5",
          "midi": 76,
          "time": 132.59999999999766,
          "velocity": 0.3937007874015748,
          "duration": 0.09999999999999432
        },
        {
          "name": "E4",
          "midi": 64,
          "time": 132.59999999999766,
          "velocity": 0.3937007874015748,
          "duration": 0.09999999999999432
        },
        {
          "name": "C#5",
          "midi": 73,
          "time": 132.59999999999766,
          "velocity": 0.3937007874015748,
          "duration": 0.09999999999999432
        },
        {
          "name": "E5",
          "midi": 76,
          "time": 132.79999999999765,
          "velocity": 0.3937007874015748,
          "duration": 0.09999999999999432
        },
        {
          "name": "B4",
          "midi": 71,
          "time": 132.89999999999765,
          "velocity": 0.3937007874015748,
          "duration": 0.09999999999999432
        },
        {
          "name": "A4",
          "midi": 69,
          "time": 132.99999999999764,
          "velocity": 0.3937007874015748,
          "duration": 0.09999999999999432
        },
        {
          "name": "C#5",
          "midi": 73,
          "time": 133.19999999999763,
          "velocity": 0.3937007874015748,
          "duration": 0.09999999999999432
        },
        {
          "name": "B4",
          "midi": 71,
          "time": 133.29999999999762,
          "velocity": 0.3937007874015748,
          "duration": 0.09999999999999432
        },
        {
          "name": "E4",
          "midi": 64,
          "time": 133.39999999999762,
          "velocity": 0.3937007874015748,
          "duration": 0.09999999999999432
        },
        {
          "name": "C#5",
          "midi": 73,
          "time": 133.5999999999976,
          "velocity": 0.3937007874015748,
          "duration": 0.09999999999999432
        },
        {
          "name": "B4",
          "midi": 71,
          "time": 133.6999999999976,
          "velocity": 0.3937007874015748,
          "duration": 0.09999999999999432
        },
        {
          "name": "E4",
          "midi": 64,
          "time": 133.7999999999976,
          "velocity": 0.3937007874015748,
          "duration": 0.09999999999999432
        },
        {
          "name": "F#4",
          "midi": 66,
          "time": 133.99999999999758,
          "velocity": 0.3937007874015748,
          "duration": 0.09999999999999432
        },
        {
          "name": "C#4",
          "midi": 61,
          "time": 134.09999999999758,
          "velocity": 0.3937007874015748,
          "duration": 0.09999999999999432
        },
        {
          "name": "B3",
          "midi": 59,
          "time": 134.19999999999757,
          "velocity": 0.3937007874015748,
          "duration": 0.09999999999999432
        },
        {
          "name": "A4",
          "midi": 69,
          "time": 134.39999999999756,
          "velocity": 0.3937007874015748,
          "duration": 0.09999999999999432
        },
        {
          "name": "F4",
          "midi": 65,
          "time": 134.39999999999756,
          "velocity": 0.3937007874015748,
          "duration": 0.09999999999999432
        },
        {
          "name": "D5",
          "midi": 74,
          "time": 134.99999999999756,
          "velocity": 0.3937007874015748,
          "duration": 0.09999999999999432
        },
        {
          "name": "E4",
          "midi": 64,
          "time": 134.99999999999756,
          "velocity": 0.3937007874015748,
          "duration": 0.09999999999999432
        },
        {
          "name": "A4",
          "midi": 69,
          "time": 135.19999999999754,
          "velocity": 0.3937007874015748,
          "duration": 0.09999999999999432
        },
        {
          "name": "F4",
          "midi": 65,
          "time": 135.19999999999754,
          "velocity": 0.3937007874015748,
          "duration": 0.09999999999999432
        },
        {
          "name": "A4",
          "midi": 69,
          "time": 135.99999999999753,
          "velocity": 0.3937007874015748,
          "duration": 0.09999999999999432
        },
        {
          "name": "F5",
          "midi": 77,
          "time": 135.99999999999753,
          "velocity": 0.3937007874015748,
          "duration": 0.09999999999999432
        },
        {
          "name": "C5",
          "midi": 72,
          "time": 136.59999999999752,
          "velocity": 0.3937007874015748,
          "duration": 0.09999999999999432
        },
        {
          "name": "D5",
          "midi": 74,
          "time": 136.69999999999752,
          "velocity": 0.3937007874015748,
          "duration": 0.09999999999999432
        },
        {
          "name": "G4",
          "midi": 67,
          "time": 136.7999999999975,
          "velocity": 0.3937007874015748,
          "duration": 0.09999999999999432
        },
        {
          "name": "E5",
          "midi": 76,
          "time": 136.7999999999975,
          "velocity": 0.3937007874015748,
          "duration": 0.09999999999999432
        },
        {
          "name": "G4",
          "midi": 67,
          "time": 136.9999999999975,
          "velocity": 0.3937007874015748,
          "duration": 0.09999999999999432
        },
        {
          "name": "F5",
          "midi": 77,
          "time": 136.9999999999975,
          "velocity": 0.3937007874015748,
          "duration": 0.09999999999999432
        },
        {
          "name": "E4",
          "midi": 64,
          "time": 137.1999999999975,
          "velocity": 0.3937007874015748,
          "duration": 0.09999999999999432
        },
        {
          "name": "C5",
          "midi": 72,
          "time": 137.1999999999975,
          "velocity": 0.3937007874015748,
          "duration": 0.09999999999999432
        },
        {
          "name": "G4",
          "midi": 67,
          "time": 137.39999999999748,
          "velocity": 0.3937007874015748,
          "duration": 0.09999999999999432
        },
        {
          "name": "E5",
          "midi": 76,
          "time": 137.39999999999748,
          "velocity": 0.3937007874015748,
          "duration": 0.09999999999999432
        },
        {
          "name": "A4",
          "midi": 69,
          "time": 137.59999999999746,
          "velocity": 0.3937007874015748,
          "duration": 0.09999999999999432
        },
        {
          "name": "F4",
          "midi": 65,
          "time": 137.59999999999746,
          "velocity": 0.3937007874015748,
          "duration": 0.09999999999999432
        },
        {
          "name": "D5",
          "midi": 74,
          "time": 138.19999999999746,
          "velocity": 0.3937007874015748,
          "duration": 0.09999999999999432
        },
        {
          "name": "A4",
          "midi": 69,
          "time": 138.19999999999746,
          "velocity": 0.3937007874015748,
          "duration": 0.09999999999999432
        },
        {
          "name": "A4",
          "midi": 69,
          "time": 138.39999999999745,
          "velocity": 0.3937007874015748,
          "duration": 0.09999999999999432
        },
        {
          "name": "F4",
          "midi": 65,
          "time": 138.39999999999745,
          "velocity": 0.3937007874015748,
          "duration": 0.09999999999999432
        },
        {
          "name": "A4",
          "midi": 69,
          "time": 139.19999999999743,
          "velocity": 0.3937007874015748,
          "duration": 0.09999999999999432
        },
        {
          "name": "F5",
          "midi": 77,
          "time": 139.19999999999743,
          "velocity": 0.3937007874015748,
          "duration": 0.09999999999999432
        },
        {
          "name": "C5",
          "midi": 72,
          "time": 140.19999999999743,
          "velocity": 0.3937007874015748,
          "duration": 0.09999999999999432
        },
        {
          "name": "G4",
          "midi": 67,
          "time": 140.19999999999743,
          "velocity": 0.3937007874015748,
          "duration": 0.09999999999999432
        },
        {
          "name": "F4",
          "midi": 65,
          "time": 140.39999999999742,
          "velocity": 0.3937007874015748,
          "duration": 0.09999999999999432
        },
        {
          "name": "C4",
          "midi": 60,
          "time": 140.39999999999742,
          "velocity": 0.3937007874015748,
          "duration": 0.09999999999999432
        },
        {
          "name": "G4",
          "midi": 67,
          "time": 140.5999999999974,
          "velocity": 0.3937007874015748,
          "duration": 0.09999999999999432
        },
        {
          "name": "D4",
          "midi": 62,
          "time": 140.5999999999974,
          "velocity": 0.3937007874015748,
          "duration": 0.09999999999999432
        },
        {
          "name": "A4",
          "midi": 69,
          "time": 140.7999999999974,
          "velocity": 0.3937007874015748,
          "duration": 0.09999999999999432
        },
        {
          "name": "F4",
          "midi": 65,
          "time": 140.7999999999974,
          "velocity": 0.3937007874015748,
          "duration": 0.09999999999999432
        },
        {
          "name": "D5",
          "midi": 74,
          "time": 141.3999999999974,
          "velocity": 0.3937007874015748,
          "duration": 0.09999999999999432
        },
        {
          "name": "E4",
          "midi": 64,
          "time": 141.3999999999974,
          "velocity": 0.3937007874015748,
          "duration": 0.09999999999999432
        },
        {
          "name": "A4",
          "midi": 69,
          "time": 141.59999999999738,
          "velocity": 0.3937007874015748,
          "duration": 0.09999999999999432
        },
        {
          "name": "F4",
          "midi": 65,
          "time": 141.59999999999738,
          "velocity": 0.3937007874015748,
          "duration": 0.09999999999999432
        },
        {
          "name": "A4",
          "midi": 69,
          "time": 142.39999999999736,
          "velocity": 0.3937007874015748,
          "duration": 0.09999999999999432
        },
        {
          "name": "F5",
          "midi": 77,
          "time": 142.39999999999736,
          "velocity": 0.3937007874015748,
          "duration": 0.09999999999999432
        },
        {
          "name": "C5",
          "midi": 72,
          "time": 142.99999999999736,
          "velocity": 0.3937007874015748,
          "duration": 0.09999999999999432
        },
        {
          "name": "D5",
          "midi": 74,
          "time": 143.09999999999735,
          "velocity": 0.3937007874015748,
          "duration": 0.09999999999999432
        },
        {
          "name": "G4",
          "midi": 67,
          "time": 143.19999999999735,
          "velocity": 0.3937007874015748,
          "duration": 0.09999999999999432
        },
        {
          "name": "E5",
          "midi": 76,
          "time": 143.19999999999735,
          "velocity": 0.3937007874015748,
          "duration": 0.09999999999999432
        },
        {
          "name": "G4",
          "midi": 67,
          "time": 143.39999999999733,
          "velocity": 0.3937007874015748,
          "duration": 0.09999999999999432
        },
        {
          "name": "F5",
          "midi": 77,
          "time": 143.39999999999733,
          "velocity": 0.3937007874015748,
          "duration": 0.09999999999999432
        },
        {
          "name": "E4",
          "midi": 64,
          "time": 143.59999999999732,
          "velocity": 0.3937007874015748,
          "duration": 0.09999999999999432
        },
        {
          "name": "C5",
          "midi": 72,
          "time": 143.59999999999732,
          "velocity": 0.3937007874015748,
          "duration": 0.09999999999999432
        },
        {
          "name": "G4",
          "midi": 67,
          "time": 143.7999999999973,
          "velocity": 0.3937007874015748,
          "duration": 0.09999999999999432
        },
        {
          "name": "E5",
          "midi": 76,
          "time": 143.7999999999973,
          "velocity": 0.3937007874015748,
          "duration": 0.09999999999999432
        },
        {
          "name": "D5",
          "midi": 74,
          "time": 143.9999999999973,
          "velocity": 0.3937007874015748,
          "duration": 0.09999999999999432
        },
        {
          "name": "A#4",
          "midi": 70,
          "time": 143.9999999999973,
          "velocity": 0.3937007874015748,
          "duration": 0.09999999999999432
        },
        {
          "name": "A5",
          "midi": 81,
          "time": 144.5999999999973,
          "velocity": 0.3937007874015748,
          "duration": 0.09999999999999432
        },
        {
          "name": "D5",
          "midi": 74,
          "time": 144.5999999999973,
          "velocity": 0.3937007874015748,
          "duration": 0.09999999999999432
        },
        {
          "name": "D5",
          "midi": 74,
          "time": 144.79999999999728,
          "velocity": 0.3937007874015748,
          "duration": 0.09999999999999432
        },
        {
          "name": "A#4",
          "midi": 70,
          "time": 144.79999999999728,
          "velocity": 0.3937007874015748,
          "duration": 0.09999999999999432
        },
        {
          "name": "F4",
          "midi": 65,
          "time": 145.79999999999728,
          "velocity": 0.3937007874015748,
          "duration": 0.09999999999999432
        },
        {
          "name": "D4",
          "midi": 62,
          "time": 145.79999999999728,
          "velocity": 0.3937007874015748,
          "duration": 0.09999999999999432
        },
        {
          "name": "G4",
          "midi": 67,
          "time": 145.99999999999727,
          "velocity": 0.3937007874015748,
          "duration": 0.09999999999999432
        },
        {
          "name": "C5",
          "midi": 72,
          "time": 145.99999999999727,
          "velocity": 0.3937007874015748,
          "duration": 0.09999999999999432
        },
        {
          "name": "F5",
          "midi": 77,
          "time": 146.59999999999727,
          "velocity": 0.3937007874015748,
          "duration": 0.09999999999999432
        },
        {
          "name": "C5",
          "midi": 72,
          "time": 146.59999999999727,
          "velocity": 0.3937007874015748,
          "duration": 0.09999999999999432
        },
        {
          "name": "A#4",
          "midi": 70,
          "time": 146.79999999999725,
          "velocity": 0.3937007874015748,
          "duration": 0.09999999999999432
        },
        {
          "name": "F4",
          "midi": 65,
          "time": 146.79999999999725,
          "velocity": 0.3937007874015748,
          "duration": 0.09999999999999432
        },
        {
          "name": "C5",
          "midi": 72,
          "time": 146.99999999999724,
          "velocity": 0.3937007874015748,
          "duration": 0.09999999999999432
        },
        {
          "name": "G4",
          "midi": 67,
          "time": 146.99999999999724,
          "velocity": 0.3937007874015748,
          "duration": 0.09999999999999432
        },
        {
          "name": "F5",
          "midi": 77,
          "time": 147.19999999999723,
          "velocity": 0.3937007874015748,
          "duration": 0.09999999999999432
        },
        {
          "name": "F4",
          "midi": 65,
          "time": 147.19999999999723,
          "velocity": 0.3937007874015748,
          "duration": 0.09999999999999432
        },
        {
          "name": "D5",
          "midi": 74,
          "time": 147.19999999999723,
          "velocity": 0.3937007874015748,
          "duration": 0.09999999999999432
        },
        {
          "name": "A5",
          "midi": 81,
          "time": 147.79999999999723,
          "velocity": 0.3937007874015748,
          "duration": 0.09999999999999432
        },
        {
          "name": "A4",
          "midi": 69,
          "time": 147.79999999999723,
          "velocity": 0.3937007874015748,
          "duration": 0.09999999999999432
        },
        {
          "name": "F5",
          "midi": 77,
          "time": 147.79999999999723,
          "velocity": 0.3937007874015748,
          "duration": 0.09999999999999432
        },
        {
          "name": "F5",
          "midi": 77,
          "time": 147.99999999999721,
          "velocity": 0.3937007874015748,
          "duration": 0.09999999999999432
        },
        {
          "name": "F4",
          "midi": 65,
          "time": 147.99999999999721,
          "velocity": 0.3937007874015748,
          "duration": 0.09999999999999432
        },
        {
          "name": "D5",
          "midi": 74,
          "time": 147.99999999999721,
          "velocity": 0.3937007874015748,
          "duration": 0.09999999999999432
        },
        {
          "name": "D6",
          "midi": 86,
          "time": 148.7999999999972,
          "velocity": 0.3937007874015748,
          "duration": 0.09999999999999432
        },
        {
          "name": "F5",
          "midi": 77,
          "time": 148.7999999999972,
          "velocity": 0.3937007874015748,
          "duration": 0.09999999999999432
        },
        {
          "name": "G5",
          "midi": 79,
          "time": 149.3999999999972,
          "velocity": 0.3937007874015748,
          "duration": 0.09999999999999432
        },
        {
          "name": "A5",
          "midi": 81,
          "time": 149.4999999999972,
          "velocity": 0.3937007874015748,
          "duration": 0.09999999999999432
        },
        {
          "name": "C6",
          "midi": 84,
          "time": 149.59999999999718,
          "velocity": 0.3937007874015748,
          "duration": 0.09999999999999432
        },
        {
          "name": "E5",
          "midi": 76,
          "time": 149.59999999999718,
          "velocity": 0.3937007874015748,
          "duration": 0.09999999999999432
        },
        {
          "name": "G5",
          "midi": 79,
          "time": 149.79999999999717,
          "velocity": 0.3937007874015748,
          "duration": 0.09999999999999432
        },
        {
          "name": "E5",
          "midi": 76,
          "time": 149.79999999999717,
          "velocity": 0.3937007874015748,
          "duration": 0.09999999999999432
        },
        {
          "name": "E5",
          "midi": 76,
          "time": 149.99999999999716,
          "velocity": 0.3937007874015748,
          "duration": 0.09999999999999432
        },
        {
          "name": "C5",
          "midi": 72,
          "time": 149.99999999999716,
          "velocity": 0.3937007874015748,
          "duration": 0.09999999999999432
        },
        {
          "name": "G5",
          "midi": 79,
          "time": 150.19999999999715,
          "velocity": 0.3937007874015748,
          "duration": 0.09999999999999432
        },
        {
          "name": "E5",
          "midi": 76,
          "time": 150.19999999999715,
          "velocity": 0.3937007874015748,
          "duration": 0.09999999999999432
        },
        {
          "name": "F5",
          "midi": 77,
          "time": 150.39999999999714,
          "velocity": 0.3937007874015748,
          "duration": 0.09999999999999432
        },
        {
          "name": "F4",
          "midi": 65,
          "time": 150.39999999999714,
          "velocity": 0.3937007874015748,
          "duration": 0.09999999999999432
        },
        {
          "name": "D5",
          "midi": 74,
          "time": 150.39999999999714,
          "velocity": 0.3937007874015748,
          "duration": 0.09999999999999432
        },
        {
          "name": "A5",
          "midi": 81,
          "time": 150.99999999999713,
          "velocity": 0.3937007874015748,
          "duration": 0.09999999999999432
        },
        {
          "name": "A4",
          "midi": 69,
          "time": 150.99999999999713,
          "velocity": 0.3937007874015748,
          "duration": 0.09999999999999432
        },
        {
          "name": "F5",
          "midi": 77,
          "time": 150.99999999999713,
          "velocity": 0.3937007874015748,
          "duration": 0.09999999999999432
        },
        {
          "name": "F5",
          "midi": 77,
          "time": 151.19999999999712,
          "velocity": 0.3937007874015748,
          "duration": 0.09999999999999432
        },
        {
          "name": "F4",
          "midi": 65,
          "time": 151.19999999999712,
          "velocity": 0.3937007874015748,
          "duration": 0.09999999999999432
        },
        {
          "name": "D5",
          "midi": 74,
          "time": 151.19999999999712,
          "velocity": 0.3937007874015748,
          "duration": 0.09999999999999432
        },
        {
          "name": "D6",
          "midi": 86,
          "time": 151.9999999999971,
          "velocity": 0.3937007874015748,
          "duration": 0.09999999999999432
        },
        {
          "name": "F5",
          "midi": 77,
          "time": 151.9999999999971,
          "velocity": 0.3937007874015748,
          "duration": 0.09999999999999432
        },
        {
          "name": "G5",
          "midi": 79,
          "time": 152.8999999999971,
          "velocity": 0.3937007874015748,
          "duration": 0.09999999999999432
        },
        {
          "name": "F5",
          "midi": 77,
          "time": 152.9999999999971,
          "velocity": 0.3937007874015748,
          "duration": 0.09999999999999432
        },
        {
          "name": "C5",
          "midi": 72,
          "time": 153.0999999999971,
          "velocity": 0.3937007874015748,
          "duration": 0.09999999999999432
        },
        {
          "name": "A#4",
          "midi": 70,
          "time": 153.1999999999971,
          "velocity": 0.3937007874015748,
          "duration": 0.09999999999999432
        },
        {
          "name": "F5",
          "midi": 77,
          "time": 153.29999999999708,
          "velocity": 0.3937007874015748,
          "duration": 0.09999999999999432
        },
        {
          "name": "A4",
          "midi": 69,
          "time": 153.39999999999708,
          "velocity": 0.3937007874015748,
          "duration": 0.09999999999999432
        },
        {
          "name": "C5",
          "midi": 72,
          "time": 153.49999999999707,
          "velocity": 0.3937007874015748,
          "duration": 0.09999999999999432
        },
        {
          "name": "F5",
          "midi": 77,
          "time": 153.59999999999707,
          "velocity": 0.3937007874015748,
          "duration": 0.09999999999999432
        },
        {
          "name": "F4",
          "midi": 65,
          "time": 153.59999999999707,
          "velocity": 0.3937007874015748,
          "duration": 0.09999999999999432
        },
        {
          "name": "D5",
          "midi": 74,
          "time": 153.59999999999707,
          "velocity": 0.3937007874015748,
          "duration": 0.09999999999999432
        },
        {
          "name": "A5",
          "midi": 81,
          "time": 154.19999999999706,
          "velocity": 0.3937007874015748,
          "duration": 0.09999999999999432
        },
        {
          "name": "A4",
          "midi": 69,
          "time": 154.19999999999706,
          "velocity": 0.3937007874015748,
          "duration": 0.09999999999999432
        },
        {
          "name": "F5",
          "midi": 77,
          "time": 154.19999999999706,
          "velocity": 0.3937007874015748,
          "duration": 0.09999999999999432
        },
        {
          "name": "F5",
          "midi": 77,
          "time": 154.39999999999705,
          "velocity": 0.3937007874015748,
          "duration": 0.09999999999999432
        },
        {
          "name": "F4",
          "midi": 65,
          "time": 154.39999999999705,
          "velocity": 0.3937007874015748,
          "duration": 0.09999999999999432
        },
        {
          "name": "D5",
          "midi": 74,
          "time": 154.39999999999705,
          "velocity": 0.3937007874015748,
          "duration": 0.09999999999999432
        },
        {
          "name": "D6",
          "midi": 86,
          "time": 155.19999999999703,
          "velocity": 0.3937007874015748,
          "duration": 0.09999999999999432
        },
        {
          "name": "F5",
          "midi": 77,
          "time": 155.19999999999703,
          "velocity": 0.3937007874015748,
          "duration": 0.09999999999999432
        },
        {
          "name": "C6",
          "midi": 84,
          "time": 155.79999999999703,
          "velocity": 0.3937007874015748,
          "duration": 0.09999999999999432
        },
        {
          "name": "D6",
          "midi": 86,
          "time": 155.89999999999702,
          "velocity": 0.3937007874015748,
          "duration": 0.09999999999999432
        },
        {
          "name": "E6",
          "midi": 88,
          "time": 155.99999999999702,
          "velocity": 0.3937007874015748,
          "duration": 0.09999999999999432
        },
        {
          "name": "G5",
          "midi": 79,
          "time": 155.99999999999702,
          "velocity": 0.3937007874015748,
          "duration": 0.09999999999999432
        },
        {
          "name": "F6",
          "midi": 89,
          "time": 156.199999999997,
          "velocity": 0.3937007874015748,
          "duration": 0.09999999999999432
        },
        {
          "name": "G5",
          "midi": 79,
          "time": 156.199999999997,
          "velocity": 0.3937007874015748,
          "duration": 0.09999999999999432
        },
        {
          "name": "A6",
          "midi": 93,
          "time": 156.399999999997,
          "velocity": 0.3937007874015748,
          "duration": 0.09999999999999432
        },
        {
          "name": "E6",
          "midi": 88,
          "time": 156.399999999997,
          "velocity": 0.3937007874015748,
          "duration": 0.09999999999999432
        },
        {
          "name": "C6",
          "midi": 84,
          "time": 156.59999999999698,
          "velocity": 0.3937007874015748,
          "duration": 0.09999999999999432
        },
        {
          "name": "G5",
          "midi": 79,
          "time": 156.59999999999698,
          "velocity": 0.3937007874015748,
          "duration": 0.09999999999999432
        },
        {
          "name": "D6",
          "midi": 86,
          "time": 156.79999999999697,
          "velocity": 0.3937007874015748,
          "duration": 0.09999999999999432
        },
        {
          "name": "A#5",
          "midi": 82,
          "time": 156.79999999999697,
          "velocity": 0.3937007874015748,
          "duration": 0.09999999999999432
        },
        {
          "name": "A6",
          "midi": 93,
          "time": 157.39999999999696,
          "velocity": 0.3937007874015748,
          "duration": 0.09999999999999432
        },
        {
          "name": "A5",
          "midi": 81,
          "time": 157.39999999999696,
          "velocity": 0.3937007874015748,
          "duration": 0.09999999999999432
        },
        {
          "name": "D6",
          "midi": 86,
          "time": 157.59999999999695,
          "velocity": 0.3937007874015748,
          "duration": 0.09999999999999432
        },
        {
          "name": "A#5",
          "midi": 82,
          "time": 157.59999999999695,
          "velocity": 0.3937007874015748,
          "duration": 0.09999999999999432
        },
        {
          "name": "D#4",
          "midi": 63,
          "time": 159.79999999999694,
          "velocity": 0.3937007874015748,
          "duration": 0.03333333333333144
        },
        {
          "name": "F#4",
          "midi": 66,
          "time": 159.83333333333027,
          "velocity": 0.3937007874015748,
          "duration": 0.03333333333333144
        },
        {
          "name": "G#4",
          "midi": 68,
          "time": 159.8666666666636,
          "velocity": 0.3937007874015748,
          "duration": 0.03333333333333144
        },
        {
          "name": "A#4",
          "midi": 70,
          "time": 159.89999999999694,
          "velocity": 0.3937007874015748,
          "duration": 0.03333333333333144
        },
        {
          "name": "B4",
          "midi": 71,
          "time": 159.93333333333027,
          "velocity": 0.3937007874015748,
          "duration": 0.03333333333333144
        },
        {
          "name": "C#5",
          "midi": 73,
          "time": 159.9666666666636,
          "velocity": 0.3937007874015748,
          "duration": 0.03333333333333144
        },
        {
          "name": "D#5",
          "midi": 75,
          "time": 159.99999999999693,
          "velocity": 0.3937007874015748,
          "duration": 0.09999999999999432
        },
        {
          "name": "F#4",
          "midi": 66,
          "time": 159.99999999999693,
          "velocity": 0.3937007874015748,
          "duration": 0.09999999999999432
        },
        {
          "name": "D#5",
          "midi": 75,
          "time": 160.39999999999694,
          "velocity": 0.3937007874015748,
          "duration": 0.09999999999999432
        },
        {
          "name": "F#4",
          "midi": 66,
          "time": 160.39999999999694,
          "velocity": 0.3937007874015748,
          "duration": 0.09999999999999432
        },
        {
          "name": "D#5",
          "midi": 75,
          "time": 160.79999999999694,
          "velocity": 0.3937007874015748,
          "duration": 0.09999999999999432
        },
        {
          "name": "F#4",
          "midi": 66,
          "time": 160.79999999999694,
          "velocity": 0.3937007874015748,
          "duration": 0.09999999999999432
        },
        {
          "name": "D#5",
          "midi": 75,
          "time": 161.09999999999692,
          "velocity": 0.3937007874015748,
          "duration": 0.09999999999999432
        },
        {
          "name": "F#4",
          "midi": 66,
          "time": 161.09999999999692,
          "velocity": 0.3937007874015748,
          "duration": 0.09999999999999432
        },
        {
          "name": "D#5",
          "midi": 75,
          "time": 161.3999999999969,
          "velocity": 0.3937007874015748,
          "duration": 0.09999999999999432
        },
        {
          "name": "F#4",
          "midi": 66,
          "time": 161.3999999999969,
          "velocity": 0.3937007874015748,
          "duration": 0.09999999999999432
        },
        {
          "name": "C#5",
          "midi": 73,
          "time": 161.7999999999969,
          "velocity": 0.3937007874015748,
          "duration": 0.09999999999999432
        },
        {
          "name": "F4",
          "midi": 65,
          "time": 161.7999999999969,
          "velocity": 0.3937007874015748,
          "duration": 0.09999999999999432
        },
        {
          "name": "C#5",
          "midi": 73,
          "time": 161.9999999999969,
          "velocity": 0.3937007874015748,
          "duration": 0.09999999999999432
        },
        {
          "name": "F4",
          "midi": 65,
          "time": 161.9999999999969,
          "velocity": 0.3937007874015748,
          "duration": 0.09999999999999432
        },
        {
          "name": "C#5",
          "midi": 73,
          "time": 162.3999999999969,
          "velocity": 0.3937007874015748,
          "duration": 0.09999999999999432
        },
        {
          "name": "F4",
          "midi": 65,
          "time": 162.3999999999969,
          "velocity": 0.3937007874015748,
          "duration": 0.09999999999999432
        },
        {
          "name": "C#5",
          "midi": 73,
          "time": 162.6999999999969,
          "velocity": 0.3937007874015748,
          "duration": 0.09999999999999432
        },
        {
          "name": "F4",
          "midi": 65,
          "time": 162.6999999999969,
          "velocity": 0.3937007874015748,
          "duration": 0.09999999999999432
        },
        {
          "name": "A#4",
          "midi": 70,
          "time": 162.99999999999687,
          "velocity": 0.3937007874015748,
          "duration": 0.09999999999999432
        },
        {
          "name": "F#4",
          "midi": 66,
          "time": 162.99999999999687,
          "velocity": 0.3937007874015748,
          "duration": 0.09999999999999432
        },
        {
          "name": "A#4",
          "midi": 70,
          "time": 163.59999999999687,
          "velocity": 0.3937007874015748,
          "duration": 0.09999999999999432
        },
        {
          "name": "F#4",
          "midi": 66,
          "time": 163.59999999999687,
          "velocity": 0.3937007874015748,
          "duration": 0.09999999999999432
        },
        {
          "name": "A#4",
          "midi": 70,
          "time": 163.99999999999687,
          "velocity": 0.3937007874015748,
          "duration": 0.09999999999999432
        },
        {
          "name": "F#4",
          "midi": 66,
          "time": 163.99999999999687,
          "velocity": 0.3937007874015748,
          "duration": 0.09999999999999432
        },
        {
          "name": "A#4",
          "midi": 70,
          "time": 164.29999999999686,
          "velocity": 0.3937007874015748,
          "duration": 0.09999999999999432
        },
        {
          "name": "F#4",
          "midi": 66,
          "time": 164.29999999999686,
          "velocity": 0.3937007874015748,
          "duration": 0.09999999999999432
        },
        {
          "name": "A#4",
          "midi": 70,
          "time": 164.59999999999684,
          "velocity": 0.3937007874015748,
          "duration": 0.09999999999999432
        },
        {
          "name": "F#4",
          "midi": 66,
          "time": 164.59999999999684,
          "velocity": 0.3937007874015748,
          "duration": 0.09999999999999432
        },
        {
          "name": "A#4",
          "midi": 70,
          "time": 165.19999999999683,
          "velocity": 0.3937007874015748,
          "duration": 0.09999999999999432
        },
        {
          "name": "F#4",
          "midi": 66,
          "time": 165.19999999999683,
          "velocity": 0.3937007874015748,
          "duration": 0.09999999999999432
        },
        {
          "name": "A#4",
          "midi": 70,
          "time": 165.59999999999684,
          "velocity": 0.3937007874015748,
          "duration": 0.09999999999999432
        },
        {
          "name": "F#4",
          "midi": 66,
          "time": 165.59999999999684,
          "velocity": 0.3937007874015748,
          "duration": 0.09999999999999432
        },
        {
          "name": "A#4",
          "midi": 70,
          "time": 165.89999999999682,
          "velocity": 0.3937007874015748,
          "duration": 0.09999999999999432
        },
        {
          "name": "F#4",
          "midi": 66,
          "time": 165.89999999999682,
          "velocity": 0.3937007874015748,
          "duration": 0.09999999999999432
        },
        {
          "name": "C#5",
          "midi": 73,
          "time": 166.1999999999968,
          "velocity": 0.3937007874015748,
          "duration": 0.09999999999999432
        },
        {
          "name": "F#4",
          "midi": 66,
          "time": 166.1999999999968,
          "velocity": 0.3937007874015748,
          "duration": 0.09999999999999432
        },
        {
          "name": "D#5",
          "midi": 75,
          "time": 166.3999999999968,
          "velocity": 0.3937007874015748,
          "duration": 0.09999999999999432
        },
        {
          "name": "F#4",
          "midi": 66,
          "time": 166.3999999999968,
          "velocity": 0.3937007874015748,
          "duration": 0.09999999999999432
        },
        {
          "name": "D#5",
          "midi": 75,
          "time": 166.7999999999968,
          "velocity": 0.3937007874015748,
          "duration": 0.09999999999999432
        },
        {
          "name": "F#4",
          "midi": 66,
          "time": 166.7999999999968,
          "velocity": 0.3937007874015748,
          "duration": 0.09999999999999432
        },
        {
          "name": "D#5",
          "midi": 75,
          "time": 167.1999999999968,
          "velocity": 0.3937007874015748,
          "duration": 0.09999999999999432
        },
        {
          "name": "F#4",
          "midi": 66,
          "time": 167.1999999999968,
          "velocity": 0.3937007874015748,
          "duration": 0.09999999999999432
        },
        {
          "name": "D#5",
          "midi": 75,
          "time": 167.4999999999968,
          "velocity": 0.3937007874015748,
          "duration": 0.09999999999999432
        },
        {
          "name": "F#4",
          "midi": 66,
          "time": 167.4999999999968,
          "velocity": 0.3937007874015748,
          "duration": 0.09999999999999432
        },
        {
          "name": "D#5",
          "midi": 75,
          "time": 167.79999999999677,
          "velocity": 0.3937007874015748,
          "duration": 0.09999999999999432
        },
        {
          "name": "F#4",
          "midi": 66,
          "time": 167.79999999999677,
          "velocity": 0.3937007874015748,
          "duration": 0.09999999999999432
        },
        {
          "name": "F5",
          "midi": 77,
          "time": 168.19999999999678,
          "velocity": 0.3937007874015748,
          "duration": 0.09999999999999432
        },
        {
          "name": "G#4",
          "midi": 68,
          "time": 168.19999999999678,
          "velocity": 0.3937007874015748,
          "duration": 0.09999999999999432
        },
        {
          "name": "F5",
          "midi": 77,
          "time": 168.39999999999677,
          "velocity": 0.3937007874015748,
          "duration": 0.09999999999999432
        },
        {
          "name": "G#4",
          "midi": 68,
          "time": 168.39999999999677,
          "velocity": 0.3937007874015748,
          "duration": 0.09999999999999432
        },
        {
          "name": "F5",
          "midi": 77,
          "time": 168.79999999999677,
          "velocity": 0.3937007874015748,
          "duration": 0.09999999999999432
        },
        {
          "name": "G#4",
          "midi": 68,
          "time": 168.79999999999677,
          "velocity": 0.3937007874015748,
          "duration": 0.09999999999999432
        },
        {
          "name": "F5",
          "midi": 77,
          "time": 169.09999999999675,
          "velocity": 0.3937007874015748,
          "duration": 0.09999999999999432
        },
        {
          "name": "G#4",
          "midi": 68,
          "time": 169.09999999999675,
          "velocity": 0.3937007874015748,
          "duration": 0.09999999999999432
        },
        {
          "name": "D#5",
          "midi": 75,
          "time": 169.39999999999674,
          "velocity": 0.3937007874015748,
          "duration": 0.09999999999999432
        },
        {
          "name": "F#4",
          "midi": 66,
          "time": 169.39999999999674,
          "velocity": 0.3937007874015748,
          "duration": 0.09999999999999432
        },
        {
          "name": "D#5",
          "midi": 75,
          "time": 169.99999999999673,
          "velocity": 0.3937007874015748,
          "duration": 0.09999999999999432
        },
        {
          "name": "F#4",
          "midi": 66,
          "time": 169.99999999999673,
          "velocity": 0.3937007874015748,
          "duration": 0.09999999999999432
        },
        {
          "name": "D#5",
          "midi": 75,
          "time": 170.39999999999674,
          "velocity": 0.3937007874015748,
          "duration": 0.09999999999999432
        },
        {
          "name": "F#4",
          "midi": 66,
          "time": 170.39999999999674,
          "velocity": 0.3937007874015748,
          "duration": 0.09999999999999432
        },
        {
          "name": "D#5",
          "midi": 75,
          "time": 170.69999999999672,
          "velocity": 0.3937007874015748,
          "duration": 0.09999999999999432
        },
        {
          "name": "F#4",
          "midi": 66,
          "time": 170.69999999999672,
          "velocity": 0.3937007874015748,
          "duration": 0.09999999999999432
        },
        {
          "name": "D#5",
          "midi": 75,
          "time": 170.9999999999967,
          "velocity": 0.3937007874015748,
          "duration": 0.09999999999999432
        },
        {
          "name": "F#4",
          "midi": 66,
          "time": 170.9999999999967,
          "velocity": 0.3937007874015748,
          "duration": 0.09999999999999432
        },
        {
          "name": "D#5",
          "midi": 75,
          "time": 171.3999999999967,
          "velocity": 0.3937007874015748,
          "duration": 0.09999999999999432
        },
        {
          "name": "F#4",
          "midi": 66,
          "time": 171.3999999999967,
          "velocity": 0.3937007874015748,
          "duration": 0.09999999999999432
        },
        {
          "name": "D#5",
          "midi": 75,
          "time": 171.5999999999967,
          "velocity": 0.3937007874015748,
          "duration": 0.09999999999999432
        },
        {
          "name": "F#4",
          "midi": 66,
          "time": 171.5999999999967,
          "velocity": 0.3937007874015748,
          "duration": 0.09999999999999432
        },
        {
          "name": "D#5",
          "midi": 75,
          "time": 171.9999999999967,
          "velocity": 0.3937007874015748,
          "duration": 0.09999999999999432
        },
        {
          "name": "F#4",
          "midi": 66,
          "time": 171.9999999999967,
          "velocity": 0.3937007874015748,
          "duration": 0.09999999999999432
        },
        {
          "name": "G4",
          "midi": 67,
          "time": 172.8999999999967,
          "velocity": 0.3937007874015748,
          "duration": 0.09999999999999432
        },
        {
          "name": "D5",
          "midi": 74,
          "time": 172.9999999999967,
          "velocity": 0.3937007874015748,
          "duration": 0.09999999999999432
        },
        {
          "name": "E5",
          "midi": 76,
          "time": 173.2999999999967,
          "velocity": 0.3937007874015748,
          "duration": 0.09999999999999432
        },
        {
          "name": "G4",
          "midi": 67,
          "time": 173.39999999999668,
          "velocity": 0.3937007874015748,
          "duration": 0.09999999999999432
        },
        {
          "name": "G4",
          "midi": 67,
          "time": 173.69999999999666,
          "velocity": 0.3937007874015748,
          "duration": 0.09999999999999432
        },
        {
          "name": "D5",
          "midi": 74,
          "time": 173.79999999999666,
          "velocity": 0.3937007874015748,
          "duration": 0.09999999999999432
        },
        {
          "name": "E5",
          "midi": 76,
          "time": 174.09999999999664,
          "velocity": 0.3937007874015748,
          "duration": 0.09999999999999432
        },
        {
          "name": "G4",
          "midi": 67,
          "time": 174.19999999999663,
          "velocity": 0.3937007874015748,
          "duration": 0.09999999999999432
        },
        {
          "name": "G4",
          "midi": 67,
          "time": 174.49999999999662,
          "velocity": 0.3937007874015748,
          "duration": 0.09999999999999432
        },
        {
          "name": "E5",
          "midi": 76,
          "time": 174.5999999999966,
          "velocity": 0.3937007874015748,
          "duration": 0.09999999999999432
        },
        {
          "name": "F5",
          "midi": 77,
          "time": 174.8999999999966,
          "velocity": 0.3937007874015748,
          "duration": 0.09999999999999432
        },
        {
          "name": "G4",
          "midi": 67,
          "time": 174.9999999999966,
          "velocity": 0.3937007874015748,
          "duration": 0.09999999999999432
        },
        {
          "name": "G4",
          "midi": 67,
          "time": 175.29999999999657,
          "velocity": 0.3937007874015748,
          "duration": 0.09999999999999432
        },
        {
          "name": "E5",
          "midi": 76,
          "time": 175.39999999999657,
          "velocity": 0.3937007874015748,
          "duration": 0.09999999999999432
        },
        {
          "name": "F5",
          "midi": 77,
          "time": 175.69999999999655,
          "velocity": 0.3937007874015748,
          "duration": 0.09999999999999432
        },
        {
          "name": "G4",
          "midi": 67,
          "time": 175.79999999999654,
          "velocity": 0.3937007874015748,
          "duration": 0.09999999999999432
        },
        {
          "name": "A4",
          "midi": 69,
          "time": 176.09999999999653,
          "velocity": 0.3937007874015748,
          "duration": 0.09999999999999432
        },
        {
          "name": "F5",
          "midi": 77,
          "time": 176.19999999999652,
          "velocity": 0.3937007874015748,
          "duration": 0.09999999999999432
        },
        {
          "name": "G5",
          "midi": 79,
          "time": 176.4999999999965,
          "velocity": 0.3937007874015748,
          "duration": 0.09999999999999432
        },
        {
          "name": "A4",
          "midi": 69,
          "time": 176.5999999999965,
          "velocity": 0.3937007874015748,
          "duration": 0.09999999999999432
        },
        {
          "name": "A4",
          "midi": 69,
          "time": 176.89999999999648,
          "velocity": 0.3937007874015748,
          "duration": 0.09999999999999432
        },
        {
          "name": "F5",
          "midi": 77,
          "time": 176.99999999999648,
          "velocity": 0.3937007874015748,
          "duration": 0.09999999999999432
        },
        {
          "name": "G5",
          "midi": 79,
          "time": 177.29999999999646,
          "velocity": 0.3937007874015748,
          "duration": 0.09999999999999432
        },
        {
          "name": "G4",
          "midi": 67,
          "time": 177.39999999999645,
          "velocity": 0.3937007874015748,
          "duration": 0.09999999999999432
        },
        {
          "name": "F4",
          "midi": 65,
          "time": 177.69999999999644,
          "velocity": 0.3937007874015748,
          "duration": 0.09999999999999432
        },
        {
          "name": "D5",
          "midi": 74,
          "time": 177.79999999999643,
          "velocity": 0.3937007874015748,
          "duration": 0.09999999999999432
        },
        {
          "name": "C5",
          "midi": 72,
          "time": 178.0999999999964,
          "velocity": 0.3937007874015748,
          "duration": 0.09999999999999432
        },
        {
          "name": "E4",
          "midi": 64,
          "time": 178.1999999999964,
          "velocity": 0.3937007874015748,
          "duration": 0.09999999999999432
        },
        {
          "name": "D4",
          "midi": 62,
          "time": 178.4999999999964,
          "velocity": 0.3937007874015748,
          "duration": 0.09999999999999432
        },
        {
          "name": "A4",
          "midi": 69,
          "time": 178.59999999999638,
          "velocity": 0.3937007874015748,
          "duration": 0.09999999999999432
        },
        {
          "name": "G4",
          "midi": 67,
          "time": 178.89999999999637,
          "velocity": 0.3937007874015748,
          "duration": 0.09999999999999432
        },
        {
          "name": "C4",
          "midi": 60,
          "time": 178.99999999999636,
          "velocity": 0.3937007874015748,
          "duration": 0.09999999999999432
        },
        {
          "name": "G4",
          "midi": 67,
          "time": 179.29999999999634,
          "velocity": 0.3937007874015748,
          "duration": 0.09999999999999432
        },
        {
          "name": "A4",
          "midi": 69,
          "time": 179.39999999999634,
          "velocity": 0.3937007874015748,
          "duration": 0.09999999999999432
        },
        {
          "name": "D5",
          "midi": 74,
          "time": 179.49999999999633,
          "velocity": 0.3937007874015748,
          "duration": 0.09999999999999432
        },
        {
          "name": "E5",
          "midi": 76,
          "time": 179.69999999999632,
          "velocity": 0.3937007874015748,
          "duration": 0.09999999999999432
        },
        {
          "name": "G4",
          "midi": 67,
          "time": 179.79999999999632,
          "velocity": 0.3937007874015748,
          "duration": 0.09999999999999432
        },
        {
          "name": "D5",
          "midi": 74,
          "time": 179.8999999999963,
          "velocity": 0.3937007874015748,
          "duration": 0.09999999999999432
        },
        {
          "name": "G4",
          "midi": 67,
          "time": 180.0999999999963,
          "velocity": 0.3937007874015748,
          "duration": 0.09999999999999432
        },
        {
          "name": "A4",
          "midi": 69,
          "time": 180.1999999999963,
          "velocity": 0.3937007874015748,
          "duration": 0.09999999999999432
        },
        {
          "name": "D5",
          "midi": 74,
          "time": 180.2999999999963,
          "velocity": 0.3937007874015748,
          "duration": 0.09999999999999432
        },
        {
          "name": "E5",
          "midi": 76,
          "time": 180.49999999999628,
          "velocity": 0.3937007874015748,
          "duration": 0.09999999999999432
        },
        {
          "name": "G4",
          "midi": 67,
          "time": 180.59999999999627,
          "velocity": 0.3937007874015748,
          "duration": 0.09999999999999432
        },
        {
          "name": "D5",
          "midi": 74,
          "time": 180.69999999999627,
          "velocity": 0.3937007874015748,
          "duration": 0.09999999999999432
        },
        {
          "name": "G4",
          "midi": 67,
          "time": 180.89999999999625,
          "velocity": 0.3937007874015748,
          "duration": 0.09999999999999432
        },
        {
          "name": "A4",
          "midi": 69,
          "time": 180.99999999999625,
          "velocity": 0.3937007874015748,
          "duration": 0.09999999999999432
        },
        {
          "name": "D5",
          "midi": 74,
          "time": 181.09999999999624,
          "velocity": 0.3937007874015748,
          "duration": 0.09999999999999432
        },
        {
          "name": "E5",
          "midi": 76,
          "time": 181.29999999999623,
          "velocity": 0.3937007874015748,
          "duration": 0.09999999999999432
        },
        {
          "name": "A4",
          "midi": 69,
          "time": 181.39999999999623,
          "velocity": 0.3937007874015748,
          "duration": 0.09999999999999432
        },
        {
          "name": "C5",
          "midi": 72,
          "time": 181.49999999999622,
          "velocity": 0.3937007874015748,
          "duration": 0.09999999999999432
        },
        {
          "name": "G4",
          "midi": 67,
          "time": 181.6999999999962,
          "velocity": 0.3937007874015748,
          "duration": 0.09999999999999432
        },
        {
          "name": "A4",
          "midi": 69,
          "time": 181.7999999999962,
          "velocity": 0.3937007874015748,
          "duration": 0.09999999999999432
        },
        {
          "name": "D5",
          "midi": 74,
          "time": 181.8999999999962,
          "velocity": 0.3937007874015748,
          "duration": 0.09999999999999432
        },
        {
          "name": "E5",
          "midi": 76,
          "time": 182.0999999999962,
          "velocity": 0.3937007874015748,
          "duration": 0.09999999999999432
        },
        {
          "name": "A4",
          "midi": 69,
          "time": 182.19999999999618,
          "velocity": 0.3937007874015748,
          "duration": 0.09999999999999432
        },
        {
          "name": "C5",
          "midi": 72,
          "time": 182.29999999999617,
          "velocity": 0.3937007874015748,
          "duration": 0.09999999999999432
        },
        {
          "name": "G4",
          "midi": 67,
          "time": 182.49999999999616,
          "velocity": 0.3937007874015748,
          "duration": 0.09999999999999432
        },
        {
          "name": "A4",
          "midi": 69,
          "time": 182.59999999999616,
          "velocity": 0.3937007874015748,
          "duration": 0.09999999999999432
        },
        {
          "name": "E5",
          "midi": 76,
          "time": 182.69999999999615,
          "velocity": 0.3937007874015748,
          "duration": 0.09999999999999432
        },
        {
          "name": "F5",
          "midi": 77,
          "time": 182.89999999999614,
          "velocity": 0.3937007874015748,
          "duration": 0.09999999999999432
        },
        {
          "name": "A4",
          "midi": 69,
          "time": 182.99999999999613,
          "velocity": 0.3937007874015748,
          "duration": 0.09999999999999432
        },
        {
          "name": "C5",
          "midi": 72,
          "time": 183.09999999999613,
          "velocity": 0.3937007874015748,
          "duration": 0.09999999999999432
        },
        {
          "name": "G4",
          "midi": 67,
          "time": 183.29999999999612,
          "velocity": 0.3937007874015748,
          "duration": 0.09999999999999432
        },
        {
          "name": "A4",
          "midi": 69,
          "time": 183.3999999999961,
          "velocity": 0.3937007874015748,
          "duration": 0.09999999999999432
        },
        {
          "name": "E5",
          "midi": 76,
          "time": 183.4999999999961,
          "velocity": 0.3937007874015748,
          "duration": 0.09999999999999432
        },
        {
          "name": "F5",
          "midi": 77,
          "time": 183.6999999999961,
          "velocity": 0.3937007874015748,
          "duration": 0.09999999999999432
        },
        {
          "name": "A4",
          "midi": 69,
          "time": 183.7999999999961,
          "velocity": 0.3937007874015748,
          "duration": 0.09999999999999432
        },
        {
          "name": "C5",
          "midi": 72,
          "time": 183.89999999999608,
          "velocity": 0.3937007874015748,
          "duration": 0.09999999999999432
        },
        {
          "name": "G4",
          "midi": 67,
          "time": 184.09999999999607,
          "velocity": 0.3937007874015748,
          "duration": 0.09999999999999432
        },
        {
          "name": "A4",
          "midi": 69,
          "time": 184.19999999999607,
          "velocity": 0.3937007874015748,
          "duration": 0.09999999999999432
        },
        {
          "name": "E5",
          "midi": 76,
          "time": 184.29999999999606,
          "velocity": 0.3937007874015748,
          "duration": 0.09999999999999432
        },
        {
          "name": "F5",
          "midi": 77,
          "time": 184.49999999999605,
          "velocity": 0.3937007874015748,
          "duration": 0.09999999999999432
        },
        {
          "name": "A4",
          "midi": 69,
          "time": 184.59999999999604,
          "velocity": 0.3937007874015748,
          "duration": 0.09999999999999432
        },
        {
          "name": "C5",
          "midi": 72,
          "time": 184.69999999999604,
          "velocity": 0.3937007874015748,
          "duration": 0.09999999999999432
        },
        {
          "name": "C5",
          "midi": 72,
          "time": 184.89999999999603,
          "velocity": 0.3937007874015748,
          "duration": 0.09999999999999432
        },
        {
          "name": "D5",
          "midi": 74,
          "time": 184.99999999999602,
          "velocity": 0.3937007874015748,
          "duration": 0.09999999999999432
        },
        {
          "name": "G5",
          "midi": 79,
          "time": 185.09999999999602,
          "velocity": 0.3937007874015748,
          "duration": 0.09999999999999432
        },
        {
          "name": "F5",
          "midi": 77,
          "time": 185.299999999996,
          "velocity": 0.3937007874015748,
          "duration": 0.09999999999999432
        },
        {
          "name": "G4",
          "midi": 67,
          "time": 185.399999999996,
          "velocity": 0.3937007874015748,
          "duration": 0.09999999999999432
        },
        {
          "name": "G#4",
          "midi": 68,
          "time": 185.499999999996,
          "velocity": 0.3937007874015748,
          "duration": 0.09999999999999432
        },
        {
          "name": "D#5",
          "midi": 75,
          "time": 185.599999999996,
          "velocity": 0.3937007874015748,
          "duration": 0.09999999999999432
        },
        {
          "name": "F#4",
          "midi": 66,
          "time": 185.599999999996,
          "velocity": 0.3937007874015748,
          "duration": 0.09999999999999432
        },
        {
          "name": "D#5",
          "midi": 75,
          "time": 185.999999999996,
          "velocity": 0.3937007874015748,
          "duration": 0.09999999999999432
        },
        {
          "name": "F#4",
          "midi": 66,
          "time": 185.999999999996,
          "velocity": 0.3937007874015748,
          "duration": 0.09999999999999432
        },
        {
          "name": "D#5",
          "midi": 75,
          "time": 186.399999999996,
          "velocity": 0.3937007874015748,
          "duration": 0.09999999999999432
        },
        {
          "name": "F#4",
          "midi": 66,
          "time": 186.399999999996,
          "velocity": 0.3937007874015748,
          "duration": 0.09999999999999432
        },
        {
          "name": "D#5",
          "midi": 75,
          "time": 186.69999999999598,
          "velocity": 0.3937007874015748,
          "duration": 0.09999999999999432
        },
        {
          "name": "F#4",
          "midi": 66,
          "time": 186.69999999999598,
          "velocity": 0.3937007874015748,
          "duration": 0.09999999999999432
        },
        {
          "name": "D#5",
          "midi": 75,
          "time": 186.99999999999596,
          "velocity": 0.3937007874015748,
          "duration": 0.09999999999999432
        },
        {
          "name": "F#4",
          "midi": 66,
          "time": 186.99999999999596,
          "velocity": 0.3937007874015748,
          "duration": 0.09999999999999432
        },
        {
          "name": "C#5",
          "midi": 73,
          "time": 187.39999999999597,
          "velocity": 0.3937007874015748,
          "duration": 0.09999999999999432
        },
        {
          "name": "F4",
          "midi": 65,
          "time": 187.39999999999597,
          "velocity": 0.3937007874015748,
          "duration": 0.09999999999999432
        },
        {
          "name": "C#5",
          "midi": 73,
          "time": 187.59999999999596,
          "velocity": 0.3937007874015748,
          "duration": 0.09999999999999432
        },
        {
          "name": "F4",
          "midi": 65,
          "time": 187.59999999999596,
          "velocity": 0.3937007874015748,
          "duration": 0.09999999999999432
        },
        {
          "name": "C#5",
          "midi": 73,
          "time": 187.99999999999596,
          "velocity": 0.3937007874015748,
          "duration": 0.09999999999999432
        },
        {
          "name": "F4",
          "midi": 65,
          "time": 187.99999999999596,
          "velocity": 0.3937007874015748,
          "duration": 0.09999999999999432
        },
        {
          "name": "C#5",
          "midi": 73,
          "time": 188.29999999999595,
          "velocity": 0.3937007874015748,
          "duration": 0.09999999999999432
        },
        {
          "name": "F4",
          "midi": 65,
          "time": 188.29999999999595,
          "velocity": 0.3937007874015748,
          "duration": 0.09999999999999432
        },
        {
          "name": "A#4",
          "midi": 70,
          "time": 188.59999999999593,
          "velocity": 0.3937007874015748,
          "duration": 0.09999999999999432
        },
        {
          "name": "F#4",
          "midi": 66,
          "time": 188.59999999999593,
          "velocity": 0.3937007874015748,
          "duration": 0.09999999999999432
        },
        {
          "name": "A#4",
          "midi": 70,
          "time": 189.19999999999592,
          "velocity": 0.3937007874015748,
          "duration": 0.09999999999999432
        },
        {
          "name": "F#4",
          "midi": 66,
          "time": 189.19999999999592,
          "velocity": 0.3937007874015748,
          "duration": 0.09999999999999432
        },
        {
          "name": "A#4",
          "midi": 70,
          "time": 189.59999999999593,
          "velocity": 0.3937007874015748,
          "duration": 0.09999999999999432
        },
        {
          "name": "F#4",
          "midi": 66,
          "time": 189.59999999999593,
          "velocity": 0.3937007874015748,
          "duration": 0.09999999999999432
        },
        {
          "name": "A#4",
          "midi": 70,
          "time": 189.8999999999959,
          "velocity": 0.3937007874015748,
          "duration": 0.09999999999999432
        },
        {
          "name": "F#4",
          "midi": 66,
          "time": 189.8999999999959,
          "velocity": 0.3937007874015748,
          "duration": 0.09999999999999432
        },
        {
          "name": "A#4",
          "midi": 70,
          "time": 190.1999999999959,
          "velocity": 0.3937007874015748,
          "duration": 0.09999999999999432
        },
        {
          "name": "F#4",
          "midi": 66,
          "time": 190.1999999999959,
          "velocity": 0.3937007874015748,
          "duration": 0.09999999999999432
        },
        {
          "name": "A#4",
          "midi": 70,
          "time": 190.7999999999959,
          "velocity": 0.3937007874015748,
          "duration": 0.09999999999999432
        },
        {
          "name": "F#4",
          "midi": 66,
          "time": 190.7999999999959,
          "velocity": 0.3937007874015748,
          "duration": 0.09999999999999432
        },
        {
          "name": "A#4",
          "midi": 70,
          "time": 191.1999999999959,
          "velocity": 0.3937007874015748,
          "duration": 0.09999999999999432
        },
        {
          "name": "F#4",
          "midi": 66,
          "time": 191.1999999999959,
          "velocity": 0.3937007874015748,
          "duration": 0.09999999999999432
        },
        {
          "name": "A#4",
          "midi": 70,
          "time": 191.49999999999588,
          "velocity": 0.3937007874015748,
          "duration": 0.09999999999999432
        },
        {
          "name": "F#4",
          "midi": 66,
          "time": 191.49999999999588,
          "velocity": 0.3937007874015748,
          "duration": 0.09999999999999432
        },
        {
          "name": "C#5",
          "midi": 73,
          "time": 191.79999999999586,
          "velocity": 0.3937007874015748,
          "duration": 0.09999999999999432
        },
        {
          "name": "F#4",
          "midi": 66,
          "time": 191.79999999999586,
          "velocity": 0.3937007874015748,
          "duration": 0.09999999999999432
        },
        {
          "name": "D#5",
          "midi": 75,
          "time": 191.99999999999585,
          "velocity": 0.3937007874015748,
          "duration": 0.09999999999999432
        },
        {
          "name": "F#4",
          "midi": 66,
          "time": 191.99999999999585,
          "velocity": 0.3937007874015748,
          "duration": 0.09999999999999432
        },
        {
          "name": "D#5",
          "midi": 75,
          "time": 192.39999999999586,
          "velocity": 0.3937007874015748,
          "duration": 0.09999999999999432
        },
        {
          "name": "F#4",
          "midi": 66,
          "time": 192.39999999999586,
          "velocity": 0.3937007874015748,
          "duration": 0.09999999999999432
        },
        {
          "name": "D#5",
          "midi": 75,
          "time": 192.79999999999586,
          "velocity": 0.3937007874015748,
          "duration": 0.09999999999999432
        },
        {
          "name": "F#4",
          "midi": 66,
          "time": 192.79999999999586,
          "velocity": 0.3937007874015748,
          "duration": 0.09999999999999432
        },
        {
          "name": "D#5",
          "midi": 75,
          "time": 193.09999999999584,
          "velocity": 0.3937007874015748,
          "duration": 0.09999999999999432
        },
        {
          "name": "F#4",
          "midi": 66,
          "time": 193.09999999999584,
          "velocity": 0.3937007874015748,
          "duration": 0.09999999999999432
        },
        {
          "name": "D#5",
          "midi": 75,
          "time": 193.39999999999583,
          "velocity": 0.3937007874015748,
          "duration": 0.09999999999999432
        },
        {
          "name": "F#4",
          "midi": 66,
          "time": 193.39999999999583,
          "velocity": 0.3937007874015748,
          "duration": 0.09999999999999432
        },
        {
          "name": "F5",
          "midi": 77,
          "time": 193.79999999999583,
          "velocity": 0.3937007874015748,
          "duration": 0.09999999999999432
        },
        {
          "name": "G#4",
          "midi": 68,
          "time": 193.79999999999583,
          "velocity": 0.3937007874015748,
          "duration": 0.09999999999999432
        },
        {
          "name": "F5",
          "midi": 77,
          "time": 193.99999999999582,
          "velocity": 0.3937007874015748,
          "duration": 0.09999999999999432
        },
        {
          "name": "G#4",
          "midi": 68,
          "time": 193.99999999999582,
          "velocity": 0.3937007874015748,
          "duration": 0.09999999999999432
        },
        {
          "name": "F5",
          "midi": 77,
          "time": 194.39999999999583,
          "velocity": 0.3937007874015748,
          "duration": 0.09999999999999432
        },
        {
          "name": "G#4",
          "midi": 68,
          "time": 194.39999999999583,
          "velocity": 0.3937007874015748,
          "duration": 0.09999999999999432
        },
        {
          "name": "F5",
          "midi": 77,
          "time": 194.6999999999958,
          "velocity": 0.3937007874015748,
          "duration": 0.09999999999999432
        },
        {
          "name": "G#4",
          "midi": 68,
          "time": 194.6999999999958,
          "velocity": 0.3937007874015748,
          "duration": 0.09999999999999432
        },
        {
          "name": "D#5",
          "midi": 75,
          "time": 194.9999999999958,
          "velocity": 0.3937007874015748,
          "duration": 0.09999999999999432
        },
        {
          "name": "G4",
          "midi": 67,
          "time": 194.9999999999958,
          "velocity": 0.3937007874015748,
          "duration": 0.09999999999999432
        },
        {
          "name": "D#5",
          "midi": 75,
          "time": 195.5999999999958,
          "velocity": 0.3937007874015748,
          "duration": 0.09999999999999432
        },
        {
          "name": "G4",
          "midi": 67,
          "time": 195.5999999999958,
          "velocity": 0.3937007874015748,
          "duration": 0.09999999999999432
        },
        {
          "name": "D#5",
          "midi": 75,
          "time": 195.9999999999958,
          "velocity": 0.3937007874015748,
          "duration": 0.09999999999999432
        },
        {
          "name": "G4",
          "midi": 67,
          "time": 195.9999999999958,
          "velocity": 0.3937007874015748,
          "duration": 0.09999999999999432
        },
        {
          "name": "D#5",
          "midi": 75,
          "time": 196.29999999999578,
          "velocity": 0.3937007874015748,
          "duration": 0.09999999999999432
        },
        {
          "name": "G4",
          "midi": 67,
          "time": 196.29999999999578,
          "velocity": 0.3937007874015748,
          "duration": 0.09999999999999432
        },
        {
          "name": "D#5",
          "midi": 75,
          "time": 196.59999999999576,
          "velocity": 0.3937007874015748,
          "duration": 0.09999999999999432
        },
        {
          "name": "G4",
          "midi": 67,
          "time": 196.59999999999576,
          "velocity": 0.3937007874015748,
          "duration": 0.09999999999999432
        },
        {
          "name": "G4",
          "midi": 67,
          "time": 196.79999999999575,
          "velocity": 0.3937007874015748,
          "duration": 0.09999999999999432
        },
        {
          "name": "G#4",
          "midi": 68,
          "time": 196.89999999999574,
          "velocity": 0.3937007874015748,
          "duration": 0.09999999999999432
        },
        {
          "name": "A#4",
          "midi": 70,
          "time": 196.99999999999574,
          "velocity": 0.3937007874015748,
          "duration": 0.09999999999999432
        },
        {
          "name": "D#5",
          "midi": 75,
          "time": 197.09999999999573,
          "velocity": 0.3937007874015748,
          "duration": 0.09999999999999432
        },
        {
          "name": "D#4",
          "midi": 63,
          "time": 197.3999999999957,
          "velocity": 0.3937007874015748,
          "duration": 0.09999999999999432
        },
        {
          "name": "A#3",
          "midi": 58,
          "time": 197.4999999999957,
          "velocity": 0.3937007874015748,
          "duration": 0.09999999999999432
        },
        {
          "name": "F#3",
          "midi": 54,
          "time": 197.5999999999957,
          "velocity": 0.3937007874015748,
          "duration": 0.09999999999999432
        },
        {
          "name": "D#3",
          "midi": 51,
          "time": 197.6999999999957,
          "velocity": 0.3937007874015748,
          "duration": 0.09999999999999432
        },
        {
          "name": "A#2",
          "midi": 46,
          "time": 197.7999999999957,
          "velocity": 0.3937007874015748,
          "duration": 0.09999999999999432
        },
        {
          "name": "G2",
          "midi": 43,
          "time": 197.89999999999569,
          "velocity": 0.3937007874015748,
          "duration": 0.09999999999999432
        }
      ],
      "controlChanges": {},
      "id": 4,
      "name": "Koto",
      "instrumentNumber": 107,
      "instrument": "koto",
      "instrumentFamily": "ethnic",
      "channelNumber": 4,
      "isPercussion": false
    },
    {
      "startTime": 0,
      "duration": 196.69999999999956,
      "length": 141,
      "notes": [
        {
          "name": "D#4",
          "midi": 63,
          "time": 0,
          "velocity": 0.49606299212598426,
          "duration": 0.1
        },
        {
          "name": "D#4",
          "midi": 63,
          "time": 0.4,
          "velocity": 0.49606299212598426,
          "duration": 0.09999999999999998
        },
        {
          "name": "D#4",
          "midi": 63,
          "time": 0.8,
          "velocity": 0.49606299212598426,
          "duration": 0.09999999999999998
        },
        {
          "name": "D#4",
          "midi": 63,
          "time": 1.1,
          "velocity": 0.49606299212598426,
          "duration": 0.10000000000000009
        },
        {
          "name": "D#4",
          "midi": 63,
          "time": 1.4000000000000001,
          "velocity": 0.49606299212598426,
          "duration": 0.10000000000000009
        },
        {
          "name": "C#4",
          "midi": 61,
          "time": 1.8000000000000003,
          "velocity": 0.49606299212598426,
          "duration": 0.10000000000000009
        },
        {
          "name": "C#4",
          "midi": 61,
          "time": 2.0000000000000004,
          "velocity": 0.49606299212598426,
          "duration": 0.10000000000000009
        },
        {
          "name": "C#4",
          "midi": 61,
          "time": 2.4000000000000004,
          "velocity": 0.49606299212598426,
          "duration": 0.10000000000000009
        },
        {
          "name": "C#4",
          "midi": 61,
          "time": 2.7000000000000006,
          "velocity": 0.49606299212598426,
          "duration": 0.10000000000000009
        },
        {
          "name": "A#3",
          "midi": 58,
          "time": 3.000000000000001,
          "velocity": 0.49606299212598426,
          "duration": 0.10000000000000009
        },
        {
          "name": "A#3",
          "midi": 58,
          "time": 3.600000000000001,
          "velocity": 0.49606299212598426,
          "duration": 0.10000000000000009
        },
        {
          "name": "A#3",
          "midi": 58,
          "time": 4.000000000000001,
          "velocity": 0.49606299212598426,
          "duration": 0.09999999999999964
        },
        {
          "name": "A#3",
          "midi": 58,
          "time": 4.300000000000001,
          "velocity": 0.49606299212598426,
          "duration": 0.09999999999999964
        },
        {
          "name": "A#3",
          "midi": 58,
          "time": 4.6000000000000005,
          "velocity": 0.49606299212598426,
          "duration": 0.09999999999999964
        },
        {
          "name": "A#3",
          "midi": 58,
          "time": 5.2,
          "velocity": 0.49606299212598426,
          "duration": 0.09999999999999964
        },
        {
          "name": "A#3",
          "midi": 58,
          "time": 5.6,
          "velocity": 0.49606299212598426,
          "duration": 0.09999999999999964
        },
        {
          "name": "A#3",
          "midi": 58,
          "time": 5.8999999999999995,
          "velocity": 0.49606299212598426,
          "duration": 0.09999999999999964
        },
        {
          "name": "C#4",
          "midi": 61,
          "time": 6.199999999999999,
          "velocity": 0.49606299212598426,
          "duration": 0.09999999999999964
        },
        {
          "name": "D#4",
          "midi": 63,
          "time": 6.399999999999999,
          "velocity": 0.49606299212598426,
          "duration": 0.09999999999999964
        },
        {
          "name": "D#4",
          "midi": 63,
          "time": 6.799999999999998,
          "velocity": 0.49606299212598426,
          "duration": 0.09999999999999964
        },
        {
          "name": "D#4",
          "midi": 63,
          "time": 7.1999999999999975,
          "velocity": 0.49606299212598426,
          "duration": 0.09999999999999964
        },
        {
          "name": "D#4",
          "midi": 63,
          "time": 7.499999999999997,
          "velocity": 0.49606299212598426,
          "duration": 0.09999999999999964
        },
        {
          "name": "D#4",
          "midi": 63,
          "time": 7.799999999999997,
          "velocity": 0.49606299212598426,
          "duration": 0.09999999999999964
        },
        {
          "name": "F4",
          "midi": 65,
          "time": 8.199999999999998,
          "velocity": 0.49606299212598426,
          "duration": 0.09999999999999964
        },
        {
          "name": "F4",
          "midi": 65,
          "time": 8.399999999999997,
          "velocity": 0.49606299212598426,
          "duration": 0.09999999999999964
        },
        {
          "name": "F4",
          "midi": 65,
          "time": 8.799999999999997,
          "velocity": 0.49606299212598426,
          "duration": 0.09999999999999964
        },
        {
          "name": "F4",
          "midi": 65,
          "time": 9.099999999999996,
          "velocity": 0.49606299212598426,
          "duration": 0.09999999999999964
        },
        {
          "name": "D#4",
          "midi": 63,
          "time": 9.399999999999995,
          "velocity": 0.49606299212598426,
          "duration": 0.09999999999999964
        },
        {
          "name": "D#4",
          "midi": 63,
          "time": 9.999999999999995,
          "velocity": 0.49606299212598426,
          "duration": 0.09999999999999964
        },
        {
          "name": "D#4",
          "midi": 63,
          "time": 10.399999999999995,
          "velocity": 0.49606299212598426,
          "duration": 0.09999999999999964
        },
        {
          "name": "D#4",
          "midi": 63,
          "time": 10.699999999999994,
          "velocity": 0.49606299212598426,
          "duration": 0.09999999999999964
        },
        {
          "name": "D#4",
          "midi": 63,
          "time": 10.999999999999993,
          "velocity": 0.49606299212598426,
          "duration": 0.09999999999999964
        },
        {
          "name": "D#4",
          "midi": 63,
          "time": 11.399999999999993,
          "velocity": 0.49606299212598426,
          "duration": 0.09999999999999964
        },
        {
          "name": "D#4",
          "midi": 63,
          "time": 11.599999999999993,
          "velocity": 0.49606299212598426,
          "duration": 0.09999999999999964
        },
        {
          "name": "D#4",
          "midi": 63,
          "time": 11.999999999999993,
          "velocity": 0.49606299212598426,
          "duration": 0.09999999999999964
        },
        {
          "name": "D#4",
          "midi": 63,
          "time": 12.299999999999992,
          "velocity": 0.49606299212598426,
          "duration": 0.09999999999999964
        },
        {
          "name": "D#4",
          "midi": 63,
          "time": 12.59999999999999,
          "velocity": 0.49606299212598426,
          "duration": 0.09999999999999964
        },
        {
          "name": "D#4",
          "midi": 63,
          "time": 12.79999999999999,
          "velocity": 0.49606299212598426,
          "duration": 0.09999999999999964
        },
        {
          "name": "D#4",
          "midi": 63,
          "time": 13.19999999999999,
          "velocity": 0.49606299212598426,
          "duration": 0.09999999999999964
        },
        {
          "name": "D#4",
          "midi": 63,
          "time": 13.59999999999999,
          "velocity": 0.49606299212598426,
          "duration": 0.09999999999999964
        },
        {
          "name": "D#4",
          "midi": 63,
          "time": 13.89999999999999,
          "velocity": 0.49606299212598426,
          "duration": 0.09999999999999964
        },
        {
          "name": "D#4",
          "midi": 63,
          "time": 14.199999999999989,
          "velocity": 0.49606299212598426,
          "duration": 0.09999999999999964
        },
        {
          "name": "C#4",
          "midi": 61,
          "time": 14.599999999999989,
          "velocity": 0.49606299212598426,
          "duration": 0.09999999999999964
        },
        {
          "name": "C#4",
          "midi": 61,
          "time": 14.799999999999988,
          "velocity": 0.49606299212598426,
          "duration": 0.09999999999999964
        },
        {
          "name": "C#4",
          "midi": 61,
          "time": 15.199999999999989,
          "velocity": 0.49606299212598426,
          "duration": 0.09999999999999964
        },
        {
          "name": "C#4",
          "midi": 61,
          "time": 15.499999999999988,
          "velocity": 0.49606299212598426,
          "duration": 0.09999999999999964
        },
        {
          "name": "A#3",
          "midi": 58,
          "time": 15.799999999999986,
          "velocity": 0.49606299212598426,
          "duration": 0.09999999999999964
        },
        {
          "name": "A#3",
          "midi": 58,
          "time": 16.399999999999984,
          "velocity": 0.49606299212598426,
          "duration": 0.10000000000000142
        },
        {
          "name": "A#3",
          "midi": 58,
          "time": 16.799999999999986,
          "velocity": 0.49606299212598426,
          "duration": 0.10000000000000142
        },
        {
          "name": "A#3",
          "midi": 58,
          "time": 17.099999999999987,
          "velocity": 0.49606299212598426,
          "duration": 0.10000000000000142
        },
        {
          "name": "A#3",
          "midi": 58,
          "time": 17.399999999999988,
          "velocity": 0.49606299212598426,
          "duration": 0.10000000000000142
        },
        {
          "name": "A#3",
          "midi": 58,
          "time": 17.99999999999999,
          "velocity": 0.49606299212598426,
          "duration": 0.10000000000000142
        },
        {
          "name": "A#3",
          "midi": 58,
          "time": 18.39999999999999,
          "velocity": 0.49606299212598426,
          "duration": 0.10000000000000142
        },
        {
          "name": "A#3",
          "midi": 58,
          "time": 18.699999999999992,
          "velocity": 0.49606299212598426,
          "duration": 0.10000000000000142
        },
        {
          "name": "C#4",
          "midi": 61,
          "time": 18.999999999999993,
          "velocity": 0.49606299212598426,
          "duration": 0.10000000000000142
        },
        {
          "name": "D#4",
          "midi": 63,
          "time": 19.199999999999996,
          "velocity": 0.49606299212598426,
          "duration": 0.10000000000000142
        },
        {
          "name": "D#4",
          "midi": 63,
          "time": 19.599999999999998,
          "velocity": 0.49606299212598426,
          "duration": 0.10000000000000142
        },
        {
          "name": "D#4",
          "midi": 63,
          "time": 20,
          "velocity": 0.49606299212598426,
          "duration": 0.10000000000000142
        },
        {
          "name": "D#4",
          "midi": 63,
          "time": 20.3,
          "velocity": 0.49606299212598426,
          "duration": 0.10000000000000142
        },
        {
          "name": "D#4",
          "midi": 63,
          "time": 20.6,
          "velocity": 0.49606299212598426,
          "duration": 0.10000000000000142
        },
        {
          "name": "F4",
          "midi": 65,
          "time": 21.000000000000004,
          "velocity": 0.49606299212598426,
          "duration": 0.10000000000000142
        },
        {
          "name": "F4",
          "midi": 65,
          "time": 21.200000000000006,
          "velocity": 0.49606299212598426,
          "duration": 0.10000000000000142
        },
        {
          "name": "F4",
          "midi": 65,
          "time": 21.60000000000001,
          "velocity": 0.49606299212598426,
          "duration": 0.10000000000000142
        },
        {
          "name": "F4",
          "midi": 65,
          "time": 21.90000000000001,
          "velocity": 0.49606299212598426,
          "duration": 0.10000000000000142
        },
        {
          "name": "D#4",
          "midi": 63,
          "time": 22.20000000000001,
          "velocity": 0.49606299212598426,
          "duration": 0.10000000000000142
        },
        {
          "name": "D#4",
          "midi": 63,
          "time": 22.80000000000001,
          "velocity": 0.49606299212598426,
          "duration": 0.10000000000000142
        },
        {
          "name": "D#4",
          "midi": 63,
          "time": 23.200000000000014,
          "velocity": 0.49606299212598426,
          "duration": 0.10000000000000142
        },
        {
          "name": "D#4",
          "midi": 63,
          "time": 23.500000000000014,
          "velocity": 0.49606299212598426,
          "duration": 0.10000000000000142
        },
        {
          "name": "D#4",
          "midi": 63,
          "time": 23.800000000000015,
          "velocity": 0.49606299212598426,
          "duration": 0.10000000000000142
        },
        {
          "name": "D#4",
          "midi": 63,
          "time": 24.200000000000017,
          "velocity": 0.49606299212598426,
          "duration": 0.10000000000000142
        },
        {
          "name": "D#4",
          "midi": 63,
          "time": 24.40000000000002,
          "velocity": 0.49606299212598426,
          "duration": 0.10000000000000142
        },
        {
          "name": "D#4",
          "midi": 63,
          "time": 24.800000000000022,
          "velocity": 0.49606299212598426,
          "duration": 0.10000000000000142
        },
        {
          "name": "D#4",
          "midi": 63,
          "time": 25.100000000000023,
          "velocity": 0.49606299212598426,
          "duration": 0.10000000000000142
        },
        {
          "name": "D#4",
          "midi": 63,
          "time": 25.400000000000023,
          "velocity": 0.49606299212598426,
          "duration": 0.10000000000000142
        },
        {
          "name": "D#4",
          "midi": 63,
          "time": 160.00000000000003,
          "velocity": 0.49606299212598426,
          "duration": 0.09999999999999432
        },
        {
          "name": "D#4",
          "midi": 63,
          "time": 160.40000000000003,
          "velocity": 0.49606299212598426,
          "duration": 0.09999999999999432
        },
        {
          "name": "D#4",
          "midi": 63,
          "time": 160.80000000000004,
          "velocity": 0.49606299212598426,
          "duration": 0.09999999999999432
        },
        {
          "name": "D#4",
          "midi": 63,
          "time": 161.10000000000002,
          "velocity": 0.49606299212598426,
          "duration": 0.09999999999999432
        },
        {
          "name": "D#4",
          "midi": 63,
          "time": 161.4,
          "velocity": 0.49606299212598426,
          "duration": 0.09999999999999432
        },
        {
          "name": "C#4",
          "midi": 61,
          "time": 161.8,
          "velocity": 0.49606299212598426,
          "duration": 0.09999999999999432
        },
        {
          "name": "C#4",
          "midi": 61,
          "time": 162,
          "velocity": 0.49606299212598426,
          "duration": 0.09999999999999432
        },
        {
          "name": "C#4",
          "midi": 61,
          "time": 162.4,
          "velocity": 0.49606299212598426,
          "duration": 0.09999999999999432
        },
        {
          "name": "C#4",
          "midi": 61,
          "time": 162.7,
          "velocity": 0.49606299212598426,
          "duration": 0.09999999999999432
        },
        {
          "name": "A#3",
          "midi": 58,
          "time": 162.99999999999997,
          "velocity": 0.49606299212598426,
          "duration": 0.09999999999999432
        },
        {
          "name": "A#3",
          "midi": 58,
          "time": 163.59999999999997,
          "velocity": 0.49606299212598426,
          "duration": 0.09999999999999432
        },
        {
          "name": "A#3",
          "midi": 58,
          "time": 163.99999999999997,
          "velocity": 0.49606299212598426,
          "duration": 0.09999999999999432
        },
        {
          "name": "A#3",
          "midi": 58,
          "time": 164.29999999999995,
          "velocity": 0.49606299212598426,
          "duration": 0.09999999999999432
        },
        {
          "name": "A#3",
          "midi": 58,
          "time": 164.59999999999994,
          "velocity": 0.49606299212598426,
          "duration": 0.09999999999999432
        },
        {
          "name": "A#3",
          "midi": 58,
          "time": 165.19999999999993,
          "velocity": 0.49606299212598426,
          "duration": 0.09999999999999432
        },
        {
          "name": "A#3",
          "midi": 58,
          "time": 165.59999999999994,
          "velocity": 0.49606299212598426,
          "duration": 0.09999999999999432
        },
        {
          "name": "A#3",
          "midi": 58,
          "time": 165.89999999999992,
          "velocity": 0.49606299212598426,
          "duration": 0.09999999999999432
        },
        {
          "name": "C#4",
          "midi": 61,
          "time": 166.1999999999999,
          "velocity": 0.49606299212598426,
          "duration": 0.09999999999999432
        },
        {
          "name": "D#4",
          "midi": 63,
          "time": 166.3999999999999,
          "velocity": 0.49606299212598426,
          "duration": 0.09999999999999432
        },
        {
          "name": "D#4",
          "midi": 63,
          "time": 166.7999999999999,
          "velocity": 0.49606299212598426,
          "duration": 0.09999999999999432
        },
        {
          "name": "D#4",
          "midi": 63,
          "time": 167.1999999999999,
          "velocity": 0.49606299212598426,
          "duration": 0.09999999999999432
        },
        {
          "name": "D#4",
          "midi": 63,
          "time": 167.4999999999999,
          "velocity": 0.49606299212598426,
          "duration": 0.09999999999999432
        },
        {
          "name": "D#4",
          "midi": 63,
          "time": 167.79999999999987,
          "velocity": 0.49606299212598426,
          "duration": 0.09999999999999432
        },
        {
          "name": "F4",
          "midi": 65,
          "time": 168.19999999999987,
          "velocity": 0.49606299212598426,
          "duration": 0.09999999999999432
        },
        {
          "name": "F4",
          "midi": 65,
          "time": 168.39999999999986,
          "velocity": 0.49606299212598426,
          "duration": 0.09999999999999432
        },
        {
          "name": "F4",
          "midi": 65,
          "time": 168.79999999999987,
          "velocity": 0.49606299212598426,
          "duration": 0.09999999999999432
        },
        {
          "name": "F4",
          "midi": 65,
          "time": 169.09999999999985,
          "velocity": 0.49606299212598426,
          "duration": 0.09999999999999432
        },
        {
          "name": "D#4",
          "midi": 63,
          "time": 169.39999999999984,
          "velocity": 0.49606299212598426,
          "duration": 0.09999999999999432
        },
        {
          "name": "D#4",
          "midi": 63,
          "time": 169.99999999999983,
          "velocity": 0.49606299212598426,
          "duration": 0.09999999999999432
        },
        {
          "name": "D#4",
          "midi": 63,
          "time": 170.39999999999984,
          "velocity": 0.49606299212598426,
          "duration": 0.09999999999999432
        },
        {
          "name": "D#4",
          "midi": 63,
          "time": 170.69999999999982,
          "velocity": 0.49606299212598426,
          "duration": 0.09999999999999432
        },
        {
          "name": "D#4",
          "midi": 63,
          "time": 170.9999999999998,
          "velocity": 0.49606299212598426,
          "duration": 0.09999999999999432
        },
        {
          "name": "D#4",
          "midi": 63,
          "time": 171.3999999999998,
          "velocity": 0.49606299212598426,
          "duration": 0.09999999999999432
        },
        {
          "name": "D#4",
          "midi": 63,
          "time": 171.5999999999998,
          "velocity": 0.49606299212598426,
          "duration": 0.09999999999999432
        },
        {
          "name": "D#4",
          "midi": 63,
          "time": 171.9999999999998,
          "velocity": 0.49606299212598426,
          "duration": 0.09999999999999432
        },
        {
          "name": "D#4",
          "midi": 63,
          "time": 185.5999999999998,
          "velocity": 0.49606299212598426,
          "duration": 0.09999999999999432
        },
        {
          "name": "D#4",
          "midi": 63,
          "time": 185.9999999999998,
          "velocity": 0.49606299212598426,
          "duration": 0.09999999999999432
        },
        {
          "name": "D#4",
          "midi": 63,
          "time": 186.3999999999998,
          "velocity": 0.49606299212598426,
          "duration": 0.09999999999999432
        },
        {
          "name": "D#4",
          "midi": 63,
          "time": 186.6999999999998,
          "velocity": 0.49606299212598426,
          "duration": 0.09999999999999432
        },
        {
          "name": "D#4",
          "midi": 63,
          "time": 186.99999999999977,
          "velocity": 0.49606299212598426,
          "duration": 0.09999999999999432
        },
        {
          "name": "C#4",
          "midi": 61,
          "time": 187.39999999999978,
          "velocity": 0.49606299212598426,
          "duration": 0.09999999999999432
        },
        {
          "name": "C#4",
          "midi": 61,
          "time": 187.59999999999977,
          "velocity": 0.49606299212598426,
          "duration": 0.09999999999999432
        },
        {
          "name": "C#4",
          "midi": 61,
          "time": 187.99999999999977,
          "velocity": 0.49606299212598426,
          "duration": 0.09999999999999432
        },
        {
          "name": "C#4",
          "midi": 61,
          "time": 188.29999999999976,
          "velocity": 0.49606299212598426,
          "duration": 0.09999999999999432
        },
        {
          "name": "A#3",
          "midi": 58,
          "time": 188.59999999999974,
          "velocity": 0.49606299212598426,
          "duration": 0.09999999999999432
        },
        {
          "name": "A#3",
          "midi": 58,
          "time": 189.19999999999973,
          "velocity": 0.49606299212598426,
          "duration": 0.09999999999999432
        },
        {
          "name": "A#3",
          "midi": 58,
          "time": 189.59999999999974,
          "velocity": 0.49606299212598426,
          "duration": 0.09999999999999432
        },
        {
          "name": "A#3",
          "midi": 58,
          "time": 189.89999999999972,
          "velocity": 0.49606299212598426,
          "duration": 0.09999999999999432
        },
        {
          "name": "A#3",
          "midi": 58,
          "time": 190.1999999999997,
          "velocity": 0.49606299212598426,
          "duration": 0.09999999999999432
        },
        {
          "name": "A#3",
          "midi": 58,
          "time": 190.7999999999997,
          "velocity": 0.49606299212598426,
          "duration": 0.09999999999999432
        },
        {
          "name": "A#3",
          "midi": 58,
          "time": 191.1999999999997,
          "velocity": 0.49606299212598426,
          "duration": 0.09999999999999432
        },
        {
          "name": "A#3",
          "midi": 58,
          "time": 191.4999999999997,
          "velocity": 0.49606299212598426,
          "duration": 0.09999999999999432
        },
        {
          "name": "C#4",
          "midi": 61,
          "time": 191.79999999999967,
          "velocity": 0.49606299212598426,
          "duration": 0.09999999999999432
        },
        {
          "name": "D#4",
          "midi": 63,
          "time": 191.99999999999966,
          "velocity": 0.49606299212598426,
          "duration": 0.09999999999999432
        },
        {
          "name": "D#4",
          "midi": 63,
          "time": 192.39999999999966,
          "velocity": 0.49606299212598426,
          "duration": 0.09999999999999432
        },
        {
          "name": "D#4",
          "midi": 63,
          "time": 192.79999999999967,
          "velocity": 0.49606299212598426,
          "duration": 0.09999999999999432
        },
        {
          "name": "D#4",
          "midi": 63,
          "time": 193.09999999999965,
          "velocity": 0.49606299212598426,
          "duration": 0.09999999999999432
        },
        {
          "name": "D#4",
          "midi": 63,
          "time": 193.39999999999964,
          "velocity": 0.49606299212598426,
          "duration": 0.09999999999999432
        },
        {
          "name": "F4",
          "midi": 65,
          "time": 193.79999999999964,
          "velocity": 0.49606299212598426,
          "duration": 0.09999999999999432
        },
        {
          "name": "F4",
          "midi": 65,
          "time": 193.99999999999963,
          "velocity": 0.49606299212598426,
          "duration": 0.09999999999999432
        },
        {
          "name": "F4",
          "midi": 65,
          "time": 194.39999999999964,
          "velocity": 0.49606299212598426,
          "duration": 0.09999999999999432
        },
        {
          "name": "F4",
          "midi": 65,
          "time": 194.69999999999962,
          "velocity": 0.49606299212598426,
          "duration": 0.09999999999999432
        },
        {
          "name": "D#4",
          "midi": 63,
          "time": 194.9999999999996,
          "velocity": 0.49606299212598426,
          "duration": 0.09999999999999432
        },
        {
          "name": "D#4",
          "midi": 63,
          "time": 195.5999999999996,
          "velocity": 0.49606299212598426,
          "duration": 0.09999999999999432
        },
        {
          "name": "D#4",
          "midi": 63,
          "time": 195.9999999999996,
          "velocity": 0.49606299212598426,
          "duration": 0.09999999999999432
        },
        {
          "name": "D#4",
          "midi": 63,
          "time": 196.29999999999959,
          "velocity": 0.49606299212598426,
          "duration": 0.09999999999999432
        },
        {
          "name": "D#4",
          "midi": 63,
          "time": 196.59999999999957,
          "velocity": 0.49606299212598426,
          "duration": 0.09999999999999432
        }
      ],
      "controlChanges": {},
      "id": 5,
      "name": "Vibraphone",
      "instrumentNumber": 11,
      "instrument": "vibraphone",
      "instrumentFamily": "chromatic percussion",
      "channelNumber": 5,
      "isPercussion": false
    },
    {
      "startTime": 185.60000000000002,
      "duration": 196.6999999999998,
      "length": 64,
      "notes": [
        {
          "name": "D#6",
          "midi": 87,
          "time": 185.60000000000002,
          "velocity": 0.3937007874015748,
          "duration": 0.09999999999999432
        },
        {
          "name": "F#5",
          "midi": 78,
          "time": 185.60000000000002,
          "velocity": 0.3937007874015748,
          "duration": 0.09999999999999432
        },
        {
          "name": "D#6",
          "midi": 87,
          "time": 186.00000000000003,
          "velocity": 0.3937007874015748,
          "duration": 0.09999999999999432
        },
        {
          "name": "F#5",
          "midi": 78,
          "time": 186.00000000000003,
          "velocity": 0.3937007874015748,
          "duration": 0.09999999999999432
        },
        {
          "name": "D#6",
          "midi": 87,
          "time": 186.40000000000003,
          "velocity": 0.3937007874015748,
          "duration": 0.09999999999999432
        },
        {
          "name": "F#5",
          "midi": 78,
          "time": 186.40000000000003,
          "velocity": 0.3937007874015748,
          "duration": 0.09999999999999432
        },
        {
          "name": "D#6",
          "midi": 87,
          "time": 186.70000000000002,
          "velocity": 0.3937007874015748,
          "duration": 0.09999999999999432
        },
        {
          "name": "F#5",
          "midi": 78,
          "time": 186.70000000000002,
          "velocity": 0.3937007874015748,
          "duration": 0.09999999999999432
        },
        {
          "name": "D#6",
          "midi": 87,
          "time": 187,
          "velocity": 0.3937007874015748,
          "duration": 0.09999999999999432
        },
        {
          "name": "F#5",
          "midi": 78,
          "time": 187,
          "velocity": 0.3937007874015748,
          "duration": 0.09999999999999432
        },
        {
          "name": "C#6",
          "midi": 85,
          "time": 187.4,
          "velocity": 0.3937007874015748,
          "duration": 0.09999999999999432
        },
        {
          "name": "F5",
          "midi": 77,
          "time": 187.4,
          "velocity": 0.3937007874015748,
          "duration": 0.09999999999999432
        },
        {
          "name": "C#6",
          "midi": 85,
          "time": 187.6,
          "velocity": 0.3937007874015748,
          "duration": 0.09999999999999432
        },
        {
          "name": "F5",
          "midi": 77,
          "time": 187.6,
          "velocity": 0.3937007874015748,
          "duration": 0.09999999999999432
        },
        {
          "name": "C#6",
          "midi": 85,
          "time": 188,
          "velocity": 0.3937007874015748,
          "duration": 0.09999999999999432
        },
        {
          "name": "F5",
          "midi": 77,
          "time": 188,
          "velocity": 0.3937007874015748,
          "duration": 0.09999999999999432
        },
        {
          "name": "C#6",
          "midi": 85,
          "time": 188.29999999999998,
          "velocity": 0.3937007874015748,
          "duration": 0.09999999999999432
        },
        {
          "name": "F5",
          "midi": 77,
          "time": 188.29999999999998,
          "velocity": 0.3937007874015748,
          "duration": 0.09999999999999432
        },
        {
          "name": "A#5",
          "midi": 82,
          "time": 188.59999999999997,
          "velocity": 0.3937007874015748,
          "duration": 0.09999999999999432
        },
        {
          "name": "F#5",
          "midi": 78,
          "time": 188.59999999999997,
          "velocity": 0.3937007874015748,
          "duration": 0.09999999999999432
        },
        {
          "name": "A#5",
          "midi": 82,
          "time": 189.19999999999996,
          "velocity": 0.3937007874015748,
          "duration": 0.09999999999999432
        },
        {
          "name": "F#5",
          "midi": 78,
          "time": 189.19999999999996,
          "velocity": 0.3937007874015748,
          "duration": 0.09999999999999432
        },
        {
          "name": "A#5",
          "midi": 82,
          "time": 189.59999999999997,
          "velocity": 0.3937007874015748,
          "duration": 0.09999999999999432
        },
        {
          "name": "F#5",
          "midi": 78,
          "time": 189.59999999999997,
          "velocity": 0.3937007874015748,
          "duration": 0.09999999999999432
        },
        {
          "name": "A#5",
          "midi": 82,
          "time": 189.89999999999995,
          "velocity": 0.3937007874015748,
          "duration": 0.09999999999999432
        },
        {
          "name": "F#5",
          "midi": 78,
          "time": 189.89999999999995,
          "velocity": 0.3937007874015748,
          "duration": 0.09999999999999432
        },
        {
          "name": "A#5",
          "midi": 82,
          "time": 190.19999999999993,
          "velocity": 0.3937007874015748,
          "duration": 0.09999999999999432
        },
        {
          "name": "F#5",
          "midi": 78,
          "time": 190.19999999999993,
          "velocity": 0.3937007874015748,
          "duration": 0.09999999999999432
        },
        {
          "name": "F#5",
          "midi": 78,
          "time": 190.79999999999993,
          "velocity": 0.3937007874015748,
          "duration": 0.09999999999999432
        },
        {
          "name": "A#5",
          "midi": 82,
          "time": 190.79999999999993,
          "velocity": 0.3937007874015748,
          "duration": 0.09999999999999432
        },
        {
          "name": "F#5",
          "midi": 78,
          "time": 191.19999999999993,
          "velocity": 0.3937007874015748,
          "duration": 0.09999999999999432
        },
        {
          "name": "A#5",
          "midi": 82,
          "time": 191.19999999999993,
          "velocity": 0.3937007874015748,
          "duration": 0.09999999999999432
        },
        {
          "name": "F#5",
          "midi": 78,
          "time": 191.49999999999991,
          "velocity": 0.3937007874015748,
          "duration": 0.09999999999999432
        },
        {
          "name": "A#5",
          "midi": 82,
          "time": 191.49999999999991,
          "velocity": 0.3937007874015748,
          "duration": 0.09999999999999432
        },
        {
          "name": "F#5",
          "midi": 78,
          "time": 191.7999999999999,
          "velocity": 0.3937007874015748,
          "duration": 0.09999999999999432
        },
        {
          "name": "C#6",
          "midi": 85,
          "time": 191.7999999999999,
          "velocity": 0.3937007874015748,
          "duration": 0.09999999999999432
        },
        {
          "name": "D#6",
          "midi": 87,
          "time": 191.9999999999999,
          "velocity": 0.3937007874015748,
          "duration": 0.09999999999999432
        },
        {
          "name": "F#5",
          "midi": 78,
          "time": 191.9999999999999,
          "velocity": 0.3937007874015748,
          "duration": 0.09999999999999432
        },
        {
          "name": "D#6",
          "midi": 87,
          "time": 192.3999999999999,
          "velocity": 0.3937007874015748,
          "duration": 0.09999999999999432
        },
        {
          "name": "F#5",
          "midi": 78,
          "time": 192.3999999999999,
          "velocity": 0.3937007874015748,
          "duration": 0.09999999999999432
        },
        {
          "name": "D#6",
          "midi": 87,
          "time": 192.7999999999999,
          "velocity": 0.3937007874015748,
          "duration": 0.09999999999999432
        },
        {
          "name": "F#5",
          "midi": 78,
          "time": 192.7999999999999,
          "velocity": 0.3937007874015748,
          "duration": 0.09999999999999432
        },
        {
          "name": "D#6",
          "midi": 87,
          "time": 193.09999999999988,
          "velocity": 0.3937007874015748,
          "duration": 0.09999999999999432
        },
        {
          "name": "F#5",
          "midi": 78,
          "time": 193.09999999999988,
          "velocity": 0.3937007874015748,
          "duration": 0.09999999999999432
        },
        {
          "name": "D#6",
          "midi": 87,
          "time": 193.39999999999986,
          "velocity": 0.3937007874015748,
          "duration": 0.09999999999999432
        },
        {
          "name": "F#5",
          "midi": 78,
          "time": 193.39999999999986,
          "velocity": 0.3937007874015748,
          "duration": 0.09999999999999432
        },
        {
          "name": "F6",
          "midi": 89,
          "time": 193.79999999999987,
          "velocity": 0.3937007874015748,
          "duration": 0.09999999999999432
        },
        {
          "name": "G#5",
          "midi": 80,
          "time": 193.79999999999987,
          "velocity": 0.3937007874015748,
          "duration": 0.09999999999999432
        },
        {
          "name": "F6",
          "midi": 89,
          "time": 193.99999999999986,
          "velocity": 0.3937007874015748,
          "duration": 0.09999999999999432
        },
        {
          "name": "G#5",
          "midi": 80,
          "time": 193.99999999999986,
          "velocity": 0.3937007874015748,
          "duration": 0.09999999999999432
        },
        {
          "name": "F6",
          "midi": 89,
          "time": 194.39999999999986,
          "velocity": 0.3937007874015748,
          "duration": 0.09999999999999432
        },
        {
          "name": "G#5",
          "midi": 80,
          "time": 194.39999999999986,
          "velocity": 0.3937007874015748,
          "duration": 0.09999999999999432
        },
        {
          "name": "F6",
          "midi": 89,
          "time": 194.69999999999985,
          "velocity": 0.3937007874015748,
          "duration": 0.09999999999999432
        },
        {
          "name": "G#5",
          "midi": 80,
          "time": 194.69999999999985,
          "velocity": 0.3937007874015748,
          "duration": 0.09999999999999432
        },
        {
          "name": "D#6",
          "midi": 87,
          "time": 194.99999999999983,
          "velocity": 0.3937007874015748,
          "duration": 0.09999999999999432
        },
        {
          "name": "G5",
          "midi": 79,
          "time": 194.99999999999983,
          "velocity": 0.3937007874015748,
          "duration": 0.09999999999999432
        },
        {
          "name": "D#6",
          "midi": 87,
          "time": 195.59999999999982,
          "velocity": 0.3937007874015748,
          "duration": 0.09999999999999432
        },
        {
          "name": "G5",
          "midi": 79,
          "time": 195.59999999999982,
          "velocity": 0.3937007874015748,
          "duration": 0.09999999999999432
        },
        {
          "name": "D#6",
          "midi": 87,
          "time": 195.99999999999983,
          "velocity": 0.3937007874015748,
          "duration": 0.09999999999999432
        },
        {
          "name": "G5",
          "midi": 79,
          "time": 195.99999999999983,
          "velocity": 0.3937007874015748,
          "duration": 0.09999999999999432
        },
        {
          "name": "D#6",
          "midi": 87,
          "time": 196.2999999999998,
          "velocity": 0.3937007874015748,
          "duration": 0.09999999999999432
        },
        {
          "name": "G5",
          "midi": 79,
          "time": 196.2999999999998,
          "velocity": 0.3937007874015748,
          "duration": 0.09999999999999432
        },
        {
          "name": "D#6",
          "midi": 87,
          "time": 196.5999999999998,
          "velocity": 0.3937007874015748,
          "duration": 0.09999999999999432
        },
        {
          "name": "G5",
          "midi": 79,
          "time": 196.5999999999998,
          "velocity": 0.3937007874015748,
          "duration": 0.09999999999999432
        }
      ],
      "controlChanges": {},
      "id": 6,
      "name": "Music Box",
      "instrumentNumber": 10,
      "instrument": "music box",
      "instrumentFamily": "chromatic percussion",
      "channelNumber": 6,
      "isPercussion": false
    },
    {
      "startTime": 12.8,
      "duration": 211.1999999999976,
      "length": 1137,
      "notes": [
        {
          "name": "F#4",
          "midi": 66,
          "time": 12.8,
          "velocity": 0.3937007874015748,
          "duration": 0.09999999999999964
        },
        {
          "name": "G#4",
          "midi": 68,
          "time": 12.9,
          "velocity": 0.3937007874015748,
          "duration": 0.09999999999999964
        },
        {
          "name": "A#4",
          "midi": 70,
          "time": 13,
          "velocity": 0.3937007874015748,
          "duration": 0.09999999999999964
        },
        {
          "name": "D#5",
          "midi": 75,
          "time": 13.1,
          "velocity": 0.3937007874015748,
          "duration": 0.09999999999999964
        },
        {
          "name": "A#4",
          "midi": 70,
          "time": 13.2,
          "velocity": 0.3937007874015748,
          "duration": 0.09999999999999964
        },
        {
          "name": "C#5",
          "midi": 73,
          "time": 13.299999999999999,
          "velocity": 0.3937007874015748,
          "duration": 0.09999999999999964
        },
        {
          "name": "G#4",
          "midi": 68,
          "time": 13.399999999999999,
          "velocity": 0.3937007874015748,
          "duration": 0.09999999999999964
        },
        {
          "name": "A#4",
          "midi": 70,
          "time": 13.499999999999998,
          "velocity": 0.3937007874015748,
          "duration": 0.09999999999999964
        },
        {
          "name": "F#4",
          "midi": 66,
          "time": 13.599999999999998,
          "velocity": 0.3937007874015748,
          "duration": 0.09999999999999964
        },
        {
          "name": "G#4",
          "midi": 68,
          "time": 13.699999999999998,
          "velocity": 0.3937007874015748,
          "duration": 0.09999999999999964
        },
        {
          "name": "F4",
          "midi": 65,
          "time": 13.799999999999997,
          "velocity": 0.3937007874015748,
          "duration": 0.09999999999999964
        },
        {
          "name": "F#4",
          "midi": 66,
          "time": 13.899999999999997,
          "velocity": 0.3937007874015748,
          "duration": 0.09999999999999964
        },
        {
          "name": "D#4",
          "midi": 63,
          "time": 13.999999999999996,
          "velocity": 0.3937007874015748,
          "duration": 0.09999999999999964
        },
        {
          "name": "F4",
          "midi": 65,
          "time": 14.099999999999996,
          "velocity": 0.3937007874015748,
          "duration": 0.09999999999999964
        },
        {
          "name": "C#4",
          "midi": 61,
          "time": 14.199999999999996,
          "velocity": 0.3937007874015748,
          "duration": 0.09999999999999964
        },
        {
          "name": "D#4",
          "midi": 63,
          "time": 14.299999999999995,
          "velocity": 0.3937007874015748,
          "duration": 0.09999999999999964
        },
        {
          "name": "G#3",
          "midi": 56,
          "time": 14.399999999999995,
          "velocity": 0.3937007874015748,
          "duration": 0.09999999999999964
        },
        {
          "name": "A#3",
          "midi": 58,
          "time": 14.499999999999995,
          "velocity": 0.3937007874015748,
          "duration": 0.09999999999999964
        },
        {
          "name": "F#3",
          "midi": 54,
          "time": 14.599999999999994,
          "velocity": 0.3937007874015748,
          "duration": 0.09999999999999964
        },
        {
          "name": "C#4",
          "midi": 61,
          "time": 14.699999999999994,
          "velocity": 0.3937007874015748,
          "duration": 0.09999999999999964
        },
        {
          "name": "F#4",
          "midi": 66,
          "time": 14.799999999999994,
          "velocity": 0.3937007874015748,
          "duration": 0.09999999999999964
        },
        {
          "name": "F4",
          "midi": 65,
          "time": 14.899999999999993,
          "velocity": 0.3937007874015748,
          "duration": 0.09999999999999964
        },
        {
          "name": "C#4",
          "midi": 61,
          "time": 14.999999999999993,
          "velocity": 0.3937007874015748,
          "duration": 0.09999999999999964
        },
        {
          "name": "D#4",
          "midi": 63,
          "time": 15.099999999999993,
          "velocity": 0.3937007874015748,
          "duration": 0.09999999999999964
        },
        {
          "name": "A#3",
          "midi": 58,
          "time": 15.199999999999992,
          "velocity": 0.3937007874015748,
          "duration": 0.09999999999999964
        },
        {
          "name": "C#4",
          "midi": 61,
          "time": 15.299999999999992,
          "velocity": 0.3937007874015748,
          "duration": 0.09999999999999964
        },
        {
          "name": "D#4",
          "midi": 63,
          "time": 15.399999999999991,
          "velocity": 0.3937007874015748,
          "duration": 0.09999999999999964
        },
        {
          "name": "F4",
          "midi": 65,
          "time": 15.499999999999991,
          "velocity": 0.3937007874015748,
          "duration": 0.09999999999999964
        },
        {
          "name": "F#4",
          "midi": 66,
          "time": 15.59999999999999,
          "velocity": 0.3937007874015748,
          "duration": 0.09999999999999964
        },
        {
          "name": "G#4",
          "midi": 68,
          "time": 15.69999999999999,
          "velocity": 0.3937007874015748,
          "duration": 0.09999999999999964
        },
        {
          "name": "A#4",
          "midi": 70,
          "time": 15.79999999999999,
          "velocity": 0.3937007874015748,
          "duration": 0.09999999999999964
        },
        {
          "name": "B4",
          "midi": 71,
          "time": 15.89999999999999,
          "velocity": 0.3937007874015748,
          "duration": 0.09999999999999964
        },
        {
          "name": "A#4",
          "midi": 70,
          "time": 15.99999999999999,
          "velocity": 0.3937007874015748,
          "duration": 0.10000000000000142
        },
        {
          "name": "F#4",
          "midi": 66,
          "time": 16.09999999999999,
          "velocity": 0.3937007874015748,
          "duration": 0.10000000000000142
        },
        {
          "name": "A#4",
          "midi": 70,
          "time": 16.199999999999992,
          "velocity": 0.3937007874015748,
          "duration": 0.10000000000000142
        },
        {
          "name": "G#4",
          "midi": 68,
          "time": 16.299999999999994,
          "velocity": 0.3937007874015748,
          "duration": 0.10000000000000142
        },
        {
          "name": "F4",
          "midi": 65,
          "time": 16.399999999999995,
          "velocity": 0.3937007874015748,
          "duration": 0.10000000000000142
        },
        {
          "name": "G#4",
          "midi": 68,
          "time": 16.499999999999996,
          "velocity": 0.3937007874015748,
          "duration": 0.10000000000000142
        },
        {
          "name": "F#4",
          "midi": 66,
          "time": 16.599999999999998,
          "velocity": 0.3937007874015748,
          "duration": 0.10000000000000142
        },
        {
          "name": "D#4",
          "midi": 63,
          "time": 16.7,
          "velocity": 0.3937007874015748,
          "duration": 0.10000000000000142
        },
        {
          "name": "F#4",
          "midi": 66,
          "time": 16.8,
          "velocity": 0.3937007874015748,
          "duration": 0.10000000000000142
        },
        {
          "name": "F4",
          "midi": 65,
          "time": 16.900000000000002,
          "velocity": 0.3937007874015748,
          "duration": 0.10000000000000142
        },
        {
          "name": "C#4",
          "midi": 61,
          "time": 17.000000000000004,
          "velocity": 0.3937007874015748,
          "duration": 0.10000000000000142
        },
        {
          "name": "D#4",
          "midi": 63,
          "time": 17.100000000000005,
          "velocity": 0.3937007874015748,
          "duration": 0.10000000000000142
        },
        {
          "name": "C#4",
          "midi": 61,
          "time": 17.200000000000006,
          "velocity": 0.3937007874015748,
          "duration": 0.10000000000000142
        },
        {
          "name": "G#3",
          "midi": 56,
          "time": 17.300000000000008,
          "velocity": 0.3937007874015748,
          "duration": 0.10000000000000142
        },
        {
          "name": "A#3",
          "midi": 58,
          "time": 17.40000000000001,
          "velocity": 0.3937007874015748,
          "duration": 0.10000000000000142
        },
        {
          "name": "F#3",
          "midi": 54,
          "time": 17.50000000000001,
          "velocity": 0.3937007874015748,
          "duration": 0.10000000000000142
        },
        {
          "name": "G#3",
          "midi": 56,
          "time": 17.600000000000012,
          "velocity": 0.3937007874015748,
          "duration": 0.10000000000000142
        },
        {
          "name": "F3",
          "midi": 53,
          "time": 17.700000000000014,
          "velocity": 0.3937007874015748,
          "duration": 0.10000000000000142
        },
        {
          "name": "F#3",
          "midi": 54,
          "time": 17.800000000000015,
          "velocity": 0.3937007874015748,
          "duration": 0.10000000000000142
        },
        {
          "name": "D#3",
          "midi": 51,
          "time": 17.900000000000016,
          "velocity": 0.3937007874015748,
          "duration": 0.10000000000000142
        },
        {
          "name": "F3",
          "midi": 53,
          "time": 18.000000000000018,
          "velocity": 0.3937007874015748,
          "duration": 0.10000000000000142
        },
        {
          "name": "C#3",
          "midi": 49,
          "time": 18.10000000000002,
          "velocity": 0.3937007874015748,
          "duration": 0.10000000000000142
        },
        {
          "name": "D#3",
          "midi": 51,
          "time": 18.20000000000002,
          "velocity": 0.3937007874015748,
          "duration": 0.10000000000000142
        },
        {
          "name": "A#2",
          "midi": 46,
          "time": 18.300000000000022,
          "velocity": 0.3937007874015748,
          "duration": 0.10000000000000142
        },
        {
          "name": "C#3",
          "midi": 49,
          "time": 18.400000000000023,
          "velocity": 0.3937007874015748,
          "duration": 0.10000000000000142
        },
        {
          "name": "G#2",
          "midi": 44,
          "time": 18.500000000000025,
          "velocity": 0.3937007874015748,
          "duration": 0.10000000000000142
        },
        {
          "name": "A#2",
          "midi": 46,
          "time": 18.600000000000026,
          "velocity": 0.3937007874015748,
          "duration": 0.10000000000000142
        },
        {
          "name": "D#3",
          "midi": 51,
          "time": 18.700000000000028,
          "velocity": 0.3937007874015748,
          "duration": 0.10000000000000142
        },
        {
          "name": "G#2",
          "midi": 44,
          "time": 18.80000000000003,
          "velocity": 0.3937007874015748,
          "duration": 0.10000000000000142
        },
        {
          "name": "A#2",
          "midi": 46,
          "time": 18.90000000000003,
          "velocity": 0.3937007874015748,
          "duration": 0.10000000000000142
        },
        {
          "name": "D#3",
          "midi": 51,
          "time": 19.000000000000032,
          "velocity": 0.3937007874015748,
          "duration": 0.10000000000000142
        },
        {
          "name": "F3",
          "midi": 53,
          "time": 19.100000000000033,
          "velocity": 0.3937007874015748,
          "duration": 0.10000000000000142
        },
        {
          "name": "A#3",
          "midi": 58,
          "time": 19.200000000000035,
          "velocity": 0.3937007874015748,
          "duration": 0.10000000000000142
        },
        {
          "name": "G#3",
          "midi": 56,
          "time": 19.300000000000036,
          "velocity": 0.3937007874015748,
          "duration": 0.10000000000000142
        },
        {
          "name": "A#3",
          "midi": 58,
          "time": 19.400000000000038,
          "velocity": 0.3937007874015748,
          "duration": 0.10000000000000142
        },
        {
          "name": "D#4",
          "midi": 63,
          "time": 19.50000000000004,
          "velocity": 0.3937007874015748,
          "duration": 0.1999999999999993
        },
        {
          "name": "A#3",
          "midi": 58,
          "time": 19.70000000000004,
          "velocity": 0.3937007874015748,
          "duration": 0.10000000000000142
        },
        {
          "name": "G#3",
          "midi": 56,
          "time": 19.80000000000004,
          "velocity": 0.3937007874015748,
          "duration": 0.10000000000000142
        },
        {
          "name": "A#3",
          "midi": 58,
          "time": 19.90000000000004,
          "velocity": 0.3937007874015748,
          "duration": 0.10000000000000142
        },
        {
          "name": "C#4",
          "midi": 61,
          "time": 20.000000000000043,
          "velocity": 0.3937007874015748,
          "duration": 0.10000000000000142
        },
        {
          "name": "D#4",
          "midi": 63,
          "time": 20.100000000000044,
          "velocity": 0.3937007874015748,
          "duration": 0.10000000000000142
        },
        {
          "name": "F4",
          "midi": 65,
          "time": 20.200000000000045,
          "velocity": 0.3937007874015748,
          "duration": 0.1999999999999993
        },
        {
          "name": "A#3",
          "midi": 58,
          "time": 20.400000000000045,
          "velocity": 0.3937007874015748,
          "duration": 0.10000000000000142
        },
        {
          "name": "G#3",
          "midi": 56,
          "time": 20.500000000000046,
          "velocity": 0.3937007874015748,
          "duration": 0.10000000000000142
        },
        {
          "name": "A#3",
          "midi": 58,
          "time": 20.600000000000048,
          "velocity": 0.3937007874015748,
          "duration": 0.10000000000000142
        },
        {
          "name": "D#4",
          "midi": 63,
          "time": 20.70000000000005,
          "velocity": 0.3937007874015748,
          "duration": 0.10000000000000142
        },
        {
          "name": "A#3",
          "midi": 58,
          "time": 20.80000000000005,
          "velocity": 0.3937007874015748,
          "duration": 0.10000000000000142
        },
        {
          "name": "G#3",
          "midi": 56,
          "time": 20.900000000000052,
          "velocity": 0.3937007874015748,
          "duration": 0.10000000000000142
        },
        {
          "name": "A#3",
          "midi": 58,
          "time": 21.000000000000053,
          "velocity": 0.3937007874015748,
          "duration": 0.10000000000000142
        },
        {
          "name": "F4",
          "midi": 65,
          "time": 21.100000000000055,
          "velocity": 0.3937007874015748,
          "duration": 0.10000000000000142
        },
        {
          "name": "F#4",
          "midi": 66,
          "time": 21.200000000000056,
          "velocity": 0.3937007874015748,
          "duration": 0.10000000000000142
        },
        {
          "name": "A#3",
          "midi": 58,
          "time": 21.300000000000058,
          "velocity": 0.3937007874015748,
          "duration": 0.10000000000000142
        },
        {
          "name": "F4",
          "midi": 65,
          "time": 21.40000000000006,
          "velocity": 0.3937007874015748,
          "duration": 0.10000000000000142
        },
        {
          "name": "G#3",
          "midi": 56,
          "time": 21.50000000000006,
          "velocity": 0.3937007874015748,
          "duration": 0.10000000000000142
        },
        {
          "name": "D#4",
          "midi": 63,
          "time": 21.600000000000062,
          "velocity": 0.3937007874015748,
          "duration": 0.10000000000000142
        },
        {
          "name": "F#3",
          "midi": 54,
          "time": 21.700000000000063,
          "velocity": 0.3937007874015748,
          "duration": 0.10000000000000142
        },
        {
          "name": "C#4",
          "midi": 61,
          "time": 21.800000000000065,
          "velocity": 0.3937007874015748,
          "duration": 0.10000000000000142
        },
        {
          "name": "F3",
          "midi": 53,
          "time": 21.900000000000066,
          "velocity": 0.3937007874015748,
          "duration": 0.10000000000000142
        },
        {
          "name": "A#3",
          "midi": 58,
          "time": 22.000000000000068,
          "velocity": 0.3937007874015748,
          "duration": 0.10000000000000142
        },
        {
          "name": "G#3",
          "midi": 56,
          "time": 22.10000000000007,
          "velocity": 0.3937007874015748,
          "duration": 0.10000000000000142
        },
        {
          "name": "F#3",
          "midi": 54,
          "time": 22.20000000000007,
          "velocity": 0.3937007874015748,
          "duration": 0.10000000000000142
        },
        {
          "name": "G#3",
          "midi": 56,
          "time": 22.30000000000007,
          "velocity": 0.3937007874015748,
          "duration": 0.10000000000000142
        },
        {
          "name": "D3",
          "midi": 50,
          "time": 22.400000000000073,
          "velocity": 0.3937007874015748,
          "duration": 0.10000000000000142
        },
        {
          "name": "D#3",
          "midi": 51,
          "time": 22.500000000000075,
          "velocity": 0.3937007874015748,
          "duration": 0.10000000000000142
        },
        {
          "name": "F3",
          "midi": 53,
          "time": 22.600000000000076,
          "velocity": 0.3937007874015748,
          "duration": 0.10000000000000142
        },
        {
          "name": "A#3",
          "midi": 58,
          "time": 22.700000000000077,
          "velocity": 0.3937007874015748,
          "duration": 0.10000000000000142
        },
        {
          "name": "D4",
          "midi": 62,
          "time": 22.80000000000008,
          "velocity": 0.3937007874015748,
          "duration": 0.10000000000000142
        },
        {
          "name": "D#4",
          "midi": 63,
          "time": 22.90000000000008,
          "velocity": 0.3937007874015748,
          "duration": 0.10000000000000142
        },
        {
          "name": "F4",
          "midi": 65,
          "time": 23.00000000000008,
          "velocity": 0.3937007874015748,
          "duration": 0.10000000000000142
        },
        {
          "name": "A#4",
          "midi": 70,
          "time": 23.100000000000083,
          "velocity": 0.3937007874015748,
          "duration": 0.10000000000000142
        },
        {
          "name": "F4",
          "midi": 65,
          "time": 23.200000000000085,
          "velocity": 0.3937007874015748,
          "duration": 0.10000000000000142
        },
        {
          "name": "D5",
          "midi": 74,
          "time": 23.300000000000086,
          "velocity": 0.3937007874015748,
          "duration": 0.10000000000000142
        },
        {
          "name": "F4",
          "midi": 65,
          "time": 23.400000000000087,
          "velocity": 0.3937007874015748,
          "duration": 0.10000000000000142
        },
        {
          "name": "D#4",
          "midi": 63,
          "time": 23.50000000000009,
          "velocity": 0.3937007874015748,
          "duration": 0.10000000000000142
        },
        {
          "name": "D4",
          "midi": 62,
          "time": 23.60000000000009,
          "velocity": 0.3937007874015748,
          "duration": 0.10000000000000142
        },
        {
          "name": "D#4",
          "midi": 63,
          "time": 23.70000000000009,
          "velocity": 0.3937007874015748,
          "duration": 0.10000000000000142
        },
        {
          "name": "F4",
          "midi": 65,
          "time": 23.800000000000093,
          "velocity": 0.3937007874015748,
          "duration": 0.10000000000000142
        },
        {
          "name": "A#3",
          "midi": 58,
          "time": 23.900000000000095,
          "velocity": 0.3937007874015748,
          "duration": 0.10000000000000142
        },
        {
          "name": "D4",
          "midi": 62,
          "time": 24.000000000000096,
          "velocity": 0.3937007874015748,
          "duration": 0.10000000000000142
        },
        {
          "name": "D#4",
          "midi": 63,
          "time": 24.100000000000097,
          "velocity": 0.3937007874015748,
          "duration": 0.10000000000000142
        },
        {
          "name": "F4",
          "midi": 65,
          "time": 24.2000000000001,
          "velocity": 0.3937007874015748,
          "duration": 0.10000000000000142
        },
        {
          "name": "D4",
          "midi": 62,
          "time": 24.3000000000001,
          "velocity": 0.3937007874015748,
          "duration": 0.10000000000000142
        },
        {
          "name": "A#3",
          "midi": 58,
          "time": 24.4000000000001,
          "velocity": 0.3937007874015748,
          "duration": 0.10000000000000142
        },
        {
          "name": "G#3",
          "midi": 56,
          "time": 24.500000000000103,
          "velocity": 0.3937007874015748,
          "duration": 0.10000000000000142
        },
        {
          "name": "F#3",
          "midi": 54,
          "time": 24.600000000000104,
          "velocity": 0.3937007874015748,
          "duration": 0.10000000000000142
        },
        {
          "name": "F3",
          "midi": 53,
          "time": 24.700000000000106,
          "velocity": 0.3937007874015748,
          "duration": 0.10000000000000142
        },
        {
          "name": "F#3",
          "midi": 54,
          "time": 24.800000000000107,
          "velocity": 0.3937007874015748,
          "duration": 0.10000000000000142
        },
        {
          "name": "F3",
          "midi": 53,
          "time": 24.90000000000011,
          "velocity": 0.3937007874015748,
          "duration": 0.10000000000000142
        },
        {
          "name": "A#2",
          "midi": 46,
          "time": 25.00000000000011,
          "velocity": 0.3937007874015748,
          "duration": 0.10000000000000142
        },
        {
          "name": "D#3",
          "midi": 51,
          "time": 25.10000000000011,
          "velocity": 0.3937007874015748,
          "duration": 0.10000000000000142
        },
        {
          "name": "F3",
          "midi": 53,
          "time": 25.200000000000113,
          "velocity": 0.3937007874015748,
          "duration": 0.10000000000000142
        },
        {
          "name": "D#3",
          "midi": 51,
          "time": 25.300000000000114,
          "velocity": 0.3937007874015748,
          "duration": 0.10000000000000142
        },
        {
          "name": "D3",
          "midi": 50,
          "time": 25.400000000000116,
          "velocity": 0.3937007874015748,
          "duration": 0.1999999999999993
        },
        {
          "name": "D4",
          "midi": 62,
          "time": 25.600000000000115,
          "velocity": 0.3937007874015748,
          "duration": 0.10000000000000142
        },
        {
          "name": "D3",
          "midi": 50,
          "time": 25.600000000000115,
          "velocity": 0.3937007874015748,
          "duration": 0.10000000000000142
        },
        {
          "name": "F4",
          "midi": 65,
          "time": 25.700000000000117,
          "velocity": 0.3937007874015748,
          "duration": 0.10000000000000142
        },
        {
          "name": "F3",
          "midi": 53,
          "time": 25.700000000000117,
          "velocity": 0.3937007874015748,
          "duration": 0.10000000000000142
        },
        {
          "name": "A#4",
          "midi": 70,
          "time": 25.800000000000118,
          "velocity": 0.3937007874015748,
          "duration": 0.10000000000000142
        },
        {
          "name": "A#3",
          "midi": 58,
          "time": 25.800000000000118,
          "velocity": 0.3937007874015748,
          "duration": 0.10000000000000142
        },
        {
          "name": "D4",
          "midi": 62,
          "time": 25.90000000000012,
          "velocity": 0.3937007874015748,
          "duration": 0.10000000000000142
        },
        {
          "name": "D3",
          "midi": 50,
          "time": 25.90000000000012,
          "velocity": 0.3937007874015748,
          "duration": 0.10000000000000142
        },
        {
          "name": "F4",
          "midi": 65,
          "time": 26.00000000000012,
          "velocity": 0.3937007874015748,
          "duration": 0.10000000000000142
        },
        {
          "name": "F3",
          "midi": 53,
          "time": 26.00000000000012,
          "velocity": 0.3937007874015748,
          "duration": 0.10000000000000142
        },
        {
          "name": "A#4",
          "midi": 70,
          "time": 26.100000000000122,
          "velocity": 0.3937007874015748,
          "duration": 0.10000000000000142
        },
        {
          "name": "A#3",
          "midi": 58,
          "time": 26.100000000000122,
          "velocity": 0.3937007874015748,
          "duration": 0.10000000000000142
        },
        {
          "name": "D4",
          "midi": 62,
          "time": 26.200000000000124,
          "velocity": 0.3937007874015748,
          "duration": 0.10000000000000142
        },
        {
          "name": "D3",
          "midi": 50,
          "time": 26.200000000000124,
          "velocity": 0.3937007874015748,
          "duration": 0.10000000000000142
        },
        {
          "name": "F4",
          "midi": 65,
          "time": 26.300000000000125,
          "velocity": 0.3937007874015748,
          "duration": 0.10000000000000142
        },
        {
          "name": "F3",
          "midi": 53,
          "time": 26.300000000000125,
          "velocity": 0.3937007874015748,
          "duration": 0.10000000000000142
        },
        {
          "name": "A#4",
          "midi": 70,
          "time": 26.400000000000126,
          "velocity": 0.3937007874015748,
          "duration": 0.10000000000000142
        },
        {
          "name": "A#3",
          "midi": 58,
          "time": 26.400000000000126,
          "velocity": 0.3937007874015748,
          "duration": 0.10000000000000142
        },
        {
          "name": "D4",
          "midi": 62,
          "time": 26.500000000000128,
          "velocity": 0.3937007874015748,
          "duration": 0.10000000000000142
        },
        {
          "name": "D3",
          "midi": 50,
          "time": 26.500000000000128,
          "velocity": 0.3937007874015748,
          "duration": 0.10000000000000142
        },
        {
          "name": "F4",
          "midi": 65,
          "time": 26.60000000000013,
          "velocity": 0.3937007874015748,
          "duration": 0.10000000000000142
        },
        {
          "name": "F3",
          "midi": 53,
          "time": 26.60000000000013,
          "velocity": 0.3937007874015748,
          "duration": 0.10000000000000142
        },
        {
          "name": "A#4",
          "midi": 70,
          "time": 26.70000000000013,
          "velocity": 0.3937007874015748,
          "duration": 0.10000000000000142
        },
        {
          "name": "A#3",
          "midi": 58,
          "time": 26.70000000000013,
          "velocity": 0.3937007874015748,
          "duration": 0.10000000000000142
        },
        {
          "name": "D4",
          "midi": 62,
          "time": 26.800000000000132,
          "velocity": 0.3937007874015748,
          "duration": 0.10000000000000142
        },
        {
          "name": "D3",
          "midi": 50,
          "time": 26.800000000000132,
          "velocity": 0.3937007874015748,
          "duration": 0.10000000000000142
        },
        {
          "name": "F4",
          "midi": 65,
          "time": 26.900000000000134,
          "velocity": 0.3937007874015748,
          "duration": 0.10000000000000142
        },
        {
          "name": "F3",
          "midi": 53,
          "time": 26.900000000000134,
          "velocity": 0.3937007874015748,
          "duration": 0.10000000000000142
        },
        {
          "name": "A#4",
          "midi": 70,
          "time": 27.000000000000135,
          "velocity": 0.3937007874015748,
          "duration": 0.10000000000000142
        },
        {
          "name": "A#3",
          "midi": 58,
          "time": 27.000000000000135,
          "velocity": 0.3937007874015748,
          "duration": 0.10000000000000142
        },
        {
          "name": "D4",
          "midi": 62,
          "time": 27.100000000000136,
          "velocity": 0.3937007874015748,
          "duration": 0.10000000000000142
        },
        {
          "name": "D#4",
          "midi": 63,
          "time": 27.200000000000138,
          "velocity": 0.3937007874015748,
          "duration": 0.10000000000000142
        },
        {
          "name": "F4",
          "midi": 65,
          "time": 27.30000000000014,
          "velocity": 0.3937007874015748,
          "duration": 0.10000000000000142
        },
        {
          "name": "F#4",
          "midi": 66,
          "time": 27.40000000000014,
          "velocity": 0.3937007874015748,
          "duration": 0.10000000000000142
        },
        {
          "name": "G#4",
          "midi": 68,
          "time": 27.500000000000142,
          "velocity": 0.3937007874015748,
          "duration": 0.10000000000000142
        },
        {
          "name": "A#4",
          "midi": 70,
          "time": 27.600000000000144,
          "velocity": 0.3937007874015748,
          "duration": 0.10000000000000142
        },
        {
          "name": "D5",
          "midi": 74,
          "time": 27.700000000000145,
          "velocity": 0.3937007874015748,
          "duration": 0.10000000000000142
        },
        {
          "name": "F5",
          "midi": 77,
          "time": 27.800000000000146,
          "velocity": 0.3937007874015748,
          "duration": 0.10000000000000142
        },
        {
          "name": "A#5",
          "midi": 82,
          "time": 27.900000000000148,
          "velocity": 0.3937007874015748,
          "duration": 0.10000000000000142
        },
        {
          "name": "D5",
          "midi": 74,
          "time": 28.00000000000015,
          "velocity": 0.3937007874015748,
          "duration": 0.10000000000000142
        },
        {
          "name": "D#5",
          "midi": 75,
          "time": 28.10000000000015,
          "velocity": 0.3937007874015748,
          "duration": 0.10000000000000142
        },
        {
          "name": "F5",
          "midi": 77,
          "time": 28.200000000000152,
          "velocity": 0.3937007874015748,
          "duration": 0.10000000000000142
        },
        {
          "name": "A#5",
          "midi": 82,
          "time": 28.300000000000153,
          "velocity": 0.3937007874015748,
          "duration": 0.10000000000000142
        },
        {
          "name": "D5",
          "midi": 74,
          "time": 28.400000000000155,
          "velocity": 0.3937007874015748,
          "duration": 0.10000000000000142
        },
        {
          "name": "D#5",
          "midi": 75,
          "time": 28.500000000000156,
          "velocity": 0.3937007874015748,
          "duration": 0.10000000000000142
        },
        {
          "name": "F5",
          "midi": 77,
          "time": 28.600000000000158,
          "velocity": 0.3937007874015748,
          "duration": 0.10000000000000142
        },
        {
          "name": "A#5",
          "midi": 82,
          "time": 28.70000000000016,
          "velocity": 0.3937007874015748,
          "duration": 0.10000000000000142
        },
        {
          "name": "D5",
          "midi": 74,
          "time": 28.80000000000016,
          "velocity": 0.3937007874015748,
          "duration": 0.10000000000000142
        },
        {
          "name": "A#5",
          "midi": 82,
          "time": 28.900000000000162,
          "velocity": 0.3937007874015748,
          "duration": 0.10000000000000142
        },
        {
          "name": "D5",
          "midi": 74,
          "time": 29.000000000000163,
          "velocity": 0.3937007874015748,
          "duration": 0.10000000000000142
        },
        {
          "name": "G#5",
          "midi": 80,
          "time": 29.100000000000165,
          "velocity": 0.3937007874015748,
          "duration": 0.10000000000000142
        },
        {
          "name": "D5",
          "midi": 74,
          "time": 29.200000000000166,
          "velocity": 0.3937007874015748,
          "duration": 0.10000000000000142
        },
        {
          "name": "F#5",
          "midi": 78,
          "time": 29.300000000000168,
          "velocity": 0.3937007874015748,
          "duration": 0.10000000000000142
        },
        {
          "name": "D5",
          "midi": 74,
          "time": 29.40000000000017,
          "velocity": 0.3937007874015748,
          "duration": 0.10000000000000142
        },
        {
          "name": "F5",
          "midi": 77,
          "time": 29.50000000000017,
          "velocity": 0.3937007874015748,
          "duration": 0.10000000000000142
        },
        {
          "name": "A#4",
          "midi": 70,
          "time": 29.600000000000172,
          "velocity": 0.3937007874015748,
          "duration": 0.10000000000000142
        },
        {
          "name": "D5",
          "midi": 74,
          "time": 29.700000000000173,
          "velocity": 0.3937007874015748,
          "duration": 0.10000000000000142
        },
        {
          "name": "G#4",
          "midi": 68,
          "time": 29.800000000000175,
          "velocity": 0.3937007874015748,
          "duration": 0.10000000000000142
        },
        {
          "name": "A#4",
          "midi": 70,
          "time": 29.900000000000176,
          "velocity": 0.3937007874015748,
          "duration": 0.10000000000000142
        },
        {
          "name": "F#4",
          "midi": 66,
          "time": 30.000000000000178,
          "velocity": 0.3937007874015748,
          "duration": 0.10000000000000142
        },
        {
          "name": "G#4",
          "midi": 68,
          "time": 30.10000000000018,
          "velocity": 0.3937007874015748,
          "duration": 0.10000000000000142
        },
        {
          "name": "F4",
          "midi": 65,
          "time": 30.20000000000018,
          "velocity": 0.3937007874015748,
          "duration": 0.10000000000000142
        },
        {
          "name": "F#4",
          "midi": 66,
          "time": 30.300000000000182,
          "velocity": 0.3937007874015748,
          "duration": 0.10000000000000142
        },
        {
          "name": "D#4",
          "midi": 63,
          "time": 30.400000000000183,
          "velocity": 0.3937007874015748,
          "duration": 0.10000000000000142
        },
        {
          "name": "F4",
          "midi": 65,
          "time": 30.500000000000185,
          "velocity": 0.3937007874015748,
          "duration": 0.10000000000000142
        },
        {
          "name": "C#4",
          "midi": 61,
          "time": 30.600000000000186,
          "velocity": 0.3937007874015748,
          "duration": 0.10000000000000142
        },
        {
          "name": "D#4",
          "midi": 63,
          "time": 30.700000000000188,
          "velocity": 0.3937007874015748,
          "duration": 0.10000000000000142
        },
        {
          "name": "A#3",
          "midi": 58,
          "time": 30.80000000000019,
          "velocity": 0.3937007874015748,
          "duration": 0.10000000000000142
        },
        {
          "name": "C#4",
          "midi": 61,
          "time": 30.90000000000019,
          "velocity": 0.3937007874015748,
          "duration": 0.10000000000000142
        },
        {
          "name": "G#3",
          "midi": 56,
          "time": 31.000000000000192,
          "velocity": 0.3937007874015748,
          "duration": 0.10000000000000142
        },
        {
          "name": "A#3",
          "midi": 58,
          "time": 31.100000000000193,
          "velocity": 0.3937007874015748,
          "duration": 0.10000000000000142
        },
        {
          "name": "F3",
          "midi": 53,
          "time": 31.200000000000195,
          "velocity": 0.3937007874015748,
          "duration": 0.10000000000000142
        },
        {
          "name": "F#3",
          "midi": 54,
          "time": 31.300000000000196,
          "velocity": 0.3937007874015748,
          "duration": 0.10000000000000142
        },
        {
          "name": "D3",
          "midi": 50,
          "time": 31.400000000000198,
          "velocity": 0.3937007874015748,
          "duration": 0.10000000000000142
        },
        {
          "name": "F3",
          "midi": 53,
          "time": 31.5000000000002,
          "velocity": 0.3937007874015748,
          "duration": 0.10000000000000142
        },
        {
          "name": "F#3",
          "midi": 54,
          "time": 31.6000000000002,
          "velocity": 0.3937007874015748,
          "duration": 0.1999999999999993
        },
        {
          "name": "G#3",
          "midi": 56,
          "time": 31.8000000000002,
          "velocity": 0.3937007874015748,
          "duration": 0.1999999999999993
        },
        {
          "name": "F3",
          "midi": 53,
          "time": 31.8000000000002,
          "velocity": 0.3937007874015748,
          "duration": 0.1999999999999993
        },
        {
          "name": "F#3",
          "midi": 54,
          "time": 32.0000000000002,
          "velocity": 0.3937007874015748,
          "duration": 0.6000000000000014
        },
        {
          "name": "A#3",
          "midi": 58,
          "time": 32.0000000000002,
          "velocity": 0.3937007874015748,
          "duration": 0.6000000000000014
        },
        {
          "name": "D#4",
          "midi": 63,
          "time": 32.6000000000002,
          "velocity": 0.3937007874015748,
          "duration": 0.20000000000000284
        },
        {
          "name": "A#3",
          "midi": 58,
          "time": 32.6000000000002,
          "velocity": 0.3937007874015748,
          "duration": 0.20000000000000284
        },
        {
          "name": "F#3",
          "midi": 54,
          "time": 32.8000000000002,
          "velocity": 0.3937007874015748,
          "duration": 0.7999999999999972
        },
        {
          "name": "A#3",
          "midi": 58,
          "time": 32.8000000000002,
          "velocity": 0.3937007874015748,
          "duration": 0.7999999999999972
        },
        {
          "name": "A#3",
          "midi": 58,
          "time": 33.6000000000002,
          "velocity": 0.3937007874015748,
          "duration": 0.6000000000000014
        },
        {
          "name": "F#4",
          "midi": 66,
          "time": 33.6000000000002,
          "velocity": 0.3937007874015748,
          "duration": 0.6000000000000014
        },
        {
          "name": "C#4",
          "midi": 61,
          "time": 34.2000000000002,
          "velocity": 0.3937007874015748,
          "duration": 0.10000000000000142
        },
        {
          "name": "D#4",
          "midi": 63,
          "time": 34.3000000000002,
          "velocity": 0.3937007874015748,
          "duration": 0.10000000000000142
        },
        {
          "name": "G#3",
          "midi": 56,
          "time": 34.400000000000205,
          "velocity": 0.3937007874015748,
          "duration": 0.20000000000000284
        },
        {
          "name": "F4",
          "midi": 65,
          "time": 34.400000000000205,
          "velocity": 0.3937007874015748,
          "duration": 0.20000000000000284
        },
        {
          "name": "F#4",
          "midi": 66,
          "time": 34.60000000000021,
          "velocity": 0.3937007874015748,
          "duration": 0.20000000000000284
        },
        {
          "name": "G#3",
          "midi": 56,
          "time": 34.60000000000021,
          "velocity": 0.3937007874015748,
          "duration": 0.20000000000000284
        },
        {
          "name": "F3",
          "midi": 53,
          "time": 34.80000000000021,
          "velocity": 0.3937007874015748,
          "duration": 0.20000000000000284
        },
        {
          "name": "C#4",
          "midi": 61,
          "time": 34.80000000000021,
          "velocity": 0.3937007874015748,
          "duration": 0.20000000000000284
        },
        {
          "name": "F4",
          "midi": 65,
          "time": 35.00000000000021,
          "velocity": 0.3937007874015748,
          "duration": 0.20000000000000284
        },
        {
          "name": "C#4",
          "midi": 61,
          "time": 35.00000000000021,
          "velocity": 0.3937007874015748,
          "duration": 0.20000000000000284
        },
        {
          "name": "F#3",
          "midi": 54,
          "time": 35.200000000000216,
          "velocity": 0.3937007874015748,
          "duration": 0.6000000000000014
        },
        {
          "name": "A#3",
          "midi": 58,
          "time": 35.200000000000216,
          "velocity": 0.3937007874015748,
          "duration": 0.6000000000000014
        },
        {
          "name": "D#4",
          "midi": 63,
          "time": 35.80000000000022,
          "velocity": 0.3937007874015748,
          "duration": 0.20000000000000284
        },
        {
          "name": "A#3",
          "midi": 58,
          "time": 35.80000000000022,
          "velocity": 0.3937007874015748,
          "duration": 0.20000000000000284
        },
        {
          "name": "F#3",
          "midi": 54,
          "time": 36.00000000000022,
          "velocity": 0.3937007874015748,
          "duration": 0.7999999999999972
        },
        {
          "name": "A#3",
          "midi": 58,
          "time": 36.00000000000022,
          "velocity": 0.3937007874015748,
          "duration": 0.7999999999999972
        },
        {
          "name": "F#3",
          "midi": 54,
          "time": 36.80000000000022,
          "velocity": 0.3937007874015748,
          "duration": 0.20000000000000284
        },
        {
          "name": "C#4",
          "midi": 61,
          "time": 36.80000000000022,
          "velocity": 0.3937007874015748,
          "duration": 1.0000000000000142
        },
        {
          "name": "F#4",
          "midi": 66,
          "time": 36.80000000000022,
          "velocity": 0.3937007874015748,
          "duration": 1.0000000000000142
        },
        {
          "name": "A#3",
          "midi": 58,
          "time": 37.00000000000022,
          "velocity": 0.3937007874015748,
          "duration": 0.10000000000000142
        },
        {
          "name": "F3",
          "midi": 53,
          "time": 37.10000000000022,
          "velocity": 0.3937007874015748,
          "duration": 0.10000000000000142
        },
        {
          "name": "F#3",
          "midi": 54,
          "time": 37.20000000000022,
          "velocity": 0.3937007874015748,
          "duration": 0.10000000000000142
        },
        {
          "name": "G#3",
          "midi": 56,
          "time": 37.300000000000225,
          "velocity": 0.3937007874015748,
          "duration": 0.10000000000000142
        },
        {
          "name": "F3",
          "midi": 53,
          "time": 37.400000000000226,
          "velocity": 0.3937007874015748,
          "duration": 0.10000000000000142
        },
        {
          "name": "F#3",
          "midi": 54,
          "time": 37.50000000000023,
          "velocity": 0.3937007874015748,
          "duration": 0.10000000000000142
        },
        {
          "name": "D#3",
          "midi": 51,
          "time": 37.60000000000023,
          "velocity": 0.3937007874015748,
          "duration": 0.10000000000000142
        },
        {
          "name": "F3",
          "midi": 53,
          "time": 37.70000000000023,
          "velocity": 0.3937007874015748,
          "duration": 0.10000000000000142
        },
        {
          "name": "C#3",
          "midi": 49,
          "time": 37.80000000000023,
          "velocity": 0.3937007874015748,
          "duration": 0.10000000000000142
        },
        {
          "name": "D#3",
          "midi": 51,
          "time": 37.90000000000023,
          "velocity": 0.3937007874015748,
          "duration": 0.10000000000000142
        },
        {
          "name": "A#2",
          "midi": 46,
          "time": 38.000000000000234,
          "velocity": 0.3937007874015748,
          "duration": 0.10000000000000142
        },
        {
          "name": "C#3",
          "midi": 49,
          "time": 38.100000000000236,
          "velocity": 0.3937007874015748,
          "duration": 0.10000000000000142
        },
        {
          "name": "G#2",
          "midi": 44,
          "time": 38.20000000000024,
          "velocity": 0.3937007874015748,
          "duration": 0.20000000000000284
        },
        {
          "name": "F#3",
          "midi": 54,
          "time": 38.40000000000024,
          "velocity": 0.3937007874015748,
          "duration": 0.20000000000000284
        },
        {
          "name": "A#3",
          "midi": 58,
          "time": 38.40000000000024,
          "velocity": 0.3937007874015748,
          "duration": 0.6000000000000085
        },
        {
          "name": "A#2",
          "midi": 46,
          "time": 38.60000000000024,
          "velocity": 0.3937007874015748,
          "duration": 0.20000000000000284
        },
        {
          "name": "F3",
          "midi": 53,
          "time": 38.800000000000246,
          "velocity": 0.3937007874015748,
          "duration": 0.10000000000000142
        },
        {
          "name": "F#3",
          "midi": 54,
          "time": 38.90000000000025,
          "velocity": 0.3937007874015748,
          "duration": 0.10000000000000142
        },
        {
          "name": "A#3",
          "midi": 58,
          "time": 39.00000000000025,
          "velocity": 0.3937007874015748,
          "duration": 0.20000000000000284
        },
        {
          "name": "D#4",
          "midi": 63,
          "time": 39.00000000000025,
          "velocity": 0.3937007874015748,
          "duration": 0.20000000000000284
        },
        {
          "name": "F#3",
          "midi": 54,
          "time": 39.20000000000025,
          "velocity": 0.3937007874015748,
          "duration": 0.7999999999999972
        },
        {
          "name": "A#3",
          "midi": 58,
          "time": 39.20000000000025,
          "velocity": 0.3937007874015748,
          "duration": 0.7999999999999972
        },
        {
          "name": "D#4",
          "midi": 63,
          "time": 40.00000000000025,
          "velocity": 0.3937007874015748,
          "duration": 0.10000000000000142
        },
        {
          "name": "F#4",
          "midi": 66,
          "time": 40.00000000000025,
          "velocity": 0.3937007874015748,
          "duration": 0.10000000000000142
        },
        {
          "name": "F#3",
          "midi": 54,
          "time": 40.10000000000025,
          "velocity": 0.3937007874015748,
          "duration": 0.10000000000000142
        },
        {
          "name": "F4",
          "midi": 65,
          "time": 40.20000000000025,
          "velocity": 0.3937007874015748,
          "duration": 0.10000000000000142
        },
        {
          "name": "D#4",
          "midi": 63,
          "time": 40.30000000000025,
          "velocity": 0.3937007874015748,
          "duration": 0.10000000000000142
        },
        {
          "name": "C#4",
          "midi": 61,
          "time": 40.400000000000254,
          "velocity": 0.3937007874015748,
          "duration": 0.10000000000000142
        },
        {
          "name": "A#3",
          "midi": 58,
          "time": 40.500000000000256,
          "velocity": 0.3937007874015748,
          "duration": 0.10000000000000142
        },
        {
          "name": "C#4",
          "midi": 61,
          "time": 40.60000000000026,
          "velocity": 0.3937007874015748,
          "duration": 0.10000000000000142
        },
        {
          "name": "D#4",
          "midi": 63,
          "time": 40.70000000000026,
          "velocity": 0.3937007874015748,
          "duration": 0.10000000000000142
        },
        {
          "name": "F4",
          "midi": 65,
          "time": 40.80000000000026,
          "velocity": 0.3937007874015748,
          "duration": 0.20000000000000284
        },
        {
          "name": "G#3",
          "midi": 56,
          "time": 40.80000000000026,
          "velocity": 0.3937007874015748,
          "duration": 0.20000000000000284
        },
        {
          "name": "F#4",
          "midi": 66,
          "time": 41.00000000000026,
          "velocity": 0.3937007874015748,
          "duration": 0.20000000000000284
        },
        {
          "name": "G#3",
          "midi": 56,
          "time": 41.00000000000026,
          "velocity": 0.3937007874015748,
          "duration": 0.20000000000000284
        },
        {
          "name": "F4",
          "midi": 65,
          "time": 41.200000000000266,
          "velocity": 0.3937007874015748,
          "duration": 0.20000000000000284
        },
        {
          "name": "A#4",
          "midi": 70,
          "time": 41.200000000000266,
          "velocity": 0.3937007874015748,
          "duration": 0.20000000000000284
        },
        {
          "name": "C#4",
          "midi": 61,
          "time": 41.40000000000027,
          "velocity": 0.3937007874015748,
          "duration": 0.20000000000000284
        },
        {
          "name": "F3",
          "midi": 53,
          "time": 41.40000000000027,
          "velocity": 0.3937007874015748,
          "duration": 0.20000000000000284
        },
        {
          "name": "B3",
          "midi": 59,
          "time": 41.60000000000027,
          "velocity": 0.3937007874015748,
          "duration": 0.6000000000000014
        },
        {
          "name": "D#4",
          "midi": 63,
          "time": 41.60000000000027,
          "velocity": 0.3937007874015748,
          "duration": 0.6000000000000014
        },
        {
          "name": "A#4",
          "midi": 70,
          "time": 42.20000000000027,
          "velocity": 0.3937007874015748,
          "duration": 0.20000000000000284
        },
        {
          "name": "A#3",
          "midi": 58,
          "time": 42.20000000000027,
          "velocity": 0.3937007874015748,
          "duration": 0.20000000000000284
        },
        {
          "name": "B3",
          "midi": 59,
          "time": 42.400000000000276,
          "velocity": 0.3937007874015748,
          "duration": 0.6000000000000014
        },
        {
          "name": "D#4",
          "midi": 63,
          "time": 42.400000000000276,
          "velocity": 0.3937007874015748,
          "duration": 0.6000000000000014
        },
        {
          "name": "D#4",
          "midi": 63,
          "time": 43.00000000000028,
          "velocity": 0.3937007874015748,
          "duration": 0.10000000000000142
        },
        {
          "name": "F4",
          "midi": 65,
          "time": 43.10000000000028,
          "velocity": 0.3937007874015748,
          "duration": 0.10000000000000142
        },
        {
          "name": "F#4",
          "midi": 66,
          "time": 43.20000000000028,
          "velocity": 0.3937007874015748,
          "duration": 0.10000000000000142
        },
        {
          "name": "A#3",
          "midi": 58,
          "time": 43.30000000000028,
          "velocity": 0.3937007874015748,
          "duration": 0.10000000000000142
        },
        {
          "name": "F4",
          "midi": 65,
          "time": 43.40000000000028,
          "velocity": 0.3937007874015748,
          "duration": 0.10000000000000142
        },
        {
          "name": "A#3",
          "midi": 58,
          "time": 43.500000000000284,
          "velocity": 0.3937007874015748,
          "duration": 0.10000000000000142
        },
        {
          "name": "D#4",
          "midi": 63,
          "time": 43.600000000000286,
          "velocity": 0.3937007874015748,
          "duration": 0.10000000000000142
        },
        {
          "name": "G#3",
          "midi": 56,
          "time": 43.70000000000029,
          "velocity": 0.3937007874015748,
          "duration": 0.10000000000000142
        },
        {
          "name": "C#4",
          "midi": 61,
          "time": 43.80000000000029,
          "velocity": 0.3937007874015748,
          "duration": 0.10000000000000142
        },
        {
          "name": "F3",
          "midi": 53,
          "time": 43.90000000000029,
          "velocity": 0.3937007874015748,
          "duration": 0.10000000000000142
        },
        {
          "name": "F#3",
          "midi": 54,
          "time": 44.00000000000029,
          "velocity": 0.3937007874015748,
          "duration": 0.10000000000000142
        },
        {
          "name": "G#3",
          "midi": 56,
          "time": 44.10000000000029,
          "velocity": 0.3937007874015748,
          "duration": 0.10000000000000142
        },
        {
          "name": "A#3",
          "midi": 58,
          "time": 44.200000000000294,
          "velocity": 0.3937007874015748,
          "duration": 0.10000000000000142
        },
        {
          "name": "D#3",
          "midi": 51,
          "time": 44.300000000000296,
          "velocity": 0.3937007874015748,
          "duration": 0.10000000000000142
        },
        {
          "name": "G#3",
          "midi": 56,
          "time": 44.4000000000003,
          "velocity": 0.3937007874015748,
          "duration": 0.10000000000000142
        },
        {
          "name": "A#3",
          "midi": 58,
          "time": 44.5000000000003,
          "velocity": 0.3937007874015748,
          "duration": 0.10000000000000142
        },
        {
          "name": "F3",
          "midi": 53,
          "time": 44.6000000000003,
          "velocity": 0.3937007874015748,
          "duration": 0.10000000000000142
        },
        {
          "name": "C#4",
          "midi": 61,
          "time": 44.7000000000003,
          "velocity": 0.3937007874015748,
          "duration": 0.10000000000000142
        },
        {
          "name": "D#4",
          "midi": 63,
          "time": 44.8000000000003,
          "velocity": 0.3937007874015748,
          "duration": 0.6000000000000014
        },
        {
          "name": "F#4",
          "midi": 66,
          "time": 44.8000000000003,
          "velocity": 0.3937007874015748,
          "duration": 0.6000000000000014
        },
        {
          "name": "A#4",
          "midi": 70,
          "time": 45.400000000000304,
          "velocity": 0.3937007874015748,
          "duration": 0.20000000000000284
        },
        {
          "name": "F#4",
          "midi": 66,
          "time": 45.400000000000304,
          "velocity": 0.3937007874015748,
          "duration": 0.20000000000000284
        },
        {
          "name": "D#4",
          "midi": 63,
          "time": 45.60000000000031,
          "velocity": 0.3937007874015748,
          "duration": 0.7999999999999972
        },
        {
          "name": "F#4",
          "midi": 66,
          "time": 45.60000000000031,
          "velocity": 0.3937007874015748,
          "duration": 0.7999999999999972
        },
        {
          "name": "F#4",
          "midi": 66,
          "time": 46.400000000000304,
          "velocity": 0.3937007874015748,
          "duration": 0.6000000000000014
        },
        {
          "name": "D#5",
          "midi": 75,
          "time": 46.400000000000304,
          "velocity": 0.3937007874015748,
          "duration": 0.6000000000000014
        },
        {
          "name": "G#4",
          "midi": 68,
          "time": 47.000000000000306,
          "velocity": 0.3937007874015748,
          "duration": 0.10000000000000142
        },
        {
          "name": "A#4",
          "midi": 70,
          "time": 47.10000000000031,
          "velocity": 0.3937007874015748,
          "duration": 0.10000000000000142
        },
        {
          "name": "F4",
          "midi": 65,
          "time": 47.20000000000031,
          "velocity": 0.3937007874015748,
          "duration": 0.20000000000000284
        },
        {
          "name": "C#4",
          "midi": 61,
          "time": 47.20000000000031,
          "velocity": 0.3937007874015748,
          "duration": 0.20000000000000284
        },
        {
          "name": "F4",
          "midi": 65,
          "time": 47.40000000000031,
          "velocity": 0.3937007874015748,
          "duration": 0.20000000000000284
        },
        {
          "name": "G#4",
          "midi": 68,
          "time": 47.40000000000031,
          "velocity": 0.3937007874015748,
          "duration": 0.20000000000000284
        },
        {
          "name": "C#4",
          "midi": 61,
          "time": 47.600000000000314,
          "velocity": 0.3937007874015748,
          "duration": 0.20000000000000284
        },
        {
          "name": "F4",
          "midi": 65,
          "time": 47.600000000000314,
          "velocity": 0.3937007874015748,
          "duration": 0.20000000000000284
        },
        {
          "name": "F4",
          "midi": 65,
          "time": 47.80000000000032,
          "velocity": 0.3937007874015748,
          "duration": 0.20000000000000284
        },
        {
          "name": "G#4",
          "midi": 68,
          "time": 47.80000000000032,
          "velocity": 0.3937007874015748,
          "duration": 0.20000000000000284
        },
        {
          "name": "D#4",
          "midi": 63,
          "time": 48.00000000000032,
          "velocity": 0.3937007874015748,
          "duration": 0.6000000000000014
        },
        {
          "name": "F#4",
          "midi": 66,
          "time": 48.00000000000032,
          "velocity": 0.3937007874015748,
          "duration": 0.6000000000000014
        },
        {
          "name": "A#4",
          "midi": 70,
          "time": 48.60000000000032,
          "velocity": 0.3937007874015748,
          "duration": 0.20000000000000284
        },
        {
          "name": "F#4",
          "midi": 66,
          "time": 48.60000000000032,
          "velocity": 0.3937007874015748,
          "duration": 0.20000000000000284
        },
        {
          "name": "D#4",
          "midi": 63,
          "time": 48.800000000000324,
          "velocity": 0.3937007874015748,
          "duration": 0.7999999999999972
        },
        {
          "name": "F#4",
          "midi": 66,
          "time": 48.800000000000324,
          "velocity": 0.3937007874015748,
          "duration": 0.7999999999999972
        },
        {
          "name": "B4",
          "midi": 71,
          "time": 49.60000000000032,
          "velocity": 0.3937007874015748,
          "duration": 0.6000000000000085
        },
        {
          "name": "D#5",
          "midi": 75,
          "time": 49.60000000000032,
          "velocity": 0.3937007874015748,
          "duration": 0.6000000000000085
        },
        {
          "name": "F#4",
          "midi": 66,
          "time": 49.60000000000032,
          "velocity": 0.3937007874015748,
          "duration": 0.20000000000000284
        },
        {
          "name": "A#3",
          "midi": 58,
          "time": 49.800000000000324,
          "velocity": 0.3937007874015748,
          "duration": 0.10000000000000142
        },
        {
          "name": "F3",
          "midi": 53,
          "time": 49.900000000000325,
          "velocity": 0.3937007874015748,
          "duration": 0.10000000000000142
        },
        {
          "name": "F#3",
          "midi": 54,
          "time": 50.00000000000033,
          "velocity": 0.3937007874015748,
          "duration": 0.10000000000000142
        },
        {
          "name": "G#3",
          "midi": 56,
          "time": 50.10000000000033,
          "velocity": 0.3937007874015748,
          "duration": 0.10000000000000142
        },
        {
          "name": "F3",
          "midi": 53,
          "time": 50.20000000000033,
          "velocity": 0.3937007874015748,
          "duration": 0.10000000000000142
        },
        {
          "name": "F#3",
          "midi": 54,
          "time": 50.30000000000033,
          "velocity": 0.3937007874015748,
          "duration": 0.10000000000000142
        },
        {
          "name": "D#3",
          "midi": 51,
          "time": 50.40000000000033,
          "velocity": 0.3937007874015748,
          "duration": 0.10000000000000142
        },
        {
          "name": "F3",
          "midi": 53,
          "time": 50.500000000000334,
          "velocity": 0.3937007874015748,
          "duration": 0.10000000000000142
        },
        {
          "name": "C#3",
          "midi": 49,
          "time": 50.600000000000335,
          "velocity": 0.3937007874015748,
          "duration": 0.10000000000000142
        },
        {
          "name": "D#3",
          "midi": 51,
          "time": 50.70000000000034,
          "velocity": 0.3937007874015748,
          "duration": 0.10000000000000142
        },
        {
          "name": "A#2",
          "midi": 46,
          "time": 50.80000000000034,
          "velocity": 0.3937007874015748,
          "duration": 0.10000000000000142
        },
        {
          "name": "C#3",
          "midi": 49,
          "time": 50.90000000000034,
          "velocity": 0.3937007874015748,
          "duration": 0.10000000000000142
        },
        {
          "name": "G#2",
          "midi": 44,
          "time": 51.00000000000034,
          "velocity": 0.3937007874015748,
          "duration": 0.20000000000000284
        },
        {
          "name": "D#4",
          "midi": 63,
          "time": 51.200000000000344,
          "velocity": 0.3937007874015748,
          "duration": 0.20000000000000284
        },
        {
          "name": "F#4",
          "midi": 66,
          "time": 51.200000000000344,
          "velocity": 0.3937007874015748,
          "duration": 0.6000000000000085
        },
        {
          "name": "A#3",
          "midi": 58,
          "time": 51.40000000000035,
          "velocity": 0.3937007874015748,
          "duration": 0.10000000000000142
        },
        {
          "name": "D#4",
          "midi": 63,
          "time": 51.50000000000035,
          "velocity": 0.3937007874015748,
          "duration": 0.10000000000000142
        },
        {
          "name": "F4",
          "midi": 65,
          "time": 51.60000000000035,
          "velocity": 0.3937007874015748,
          "duration": 0.10000000000000142
        },
        {
          "name": "A#4",
          "midi": 70,
          "time": 51.70000000000035,
          "velocity": 0.3937007874015748,
          "duration": 0.10000000000000142
        },
        {
          "name": "F4",
          "midi": 65,
          "time": 51.80000000000035,
          "velocity": 0.3937007874015748,
          "duration": 0.20000000000000284
        },
        {
          "name": "F#4",
          "midi": 66,
          "time": 52.000000000000355,
          "velocity": 0.3937007874015748,
          "duration": 0.7999999999999972
        },
        {
          "name": "F#5",
          "midi": 78,
          "time": 52.80000000000035,
          "velocity": 0.3937007874015748,
          "duration": 0.10000000000000142
        },
        {
          "name": "D#5",
          "midi": 75,
          "time": 52.80000000000035,
          "velocity": 0.3937007874015748,
          "duration": 0.10000000000000142
        },
        {
          "name": "A#3",
          "midi": 58,
          "time": 52.900000000000354,
          "velocity": 0.3937007874015748,
          "duration": 0.10000000000000142
        },
        {
          "name": "F4",
          "midi": 65,
          "time": 53.000000000000355,
          "velocity": 0.3937007874015748,
          "duration": 0.10000000000000142
        },
        {
          "name": "D#4",
          "midi": 63,
          "time": 53.10000000000036,
          "velocity": 0.3937007874015748,
          "duration": 0.10000000000000142
        },
        {
          "name": "C#4",
          "midi": 61,
          "time": 53.20000000000036,
          "velocity": 0.3937007874015748,
          "duration": 0.10000000000000142
        },
        {
          "name": "A#3",
          "midi": 58,
          "time": 53.30000000000036,
          "velocity": 0.3937007874015748,
          "duration": 0.10000000000000142
        },
        {
          "name": "C#4",
          "midi": 61,
          "time": 53.40000000000036,
          "velocity": 0.3937007874015748,
          "duration": 0.10000000000000142
        },
        {
          "name": "D#4",
          "midi": 63,
          "time": 53.50000000000036,
          "velocity": 0.3937007874015748,
          "duration": 0.10000000000000142
        },
        {
          "name": "F5",
          "midi": 77,
          "time": 53.600000000000364,
          "velocity": 0.3937007874015748,
          "duration": 0.20000000000000284
        },
        {
          "name": "G#4",
          "midi": 68,
          "time": 53.600000000000364,
          "velocity": 0.3937007874015748,
          "duration": 0.20000000000000284
        },
        {
          "name": "F#5",
          "midi": 78,
          "time": 53.80000000000037,
          "velocity": 0.3937007874015748,
          "duration": 0.20000000000000284
        },
        {
          "name": "G#4",
          "midi": 68,
          "time": 53.80000000000037,
          "velocity": 0.3937007874015748,
          "duration": 0.20000000000000284
        },
        {
          "name": "A#5",
          "midi": 82,
          "time": 54.00000000000037,
          "velocity": 0.3937007874015748,
          "duration": 0.20000000000000284
        },
        {
          "name": "F5",
          "midi": 77,
          "time": 54.00000000000037,
          "velocity": 0.3937007874015748,
          "duration": 0.20000000000000284
        },
        {
          "name": "C#4",
          "midi": 61,
          "time": 54.20000000000037,
          "velocity": 0.3937007874015748,
          "duration": 0.20000000000000284
        },
        {
          "name": "F3",
          "midi": 53,
          "time": 54.20000000000037,
          "velocity": 0.3937007874015748,
          "duration": 0.20000000000000284
        },
        {
          "name": "B4",
          "midi": 71,
          "time": 54.400000000000375,
          "velocity": 0.3937007874015748,
          "duration": 0.6000000000000014
        },
        {
          "name": "D#5",
          "midi": 75,
          "time": 54.400000000000375,
          "velocity": 0.3937007874015748,
          "duration": 0.6000000000000014
        },
        {
          "name": "A#4",
          "midi": 70,
          "time": 55.00000000000038,
          "velocity": 0.3937007874015748,
          "duration": 0.20000000000000284
        },
        {
          "name": "A#5",
          "midi": 82,
          "time": 55.00000000000038,
          "velocity": 0.3937007874015748,
          "duration": 0.20000000000000284
        },
        {
          "name": "B4",
          "midi": 71,
          "time": 55.20000000000038,
          "velocity": 0.3937007874015748,
          "duration": 0.6000000000000014
        },
        {
          "name": "D#5",
          "midi": 75,
          "time": 55.20000000000038,
          "velocity": 0.3937007874015748,
          "duration": 0.6000000000000014
        },
        {
          "name": "D#4",
          "midi": 63,
          "time": 55.80000000000038,
          "velocity": 0.3937007874015748,
          "duration": 0.10000000000000142
        },
        {
          "name": "F4",
          "midi": 65,
          "time": 55.90000000000038,
          "velocity": 0.3937007874015748,
          "duration": 0.10000000000000142
        },
        {
          "name": "F#4",
          "midi": 66,
          "time": 56.000000000000384,
          "velocity": 0.3937007874015748,
          "duration": 0.10000000000000142
        },
        {
          "name": "A#3",
          "midi": 58,
          "time": 56.100000000000385,
          "velocity": 0.3937007874015748,
          "duration": 0.10000000000000142
        },
        {
          "name": "F4",
          "midi": 65,
          "time": 56.20000000000039,
          "velocity": 0.3937007874015748,
          "duration": 0.10000000000000142
        },
        {
          "name": "A#3",
          "midi": 58,
          "time": 56.30000000000039,
          "velocity": 0.3937007874015748,
          "duration": 0.10000000000000142
        },
        {
          "name": "D#4",
          "midi": 63,
          "time": 56.40000000000039,
          "velocity": 0.3937007874015748,
          "duration": 0.10000000000000142
        },
        {
          "name": "G#3",
          "midi": 56,
          "time": 56.50000000000039,
          "velocity": 0.3937007874015748,
          "duration": 0.10000000000000142
        },
        {
          "name": "C#4",
          "midi": 61,
          "time": 56.60000000000039,
          "velocity": 0.3937007874015748,
          "duration": 0.10000000000000142
        },
        {
          "name": "F3",
          "midi": 53,
          "time": 56.700000000000394,
          "velocity": 0.3937007874015748,
          "duration": 0.10000000000000142
        },
        {
          "name": "F#3",
          "midi": 54,
          "time": 56.800000000000395,
          "velocity": 0.3937007874015748,
          "duration": 0.10000000000000142
        },
        {
          "name": "G#3",
          "midi": 56,
          "time": 56.9000000000004,
          "velocity": 0.3937007874015748,
          "duration": 0.10000000000000142
        },
        {
          "name": "A#3",
          "midi": 58,
          "time": 57.0000000000004,
          "velocity": 0.3937007874015748,
          "duration": 0.10000000000000142
        },
        {
          "name": "D#3",
          "midi": 51,
          "time": 57.1000000000004,
          "velocity": 0.3937007874015748,
          "duration": 0.10000000000000142
        },
        {
          "name": "G#3",
          "midi": 56,
          "time": 57.2000000000004,
          "velocity": 0.3937007874015748,
          "duration": 0.10000000000000142
        },
        {
          "name": "A#3",
          "midi": 58,
          "time": 57.3000000000004,
          "velocity": 0.3937007874015748,
          "duration": 0.10000000000000142
        },
        {
          "name": "F3",
          "midi": 53,
          "time": 57.400000000000404,
          "velocity": 0.3937007874015748,
          "duration": 0.10000000000000142
        },
        {
          "name": "C#4",
          "midi": 61,
          "time": 57.500000000000405,
          "velocity": 0.3937007874015748,
          "duration": 0.10000000000000142
        },
        {
          "name": "F#3",
          "midi": 54,
          "time": 57.600000000000406,
          "velocity": 0.3937007874015748,
          "duration": 0.6000000000000014
        },
        {
          "name": "A#3",
          "midi": 58,
          "time": 57.600000000000406,
          "velocity": 0.3937007874015748,
          "duration": 0.6000000000000014
        },
        {
          "name": "D#4",
          "midi": 63,
          "time": 58.20000000000041,
          "velocity": 0.3937007874015748,
          "duration": 0.20000000000000284
        },
        {
          "name": "F3",
          "midi": 53,
          "time": 58.20000000000041,
          "velocity": 0.3937007874015748,
          "duration": 0.20000000000000284
        },
        {
          "name": "F#3",
          "midi": 54,
          "time": 58.40000000000041,
          "velocity": 0.3937007874015748,
          "duration": 0.7999999999999972
        },
        {
          "name": "A#3",
          "midi": 58,
          "time": 58.40000000000041,
          "velocity": 0.3937007874015748,
          "duration": 0.7999999999999972
        },
        {
          "name": "A#3",
          "midi": 58,
          "time": 59.20000000000041,
          "velocity": 0.3937007874015748,
          "duration": 0.6000000000000014
        },
        {
          "name": "F#4",
          "midi": 66,
          "time": 59.20000000000041,
          "velocity": 0.3937007874015748,
          "duration": 0.6000000000000014
        },
        {
          "name": "C#4",
          "midi": 61,
          "time": 59.80000000000041,
          "velocity": 0.3937007874015748,
          "duration": 0.10000000000000142
        },
        {
          "name": "D#4",
          "midi": 63,
          "time": 59.90000000000041,
          "velocity": 0.3937007874015748,
          "duration": 0.10000000000000142
        },
        {
          "name": "F4",
          "midi": 65,
          "time": 60.00000000000041,
          "velocity": 0.3937007874015748,
          "duration": 0.20000000000000284
        },
        {
          "name": "G#3",
          "midi": 56,
          "time": 60.00000000000041,
          "velocity": 0.3937007874015748,
          "duration": 0.20000000000000284
        },
        {
          "name": "F#4",
          "midi": 66,
          "time": 60.200000000000415,
          "velocity": 0.3937007874015748,
          "duration": 0.20000000000000284
        },
        {
          "name": "G#3",
          "midi": 56,
          "time": 60.200000000000415,
          "velocity": 0.3937007874015748,
          "duration": 0.20000000000000284
        },
        {
          "name": "C#4",
          "midi": 61,
          "time": 60.40000000000042,
          "velocity": 0.3937007874015748,
          "duration": 0.20000000000000284
        },
        {
          "name": "F3",
          "midi": 53,
          "time": 60.40000000000042,
          "velocity": 0.3937007874015748,
          "duration": 0.20000000000000284
        },
        {
          "name": "D#4",
          "midi": 63,
          "time": 60.60000000000042,
          "velocity": 0.3937007874015748,
          "duration": 0.20000000000000284
        },
        {
          "name": "F3",
          "midi": 53,
          "time": 60.60000000000042,
          "velocity": 0.3937007874015748,
          "duration": 0.20000000000000284
        },
        {
          "name": "F#3",
          "midi": 54,
          "time": 60.80000000000042,
          "velocity": 0.3937007874015748,
          "duration": 0.6000000000000014
        },
        {
          "name": "A#3",
          "midi": 58,
          "time": 60.80000000000042,
          "velocity": 0.3937007874015748,
          "duration": 0.6000000000000014
        },
        {
          "name": "D#4",
          "midi": 63,
          "time": 61.400000000000425,
          "velocity": 0.3937007874015748,
          "duration": 0.20000000000000284
        },
        {
          "name": "F3",
          "midi": 53,
          "time": 61.400000000000425,
          "velocity": 0.3937007874015748,
          "duration": 0.20000000000000284
        },
        {
          "name": "F#3",
          "midi": 54,
          "time": 61.60000000000043,
          "velocity": 0.3937007874015748,
          "duration": 0.7999999999999972
        },
        {
          "name": "A#3",
          "midi": 58,
          "time": 61.60000000000043,
          "velocity": 0.3937007874015748,
          "duration": 0.7999999999999972
        },
        {
          "name": "A#3",
          "midi": 58,
          "time": 62.400000000000425,
          "velocity": 0.3937007874015748,
          "duration": 0.7999999999999972
        },
        {
          "name": "F#4",
          "midi": 66,
          "time": 62.400000000000425,
          "velocity": 0.3937007874015748,
          "duration": 0.7999999999999972
        },
        {
          "name": "A#3",
          "midi": 58,
          "time": 63.400000000000425,
          "velocity": 0.3937007874015748,
          "duration": 0.20000000000000284
        },
        {
          "name": "C#4",
          "midi": 61,
          "time": 63.400000000000425,
          "velocity": 0.3937007874015748,
          "duration": 0.20000000000000284
        },
        {
          "name": "F#3",
          "midi": 54,
          "time": 63.60000000000043,
          "velocity": 0.3937007874015748,
          "duration": 0.20000000000000284
        },
        {
          "name": "C#3",
          "midi": 49,
          "time": 63.60000000000043,
          "velocity": 0.3937007874015748,
          "duration": 0.20000000000000284
        },
        {
          "name": "G#3",
          "midi": 56,
          "time": 63.80000000000043,
          "velocity": 0.3937007874015748,
          "duration": 0.19999999999999574
        },
        {
          "name": "F3",
          "midi": 53,
          "time": 63.80000000000043,
          "velocity": 0.3937007874015748,
          "duration": 0.19999999999999574
        },
        {
          "name": "F#3",
          "midi": 54,
          "time": 64.00000000000043,
          "velocity": 0.3937007874015748,
          "duration": 0.5999999999999943
        },
        {
          "name": "A#3",
          "midi": 58,
          "time": 64.00000000000043,
          "velocity": 0.3937007874015748,
          "duration": 0.5999999999999943
        },
        {
          "name": "D#4",
          "midi": 63,
          "time": 64.60000000000042,
          "velocity": 0.3937007874015748,
          "duration": 0.20000000000000284
        },
        {
          "name": "F3",
          "midi": 53,
          "time": 64.60000000000042,
          "velocity": 0.3937007874015748,
          "duration": 0.20000000000000284
        },
        {
          "name": "F#3",
          "midi": 54,
          "time": 64.80000000000042,
          "velocity": 0.3937007874015748,
          "duration": 0.7999999999999972
        },
        {
          "name": "A#3",
          "midi": 58,
          "time": 64.80000000000042,
          "velocity": 0.3937007874015748,
          "duration": 0.7999999999999972
        },
        {
          "name": "A#3",
          "midi": 58,
          "time": 65.60000000000042,
          "velocity": 0.3937007874015748,
          "duration": 0.5999999999999943
        },
        {
          "name": "F#4",
          "midi": 66,
          "time": 65.60000000000042,
          "velocity": 0.3937007874015748,
          "duration": 0.5999999999999943
        },
        {
          "name": "C#4",
          "midi": 61,
          "time": 66.20000000000041,
          "velocity": 0.3937007874015748,
          "duration": 0.09999999999999432
        },
        {
          "name": "D#4",
          "midi": 63,
          "time": 66.30000000000041,
          "velocity": 0.3937007874015748,
          "duration": 0.09999999999999432
        },
        {
          "name": "F4",
          "midi": 65,
          "time": 66.4000000000004,
          "velocity": 0.3937007874015748,
          "duration": 0.20000000000000284
        },
        {
          "name": "G#3",
          "midi": 56,
          "time": 66.4000000000004,
          "velocity": 0.3937007874015748,
          "duration": 0.20000000000000284
        },
        {
          "name": "F#4",
          "midi": 66,
          "time": 66.6000000000004,
          "velocity": 0.3937007874015748,
          "duration": 0.20000000000000284
        },
        {
          "name": "G#3",
          "midi": 56,
          "time": 66.6000000000004,
          "velocity": 0.3937007874015748,
          "duration": 0.20000000000000284
        },
        {
          "name": "A#4",
          "midi": 70,
          "time": 66.80000000000041,
          "velocity": 0.3937007874015748,
          "duration": 0.20000000000000284
        },
        {
          "name": "F4",
          "midi": 65,
          "time": 66.80000000000041,
          "velocity": 0.3937007874015748,
          "duration": 0.20000000000000284
        },
        {
          "name": "C#4",
          "midi": 61,
          "time": 67.00000000000041,
          "velocity": 0.3937007874015748,
          "duration": 0.20000000000000284
        },
        {
          "name": "F3",
          "midi": 53,
          "time": 67.00000000000041,
          "velocity": 0.3937007874015748,
          "duration": 0.20000000000000284
        },
        {
          "name": "D#4",
          "midi": 63,
          "time": 67.20000000000041,
          "velocity": 0.3937007874015748,
          "duration": 0.5999999999999943
        },
        {
          "name": "B3",
          "midi": 59,
          "time": 67.20000000000041,
          "velocity": 0.3937007874015748,
          "duration": 0.5999999999999943
        },
        {
          "name": "A#4",
          "midi": 70,
          "time": 67.80000000000041,
          "velocity": 0.3937007874015748,
          "duration": 0.20000000000000284
        },
        {
          "name": "A#3",
          "midi": 58,
          "time": 67.80000000000041,
          "velocity": 0.3937007874015748,
          "duration": 0.20000000000000284
        },
        {
          "name": "B3",
          "midi": 59,
          "time": 68.00000000000041,
          "velocity": 0.3937007874015748,
          "duration": 1
        },
        {
          "name": "D#4",
          "midi": 63,
          "time": 68.00000000000041,
          "velocity": 0.3937007874015748,
          "duration": 1
        },
        {
          "name": "F#3",
          "midi": 54,
          "time": 69.00000000000041,
          "velocity": 0.3937007874015748,
          "duration": 0.20000000000000284
        },
        {
          "name": "G#3",
          "midi": 56,
          "time": 69.20000000000041,
          "velocity": 0.3937007874015748,
          "duration": 0.5999999999999943
        },
        {
          "name": "C#4",
          "midi": 61,
          "time": 69.20000000000041,
          "velocity": 0.3937007874015748,
          "duration": 0.5999999999999943
        },
        {
          "name": "C#4",
          "midi": 61,
          "time": 69.80000000000041,
          "velocity": 0.3937007874015748,
          "duration": 0.20000000000000284
        },
        {
          "name": "F#4",
          "midi": 66,
          "time": 69.80000000000041,
          "velocity": 0.3937007874015748,
          "duration": 0.20000000000000284
        },
        {
          "name": "B3",
          "midi": 59,
          "time": 70.00000000000041,
          "velocity": 0.3937007874015748,
          "duration": 0.20000000000000284
        },
        {
          "name": "C#4",
          "midi": 61,
          "time": 70.20000000000041,
          "velocity": 0.3937007874015748,
          "duration": 0.20000000000000284
        },
        {
          "name": "D#4",
          "midi": 63,
          "time": 70.40000000000042,
          "velocity": 0.3937007874015748,
          "duration": 0.5999999999999943
        },
        {
          "name": "F#4",
          "midi": 66,
          "time": 70.40000000000042,
          "velocity": 0.3937007874015748,
          "duration": 0.5999999999999943
        },
        {
          "name": "A#4",
          "midi": 70,
          "time": 71.00000000000041,
          "velocity": 0.3937007874015748,
          "duration": 0.20000000000000284
        },
        {
          "name": "A#3",
          "midi": 58,
          "time": 71.00000000000041,
          "velocity": 0.3937007874015748,
          "duration": 0.20000000000000284
        },
        {
          "name": "D#4",
          "midi": 63,
          "time": 71.20000000000041,
          "velocity": 0.3937007874015748,
          "duration": 0.7999999999999972
        },
        {
          "name": "F#4",
          "midi": 66,
          "time": 71.20000000000041,
          "velocity": 0.3937007874015748,
          "duration": 0.7999999999999972
        },
        {
          "name": "F#4",
          "midi": 66,
          "time": 72.00000000000041,
          "velocity": 0.3937007874015748,
          "duration": 0.5999999999999943
        },
        {
          "name": "D#5",
          "midi": 75,
          "time": 72.00000000000041,
          "velocity": 0.3937007874015748,
          "duration": 0.5999999999999943
        },
        {
          "name": "G#4",
          "midi": 68,
          "time": 72.6000000000004,
          "velocity": 0.3937007874015748,
          "duration": 0.09999999999999432
        },
        {
          "name": "A#4",
          "midi": 70,
          "time": 72.7000000000004,
          "velocity": 0.3937007874015748,
          "duration": 0.09999999999999432
        },
        {
          "name": "F4",
          "midi": 65,
          "time": 72.8000000000004,
          "velocity": 0.3937007874015748,
          "duration": 0.20000000000000284
        },
        {
          "name": "C#5",
          "midi": 73,
          "time": 72.8000000000004,
          "velocity": 0.3937007874015748,
          "duration": 0.20000000000000284
        },
        {
          "name": "F4",
          "midi": 65,
          "time": 73.0000000000004,
          "velocity": 0.3937007874015748,
          "duration": 0.20000000000000284
        },
        {
          "name": "G#4",
          "midi": 68,
          "time": 73.0000000000004,
          "velocity": 0.3937007874015748,
          "duration": 0.20000000000000284
        },
        {
          "name": "C#4",
          "midi": 61,
          "time": 73.2000000000004,
          "velocity": 0.3937007874015748,
          "duration": 0.20000000000000284
        },
        {
          "name": "F4",
          "midi": 65,
          "time": 73.2000000000004,
          "velocity": 0.3937007874015748,
          "duration": 0.20000000000000284
        },
        {
          "name": "F4",
          "midi": 65,
          "time": 73.4000000000004,
          "velocity": 0.3937007874015748,
          "duration": 0.20000000000000284
        },
        {
          "name": "G#4",
          "midi": 68,
          "time": 73.4000000000004,
          "velocity": 0.3937007874015748,
          "duration": 0.20000000000000284
        },
        {
          "name": "D#4",
          "midi": 63,
          "time": 73.6000000000004,
          "velocity": 0.3937007874015748,
          "duration": 0.5999999999999943
        },
        {
          "name": "F#4",
          "midi": 66,
          "time": 73.6000000000004,
          "velocity": 0.3937007874015748,
          "duration": 0.5999999999999943
        },
        {
          "name": "A#4",
          "midi": 70,
          "time": 74.2000000000004,
          "velocity": 0.3937007874015748,
          "duration": 0.20000000000000284
        },
        {
          "name": "A#3",
          "midi": 58,
          "time": 74.2000000000004,
          "velocity": 0.3937007874015748,
          "duration": 0.20000000000000284
        },
        {
          "name": "D#4",
          "midi": 63,
          "time": 74.4000000000004,
          "velocity": 0.3937007874015748,
          "duration": 0.7999999999999972
        },
        {
          "name": "F#4",
          "midi": 66,
          "time": 74.4000000000004,
          "velocity": 0.3937007874015748,
          "duration": 0.7999999999999972
        },
        {
          "name": "F#4",
          "midi": 66,
          "time": 75.2000000000004,
          "velocity": 0.3937007874015748,
          "duration": 0.9000000000000057
        },
        {
          "name": "D#5",
          "midi": 75,
          "time": 75.2000000000004,
          "velocity": 0.3937007874015748,
          "duration": 0.9000000000000057
        },
        {
          "name": "G#4",
          "midi": 68,
          "time": 76.1000000000004,
          "velocity": 0.3937007874015748,
          "duration": 0.09999999999999432
        },
        {
          "name": "F#4",
          "midi": 66,
          "time": 76.2000000000004,
          "velocity": 0.3937007874015748,
          "duration": 0.09999999999999432
        },
        {
          "name": "C#4",
          "midi": 61,
          "time": 76.3000000000004,
          "velocity": 0.3937007874015748,
          "duration": 0.09999999999999432
        },
        {
          "name": "B3",
          "midi": 59,
          "time": 76.40000000000039,
          "velocity": 0.3937007874015748,
          "duration": 0.09999999999999432
        },
        {
          "name": "F#4",
          "midi": 66,
          "time": 76.50000000000038,
          "velocity": 0.3937007874015748,
          "duration": 0.09999999999999432
        },
        {
          "name": "A#3",
          "midi": 58,
          "time": 76.60000000000038,
          "velocity": 0.3937007874015748,
          "duration": 0.09999999999999432
        },
        {
          "name": "G#3",
          "midi": 56,
          "time": 76.70000000000037,
          "velocity": 0.3937007874015748,
          "duration": 0.09999999999999432
        },
        {
          "name": "D#4",
          "midi": 63,
          "time": 76.80000000000037,
          "velocity": 0.3937007874015748,
          "duration": 0.5999999999999943
        },
        {
          "name": "F#4",
          "midi": 66,
          "time": 76.80000000000037,
          "velocity": 0.3937007874015748,
          "duration": 0.5999999999999943
        },
        {
          "name": "A#4",
          "midi": 70,
          "time": 77.40000000000036,
          "velocity": 0.3937007874015748,
          "duration": 0.20000000000000284
        },
        {
          "name": "A#3",
          "midi": 58,
          "time": 77.40000000000036,
          "velocity": 0.3937007874015748,
          "duration": 0.20000000000000284
        },
        {
          "name": "D#4",
          "midi": 63,
          "time": 77.60000000000036,
          "velocity": 0.3937007874015748,
          "duration": 0.7999999999999972
        },
        {
          "name": "F#4",
          "midi": 66,
          "time": 77.60000000000036,
          "velocity": 0.3937007874015748,
          "duration": 0.7999999999999972
        },
        {
          "name": "F#4",
          "midi": 66,
          "time": 78.40000000000036,
          "velocity": 0.3937007874015748,
          "duration": 0.5999999999999943
        },
        {
          "name": "D#5",
          "midi": 75,
          "time": 78.40000000000036,
          "velocity": 0.3937007874015748,
          "duration": 0.5999999999999943
        },
        {
          "name": "C#4",
          "midi": 61,
          "time": 79.00000000000036,
          "velocity": 0.3937007874015748,
          "duration": 0.09999999999999432
        },
        {
          "name": "D#4",
          "midi": 63,
          "time": 79.10000000000035,
          "velocity": 0.3937007874015748,
          "duration": 0.09999999999999432
        },
        {
          "name": "G#3",
          "midi": 56,
          "time": 79.20000000000034,
          "velocity": 0.3937007874015748,
          "duration": 0.20000000000000284
        },
        {
          "name": "F4",
          "midi": 65,
          "time": 79.20000000000034,
          "velocity": 0.3937007874015748,
          "duration": 0.20000000000000284
        },
        {
          "name": "G#3",
          "midi": 56,
          "time": 79.40000000000035,
          "velocity": 0.3937007874015748,
          "duration": 0.20000000000000284
        },
        {
          "name": "F#4",
          "midi": 66,
          "time": 79.40000000000035,
          "velocity": 0.3937007874015748,
          "duration": 0.20000000000000284
        },
        {
          "name": "F4",
          "midi": 65,
          "time": 79.60000000000035,
          "velocity": 0.3937007874015748,
          "duration": 0.20000000000000284
        },
        {
          "name": "A#4",
          "midi": 70,
          "time": 79.60000000000035,
          "velocity": 0.3937007874015748,
          "duration": 0.20000000000000284
        },
        {
          "name": "G#3",
          "midi": 56,
          "time": 79.80000000000035,
          "velocity": 0.3937007874015748,
          "duration": 0.20000000000000284
        },
        {
          "name": "C#4",
          "midi": 61,
          "time": 79.80000000000035,
          "velocity": 0.3937007874015748,
          "duration": 0.20000000000000284
        },
        {
          "name": "B3",
          "midi": 59,
          "time": 80.00000000000036,
          "velocity": 0.3937007874015748,
          "duration": 0.5999999999999943
        },
        {
          "name": "D#4",
          "midi": 63,
          "time": 80.00000000000036,
          "velocity": 0.3937007874015748,
          "duration": 0.5999999999999943
        },
        {
          "name": "A#4",
          "midi": 70,
          "time": 80.60000000000035,
          "velocity": 0.3937007874015748,
          "duration": 0.20000000000000284
        },
        {
          "name": "A#3",
          "midi": 58,
          "time": 80.60000000000035,
          "velocity": 0.3937007874015748,
          "duration": 0.20000000000000284
        },
        {
          "name": "B3",
          "midi": 59,
          "time": 80.80000000000035,
          "velocity": 0.3937007874015748,
          "duration": 0.7999999999999972
        },
        {
          "name": "D#4",
          "midi": 63,
          "time": 80.80000000000035,
          "velocity": 0.3937007874015748,
          "duration": 0.7999999999999972
        },
        {
          "name": "A#3",
          "midi": 58,
          "time": 82.20000000000034,
          "velocity": 0.3937007874015748,
          "duration": 0.20000000000000284
        },
        {
          "name": "F#3",
          "midi": 54,
          "time": 82.40000000000035,
          "velocity": 0.3937007874015748,
          "duration": 0.7999999999999972
        },
        {
          "name": "D#3",
          "midi": 51,
          "time": 82.40000000000035,
          "velocity": 0.3937007874015748,
          "duration": 0.7999999999999972
        },
        {
          "name": "G4",
          "midi": 67,
          "time": 96.00000000000034,
          "velocity": 0.3937007874015748,
          "duration": 0.09999999999999432
        },
        {
          "name": "A4",
          "midi": 69,
          "time": 96.10000000000034,
          "velocity": 0.3937007874015748,
          "duration": 0.09999999999999432
        },
        {
          "name": "B4",
          "midi": 71,
          "time": 96.20000000000033,
          "velocity": 0.3937007874015748,
          "duration": 0.09999999999999432
        },
        {
          "name": "E5",
          "midi": 76,
          "time": 96.30000000000032,
          "velocity": 0.3937007874015748,
          "duration": 0.09999999999999432
        },
        {
          "name": "B4",
          "midi": 71,
          "time": 96.40000000000032,
          "velocity": 0.3937007874015748,
          "duration": 0.09999999999999432
        },
        {
          "name": "D5",
          "midi": 74,
          "time": 96.50000000000031,
          "velocity": 0.3937007874015748,
          "duration": 0.09999999999999432
        },
        {
          "name": "A4",
          "midi": 69,
          "time": 96.6000000000003,
          "velocity": 0.3937007874015748,
          "duration": 0.09999999999999432
        },
        {
          "name": "B4",
          "midi": 71,
          "time": 96.7000000000003,
          "velocity": 0.3937007874015748,
          "duration": 0.09999999999999432
        },
        {
          "name": "G4",
          "midi": 67,
          "time": 96.8000000000003,
          "velocity": 0.3937007874015748,
          "duration": 0.09999999999999432
        },
        {
          "name": "A4",
          "midi": 69,
          "time": 96.90000000000029,
          "velocity": 0.3937007874015748,
          "duration": 0.09999999999999432
        },
        {
          "name": "F#4",
          "midi": 66,
          "time": 97.00000000000028,
          "velocity": 0.3937007874015748,
          "duration": 0.09999999999999432
        },
        {
          "name": "G4",
          "midi": 67,
          "time": 97.10000000000028,
          "velocity": 0.3937007874015748,
          "duration": 0.09999999999999432
        },
        {
          "name": "E4",
          "midi": 64,
          "time": 97.20000000000027,
          "velocity": 0.3937007874015748,
          "duration": 0.09999999999999432
        },
        {
          "name": "F#4",
          "midi": 66,
          "time": 97.30000000000027,
          "velocity": 0.3937007874015748,
          "duration": 0.09999999999999432
        },
        {
          "name": "D4",
          "midi": 62,
          "time": 97.40000000000026,
          "velocity": 0.3937007874015748,
          "duration": 0.09999999999999432
        },
        {
          "name": "E4",
          "midi": 64,
          "time": 97.50000000000026,
          "velocity": 0.3937007874015748,
          "duration": 0.09999999999999432
        },
        {
          "name": "A3",
          "midi": 57,
          "time": 97.60000000000025,
          "velocity": 0.3937007874015748,
          "duration": 0.09999999999999432
        },
        {
          "name": "B3",
          "midi": 59,
          "time": 97.70000000000024,
          "velocity": 0.3937007874015748,
          "duration": 0.09999999999999432
        },
        {
          "name": "G3",
          "midi": 55,
          "time": 97.80000000000024,
          "velocity": 0.3937007874015748,
          "duration": 0.09999999999999432
        },
        {
          "name": "D4",
          "midi": 62,
          "time": 97.90000000000023,
          "velocity": 0.3937007874015748,
          "duration": 0.09999999999999432
        },
        {
          "name": "G4",
          "midi": 67,
          "time": 98.00000000000023,
          "velocity": 0.3937007874015748,
          "duration": 0.09999999999999432
        },
        {
          "name": "F#4",
          "midi": 66,
          "time": 98.10000000000022,
          "velocity": 0.3937007874015748,
          "duration": 0.09999999999999432
        },
        {
          "name": "D4",
          "midi": 62,
          "time": 98.20000000000022,
          "velocity": 0.3937007874015748,
          "duration": 0.09999999999999432
        },
        {
          "name": "E4",
          "midi": 64,
          "time": 98.30000000000021,
          "velocity": 0.3937007874015748,
          "duration": 0.09999999999999432
        },
        {
          "name": "B3",
          "midi": 59,
          "time": 98.4000000000002,
          "velocity": 0.3937007874015748,
          "duration": 0.09999999999999432
        },
        {
          "name": "D4",
          "midi": 62,
          "time": 98.5000000000002,
          "velocity": 0.3937007874015748,
          "duration": 0.09999999999999432
        },
        {
          "name": "E4",
          "midi": 64,
          "time": 98.6000000000002,
          "velocity": 0.3937007874015748,
          "duration": 0.09999999999999432
        },
        {
          "name": "F#4",
          "midi": 66,
          "time": 98.70000000000019,
          "velocity": 0.3937007874015748,
          "duration": 0.09999999999999432
        },
        {
          "name": "G4",
          "midi": 67,
          "time": 98.80000000000018,
          "velocity": 0.3937007874015748,
          "duration": 0.09999999999999432
        },
        {
          "name": "A4",
          "midi": 69,
          "time": 98.90000000000018,
          "velocity": 0.3937007874015748,
          "duration": 0.09999999999999432
        },
        {
          "name": "B4",
          "midi": 71,
          "time": 99.00000000000017,
          "velocity": 0.3937007874015748,
          "duration": 0.09999999999999432
        },
        {
          "name": "C5",
          "midi": 72,
          "time": 99.10000000000016,
          "velocity": 0.3937007874015748,
          "duration": 0.09999999999999432
        },
        {
          "name": "B4",
          "midi": 71,
          "time": 99.20000000000016,
          "velocity": 0.3937007874015748,
          "duration": 0.09999999999999432
        },
        {
          "name": "G4",
          "midi": 67,
          "time": 99.30000000000015,
          "velocity": 0.3937007874015748,
          "duration": 0.09999999999999432
        },
        {
          "name": "B4",
          "midi": 71,
          "time": 99.40000000000015,
          "velocity": 0.3937007874015748,
          "duration": 0.09999999999999432
        },
        {
          "name": "A4",
          "midi": 69,
          "time": 99.50000000000014,
          "velocity": 0.3937007874015748,
          "duration": 0.09999999999999432
        },
        {
          "name": "F#4",
          "midi": 66,
          "time": 99.60000000000014,
          "velocity": 0.3937007874015748,
          "duration": 0.09999999999999432
        },
        {
          "name": "A4",
          "midi": 69,
          "time": 99.70000000000013,
          "velocity": 0.3937007874015748,
          "duration": 0.09999999999999432
        },
        {
          "name": "G4",
          "midi": 67,
          "time": 99.80000000000013,
          "velocity": 0.3937007874015748,
          "duration": 0.09999999999999432
        },
        {
          "name": "E4",
          "midi": 64,
          "time": 99.90000000000012,
          "velocity": 0.3937007874015748,
          "duration": 0.09999999999999432
        },
        {
          "name": "G4",
          "midi": 67,
          "time": 100.00000000000011,
          "velocity": 0.3937007874015748,
          "duration": 0.09999999999999432
        },
        {
          "name": "F#4",
          "midi": 66,
          "time": 100.10000000000011,
          "velocity": 0.3937007874015748,
          "duration": 0.09999999999999432
        },
        {
          "name": "D4",
          "midi": 62,
          "time": 100.2000000000001,
          "velocity": 0.3937007874015748,
          "duration": 0.09999999999999432
        },
        {
          "name": "E4",
          "midi": 64,
          "time": 100.3000000000001,
          "velocity": 0.3937007874015748,
          "duration": 0.09999999999999432
        },
        {
          "name": "D4",
          "midi": 62,
          "time": 100.40000000000009,
          "velocity": 0.3937007874015748,
          "duration": 0.09999999999999432
        },
        {
          "name": "A3",
          "midi": 57,
          "time": 100.50000000000009,
          "velocity": 0.3937007874015748,
          "duration": 0.09999999999999432
        },
        {
          "name": "B3",
          "midi": 59,
          "time": 100.60000000000008,
          "velocity": 0.3937007874015748,
          "duration": 0.09999999999999432
        },
        {
          "name": "G3",
          "midi": 55,
          "time": 100.70000000000007,
          "velocity": 0.3937007874015748,
          "duration": 0.09999999999999432
        },
        {
          "name": "A3",
          "midi": 57,
          "time": 100.80000000000007,
          "velocity": 0.3937007874015748,
          "duration": 0.09999999999999432
        },
        {
          "name": "F#3",
          "midi": 54,
          "time": 100.90000000000006,
          "velocity": 0.3937007874015748,
          "duration": 0.09999999999999432
        },
        {
          "name": "G3",
          "midi": 55,
          "time": 101.00000000000006,
          "velocity": 0.3937007874015748,
          "duration": 0.09999999999999432
        },
        {
          "name": "E3",
          "midi": 52,
          "time": 101.10000000000005,
          "velocity": 0.3937007874015748,
          "duration": 0.09999999999999432
        },
        {
          "name": "F#3",
          "midi": 54,
          "time": 101.20000000000005,
          "velocity": 0.3937007874015748,
          "duration": 0.09999999999999432
        },
        {
          "name": "D3",
          "midi": 50,
          "time": 101.30000000000004,
          "velocity": 0.3937007874015748,
          "duration": 0.09999999999999432
        },
        {
          "name": "E3",
          "midi": 52,
          "time": 101.40000000000003,
          "velocity": 0.3937007874015748,
          "duration": 0.09999999999999432
        },
        {
          "name": "B2",
          "midi": 47,
          "time": 101.50000000000003,
          "velocity": 0.3937007874015748,
          "duration": 0.09999999999999432
        },
        {
          "name": "D3",
          "midi": 50,
          "time": 101.60000000000002,
          "velocity": 0.3937007874015748,
          "duration": 0.09999999999999432
        },
        {
          "name": "A2",
          "midi": 45,
          "time": 101.70000000000002,
          "velocity": 0.3937007874015748,
          "duration": 0.09999999999999432
        },
        {
          "name": "B2",
          "midi": 47,
          "time": 101.80000000000001,
          "velocity": 0.3937007874015748,
          "duration": 0.09999999999999432
        },
        {
          "name": "E3",
          "midi": 52,
          "time": 101.9,
          "velocity": 0.3937007874015748,
          "duration": 0.09999999999999432
        },
        {
          "name": "A2",
          "midi": 45,
          "time": 102,
          "velocity": 0.3937007874015748,
          "duration": 0.09999999999999432
        },
        {
          "name": "B2",
          "midi": 47,
          "time": 102.1,
          "velocity": 0.3937007874015748,
          "duration": 0.09999999999999432
        },
        {
          "name": "E3",
          "midi": 52,
          "time": 102.19999999999999,
          "velocity": 0.3937007874015748,
          "duration": 0.09999999999999432
        },
        {
          "name": "F#3",
          "midi": 54,
          "time": 102.29999999999998,
          "velocity": 0.3937007874015748,
          "duration": 0.09999999999999432
        },
        {
          "name": "B3",
          "midi": 59,
          "time": 102.39999999999998,
          "velocity": 0.3937007874015748,
          "duration": 0.09999999999999432
        },
        {
          "name": "A3",
          "midi": 57,
          "time": 102.49999999999997,
          "velocity": 0.3937007874015748,
          "duration": 0.09999999999999432
        },
        {
          "name": "B3",
          "midi": 59,
          "time": 102.59999999999997,
          "velocity": 0.3937007874015748,
          "duration": 0.09999999999999432
        },
        {
          "name": "E4",
          "midi": 64,
          "time": 102.69999999999996,
          "velocity": 0.3937007874015748,
          "duration": 0.20000000000000284
        },
        {
          "name": "B3",
          "midi": 59,
          "time": 102.89999999999996,
          "velocity": 0.3937007874015748,
          "duration": 0.09999999999999432
        },
        {
          "name": "A3",
          "midi": 57,
          "time": 102.99999999999996,
          "velocity": 0.3937007874015748,
          "duration": 0.09999999999999432
        },
        {
          "name": "B3",
          "midi": 59,
          "time": 103.09999999999995,
          "velocity": 0.3937007874015748,
          "duration": 0.09999999999999432
        },
        {
          "name": "D4",
          "midi": 62,
          "time": 103.19999999999995,
          "velocity": 0.3937007874015748,
          "duration": 0.09999999999999432
        },
        {
          "name": "E4",
          "midi": 64,
          "time": 103.29999999999994,
          "velocity": 0.3937007874015748,
          "duration": 0.09999999999999432
        },
        {
          "name": "F#4",
          "midi": 66,
          "time": 103.39999999999993,
          "velocity": 0.3937007874015748,
          "duration": 0.20000000000000284
        },
        {
          "name": "B3",
          "midi": 59,
          "time": 103.59999999999994,
          "velocity": 0.3937007874015748,
          "duration": 0.09999999999999432
        },
        {
          "name": "A3",
          "midi": 57,
          "time": 103.69999999999993,
          "velocity": 0.3937007874015748,
          "duration": 0.09999999999999432
        },
        {
          "name": "B3",
          "midi": 59,
          "time": 103.79999999999993,
          "velocity": 0.3937007874015748,
          "duration": 0.09999999999999432
        },
        {
          "name": "E4",
          "midi": 64,
          "time": 103.89999999999992,
          "velocity": 0.3937007874015748,
          "duration": 0.09999999999999432
        },
        {
          "name": "B3",
          "midi": 59,
          "time": 103.99999999999991,
          "velocity": 0.3937007874015748,
          "duration": 0.09999999999999432
        },
        {
          "name": "A3",
          "midi": 57,
          "time": 104.09999999999991,
          "velocity": 0.3937007874015748,
          "duration": 0.09999999999999432
        },
        {
          "name": "B3",
          "midi": 59,
          "time": 104.1999999999999,
          "velocity": 0.3937007874015748,
          "duration": 0.09999999999999432
        },
        {
          "name": "F#4",
          "midi": 66,
          "time": 104.2999999999999,
          "velocity": 0.3937007874015748,
          "duration": 0.09999999999999432
        },
        {
          "name": "G4",
          "midi": 67,
          "time": 104.39999999999989,
          "velocity": 0.3937007874015748,
          "duration": 0.09999999999999432
        },
        {
          "name": "B3",
          "midi": 59,
          "time": 104.49999999999989,
          "velocity": 0.3937007874015748,
          "duration": 0.09999999999999432
        },
        {
          "name": "F#4",
          "midi": 66,
          "time": 104.59999999999988,
          "velocity": 0.3937007874015748,
          "duration": 0.09999999999999432
        },
        {
          "name": "G3",
          "midi": 55,
          "time": 104.69999999999987,
          "velocity": 0.3937007874015748,
          "duration": 0.09999999999999432
        },
        {
          "name": "E4",
          "midi": 64,
          "time": 104.79999999999987,
          "velocity": 0.3937007874015748,
          "duration": 0.09999999999999432
        },
        {
          "name": "F#3",
          "midi": 54,
          "time": 104.89999999999986,
          "velocity": 0.3937007874015748,
          "duration": 0.09999999999999432
        },
        {
          "name": "D4",
          "midi": 62,
          "time": 104.99999999999986,
          "velocity": 0.3937007874015748,
          "duration": 0.09999999999999432
        },
        {
          "name": "E3",
          "midi": 52,
          "time": 105.09999999999985,
          "velocity": 0.3937007874015748,
          "duration": 0.09999999999999432
        },
        {
          "name": "B3",
          "midi": 59,
          "time": 105.19999999999985,
          "velocity": 0.3937007874015748,
          "duration": 0.09999999999999432
        },
        {
          "name": "A3",
          "midi": 57,
          "time": 105.29999999999984,
          "velocity": 0.3937007874015748,
          "duration": 0.09999999999999432
        },
        {
          "name": "G3",
          "midi": 55,
          "time": 105.39999999999984,
          "velocity": 0.3937007874015748,
          "duration": 0.09999999999999432
        },
        {
          "name": "A3",
          "midi": 57,
          "time": 105.49999999999983,
          "velocity": 0.3937007874015748,
          "duration": 0.09999999999999432
        },
        {
          "name": "D#3",
          "midi": 51,
          "time": 105.59999999999982,
          "velocity": 0.3937007874015748,
          "duration": 0.09999999999999432
        },
        {
          "name": "E3",
          "midi": 52,
          "time": 105.69999999999982,
          "velocity": 0.3937007874015748,
          "duration": 0.09999999999999432
        },
        {
          "name": "F#3",
          "midi": 54,
          "time": 105.79999999999981,
          "velocity": 0.3937007874015748,
          "duration": 0.09999999999999432
        },
        {
          "name": "B3",
          "midi": 59,
          "time": 105.8999999999998,
          "velocity": 0.3937007874015748,
          "duration": 0.09999999999999432
        },
        {
          "name": "D#4",
          "midi": 63,
          "time": 105.9999999999998,
          "velocity": 0.3937007874015748,
          "duration": 0.09999999999999432
        },
        {
          "name": "E4",
          "midi": 64,
          "time": 106.0999999999998,
          "velocity": 0.3937007874015748,
          "duration": 0.09999999999999432
        },
        {
          "name": "F#4",
          "midi": 66,
          "time": 106.19999999999979,
          "velocity": 0.3937007874015748,
          "duration": 0.09999999999999432
        },
        {
          "name": "B4",
          "midi": 71,
          "time": 106.29999999999978,
          "velocity": 0.3937007874015748,
          "duration": 0.09999999999999432
        },
        {
          "name": "F#4",
          "midi": 66,
          "time": 106.39999999999978,
          "velocity": 0.3937007874015748,
          "duration": 0.09999999999999432
        },
        {
          "name": "D#5",
          "midi": 75,
          "time": 106.49999999999977,
          "velocity": 0.3937007874015748,
          "duration": 0.09999999999999432
        },
        {
          "name": "F#4",
          "midi": 66,
          "time": 106.59999999999977,
          "velocity": 0.3937007874015748,
          "duration": 0.09999999999999432
        },
        {
          "name": "E4",
          "midi": 64,
          "time": 106.69999999999976,
          "velocity": 0.3937007874015748,
          "duration": 0.09999999999999432
        },
        {
          "name": "D#4",
          "midi": 63,
          "time": 106.79999999999976,
          "velocity": 0.3937007874015748,
          "duration": 0.09999999999999432
        },
        {
          "name": "E4",
          "midi": 64,
          "time": 106.89999999999975,
          "velocity": 0.3937007874015748,
          "duration": 0.09999999999999432
        },
        {
          "name": "F#4",
          "midi": 66,
          "time": 106.99999999999974,
          "velocity": 0.3937007874015748,
          "duration": 0.09999999999999432
        },
        {
          "name": "B3",
          "midi": 59,
          "time": 107.09999999999974,
          "velocity": 0.3937007874015748,
          "duration": 0.09999999999999432
        },
        {
          "name": "D#4",
          "midi": 63,
          "time": 107.19999999999973,
          "velocity": 0.3937007874015748,
          "duration": 0.09999999999999432
        },
        {
          "name": "E4",
          "midi": 64,
          "time": 107.29999999999973,
          "velocity": 0.3937007874015748,
          "duration": 0.09999999999999432
        },
        {
          "name": "F#4",
          "midi": 66,
          "time": 107.39999999999972,
          "velocity": 0.3937007874015748,
          "duration": 0.09999999999999432
        },
        {
          "name": "D#4",
          "midi": 63,
          "time": 107.49999999999972,
          "velocity": 0.3937007874015748,
          "duration": 0.09999999999999432
        },
        {
          "name": "B3",
          "midi": 59,
          "time": 107.59999999999971,
          "velocity": 0.3937007874015748,
          "duration": 0.09999999999999432
        },
        {
          "name": "A3",
          "midi": 57,
          "time": 107.6999999999997,
          "velocity": 0.3937007874015748,
          "duration": 0.09999999999999432
        },
        {
          "name": "G3",
          "midi": 55,
          "time": 107.7999999999997,
          "velocity": 0.3937007874015748,
          "duration": 0.09999999999999432
        },
        {
          "name": "F#3",
          "midi": 54,
          "time": 107.8999999999997,
          "velocity": 0.3937007874015748,
          "duration": 0.09999999999999432
        },
        {
          "name": "G3",
          "midi": 55,
          "time": 107.99999999999969,
          "velocity": 0.3937007874015748,
          "duration": 0.09999999999999432
        },
        {
          "name": "F#3",
          "midi": 54,
          "time": 108.09999999999968,
          "velocity": 0.3937007874015748,
          "duration": 0.09999999999999432
        },
        {
          "name": "B2",
          "midi": 47,
          "time": 108.19999999999968,
          "velocity": 0.3937007874015748,
          "duration": 0.09999999999999432
        },
        {
          "name": "E3",
          "midi": 52,
          "time": 108.29999999999967,
          "velocity": 0.3937007874015748,
          "duration": 0.09999999999999432
        },
        {
          "name": "F#3",
          "midi": 54,
          "time": 108.39999999999966,
          "velocity": 0.3937007874015748,
          "duration": 0.09999999999999432
        },
        {
          "name": "E3",
          "midi": 52,
          "time": 108.49999999999966,
          "velocity": 0.3937007874015748,
          "duration": 0.09999999999999432
        },
        {
          "name": "D#3",
          "midi": 51,
          "time": 108.59999999999965,
          "velocity": 0.3937007874015748,
          "duration": 0.09999999999999432
        },
        {
          "name": "C#3",
          "midi": 49,
          "time": 108.69999999999965,
          "velocity": 0.3937007874015748,
          "duration": 0.09999999999999432
        },
        {
          "name": "G#3",
          "midi": 56,
          "time": 108.79999999999964,
          "velocity": 0.3937007874015748,
          "duration": 0.20000000000000284
        },
        {
          "name": "E3",
          "midi": 52,
          "time": 108.79999999999964,
          "velocity": 0.3937007874015748,
          "duration": 0.20000000000000284
        },
        {
          "name": "F#3",
          "midi": 54,
          "time": 108.99999999999964,
          "velocity": 0.3937007874015748,
          "duration": 0.09999999999999432
        },
        {
          "name": "C#4",
          "midi": 61,
          "time": 109.09999999999964,
          "velocity": 0.3937007874015748,
          "duration": 0.09999999999999432
        },
        {
          "name": "E4",
          "midi": 64,
          "time": 109.19999999999963,
          "velocity": 0.3937007874015748,
          "duration": 0.09999999999999432
        },
        {
          "name": "F#4",
          "midi": 66,
          "time": 109.29999999999963,
          "velocity": 0.3937007874015748,
          "duration": 0.09999999999999432
        },
        {
          "name": "C#5",
          "midi": 73,
          "time": 109.39999999999962,
          "velocity": 0.3937007874015748,
          "duration": 0.20000000000000284
        },
        {
          "name": "G#4",
          "midi": 68,
          "time": 109.39999999999962,
          "velocity": 0.3937007874015748,
          "duration": 0.20000000000000284
        },
        {
          "name": "G#4",
          "midi": 68,
          "time": 109.59999999999962,
          "velocity": 0.3937007874015748,
          "duration": 0.5999999999999943
        },
        {
          "name": "E4",
          "midi": 64,
          "time": 109.59999999999962,
          "velocity": 0.3937007874015748,
          "duration": 0.4000000000000057
        },
        {
          "name": "B3",
          "midi": 59,
          "time": 109.99999999999963,
          "velocity": 0.3937007874015748,
          "duration": 0.09999999999999432
        },
        {
          "name": "F#4",
          "midi": 66,
          "time": 110.09999999999962,
          "velocity": 0.3937007874015748,
          "duration": 0.09999999999999432
        },
        {
          "name": "G#4",
          "midi": 68,
          "time": 110.19999999999962,
          "velocity": 0.3937007874015748,
          "duration": 0.19999999999998863
        },
        {
          "name": "F#4",
          "midi": 66,
          "time": 110.29999999999961,
          "velocity": 0.3937007874015748,
          "duration": 0.09999999999999432
        },
        {
          "name": "E5",
          "midi": 76,
          "time": 110.39999999999961,
          "velocity": 0.3937007874015748,
          "duration": 0.20000000000000284
        },
        {
          "name": "G#4",
          "midi": 68,
          "time": 110.39999999999961,
          "velocity": 0.3937007874015748,
          "duration": 0.20000000000000284
        },
        {
          "name": "B3",
          "midi": 59,
          "time": 110.59999999999961,
          "velocity": 0.3937007874015748,
          "duration": 0.09999999999999432
        },
        {
          "name": "C#4",
          "midi": 61,
          "time": 110.6999999999996,
          "velocity": 0.3937007874015748,
          "duration": 0.09999999999999432
        },
        {
          "name": "D#4",
          "midi": 63,
          "time": 110.7999999999996,
          "velocity": 0.3937007874015748,
          "duration": 0.09999999999999432
        },
        {
          "name": "E4",
          "midi": 64,
          "time": 110.8999999999996,
          "velocity": 0.3937007874015748,
          "duration": 0.09999999999999432
        },
        {
          "name": "G#4",
          "midi": 68,
          "time": 110.99999999999959,
          "velocity": 0.3937007874015748,
          "duration": 0.20000000000000284
        },
        {
          "name": "F#4",
          "midi": 66,
          "time": 110.99999999999959,
          "velocity": 0.3937007874015748,
          "duration": 0.20000000000000284
        },
        {
          "name": "D#5",
          "midi": 75,
          "time": 111.19999999999959,
          "velocity": 0.3937007874015748,
          "duration": 0.20000000000000284
        },
        {
          "name": "F#4",
          "midi": 66,
          "time": 111.19999999999959,
          "velocity": 0.3937007874015748,
          "duration": 0.20000000000000284
        },
        {
          "name": "E5",
          "midi": 76,
          "time": 111.3999999999996,
          "velocity": 0.3937007874015748,
          "duration": 0.20000000000000284
        },
        {
          "name": "F#4",
          "midi": 66,
          "time": 111.3999999999996,
          "velocity": 0.3937007874015748,
          "duration": 0.20000000000000284
        },
        {
          "name": "B4",
          "midi": 71,
          "time": 111.5999999999996,
          "velocity": 0.3937007874015748,
          "duration": 0.19999999999998863
        },
        {
          "name": "E4",
          "midi": 64,
          "time": 111.5999999999996,
          "velocity": 0.3937007874015748,
          "duration": 0.09999999999999432
        },
        {
          "name": "E4",
          "midi": 64,
          "time": 111.69999999999959,
          "velocity": 0.3937007874015748,
          "duration": 0.09999999999999432
        },
        {
          "name": "C#5",
          "midi": 73,
          "time": 111.79999999999959,
          "velocity": 0.3937007874015748,
          "duration": 0.20000000000000284
        },
        {
          "name": "F#4",
          "midi": 66,
          "time": 111.79999999999959,
          "velocity": 0.3937007874015748,
          "duration": 0.20000000000000284
        },
        {
          "name": "G#3",
          "midi": 56,
          "time": 111.99999999999959,
          "velocity": 0.3937007874015748,
          "duration": 0.20000000000000284
        },
        {
          "name": "E3",
          "midi": 52,
          "time": 111.99999999999959,
          "velocity": 0.3937007874015748,
          "duration": 0.20000000000000284
        },
        {
          "name": "F#3",
          "midi": 54,
          "time": 112.19999999999959,
          "velocity": 0.3937007874015748,
          "duration": 0.09999999999999432
        },
        {
          "name": "C#4",
          "midi": 61,
          "time": 112.29999999999959,
          "velocity": 0.3937007874015748,
          "duration": 0.09999999999999432
        },
        {
          "name": "E4",
          "midi": 64,
          "time": 112.39999999999958,
          "velocity": 0.3937007874015748,
          "duration": 0.09999999999999432
        },
        {
          "name": "F#4",
          "midi": 66,
          "time": 112.49999999999957,
          "velocity": 0.3937007874015748,
          "duration": 0.09999999999999432
        },
        {
          "name": "C#5",
          "midi": 73,
          "time": 112.59999999999957,
          "velocity": 0.3937007874015748,
          "duration": 0.20000000000000284
        },
        {
          "name": "G#4",
          "midi": 68,
          "time": 112.59999999999957,
          "velocity": 0.3937007874015748,
          "duration": 0.20000000000000284
        },
        {
          "name": "G#4",
          "midi": 68,
          "time": 112.79999999999957,
          "velocity": 0.3937007874015748,
          "duration": 0.5999999999999943
        },
        {
          "name": "E4",
          "midi": 64,
          "time": 112.79999999999957,
          "velocity": 0.3937007874015748,
          "duration": 0.4000000000000057
        },
        {
          "name": "E4",
          "midi": 64,
          "time": 113.19999999999958,
          "velocity": 0.3937007874015748,
          "duration": 0.09999999999999432
        },
        {
          "name": "F#4",
          "midi": 66,
          "time": 113.29999999999957,
          "velocity": 0.3937007874015748,
          "duration": 0.09999999999999432
        },
        {
          "name": "C#5",
          "midi": 73,
          "time": 113.39999999999957,
          "velocity": 0.3937007874015748,
          "duration": 0.19999999999998863
        },
        {
          "name": "G#4",
          "midi": 68,
          "time": 113.39999999999957,
          "velocity": 0.3937007874015748,
          "duration": 0.19999999999998863
        },
        {
          "name": "F#4",
          "midi": 66,
          "time": 113.49999999999956,
          "velocity": 0.3937007874015748,
          "duration": 0.09999999999999432
        },
        {
          "name": "A4",
          "midi": 69,
          "time": 113.59999999999955,
          "velocity": 0.3937007874015748,
          "duration": 0.09999999999999432
        },
        {
          "name": "E5",
          "midi": 76,
          "time": 113.59999999999955,
          "velocity": 0.3937007874015748,
          "duration": 0.09999999999999432
        },
        {
          "name": "D#5",
          "midi": 75,
          "time": 113.69999999999955,
          "velocity": 0.3937007874015748,
          "duration": 0.09999999999999432
        },
        {
          "name": "B4",
          "midi": 71,
          "time": 113.79999999999954,
          "velocity": 0.3937007874015748,
          "duration": 0.09999999999999432
        },
        {
          "name": "E4",
          "midi": 64,
          "time": 113.89999999999954,
          "velocity": 0.3937007874015748,
          "duration": 0.09999999999999432
        },
        {
          "name": "B4",
          "midi": 71,
          "time": 113.99999999999953,
          "velocity": 0.3937007874015748,
          "duration": 0.09999999999999432
        },
        {
          "name": "A4",
          "midi": 69,
          "time": 114.09999999999953,
          "velocity": 0.3937007874015748,
          "duration": 0.09999999999999432
        },
        {
          "name": "E4",
          "midi": 64,
          "time": 114.19999999999952,
          "velocity": 0.3937007874015748,
          "duration": 0.09999999999999432
        },
        {
          "name": "B3",
          "midi": 59,
          "time": 114.29999999999951,
          "velocity": 0.3937007874015748,
          "duration": 0.09999999999999432
        },
        {
          "name": "B4",
          "midi": 71,
          "time": 114.39999999999951,
          "velocity": 0.3937007874015748,
          "duration": 0.09999999999999432
        },
        {
          "name": "A4",
          "midi": 69,
          "time": 114.4999999999995,
          "velocity": 0.3937007874015748,
          "duration": 0.09999999999999432
        },
        {
          "name": "E4",
          "midi": 64,
          "time": 114.5999999999995,
          "velocity": 0.3937007874015748,
          "duration": 0.09999999999999432
        },
        {
          "name": "B3",
          "midi": 59,
          "time": 114.69999999999949,
          "velocity": 0.3937007874015748,
          "duration": 0.09999999999999432
        },
        {
          "name": "B3",
          "midi": 59,
          "time": 114.79999999999949,
          "velocity": 0.3937007874015748,
          "duration": 0.09999999999999432
        },
        {
          "name": "A3",
          "midi": 57,
          "time": 114.89999999999948,
          "velocity": 0.3937007874015748,
          "duration": 0.09999999999999432
        },
        {
          "name": "E3",
          "midi": 52,
          "time": 114.99999999999947,
          "velocity": 0.3937007874015748,
          "duration": 0.20000000000000284
        },
        {
          "name": "G#3",
          "midi": 56,
          "time": 115.19999999999948,
          "velocity": 0.3937007874015748,
          "duration": 0.20000000000000284
        },
        {
          "name": "E3",
          "midi": 52,
          "time": 115.19999999999948,
          "velocity": 0.3937007874015748,
          "duration": 0.20000000000000284
        },
        {
          "name": "F#3",
          "midi": 54,
          "time": 115.39999999999948,
          "velocity": 0.3937007874015748,
          "duration": 0.09999999999999432
        },
        {
          "name": "C#4",
          "midi": 61,
          "time": 115.49999999999947,
          "velocity": 0.3937007874015748,
          "duration": 0.09999999999999432
        },
        {
          "name": "E4",
          "midi": 64,
          "time": 115.59999999999947,
          "velocity": 0.3937007874015748,
          "duration": 0.09999999999999432
        },
        {
          "name": "F#4",
          "midi": 66,
          "time": 115.69999999999946,
          "velocity": 0.3937007874015748,
          "duration": 0.09999999999999432
        },
        {
          "name": "C#5",
          "midi": 73,
          "time": 115.79999999999946,
          "velocity": 0.3937007874015748,
          "duration": 0.20000000000000284
        },
        {
          "name": "G#4",
          "midi": 68,
          "time": 115.79999999999946,
          "velocity": 0.3937007874015748,
          "duration": 0.20000000000000284
        },
        {
          "name": "G#4",
          "midi": 68,
          "time": 115.99999999999946,
          "velocity": 0.3937007874015748,
          "duration": 0.5999999999999943
        },
        {
          "name": "E4",
          "midi": 64,
          "time": 115.99999999999946,
          "velocity": 0.3937007874015748,
          "duration": 0.4000000000000057
        },
        {
          "name": "B3",
          "midi": 59,
          "time": 116.39999999999947,
          "velocity": 0.3937007874015748,
          "duration": 0.09999999999999432
        },
        {
          "name": "F#4",
          "midi": 66,
          "time": 116.49999999999946,
          "velocity": 0.3937007874015748,
          "duration": 0.09999999999999432
        },
        {
          "name": "G#4",
          "midi": 68,
          "time": 116.59999999999945,
          "velocity": 0.3937007874015748,
          "duration": 0.19999999999998863
        },
        {
          "name": "F#4",
          "midi": 66,
          "time": 116.69999999999945,
          "velocity": 0.3937007874015748,
          "duration": 0.09999999999999432
        },
        {
          "name": "E5",
          "midi": 76,
          "time": 116.79999999999944,
          "velocity": 0.3937007874015748,
          "duration": 0.4000000000000057
        },
        {
          "name": "G#4",
          "midi": 68,
          "time": 116.79999999999944,
          "velocity": 0.3937007874015748,
          "duration": 0.4000000000000057
        },
        {
          "name": "E4",
          "midi": 64,
          "time": 117.19999999999945,
          "velocity": 0.3937007874015748,
          "duration": 0.20000000000000284
        },
        {
          "name": "B4",
          "midi": 71,
          "time": 117.39999999999945,
          "velocity": 0.3937007874015748,
          "duration": 0.09999999999999432
        },
        {
          "name": "G#4",
          "midi": 68,
          "time": 117.49999999999945,
          "velocity": 0.3937007874015748,
          "duration": 0.09999999999999432
        },
        {
          "name": "D#5",
          "midi": 75,
          "time": 117.59999999999944,
          "velocity": 0.3937007874015748,
          "duration": 0.20000000000000284
        },
        {
          "name": "F#4",
          "midi": 66,
          "time": 117.59999999999944,
          "velocity": 0.3937007874015748,
          "duration": 0.20000000000000284
        },
        {
          "name": "E5",
          "midi": 76,
          "time": 117.79999999999944,
          "velocity": 0.3937007874015748,
          "duration": 0.20000000000000284
        },
        {
          "name": "G#4",
          "midi": 68,
          "time": 117.79999999999944,
          "velocity": 0.3937007874015748,
          "duration": 0.20000000000000284
        },
        {
          "name": "G#5",
          "midi": 80,
          "time": 117.99999999999945,
          "velocity": 0.3937007874015748,
          "duration": 0.20000000000000284
        },
        {
          "name": "D#5",
          "midi": 75,
          "time": 117.99999999999945,
          "velocity": 0.3937007874015748,
          "duration": 0.20000000000000284
        },
        {
          "name": "B4",
          "midi": 71,
          "time": 118.19999999999945,
          "velocity": 0.3937007874015748,
          "duration": 0.20000000000000284
        },
        {
          "name": "F#4",
          "midi": 66,
          "time": 118.19999999999945,
          "velocity": 0.3937007874015748,
          "duration": 0.20000000000000284
        },
        {
          "name": "C#5",
          "midi": 73,
          "time": 118.39999999999945,
          "velocity": 0.3937007874015748,
          "duration": 0.19999999999998863
        },
        {
          "name": "A4",
          "midi": 69,
          "time": 118.39999999999945,
          "velocity": 0.3937007874015748,
          "duration": 0.09999999999999432
        },
        {
          "name": "E4",
          "midi": 64,
          "time": 118.49999999999945,
          "velocity": 0.3937007874015748,
          "duration": 0.09999999999999432
        },
        {
          "name": "B4",
          "midi": 71,
          "time": 118.59999999999944,
          "velocity": 0.3937007874015748,
          "duration": 0.20000000000000284
        },
        {
          "name": "A4",
          "midi": 69,
          "time": 118.79999999999944,
          "velocity": 0.3937007874015748,
          "duration": 0.09999999999999432
        },
        {
          "name": "C#5",
          "midi": 73,
          "time": 118.89999999999944,
          "velocity": 0.3937007874015748,
          "duration": 0.09999999999999432
        },
        {
          "name": "G#5",
          "midi": 80,
          "time": 118.99999999999943,
          "velocity": 0.3937007874015748,
          "duration": 0.20000000000000284
        },
        {
          "name": "E5",
          "midi": 76,
          "time": 118.99999999999943,
          "velocity": 0.3937007874015748,
          "duration": 0.20000000000000284
        },
        {
          "name": "C#5",
          "midi": 73,
          "time": 119.19999999999943,
          "velocity": 0.3937007874015748,
          "duration": 0.5999999999999943
        },
        {
          "name": "A4",
          "midi": 69,
          "time": 119.19999999999943,
          "velocity": 0.3937007874015748,
          "duration": 0.5999999999999943
        },
        {
          "name": "E4",
          "midi": 64,
          "time": 119.79999999999943,
          "velocity": 0.3937007874015748,
          "duration": 0.20000000000000284
        },
        {
          "name": "C#5",
          "midi": 73,
          "time": 119.99999999999943,
          "velocity": 0.3937007874015748,
          "duration": 0.20000000000000284
        },
        {
          "name": "A4",
          "midi": 69,
          "time": 119.99999999999943,
          "velocity": 0.3937007874015748,
          "duration": 0.20000000000000284
        },
        {
          "name": "B4",
          "midi": 71,
          "time": 120.19999999999943,
          "velocity": 0.3937007874015748,
          "duration": 0.20000000000000284
        },
        {
          "name": "E4",
          "midi": 64,
          "time": 120.19999999999943,
          "velocity": 0.3937007874015748,
          "duration": 0.20000000000000284
        },
        {
          "name": "F#4",
          "midi": 66,
          "time": 120.39999999999944,
          "velocity": 0.3937007874015748,
          "duration": 0.20000000000000284
        },
        {
          "name": "D#4",
          "midi": 63,
          "time": 120.39999999999944,
          "velocity": 0.3937007874015748,
          "duration": 0.20000000000000284
        },
        {
          "name": "B3",
          "midi": 59,
          "time": 120.59999999999944,
          "velocity": 0.3937007874015748,
          "duration": 0.20000000000000284
        },
        {
          "name": "G#3",
          "midi": 56,
          "time": 120.59999999999944,
          "velocity": 0.3937007874015748,
          "duration": 0.20000000000000284
        },
        {
          "name": "C#4",
          "midi": 61,
          "time": 120.79999999999944,
          "velocity": 0.3937007874015748,
          "duration": 0.20000000000000284
        },
        {
          "name": "A3",
          "midi": 57,
          "time": 120.79999999999944,
          "velocity": 0.3937007874015748,
          "duration": 0.20000000000000284
        },
        {
          "name": "E3",
          "midi": 52,
          "time": 120.99999999999945,
          "velocity": 0.3937007874015748,
          "duration": 0.20000000000000284
        },
        {
          "name": "C#3",
          "midi": 49,
          "time": 120.99999999999945,
          "velocity": 0.3937007874015748,
          "duration": 0.20000000000000284
        },
        {
          "name": "F#3",
          "midi": 54,
          "time": 121.19999999999945,
          "velocity": 0.3937007874015748,
          "duration": 0.4000000000000057
        },
        {
          "name": "D#3",
          "midi": 51,
          "time": 121.19999999999945,
          "velocity": 0.3937007874015748,
          "duration": 0.4000000000000057
        },
        {
          "name": "E4",
          "midi": 64,
          "time": 121.59999999999945,
          "velocity": 0.3937007874015748,
          "duration": 0.20000000000000284
        },
        {
          "name": "G#3",
          "midi": 56,
          "time": 121.59999999999945,
          "velocity": 0.3937007874015748,
          "duration": 0.20000000000000284
        },
        {
          "name": "E3",
          "midi": 52,
          "time": 121.79999999999946,
          "velocity": 0.3937007874015748,
          "duration": 0.09999999999999432
        },
        {
          "name": "D#4",
          "midi": 63,
          "time": 121.89999999999945,
          "velocity": 0.3937007874015748,
          "duration": 0.09999999999999432
        },
        {
          "name": "B3",
          "midi": 59,
          "time": 121.99999999999945,
          "velocity": 0.3937007874015748,
          "duration": 0.09999999999999432
        },
        {
          "name": "C#4",
          "midi": 61,
          "time": 122.09999999999944,
          "velocity": 0.3937007874015748,
          "duration": 0.09999999999999432
        },
        {
          "name": "G#4",
          "midi": 68,
          "time": 122.19999999999943,
          "velocity": 0.3937007874015748,
          "duration": 0.20000000000000284
        },
        {
          "name": "C#4",
          "midi": 61,
          "time": 122.19999999999943,
          "velocity": 0.3937007874015748,
          "duration": 0.20000000000000284
        },
        {
          "name": "E4",
          "midi": 64,
          "time": 122.39999999999944,
          "velocity": 0.3937007874015748,
          "duration": 0.4000000000000057
        },
        {
          "name": "C#4",
          "midi": 61,
          "time": 122.39999999999944,
          "velocity": 0.3937007874015748,
          "duration": 0.4000000000000057
        },
        {
          "name": "B3",
          "midi": 59,
          "time": 122.79999999999944,
          "velocity": 0.3937007874015748,
          "duration": 0.20000000000000284
        },
        {
          "name": "G#3",
          "midi": 56,
          "time": 122.79999999999944,
          "velocity": 0.3937007874015748,
          "duration": 0.20000000000000284
        },
        {
          "name": "G#4",
          "midi": 68,
          "time": 122.99999999999945,
          "velocity": 0.3937007874015748,
          "duration": 0.20000000000000284
        },
        {
          "name": "E4",
          "midi": 64,
          "time": 122.99999999999945,
          "velocity": 0.3937007874015748,
          "duration": 0.20000000000000284
        },
        {
          "name": "C#5",
          "midi": 73,
          "time": 123.19999999999945,
          "velocity": 0.3937007874015748,
          "duration": 0.20000000000000284
        },
        {
          "name": "E4",
          "midi": 64,
          "time": 123.19999999999945,
          "velocity": 0.3937007874015748,
          "duration": 0.20000000000000284
        },
        {
          "name": "G#4",
          "midi": 68,
          "time": 123.39999999999945,
          "velocity": 0.3937007874015748,
          "duration": 0.20000000000000284
        },
        {
          "name": "E4",
          "midi": 64,
          "time": 123.39999999999945,
          "velocity": 0.3937007874015748,
          "duration": 0.20000000000000284
        },
        {
          "name": "C#4",
          "midi": 61,
          "time": 123.59999999999945,
          "velocity": 0.3937007874015748,
          "duration": 0.20000000000000284
        },
        {
          "name": "G#3",
          "midi": 56,
          "time": 123.59999999999945,
          "velocity": 0.3937007874015748,
          "duration": 0.20000000000000284
        },
        {
          "name": "F#3",
          "midi": 54,
          "time": 123.79999999999946,
          "velocity": 0.3937007874015748,
          "duration": 0.09999999999999432
        },
        {
          "name": "G#3",
          "midi": 56,
          "time": 123.89999999999945,
          "velocity": 0.3937007874015748,
          "duration": 0.09999999999999432
        },
        {
          "name": "B3",
          "midi": 59,
          "time": 123.99999999999945,
          "velocity": 0.3937007874015748,
          "duration": 0.20000000000000284
        },
        {
          "name": "D#3",
          "midi": 51,
          "time": 123.99999999999945,
          "velocity": 0.3937007874015748,
          "duration": 0.20000000000000284
        },
        {
          "name": "F#3",
          "midi": 54,
          "time": 124.19999999999945,
          "velocity": 0.3937007874015748,
          "duration": 0.20000000000000284
        },
        {
          "name": "D#3",
          "midi": 51,
          "time": 124.19999999999945,
          "velocity": 0.3937007874015748,
          "duration": 0.20000000000000284
        },
        {
          "name": "D#3",
          "midi": 51,
          "time": 124.39999999999945,
          "velocity": 0.3937007874015748,
          "duration": 0.19999999999998863
        },
        {
          "name": "B2",
          "midi": 47,
          "time": 124.49999999999945,
          "velocity": 0.3937007874015748,
          "duration": 0.09999999999999432
        },
        {
          "name": "F#3",
          "midi": 54,
          "time": 124.59999999999944,
          "velocity": 0.3937007874015748,
          "duration": 0.20000000000000284
        },
        {
          "name": "D#3",
          "midi": 51,
          "time": 124.59999999999944,
          "velocity": 0.3937007874015748,
          "duration": 0.20000000000000284
        },
        {
          "name": "E4",
          "midi": 64,
          "time": 124.79999999999944,
          "velocity": 0.3937007874015748,
          "duration": 0.20000000000000284
        },
        {
          "name": "G#3",
          "midi": 56,
          "time": 124.79999999999944,
          "velocity": 0.3937007874015748,
          "duration": 0.20000000000000284
        },
        {
          "name": "E3",
          "midi": 52,
          "time": 124.99999999999945,
          "velocity": 0.3937007874015748,
          "duration": 0.09999999999999432
        },
        {
          "name": "D#4",
          "midi": 63,
          "time": 125.09999999999944,
          "velocity": 0.3937007874015748,
          "duration": 0.09999999999999432
        },
        {
          "name": "B3",
          "midi": 59,
          "time": 125.19999999999943,
          "velocity": 0.3937007874015748,
          "duration": 0.09999999999999432
        },
        {
          "name": "C#4",
          "midi": 61,
          "time": 125.29999999999943,
          "velocity": 0.3937007874015748,
          "duration": 0.09999999999999432
        },
        {
          "name": "G#4",
          "midi": 68,
          "time": 125.39999999999942,
          "velocity": 0.3937007874015748,
          "duration": 0.20000000000000284
        },
        {
          "name": "E4",
          "midi": 64,
          "time": 125.39999999999942,
          "velocity": 0.3937007874015748,
          "duration": 0.20000000000000284
        },
        {
          "name": "E4",
          "midi": 64,
          "time": 125.59999999999943,
          "velocity": 0.3937007874015748,
          "duration": 0.4000000000000057
        },
        {
          "name": "C#4",
          "midi": 61,
          "time": 125.59999999999943,
          "velocity": 0.3937007874015748,
          "duration": 0.4000000000000057
        },
        {
          "name": "B3",
          "midi": 59,
          "time": 125.99999999999943,
          "velocity": 0.3937007874015748,
          "duration": 0.20000000000000284
        },
        {
          "name": "G#3",
          "midi": 56,
          "time": 125.99999999999943,
          "velocity": 0.3937007874015748,
          "duration": 0.20000000000000284
        },
        {
          "name": "G#4",
          "midi": 68,
          "time": 126.19999999999943,
          "velocity": 0.3937007874015748,
          "duration": 0.20000000000000284
        },
        {
          "name": "E4",
          "midi": 64,
          "time": 126.19999999999943,
          "velocity": 0.3937007874015748,
          "duration": 0.20000000000000284
        },
        {
          "name": "C#5",
          "midi": 73,
          "time": 126.39999999999944,
          "velocity": 0.3937007874015748,
          "duration": 0.4000000000000057
        },
        {
          "name": "E4",
          "midi": 64,
          "time": 126.39999999999944,
          "velocity": 0.3937007874015748,
          "duration": 0.4000000000000057
        },
        {
          "name": "B4",
          "midi": 71,
          "time": 126.79999999999944,
          "velocity": 0.3937007874015748,
          "duration": 0.20000000000000284
        },
        {
          "name": "E4",
          "midi": 64,
          "time": 126.79999999999944,
          "velocity": 0.3937007874015748,
          "duration": 0.20000000000000284
        },
        {
          "name": "D#4",
          "midi": 63,
          "time": 126.99999999999945,
          "velocity": 0.3937007874015748,
          "duration": 0.20000000000000284
        },
        {
          "name": "B3",
          "midi": 59,
          "time": 126.99999999999945,
          "velocity": 0.3937007874015748,
          "duration": 0.20000000000000284
        },
        {
          "name": "G#4",
          "midi": 68,
          "time": 127.19999999999945,
          "velocity": 0.3937007874015748,
          "duration": 0.09999999999999432
        },
        {
          "name": "F#4",
          "midi": 66,
          "time": 127.29999999999944,
          "velocity": 0.3937007874015748,
          "duration": 0.09999999999999432
        },
        {
          "name": "B3",
          "midi": 59,
          "time": 127.39999999999944,
          "velocity": 0.3937007874015748,
          "duration": 0.20000000000000284
        },
        {
          "name": "G#3",
          "midi": 56,
          "time": 127.39999999999944,
          "velocity": 0.3937007874015748,
          "duration": 0.20000000000000284
        },
        {
          "name": "D#4",
          "midi": 63,
          "time": 127.59999999999944,
          "velocity": 0.3937007874015748,
          "duration": 0.09999999999999432
        },
        {
          "name": "C#4",
          "midi": 61,
          "time": 127.69999999999943,
          "velocity": 0.3937007874015748,
          "duration": 0.09999999999999432
        },
        {
          "name": "F#3",
          "midi": 54,
          "time": 127.79999999999943,
          "velocity": 0.3937007874015748,
          "duration": 0.20000000000000284
        },
        {
          "name": "D#3",
          "midi": 51,
          "time": 127.79999999999943,
          "velocity": 0.3937007874015748,
          "duration": 0.20000000000000284
        },
        {
          "name": "E4",
          "midi": 64,
          "time": 127.99999999999943,
          "velocity": 0.3937007874015748,
          "duration": 0.19999999999998863
        },
        {
          "name": "G#3",
          "midi": 56,
          "time": 127.99999999999943,
          "velocity": 0.3937007874015748,
          "duration": 0.19999999999998863
        },
        {
          "name": "E3",
          "midi": 52,
          "time": 128.19999999999942,
          "velocity": 0.3937007874015748,
          "duration": 0.09999999999999432
        },
        {
          "name": "D#4",
          "midi": 63,
          "time": 128.29999999999941,
          "velocity": 0.3937007874015748,
          "duration": 0.09999999999999432
        },
        {
          "name": "B3",
          "midi": 59,
          "time": 128.3999999999994,
          "velocity": 0.3937007874015748,
          "duration": 0.09999999999999432
        },
        {
          "name": "C#4",
          "midi": 61,
          "time": 128.4999999999994,
          "velocity": 0.3937007874015748,
          "duration": 0.09999999999999432
        },
        {
          "name": "G#4",
          "midi": 68,
          "time": 128.5999999999994,
          "velocity": 0.3937007874015748,
          "duration": 0.19999999999998863
        },
        {
          "name": "E4",
          "midi": 64,
          "time": 128.5999999999994,
          "velocity": 0.3937007874015748,
          "duration": 0.19999999999998863
        },
        {
          "name": "E4",
          "midi": 64,
          "time": 128.7999999999994,
          "velocity": 0.3937007874015748,
          "duration": 0.4000000000000057
        },
        {
          "name": "C#4",
          "midi": 61,
          "time": 128.7999999999994,
          "velocity": 0.3937007874015748,
          "duration": 0.4000000000000057
        },
        {
          "name": "B3",
          "midi": 59,
          "time": 129.1999999999994,
          "velocity": 0.3937007874015748,
          "duration": 0.19999999999998863
        },
        {
          "name": "G#3",
          "midi": 56,
          "time": 129.1999999999994,
          "velocity": 0.3937007874015748,
          "duration": 0.19999999999998863
        },
        {
          "name": "G#4",
          "midi": 68,
          "time": 129.39999999999938,
          "velocity": 0.3937007874015748,
          "duration": 0.19999999999998863
        },
        {
          "name": "E4",
          "midi": 64,
          "time": 129.39999999999938,
          "velocity": 0.3937007874015748,
          "duration": 0.19999999999998863
        },
        {
          "name": "C#5",
          "midi": 73,
          "time": 129.59999999999937,
          "velocity": 0.3937007874015748,
          "duration": 0.19999999999998863
        },
        {
          "name": "E4",
          "midi": 64,
          "time": 129.59999999999937,
          "velocity": 0.3937007874015748,
          "duration": 0.19999999999998863
        },
        {
          "name": "G#4",
          "midi": 68,
          "time": 129.79999999999936,
          "velocity": 0.3937007874015748,
          "duration": 0.19999999999998863
        },
        {
          "name": "E4",
          "midi": 64,
          "time": 129.79999999999936,
          "velocity": 0.3937007874015748,
          "duration": 0.19999999999998863
        },
        {
          "name": "D#4",
          "midi": 63,
          "time": 129.99999999999935,
          "velocity": 0.3937007874015748,
          "duration": 0.19999999999998863
        },
        {
          "name": "B3",
          "midi": 59,
          "time": 129.99999999999935,
          "velocity": 0.3937007874015748,
          "duration": 0.19999999999998863
        },
        {
          "name": "B4",
          "midi": 71,
          "time": 130.19999999999933,
          "velocity": 0.3937007874015748,
          "duration": 0.09999999999999432
        },
        {
          "name": "C#5",
          "midi": 73,
          "time": 130.29999999999933,
          "velocity": 0.3937007874015748,
          "duration": 0.09999999999999432
        },
        {
          "name": "D#5",
          "midi": 75,
          "time": 130.39999999999932,
          "velocity": 0.3937007874015748,
          "duration": 0.19999999999998863
        },
        {
          "name": "F#4",
          "midi": 66,
          "time": 130.39999999999932,
          "velocity": 0.3937007874015748,
          "duration": 0.19999999999998863
        },
        {
          "name": "E5",
          "midi": 76,
          "time": 130.5999999999993,
          "velocity": 0.3937007874015748,
          "duration": 0.19999999999998863
        },
        {
          "name": "F#4",
          "midi": 66,
          "time": 130.5999999999993,
          "velocity": 0.3937007874015748,
          "duration": 0.19999999999998863
        },
        {
          "name": "G#5",
          "midi": 80,
          "time": 130.7999999999993,
          "velocity": 0.3937007874015748,
          "duration": 0.09999999999999432
        },
        {
          "name": "E5",
          "midi": 76,
          "time": 130.7999999999993,
          "velocity": 0.3937007874015748,
          "duration": 0.09999999999999432
        },
        {
          "name": "B4",
          "midi": 71,
          "time": 130.8999999999993,
          "velocity": 0.3937007874015748,
          "duration": 0.09999999999999432
        },
        {
          "name": "D#5",
          "midi": 75,
          "time": 130.9999999999993,
          "velocity": 0.3937007874015748,
          "duration": 0.19999999999998863
        },
        {
          "name": "B4",
          "midi": 71,
          "time": 130.9999999999993,
          "velocity": 0.3937007874015748,
          "duration": 0.19999999999998863
        },
        {
          "name": "E5",
          "midi": 76,
          "time": 131.19999999999928,
          "velocity": 0.3937007874015748,
          "duration": 0.09999999999999432
        },
        {
          "name": "C#5",
          "midi": 73,
          "time": 131.19999999999928,
          "velocity": 0.3937007874015748,
          "duration": 0.09999999999999432
        },
        {
          "name": "E3",
          "midi": 52,
          "time": 131.29999999999927,
          "velocity": 0.3937007874015748,
          "duration": 0.09999999999999432
        },
        {
          "name": "B4",
          "midi": 71,
          "time": 131.39999999999927,
          "velocity": 0.3937007874015748,
          "duration": 0.19999999999998863
        },
        {
          "name": "E4",
          "midi": 64,
          "time": 131.39999999999927,
          "velocity": 0.3937007874015748,
          "duration": 0.19999999999998863
        },
        {
          "name": "A4",
          "midi": 69,
          "time": 131.59999999999926,
          "velocity": 0.3937007874015748,
          "duration": 0.19999999999998863
        },
        {
          "name": "E4",
          "midi": 64,
          "time": 131.59999999999926,
          "velocity": 0.3937007874015748,
          "duration": 0.19999999999998863
        },
        {
          "name": "G#5",
          "midi": 80,
          "time": 131.79999999999924,
          "velocity": 0.3937007874015748,
          "duration": 0.19999999999998863
        },
        {
          "name": "E5",
          "midi": 76,
          "time": 131.79999999999924,
          "velocity": 0.3937007874015748,
          "duration": 0.19999999999998863
        },
        {
          "name": "C#5",
          "midi": 73,
          "time": 131.99999999999923,
          "velocity": 0.3937007874015748,
          "duration": 0.19999999999998863
        },
        {
          "name": "E5",
          "midi": 76,
          "time": 131.99999999999923,
          "velocity": 0.3937007874015748,
          "duration": 0.19999999999998863
        },
        {
          "name": "G#4",
          "midi": 68,
          "time": 132.19999999999922,
          "velocity": 0.3937007874015748,
          "duration": 0.19999999999998863
        },
        {
          "name": "E4",
          "midi": 64,
          "time": 132.19999999999922,
          "velocity": 0.3937007874015748,
          "duration": 0.19999999999998863
        },
        {
          "name": "C#5",
          "midi": 73,
          "time": 132.3999999999992,
          "velocity": 0.3937007874015748,
          "duration": 0.09999999999999432
        },
        {
          "name": "B4",
          "midi": 71,
          "time": 132.4999999999992,
          "velocity": 0.3937007874015748,
          "duration": 0.09999999999999432
        },
        {
          "name": "E4",
          "midi": 64,
          "time": 132.5999999999992,
          "velocity": 0.3937007874015748,
          "duration": 0.19999999999998863
        },
        {
          "name": "C#4",
          "midi": 61,
          "time": 132.5999999999992,
          "velocity": 0.3937007874015748,
          "duration": 0.19999999999998863
        },
        {
          "name": "E4",
          "midi": 64,
          "time": 132.7999999999992,
          "velocity": 0.3937007874015748,
          "duration": 0.09999999999999432
        },
        {
          "name": "B3",
          "midi": 59,
          "time": 132.89999999999918,
          "velocity": 0.3937007874015748,
          "duration": 0.09999999999999432
        },
        {
          "name": "A3",
          "midi": 57,
          "time": 132.99999999999918,
          "velocity": 0.3937007874015748,
          "duration": 0.09999999999999432
        },
        {
          "name": "C#4",
          "midi": 61,
          "time": 133.19999999999916,
          "velocity": 0.3937007874015748,
          "duration": 0.09999999999999432
        },
        {
          "name": "B3",
          "midi": 59,
          "time": 133.29999999999916,
          "velocity": 0.3937007874015748,
          "duration": 0.09999999999999432
        },
        {
          "name": "E3",
          "midi": 52,
          "time": 133.39999999999915,
          "velocity": 0.3937007874015748,
          "duration": 0.09999999999999432
        },
        {
          "name": "C#4",
          "midi": 61,
          "time": 133.59999999999914,
          "velocity": 0.3937007874015748,
          "duration": 0.09999999999999432
        },
        {
          "name": "B3",
          "midi": 59,
          "time": 133.69999999999914,
          "velocity": 0.3937007874015748,
          "duration": 0.09999999999999432
        },
        {
          "name": "E3",
          "midi": 52,
          "time": 133.79999999999913,
          "velocity": 0.3937007874015748,
          "duration": 0.09999999999999432
        },
        {
          "name": "F#3",
          "midi": 54,
          "time": 133.99999999999912,
          "velocity": 0.3937007874015748,
          "duration": 0.09999999999999432
        },
        {
          "name": "C#3",
          "midi": 49,
          "time": 134.0999999999991,
          "velocity": 0.3937007874015748,
          "duration": 0.09999999999999432
        },
        {
          "name": "B2",
          "midi": 47,
          "time": 134.1999999999991,
          "velocity": 0.3937007874015748,
          "duration": 0.09999999999999432
        },
        {
          "name": "A3",
          "midi": 57,
          "time": 134.3999999999991,
          "velocity": 0.3937007874015748,
          "duration": 0.5999999999999943
        },
        {
          "name": "F3",
          "midi": 53,
          "time": 134.3999999999991,
          "velocity": 0.3937007874015748,
          "duration": 0.5999999999999943
        },
        {
          "name": "D4",
          "midi": 62,
          "time": 134.9999999999991,
          "velocity": 0.3937007874015748,
          "duration": 0.19999999999998863
        },
        {
          "name": "E3",
          "midi": 52,
          "time": 134.9999999999991,
          "velocity": 0.3937007874015748,
          "duration": 0.19999999999998863
        },
        {
          "name": "A3",
          "midi": 57,
          "time": 135.19999999999908,
          "velocity": 0.3937007874015748,
          "duration": 0.8000000000000114
        },
        {
          "name": "F3",
          "midi": 53,
          "time": 135.19999999999908,
          "velocity": 0.3937007874015748,
          "duration": 0.8000000000000114
        },
        {
          "name": "F4",
          "midi": 65,
          "time": 135.9999999999991,
          "velocity": 0.3937007874015748,
          "duration": 0.5999999999999943
        },
        {
          "name": "A3",
          "midi": 57,
          "time": 135.9999999999991,
          "velocity": 0.3937007874015748,
          "duration": 0.5999999999999943
        },
        {
          "name": "C4",
          "midi": 60,
          "time": 136.59999999999908,
          "velocity": 0.3937007874015748,
          "duration": 0.09999999999999432
        },
        {
          "name": "D4",
          "midi": 62,
          "time": 136.69999999999908,
          "velocity": 0.3937007874015748,
          "duration": 0.09999999999999432
        },
        {
          "name": "E4",
          "midi": 64,
          "time": 136.79999999999907,
          "velocity": 0.3937007874015748,
          "duration": 0.19999999999998863
        },
        {
          "name": "G3",
          "midi": 55,
          "time": 136.79999999999907,
          "velocity": 0.3937007874015748,
          "duration": 0.19999999999998863
        },
        {
          "name": "F4",
          "midi": 65,
          "time": 136.99999999999906,
          "velocity": 0.3937007874015748,
          "duration": 0.19999999999998863
        },
        {
          "name": "G3",
          "midi": 55,
          "time": 136.99999999999906,
          "velocity": 0.3937007874015748,
          "duration": 0.19999999999998863
        },
        {
          "name": "C4",
          "midi": 60,
          "time": 137.19999999999905,
          "velocity": 0.3937007874015748,
          "duration": 0.19999999999998863
        },
        {
          "name": "E3",
          "midi": 52,
          "time": 137.19999999999905,
          "velocity": 0.3937007874015748,
          "duration": 0.19999999999998863
        },
        {
          "name": "E4",
          "midi": 64,
          "time": 137.39999999999904,
          "velocity": 0.3937007874015748,
          "duration": 0.19999999999998863
        },
        {
          "name": "G3",
          "midi": 55,
          "time": 137.39999999999904,
          "velocity": 0.3937007874015748,
          "duration": 0.19999999999998863
        },
        {
          "name": "A3",
          "midi": 57,
          "time": 137.59999999999903,
          "velocity": 0.3937007874015748,
          "duration": 0.5999999999999943
        },
        {
          "name": "F3",
          "midi": 53,
          "time": 137.59999999999903,
          "velocity": 0.3937007874015748,
          "duration": 0.5999999999999943
        },
        {
          "name": "D4",
          "midi": 62,
          "time": 138.19999999999902,
          "velocity": 0.3937007874015748,
          "duration": 0.19999999999998863
        },
        {
          "name": "A3",
          "midi": 57,
          "time": 138.19999999999902,
          "velocity": 0.3937007874015748,
          "duration": 0.19999999999998863
        },
        {
          "name": "A3",
          "midi": 57,
          "time": 138.399999999999,
          "velocity": 0.3937007874015748,
          "duration": 0.8000000000000114
        },
        {
          "name": "F3",
          "midi": 53,
          "time": 138.399999999999,
          "velocity": 0.3937007874015748,
          "duration": 0.8000000000000114
        },
        {
          "name": "F4",
          "midi": 65,
          "time": 139.19999999999902,
          "velocity": 0.3937007874015748,
          "duration": 0.8000000000000114
        },
        {
          "name": "A3",
          "midi": 57,
          "time": 139.19999999999902,
          "velocity": 0.3937007874015748,
          "duration": 1
        },
        {
          "name": "C4",
          "midi": 60,
          "time": 140.19999999999902,
          "velocity": 0.3937007874015748,
          "duration": 0.19999999999998863
        },
        {
          "name": "G3",
          "midi": 55,
          "time": 140.19999999999902,
          "velocity": 0.3937007874015748,
          "duration": 0.19999999999998863
        },
        {
          "name": "F3",
          "midi": 53,
          "time": 140.399999999999,
          "velocity": 0.3937007874015748,
          "duration": 0.19999999999998863
        },
        {
          "name": "C3",
          "midi": 48,
          "time": 140.399999999999,
          "velocity": 0.3937007874015748,
          "duration": 0.19999999999998863
        },
        {
          "name": "G3",
          "midi": 55,
          "time": 140.599999999999,
          "velocity": 0.3937007874015748,
          "duration": 0.19999999999998863
        },
        {
          "name": "D3",
          "midi": 50,
          "time": 140.599999999999,
          "velocity": 0.3937007874015748,
          "duration": 0.19999999999998863
        },
        {
          "name": "A3",
          "midi": 57,
          "time": 140.799999999999,
          "velocity": 0.3937007874015748,
          "duration": 0.5999999999999943
        },
        {
          "name": "F3",
          "midi": 53,
          "time": 140.799999999999,
          "velocity": 0.3937007874015748,
          "duration": 0.5999999999999943
        },
        {
          "name": "D4",
          "midi": 62,
          "time": 141.39999999999898,
          "velocity": 0.3937007874015748,
          "duration": 0.19999999999998863
        },
        {
          "name": "E3",
          "midi": 52,
          "time": 141.39999999999898,
          "velocity": 0.3937007874015748,
          "duration": 0.19999999999998863
        },
        {
          "name": "A3",
          "midi": 57,
          "time": 141.59999999999897,
          "velocity": 0.3937007874015748,
          "duration": 0.8000000000000114
        },
        {
          "name": "F3",
          "midi": 53,
          "time": 141.59999999999897,
          "velocity": 0.3937007874015748,
          "duration": 0.8000000000000114
        },
        {
          "name": "F4",
          "midi": 65,
          "time": 142.39999999999898,
          "velocity": 0.3937007874015748,
          "duration": 0.5999999999999943
        },
        {
          "name": "A3",
          "midi": 57,
          "time": 142.39999999999898,
          "velocity": 0.3937007874015748,
          "duration": 0.5999999999999943
        },
        {
          "name": "C4",
          "midi": 60,
          "time": 142.99999999999898,
          "velocity": 0.3937007874015748,
          "duration": 0.09999999999999432
        },
        {
          "name": "D4",
          "midi": 62,
          "time": 143.09999999999897,
          "velocity": 0.3937007874015748,
          "duration": 0.09999999999999432
        },
        {
          "name": "E4",
          "midi": 64,
          "time": 143.19999999999897,
          "velocity": 0.3937007874015748,
          "duration": 0.19999999999998863
        },
        {
          "name": "G3",
          "midi": 55,
          "time": 143.19999999999897,
          "velocity": 0.3937007874015748,
          "duration": 0.19999999999998863
        },
        {
          "name": "F4",
          "midi": 65,
          "time": 143.39999999999895,
          "velocity": 0.3937007874015748,
          "duration": 0.19999999999998863
        },
        {
          "name": "G3",
          "midi": 55,
          "time": 143.39999999999895,
          "velocity": 0.3937007874015748,
          "duration": 0.19999999999998863
        },
        {
          "name": "C4",
          "midi": 60,
          "time": 143.59999999999894,
          "velocity": 0.3937007874015748,
          "duration": 0.19999999999998863
        },
        {
          "name": "E3",
          "midi": 52,
          "time": 143.59999999999894,
          "velocity": 0.3937007874015748,
          "duration": 0.19999999999998863
        },
        {
          "name": "E4",
          "midi": 64,
          "time": 143.79999999999893,
          "velocity": 0.3937007874015748,
          "duration": 0.19999999999998863
        },
        {
          "name": "G3",
          "midi": 55,
          "time": 143.79999999999893,
          "velocity": 0.3937007874015748,
          "duration": 0.19999999999998863
        },
        {
          "name": "D4",
          "midi": 62,
          "time": 143.99999999999892,
          "velocity": 0.3937007874015748,
          "duration": 0.5999999999999943
        },
        {
          "name": "A#3",
          "midi": 58,
          "time": 143.99999999999892,
          "velocity": 0.3937007874015748,
          "duration": 0.5999999999999943
        },
        {
          "name": "A4",
          "midi": 69,
          "time": 144.59999999999891,
          "velocity": 0.3937007874015748,
          "duration": 0.19999999999998863
        },
        {
          "name": "D4",
          "midi": 62,
          "time": 144.59999999999891,
          "velocity": 0.3937007874015748,
          "duration": 0.19999999999998863
        },
        {
          "name": "D4",
          "midi": 62,
          "time": 144.7999999999989,
          "velocity": 0.3937007874015748,
          "duration": 1
        },
        {
          "name": "A#3",
          "midi": 58,
          "time": 144.7999999999989,
          "velocity": 0.3937007874015748,
          "duration": 1
        },
        {
          "name": "F3",
          "midi": 53,
          "time": 145.7999999999989,
          "velocity": 0.3937007874015748,
          "duration": 0.19999999999998863
        },
        {
          "name": "D3",
          "midi": 50,
          "time": 145.7999999999989,
          "velocity": 0.3937007874015748,
          "duration": 0.19999999999998863
        },
        {
          "name": "C4",
          "midi": 60,
          "time": 145.9999999999989,
          "velocity": 0.3937007874015748,
          "duration": 0.5999999999999943
        },
        {
          "name": "G3",
          "midi": 55,
          "time": 145.9999999999989,
          "velocity": 0.3937007874015748,
          "duration": 0.5999999999999943
        },
        {
          "name": "F4",
          "midi": 65,
          "time": 146.5999999999989,
          "velocity": 0.3937007874015748,
          "duration": 0.19999999999998863
        },
        {
          "name": "C4",
          "midi": 60,
          "time": 146.5999999999989,
          "velocity": 0.3937007874015748,
          "duration": 0.19999999999998863
        },
        {
          "name": "A#3",
          "midi": 58,
          "time": 146.79999999999887,
          "velocity": 0.3937007874015748,
          "duration": 0.19999999999998863
        },
        {
          "name": "F3",
          "midi": 53,
          "time": 146.79999999999887,
          "velocity": 0.3937007874015748,
          "duration": 0.19999999999998863
        },
        {
          "name": "C4",
          "midi": 60,
          "time": 146.99999999999886,
          "velocity": 0.3937007874015748,
          "duration": 0.19999999999998863
        },
        {
          "name": "G3",
          "midi": 55,
          "time": 146.99999999999886,
          "velocity": 0.3937007874015748,
          "duration": 0.19999999999998863
        },
        {
          "name": "F4",
          "midi": 65,
          "time": 147.19999999999885,
          "velocity": 0.3937007874015748,
          "duration": 0.5999999999999943
        },
        {
          "name": "F3",
          "midi": 53,
          "time": 147.19999999999885,
          "velocity": 0.3937007874015748,
          "duration": 0.5999999999999943
        },
        {
          "name": "D4",
          "midi": 62,
          "time": 147.19999999999885,
          "velocity": 0.3937007874015748,
          "duration": 0.5999999999999943
        },
        {
          "name": "A4",
          "midi": 69,
          "time": 147.79999999999885,
          "velocity": 0.3937007874015748,
          "duration": 0.19999999999998863
        },
        {
          "name": "A3",
          "midi": 57,
          "time": 147.79999999999885,
          "velocity": 0.3937007874015748,
          "duration": 0.19999999999998863
        },
        {
          "name": "F4",
          "midi": 65,
          "time": 147.79999999999885,
          "velocity": 0.3937007874015748,
          "duration": 0.19999999999998863
        },
        {
          "name": "F4",
          "midi": 65,
          "time": 147.99999999999883,
          "velocity": 0.3937007874015748,
          "duration": 0.8000000000000114
        },
        {
          "name": "F3",
          "midi": 53,
          "time": 147.99999999999883,
          "velocity": 0.3937007874015748,
          "duration": 0.8000000000000114
        },
        {
          "name": "D4",
          "midi": 62,
          "time": 147.99999999999883,
          "velocity": 0.3937007874015748,
          "duration": 0.8000000000000114
        },
        {
          "name": "D5",
          "midi": 74,
          "time": 148.79999999999885,
          "velocity": 0.3937007874015748,
          "duration": 0.5999999999999943
        },
        {
          "name": "F4",
          "midi": 65,
          "time": 148.79999999999885,
          "velocity": 0.3937007874015748,
          "duration": 0.5999999999999943
        },
        {
          "name": "G4",
          "midi": 67,
          "time": 149.39999999999884,
          "velocity": 0.3937007874015748,
          "duration": 0.09999999999999432
        },
        {
          "name": "A4",
          "midi": 69,
          "time": 149.49999999999883,
          "velocity": 0.3937007874015748,
          "duration": 0.09999999999999432
        },
        {
          "name": "C5",
          "midi": 72,
          "time": 149.59999999999883,
          "velocity": 0.3937007874015748,
          "duration": 0.19999999999998863
        },
        {
          "name": "E4",
          "midi": 64,
          "time": 149.59999999999883,
          "velocity": 0.3937007874015748,
          "duration": 0.19999999999998863
        },
        {
          "name": "G4",
          "midi": 67,
          "time": 149.79999999999882,
          "velocity": 0.3937007874015748,
          "duration": 0.19999999999998863
        },
        {
          "name": "E4",
          "midi": 64,
          "time": 149.79999999999882,
          "velocity": 0.3937007874015748,
          "duration": 0.19999999999998863
        },
        {
          "name": "E4",
          "midi": 64,
          "time": 149.9999999999988,
          "velocity": 0.3937007874015748,
          "duration": 0.19999999999998863
        },
        {
          "name": "C4",
          "midi": 60,
          "time": 149.9999999999988,
          "velocity": 0.3937007874015748,
          "duration": 0.19999999999998863
        },
        {
          "name": "G4",
          "midi": 67,
          "time": 150.1999999999988,
          "velocity": 0.3937007874015748,
          "duration": 0.19999999999998863
        },
        {
          "name": "E4",
          "midi": 64,
          "time": 150.1999999999988,
          "velocity": 0.3937007874015748,
          "duration": 0.19999999999998863
        },
        {
          "name": "F4",
          "midi": 65,
          "time": 150.39999999999878,
          "velocity": 0.3937007874015748,
          "duration": 0.5999999999999943
        },
        {
          "name": "F3",
          "midi": 53,
          "time": 150.39999999999878,
          "velocity": 0.3937007874015748,
          "duration": 0.5999999999999943
        },
        {
          "name": "D4",
          "midi": 62,
          "time": 150.39999999999878,
          "velocity": 0.3937007874015748,
          "duration": 0.5999999999999943
        },
        {
          "name": "A4",
          "midi": 69,
          "time": 150.99999999999878,
          "velocity": 0.3937007874015748,
          "duration": 0.19999999999998863
        },
        {
          "name": "A3",
          "midi": 57,
          "time": 150.99999999999878,
          "velocity": 0.3937007874015748,
          "duration": 0.19999999999998863
        },
        {
          "name": "F4",
          "midi": 65,
          "time": 150.99999999999878,
          "velocity": 0.3937007874015748,
          "duration": 0.19999999999998863
        },
        {
          "name": "F4",
          "midi": 65,
          "time": 151.19999999999877,
          "velocity": 0.3937007874015748,
          "duration": 0.8000000000000114
        },
        {
          "name": "F3",
          "midi": 53,
          "time": 151.19999999999877,
          "velocity": 0.3937007874015748,
          "duration": 0.8000000000000114
        },
        {
          "name": "D4",
          "midi": 62,
          "time": 151.19999999999877,
          "velocity": 0.3937007874015748,
          "duration": 0.8000000000000114
        },
        {
          "name": "D5",
          "midi": 74,
          "time": 151.99999999999878,
          "velocity": 0.3937007874015748,
          "duration": 0.8000000000000114
        },
        {
          "name": "F4",
          "midi": 65,
          "time": 151.99999999999878,
          "velocity": 0.3937007874015748,
          "duration": 0.8000000000000114
        },
        {
          "name": "G4",
          "midi": 67,
          "time": 152.89999999999878,
          "velocity": 0.3937007874015748,
          "duration": 0.09999999999999432
        },
        {
          "name": "F4",
          "midi": 65,
          "time": 152.99999999999878,
          "velocity": 0.3937007874015748,
          "duration": 0.09999999999999432
        },
        {
          "name": "C4",
          "midi": 60,
          "time": 153.09999999999877,
          "velocity": 0.3937007874015748,
          "duration": 0.09999999999999432
        },
        {
          "name": "A#3",
          "midi": 58,
          "time": 153.19999999999877,
          "velocity": 0.3937007874015748,
          "duration": 0.09999999999999432
        },
        {
          "name": "F4",
          "midi": 65,
          "time": 153.29999999999876,
          "velocity": 0.3937007874015748,
          "duration": 0.09999999999999432
        },
        {
          "name": "A3",
          "midi": 57,
          "time": 153.39999999999876,
          "velocity": 0.3937007874015748,
          "duration": 0.09999999999999432
        },
        {
          "name": "C4",
          "midi": 60,
          "time": 153.49999999999875,
          "velocity": 0.3937007874015748,
          "duration": 0.09999999999999432
        },
        {
          "name": "F4",
          "midi": 65,
          "time": 153.59999999999874,
          "velocity": 0.3937007874015748,
          "duration": 0.5999999999999943
        },
        {
          "name": "F3",
          "midi": 53,
          "time": 153.59999999999874,
          "velocity": 0.3937007874015748,
          "duration": 0.5999999999999943
        },
        {
          "name": "D4",
          "midi": 62,
          "time": 153.59999999999874,
          "velocity": 0.3937007874015748,
          "duration": 0.5999999999999943
        },
        {
          "name": "A4",
          "midi": 69,
          "time": 154.19999999999874,
          "velocity": 0.3937007874015748,
          "duration": 0.19999999999998863
        },
        {
          "name": "A3",
          "midi": 57,
          "time": 154.19999999999874,
          "velocity": 0.3937007874015748,
          "duration": 0.19999999999998863
        },
        {
          "name": "F4",
          "midi": 65,
          "time": 154.19999999999874,
          "velocity": 0.3937007874015748,
          "duration": 0.19999999999998863
        },
        {
          "name": "F4",
          "midi": 65,
          "time": 154.39999999999873,
          "velocity": 0.3937007874015748,
          "duration": 0.8000000000000114
        },
        {
          "name": "F3",
          "midi": 53,
          "time": 154.39999999999873,
          "velocity": 0.3937007874015748,
          "duration": 0.8000000000000114
        },
        {
          "name": "D4",
          "midi": 62,
          "time": 154.39999999999873,
          "velocity": 0.3937007874015748,
          "duration": 0.8000000000000114
        },
        {
          "name": "D5",
          "midi": 74,
          "time": 155.19999999999874,
          "velocity": 0.3937007874015748,
          "duration": 0.5999999999999943
        },
        {
          "name": "F4",
          "midi": 65,
          "time": 155.19999999999874,
          "velocity": 0.3937007874015748,
          "duration": 0.5999999999999943
        },
        {
          "name": "C5",
          "midi": 72,
          "time": 155.79999999999873,
          "velocity": 0.3937007874015748,
          "duration": 0.09999999999999432
        },
        {
          "name": "D5",
          "midi": 74,
          "time": 155.89999999999873,
          "velocity": 0.3937007874015748,
          "duration": 0.09999999999999432
        },
        {
          "name": "E5",
          "midi": 76,
          "time": 155.99999999999872,
          "velocity": 0.3937007874015748,
          "duration": 0.19999999999998863
        },
        {
          "name": "G4",
          "midi": 67,
          "time": 155.99999999999872,
          "velocity": 0.3937007874015748,
          "duration": 0.19999999999998863
        },
        {
          "name": "F5",
          "midi": 77,
          "time": 156.1999999999987,
          "velocity": 0.3937007874015748,
          "duration": 0.19999999999998863
        },
        {
          "name": "G4",
          "midi": 67,
          "time": 156.1999999999987,
          "velocity": 0.3937007874015748,
          "duration": 0.19999999999998863
        },
        {
          "name": "A5",
          "midi": 81,
          "time": 156.3999999999987,
          "velocity": 0.3937007874015748,
          "duration": 0.19999999999998863
        },
        {
          "name": "E5",
          "midi": 76,
          "time": 156.3999999999987,
          "velocity": 0.3937007874015748,
          "duration": 0.19999999999998863
        },
        {
          "name": "C5",
          "midi": 72,
          "time": 156.5999999999987,
          "velocity": 0.3937007874015748,
          "duration": 0.19999999999998863
        },
        {
          "name": "G4",
          "midi": 67,
          "time": 156.5999999999987,
          "velocity": 0.3937007874015748,
          "duration": 0.19999999999998863
        },
        {
          "name": "D5",
          "midi": 74,
          "time": 156.79999999999868,
          "velocity": 0.3937007874015748,
          "duration": 0.5999999999999943
        },
        {
          "name": "A#4",
          "midi": 70,
          "time": 156.79999999999868,
          "velocity": 0.3937007874015748,
          "duration": 0.5999999999999943
        },
        {
          "name": "A5",
          "midi": 81,
          "time": 157.39999999999867,
          "velocity": 0.3937007874015748,
          "duration": 0.19999999999998863
        },
        {
          "name": "A4",
          "midi": 69,
          "time": 157.39999999999867,
          "velocity": 0.3937007874015748,
          "duration": 0.19999999999998863
        },
        {
          "name": "D5",
          "midi": 74,
          "time": 157.59999999999866,
          "velocity": 0.3937007874015748,
          "duration": 0.8000000000000114
        },
        {
          "name": "A#4",
          "midi": 70,
          "time": 157.59999999999866,
          "velocity": 0.3937007874015748,
          "duration": 0.8000000000000114
        },
        {
          "name": "D4",
          "midi": 62,
          "time": 172.99999999999866,
          "velocity": 0.3937007874015748,
          "duration": 0.19999999999998863
        },
        {
          "name": "G3",
          "midi": 55,
          "time": 173.39999999999864,
          "velocity": 0.3937007874015748,
          "duration": 0.19999999999998863
        },
        {
          "name": "D4",
          "midi": 62,
          "time": 173.79999999999862,
          "velocity": 0.3937007874015748,
          "duration": 0.19999999999998863
        },
        {
          "name": "G3",
          "midi": 55,
          "time": 174.1999999999986,
          "velocity": 0.3937007874015748,
          "duration": 0.19999999999998863
        },
        {
          "name": "E4",
          "midi": 64,
          "time": 174.59999999999857,
          "velocity": 0.3937007874015748,
          "duration": 0.19999999999998863
        },
        {
          "name": "G3",
          "midi": 55,
          "time": 174.99999999999855,
          "velocity": 0.3937007874015748,
          "duration": 0.19999999999998863
        },
        {
          "name": "E4",
          "midi": 64,
          "time": 175.39999999999853,
          "velocity": 0.3937007874015748,
          "duration": 0.19999999999998863
        },
        {
          "name": "G3",
          "midi": 55,
          "time": 175.7999999999985,
          "velocity": 0.3937007874015748,
          "duration": 0.19999999999998863
        },
        {
          "name": "F4",
          "midi": 65,
          "time": 176.19999999999848,
          "velocity": 0.3937007874015748,
          "duration": 0.19999999999998863
        },
        {
          "name": "A3",
          "midi": 57,
          "time": 176.59999999999846,
          "velocity": 0.3937007874015748,
          "duration": 0.19999999999998863
        },
        {
          "name": "F4",
          "midi": 65,
          "time": 176.99999999999844,
          "velocity": 0.3937007874015748,
          "duration": 0.19999999999998863
        },
        {
          "name": "G3",
          "midi": 55,
          "time": 177.3999999999984,
          "velocity": 0.3937007874015748,
          "duration": 0.19999999999998863
        },
        {
          "name": "D4",
          "midi": 62,
          "time": 177.7999999999984,
          "velocity": 0.3937007874015748,
          "duration": 0.19999999999998863
        },
        {
          "name": "E3",
          "midi": 52,
          "time": 178.19999999999837,
          "velocity": 0.3937007874015748,
          "duration": 0.19999999999998863
        },
        {
          "name": "A3",
          "midi": 57,
          "time": 178.59999999999835,
          "velocity": 0.3937007874015748,
          "duration": 0.19999999999998863
        },
        {
          "name": "C3",
          "midi": 48,
          "time": 178.99999999999832,
          "velocity": 0.3937007874015748,
          "duration": 0.19999999999998863
        },
        {
          "name": "F#4",
          "midi": 66,
          "time": 198.39999999999833,
          "velocity": 0.3937007874015748,
          "duration": 0.09999999999999432
        },
        {
          "name": "G#4",
          "midi": 68,
          "time": 198.49999999999832,
          "velocity": 0.3937007874015748,
          "duration": 0.09999999999999432
        },
        {
          "name": "A#4",
          "midi": 70,
          "time": 198.59999999999832,
          "velocity": 0.3937007874015748,
          "duration": 0.09999999999999432
        },
        {
          "name": "D#5",
          "midi": 75,
          "time": 198.6999999999983,
          "velocity": 0.3937007874015748,
          "duration": 0.09999999999999432
        },
        {
          "name": "A#4",
          "midi": 70,
          "time": 198.7999999999983,
          "velocity": 0.3937007874015748,
          "duration": 0.09999999999999432
        },
        {
          "name": "C#5",
          "midi": 73,
          "time": 198.8999999999983,
          "velocity": 0.3937007874015748,
          "duration": 0.09999999999999432
        },
        {
          "name": "G#4",
          "midi": 68,
          "time": 198.9999999999983,
          "velocity": 0.3937007874015748,
          "duration": 0.09999999999999432
        },
        {
          "name": "A#4",
          "midi": 70,
          "time": 199.0999999999983,
          "velocity": 0.3937007874015748,
          "duration": 0.09999999999999432
        },
        {
          "name": "F#4",
          "midi": 66,
          "time": 199.19999999999828,
          "velocity": 0.3937007874015748,
          "duration": 0.09999999999999432
        },
        {
          "name": "G#4",
          "midi": 68,
          "time": 199.29999999999828,
          "velocity": 0.3937007874015748,
          "duration": 0.09999999999999432
        },
        {
          "name": "F4",
          "midi": 65,
          "time": 199.39999999999827,
          "velocity": 0.3937007874015748,
          "duration": 0.09999999999999432
        },
        {
          "name": "F#4",
          "midi": 66,
          "time": 199.49999999999827,
          "velocity": 0.3937007874015748,
          "duration": 0.09999999999999432
        },
        {
          "name": "D#4",
          "midi": 63,
          "time": 199.59999999999826,
          "velocity": 0.3937007874015748,
          "duration": 0.09999999999999432
        },
        {
          "name": "F4",
          "midi": 65,
          "time": 199.69999999999825,
          "velocity": 0.3937007874015748,
          "duration": 0.09999999999999432
        },
        {
          "name": "C#4",
          "midi": 61,
          "time": 199.79999999999825,
          "velocity": 0.3937007874015748,
          "duration": 0.09999999999999432
        },
        {
          "name": "D#4",
          "midi": 63,
          "time": 199.89999999999824,
          "velocity": 0.3937007874015748,
          "duration": 0.09999999999999432
        },
        {
          "name": "G#3",
          "midi": 56,
          "time": 199.99999999999824,
          "velocity": 0.3937007874015748,
          "duration": 0.09999999999999432
        },
        {
          "name": "A#3",
          "midi": 58,
          "time": 200.09999999999823,
          "velocity": 0.3937007874015748,
          "duration": 0.09999999999999432
        },
        {
          "name": "F#3",
          "midi": 54,
          "time": 200.19999999999823,
          "velocity": 0.3937007874015748,
          "duration": 0.09999999999999432
        },
        {
          "name": "C#4",
          "midi": 61,
          "time": 200.29999999999822,
          "velocity": 0.3937007874015748,
          "duration": 0.09999999999999432
        },
        {
          "name": "F#4",
          "midi": 66,
          "time": 200.39999999999822,
          "velocity": 0.3937007874015748,
          "duration": 0.09999999999999432
        },
        {
          "name": "F4",
          "midi": 65,
          "time": 200.4999999999982,
          "velocity": 0.3937007874015748,
          "duration": 0.09999999999999432
        },
        {
          "name": "C#4",
          "midi": 61,
          "time": 200.5999999999982,
          "velocity": 0.3937007874015748,
          "duration": 0.09999999999999432
        },
        {
          "name": "D#4",
          "midi": 63,
          "time": 200.6999999999982,
          "velocity": 0.3937007874015748,
          "duration": 0.09999999999999432
        },
        {
          "name": "A#3",
          "midi": 58,
          "time": 200.7999999999982,
          "velocity": 0.3937007874015748,
          "duration": 0.09999999999999432
        },
        {
          "name": "C#4",
          "midi": 61,
          "time": 200.8999999999982,
          "velocity": 0.3937007874015748,
          "duration": 0.09999999999999432
        },
        {
          "name": "D#4",
          "midi": 63,
          "time": 200.99999999999818,
          "velocity": 0.3937007874015748,
          "duration": 0.09999999999999432
        },
        {
          "name": "F4",
          "midi": 65,
          "time": 201.09999999999818,
          "velocity": 0.3937007874015748,
          "duration": 0.09999999999999432
        },
        {
          "name": "F#4",
          "midi": 66,
          "time": 201.19999999999817,
          "velocity": 0.3937007874015748,
          "duration": 0.09999999999999432
        },
        {
          "name": "G#4",
          "midi": 68,
          "time": 201.29999999999816,
          "velocity": 0.3937007874015748,
          "duration": 0.09999999999999432
        },
        {
          "name": "A#4",
          "midi": 70,
          "time": 201.39999999999816,
          "velocity": 0.3937007874015748,
          "duration": 0.09999999999999432
        },
        {
          "name": "B4",
          "midi": 71,
          "time": 201.49999999999815,
          "velocity": 0.3937007874015748,
          "duration": 0.09999999999999432
        },
        {
          "name": "A#4",
          "midi": 70,
          "time": 201.59999999999815,
          "velocity": 0.3937007874015748,
          "duration": 0.09999999999999432
        },
        {
          "name": "F#4",
          "midi": 66,
          "time": 201.69999999999814,
          "velocity": 0.3937007874015748,
          "duration": 0.09999999999999432
        },
        {
          "name": "A#4",
          "midi": 70,
          "time": 201.79999999999814,
          "velocity": 0.3937007874015748,
          "duration": 0.09999999999999432
        },
        {
          "name": "G#4",
          "midi": 68,
          "time": 201.89999999999813,
          "velocity": 0.3937007874015748,
          "duration": 0.09999999999999432
        },
        {
          "name": "F4",
          "midi": 65,
          "time": 201.99999999999812,
          "velocity": 0.3937007874015748,
          "duration": 0.09999999999999432
        },
        {
          "name": "G#4",
          "midi": 68,
          "time": 202.09999999999812,
          "velocity": 0.3937007874015748,
          "duration": 0.09999999999999432
        },
        {
          "name": "F#4",
          "midi": 66,
          "time": 202.1999999999981,
          "velocity": 0.3937007874015748,
          "duration": 0.09999999999999432
        },
        {
          "name": "D#4",
          "midi": 63,
          "time": 202.2999999999981,
          "velocity": 0.3937007874015748,
          "duration": 0.09999999999999432
        },
        {
          "name": "F#4",
          "midi": 66,
          "time": 202.3999999999981,
          "velocity": 0.3937007874015748,
          "duration": 0.09999999999999432
        },
        {
          "name": "F4",
          "midi": 65,
          "time": 202.4999999999981,
          "velocity": 0.3937007874015748,
          "duration": 0.09999999999999432
        },
        {
          "name": "C#4",
          "midi": 61,
          "time": 202.5999999999981,
          "velocity": 0.3937007874015748,
          "duration": 0.09999999999999432
        },
        {
          "name": "D#4",
          "midi": 63,
          "time": 202.69999999999808,
          "velocity": 0.3937007874015748,
          "duration": 0.09999999999999432
        },
        {
          "name": "C#4",
          "midi": 61,
          "time": 202.79999999999808,
          "velocity": 0.3937007874015748,
          "duration": 0.09999999999999432
        },
        {
          "name": "G#3",
          "midi": 56,
          "time": 202.89999999999807,
          "velocity": 0.3937007874015748,
          "duration": 0.09999999999999432
        },
        {
          "name": "A#3",
          "midi": 58,
          "time": 202.99999999999807,
          "velocity": 0.3937007874015748,
          "duration": 0.09999999999999432
        },
        {
          "name": "F#3",
          "midi": 54,
          "time": 203.09999999999806,
          "velocity": 0.3937007874015748,
          "duration": 0.09999999999999432
        },
        {
          "name": "G#3",
          "midi": 56,
          "time": 203.19999999999806,
          "velocity": 0.3937007874015748,
          "duration": 0.09999999999999432
        },
        {
          "name": "F3",
          "midi": 53,
          "time": 203.29999999999805,
          "velocity": 0.3937007874015748,
          "duration": 0.09999999999999432
        },
        {
          "name": "F#3",
          "midi": 54,
          "time": 203.39999999999804,
          "velocity": 0.3937007874015748,
          "duration": 0.09999999999999432
        },
        {
          "name": "D#3",
          "midi": 51,
          "time": 203.49999999999804,
          "velocity": 0.3937007874015748,
          "duration": 0.09999999999999432
        },
        {
          "name": "F3",
          "midi": 53,
          "time": 203.59999999999803,
          "velocity": 0.3937007874015748,
          "duration": 0.09999999999999432
        },
        {
          "name": "C#3",
          "midi": 49,
          "time": 203.69999999999803,
          "velocity": 0.3937007874015748,
          "duration": 0.09999999999999432
        },
        {
          "name": "D#3",
          "midi": 51,
          "time": 203.79999999999802,
          "velocity": 0.3937007874015748,
          "duration": 0.09999999999999432
        },
        {
          "name": "A#2",
          "midi": 46,
          "time": 203.89999999999802,
          "velocity": 0.3937007874015748,
          "duration": 0.09999999999999432
        },
        {
          "name": "C#3",
          "midi": 49,
          "time": 203.999999999998,
          "velocity": 0.3937007874015748,
          "duration": 0.09999999999999432
        },
        {
          "name": "G#2",
          "midi": 44,
          "time": 204.099999999998,
          "velocity": 0.3937007874015748,
          "duration": 0.09999999999999432
        },
        {
          "name": "A#2",
          "midi": 46,
          "time": 204.199999999998,
          "velocity": 0.3937007874015748,
          "duration": 0.09999999999999432
        },
        {
          "name": "D#3",
          "midi": 51,
          "time": 204.299999999998,
          "velocity": 0.3937007874015748,
          "duration": 0.09999999999999432
        },
        {
          "name": "G#2",
          "midi": 44,
          "time": 204.399999999998,
          "velocity": 0.3937007874015748,
          "duration": 0.09999999999999432
        },
        {
          "name": "A#2",
          "midi": 46,
          "time": 204.49999999999798,
          "velocity": 0.3937007874015748,
          "duration": 0.09999999999999432
        },
        {
          "name": "D#3",
          "midi": 51,
          "time": 204.59999999999798,
          "velocity": 0.3937007874015748,
          "duration": 0.09999999999999432
        },
        {
          "name": "F3",
          "midi": 53,
          "time": 204.69999999999797,
          "velocity": 0.3937007874015748,
          "duration": 0.09999999999999432
        },
        {
          "name": "A#3",
          "midi": 58,
          "time": 204.79999999999797,
          "velocity": 0.3937007874015748,
          "duration": 0.09999999999999432
        },
        {
          "name": "G#3",
          "midi": 56,
          "time": 204.89999999999796,
          "velocity": 0.3937007874015748,
          "duration": 0.09999999999999432
        },
        {
          "name": "A#3",
          "midi": 58,
          "time": 204.99999999999795,
          "velocity": 0.3937007874015748,
          "duration": 0.09999999999999432
        },
        {
          "name": "D#4",
          "midi": 63,
          "time": 205.09999999999795,
          "velocity": 0.3937007874015748,
          "duration": 0.19999999999998863
        },
        {
          "name": "A#3",
          "midi": 58,
          "time": 205.29999999999794,
          "velocity": 0.3937007874015748,
          "duration": 0.09999999999999432
        },
        {
          "name": "G#3",
          "midi": 56,
          "time": 205.39999999999793,
          "velocity": 0.3937007874015748,
          "duration": 0.09999999999999432
        },
        {
          "name": "A#3",
          "midi": 58,
          "time": 205.49999999999793,
          "velocity": 0.3937007874015748,
          "duration": 0.09999999999999432
        },
        {
          "name": "C#4",
          "midi": 61,
          "time": 205.59999999999792,
          "velocity": 0.3937007874015748,
          "duration": 0.09999999999999432
        },
        {
          "name": "D#4",
          "midi": 63,
          "time": 205.6999999999979,
          "velocity": 0.3937007874015748,
          "duration": 0.09999999999999432
        },
        {
          "name": "F4",
          "midi": 65,
          "time": 205.7999999999979,
          "velocity": 0.3937007874015748,
          "duration": 0.19999999999998863
        },
        {
          "name": "A#3",
          "midi": 58,
          "time": 205.9999999999979,
          "velocity": 0.3937007874015748,
          "duration": 0.09999999999999432
        },
        {
          "name": "G#3",
          "midi": 56,
          "time": 206.0999999999979,
          "velocity": 0.3937007874015748,
          "duration": 0.09999999999999432
        },
        {
          "name": "A#3",
          "midi": 58,
          "time": 206.19999999999789,
          "velocity": 0.3937007874015748,
          "duration": 0.09999999999999432
        },
        {
          "name": "D#4",
          "midi": 63,
          "time": 206.29999999999788,
          "velocity": 0.3937007874015748,
          "duration": 0.09999999999999432
        },
        {
          "name": "A#3",
          "midi": 58,
          "time": 206.39999999999787,
          "velocity": 0.3937007874015748,
          "duration": 0.09999999999999432
        },
        {
          "name": "G#3",
          "midi": 56,
          "time": 206.49999999999787,
          "velocity": 0.3937007874015748,
          "duration": 0.09999999999999432
        },
        {
          "name": "A#3",
          "midi": 58,
          "time": 206.59999999999786,
          "velocity": 0.3937007874015748,
          "duration": 0.09999999999999432
        },
        {
          "name": "F4",
          "midi": 65,
          "time": 206.69999999999786,
          "velocity": 0.3937007874015748,
          "duration": 0.09999999999999432
        },
        {
          "name": "F#4",
          "midi": 66,
          "time": 206.79999999999785,
          "velocity": 0.3937007874015748,
          "duration": 0.09999999999999432
        },
        {
          "name": "A#3",
          "midi": 58,
          "time": 206.89999999999785,
          "velocity": 0.3937007874015748,
          "duration": 0.09999999999999432
        },
        {
          "name": "F4",
          "midi": 65,
          "time": 206.99999999999784,
          "velocity": 0.3937007874015748,
          "duration": 0.09999999999999432
        },
        {
          "name": "F#3",
          "midi": 54,
          "time": 207.09999999999783,
          "velocity": 0.3937007874015748,
          "duration": 0.09999999999999432
        },
        {
          "name": "D#4",
          "midi": 63,
          "time": 207.19999999999783,
          "velocity": 0.3937007874015748,
          "duration": 0.09999999999999432
        },
        {
          "name": "F3",
          "midi": 53,
          "time": 207.29999999999782,
          "velocity": 0.3937007874015748,
          "duration": 0.09999999999999432
        },
        {
          "name": "C#4",
          "midi": 61,
          "time": 207.39999999999782,
          "velocity": 0.3937007874015748,
          "duration": 0.09999999999999432
        },
        {
          "name": "D#3",
          "midi": 51,
          "time": 207.4999999999978,
          "velocity": 0.3937007874015748,
          "duration": 0.09999999999999432
        },
        {
          "name": "A#3",
          "midi": 58,
          "time": 207.5999999999978,
          "velocity": 0.3937007874015748,
          "duration": 0.09999999999999432
        },
        {
          "name": "G#3",
          "midi": 56,
          "time": 207.6999999999978,
          "velocity": 0.3937007874015748,
          "duration": 0.09999999999999432
        },
        {
          "name": "F#3",
          "midi": 54,
          "time": 207.7999999999978,
          "velocity": 0.3937007874015748,
          "duration": 0.09999999999999432
        },
        {
          "name": "G#3",
          "midi": 56,
          "time": 207.8999999999978,
          "velocity": 0.3937007874015748,
          "duration": 0.09999999999999432
        },
        {
          "name": "D3",
          "midi": 50,
          "time": 207.99999999999778,
          "velocity": 0.3937007874015748,
          "duration": 0.09999999999999432
        },
        {
          "name": "D#3",
          "midi": 51,
          "time": 208.09999999999778,
          "velocity": 0.3937007874015748,
          "duration": 0.09999999999999432
        },
        {
          "name": "F3",
          "midi": 53,
          "time": 208.19999999999777,
          "velocity": 0.3937007874015748,
          "duration": 0.09999999999999432
        },
        {
          "name": "A#3",
          "midi": 58,
          "time": 208.29999999999777,
          "velocity": 0.3937007874015748,
          "duration": 0.09999999999999432
        },
        {
          "name": "D4",
          "midi": 62,
          "time": 208.39999999999776,
          "velocity": 0.3937007874015748,
          "duration": 0.09999999999999432
        },
        {
          "name": "D#4",
          "midi": 63,
          "time": 208.49999999999775,
          "velocity": 0.3937007874015748,
          "duration": 0.09999999999999432
        },
        {
          "name": "F4",
          "midi": 65,
          "time": 208.59999999999775,
          "velocity": 0.3937007874015748,
          "duration": 0.09999999999999432
        },
        {
          "name": "A#4",
          "midi": 70,
          "time": 208.69999999999774,
          "velocity": 0.3937007874015748,
          "duration": 0.09999999999999432
        },
        {
          "name": "F4",
          "midi": 65,
          "time": 208.79999999999774,
          "velocity": 0.3937007874015748,
          "duration": 0.09999999999999432
        },
        {
          "name": "D5",
          "midi": 74,
          "time": 208.89999999999773,
          "velocity": 0.3937007874015748,
          "duration": 0.09999999999999432
        },
        {
          "name": "F4",
          "midi": 65,
          "time": 208.99999999999773,
          "velocity": 0.3937007874015748,
          "duration": 0.09999999999999432
        },
        {
          "name": "D#4",
          "midi": 63,
          "time": 209.09999999999772,
          "velocity": 0.3937007874015748,
          "duration": 0.09999999999999432
        },
        {
          "name": "D4",
          "midi": 62,
          "time": 209.19999999999771,
          "velocity": 0.3937007874015748,
          "duration": 0.09999999999999432
        },
        {
          "name": "D#4",
          "midi": 63,
          "time": 209.2999999999977,
          "velocity": 0.3937007874015748,
          "duration": 0.09999999999999432
        },
        {
          "name": "F4",
          "midi": 65,
          "time": 209.3999999999977,
          "velocity": 0.3937007874015748,
          "duration": 0.09999999999999432
        },
        {
          "name": "A#3",
          "midi": 58,
          "time": 209.4999999999977,
          "velocity": 0.3937007874015748,
          "duration": 0.09999999999999432
        },
        {
          "name": "D4",
          "midi": 62,
          "time": 209.5999999999977,
          "velocity": 0.3937007874015748,
          "duration": 0.09999999999999432
        },
        {
          "name": "D#4",
          "midi": 63,
          "time": 209.6999999999977,
          "velocity": 0.3937007874015748,
          "duration": 0.09999999999999432
        },
        {
          "name": "F4",
          "midi": 65,
          "time": 209.79999999999768,
          "velocity": 0.3937007874015748,
          "duration": 0.09999999999999432
        },
        {
          "name": "D4",
          "midi": 62,
          "time": 209.89999999999768,
          "velocity": 0.3937007874015748,
          "duration": 0.09999999999999432
        },
        {
          "name": "A#3",
          "midi": 58,
          "time": 209.99999999999767,
          "velocity": 0.3937007874015748,
          "duration": 0.09999999999999432
        },
        {
          "name": "G#3",
          "midi": 56,
          "time": 210.09999999999766,
          "velocity": 0.3937007874015748,
          "duration": 0.09999999999999432
        },
        {
          "name": "F#3",
          "midi": 54,
          "time": 210.19999999999766,
          "velocity": 0.3937007874015748,
          "duration": 0.09999999999999432
        },
        {
          "name": "F3",
          "midi": 53,
          "time": 210.29999999999765,
          "velocity": 0.3937007874015748,
          "duration": 0.09999999999999432
        },
        {
          "name": "F#3",
          "midi": 54,
          "time": 210.39999999999765,
          "velocity": 0.3937007874015748,
          "duration": 0.09999999999999432
        },
        {
          "name": "F3",
          "midi": 53,
          "time": 210.49999999999764,
          "velocity": 0.3937007874015748,
          "duration": 0.09999999999999432
        },
        {
          "name": "B2",
          "midi": 47,
          "time": 210.59999999999764,
          "velocity": 0.3937007874015748,
          "duration": 0.09999999999999432
        },
        {
          "name": "D#3",
          "midi": 51,
          "time": 210.69999999999763,
          "velocity": 0.3937007874015748,
          "duration": 0.09999999999999432
        },
        {
          "name": "F3",
          "midi": 53,
          "time": 210.79999999999762,
          "velocity": 0.3937007874015748,
          "duration": 0.09999999999999432
        },
        {
          "name": "D#3",
          "midi": 51,
          "time": 210.89999999999762,
          "velocity": 0.3937007874015748,
          "duration": 0.09999999999999432
        },
        {
          "name": "D3",
          "midi": 50,
          "time": 210.9999999999976,
          "velocity": 0.3937007874015748,
          "duration": 0.09999999999999432
        },
        {
          "name": "D#3",
          "midi": 51,
          "time": 211.0999999999976,
          "velocity": 0.3937007874015748,
          "duration": 0.09999999999999432
        }
      ],
      "controlChanges": {},
      "id": 7,
      "name": "Smooth Synth (Classic)",
      "instrumentNumber": 90,
      "instrument": "pad 3 (polysynth)",
      "instrumentFamily": "synth pad",
      "channelNumber": 7,
      "isPercussion": false
    },
    {
      "startTime": 0,
      "duration": 211.099999999994,
      "length": 1399,
      "notes": [
        {
          "name": "B1",
          "midi": 35,
          "time": 0,
          "velocity": 0.48031496062992124,
          "duration": 0.1
        },
        {
          "name": "B2",
          "midi": 47,
          "time": 0.2,
          "velocity": 0.48031496062992124,
          "duration": 0.10000000000000003
        },
        {
          "name": "F#2",
          "midi": 42,
          "time": 0.4,
          "velocity": 0.48031496062992124,
          "duration": 0.09999999999999998
        },
        {
          "name": "B2",
          "midi": 47,
          "time": 0.5,
          "velocity": 0.48031496062992124,
          "duration": 0.09999999999999998
        },
        {
          "name": "C#3",
          "midi": 49,
          "time": 0.6,
          "velocity": 0.48031496062992124,
          "duration": 0.09999999999999998
        },
        {
          "name": "B1",
          "midi": 35,
          "time": 0.7999999999999999,
          "velocity": 0.48031496062992124,
          "duration": 0.09999999999999998
        },
        {
          "name": "B2",
          "midi": 47,
          "time": 0.8999999999999999,
          "velocity": 0.48031496062992124,
          "duration": 0.09999999999999998
        },
        {
          "name": "B1",
          "midi": 35,
          "time": 1.0999999999999999,
          "velocity": 0.48031496062992124,
          "duration": 0.10000000000000009
        },
        {
          "name": "C#2",
          "midi": 37,
          "time": 1.2,
          "velocity": 0.48031496062992124,
          "duration": 0.10000000000000009
        },
        {
          "name": "F2",
          "midi": 41,
          "time": 1.4000000000000001,
          "velocity": 0.48031496062992124,
          "duration": 0.10000000000000009
        },
        {
          "name": "C#2",
          "midi": 37,
          "time": 1.6000000000000003,
          "velocity": 0.48031496062992124,
          "duration": 0.10000000000000009
        },
        {
          "name": "C#3",
          "midi": 49,
          "time": 1.8000000000000005,
          "velocity": 0.48031496062992124,
          "duration": 0.10000000000000009
        },
        {
          "name": "G#2",
          "midi": 44,
          "time": 2.0000000000000004,
          "velocity": 0.48031496062992124,
          "duration": 0.10000000000000009
        },
        {
          "name": "C#3",
          "midi": 49,
          "time": 2.1000000000000005,
          "velocity": 0.48031496062992124,
          "duration": 0.10000000000000009
        },
        {
          "name": "D#3",
          "midi": 51,
          "time": 2.2000000000000006,
          "velocity": 0.48031496062992124,
          "duration": 0.10000000000000009
        },
        {
          "name": "C#2",
          "midi": 37,
          "time": 2.400000000000001,
          "velocity": 0.48031496062992124,
          "duration": 0.10000000000000009
        },
        {
          "name": "C#3",
          "midi": 49,
          "time": 2.500000000000001,
          "velocity": 0.48031496062992124,
          "duration": 0.10000000000000009
        },
        {
          "name": "C#2",
          "midi": 37,
          "time": 2.700000000000001,
          "velocity": 0.48031496062992124,
          "duration": 0.10000000000000009
        },
        {
          "name": "G#2",
          "midi": 44,
          "time": 2.800000000000001,
          "velocity": 0.48031496062992124,
          "duration": 0.10000000000000009
        },
        {
          "name": "A#2",
          "midi": 46,
          "time": 3.0000000000000013,
          "velocity": 0.48031496062992124,
          "duration": 0.10000000000000009
        },
        {
          "name": "D#2",
          "midi": 39,
          "time": 3.2000000000000015,
          "velocity": 0.48031496062992124,
          "duration": 0.10000000000000009
        },
        {
          "name": "D#3",
          "midi": 51,
          "time": 3.4000000000000017,
          "velocity": 0.48031496062992124,
          "duration": 0.10000000000000009
        },
        {
          "name": "A#2",
          "midi": 46,
          "time": 3.600000000000002,
          "velocity": 0.48031496062992124,
          "duration": 0.10000000000000009
        },
        {
          "name": "D#3",
          "midi": 51,
          "time": 3.700000000000002,
          "velocity": 0.48031496062992124,
          "duration": 0.10000000000000009
        },
        {
          "name": "F3",
          "midi": 53,
          "time": 3.800000000000002,
          "velocity": 0.48031496062992124,
          "duration": 0.10000000000000009
        },
        {
          "name": "D#2",
          "midi": 39,
          "time": 4.000000000000002,
          "velocity": 0.48031496062992124,
          "duration": 0.09999999999999964
        },
        {
          "name": "D#3",
          "midi": 51,
          "time": 4.100000000000001,
          "velocity": 0.48031496062992124,
          "duration": 0.09999999999999964
        },
        {
          "name": "D#2",
          "midi": 39,
          "time": 4.300000000000001,
          "velocity": 0.48031496062992124,
          "duration": 0.09999999999999964
        },
        {
          "name": "F#2",
          "midi": 42,
          "time": 4.4,
          "velocity": 0.48031496062992124,
          "duration": 0.09999999999999964
        },
        {
          "name": "G#2",
          "midi": 44,
          "time": 4.6,
          "velocity": 0.48031496062992124,
          "duration": 0.09999999999999964
        },
        {
          "name": "D#2",
          "midi": 39,
          "time": 4.799999999999999,
          "velocity": 0.48031496062992124,
          "duration": 0.09999999999999964
        },
        {
          "name": "D#3",
          "midi": 51,
          "time": 4.999999999999998,
          "velocity": 0.48031496062992124,
          "duration": 0.09999999999999964
        },
        {
          "name": "A#2",
          "midi": 46,
          "time": 5.1999999999999975,
          "velocity": 0.48031496062992124,
          "duration": 0.09999999999999964
        },
        {
          "name": "D#3",
          "midi": 51,
          "time": 5.299999999999997,
          "velocity": 0.48031496062992124,
          "duration": 0.09999999999999964
        },
        {
          "name": "F3",
          "midi": 53,
          "time": 5.399999999999997,
          "velocity": 0.48031496062992124,
          "duration": 0.09999999999999964
        },
        {
          "name": "D#2",
          "midi": 39,
          "time": 5.599999999999996,
          "velocity": 0.48031496062992124,
          "duration": 0.09999999999999964
        },
        {
          "name": "D#3",
          "midi": 51,
          "time": 5.699999999999996,
          "velocity": 0.48031496062992124,
          "duration": 0.09999999999999964
        },
        {
          "name": "D#2",
          "midi": 39,
          "time": 5.899999999999995,
          "velocity": 0.48031496062992124,
          "duration": 0.09999999999999964
        },
        {
          "name": "F#2",
          "midi": 42,
          "time": 5.999999999999995,
          "velocity": 0.48031496062992124,
          "duration": 0.09999999999999964
        },
        {
          "name": "G#2",
          "midi": 44,
          "time": 6.199999999999994,
          "velocity": 0.48031496062992124,
          "duration": 0.09999999999999964
        },
        {
          "name": "B1",
          "midi": 35,
          "time": 6.399999999999993,
          "velocity": 0.48031496062992124,
          "duration": 0.09999999999999964
        },
        {
          "name": "B2",
          "midi": 47,
          "time": 6.5999999999999925,
          "velocity": 0.48031496062992124,
          "duration": 0.09999999999999964
        },
        {
          "name": "F#2",
          "midi": 42,
          "time": 6.799999999999992,
          "velocity": 0.48031496062992124,
          "duration": 0.09999999999999964
        },
        {
          "name": "B2",
          "midi": 47,
          "time": 6.8999999999999915,
          "velocity": 0.48031496062992124,
          "duration": 0.09999999999999964
        },
        {
          "name": "C#3",
          "midi": 49,
          "time": 6.999999999999991,
          "velocity": 0.48031496062992124,
          "duration": 0.09999999999999964
        },
        {
          "name": "B1",
          "midi": 35,
          "time": 7.19999999999999,
          "velocity": 0.48031496062992124,
          "duration": 0.09999999999999964
        },
        {
          "name": "B2",
          "midi": 47,
          "time": 7.29999999999999,
          "velocity": 0.48031496062992124,
          "duration": 0.09999999999999964
        },
        {
          "name": "B1",
          "midi": 35,
          "time": 7.499999999999989,
          "velocity": 0.48031496062992124,
          "duration": 0.09999999999999964
        },
        {
          "name": "C#2",
          "midi": 37,
          "time": 7.599999999999989,
          "velocity": 0.48031496062992124,
          "duration": 0.09999999999999964
        },
        {
          "name": "F2",
          "midi": 41,
          "time": 7.799999999999988,
          "velocity": 0.48031496062992124,
          "duration": 0.09999999999999964
        },
        {
          "name": "C#2",
          "midi": 37,
          "time": 7.999999999999988,
          "velocity": 0.48031496062992124,
          "duration": 0.09999999999999964
        },
        {
          "name": "C#3",
          "midi": 49,
          "time": 8.199999999999987,
          "velocity": 0.48031496062992124,
          "duration": 0.09999999999999964
        },
        {
          "name": "G#2",
          "midi": 44,
          "time": 8.399999999999986,
          "velocity": 0.48031496062992124,
          "duration": 0.09999999999999964
        },
        {
          "name": "C#3",
          "midi": 49,
          "time": 8.499999999999986,
          "velocity": 0.48031496062992124,
          "duration": 0.09999999999999964
        },
        {
          "name": "D#3",
          "midi": 51,
          "time": 8.599999999999985,
          "velocity": 0.48031496062992124,
          "duration": 0.09999999999999964
        },
        {
          "name": "C#2",
          "midi": 37,
          "time": 8.799999999999985,
          "velocity": 0.48031496062992124,
          "duration": 0.09999999999999964
        },
        {
          "name": "C#3",
          "midi": 49,
          "time": 8.899999999999984,
          "velocity": 0.48031496062992124,
          "duration": 0.09999999999999964
        },
        {
          "name": "C#2",
          "midi": 37,
          "time": 9.099999999999984,
          "velocity": 0.48031496062992124,
          "duration": 0.09999999999999964
        },
        {
          "name": "G#2",
          "midi": 44,
          "time": 9.199999999999983,
          "velocity": 0.48031496062992124,
          "duration": 0.09999999999999964
        },
        {
          "name": "A#2",
          "midi": 46,
          "time": 9.399999999999983,
          "velocity": 0.48031496062992124,
          "duration": 0.09999999999999964
        },
        {
          "name": "D#2",
          "midi": 39,
          "time": 9.599999999999982,
          "velocity": 0.48031496062992124,
          "duration": 0.09999999999999964
        },
        {
          "name": "D#3",
          "midi": 51,
          "time": 9.799999999999981,
          "velocity": 0.48031496062992124,
          "duration": 0.09999999999999964
        },
        {
          "name": "A#2",
          "midi": 46,
          "time": 9.99999999999998,
          "velocity": 0.48031496062992124,
          "duration": 0.09999999999999964
        },
        {
          "name": "D#3",
          "midi": 51,
          "time": 10.09999999999998,
          "velocity": 0.48031496062992124,
          "duration": 0.09999999999999964
        },
        {
          "name": "F3",
          "midi": 53,
          "time": 10.19999999999998,
          "velocity": 0.48031496062992124,
          "duration": 0.09999999999999964
        },
        {
          "name": "D#2",
          "midi": 39,
          "time": 10.399999999999979,
          "velocity": 0.48031496062992124,
          "duration": 0.09999999999999964
        },
        {
          "name": "D#3",
          "midi": 51,
          "time": 10.499999999999979,
          "velocity": 0.48031496062992124,
          "duration": 0.09999999999999964
        },
        {
          "name": "D#2",
          "midi": 39,
          "time": 10.699999999999978,
          "velocity": 0.48031496062992124,
          "duration": 0.09999999999999964
        },
        {
          "name": "F#2",
          "midi": 42,
          "time": 10.799999999999978,
          "velocity": 0.48031496062992124,
          "duration": 0.09999999999999964
        },
        {
          "name": "G#2",
          "midi": 44,
          "time": 10.999999999999977,
          "velocity": 0.48031496062992124,
          "duration": 0.09999999999999964
        },
        {
          "name": "D#2",
          "midi": 39,
          "time": 11.199999999999976,
          "velocity": 0.48031496062992124,
          "duration": 0.09999999999999964
        },
        {
          "name": "D#3",
          "midi": 51,
          "time": 11.399999999999975,
          "velocity": 0.48031496062992124,
          "duration": 0.09999999999999964
        },
        {
          "name": "A#2",
          "midi": 46,
          "time": 11.599999999999975,
          "velocity": 0.48031496062992124,
          "duration": 0.09999999999999964
        },
        {
          "name": "D#3",
          "midi": 51,
          "time": 11.699999999999974,
          "velocity": 0.48031496062992124,
          "duration": 0.09999999999999964
        },
        {
          "name": "F3",
          "midi": 53,
          "time": 11.799999999999974,
          "velocity": 0.48031496062992124,
          "duration": 0.09999999999999964
        },
        {
          "name": "D#2",
          "midi": 39,
          "time": 11.999999999999973,
          "velocity": 0.48031496062992124,
          "duration": 0.09999999999999964
        },
        {
          "name": "D#3",
          "midi": 51,
          "time": 12.099999999999973,
          "velocity": 0.48031496062992124,
          "duration": 0.09999999999999964
        },
        {
          "name": "D#2",
          "midi": 39,
          "time": 12.299999999999972,
          "velocity": 0.48031496062992124,
          "duration": 0.09999999999999964
        },
        {
          "name": "F#2",
          "midi": 42,
          "time": 12.399999999999972,
          "velocity": 0.48031496062992124,
          "duration": 0.09999999999999964
        },
        {
          "name": "G#2",
          "midi": 44,
          "time": 12.599999999999971,
          "velocity": 0.48031496062992124,
          "duration": 0.09999999999999964
        },
        {
          "name": "B3",
          "midi": 59,
          "time": 12.79999999999997,
          "velocity": 0.48031496062992124,
          "duration": 0.09999999999999964
        },
        {
          "name": "F#3",
          "midi": 54,
          "time": 12.79999999999997,
          "velocity": 0.48031496062992124,
          "duration": 0.09999999999999964
        },
        {
          "name": "B2",
          "midi": 47,
          "time": 12.99999999999997,
          "velocity": 0.48031496062992124,
          "duration": 0.09999999999999964
        },
        {
          "name": "B3",
          "midi": 59,
          "time": 13.199999999999969,
          "velocity": 0.48031496062992124,
          "duration": 0.09999999999999964
        },
        {
          "name": "D#4",
          "midi": 63,
          "time": 13.199999999999969,
          "velocity": 0.48031496062992124,
          "duration": 0.09999999999999964
        },
        {
          "name": "F#3",
          "midi": 54,
          "time": 13.399999999999968,
          "velocity": 0.48031496062992124,
          "duration": 0.09999999999999964
        },
        {
          "name": "F#3",
          "midi": 54,
          "time": 13.599999999999968,
          "velocity": 0.48031496062992124,
          "duration": 0.09999999999999964
        },
        {
          "name": "B2",
          "midi": 47,
          "time": 13.799999999999967,
          "velocity": 0.48031496062992124,
          "duration": 0.09999999999999964
        },
        {
          "name": "F#3",
          "midi": 54,
          "time": 13.999999999999966,
          "velocity": 0.48031496062992124,
          "duration": 0.09999999999999964
        },
        {
          "name": "B3",
          "midi": 59,
          "time": 13.999999999999966,
          "velocity": 0.48031496062992124,
          "duration": 0.09999999999999964
        },
        {
          "name": "B2",
          "midi": 47,
          "time": 14.199999999999966,
          "velocity": 0.48031496062992124,
          "duration": 0.09999999999999964
        },
        {
          "name": "C#4",
          "midi": 61,
          "time": 14.399999999999965,
          "velocity": 0.48031496062992124,
          "duration": 0.09999999999999964
        },
        {
          "name": "G#3",
          "midi": 56,
          "time": 14.399999999999965,
          "velocity": 0.48031496062992124,
          "duration": 0.09999999999999964
        },
        {
          "name": "C#3",
          "midi": 49,
          "time": 14.599999999999964,
          "velocity": 0.48031496062992124,
          "duration": 0.09999999999999964
        },
        {
          "name": "G#3",
          "midi": 56,
          "time": 14.799999999999963,
          "velocity": 0.48031496062992124,
          "duration": 0.09999999999999964
        },
        {
          "name": "C#4",
          "midi": 61,
          "time": 14.799999999999963,
          "velocity": 0.48031496062992124,
          "duration": 0.09999999999999964
        },
        {
          "name": "C#3",
          "midi": 49,
          "time": 14.999999999999963,
          "velocity": 0.48031496062992124,
          "duration": 0.09999999999999964
        },
        {
          "name": "G#3",
          "midi": 56,
          "time": 15.199999999999962,
          "velocity": 0.48031496062992124,
          "duration": 0.09999999999999964
        },
        {
          "name": "F3",
          "midi": 53,
          "time": 15.199999999999962,
          "velocity": 0.48031496062992124,
          "duration": 0.09999999999999964
        },
        {
          "name": "C#3",
          "midi": 49,
          "time": 15.399999999999961,
          "velocity": 0.48031496062992124,
          "duration": 0.09999999999999964
        },
        {
          "name": "G#3",
          "midi": 56,
          "time": 15.59999999999996,
          "velocity": 0.48031496062992124,
          "duration": 0.09999999999999964
        },
        {
          "name": "C#4",
          "midi": 61,
          "time": 15.59999999999996,
          "velocity": 0.48031496062992124,
          "duration": 0.09999999999999964
        },
        {
          "name": "C#3",
          "midi": 49,
          "time": 15.79999999999996,
          "velocity": 0.48031496062992124,
          "duration": 0.09999999999999964
        },
        {
          "name": "F#3",
          "midi": 54,
          "time": 15.99999999999996,
          "velocity": 0.48031496062992124,
          "duration": 0.09999999999999964
        },
        {
          "name": "A#3",
          "midi": 58,
          "time": 15.99999999999996,
          "velocity": 0.48031496062992124,
          "duration": 0.09999999999999964
        },
        {
          "name": "D#3",
          "midi": 51,
          "time": 16.19999999999996,
          "velocity": 0.48031496062992124,
          "duration": 0.10000000000000142
        },
        {
          "name": "D#3",
          "midi": 51,
          "time": 16.399999999999963,
          "velocity": 0.48031496062992124,
          "duration": 0.10000000000000142
        },
        {
          "name": "D#2",
          "midi": 39,
          "time": 16.599999999999966,
          "velocity": 0.48031496062992124,
          "duration": 0.10000000000000142
        },
        {
          "name": "D#3",
          "midi": 51,
          "time": 16.79999999999997,
          "velocity": 0.48031496062992124,
          "duration": 0.10000000000000142
        },
        {
          "name": "D#2",
          "midi": 39,
          "time": 16.99999999999997,
          "velocity": 0.48031496062992124,
          "duration": 0.10000000000000142
        },
        {
          "name": "F#3",
          "midi": 54,
          "time": 17.199999999999974,
          "velocity": 0.48031496062992124,
          "duration": 0.10000000000000142
        },
        {
          "name": "D#3",
          "midi": 51,
          "time": 17.399999999999977,
          "velocity": 0.48031496062992124,
          "duration": 0.10000000000000142
        },
        {
          "name": "F#3",
          "midi": 54,
          "time": 17.59999999999998,
          "velocity": 0.48031496062992124,
          "duration": 0.10000000000000142
        },
        {
          "name": "A#3",
          "midi": 58,
          "time": 17.59999999999998,
          "velocity": 0.48031496062992124,
          "duration": 0.10000000000000142
        },
        {
          "name": "D#3",
          "midi": 51,
          "time": 17.799999999999983,
          "velocity": 0.48031496062992124,
          "duration": 0.10000000000000142
        },
        {
          "name": "D#3",
          "midi": 51,
          "time": 17.999999999999986,
          "velocity": 0.48031496062992124,
          "duration": 0.10000000000000142
        },
        {
          "name": "D#2",
          "midi": 39,
          "time": 18.19999999999999,
          "velocity": 0.48031496062992124,
          "duration": 0.10000000000000142
        },
        {
          "name": "D#3",
          "midi": 51,
          "time": 18.39999999999999,
          "velocity": 0.48031496062992124,
          "duration": 0.10000000000000142
        },
        {
          "name": "D#2",
          "midi": 39,
          "time": 18.599999999999994,
          "velocity": 0.48031496062992124,
          "duration": 0.10000000000000142
        },
        {
          "name": "F#3",
          "midi": 54,
          "time": 18.799999999999997,
          "velocity": 0.48031496062992124,
          "duration": 0.10000000000000142
        },
        {
          "name": "D#3",
          "midi": 51,
          "time": 19,
          "velocity": 0.48031496062992124,
          "duration": 0.10000000000000142
        },
        {
          "name": "B3",
          "midi": 59,
          "time": 19.200000000000003,
          "velocity": 0.48031496062992124,
          "duration": 0.10000000000000142
        },
        {
          "name": "F#3",
          "midi": 54,
          "time": 19.200000000000003,
          "velocity": 0.48031496062992124,
          "duration": 0.10000000000000142
        },
        {
          "name": "B2",
          "midi": 47,
          "time": 19.400000000000006,
          "velocity": 0.48031496062992124,
          "duration": 0.10000000000000142
        },
        {
          "name": "B3",
          "midi": 59,
          "time": 19.60000000000001,
          "velocity": 0.48031496062992124,
          "duration": 0.10000000000000142
        },
        {
          "name": "D#4",
          "midi": 63,
          "time": 19.60000000000001,
          "velocity": 0.48031496062992124,
          "duration": 0.10000000000000142
        },
        {
          "name": "F#3",
          "midi": 54,
          "time": 19.80000000000001,
          "velocity": 0.48031496062992124,
          "duration": 0.10000000000000142
        },
        {
          "name": "F#3",
          "midi": 54,
          "time": 20.000000000000014,
          "velocity": 0.48031496062992124,
          "duration": 0.10000000000000142
        },
        {
          "name": "B2",
          "midi": 47,
          "time": 20.200000000000017,
          "velocity": 0.48031496062992124,
          "duration": 0.10000000000000142
        },
        {
          "name": "F#3",
          "midi": 54,
          "time": 20.40000000000002,
          "velocity": 0.48031496062992124,
          "duration": 0.10000000000000142
        },
        {
          "name": "B3",
          "midi": 59,
          "time": 20.40000000000002,
          "velocity": 0.48031496062992124,
          "duration": 0.10000000000000142
        },
        {
          "name": "B2",
          "midi": 47,
          "time": 20.600000000000023,
          "velocity": 0.48031496062992124,
          "duration": 0.10000000000000142
        },
        {
          "name": "C#4",
          "midi": 61,
          "time": 20.800000000000026,
          "velocity": 0.48031496062992124,
          "duration": 0.10000000000000142
        },
        {
          "name": "G#3",
          "midi": 56,
          "time": 20.800000000000026,
          "velocity": 0.48031496062992124,
          "duration": 0.10000000000000142
        },
        {
          "name": "C#3",
          "midi": 49,
          "time": 21.00000000000003,
          "velocity": 0.48031496062992124,
          "duration": 0.10000000000000142
        },
        {
          "name": "G#3",
          "midi": 56,
          "time": 21.20000000000003,
          "velocity": 0.48031496062992124,
          "duration": 0.10000000000000142
        },
        {
          "name": "C#4",
          "midi": 61,
          "time": 21.20000000000003,
          "velocity": 0.48031496062992124,
          "duration": 0.10000000000000142
        },
        {
          "name": "C#3",
          "midi": 49,
          "time": 21.400000000000034,
          "velocity": 0.48031496062992124,
          "duration": 0.10000000000000142
        },
        {
          "name": "G#3",
          "midi": 56,
          "time": 21.600000000000037,
          "velocity": 0.48031496062992124,
          "duration": 0.10000000000000142
        },
        {
          "name": "F3",
          "midi": 53,
          "time": 21.600000000000037,
          "velocity": 0.48031496062992124,
          "duration": 0.10000000000000142
        },
        {
          "name": "C#3",
          "midi": 49,
          "time": 21.80000000000004,
          "velocity": 0.48031496062992124,
          "duration": 0.10000000000000142
        },
        {
          "name": "G#3",
          "midi": 56,
          "time": 22.000000000000043,
          "velocity": 0.48031496062992124,
          "duration": 0.10000000000000142
        },
        {
          "name": "C#4",
          "midi": 61,
          "time": 22.000000000000043,
          "velocity": 0.48031496062992124,
          "duration": 0.10000000000000142
        },
        {
          "name": "C#3",
          "midi": 49,
          "time": 22.200000000000045,
          "velocity": 0.48031496062992124,
          "duration": 0.10000000000000142
        },
        {
          "name": "D4",
          "midi": 62,
          "time": 22.40000000000005,
          "velocity": 0.48031496062992124,
          "duration": 0.10000000000000142
        },
        {
          "name": "G#3",
          "midi": 56,
          "time": 22.40000000000005,
          "velocity": 0.48031496062992124,
          "duration": 0.10000000000000142
        },
        {
          "name": "F3",
          "midi": 53,
          "time": 22.60000000000005,
          "velocity": 0.48031496062992124,
          "duration": 0.10000000000000142
        },
        {
          "name": "F3",
          "midi": 53,
          "time": 22.800000000000054,
          "velocity": 0.48031496062992124,
          "duration": 0.10000000000000142
        },
        {
          "name": "A#3",
          "midi": 58,
          "time": 22.800000000000054,
          "velocity": 0.48031496062992124,
          "duration": 0.10000000000000142
        },
        {
          "name": "A#2",
          "midi": 46,
          "time": 23.000000000000057,
          "velocity": 0.48031496062992124,
          "duration": 0.10000000000000142
        },
        {
          "name": "F3",
          "midi": 53,
          "time": 23.20000000000006,
          "velocity": 0.48031496062992124,
          "duration": 0.10000000000000142
        },
        {
          "name": "A#3",
          "midi": 58,
          "time": 23.20000000000006,
          "velocity": 0.48031496062992124,
          "duration": 0.10000000000000142
        },
        {
          "name": "A#2",
          "midi": 46,
          "time": 23.400000000000063,
          "velocity": 0.48031496062992124,
          "duration": 0.10000000000000142
        },
        {
          "name": "G#3",
          "midi": 56,
          "time": 23.600000000000065,
          "velocity": 0.48031496062992124,
          "duration": 0.10000000000000142
        },
        {
          "name": "D4",
          "midi": 62,
          "time": 23.600000000000065,
          "velocity": 0.48031496062992124,
          "duration": 0.10000000000000142
        },
        {
          "name": "F3",
          "midi": 53,
          "time": 23.800000000000068,
          "velocity": 0.48031496062992124,
          "duration": 0.10000000000000142
        },
        {
          "name": "D4",
          "midi": 62,
          "time": 24.00000000000007,
          "velocity": 0.48031496062992124,
          "duration": 0.10000000000000142
        },
        {
          "name": "G#3",
          "midi": 56,
          "time": 24.00000000000007,
          "velocity": 0.48031496062992124,
          "duration": 0.10000000000000142
        },
        {
          "name": "F3",
          "midi": 53,
          "time": 24.200000000000074,
          "velocity": 0.48031496062992124,
          "duration": 0.10000000000000142
        },
        {
          "name": "F3",
          "midi": 53,
          "time": 24.400000000000077,
          "velocity": 0.48031496062992124,
          "duration": 0.10000000000000142
        },
        {
          "name": "A#3",
          "midi": 58,
          "time": 24.400000000000077,
          "velocity": 0.48031496062992124,
          "duration": 0.10000000000000142
        },
        {
          "name": "A#2",
          "midi": 46,
          "time": 24.60000000000008,
          "velocity": 0.48031496062992124,
          "duration": 0.10000000000000142
        },
        {
          "name": "F3",
          "midi": 53,
          "time": 24.800000000000082,
          "velocity": 0.48031496062992124,
          "duration": 0.10000000000000142
        },
        {
          "name": "D3",
          "midi": 50,
          "time": 24.800000000000082,
          "velocity": 0.48031496062992124,
          "duration": 0.10000000000000142
        },
        {
          "name": "A#2",
          "midi": 46,
          "time": 25.000000000000085,
          "velocity": 0.48031496062992124,
          "duration": 0.10000000000000142
        },
        {
          "name": "A#3",
          "midi": 58,
          "time": 25.200000000000088,
          "velocity": 0.48031496062992124,
          "duration": 0.10000000000000142
        },
        {
          "name": "F3",
          "midi": 53,
          "time": 25.200000000000088,
          "velocity": 0.48031496062992124,
          "duration": 0.10000000000000142
        },
        {
          "name": "A#2",
          "midi": 46,
          "time": 25.40000000000009,
          "velocity": 0.48031496062992124,
          "duration": 0.10000000000000142
        },
        {
          "name": "A#3",
          "midi": 58,
          "time": 25.600000000000094,
          "velocity": 0.48031496062992124,
          "duration": 0.10000000000000142
        },
        {
          "name": "D#2",
          "midi": 39,
          "time": 32.0000000000001,
          "velocity": 0.48031496062992124,
          "duration": 0.10000000000000142
        },
        {
          "name": "D#3",
          "midi": 51,
          "time": 32.2000000000001,
          "velocity": 0.48031496062992124,
          "duration": 0.10000000000000142
        },
        {
          "name": "A#2",
          "midi": 46,
          "time": 32.400000000000105,
          "velocity": 0.48031496062992124,
          "duration": 0.10000000000000142
        },
        {
          "name": "D#3",
          "midi": 51,
          "time": 32.50000000000011,
          "velocity": 0.48031496062992124,
          "duration": 0.10000000000000142
        },
        {
          "name": "F3",
          "midi": 53,
          "time": 32.60000000000011,
          "velocity": 0.48031496062992124,
          "duration": 0.10000000000000142
        },
        {
          "name": "D#2",
          "midi": 39,
          "time": 32.80000000000011,
          "velocity": 0.48031496062992124,
          "duration": 0.10000000000000142
        },
        {
          "name": "D#3",
          "midi": 51,
          "time": 32.90000000000011,
          "velocity": 0.48031496062992124,
          "duration": 0.10000000000000142
        },
        {
          "name": "D#2",
          "midi": 39,
          "time": 33.100000000000115,
          "velocity": 0.48031496062992124,
          "duration": 0.10000000000000142
        },
        {
          "name": "A#2",
          "midi": 46,
          "time": 33.20000000000012,
          "velocity": 0.48031496062992124,
          "duration": 0.10000000000000142
        },
        {
          "name": "C#3",
          "midi": 49,
          "time": 33.40000000000012,
          "velocity": 0.48031496062992124,
          "duration": 0.10000000000000142
        },
        {
          "name": "D#2",
          "midi": 39,
          "time": 33.60000000000012,
          "velocity": 0.48031496062992124,
          "duration": 0.10000000000000142
        },
        {
          "name": "D#3",
          "midi": 51,
          "time": 33.800000000000125,
          "velocity": 0.48031496062992124,
          "duration": 0.10000000000000142
        },
        {
          "name": "A#2",
          "midi": 46,
          "time": 34.00000000000013,
          "velocity": 0.48031496062992124,
          "duration": 0.10000000000000142
        },
        {
          "name": "D#3",
          "midi": 51,
          "time": 34.10000000000013,
          "velocity": 0.48031496062992124,
          "duration": 0.10000000000000142
        },
        {
          "name": "F3",
          "midi": 53,
          "time": 34.20000000000013,
          "velocity": 0.48031496062992124,
          "duration": 0.10000000000000142
        },
        {
          "name": "D#2",
          "midi": 39,
          "time": 34.400000000000134,
          "velocity": 0.48031496062992124,
          "duration": 0.10000000000000142
        },
        {
          "name": "D#3",
          "midi": 51,
          "time": 34.500000000000135,
          "velocity": 0.48031496062992124,
          "duration": 0.10000000000000142
        },
        {
          "name": "D#2",
          "midi": 39,
          "time": 34.70000000000014,
          "velocity": 0.48031496062992124,
          "duration": 0.10000000000000142
        },
        {
          "name": "A#2",
          "midi": 46,
          "time": 34.80000000000014,
          "velocity": 0.48031496062992124,
          "duration": 0.10000000000000142
        },
        {
          "name": "C#3",
          "midi": 49,
          "time": 35.00000000000014,
          "velocity": 0.48031496062992124,
          "duration": 0.10000000000000142
        },
        {
          "name": "B1",
          "midi": 35,
          "time": 35.200000000000145,
          "velocity": 0.48031496062992124,
          "duration": 0.10000000000000142
        },
        {
          "name": "B2",
          "midi": 47,
          "time": 35.40000000000015,
          "velocity": 0.48031496062992124,
          "duration": 0.10000000000000142
        },
        {
          "name": "F#2",
          "midi": 42,
          "time": 35.60000000000015,
          "velocity": 0.48031496062992124,
          "duration": 0.10000000000000142
        },
        {
          "name": "B2",
          "midi": 47,
          "time": 35.70000000000015,
          "velocity": 0.48031496062992124,
          "duration": 0.10000000000000142
        },
        {
          "name": "C#3",
          "midi": 49,
          "time": 35.80000000000015,
          "velocity": 0.48031496062992124,
          "duration": 0.10000000000000142
        },
        {
          "name": "B1",
          "midi": 35,
          "time": 36.000000000000156,
          "velocity": 0.48031496062992124,
          "duration": 0.10000000000000142
        },
        {
          "name": "B2",
          "midi": 47,
          "time": 36.10000000000016,
          "velocity": 0.48031496062992124,
          "duration": 0.10000000000000142
        },
        {
          "name": "B1",
          "midi": 35,
          "time": 36.30000000000016,
          "velocity": 0.48031496062992124,
          "duration": 0.10000000000000142
        },
        {
          "name": "F#2",
          "midi": 42,
          "time": 36.40000000000016,
          "velocity": 0.48031496062992124,
          "duration": 0.10000000000000142
        },
        {
          "name": "G#2",
          "midi": 44,
          "time": 36.600000000000165,
          "velocity": 0.48031496062992124,
          "duration": 0.10000000000000142
        },
        {
          "name": "B1",
          "midi": 35,
          "time": 36.80000000000017,
          "velocity": 0.48031496062992124,
          "duration": 0.10000000000000142
        },
        {
          "name": "B2",
          "midi": 47,
          "time": 37.00000000000017,
          "velocity": 0.48031496062992124,
          "duration": 0.10000000000000142
        },
        {
          "name": "F#2",
          "midi": 42,
          "time": 37.20000000000017,
          "velocity": 0.48031496062992124,
          "duration": 0.10000000000000142
        },
        {
          "name": "B2",
          "midi": 47,
          "time": 37.300000000000175,
          "velocity": 0.48031496062992124,
          "duration": 0.10000000000000142
        },
        {
          "name": "C#3",
          "midi": 49,
          "time": 37.400000000000176,
          "velocity": 0.48031496062992124,
          "duration": 0.10000000000000142
        },
        {
          "name": "B1",
          "midi": 35,
          "time": 37.60000000000018,
          "velocity": 0.48031496062992124,
          "duration": 0.10000000000000142
        },
        {
          "name": "B2",
          "midi": 47,
          "time": 37.80000000000018,
          "velocity": 0.48031496062992124,
          "duration": 0.10000000000000142
        },
        {
          "name": "B1",
          "midi": 35,
          "time": 38.000000000000185,
          "velocity": 0.48031496062992124,
          "duration": 0.10000000000000142
        },
        {
          "name": "B2",
          "midi": 47,
          "time": 38.20000000000019,
          "velocity": 0.48031496062992124,
          "duration": 0.10000000000000142
        },
        {
          "name": "D#2",
          "midi": 39,
          "time": 38.40000000000019,
          "velocity": 0.48031496062992124,
          "duration": 0.10000000000000142
        },
        {
          "name": "D#3",
          "midi": 51,
          "time": 38.60000000000019,
          "velocity": 0.48031496062992124,
          "duration": 0.10000000000000142
        },
        {
          "name": "A#2",
          "midi": 46,
          "time": 38.800000000000196,
          "velocity": 0.48031496062992124,
          "duration": 0.10000000000000142
        },
        {
          "name": "D#3",
          "midi": 51,
          "time": 38.9000000000002,
          "velocity": 0.48031496062992124,
          "duration": 0.10000000000000142
        },
        {
          "name": "F3",
          "midi": 53,
          "time": 39.0000000000002,
          "velocity": 0.48031496062992124,
          "duration": 0.10000000000000142
        },
        {
          "name": "D#2",
          "midi": 39,
          "time": 39.2000000000002,
          "velocity": 0.48031496062992124,
          "duration": 0.10000000000000142
        },
        {
          "name": "D#3",
          "midi": 51,
          "time": 39.3000000000002,
          "velocity": 0.48031496062992124,
          "duration": 0.10000000000000142
        },
        {
          "name": "D#2",
          "midi": 39,
          "time": 39.500000000000206,
          "velocity": 0.48031496062992124,
          "duration": 0.10000000000000142
        },
        {
          "name": "A#2",
          "midi": 46,
          "time": 39.60000000000021,
          "velocity": 0.48031496062992124,
          "duration": 0.10000000000000142
        },
        {
          "name": "C#3",
          "midi": 49,
          "time": 39.80000000000021,
          "velocity": 0.48031496062992124,
          "duration": 0.10000000000000142
        },
        {
          "name": "D#2",
          "midi": 39,
          "time": 40.00000000000021,
          "velocity": 0.48031496062992124,
          "duration": 0.10000000000000142
        },
        {
          "name": "D#3",
          "midi": 51,
          "time": 40.200000000000216,
          "velocity": 0.48031496062992124,
          "duration": 0.10000000000000142
        },
        {
          "name": "A#2",
          "midi": 46,
          "time": 40.40000000000022,
          "velocity": 0.48031496062992124,
          "duration": 0.10000000000000142
        },
        {
          "name": "D#3",
          "midi": 51,
          "time": 40.50000000000022,
          "velocity": 0.48031496062992124,
          "duration": 0.10000000000000142
        },
        {
          "name": "F3",
          "midi": 53,
          "time": 40.60000000000022,
          "velocity": 0.48031496062992124,
          "duration": 0.10000000000000142
        },
        {
          "name": "D#2",
          "midi": 39,
          "time": 40.800000000000225,
          "velocity": 0.48031496062992124,
          "duration": 0.10000000000000142
        },
        {
          "name": "D#3",
          "midi": 51,
          "time": 40.900000000000226,
          "velocity": 0.48031496062992124,
          "duration": 0.10000000000000142
        },
        {
          "name": "D#2",
          "midi": 39,
          "time": 41.10000000000023,
          "velocity": 0.48031496062992124,
          "duration": 0.10000000000000142
        },
        {
          "name": "A#2",
          "midi": 46,
          "time": 41.20000000000023,
          "velocity": 0.48031496062992124,
          "duration": 0.10000000000000142
        },
        {
          "name": "C#3",
          "midi": 49,
          "time": 41.40000000000023,
          "velocity": 0.48031496062992124,
          "duration": 0.10000000000000142
        },
        {
          "name": "B1",
          "midi": 35,
          "time": 41.600000000000236,
          "velocity": 0.48031496062992124,
          "duration": 0.10000000000000142
        },
        {
          "name": "B2",
          "midi": 47,
          "time": 41.80000000000024,
          "velocity": 0.48031496062992124,
          "duration": 0.10000000000000142
        },
        {
          "name": "F#2",
          "midi": 42,
          "time": 42.00000000000024,
          "velocity": 0.48031496062992124,
          "duration": 0.10000000000000142
        },
        {
          "name": "B2",
          "midi": 47,
          "time": 42.10000000000024,
          "velocity": 0.48031496062992124,
          "duration": 0.10000000000000142
        },
        {
          "name": "C#3",
          "midi": 49,
          "time": 42.200000000000244,
          "velocity": 0.48031496062992124,
          "duration": 0.10000000000000142
        },
        {
          "name": "B1",
          "midi": 35,
          "time": 42.40000000000025,
          "velocity": 0.48031496062992124,
          "duration": 0.10000000000000142
        },
        {
          "name": "B2",
          "midi": 47,
          "time": 42.50000000000025,
          "velocity": 0.48031496062992124,
          "duration": 0.10000000000000142
        },
        {
          "name": "B1",
          "midi": 35,
          "time": 42.70000000000025,
          "velocity": 0.48031496062992124,
          "duration": 0.10000000000000142
        },
        {
          "name": "F#2",
          "midi": 42,
          "time": 42.80000000000025,
          "velocity": 0.48031496062992124,
          "duration": 0.10000000000000142
        },
        {
          "name": "G#2",
          "midi": 44,
          "time": 43.000000000000256,
          "velocity": 0.48031496062992124,
          "duration": 0.10000000000000142
        },
        {
          "name": "B1",
          "midi": 35,
          "time": 43.20000000000026,
          "velocity": 0.48031496062992124,
          "duration": 0.10000000000000142
        },
        {
          "name": "B2",
          "midi": 47,
          "time": 43.40000000000026,
          "velocity": 0.48031496062992124,
          "duration": 0.10000000000000142
        },
        {
          "name": "F#2",
          "midi": 42,
          "time": 43.600000000000264,
          "velocity": 0.48031496062992124,
          "duration": 0.10000000000000142
        },
        {
          "name": "B2",
          "midi": 47,
          "time": 43.700000000000266,
          "velocity": 0.48031496062992124,
          "duration": 0.10000000000000142
        },
        {
          "name": "C#3",
          "midi": 49,
          "time": 43.80000000000027,
          "velocity": 0.48031496062992124,
          "duration": 0.10000000000000142
        },
        {
          "name": "B1",
          "midi": 35,
          "time": 44.00000000000027,
          "velocity": 0.48031496062992124,
          "duration": 0.10000000000000142
        },
        {
          "name": "B2",
          "midi": 47,
          "time": 44.20000000000027,
          "velocity": 0.48031496062992124,
          "duration": 0.10000000000000142
        },
        {
          "name": "B1",
          "midi": 35,
          "time": 44.400000000000276,
          "velocity": 0.48031496062992124,
          "duration": 0.10000000000000142
        },
        {
          "name": "B2",
          "midi": 47,
          "time": 44.60000000000028,
          "velocity": 0.48031496062992124,
          "duration": 0.10000000000000142
        },
        {
          "name": "D#2",
          "midi": 39,
          "time": 44.80000000000028,
          "velocity": 0.48031496062992124,
          "duration": 0.10000000000000142
        },
        {
          "name": "D#3",
          "midi": 51,
          "time": 45.000000000000284,
          "velocity": 0.48031496062992124,
          "duration": 0.10000000000000142
        },
        {
          "name": "A#2",
          "midi": 46,
          "time": 45.20000000000029,
          "velocity": 0.48031496062992124,
          "duration": 0.10000000000000142
        },
        {
          "name": "D#3",
          "midi": 51,
          "time": 45.30000000000029,
          "velocity": 0.48031496062992124,
          "duration": 0.10000000000000142
        },
        {
          "name": "F3",
          "midi": 53,
          "time": 45.40000000000029,
          "velocity": 0.48031496062992124,
          "duration": 0.10000000000000142
        },
        {
          "name": "D#2",
          "midi": 39,
          "time": 45.60000000000029,
          "velocity": 0.48031496062992124,
          "duration": 0.10000000000000142
        },
        {
          "name": "D#3",
          "midi": 51,
          "time": 45.700000000000294,
          "velocity": 0.48031496062992124,
          "duration": 0.10000000000000142
        },
        {
          "name": "D#2",
          "midi": 39,
          "time": 45.9000000000003,
          "velocity": 0.48031496062992124,
          "duration": 0.10000000000000142
        },
        {
          "name": "A#2",
          "midi": 46,
          "time": 46.0000000000003,
          "velocity": 0.48031496062992124,
          "duration": 0.10000000000000142
        },
        {
          "name": "C#3",
          "midi": 49,
          "time": 46.2000000000003,
          "velocity": 0.48031496062992124,
          "duration": 0.10000000000000142
        },
        {
          "name": "D#2",
          "midi": 39,
          "time": 46.400000000000304,
          "velocity": 0.48031496062992124,
          "duration": 0.10000000000000142
        },
        {
          "name": "D#3",
          "midi": 51,
          "time": 46.60000000000031,
          "velocity": 0.48031496062992124,
          "duration": 0.10000000000000142
        },
        {
          "name": "A#2",
          "midi": 46,
          "time": 46.80000000000031,
          "velocity": 0.48031496062992124,
          "duration": 0.10000000000000142
        },
        {
          "name": "D#3",
          "midi": 51,
          "time": 46.90000000000031,
          "velocity": 0.48031496062992124,
          "duration": 0.10000000000000142
        },
        {
          "name": "F3",
          "midi": 53,
          "time": 47.00000000000031,
          "velocity": 0.48031496062992124,
          "duration": 0.10000000000000142
        },
        {
          "name": "D#2",
          "midi": 39,
          "time": 47.200000000000315,
          "velocity": 0.48031496062992124,
          "duration": 0.10000000000000142
        },
        {
          "name": "D#3",
          "midi": 51,
          "time": 47.30000000000032,
          "velocity": 0.48031496062992124,
          "duration": 0.10000000000000142
        },
        {
          "name": "D#2",
          "midi": 39,
          "time": 47.50000000000032,
          "velocity": 0.48031496062992124,
          "duration": 0.10000000000000142
        },
        {
          "name": "A#2",
          "midi": 46,
          "time": 47.60000000000032,
          "velocity": 0.48031496062992124,
          "duration": 0.10000000000000142
        },
        {
          "name": "C#3",
          "midi": 49,
          "time": 47.800000000000324,
          "velocity": 0.48031496062992124,
          "duration": 0.10000000000000142
        },
        {
          "name": "B1",
          "midi": 35,
          "time": 48.00000000000033,
          "velocity": 0.48031496062992124,
          "duration": 0.10000000000000142
        },
        {
          "name": "B2",
          "midi": 47,
          "time": 48.20000000000033,
          "velocity": 0.48031496062992124,
          "duration": 0.10000000000000142
        },
        {
          "name": "F#2",
          "midi": 42,
          "time": 48.40000000000033,
          "velocity": 0.48031496062992124,
          "duration": 0.10000000000000142
        },
        {
          "name": "B2",
          "midi": 47,
          "time": 48.500000000000334,
          "velocity": 0.48031496062992124,
          "duration": 0.10000000000000142
        },
        {
          "name": "C#3",
          "midi": 49,
          "time": 48.600000000000335,
          "velocity": 0.48031496062992124,
          "duration": 0.10000000000000142
        },
        {
          "name": "B1",
          "midi": 35,
          "time": 48.80000000000034,
          "velocity": 0.48031496062992124,
          "duration": 0.10000000000000142
        },
        {
          "name": "B2",
          "midi": 47,
          "time": 48.90000000000034,
          "velocity": 0.48031496062992124,
          "duration": 0.10000000000000142
        },
        {
          "name": "B1",
          "midi": 35,
          "time": 49.10000000000034,
          "velocity": 0.48031496062992124,
          "duration": 0.10000000000000142
        },
        {
          "name": "F#2",
          "midi": 42,
          "time": 49.200000000000344,
          "velocity": 0.48031496062992124,
          "duration": 0.10000000000000142
        },
        {
          "name": "G#2",
          "midi": 44,
          "time": 49.40000000000035,
          "velocity": 0.48031496062992124,
          "duration": 0.10000000000000142
        },
        {
          "name": "B1",
          "midi": 35,
          "time": 49.60000000000035,
          "velocity": 0.48031496062992124,
          "duration": 0.10000000000000142
        },
        {
          "name": "B2",
          "midi": 47,
          "time": 49.80000000000035,
          "velocity": 0.48031496062992124,
          "duration": 0.10000000000000142
        },
        {
          "name": "F#2",
          "midi": 42,
          "time": 50.000000000000355,
          "velocity": 0.48031496062992124,
          "duration": 0.10000000000000142
        },
        {
          "name": "B2",
          "midi": 47,
          "time": 50.10000000000036,
          "velocity": 0.48031496062992124,
          "duration": 0.10000000000000142
        },
        {
          "name": "C#3",
          "midi": 49,
          "time": 50.20000000000036,
          "velocity": 0.48031496062992124,
          "duration": 0.10000000000000142
        },
        {
          "name": "B1",
          "midi": 35,
          "time": 50.40000000000036,
          "velocity": 0.48031496062992124,
          "duration": 0.10000000000000142
        },
        {
          "name": "B2",
          "midi": 47,
          "time": 50.600000000000364,
          "velocity": 0.48031496062992124,
          "duration": 0.10000000000000142
        },
        {
          "name": "B1",
          "midi": 35,
          "time": 50.80000000000037,
          "velocity": 0.48031496062992124,
          "duration": 0.10000000000000142
        },
        {
          "name": "B2",
          "midi": 47,
          "time": 51.00000000000037,
          "velocity": 0.48031496062992124,
          "duration": 0.10000000000000142
        },
        {
          "name": "D#2",
          "midi": 39,
          "time": 51.20000000000037,
          "velocity": 0.48031496062992124,
          "duration": 0.10000000000000142
        },
        {
          "name": "D#3",
          "midi": 51,
          "time": 51.400000000000375,
          "velocity": 0.48031496062992124,
          "duration": 0.10000000000000142
        },
        {
          "name": "A#2",
          "midi": 46,
          "time": 51.60000000000038,
          "velocity": 0.48031496062992124,
          "duration": 0.10000000000000142
        },
        {
          "name": "D#3",
          "midi": 51,
          "time": 51.70000000000038,
          "velocity": 0.48031496062992124,
          "duration": 0.10000000000000142
        },
        {
          "name": "F3",
          "midi": 53,
          "time": 51.80000000000038,
          "velocity": 0.48031496062992124,
          "duration": 0.10000000000000142
        },
        {
          "name": "D#2",
          "midi": 39,
          "time": 52.000000000000384,
          "velocity": 0.48031496062992124,
          "duration": 0.10000000000000142
        },
        {
          "name": "D#3",
          "midi": 51,
          "time": 52.100000000000385,
          "velocity": 0.48031496062992124,
          "duration": 0.10000000000000142
        },
        {
          "name": "D#2",
          "midi": 39,
          "time": 52.30000000000039,
          "velocity": 0.48031496062992124,
          "duration": 0.10000000000000142
        },
        {
          "name": "A#2",
          "midi": 46,
          "time": 52.40000000000039,
          "velocity": 0.48031496062992124,
          "duration": 0.10000000000000142
        },
        {
          "name": "C#3",
          "midi": 49,
          "time": 52.60000000000039,
          "velocity": 0.48031496062992124,
          "duration": 0.10000000000000142
        },
        {
          "name": "D#2",
          "midi": 39,
          "time": 52.800000000000395,
          "velocity": 0.48031496062992124,
          "duration": 0.10000000000000142
        },
        {
          "name": "D#3",
          "midi": 51,
          "time": 53.0000000000004,
          "velocity": 0.48031496062992124,
          "duration": 0.10000000000000142
        },
        {
          "name": "A#2",
          "midi": 46,
          "time": 53.2000000000004,
          "velocity": 0.48031496062992124,
          "duration": 0.10000000000000142
        },
        {
          "name": "D#3",
          "midi": 51,
          "time": 53.3000000000004,
          "velocity": 0.48031496062992124,
          "duration": 0.10000000000000142
        },
        {
          "name": "F3",
          "midi": 53,
          "time": 53.400000000000404,
          "velocity": 0.48031496062992124,
          "duration": 0.10000000000000142
        },
        {
          "name": "F3",
          "midi": 53,
          "time": 53.400000000000404,
          "velocity": 0.48031496062992124,
          "duration": 0.10000000000000142
        },
        {
          "name": "D#2",
          "midi": 39,
          "time": 53.600000000000406,
          "velocity": 0.48031496062992124,
          "duration": 0.10000000000000142
        },
        {
          "name": "D#3",
          "midi": 51,
          "time": 53.70000000000041,
          "velocity": 0.48031496062992124,
          "duration": 0.10000000000000142
        },
        {
          "name": "D#2",
          "midi": 39,
          "time": 53.90000000000041,
          "velocity": 0.48031496062992124,
          "duration": 0.10000000000000142
        },
        {
          "name": "A#2",
          "midi": 46,
          "time": 54.00000000000041,
          "velocity": 0.48031496062992124,
          "duration": 0.10000000000000142
        },
        {
          "name": "C#3",
          "midi": 49,
          "time": 54.200000000000415,
          "velocity": 0.48031496062992124,
          "duration": 0.10000000000000142
        },
        {
          "name": "B1",
          "midi": 35,
          "time": 54.40000000000042,
          "velocity": 0.48031496062992124,
          "duration": 0.10000000000000142
        },
        {
          "name": "B2",
          "midi": 47,
          "time": 54.60000000000042,
          "velocity": 0.48031496062992124,
          "duration": 0.10000000000000142
        },
        {
          "name": "F#2",
          "midi": 42,
          "time": 54.80000000000042,
          "velocity": 0.48031496062992124,
          "duration": 0.10000000000000142
        },
        {
          "name": "B2",
          "midi": 47,
          "time": 54.900000000000425,
          "velocity": 0.48031496062992124,
          "duration": 0.10000000000000142
        },
        {
          "name": "C#3",
          "midi": 49,
          "time": 55.000000000000426,
          "velocity": 0.48031496062992124,
          "duration": 0.10000000000000142
        },
        {
          "name": "B1",
          "midi": 35,
          "time": 55.20000000000043,
          "velocity": 0.48031496062992124,
          "duration": 0.10000000000000142
        },
        {
          "name": "B2",
          "midi": 47,
          "time": 55.30000000000043,
          "velocity": 0.48031496062992124,
          "duration": 0.10000000000000142
        },
        {
          "name": "B1",
          "midi": 35,
          "time": 55.50000000000043,
          "velocity": 0.48031496062992124,
          "duration": 0.10000000000000142
        },
        {
          "name": "F#2",
          "midi": 42,
          "time": 55.600000000000435,
          "velocity": 0.48031496062992124,
          "duration": 0.10000000000000142
        },
        {
          "name": "G#2",
          "midi": 44,
          "time": 55.80000000000044,
          "velocity": 0.48031496062992124,
          "duration": 0.10000000000000142
        },
        {
          "name": "B2",
          "midi": 47,
          "time": 56.00000000000044,
          "velocity": 0.48031496062992124,
          "duration": 0.10000000000000142
        },
        {
          "name": "B3",
          "midi": 59,
          "time": 56.20000000000044,
          "velocity": 0.48031496062992124,
          "duration": 0.10000000000000142
        },
        {
          "name": "F#3",
          "midi": 54,
          "time": 56.400000000000446,
          "velocity": 0.48031496062992124,
          "duration": 0.10000000000000142
        },
        {
          "name": "B3",
          "midi": 59,
          "time": 56.50000000000045,
          "velocity": 0.48031496062992124,
          "duration": 0.10000000000000142
        },
        {
          "name": "C#4",
          "midi": 61,
          "time": 56.60000000000045,
          "velocity": 0.48031496062992124,
          "duration": 0.10000000000000142
        },
        {
          "name": "B3",
          "midi": 59,
          "time": 56.80000000000045,
          "velocity": 0.48031496062992124,
          "duration": 0.10000000000000142
        },
        {
          "name": "B2",
          "midi": 47,
          "time": 56.80000000000045,
          "velocity": 0.48031496062992124,
          "duration": 0.10000000000000142
        },
        {
          "name": "B3",
          "midi": 59,
          "time": 57.000000000000455,
          "velocity": 0.48031496062992124,
          "duration": 0.10000000000000142
        },
        {
          "name": "B2",
          "midi": 47,
          "time": 57.000000000000455,
          "velocity": 0.48031496062992124,
          "duration": 0.10000000000000142
        },
        {
          "name": "B3",
          "midi": 59,
          "time": 57.20000000000046,
          "velocity": 0.48031496062992124,
          "duration": 0.10000000000000142
        },
        {
          "name": "B2",
          "midi": 47,
          "time": 57.20000000000046,
          "velocity": 0.48031496062992124,
          "duration": 0.10000000000000142
        },
        {
          "name": "F#3",
          "midi": 54,
          "time": 57.40000000000046,
          "velocity": 0.48031496062992124,
          "duration": 0.10000000000000142
        },
        {
          "name": "D#2",
          "midi": 39,
          "time": 57.60000000000046,
          "velocity": 0.48031496062992124,
          "duration": 0.10000000000000142
        },
        {
          "name": "A#2",
          "midi": 46,
          "time": 57.700000000000465,
          "velocity": 0.48031496062992124,
          "duration": 0.10000000000000142
        },
        {
          "name": "D#3",
          "midi": 51,
          "time": 57.800000000000466,
          "velocity": 0.48031496062992124,
          "duration": 0.10000000000000142
        },
        {
          "name": "D#3",
          "midi": 51,
          "time": 58.00000000000047,
          "velocity": 0.48031496062992124,
          "duration": 0.10000000000000142
        },
        {
          "name": "A#3",
          "midi": 58,
          "time": 58.10000000000047,
          "velocity": 0.48031496062992124,
          "duration": 0.10000000000000142
        },
        {
          "name": "C#4",
          "midi": 61,
          "time": 58.20000000000047,
          "velocity": 0.48031496062992124,
          "duration": 0.10000000000000142
        },
        {
          "name": "D#3",
          "midi": 51,
          "time": 58.400000000000475,
          "velocity": 0.48031496062992124,
          "duration": 0.10000000000000142
        },
        {
          "name": "A#3",
          "midi": 58,
          "time": 58.500000000000476,
          "velocity": 0.48031496062992124,
          "duration": 0.10000000000000142
        },
        {
          "name": "D#4",
          "midi": 63,
          "time": 58.60000000000048,
          "velocity": 0.48031496062992124,
          "duration": 0.10000000000000142
        },
        {
          "name": "A#2",
          "midi": 46,
          "time": 58.80000000000048,
          "velocity": 0.48031496062992124,
          "duration": 0.10000000000000142
        },
        {
          "name": "D#3",
          "midi": 51,
          "time": 58.90000000000048,
          "velocity": 0.48031496062992124,
          "duration": 0.10000000000000142
        },
        {
          "name": "F#3",
          "midi": 54,
          "time": 59.00000000000048,
          "velocity": 0.48031496062992124,
          "duration": 0.10000000000000142
        },
        {
          "name": "D#2",
          "midi": 39,
          "time": 59.200000000000486,
          "velocity": 0.48031496062992124,
          "duration": 0.10000000000000142
        },
        {
          "name": "A#2",
          "midi": 46,
          "time": 59.30000000000049,
          "velocity": 0.48031496062992124,
          "duration": 0.10000000000000142
        },
        {
          "name": "D#3",
          "midi": 51,
          "time": 59.40000000000049,
          "velocity": 0.48031496062992124,
          "duration": 0.10000000000000142
        },
        {
          "name": "D#3",
          "midi": 51,
          "time": 59.60000000000049,
          "velocity": 0.48031496062992124,
          "duration": 0.10000000000000142
        },
        {
          "name": "A#3",
          "midi": 58,
          "time": 59.70000000000049,
          "velocity": 0.48031496062992124,
          "duration": 0.10000000000000142
        },
        {
          "name": "C#4",
          "midi": 61,
          "time": 59.800000000000495,
          "velocity": 0.48031496062992124,
          "duration": 0.10000000000000142
        },
        {
          "name": "D#3",
          "midi": 51,
          "time": 60.0000000000005,
          "velocity": 0.48031496062992124,
          "duration": 0.10000000000000142
        },
        {
          "name": "A#3",
          "midi": 58,
          "time": 60.1000000000005,
          "velocity": 0.48031496062992124,
          "duration": 0.10000000000000142
        },
        {
          "name": "D#4",
          "midi": 63,
          "time": 60.2000000000005,
          "velocity": 0.48031496062992124,
          "duration": 0.10000000000000142
        },
        {
          "name": "A#2",
          "midi": 46,
          "time": 60.4000000000005,
          "velocity": 0.48031496062992124,
          "duration": 0.10000000000000142
        },
        {
          "name": "D#3",
          "midi": 51,
          "time": 60.500000000000504,
          "velocity": 0.48031496062992124,
          "duration": 0.10000000000000142
        },
        {
          "name": "F#3",
          "midi": 54,
          "time": 60.600000000000506,
          "velocity": 0.48031496062992124,
          "duration": 0.10000000000000142
        },
        {
          "name": "B1",
          "midi": 35,
          "time": 60.80000000000051,
          "velocity": 0.48031496062992124,
          "duration": 0.10000000000000142
        },
        {
          "name": "B2",
          "midi": 47,
          "time": 61.00000000000051,
          "velocity": 0.48031496062992124,
          "duration": 0.10000000000000142
        },
        {
          "name": "B2",
          "midi": 47,
          "time": 61.200000000000514,
          "velocity": 0.48031496062992124,
          "duration": 0.10000000000000142
        },
        {
          "name": "F#3",
          "midi": 54,
          "time": 61.300000000000516,
          "velocity": 0.48031496062992124,
          "duration": 0.10000000000000142
        },
        {
          "name": "B3",
          "midi": 59,
          "time": 61.40000000000052,
          "velocity": 0.48031496062992124,
          "duration": 0.10000000000000142
        },
        {
          "name": "B2",
          "midi": 47,
          "time": 61.60000000000052,
          "velocity": 0.48031496062992124,
          "duration": 0.10000000000000142
        },
        {
          "name": "F#3",
          "midi": 54,
          "time": 61.70000000000052,
          "velocity": 0.48031496062992124,
          "duration": 0.10000000000000142
        },
        {
          "name": "C#4",
          "midi": 61,
          "time": 61.80000000000052,
          "velocity": 0.48031496062992124,
          "duration": 0.10000000000000142
        },
        {
          "name": "B2",
          "midi": 47,
          "time": 62.000000000000526,
          "velocity": 0.48031496062992124,
          "duration": 0.10000000000000142
        },
        {
          "name": "F#3",
          "midi": 54,
          "time": 62.10000000000053,
          "velocity": 0.48031496062992124,
          "duration": 0.10000000000000142
        },
        {
          "name": "B3",
          "midi": 59,
          "time": 62.20000000000053,
          "velocity": 0.48031496062992124,
          "duration": 0.10000000000000142
        },
        {
          "name": "B1",
          "midi": 35,
          "time": 62.40000000000053,
          "velocity": 0.48031496062992124,
          "duration": 0.10000000000000142
        },
        {
          "name": "B2",
          "midi": 47,
          "time": 62.600000000000534,
          "velocity": 0.48031496062992124,
          "duration": 0.10000000000000142
        },
        {
          "name": "B2",
          "midi": 47,
          "time": 62.80000000000054,
          "velocity": 0.48031496062992124,
          "duration": 0.10000000000000142
        },
        {
          "name": "F#3",
          "midi": 54,
          "time": 62.90000000000054,
          "velocity": 0.48031496062992124,
          "duration": 0.10000000000000142
        },
        {
          "name": "B3",
          "midi": 59,
          "time": 63.00000000000054,
          "velocity": 0.48031496062992124,
          "duration": 0.10000000000000142
        },
        {
          "name": "B2",
          "midi": 47,
          "time": 63.20000000000054,
          "velocity": 0.48031496062992124,
          "duration": 0.10000000000000142
        },
        {
          "name": "F#3",
          "midi": 54,
          "time": 63.300000000000544,
          "velocity": 0.48031496062992124,
          "duration": 0.10000000000000142
        },
        {
          "name": "C#4",
          "midi": 61,
          "time": 63.400000000000546,
          "velocity": 0.48031496062992124,
          "duration": 0.10000000000000142
        },
        {
          "name": "B2",
          "midi": 47,
          "time": 63.60000000000055,
          "velocity": 0.48031496062992124,
          "duration": 0.10000000000000142
        },
        {
          "name": "F#3",
          "midi": 54,
          "time": 63.70000000000055,
          "velocity": 0.48031496062992124,
          "duration": 0.10000000000000142
        },
        {
          "name": "B3",
          "midi": 59,
          "time": 63.80000000000055,
          "velocity": 0.48031496062992124,
          "duration": 0.10000000000000142
        },
        {
          "name": "D#2",
          "midi": 39,
          "time": 64.00000000000055,
          "velocity": 0.48031496062992124,
          "duration": 0.09999999999999432
        },
        {
          "name": "A#2",
          "midi": 46,
          "time": 64.10000000000055,
          "velocity": 0.48031496062992124,
          "duration": 0.09999999999999432
        },
        {
          "name": "D#3",
          "midi": 51,
          "time": 64.20000000000054,
          "velocity": 0.48031496062992124,
          "duration": 0.09999999999999432
        },
        {
          "name": "D#3",
          "midi": 51,
          "time": 64.40000000000053,
          "velocity": 0.48031496062992124,
          "duration": 0.09999999999999432
        },
        {
          "name": "A#3",
          "midi": 58,
          "time": 64.50000000000053,
          "velocity": 0.48031496062992124,
          "duration": 0.09999999999999432
        },
        {
          "name": "C#4",
          "midi": 61,
          "time": 64.60000000000052,
          "velocity": 0.48031496062992124,
          "duration": 0.09999999999999432
        },
        {
          "name": "D#3",
          "midi": 51,
          "time": 64.80000000000051,
          "velocity": 0.48031496062992124,
          "duration": 0.09999999999999432
        },
        {
          "name": "A#3",
          "midi": 58,
          "time": 64.9000000000005,
          "velocity": 0.48031496062992124,
          "duration": 0.09999999999999432
        },
        {
          "name": "D#4",
          "midi": 63,
          "time": 65.0000000000005,
          "velocity": 0.48031496062992124,
          "duration": 0.09999999999999432
        },
        {
          "name": "A#2",
          "midi": 46,
          "time": 65.20000000000049,
          "velocity": 0.48031496062992124,
          "duration": 0.09999999999999432
        },
        {
          "name": "D#3",
          "midi": 51,
          "time": 65.30000000000048,
          "velocity": 0.48031496062992124,
          "duration": 0.09999999999999432
        },
        {
          "name": "F#3",
          "midi": 54,
          "time": 65.40000000000047,
          "velocity": 0.48031496062992124,
          "duration": 0.09999999999999432
        },
        {
          "name": "D#2",
          "midi": 39,
          "time": 65.60000000000046,
          "velocity": 0.48031496062992124,
          "duration": 0.09999999999999432
        },
        {
          "name": "A#2",
          "midi": 46,
          "time": 65.70000000000046,
          "velocity": 0.48031496062992124,
          "duration": 0.09999999999999432
        },
        {
          "name": "D#3",
          "midi": 51,
          "time": 65.80000000000045,
          "velocity": 0.48031496062992124,
          "duration": 0.09999999999999432
        },
        {
          "name": "D#3",
          "midi": 51,
          "time": 66.00000000000044,
          "velocity": 0.48031496062992124,
          "duration": 0.09999999999999432
        },
        {
          "name": "A#3",
          "midi": 58,
          "time": 66.10000000000043,
          "velocity": 0.48031496062992124,
          "duration": 0.09999999999999432
        },
        {
          "name": "C#4",
          "midi": 61,
          "time": 66.20000000000043,
          "velocity": 0.48031496062992124,
          "duration": 0.09999999999999432
        },
        {
          "name": "D#3",
          "midi": 51,
          "time": 66.40000000000042,
          "velocity": 0.48031496062992124,
          "duration": 0.09999999999999432
        },
        {
          "name": "A#3",
          "midi": 58,
          "time": 66.50000000000041,
          "velocity": 0.48031496062992124,
          "duration": 0.09999999999999432
        },
        {
          "name": "D#4",
          "midi": 63,
          "time": 66.6000000000004,
          "velocity": 0.48031496062992124,
          "duration": 0.09999999999999432
        },
        {
          "name": "A#2",
          "midi": 46,
          "time": 66.8000000000004,
          "velocity": 0.48031496062992124,
          "duration": 0.09999999999999432
        },
        {
          "name": "D#3",
          "midi": 51,
          "time": 66.90000000000039,
          "velocity": 0.48031496062992124,
          "duration": 0.09999999999999432
        },
        {
          "name": "F#3",
          "midi": 54,
          "time": 67.00000000000038,
          "velocity": 0.48031496062992124,
          "duration": 0.09999999999999432
        },
        {
          "name": "B1",
          "midi": 35,
          "time": 67.20000000000037,
          "velocity": 0.48031496062992124,
          "duration": 0.09999999999999432
        },
        {
          "name": "B2",
          "midi": 47,
          "time": 67.40000000000036,
          "velocity": 0.48031496062992124,
          "duration": 0.09999999999999432
        },
        {
          "name": "B2",
          "midi": 47,
          "time": 67.60000000000035,
          "velocity": 0.48031496062992124,
          "duration": 0.09999999999999432
        },
        {
          "name": "F#3",
          "midi": 54,
          "time": 67.70000000000034,
          "velocity": 0.48031496062992124,
          "duration": 0.09999999999999432
        },
        {
          "name": "B3",
          "midi": 59,
          "time": 67.80000000000034,
          "velocity": 0.48031496062992124,
          "duration": 0.09999999999999432
        },
        {
          "name": "B2",
          "midi": 47,
          "time": 68.00000000000033,
          "velocity": 0.48031496062992124,
          "duration": 0.09999999999999432
        },
        {
          "name": "F#3",
          "midi": 54,
          "time": 68.10000000000032,
          "velocity": 0.48031496062992124,
          "duration": 0.09999999999999432
        },
        {
          "name": "C#4",
          "midi": 61,
          "time": 68.20000000000032,
          "velocity": 0.48031496062992124,
          "duration": 0.09999999999999432
        },
        {
          "name": "B2",
          "midi": 47,
          "time": 68.4000000000003,
          "velocity": 0.48031496062992124,
          "duration": 0.09999999999999432
        },
        {
          "name": "F#3",
          "midi": 54,
          "time": 68.5000000000003,
          "velocity": 0.48031496062992124,
          "duration": 0.09999999999999432
        },
        {
          "name": "B3",
          "midi": 59,
          "time": 68.60000000000029,
          "velocity": 0.48031496062992124,
          "duration": 0.09999999999999432
        },
        {
          "name": "B1",
          "midi": 35,
          "time": 68.80000000000028,
          "velocity": 0.48031496062992124,
          "duration": 0.09999999999999432
        },
        {
          "name": "B2",
          "midi": 47,
          "time": 69.00000000000027,
          "velocity": 0.48031496062992124,
          "duration": 0.09999999999999432
        },
        {
          "name": "B2",
          "midi": 47,
          "time": 69.20000000000026,
          "velocity": 0.48031496062992124,
          "duration": 0.09999999999999432
        },
        {
          "name": "F#3",
          "midi": 54,
          "time": 69.30000000000025,
          "velocity": 0.48031496062992124,
          "duration": 0.09999999999999432
        },
        {
          "name": "B3",
          "midi": 59,
          "time": 69.40000000000025,
          "velocity": 0.48031496062992124,
          "duration": 0.09999999999999432
        },
        {
          "name": "B2",
          "midi": 47,
          "time": 69.60000000000024,
          "velocity": 0.48031496062992124,
          "duration": 0.09999999999999432
        },
        {
          "name": "F#3",
          "midi": 54,
          "time": 69.70000000000023,
          "velocity": 0.48031496062992124,
          "duration": 0.09999999999999432
        },
        {
          "name": "C#4",
          "midi": 61,
          "time": 69.80000000000022,
          "velocity": 0.48031496062992124,
          "duration": 0.09999999999999432
        },
        {
          "name": "B2",
          "midi": 47,
          "time": 70.00000000000021,
          "velocity": 0.48031496062992124,
          "duration": 0.09999999999999432
        },
        {
          "name": "F#3",
          "midi": 54,
          "time": 70.10000000000021,
          "velocity": 0.48031496062992124,
          "duration": 0.09999999999999432
        },
        {
          "name": "B3",
          "midi": 59,
          "time": 70.2000000000002,
          "velocity": 0.48031496062992124,
          "duration": 0.09999999999999432
        },
        {
          "name": "D#2",
          "midi": 39,
          "time": 70.40000000000019,
          "velocity": 0.48031496062992124,
          "duration": 0.09999999999999432
        },
        {
          "name": "A#2",
          "midi": 46,
          "time": 70.50000000000018,
          "velocity": 0.48031496062992124,
          "duration": 0.09999999999999432
        },
        {
          "name": "D#3",
          "midi": 51,
          "time": 70.60000000000018,
          "velocity": 0.48031496062992124,
          "duration": 0.09999999999999432
        },
        {
          "name": "D#3",
          "midi": 51,
          "time": 70.80000000000017,
          "velocity": 0.48031496062992124,
          "duration": 0.09999999999999432
        },
        {
          "name": "A#3",
          "midi": 58,
          "time": 70.90000000000016,
          "velocity": 0.48031496062992124,
          "duration": 0.09999999999999432
        },
        {
          "name": "C#4",
          "midi": 61,
          "time": 71.00000000000016,
          "velocity": 0.48031496062992124,
          "duration": 0.09999999999999432
        },
        {
          "name": "D#3",
          "midi": 51,
          "time": 71.20000000000014,
          "velocity": 0.48031496062992124,
          "duration": 0.09999999999999432
        },
        {
          "name": "A#3",
          "midi": 58,
          "time": 71.30000000000014,
          "velocity": 0.48031496062992124,
          "duration": 0.09999999999999432
        },
        {
          "name": "D#4",
          "midi": 63,
          "time": 71.40000000000013,
          "velocity": 0.48031496062992124,
          "duration": 0.09999999999999432
        },
        {
          "name": "A#2",
          "midi": 46,
          "time": 71.60000000000012,
          "velocity": 0.48031496062992124,
          "duration": 0.09999999999999432
        },
        {
          "name": "D#3",
          "midi": 51,
          "time": 71.70000000000012,
          "velocity": 0.48031496062992124,
          "duration": 0.09999999999999432
        },
        {
          "name": "F#3",
          "midi": 54,
          "time": 71.80000000000011,
          "velocity": 0.48031496062992124,
          "duration": 0.09999999999999432
        },
        {
          "name": "D#2",
          "midi": 39,
          "time": 72.0000000000001,
          "velocity": 0.48031496062992124,
          "duration": 0.09999999999999432
        },
        {
          "name": "A#2",
          "midi": 46,
          "time": 72.1000000000001,
          "velocity": 0.48031496062992124,
          "duration": 0.09999999999999432
        },
        {
          "name": "D#3",
          "midi": 51,
          "time": 72.20000000000009,
          "velocity": 0.48031496062992124,
          "duration": 0.09999999999999432
        },
        {
          "name": "D#3",
          "midi": 51,
          "time": 72.40000000000008,
          "velocity": 0.48031496062992124,
          "duration": 0.09999999999999432
        },
        {
          "name": "A#3",
          "midi": 58,
          "time": 72.50000000000007,
          "velocity": 0.48031496062992124,
          "duration": 0.09999999999999432
        },
        {
          "name": "C#4",
          "midi": 61,
          "time": 72.60000000000007,
          "velocity": 0.48031496062992124,
          "duration": 0.09999999999999432
        },
        {
          "name": "D#3",
          "midi": 51,
          "time": 72.80000000000005,
          "velocity": 0.48031496062992124,
          "duration": 0.09999999999999432
        },
        {
          "name": "A#3",
          "midi": 58,
          "time": 72.90000000000005,
          "velocity": 0.48031496062992124,
          "duration": 0.09999999999999432
        },
        {
          "name": "D#4",
          "midi": 63,
          "time": 73.00000000000004,
          "velocity": 0.48031496062992124,
          "duration": 0.09999999999999432
        },
        {
          "name": "A#2",
          "midi": 46,
          "time": 73.20000000000003,
          "velocity": 0.48031496062992124,
          "duration": 0.09999999999999432
        },
        {
          "name": "D#3",
          "midi": 51,
          "time": 73.30000000000003,
          "velocity": 0.48031496062992124,
          "duration": 0.09999999999999432
        },
        {
          "name": "F#3",
          "midi": 54,
          "time": 73.40000000000002,
          "velocity": 0.48031496062992124,
          "duration": 0.09999999999999432
        },
        {
          "name": "B1",
          "midi": 35,
          "time": 73.60000000000001,
          "velocity": 0.48031496062992124,
          "duration": 0.09999999999999432
        },
        {
          "name": "B2",
          "midi": 47,
          "time": 73.8,
          "velocity": 0.48031496062992124,
          "duration": 0.09999999999999432
        },
        {
          "name": "B2",
          "midi": 47,
          "time": 73.99999999999999,
          "velocity": 0.48031496062992124,
          "duration": 0.09999999999999432
        },
        {
          "name": "F#3",
          "midi": 54,
          "time": 74.09999999999998,
          "velocity": 0.48031496062992124,
          "duration": 0.09999999999999432
        },
        {
          "name": "B3",
          "midi": 59,
          "time": 74.19999999999997,
          "velocity": 0.48031496062992124,
          "duration": 0.09999999999999432
        },
        {
          "name": "B2",
          "midi": 47,
          "time": 74.39999999999996,
          "velocity": 0.48031496062992124,
          "duration": 0.09999999999999432
        },
        {
          "name": "F#3",
          "midi": 54,
          "time": 74.49999999999996,
          "velocity": 0.48031496062992124,
          "duration": 0.09999999999999432
        },
        {
          "name": "C#4",
          "midi": 61,
          "time": 74.59999999999995,
          "velocity": 0.48031496062992124,
          "duration": 0.09999999999999432
        },
        {
          "name": "B2",
          "midi": 47,
          "time": 74.79999999999994,
          "velocity": 0.48031496062992124,
          "duration": 0.09999999999999432
        },
        {
          "name": "F#3",
          "midi": 54,
          "time": 74.89999999999993,
          "velocity": 0.48031496062992124,
          "duration": 0.09999999999999432
        },
        {
          "name": "B3",
          "midi": 59,
          "time": 74.99999999999993,
          "velocity": 0.48031496062992124,
          "duration": 0.09999999999999432
        },
        {
          "name": "B1",
          "midi": 35,
          "time": 75.19999999999992,
          "velocity": 0.48031496062992124,
          "duration": 0.09999999999999432
        },
        {
          "name": "B2",
          "midi": 47,
          "time": 75.3999999999999,
          "velocity": 0.48031496062992124,
          "duration": 0.09999999999999432
        },
        {
          "name": "B2",
          "midi": 47,
          "time": 75.5999999999999,
          "velocity": 0.48031496062992124,
          "duration": 0.09999999999999432
        },
        {
          "name": "F#3",
          "midi": 54,
          "time": 75.69999999999989,
          "velocity": 0.48031496062992124,
          "duration": 0.09999999999999432
        },
        {
          "name": "B3",
          "midi": 59,
          "time": 75.79999999999988,
          "velocity": 0.48031496062992124,
          "duration": 0.09999999999999432
        },
        {
          "name": "B2",
          "midi": 47,
          "time": 75.99999999999987,
          "velocity": 0.48031496062992124,
          "duration": 0.09999999999999432
        },
        {
          "name": "F#3",
          "midi": 54,
          "time": 76.09999999999987,
          "velocity": 0.48031496062992124,
          "duration": 0.09999999999999432
        },
        {
          "name": "C#4",
          "midi": 61,
          "time": 76.19999999999986,
          "velocity": 0.48031496062992124,
          "duration": 0.09999999999999432
        },
        {
          "name": "B2",
          "midi": 47,
          "time": 76.39999999999985,
          "velocity": 0.48031496062992124,
          "duration": 0.09999999999999432
        },
        {
          "name": "F#3",
          "midi": 54,
          "time": 76.49999999999984,
          "velocity": 0.48031496062992124,
          "duration": 0.09999999999999432
        },
        {
          "name": "B3",
          "midi": 59,
          "time": 76.59999999999984,
          "velocity": 0.48031496062992124,
          "duration": 0.09999999999999432
        },
        {
          "name": "D#2",
          "midi": 39,
          "time": 76.79999999999983,
          "velocity": 0.48031496062992124,
          "duration": 0.09999999999999432
        },
        {
          "name": "A#2",
          "midi": 46,
          "time": 76.89999999999982,
          "velocity": 0.48031496062992124,
          "duration": 0.09999999999999432
        },
        {
          "name": "D#3",
          "midi": 51,
          "time": 76.99999999999982,
          "velocity": 0.48031496062992124,
          "duration": 0.09999999999999432
        },
        {
          "name": "D#3",
          "midi": 51,
          "time": 77.1999999999998,
          "velocity": 0.48031496062992124,
          "duration": 0.09999999999999432
        },
        {
          "name": "A#3",
          "midi": 58,
          "time": 77.2999999999998,
          "velocity": 0.48031496062992124,
          "duration": 0.09999999999999432
        },
        {
          "name": "C#4",
          "midi": 61,
          "time": 77.39999999999979,
          "velocity": 0.48031496062992124,
          "duration": 0.09999999999999432
        },
        {
          "name": "D#3",
          "midi": 51,
          "time": 77.59999999999978,
          "velocity": 0.48031496062992124,
          "duration": 0.09999999999999432
        },
        {
          "name": "A#3",
          "midi": 58,
          "time": 77.69999999999978,
          "velocity": 0.48031496062992124,
          "duration": 0.09999999999999432
        },
        {
          "name": "D#4",
          "midi": 63,
          "time": 77.79999999999977,
          "velocity": 0.48031496062992124,
          "duration": 0.09999999999999432
        },
        {
          "name": "A#2",
          "midi": 46,
          "time": 77.99999999999976,
          "velocity": 0.48031496062992124,
          "duration": 0.09999999999999432
        },
        {
          "name": "D#3",
          "midi": 51,
          "time": 78.09999999999975,
          "velocity": 0.48031496062992124,
          "duration": 0.09999999999999432
        },
        {
          "name": "F#3",
          "midi": 54,
          "time": 78.19999999999975,
          "velocity": 0.48031496062992124,
          "duration": 0.09999999999999432
        },
        {
          "name": "D#2",
          "midi": 39,
          "time": 78.39999999999974,
          "velocity": 0.48031496062992124,
          "duration": 0.09999999999999432
        },
        {
          "name": "A#2",
          "midi": 46,
          "time": 78.49999999999973,
          "velocity": 0.48031496062992124,
          "duration": 0.09999999999999432
        },
        {
          "name": "D#3",
          "midi": 51,
          "time": 78.59999999999972,
          "velocity": 0.48031496062992124,
          "duration": 0.09999999999999432
        },
        {
          "name": "D#3",
          "midi": 51,
          "time": 78.79999999999971,
          "velocity": 0.48031496062992124,
          "duration": 0.09999999999999432
        },
        {
          "name": "A#3",
          "midi": 58,
          "time": 78.89999999999971,
          "velocity": 0.48031496062992124,
          "duration": 0.09999999999999432
        },
        {
          "name": "C#4",
          "midi": 61,
          "time": 78.9999999999997,
          "velocity": 0.48031496062992124,
          "duration": 0.09999999999999432
        },
        {
          "name": "D#3",
          "midi": 51,
          "time": 79.19999999999969,
          "velocity": 0.48031496062992124,
          "duration": 0.09999999999999432
        },
        {
          "name": "A#3",
          "midi": 58,
          "time": 79.29999999999968,
          "velocity": 0.48031496062992124,
          "duration": 0.09999999999999432
        },
        {
          "name": "D#4",
          "midi": 63,
          "time": 79.39999999999968,
          "velocity": 0.48031496062992124,
          "duration": 0.09999999999999432
        },
        {
          "name": "A#2",
          "midi": 46,
          "time": 79.59999999999967,
          "velocity": 0.48031496062992124,
          "duration": 0.09999999999999432
        },
        {
          "name": "D#3",
          "midi": 51,
          "time": 79.69999999999966,
          "velocity": 0.48031496062992124,
          "duration": 0.09999999999999432
        },
        {
          "name": "F#3",
          "midi": 54,
          "time": 79.79999999999966,
          "velocity": 0.48031496062992124,
          "duration": 0.09999999999999432
        },
        {
          "name": "B1",
          "midi": 35,
          "time": 79.99999999999964,
          "velocity": 0.48031496062992124,
          "duration": 0.09999999999999432
        },
        {
          "name": "B2",
          "midi": 47,
          "time": 80.19999999999963,
          "velocity": 0.48031496062992124,
          "duration": 0.09999999999999432
        },
        {
          "name": "B2",
          "midi": 47,
          "time": 80.39999999999962,
          "velocity": 0.48031496062992124,
          "duration": 0.09999999999999432
        },
        {
          "name": "F#3",
          "midi": 54,
          "time": 80.49999999999962,
          "velocity": 0.48031496062992124,
          "duration": 0.09999999999999432
        },
        {
          "name": "B3",
          "midi": 59,
          "time": 80.59999999999961,
          "velocity": 0.48031496062992124,
          "duration": 0.09999999999999432
        },
        {
          "name": "B2",
          "midi": 47,
          "time": 80.7999999999996,
          "velocity": 0.48031496062992124,
          "duration": 0.09999999999999432
        },
        {
          "name": "F#3",
          "midi": 54,
          "time": 80.8999999999996,
          "velocity": 0.48031496062992124,
          "duration": 0.09999999999999432
        },
        {
          "name": "C#4",
          "midi": 61,
          "time": 80.99999999999959,
          "velocity": 0.48031496062992124,
          "duration": 0.09999999999999432
        },
        {
          "name": "B2",
          "midi": 47,
          "time": 81.19999999999958,
          "velocity": 0.48031496062992124,
          "duration": 0.09999999999999432
        },
        {
          "name": "F#3",
          "midi": 54,
          "time": 81.29999999999957,
          "velocity": 0.48031496062992124,
          "duration": 0.09999999999999432
        },
        {
          "name": "B3",
          "midi": 59,
          "time": 81.39999999999957,
          "velocity": 0.48031496062992124,
          "duration": 0.09999999999999432
        },
        {
          "name": "B1",
          "midi": 35,
          "time": 81.59999999999955,
          "velocity": 0.48031496062992124,
          "duration": 0.09999999999999432
        },
        {
          "name": "B2",
          "midi": 47,
          "time": 81.79999999999954,
          "velocity": 0.48031496062992124,
          "duration": 0.09999999999999432
        },
        {
          "name": "B2",
          "midi": 47,
          "time": 81.99999999999953,
          "velocity": 0.48031496062992124,
          "duration": 0.09999999999999432
        },
        {
          "name": "F#3",
          "midi": 54,
          "time": 82.09999999999953,
          "velocity": 0.48031496062992124,
          "duration": 0.09999999999999432
        },
        {
          "name": "B3",
          "midi": 59,
          "time": 82.19999999999952,
          "velocity": 0.48031496062992124,
          "duration": 0.09999999999999432
        },
        {
          "name": "B2",
          "midi": 47,
          "time": 82.39999999999951,
          "velocity": 0.48031496062992124,
          "duration": 0.09999999999999432
        },
        {
          "name": "F#3",
          "midi": 54,
          "time": 82.4999999999995,
          "velocity": 0.48031496062992124,
          "duration": 0.09999999999999432
        },
        {
          "name": "B2",
          "midi": 47,
          "time": 82.5999999999995,
          "velocity": 0.48031496062992124,
          "duration": 0.09999999999999432
        },
        {
          "name": "C2",
          "midi": 36,
          "time": 82.79999999999949,
          "velocity": 0.48031496062992124,
          "duration": 0.09999999999999432
        },
        {
          "name": "B2",
          "midi": 47,
          "time": 82.99999999999947,
          "velocity": 0.48031496062992124,
          "duration": 0.09999999999999432
        },
        {
          "name": "C2",
          "midi": 36,
          "time": 83.19999999999946,
          "velocity": 0.48031496062992124,
          "duration": 0.09999999999999432
        },
        {
          "name": "C3",
          "midi": 48,
          "time": 83.39999999999945,
          "velocity": 0.48031496062992124,
          "duration": 0.09999999999999432
        },
        {
          "name": "C3",
          "midi": 48,
          "time": 83.59999999999944,
          "velocity": 0.48031496062992124,
          "duration": 0.09999999999999432
        },
        {
          "name": "C4",
          "midi": 60,
          "time": 83.79999999999943,
          "velocity": 0.48031496062992124,
          "duration": 0.09999999999999432
        },
        {
          "name": "G3",
          "midi": 55,
          "time": 83.79999999999943,
          "velocity": 0.48031496062992124,
          "duration": 0.09999999999999432
        },
        {
          "name": "C3",
          "midi": 48,
          "time": 83.99999999999942,
          "velocity": 0.48031496062992124,
          "duration": 0.09999999999999432
        },
        {
          "name": "G3",
          "midi": 55,
          "time": 84.1999999999994,
          "velocity": 0.48031496062992124,
          "duration": 0.09999999999999432
        },
        {
          "name": "E4",
          "midi": 64,
          "time": 84.1999999999994,
          "velocity": 0.48031496062992124,
          "duration": 0.09999999999999432
        },
        {
          "name": "C3",
          "midi": 48,
          "time": 84.3999999999994,
          "velocity": 0.48031496062992124,
          "duration": 0.09999999999999432
        },
        {
          "name": "G3",
          "midi": 55,
          "time": 84.59999999999938,
          "velocity": 0.48031496062992124,
          "duration": 0.09999999999999432
        },
        {
          "name": "A3",
          "midi": 57,
          "time": 84.59999999999938,
          "velocity": 0.48031496062992124,
          "duration": 0.09999999999999432
        },
        {
          "name": "C3",
          "midi": 48,
          "time": 84.79999999999937,
          "velocity": 0.48031496062992124,
          "duration": 0.09999999999999432
        },
        {
          "name": "G3",
          "midi": 55,
          "time": 84.99999999999936,
          "velocity": 0.48031496062992124,
          "duration": 0.09999999999999432
        },
        {
          "name": "A3",
          "midi": 57,
          "time": 84.99999999999936,
          "velocity": 0.48031496062992124,
          "duration": 0.09999999999999432
        },
        {
          "name": "C3",
          "midi": 48,
          "time": 85.19999999999935,
          "velocity": 0.48031496062992124,
          "duration": 0.09999999999999432
        },
        {
          "name": "A3",
          "midi": 57,
          "time": 85.39999999999934,
          "velocity": 0.48031496062992124,
          "duration": 0.09999999999999432
        },
        {
          "name": "D4",
          "midi": 62,
          "time": 85.39999999999934,
          "velocity": 0.48031496062992124,
          "duration": 0.09999999999999432
        },
        {
          "name": "A2",
          "midi": 45,
          "time": 85.59999999999933,
          "velocity": 0.48031496062992124,
          "duration": 0.09999999999999432
        },
        {
          "name": "B3",
          "midi": 59,
          "time": 85.59999999999933,
          "velocity": 0.48031496062992124,
          "duration": 0.09999999999999432
        },
        {
          "name": "A3",
          "midi": 57,
          "time": 85.79999999999932,
          "velocity": 0.48031496062992124,
          "duration": 0.09999999999999432
        },
        {
          "name": "C3",
          "midi": 48,
          "time": 85.79999999999932,
          "velocity": 0.48031496062992124,
          "duration": 0.09999999999999432
        },
        {
          "name": "A2",
          "midi": 45,
          "time": 85.9999999999993,
          "velocity": 0.48031496062992124,
          "duration": 0.09999999999999432
        },
        {
          "name": "G4",
          "midi": 67,
          "time": 85.9999999999993,
          "velocity": 0.48031496062992124,
          "duration": 0.09999999999999432
        },
        {
          "name": "C3",
          "midi": 48,
          "time": 86.19999999999929,
          "velocity": 0.48031496062992124,
          "duration": 0.09999999999999432
        },
        {
          "name": "G3",
          "midi": 55,
          "time": 86.19999999999929,
          "velocity": 0.48031496062992124,
          "duration": 0.09999999999999432
        },
        {
          "name": "E2",
          "midi": 40,
          "time": 86.39999999999928,
          "velocity": 0.48031496062992124,
          "duration": 0.09999999999999432
        },
        {
          "name": "B2",
          "midi": 47,
          "time": 86.59999999999927,
          "velocity": 0.48031496062992124,
          "duration": 0.09999999999999432
        },
        {
          "name": "E3",
          "midi": 52,
          "time": 86.59999999999927,
          "velocity": 0.48031496062992124,
          "duration": 0.09999999999999432
        },
        {
          "name": "E2",
          "midi": 40,
          "time": 86.79999999999926,
          "velocity": 0.48031496062992124,
          "duration": 0.09999999999999432
        },
        {
          "name": "B2",
          "midi": 47,
          "time": 86.99999999999925,
          "velocity": 0.48031496062992124,
          "duration": 0.09999999999999432
        },
        {
          "name": "D3",
          "midi": 50,
          "time": 86.99999999999925,
          "velocity": 0.48031496062992124,
          "duration": 0.09999999999999432
        },
        {
          "name": "E2",
          "midi": 40,
          "time": 87.19999999999924,
          "velocity": 0.48031496062992124,
          "duration": 0.09999999999999432
        },
        {
          "name": "B2",
          "midi": 47,
          "time": 87.39999999999922,
          "velocity": 0.48031496062992124,
          "duration": 0.09999999999999432
        },
        {
          "name": "E3",
          "midi": 52,
          "time": 87.39999999999922,
          "velocity": 0.48031496062992124,
          "duration": 0.09999999999999432
        },
        {
          "name": "E2",
          "midi": 40,
          "time": 87.59999999999921,
          "velocity": 0.48031496062992124,
          "duration": 0.09999999999999432
        },
        {
          "name": "B2",
          "midi": 47,
          "time": 87.7999999999992,
          "velocity": 0.48031496062992124,
          "duration": 0.09999999999999432
        },
        {
          "name": "G3",
          "midi": 55,
          "time": 87.7999999999992,
          "velocity": 0.48031496062992124,
          "duration": 0.09999999999999432
        },
        {
          "name": "E2",
          "midi": 40,
          "time": 87.99999999999919,
          "velocity": 0.48031496062992124,
          "duration": 0.09999999999999432
        },
        {
          "name": "B2",
          "midi": 47,
          "time": 88.19999999999918,
          "velocity": 0.48031496062992124,
          "duration": 0.09999999999999432
        },
        {
          "name": "E3",
          "midi": 52,
          "time": 88.19999999999918,
          "velocity": 0.48031496062992124,
          "duration": 0.09999999999999432
        },
        {
          "name": "E2",
          "midi": 40,
          "time": 88.39999999999917,
          "velocity": 0.48031496062992124,
          "duration": 0.09999999999999432
        },
        {
          "name": "E3",
          "midi": 52,
          "time": 88.59999999999916,
          "velocity": 0.48031496062992124,
          "duration": 0.09999999999999432
        },
        {
          "name": "B2",
          "midi": 47,
          "time": 88.59999999999916,
          "velocity": 0.48031496062992124,
          "duration": 0.09999999999999432
        },
        {
          "name": "E2",
          "midi": 40,
          "time": 88.79999999999914,
          "velocity": 0.48031496062992124,
          "duration": 0.09999999999999432
        },
        {
          "name": "B2",
          "midi": 47,
          "time": 88.99999999999913,
          "velocity": 0.48031496062992124,
          "duration": 0.09999999999999432
        },
        {
          "name": "F#3",
          "midi": 54,
          "time": 88.99999999999913,
          "velocity": 0.48031496062992124,
          "duration": 0.09999999999999432
        },
        {
          "name": "E2",
          "midi": 40,
          "time": 89.19999999999912,
          "velocity": 0.48031496062992124,
          "duration": 0.09999999999999432
        },
        {
          "name": "B2",
          "midi": 47,
          "time": 89.39999999999911,
          "velocity": 0.48031496062992124,
          "duration": 0.09999999999999432
        },
        {
          "name": "G3",
          "midi": 55,
          "time": 89.39999999999911,
          "velocity": 0.48031496062992124,
          "duration": 0.09999999999999432
        },
        {
          "name": "C2",
          "midi": 36,
          "time": 89.5999999999991,
          "velocity": 0.48031496062992124,
          "duration": 0.09999999999999432
        },
        {
          "name": "C3",
          "midi": 48,
          "time": 89.79999999999909,
          "velocity": 0.48031496062992124,
          "duration": 0.09999999999999432
        },
        {
          "name": "C3",
          "midi": 48,
          "time": 89.99999999999908,
          "velocity": 0.48031496062992124,
          "duration": 0.09999999999999432
        },
        {
          "name": "C4",
          "midi": 60,
          "time": 90.19999999999906,
          "velocity": 0.48031496062992124,
          "duration": 0.09999999999999432
        },
        {
          "name": "G3",
          "midi": 55,
          "time": 90.19999999999906,
          "velocity": 0.48031496062992124,
          "duration": 0.09999999999999432
        },
        {
          "name": "C3",
          "midi": 48,
          "time": 90.39999999999905,
          "velocity": 0.48031496062992124,
          "duration": 0.09999999999999432
        },
        {
          "name": "G3",
          "midi": 55,
          "time": 90.59999999999904,
          "velocity": 0.48031496062992124,
          "duration": 0.09999999999999432
        },
        {
          "name": "E4",
          "midi": 64,
          "time": 90.59999999999904,
          "velocity": 0.48031496062992124,
          "duration": 0.09999999999999432
        },
        {
          "name": "C3",
          "midi": 48,
          "time": 90.79999999999903,
          "velocity": 0.48031496062992124,
          "duration": 0.09999999999999432
        },
        {
          "name": "G3",
          "midi": 55,
          "time": 90.99999999999902,
          "velocity": 0.48031496062992124,
          "duration": 0.09999999999999432
        },
        {
          "name": "A3",
          "midi": 57,
          "time": 90.99999999999902,
          "velocity": 0.48031496062992124,
          "duration": 0.09999999999999432
        },
        {
          "name": "D3",
          "midi": 50,
          "time": 91.19999999999901,
          "velocity": 0.48031496062992124,
          "duration": 0.09999999999999432
        },
        {
          "name": "G3",
          "midi": 55,
          "time": 91.399999999999,
          "velocity": 0.48031496062992124,
          "duration": 0.09999999999999432
        },
        {
          "name": "A3",
          "midi": 57,
          "time": 91.399999999999,
          "velocity": 0.48031496062992124,
          "duration": 0.09999999999999432
        },
        {
          "name": "D3",
          "midi": 50,
          "time": 91.59999999999899,
          "velocity": 0.48031496062992124,
          "duration": 0.09999999999999432
        },
        {
          "name": "A3",
          "midi": 57,
          "time": 91.79999999999897,
          "velocity": 0.48031496062992124,
          "duration": 0.09999999999999432
        },
        {
          "name": "D4",
          "midi": 62,
          "time": 91.79999999999897,
          "velocity": 0.48031496062992124,
          "duration": 0.09999999999999432
        },
        {
          "name": "A2",
          "midi": 45,
          "time": 91.99999999999896,
          "velocity": 0.48031496062992124,
          "duration": 0.09999999999999432
        },
        {
          "name": "B3",
          "midi": 59,
          "time": 91.99999999999896,
          "velocity": 0.48031496062992124,
          "duration": 0.09999999999999432
        },
        {
          "name": "A3",
          "midi": 57,
          "time": 92.19999999999895,
          "velocity": 0.48031496062992124,
          "duration": 0.09999999999999432
        },
        {
          "name": "C3",
          "midi": 48,
          "time": 92.19999999999895,
          "velocity": 0.48031496062992124,
          "duration": 0.09999999999999432
        },
        {
          "name": "A2",
          "midi": 45,
          "time": 92.39999999999894,
          "velocity": 0.48031496062992124,
          "duration": 0.09999999999999432
        },
        {
          "name": "G4",
          "midi": 67,
          "time": 92.39999999999894,
          "velocity": 0.48031496062992124,
          "duration": 0.09999999999999432
        },
        {
          "name": "C3",
          "midi": 48,
          "time": 92.59999999999893,
          "velocity": 0.48031496062992124,
          "duration": 0.09999999999999432
        },
        {
          "name": "G3",
          "midi": 55,
          "time": 92.59999999999893,
          "velocity": 0.48031496062992124,
          "duration": 0.09999999999999432
        },
        {
          "name": "B2",
          "midi": 47,
          "time": 92.79999999999892,
          "velocity": 0.48031496062992124,
          "duration": 0.09999999999999432
        },
        {
          "name": "F#3",
          "midi": 54,
          "time": 92.9999999999989,
          "velocity": 0.48031496062992124,
          "duration": 0.09999999999999432
        },
        {
          "name": "B3",
          "midi": 59,
          "time": 92.9999999999989,
          "velocity": 0.48031496062992124,
          "duration": 0.09999999999999432
        },
        {
          "name": "B2",
          "midi": 47,
          "time": 93.1999999999989,
          "velocity": 0.48031496062992124,
          "duration": 0.09999999999999432
        },
        {
          "name": "A3",
          "midi": 57,
          "time": 93.39999999999888,
          "velocity": 0.48031496062992124,
          "duration": 0.09999999999999432
        },
        {
          "name": "F#3",
          "midi": 54,
          "time": 93.39999999999888,
          "velocity": 0.48031496062992124,
          "duration": 0.09999999999999432
        },
        {
          "name": "B2",
          "midi": 47,
          "time": 93.59999999999887,
          "velocity": 0.48031496062992124,
          "duration": 0.09999999999999432
        },
        {
          "name": "F#3",
          "midi": 54,
          "time": 93.79999999999886,
          "velocity": 0.48031496062992124,
          "duration": 0.09999999999999432
        },
        {
          "name": "B3",
          "midi": 59,
          "time": 93.79999999999886,
          "velocity": 0.48031496062992124,
          "duration": 0.09999999999999432
        },
        {
          "name": "B2",
          "midi": 47,
          "time": 93.99999999999885,
          "velocity": 0.48031496062992124,
          "duration": 0.09999999999999432
        },
        {
          "name": "F#3",
          "midi": 54,
          "time": 94.19999999999884,
          "velocity": 0.48031496062992124,
          "duration": 0.09999999999999432
        },
        {
          "name": "D#3",
          "midi": 51,
          "time": 94.19999999999884,
          "velocity": 0.48031496062992124,
          "duration": 0.09999999999999432
        },
        {
          "name": "B2",
          "midi": 47,
          "time": 94.39999999999883,
          "velocity": 0.48031496062992124,
          "duration": 0.09999999999999432
        },
        {
          "name": "F#3",
          "midi": 54,
          "time": 94.59999999999881,
          "velocity": 0.48031496062992124,
          "duration": 0.09999999999999432
        },
        {
          "name": "B3",
          "midi": 59,
          "time": 94.59999999999881,
          "velocity": 0.48031496062992124,
          "duration": 0.09999999999999432
        },
        {
          "name": "B2",
          "midi": 47,
          "time": 94.7999999999988,
          "velocity": 0.48031496062992124,
          "duration": 0.09999999999999432
        },
        {
          "name": "A3",
          "midi": 57,
          "time": 94.99999999999879,
          "velocity": 0.48031496062992124,
          "duration": 0.09999999999999432
        },
        {
          "name": "F#3",
          "midi": 54,
          "time": 94.99999999999879,
          "velocity": 0.48031496062992124,
          "duration": 0.09999999999999432
        },
        {
          "name": "B2",
          "midi": 47,
          "time": 95.19999999999878,
          "velocity": 0.48031496062992124,
          "duration": 0.09999999999999432
        },
        {
          "name": "F#3",
          "midi": 54,
          "time": 95.39999999999877,
          "velocity": 0.48031496062992124,
          "duration": 0.09999999999999432
        },
        {
          "name": "B3",
          "midi": 59,
          "time": 95.39999999999877,
          "velocity": 0.48031496062992124,
          "duration": 0.09999999999999432
        },
        {
          "name": "B2",
          "midi": 47,
          "time": 95.59999999999876,
          "velocity": 0.48031496062992124,
          "duration": 0.09999999999999432
        },
        {
          "name": "F#3",
          "midi": 54,
          "time": 95.79999999999875,
          "velocity": 0.48031496062992124,
          "duration": 0.09999999999999432
        },
        {
          "name": "D#3",
          "midi": 51,
          "time": 95.79999999999875,
          "velocity": 0.48031496062992124,
          "duration": 0.09999999999999432
        },
        {
          "name": "C3",
          "midi": 48,
          "time": 95.99999999999874,
          "velocity": 0.48031496062992124,
          "duration": 0.09999999999999432
        },
        {
          "name": "E3",
          "midi": 52,
          "time": 95.99999999999874,
          "velocity": 0.48031496062992124,
          "duration": 0.09999999999999432
        },
        {
          "name": "C3",
          "midi": 48,
          "time": 96.39999999999873,
          "velocity": 0.48031496062992124,
          "duration": 0.09999999999999432
        },
        {
          "name": "E3",
          "midi": 52,
          "time": 96.39999999999873,
          "velocity": 0.48031496062992124,
          "duration": 0.09999999999999432
        },
        {
          "name": "E3",
          "midi": 52,
          "time": 96.79999999999872,
          "velocity": 0.48031496062992124,
          "duration": 0.09999999999999432
        },
        {
          "name": "C3",
          "midi": 48,
          "time": 96.79999999999872,
          "velocity": 0.48031496062992124,
          "duration": 0.09999999999999432
        },
        {
          "name": "E3",
          "midi": 52,
          "time": 97.09999999999872,
          "velocity": 0.48031496062992124,
          "duration": 0.09999999999999432
        },
        {
          "name": "C3",
          "midi": 48,
          "time": 97.09999999999872,
          "velocity": 0.48031496062992124,
          "duration": 0.09999999999999432
        },
        {
          "name": "G2",
          "midi": 43,
          "time": 97.19999999999871,
          "velocity": 0.48031496062992124,
          "duration": 0.09999999999999432
        },
        {
          "name": "E3",
          "midi": 52,
          "time": 97.3999999999987,
          "velocity": 0.48031496062992124,
          "duration": 0.09999999999999432
        },
        {
          "name": "C3",
          "midi": 48,
          "time": 97.3999999999987,
          "velocity": 0.48031496062992124,
          "duration": 0.09999999999999432
        },
        {
          "name": "D2",
          "midi": 38,
          "time": 97.59999999999869,
          "velocity": 0.48031496062992124,
          "duration": 0.09999999999999432
        },
        {
          "name": "D3",
          "midi": 50,
          "time": 97.79999999999868,
          "velocity": 0.48031496062992124,
          "duration": 0.09999999999999432
        },
        {
          "name": "A2",
          "midi": 45,
          "time": 97.79999999999868,
          "velocity": 0.48031496062992124,
          "duration": 0.09999999999999432
        },
        {
          "name": "D3",
          "midi": 50,
          "time": 97.99999999999866,
          "velocity": 0.48031496062992124,
          "duration": 0.09999999999999432
        },
        {
          "name": "A2",
          "midi": 45,
          "time": 97.99999999999866,
          "velocity": 0.48031496062992124,
          "duration": 0.09999999999999432
        },
        {
          "name": "D3",
          "midi": 50,
          "time": 98.39999999999866,
          "velocity": 0.48031496062992124,
          "duration": 0.09999999999999432
        },
        {
          "name": "A2",
          "midi": 45,
          "time": 98.39999999999866,
          "velocity": 0.48031496062992124,
          "duration": 0.09999999999999432
        },
        {
          "name": "D3",
          "midi": 50,
          "time": 98.69999999999865,
          "velocity": 0.48031496062992124,
          "duration": 0.09999999999999432
        },
        {
          "name": "A2",
          "midi": 45,
          "time": 98.69999999999865,
          "velocity": 0.48031496062992124,
          "duration": 0.09999999999999432
        },
        {
          "name": "E2",
          "midi": 40,
          "time": 98.79999999999865,
          "velocity": 0.48031496062992124,
          "duration": 0.09999999999999432
        },
        {
          "name": "A2",
          "midi": 45,
          "time": 98.99999999999864,
          "velocity": 0.48031496062992124,
          "duration": 0.09999999999999432
        },
        {
          "name": "D3",
          "midi": 50,
          "time": 98.99999999999864,
          "velocity": 0.48031496062992124,
          "duration": 0.09999999999999432
        },
        {
          "name": "E2",
          "midi": 40,
          "time": 99.19999999999862,
          "velocity": 0.48031496062992124,
          "duration": 0.09999999999999432
        },
        {
          "name": "B2",
          "midi": 47,
          "time": 99.39999999999861,
          "velocity": 0.48031496062992124,
          "duration": 0.09999999999999432
        },
        {
          "name": "G2",
          "midi": 43,
          "time": 99.39999999999861,
          "velocity": 0.48031496062992124,
          "duration": 0.09999999999999432
        },
        {
          "name": "B2",
          "midi": 47,
          "time": 99.5999999999986,
          "velocity": 0.48031496062992124,
          "duration": 0.09999999999999432
        },
        {
          "name": "G2",
          "midi": 43,
          "time": 99.5999999999986,
          "velocity": 0.48031496062992124,
          "duration": 0.09999999999999432
        },
        {
          "name": "B2",
          "midi": 47,
          "time": 99.9999999999986,
          "velocity": 0.48031496062992124,
          "duration": 0.09999999999999432
        },
        {
          "name": "G2",
          "midi": 43,
          "time": 99.9999999999986,
          "velocity": 0.48031496062992124,
          "duration": 0.09999999999999432
        },
        {
          "name": "B2",
          "midi": 47,
          "time": 100.29999999999859,
          "velocity": 0.48031496062992124,
          "duration": 0.09999999999999432
        },
        {
          "name": "G2",
          "midi": 43,
          "time": 100.29999999999859,
          "velocity": 0.48031496062992124,
          "duration": 0.09999999999999432
        },
        {
          "name": "E2",
          "midi": 40,
          "time": 100.39999999999858,
          "velocity": 0.48031496062992124,
          "duration": 0.09999999999999432
        },
        {
          "name": "B2",
          "midi": 47,
          "time": 100.59999999999857,
          "velocity": 0.48031496062992124,
          "duration": 0.09999999999999432
        },
        {
          "name": "G2",
          "midi": 43,
          "time": 100.59999999999857,
          "velocity": 0.48031496062992124,
          "duration": 0.09999999999999432
        },
        {
          "name": "E2",
          "midi": 40,
          "time": 100.79999999999856,
          "velocity": 0.48031496062992124,
          "duration": 0.09999999999999432
        },
        {
          "name": "B2",
          "midi": 47,
          "time": 100.99999999999855,
          "velocity": 0.48031496062992124,
          "duration": 0.09999999999999432
        },
        {
          "name": "G2",
          "midi": 43,
          "time": 100.99999999999855,
          "velocity": 0.48031496062992124,
          "duration": 0.09999999999999432
        },
        {
          "name": "B2",
          "midi": 47,
          "time": 101.19999999999854,
          "velocity": 0.48031496062992124,
          "duration": 0.09999999999999432
        },
        {
          "name": "G2",
          "midi": 43,
          "time": 101.19999999999854,
          "velocity": 0.48031496062992124,
          "duration": 0.09999999999999432
        },
        {
          "name": "E2",
          "midi": 40,
          "time": 101.59999999999853,
          "velocity": 0.48031496062992124,
          "duration": 0.09999999999999432
        },
        {
          "name": "B1",
          "midi": 35,
          "time": 101.79999999999852,
          "velocity": 0.48031496062992124,
          "duration": 0.09999999999999432
        },
        {
          "name": "E2",
          "midi": 40,
          "time": 101.99999999999851,
          "velocity": 0.48031496062992124,
          "duration": 0.09999999999999432
        },
        {
          "name": "D2",
          "midi": 38,
          "time": 102.1999999999985,
          "velocity": 0.48031496062992124,
          "duration": 0.09999999999999432
        },
        {
          "name": "C3",
          "midi": 48,
          "time": 102.39999999999849,
          "velocity": 0.48031496062992124,
          "duration": 0.09999999999999432
        },
        {
          "name": "E3",
          "midi": 52,
          "time": 102.39999999999849,
          "velocity": 0.48031496062992124,
          "duration": 0.09999999999999432
        },
        {
          "name": "C3",
          "midi": 48,
          "time": 102.79999999999848,
          "velocity": 0.48031496062992124,
          "duration": 0.09999999999999432
        },
        {
          "name": "E3",
          "midi": 52,
          "time": 102.79999999999848,
          "velocity": 0.48031496062992124,
          "duration": 0.09999999999999432
        },
        {
          "name": "E3",
          "midi": 52,
          "time": 103.19999999999847,
          "velocity": 0.48031496062992124,
          "duration": 0.09999999999999432
        },
        {
          "name": "C3",
          "midi": 48,
          "time": 103.19999999999847,
          "velocity": 0.48031496062992124,
          "duration": 0.09999999999999432
        },
        {
          "name": "E3",
          "midi": 52,
          "time": 103.49999999999847,
          "velocity": 0.48031496062992124,
          "duration": 0.09999999999999432
        },
        {
          "name": "C3",
          "midi": 48,
          "time": 103.49999999999847,
          "velocity": 0.48031496062992124,
          "duration": 0.09999999999999432
        },
        {
          "name": "G2",
          "midi": 43,
          "time": 103.59999999999846,
          "velocity": 0.48031496062992124,
          "duration": 0.09999999999999432
        },
        {
          "name": "E3",
          "midi": 52,
          "time": 103.79999999999845,
          "velocity": 0.48031496062992124,
          "duration": 0.09999999999999432
        },
        {
          "name": "C3",
          "midi": 48,
          "time": 103.79999999999845,
          "velocity": 0.48031496062992124,
          "duration": 0.09999999999999432
        },
        {
          "name": "A2",
          "midi": 45,
          "time": 103.99999999999844,
          "velocity": 0.48031496062992124,
          "duration": 0.09999999999999432
        },
        {
          "name": "D3",
          "midi": 50,
          "time": 104.19999999999843,
          "velocity": 0.48031496062992124,
          "duration": 0.09999999999999432
        },
        {
          "name": "F#3",
          "midi": 54,
          "time": 104.19999999999843,
          "velocity": 0.48031496062992124,
          "duration": 0.09999999999999432
        },
        {
          "name": "D3",
          "midi": 50,
          "time": 104.39999999999841,
          "velocity": 0.48031496062992124,
          "duration": 0.09999999999999432
        },
        {
          "name": "F#3",
          "midi": 54,
          "time": 104.39999999999841,
          "velocity": 0.48031496062992124,
          "duration": 0.09999999999999432
        },
        {
          "name": "D3",
          "midi": 50,
          "time": 104.7999999999984,
          "velocity": 0.48031496062992124,
          "duration": 0.09999999999999432
        },
        {
          "name": "F#3",
          "midi": 54,
          "time": 104.7999999999984,
          "velocity": 0.48031496062992124,
          "duration": 0.09999999999999432
        },
        {
          "name": "A2",
          "midi": 45,
          "time": 104.9999999999984,
          "velocity": 0.48031496062992124,
          "duration": 0.09999999999999432
        },
        {
          "name": "A2",
          "midi": 45,
          "time": 105.19999999999838,
          "velocity": 0.48031496062992124,
          "duration": 0.09999999999999432
        },
        {
          "name": "D3",
          "midi": 50,
          "time": 105.19999999999838,
          "velocity": 0.48031496062992124,
          "duration": 0.09999999999999432
        },
        {
          "name": "D2",
          "midi": 38,
          "time": 105.39999999999837,
          "velocity": 0.48031496062992124,
          "duration": 0.09999999999999432
        },
        {
          "name": "F#2",
          "midi": 42,
          "time": 105.59999999999836,
          "velocity": 0.48031496062992124,
          "duration": 0.09999999999999432
        },
        {
          "name": "D#3",
          "midi": 51,
          "time": 105.79999999999835,
          "velocity": 0.48031496062992124,
          "duration": 0.09999999999999432
        },
        {
          "name": "B2",
          "midi": 47,
          "time": 105.79999999999835,
          "velocity": 0.48031496062992124,
          "duration": 0.09999999999999432
        },
        {
          "name": "D#3",
          "midi": 51,
          "time": 105.99999999999834,
          "velocity": 0.48031496062992124,
          "duration": 0.09999999999999432
        },
        {
          "name": "B2",
          "midi": 47,
          "time": 105.99999999999834,
          "velocity": 0.48031496062992124,
          "duration": 0.09999999999999432
        },
        {
          "name": "B2",
          "midi": 47,
          "time": 106.39999999999833,
          "velocity": 0.48031496062992124,
          "duration": 0.09999999999999432
        },
        {
          "name": "D#3",
          "midi": 51,
          "time": 106.39999999999833,
          "velocity": 0.48031496062992124,
          "duration": 0.09999999999999432
        },
        {
          "name": "B2",
          "midi": 47,
          "time": 106.69999999999833,
          "velocity": 0.48031496062992124,
          "duration": 0.09999999999999432
        },
        {
          "name": "D#3",
          "midi": 51,
          "time": 106.69999999999833,
          "velocity": 0.48031496062992124,
          "duration": 0.09999999999999432
        },
        {
          "name": "F#2",
          "midi": 42,
          "time": 106.79999999999832,
          "velocity": 0.48031496062992124,
          "duration": 0.09999999999999432
        },
        {
          "name": "B2",
          "midi": 47,
          "time": 106.99999999999831,
          "velocity": 0.48031496062992124,
          "duration": 0.09999999999999432
        },
        {
          "name": "D#3",
          "midi": 51,
          "time": 106.99999999999831,
          "velocity": 0.48031496062992124,
          "duration": 0.09999999999999432
        },
        {
          "name": "F#2",
          "midi": 42,
          "time": 107.1999999999983,
          "velocity": 0.48031496062992124,
          "duration": 0.09999999999999432
        },
        {
          "name": "D#3",
          "midi": 51,
          "time": 107.39999999999829,
          "velocity": 0.48031496062992124,
          "duration": 0.09999999999999432
        },
        {
          "name": "B2",
          "midi": 47,
          "time": 107.39999999999829,
          "velocity": 0.48031496062992124,
          "duration": 0.09999999999999432
        },
        {
          "name": "D#3",
          "midi": 51,
          "time": 107.59999999999827,
          "velocity": 0.48031496062992124,
          "duration": 0.09999999999999432
        },
        {
          "name": "B2",
          "midi": 47,
          "time": 107.59999999999827,
          "velocity": 0.48031496062992124,
          "duration": 0.09999999999999432
        },
        {
          "name": "D#3",
          "midi": 51,
          "time": 107.99999999999827,
          "velocity": 0.48031496062992124,
          "duration": 0.09999999999999432
        },
        {
          "name": "F#2",
          "midi": 42,
          "time": 108.19999999999825,
          "velocity": 0.48031496062992124,
          "duration": 0.09999999999999432
        },
        {
          "name": "B1",
          "midi": 35,
          "time": 108.39999999999824,
          "velocity": 0.48031496062992124,
          "duration": 0.09999999999999432
        },
        {
          "name": "C#2",
          "midi": 37,
          "time": 108.79999999999824,
          "velocity": 0.48031496062992124,
          "duration": 0.09999999999999432
        },
        {
          "name": "G#2",
          "midi": 44,
          "time": 108.99999999999822,
          "velocity": 0.48031496062992124,
          "duration": 0.09999999999999432
        },
        {
          "name": "C#3",
          "midi": 49,
          "time": 108.99999999999822,
          "velocity": 0.48031496062992124,
          "duration": 0.09999999999999432
        },
        {
          "name": "C#2",
          "midi": 37,
          "time": 109.19999999999821,
          "velocity": 0.48031496062992124,
          "duration": 0.09999999999999432
        },
        {
          "name": "G#2",
          "midi": 44,
          "time": 109.3999999999982,
          "velocity": 0.48031496062992124,
          "duration": 0.09999999999999432
        },
        {
          "name": "B2",
          "midi": 47,
          "time": 109.3999999999982,
          "velocity": 0.48031496062992124,
          "duration": 0.09999999999999432
        },
        {
          "name": "C#2",
          "midi": 37,
          "time": 109.59999999999819,
          "velocity": 0.48031496062992124,
          "duration": 0.09999999999999432
        },
        {
          "name": "G#2",
          "midi": 44,
          "time": 109.79999999999818,
          "velocity": 0.48031496062992124,
          "duration": 0.09999999999999432
        },
        {
          "name": "C#3",
          "midi": 49,
          "time": 109.79999999999818,
          "velocity": 0.48031496062992124,
          "duration": 0.09999999999999432
        },
        {
          "name": "C#2",
          "midi": 37,
          "time": 109.99999999999817,
          "velocity": 0.48031496062992124,
          "duration": 0.09999999999999432
        },
        {
          "name": "G#2",
          "midi": 44,
          "time": 110.19999999999816,
          "velocity": 0.48031496062992124,
          "duration": 0.09999999999999432
        },
        {
          "name": "D#3",
          "midi": 51,
          "time": 110.19999999999816,
          "velocity": 0.48031496062992124,
          "duration": 0.09999999999999432
        },
        {
          "name": "C#2",
          "midi": 37,
          "time": 110.39999999999814,
          "velocity": 0.48031496062992124,
          "duration": 0.09999999999999432
        },
        {
          "name": "G#2",
          "midi": 44,
          "time": 110.59999999999813,
          "velocity": 0.48031496062992124,
          "duration": 0.09999999999999432
        },
        {
          "name": "C#3",
          "midi": 49,
          "time": 110.59999999999813,
          "velocity": 0.48031496062992124,
          "duration": 0.09999999999999432
        },
        {
          "name": "C#2",
          "midi": 37,
          "time": 110.79999999999812,
          "velocity": 0.48031496062992124,
          "duration": 0.09999999999999432
        },
        {
          "name": "B2",
          "midi": 47,
          "time": 110.99999999999811,
          "velocity": 0.48031496062992124,
          "duration": 0.09999999999999432
        },
        {
          "name": "G#2",
          "midi": 44,
          "time": 110.99999999999811,
          "velocity": 0.48031496062992124,
          "duration": 0.09999999999999432
        },
        {
          "name": "C#2",
          "midi": 37,
          "time": 111.1999999999981,
          "velocity": 0.48031496062992124,
          "duration": 0.09999999999999432
        },
        {
          "name": "G#2",
          "midi": 44,
          "time": 111.39999999999809,
          "velocity": 0.48031496062992124,
          "duration": 0.09999999999999432
        },
        {
          "name": "D#3",
          "midi": 51,
          "time": 111.39999999999809,
          "velocity": 0.48031496062992124,
          "duration": 0.09999999999999432
        },
        {
          "name": "C#2",
          "midi": 37,
          "time": 111.59999999999808,
          "velocity": 0.48031496062992124,
          "duration": 0.09999999999999432
        },
        {
          "name": "G#2",
          "midi": 44,
          "time": 111.79999999999806,
          "velocity": 0.48031496062992124,
          "duration": 0.09999999999999432
        },
        {
          "name": "C#3",
          "midi": 49,
          "time": 111.79999999999806,
          "velocity": 0.48031496062992124,
          "duration": 0.09999999999999432
        },
        {
          "name": "A1",
          "midi": 33,
          "time": 111.99999999999805,
          "velocity": 0.48031496062992124,
          "duration": 0.09999999999999432
        },
        {
          "name": "E2",
          "midi": 40,
          "time": 112.19999999999804,
          "velocity": 0.48031496062992124,
          "duration": 0.09999999999999432
        },
        {
          "name": "A2",
          "midi": 45,
          "time": 112.19999999999804,
          "velocity": 0.48031496062992124,
          "duration": 0.09999999999999432
        },
        {
          "name": "A1",
          "midi": 33,
          "time": 112.39999999999803,
          "velocity": 0.48031496062992124,
          "duration": 0.09999999999999432
        },
        {
          "name": "E2",
          "midi": 40,
          "time": 112.59999999999802,
          "velocity": 0.48031496062992124,
          "duration": 0.09999999999999432
        },
        {
          "name": "G#2",
          "midi": 44,
          "time": 112.59999999999802,
          "velocity": 0.48031496062992124,
          "duration": 0.09999999999999432
        },
        {
          "name": "A1",
          "midi": 33,
          "time": 112.79999999999801,
          "velocity": 0.48031496062992124,
          "duration": 0.09999999999999432
        },
        {
          "name": "E2",
          "midi": 40,
          "time": 112.999999999998,
          "velocity": 0.48031496062992124,
          "duration": 0.09999999999999432
        },
        {
          "name": "A2",
          "midi": 45,
          "time": 112.999999999998,
          "velocity": 0.48031496062992124,
          "duration": 0.09999999999999432
        },
        {
          "name": "A1",
          "midi": 33,
          "time": 113.19999999999798,
          "velocity": 0.48031496062992124,
          "duration": 0.09999999999999432
        },
        {
          "name": "B2",
          "midi": 47,
          "time": 113.39999999999797,
          "velocity": 0.48031496062992124,
          "duration": 0.09999999999999432
        },
        {
          "name": "E2",
          "midi": 40,
          "time": 113.39999999999797,
          "velocity": 0.48031496062992124,
          "duration": 0.09999999999999432
        },
        {
          "name": "A1",
          "midi": 33,
          "time": 113.59999999999796,
          "velocity": 0.48031496062992124,
          "duration": 0.09999999999999432
        },
        {
          "name": "E2",
          "midi": 40,
          "time": 113.79999999999795,
          "velocity": 0.48031496062992124,
          "duration": 0.09999999999999432
        },
        {
          "name": "A2",
          "midi": 45,
          "time": 113.79999999999795,
          "velocity": 0.48031496062992124,
          "duration": 0.09999999999999432
        },
        {
          "name": "A1",
          "midi": 33,
          "time": 113.99999999999794,
          "velocity": 0.48031496062992124,
          "duration": 0.09999999999999432
        },
        {
          "name": "E2",
          "midi": 40,
          "time": 114.19999999999793,
          "velocity": 0.48031496062992124,
          "duration": 0.09999999999999432
        },
        {
          "name": "G#2",
          "midi": 44,
          "time": 114.19999999999793,
          "velocity": 0.48031496062992124,
          "duration": 0.09999999999999432
        },
        {
          "name": "A1",
          "midi": 33,
          "time": 114.39999999999792,
          "velocity": 0.48031496062992124,
          "duration": 0.09999999999999432
        },
        {
          "name": "E2",
          "midi": 40,
          "time": 114.5999999999979,
          "velocity": 0.48031496062992124,
          "duration": 0.09999999999999432
        },
        {
          "name": "B2",
          "midi": 47,
          "time": 114.5999999999979,
          "velocity": 0.48031496062992124,
          "duration": 0.09999999999999432
        },
        {
          "name": "A1",
          "midi": 33,
          "time": 114.7999999999979,
          "velocity": 0.48031496062992124,
          "duration": 0.09999999999999432
        },
        {
          "name": "A2",
          "midi": 45,
          "time": 114.99999999999788,
          "velocity": 0.48031496062992124,
          "duration": 0.09999999999999432
        },
        {
          "name": "E2",
          "midi": 40,
          "time": 114.99999999999788,
          "velocity": 0.48031496062992124,
          "duration": 0.09999999999999432
        },
        {
          "name": "C#2",
          "midi": 37,
          "time": 115.19999999999787,
          "velocity": 0.48031496062992124,
          "duration": 0.09999999999999432
        },
        {
          "name": "G#2",
          "midi": 44,
          "time": 115.39999999999786,
          "velocity": 0.48031496062992124,
          "duration": 0.09999999999999432
        },
        {
          "name": "C#3",
          "midi": 49,
          "time": 115.39999999999786,
          "velocity": 0.48031496062992124,
          "duration": 0.09999999999999432
        },
        {
          "name": "C#2",
          "midi": 37,
          "time": 115.59999999999785,
          "velocity": 0.48031496062992124,
          "duration": 0.09999999999999432
        },
        {
          "name": "G#2",
          "midi": 44,
          "time": 115.79999999999784,
          "velocity": 0.48031496062992124,
          "duration": 0.09999999999999432
        },
        {
          "name": "B2",
          "midi": 47,
          "time": 115.79999999999784,
          "velocity": 0.48031496062992124,
          "duration": 0.09999999999999432
        },
        {
          "name": "C#2",
          "midi": 37,
          "time": 115.99999999999783,
          "velocity": 0.48031496062992124,
          "duration": 0.09999999999999432
        },
        {
          "name": "G#2",
          "midi": 44,
          "time": 116.19999999999781,
          "velocity": 0.48031496062992124,
          "duration": 0.09999999999999432
        },
        {
          "name": "C#3",
          "midi": 49,
          "time": 116.19999999999781,
          "velocity": 0.48031496062992124,
          "duration": 0.09999999999999432
        },
        {
          "name": "C#2",
          "midi": 37,
          "time": 116.3999999999978,
          "velocity": 0.48031496062992124,
          "duration": 0.09999999999999432
        },
        {
          "name": "G#2",
          "midi": 44,
          "time": 116.59999999999779,
          "velocity": 0.48031496062992124,
          "duration": 0.09999999999999432
        },
        {
          "name": "D#3",
          "midi": 51,
          "time": 116.59999999999779,
          "velocity": 0.48031496062992124,
          "duration": 0.09999999999999432
        },
        {
          "name": "C#2",
          "midi": 37,
          "time": 116.79999999999778,
          "velocity": 0.48031496062992124,
          "duration": 0.09999999999999432
        },
        {
          "name": "G#2",
          "midi": 44,
          "time": 116.99999999999777,
          "velocity": 0.48031496062992124,
          "duration": 0.09999999999999432
        },
        {
          "name": "C#3",
          "midi": 49,
          "time": 116.99999999999777,
          "velocity": 0.48031496062992124,
          "duration": 0.09999999999999432
        },
        {
          "name": "C#2",
          "midi": 37,
          "time": 117.19999999999776,
          "velocity": 0.48031496062992124,
          "duration": 0.09999999999999432
        },
        {
          "name": "B2",
          "midi": 47,
          "time": 117.39999999999775,
          "velocity": 0.48031496062992124,
          "duration": 0.09999999999999432
        },
        {
          "name": "G#2",
          "midi": 44,
          "time": 117.39999999999775,
          "velocity": 0.48031496062992124,
          "duration": 0.09999999999999432
        },
        {
          "name": "C#2",
          "midi": 37,
          "time": 117.59999999999773,
          "velocity": 0.48031496062992124,
          "duration": 0.09999999999999432
        },
        {
          "name": "G#2",
          "midi": 44,
          "time": 117.79999999999772,
          "velocity": 0.48031496062992124,
          "duration": 0.09999999999999432
        },
        {
          "name": "D#3",
          "midi": 51,
          "time": 117.79999999999772,
          "velocity": 0.48031496062992124,
          "duration": 0.09999999999999432
        },
        {
          "name": "C#2",
          "midi": 37,
          "time": 117.99999999999771,
          "velocity": 0.48031496062992124,
          "duration": 0.09999999999999432
        },
        {
          "name": "G#2",
          "midi": 44,
          "time": 118.1999999999977,
          "velocity": 0.48031496062992124,
          "duration": 0.09999999999999432
        },
        {
          "name": "C#3",
          "midi": 49,
          "time": 118.1999999999977,
          "velocity": 0.48031496062992124,
          "duration": 0.09999999999999432
        },
        {
          "name": "A1",
          "midi": 33,
          "time": 118.39999999999769,
          "velocity": 0.48031496062992124,
          "duration": 0.09999999999999432
        },
        {
          "name": "E2",
          "midi": 40,
          "time": 118.59999999999768,
          "velocity": 0.48031496062992124,
          "duration": 0.09999999999999432
        },
        {
          "name": "A2",
          "midi": 45,
          "time": 118.59999999999768,
          "velocity": 0.48031496062992124,
          "duration": 0.09999999999999432
        },
        {
          "name": "A1",
          "midi": 33,
          "time": 118.79999999999767,
          "velocity": 0.48031496062992124,
          "duration": 0.09999999999999432
        },
        {
          "name": "E2",
          "midi": 40,
          "time": 118.99999999999766,
          "velocity": 0.48031496062992124,
          "duration": 0.09999999999999432
        },
        {
          "name": "G#2",
          "midi": 44,
          "time": 118.99999999999766,
          "velocity": 0.48031496062992124,
          "duration": 0.09999999999999432
        },
        {
          "name": "A1",
          "midi": 33,
          "time": 119.19999999999764,
          "velocity": 0.48031496062992124,
          "duration": 0.09999999999999432
        },
        {
          "name": "E2",
          "midi": 40,
          "time": 119.39999999999763,
          "velocity": 0.48031496062992124,
          "duration": 0.09999999999999432
        },
        {
          "name": "A2",
          "midi": 45,
          "time": 119.39999999999763,
          "velocity": 0.48031496062992124,
          "duration": 0.09999999999999432
        },
        {
          "name": "A1",
          "midi": 33,
          "time": 119.59999999999762,
          "velocity": 0.48031496062992124,
          "duration": 0.09999999999999432
        },
        {
          "name": "B2",
          "midi": 47,
          "time": 119.79999999999761,
          "velocity": 0.48031496062992124,
          "duration": 0.09999999999999432
        },
        {
          "name": "E2",
          "midi": 40,
          "time": 119.79999999999761,
          "velocity": 0.48031496062992124,
          "duration": 0.09999999999999432
        },
        {
          "name": "A1",
          "midi": 33,
          "time": 119.9999999999976,
          "velocity": 0.48031496062992124,
          "duration": 0.09999999999999432
        },
        {
          "name": "E2",
          "midi": 40,
          "time": 120.19999999999759,
          "velocity": 0.48031496062992124,
          "duration": 0.09999999999999432
        },
        {
          "name": "A2",
          "midi": 45,
          "time": 120.19999999999759,
          "velocity": 0.48031496062992124,
          "duration": 0.09999999999999432
        },
        {
          "name": "A1",
          "midi": 33,
          "time": 120.39999999999758,
          "velocity": 0.48031496062992124,
          "duration": 0.09999999999999432
        },
        {
          "name": "E2",
          "midi": 40,
          "time": 120.59999999999756,
          "velocity": 0.48031496062992124,
          "duration": 0.09999999999999432
        },
        {
          "name": "G#2",
          "midi": 44,
          "time": 120.59999999999756,
          "velocity": 0.48031496062992124,
          "duration": 0.09999999999999432
        },
        {
          "name": "A1",
          "midi": 33,
          "time": 120.79999999999755,
          "velocity": 0.48031496062992124,
          "duration": 0.09999999999999432
        },
        {
          "name": "E2",
          "midi": 40,
          "time": 120.99999999999754,
          "velocity": 0.48031496062992124,
          "duration": 0.09999999999999432
        },
        {
          "name": "B2",
          "midi": 47,
          "time": 120.99999999999754,
          "velocity": 0.48031496062992124,
          "duration": 0.09999999999999432
        },
        {
          "name": "A1",
          "midi": 33,
          "time": 121.19999999999753,
          "velocity": 0.48031496062992124,
          "duration": 0.09999999999999432
        },
        {
          "name": "A2",
          "midi": 45,
          "time": 121.39999999999752,
          "velocity": 0.48031496062992124,
          "duration": 0.09999999999999432
        },
        {
          "name": "E2",
          "midi": 40,
          "time": 121.39999999999752,
          "velocity": 0.48031496062992124,
          "duration": 0.09999999999999432
        },
        {
          "name": "C#2",
          "midi": 37,
          "time": 121.59999999999751,
          "velocity": 0.48031496062992124,
          "duration": 0.09999999999999432
        },
        {
          "name": "G#2",
          "midi": 44,
          "time": 121.7999999999975,
          "velocity": 0.48031496062992124,
          "duration": 0.09999999999999432
        },
        {
          "name": "C#3",
          "midi": 49,
          "time": 121.7999999999975,
          "velocity": 0.48031496062992124,
          "duration": 0.09999999999999432
        },
        {
          "name": "C#2",
          "midi": 37,
          "time": 121.99999999999748,
          "velocity": 0.48031496062992124,
          "duration": 0.09999999999999432
        },
        {
          "name": "G#2",
          "midi": 44,
          "time": 122.19999999999747,
          "velocity": 0.48031496062992124,
          "duration": 0.09999999999999432
        },
        {
          "name": "B2",
          "midi": 47,
          "time": 122.19999999999747,
          "velocity": 0.48031496062992124,
          "duration": 0.09999999999999432
        },
        {
          "name": "C#2",
          "midi": 37,
          "time": 122.39999999999746,
          "velocity": 0.48031496062992124,
          "duration": 0.09999999999999432
        },
        {
          "name": "G#2",
          "midi": 44,
          "time": 122.59999999999745,
          "velocity": 0.48031496062992124,
          "duration": 0.09999999999999432
        },
        {
          "name": "C#3",
          "midi": 49,
          "time": 122.59999999999745,
          "velocity": 0.48031496062992124,
          "duration": 0.09999999999999432
        },
        {
          "name": "C#2",
          "midi": 37,
          "time": 122.79999999999744,
          "velocity": 0.48031496062992124,
          "duration": 0.09999999999999432
        },
        {
          "name": "G#2",
          "midi": 44,
          "time": 122.99999999999743,
          "velocity": 0.48031496062992124,
          "duration": 0.09999999999999432
        },
        {
          "name": "D#3",
          "midi": 51,
          "time": 122.99999999999743,
          "velocity": 0.48031496062992124,
          "duration": 0.09999999999999432
        },
        {
          "name": "C#2",
          "midi": 37,
          "time": 123.19999999999742,
          "velocity": 0.48031496062992124,
          "duration": 0.09999999999999432
        },
        {
          "name": "G#2",
          "midi": 44,
          "time": 123.3999999999974,
          "velocity": 0.48031496062992124,
          "duration": 0.09999999999999432
        },
        {
          "name": "C#3",
          "midi": 49,
          "time": 123.3999999999974,
          "velocity": 0.48031496062992124,
          "duration": 0.09999999999999432
        },
        {
          "name": "C#2",
          "midi": 37,
          "time": 123.5999999999974,
          "velocity": 0.48031496062992124,
          "duration": 0.09999999999999432
        },
        {
          "name": "B2",
          "midi": 47,
          "time": 123.79999999999738,
          "velocity": 0.48031496062992124,
          "duration": 0.09999999999999432
        },
        {
          "name": "G#2",
          "midi": 44,
          "time": 123.79999999999738,
          "velocity": 0.48031496062992124,
          "duration": 0.09999999999999432
        },
        {
          "name": "C#2",
          "midi": 37,
          "time": 123.99999999999737,
          "velocity": 0.48031496062992124,
          "duration": 0.09999999999999432
        },
        {
          "name": "G#2",
          "midi": 44,
          "time": 124.19999999999736,
          "velocity": 0.48031496062992124,
          "duration": 0.09999999999999432
        },
        {
          "name": "D#3",
          "midi": 51,
          "time": 124.19999999999736,
          "velocity": 0.48031496062992124,
          "duration": 0.09999999999999432
        },
        {
          "name": "C#2",
          "midi": 37,
          "time": 124.39999999999735,
          "velocity": 0.48031496062992124,
          "duration": 0.09999999999999432
        },
        {
          "name": "G#2",
          "midi": 44,
          "time": 124.59999999999734,
          "velocity": 0.48031496062992124,
          "duration": 0.09999999999999432
        },
        {
          "name": "C#3",
          "midi": 49,
          "time": 124.59999999999734,
          "velocity": 0.48031496062992124,
          "duration": 0.09999999999999432
        },
        {
          "name": "D#3",
          "midi": 51,
          "time": 124.59999999999734,
          "velocity": 0.48031496062992124,
          "duration": 0.09999999999999432
        },
        {
          "name": "A1",
          "midi": 33,
          "time": 124.79999999999733,
          "velocity": 0.48031496062992124,
          "duration": 0.09999999999999432
        },
        {
          "name": "E2",
          "midi": 40,
          "time": 124.99999999999731,
          "velocity": 0.48031496062992124,
          "duration": 0.09999999999999432
        },
        {
          "name": "A2",
          "midi": 45,
          "time": 124.99999999999731,
          "velocity": 0.48031496062992124,
          "duration": 0.09999999999999432
        },
        {
          "name": "A1",
          "midi": 33,
          "time": 125.1999999999973,
          "velocity": 0.48031496062992124,
          "duration": 0.09999999999999432
        },
        {
          "name": "E2",
          "midi": 40,
          "time": 125.39999999999729,
          "velocity": 0.48031496062992124,
          "duration": 0.09999999999999432
        },
        {
          "name": "G#2",
          "midi": 44,
          "time": 125.39999999999729,
          "velocity": 0.48031496062992124,
          "duration": 0.09999999999999432
        },
        {
          "name": "A1",
          "midi": 33,
          "time": 125.59999999999728,
          "velocity": 0.48031496062992124,
          "duration": 0.09999999999999432
        },
        {
          "name": "E2",
          "midi": 40,
          "time": 125.79999999999727,
          "velocity": 0.48031496062992124,
          "duration": 0.09999999999999432
        },
        {
          "name": "A2",
          "midi": 45,
          "time": 125.79999999999727,
          "velocity": 0.48031496062992124,
          "duration": 0.09999999999999432
        },
        {
          "name": "A1",
          "midi": 33,
          "time": 125.99999999999726,
          "velocity": 0.48031496062992124,
          "duration": 0.09999999999999432
        },
        {
          "name": "B2",
          "midi": 47,
          "time": 126.19999999999725,
          "velocity": 0.48031496062992124,
          "duration": 0.09999999999999432
        },
        {
          "name": "E2",
          "midi": 40,
          "time": 126.19999999999725,
          "velocity": 0.48031496062992124,
          "duration": 0.09999999999999432
        },
        {
          "name": "A1",
          "midi": 33,
          "time": 126.39999999999723,
          "velocity": 0.48031496062992124,
          "duration": 0.09999999999999432
        },
        {
          "name": "E2",
          "midi": 40,
          "time": 126.59999999999722,
          "velocity": 0.48031496062992124,
          "duration": 0.09999999999999432
        },
        {
          "name": "A2",
          "midi": 45,
          "time": 126.59999999999722,
          "velocity": 0.48031496062992124,
          "duration": 0.09999999999999432
        },
        {
          "name": "A1",
          "midi": 33,
          "time": 126.79999999999721,
          "velocity": 0.48031496062992124,
          "duration": 0.09999999999999432
        },
        {
          "name": "E2",
          "midi": 40,
          "time": 126.9999999999972,
          "velocity": 0.48031496062992124,
          "duration": 0.09999999999999432
        },
        {
          "name": "G#2",
          "midi": 44,
          "time": 126.9999999999972,
          "velocity": 0.48031496062992124,
          "duration": 0.09999999999999432
        },
        {
          "name": "A1",
          "midi": 33,
          "time": 127.19999999999719,
          "velocity": 0.48031496062992124,
          "duration": 0.09999999999999432
        },
        {
          "name": "E2",
          "midi": 40,
          "time": 127.39999999999718,
          "velocity": 0.48031496062992124,
          "duration": 0.09999999999999432
        },
        {
          "name": "B2",
          "midi": 47,
          "time": 127.39999999999718,
          "velocity": 0.48031496062992124,
          "duration": 0.09999999999999432
        },
        {
          "name": "A1",
          "midi": 33,
          "time": 127.59999999999717,
          "velocity": 0.48031496062992124,
          "duration": 0.09999999999999432
        },
        {
          "name": "A2",
          "midi": 45,
          "time": 127.79999999999715,
          "velocity": 0.48031496062992124,
          "duration": 0.09999999999999432
        },
        {
          "name": "E2",
          "midi": 40,
          "time": 127.79999999999715,
          "velocity": 0.48031496062992124,
          "duration": 0.09999999999999432
        },
        {
          "name": "C#2",
          "midi": 37,
          "time": 127.99999999999714,
          "velocity": 0.48031496062992124,
          "duration": 0.10000000000000853
        },
        {
          "name": "G#2",
          "midi": 44,
          "time": 128.19999999999715,
          "velocity": 0.48031496062992124,
          "duration": 0.09999999999999432
        },
        {
          "name": "C#3",
          "midi": 49,
          "time": 128.19999999999715,
          "velocity": 0.48031496062992124,
          "duration": 0.09999999999999432
        },
        {
          "name": "C#2",
          "midi": 37,
          "time": 128.39999999999714,
          "velocity": 0.48031496062992124,
          "duration": 0.09999999999999432
        },
        {
          "name": "G#2",
          "midi": 44,
          "time": 128.59999999999712,
          "velocity": 0.48031496062992124,
          "duration": 0.09999999999999432
        },
        {
          "name": "B2",
          "midi": 47,
          "time": 128.59999999999712,
          "velocity": 0.48031496062992124,
          "duration": 0.09999999999999432
        },
        {
          "name": "C#2",
          "midi": 37,
          "time": 128.7999999999971,
          "velocity": 0.48031496062992124,
          "duration": 0.09999999999999432
        },
        {
          "name": "G#2",
          "midi": 44,
          "time": 128.9999999999971,
          "velocity": 0.48031496062992124,
          "duration": 0.09999999999999432
        },
        {
          "name": "C#3",
          "midi": 49,
          "time": 128.9999999999971,
          "velocity": 0.48031496062992124,
          "duration": 0.09999999999999432
        },
        {
          "name": "C#2",
          "midi": 37,
          "time": 129.1999999999971,
          "velocity": 0.48031496062992124,
          "duration": 0.09999999999999432
        },
        {
          "name": "G#2",
          "midi": 44,
          "time": 129.39999999999708,
          "velocity": 0.48031496062992124,
          "duration": 0.09999999999999432
        },
        {
          "name": "D#3",
          "midi": 51,
          "time": 129.39999999999708,
          "velocity": 0.48031496062992124,
          "duration": 0.09999999999999432
        },
        {
          "name": "C#2",
          "midi": 37,
          "time": 129.59999999999707,
          "velocity": 0.48031496062992124,
          "duration": 0.09999999999999432
        },
        {
          "name": "G#2",
          "midi": 44,
          "time": 129.79999999999706,
          "velocity": 0.48031496062992124,
          "duration": 0.09999999999999432
        },
        {
          "name": "C#3",
          "midi": 49,
          "time": 129.79999999999706,
          "velocity": 0.48031496062992124,
          "duration": 0.09999999999999432
        },
        {
          "name": "C#2",
          "midi": 37,
          "time": 129.99999999999704,
          "velocity": 0.48031496062992124,
          "duration": 0.09999999999999432
        },
        {
          "name": "B2",
          "midi": 47,
          "time": 130.19999999999703,
          "velocity": 0.48031496062992124,
          "duration": 0.09999999999999432
        },
        {
          "name": "G#2",
          "midi": 44,
          "time": 130.19999999999703,
          "velocity": 0.48031496062992124,
          "duration": 0.09999999999999432
        },
        {
          "name": "C#2",
          "midi": 37,
          "time": 130.39999999999702,
          "velocity": 0.48031496062992124,
          "duration": 0.09999999999999432
        },
        {
          "name": "G#2",
          "midi": 44,
          "time": 130.599999999997,
          "velocity": 0.48031496062992124,
          "duration": 0.09999999999999432
        },
        {
          "name": "D#3",
          "midi": 51,
          "time": 130.599999999997,
          "velocity": 0.48031496062992124,
          "duration": 0.09999999999999432
        },
        {
          "name": "C#2",
          "midi": 37,
          "time": 130.799999999997,
          "velocity": 0.48031496062992124,
          "duration": 0.09999999999999432
        },
        {
          "name": "G#2",
          "midi": 44,
          "time": 130.999999999997,
          "velocity": 0.48031496062992124,
          "duration": 0.09999999999999432
        },
        {
          "name": "C#3",
          "midi": 49,
          "time": 130.999999999997,
          "velocity": 0.48031496062992124,
          "duration": 0.09999999999999432
        },
        {
          "name": "A1",
          "midi": 33,
          "time": 131.19999999999698,
          "velocity": 0.48031496062992124,
          "duration": 0.09999999999999432
        },
        {
          "name": "E2",
          "midi": 40,
          "time": 131.39999999999696,
          "velocity": 0.48031496062992124,
          "duration": 0.09999999999999432
        },
        {
          "name": "A2",
          "midi": 45,
          "time": 131.39999999999696,
          "velocity": 0.48031496062992124,
          "duration": 0.09999999999999432
        },
        {
          "name": "A1",
          "midi": 33,
          "time": 131.59999999999695,
          "velocity": 0.48031496062992124,
          "duration": 0.09999999999999432
        },
        {
          "name": "E2",
          "midi": 40,
          "time": 131.79999999999694,
          "velocity": 0.48031496062992124,
          "duration": 0.09999999999999432
        },
        {
          "name": "G#2",
          "midi": 44,
          "time": 131.79999999999694,
          "velocity": 0.48031496062992124,
          "duration": 0.09999999999999432
        },
        {
          "name": "A1",
          "midi": 33,
          "time": 131.99999999999693,
          "velocity": 0.48031496062992124,
          "duration": 0.09999999999999432
        },
        {
          "name": "E2",
          "midi": 40,
          "time": 132.19999999999692,
          "velocity": 0.48031496062992124,
          "duration": 0.09999999999999432
        },
        {
          "name": "A2",
          "midi": 45,
          "time": 132.19999999999692,
          "velocity": 0.48031496062992124,
          "duration": 0.09999999999999432
        },
        {
          "name": "A1",
          "midi": 33,
          "time": 132.3999999999969,
          "velocity": 0.48031496062992124,
          "duration": 0.09999999999999432
        },
        {
          "name": "B2",
          "midi": 47,
          "time": 132.5999999999969,
          "velocity": 0.48031496062992124,
          "duration": 0.09999999999999432
        },
        {
          "name": "E2",
          "midi": 40,
          "time": 132.5999999999969,
          "velocity": 0.48031496062992124,
          "duration": 0.09999999999999432
        },
        {
          "name": "A1",
          "midi": 33,
          "time": 132.79999999999688,
          "velocity": 0.48031496062992124,
          "duration": 0.09999999999999432
        },
        {
          "name": "E2",
          "midi": 40,
          "time": 132.99999999999687,
          "velocity": 0.48031496062992124,
          "duration": 0.09999999999999432
        },
        {
          "name": "A2",
          "midi": 45,
          "time": 132.99999999999687,
          "velocity": 0.48031496062992124,
          "duration": 0.09999999999999432
        },
        {
          "name": "A1",
          "midi": 33,
          "time": 133.19999999999686,
          "velocity": 0.48031496062992124,
          "duration": 0.09999999999999432
        },
        {
          "name": "E2",
          "midi": 40,
          "time": 133.39999999999685,
          "velocity": 0.48031496062992124,
          "duration": 0.09999999999999432
        },
        {
          "name": "G#2",
          "midi": 44,
          "time": 133.39999999999685,
          "velocity": 0.48031496062992124,
          "duration": 0.09999999999999432
        },
        {
          "name": "C#2",
          "midi": 37,
          "time": 133.59999999999684,
          "velocity": 0.48031496062992124,
          "duration": 0.09999999999999432
        },
        {
          "name": "G2",
          "midi": 43,
          "time": 133.79999999999683,
          "velocity": 0.48031496062992124,
          "duration": 0.09999999999999432
        },
        {
          "name": "B2",
          "midi": 47,
          "time": 133.79999999999683,
          "velocity": 0.48031496062992124,
          "duration": 0.09999999999999432
        },
        {
          "name": "G1",
          "midi": 31,
          "time": 133.99999999999682,
          "velocity": 0.48031496062992124,
          "duration": 0.09999999999999432
        },
        {
          "name": "F2",
          "midi": 41,
          "time": 134.1999999999968,
          "velocity": 0.48031496062992124,
          "duration": 0.09999999999999432
        },
        {
          "name": "C#2",
          "midi": 37,
          "time": 134.1999999999968,
          "velocity": 0.48031496062992124,
          "duration": 0.09999999999999432
        },
        {
          "name": "D2",
          "midi": 38,
          "time": 134.3999999999968,
          "velocity": 0.48031496062992124,
          "duration": 0.09999999999999432
        },
        {
          "name": "A2",
          "midi": 45,
          "time": 134.4999999999968,
          "velocity": 0.48031496062992124,
          "duration": 0.09999999999999432
        },
        {
          "name": "D3",
          "midi": 50,
          "time": 134.59999999999678,
          "velocity": 0.48031496062992124,
          "duration": 0.09999999999999432
        },
        {
          "name": "D3",
          "midi": 50,
          "time": 134.79999999999677,
          "velocity": 0.48031496062992124,
          "duration": 0.09999999999999432
        },
        {
          "name": "A3",
          "midi": 57,
          "time": 134.89999999999677,
          "velocity": 0.48031496062992124,
          "duration": 0.09999999999999432
        },
        {
          "name": "C4",
          "midi": 60,
          "time": 134.99999999999676,
          "velocity": 0.48031496062992124,
          "duration": 0.09999999999999432
        },
        {
          "name": "D3",
          "midi": 50,
          "time": 135.19999999999675,
          "velocity": 0.48031496062992124,
          "duration": 0.09999999999999432
        },
        {
          "name": "A3",
          "midi": 57,
          "time": 135.29999999999674,
          "velocity": 0.48031496062992124,
          "duration": 0.09999999999999432
        },
        {
          "name": "D4",
          "midi": 62,
          "time": 135.39999999999674,
          "velocity": 0.48031496062992124,
          "duration": 0.09999999999999432
        },
        {
          "name": "A2",
          "midi": 45,
          "time": 135.59999999999673,
          "velocity": 0.48031496062992124,
          "duration": 0.09999999999999432
        },
        {
          "name": "D3",
          "midi": 50,
          "time": 135.69999999999672,
          "velocity": 0.48031496062992124,
          "duration": 0.09999999999999432
        },
        {
          "name": "F3",
          "midi": 53,
          "time": 135.79999999999671,
          "velocity": 0.48031496062992124,
          "duration": 0.09999999999999432
        },
        {
          "name": "D2",
          "midi": 38,
          "time": 135.9999999999967,
          "velocity": 0.48031496062992124,
          "duration": 0.09999999999999432
        },
        {
          "name": "A2",
          "midi": 45,
          "time": 136.0999999999967,
          "velocity": 0.48031496062992124,
          "duration": 0.09999999999999432
        },
        {
          "name": "D3",
          "midi": 50,
          "time": 136.1999999999967,
          "velocity": 0.48031496062992124,
          "duration": 0.09999999999999432
        },
        {
          "name": "D3",
          "midi": 50,
          "time": 136.39999999999668,
          "velocity": 0.48031496062992124,
          "duration": 0.09999999999999432
        },
        {
          "name": "A3",
          "midi": 57,
          "time": 136.49999999999667,
          "velocity": 0.48031496062992124,
          "duration": 0.09999999999999432
        },
        {
          "name": "C4",
          "midi": 60,
          "time": 136.59999999999667,
          "velocity": 0.48031496062992124,
          "duration": 0.09999999999999432
        },
        {
          "name": "D3",
          "midi": 50,
          "time": 136.79999999999666,
          "velocity": 0.48031496062992124,
          "duration": 0.09999999999999432
        },
        {
          "name": "A3",
          "midi": 57,
          "time": 136.89999999999665,
          "velocity": 0.48031496062992124,
          "duration": 0.09999999999999432
        },
        {
          "name": "D4",
          "midi": 62,
          "time": 136.99999999999665,
          "velocity": 0.48031496062992124,
          "duration": 0.09999999999999432
        },
        {
          "name": "A2",
          "midi": 45,
          "time": 137.19999999999663,
          "velocity": 0.48031496062992124,
          "duration": 0.09999999999999432
        },
        {
          "name": "D3",
          "midi": 50,
          "time": 137.29999999999663,
          "velocity": 0.48031496062992124,
          "duration": 0.09999999999999432
        },
        {
          "name": "F3",
          "midi": 53,
          "time": 137.39999999999662,
          "velocity": 0.48031496062992124,
          "duration": 0.09999999999999432
        },
        {
          "name": "A#1",
          "midi": 34,
          "time": 137.5999999999966,
          "velocity": 0.48031496062992124,
          "duration": 0.09999999999999432
        },
        {
          "name": "A#2",
          "midi": 46,
          "time": 137.7999999999966,
          "velocity": 0.48031496062992124,
          "duration": 0.09999999999999432
        },
        {
          "name": "A#2",
          "midi": 46,
          "time": 137.9999999999966,
          "velocity": 0.48031496062992124,
          "duration": 0.09999999999999432
        },
        {
          "name": "F3",
          "midi": 53,
          "time": 138.09999999999658,
          "velocity": 0.48031496062992124,
          "duration": 0.09999999999999432
        },
        {
          "name": "A#3",
          "midi": 58,
          "time": 138.19999999999658,
          "velocity": 0.48031496062992124,
          "duration": 0.09999999999999432
        },
        {
          "name": "A#2",
          "midi": 46,
          "time": 138.39999999999657,
          "velocity": 0.48031496062992124,
          "duration": 0.09999999999999432
        },
        {
          "name": "F3",
          "midi": 53,
          "time": 138.49999999999656,
          "velocity": 0.48031496062992124,
          "duration": 0.09999999999999432
        },
        {
          "name": "C4",
          "midi": 60,
          "time": 138.59999999999656,
          "velocity": 0.48031496062992124,
          "duration": 0.09999999999999432
        },
        {
          "name": "A#2",
          "midi": 46,
          "time": 138.79999999999654,
          "velocity": 0.48031496062992124,
          "duration": 0.09999999999999432
        },
        {
          "name": "F3",
          "midi": 53,
          "time": 138.89999999999654,
          "velocity": 0.48031496062992124,
          "duration": 0.09999999999999432
        },
        {
          "name": "A#3",
          "midi": 58,
          "time": 138.99999999999653,
          "velocity": 0.48031496062992124,
          "duration": 0.09999999999999432
        },
        {
          "name": "A#1",
          "midi": 34,
          "time": 139.19999999999652,
          "velocity": 0.48031496062992124,
          "duration": 0.09999999999999432
        },
        {
          "name": "A#2",
          "midi": 46,
          "time": 139.3999999999965,
          "velocity": 0.48031496062992124,
          "duration": 0.09999999999999432
        },
        {
          "name": "A#2",
          "midi": 46,
          "time": 139.5999999999965,
          "velocity": 0.48031496062992124,
          "duration": 0.09999999999999432
        },
        {
          "name": "F3",
          "midi": 53,
          "time": 139.6999999999965,
          "velocity": 0.48031496062992124,
          "duration": 0.09999999999999432
        },
        {
          "name": "A#3",
          "midi": 58,
          "time": 139.7999999999965,
          "velocity": 0.48031496062992124,
          "duration": 0.09999999999999432
        },
        {
          "name": "A#2",
          "midi": 46,
          "time": 139.99999999999648,
          "velocity": 0.48031496062992124,
          "duration": 0.09999999999999432
        },
        {
          "name": "F3",
          "midi": 53,
          "time": 140.09999999999647,
          "velocity": 0.48031496062992124,
          "duration": 0.09999999999999432
        },
        {
          "name": "C4",
          "midi": 60,
          "time": 140.19999999999646,
          "velocity": 0.48031496062992124,
          "duration": 0.09999999999999432
        },
        {
          "name": "A#2",
          "midi": 46,
          "time": 140.39999999999645,
          "velocity": 0.48031496062992124,
          "duration": 0.09999999999999432
        },
        {
          "name": "F3",
          "midi": 53,
          "time": 140.49999999999645,
          "velocity": 0.48031496062992124,
          "duration": 0.09999999999999432
        },
        {
          "name": "A#3",
          "midi": 58,
          "time": 140.59999999999644,
          "velocity": 0.48031496062992124,
          "duration": 0.09999999999999432
        },
        {
          "name": "D2",
          "midi": 38,
          "time": 140.79999999999643,
          "velocity": 0.48031496062992124,
          "duration": 0.09999999999999432
        },
        {
          "name": "A2",
          "midi": 45,
          "time": 140.89999999999642,
          "velocity": 0.48031496062992124,
          "duration": 0.09999999999999432
        },
        {
          "name": "D3",
          "midi": 50,
          "time": 140.99999999999642,
          "velocity": 0.48031496062992124,
          "duration": 0.09999999999999432
        },
        {
          "name": "D3",
          "midi": 50,
          "time": 141.1999999999964,
          "velocity": 0.48031496062992124,
          "duration": 0.09999999999999432
        },
        {
          "name": "A3",
          "midi": 57,
          "time": 141.2999999999964,
          "velocity": 0.48031496062992124,
          "duration": 0.09999999999999432
        },
        {
          "name": "C4",
          "midi": 60,
          "time": 141.3999999999964,
          "velocity": 0.48031496062992124,
          "duration": 0.09999999999999432
        },
        {
          "name": "D3",
          "midi": 50,
          "time": 141.59999999999638,
          "velocity": 0.48031496062992124,
          "duration": 0.09999999999999432
        },
        {
          "name": "A3",
          "midi": 57,
          "time": 141.69999999999638,
          "velocity": 0.48031496062992124,
          "duration": 0.09999999999999432
        },
        {
          "name": "D4",
          "midi": 62,
          "time": 141.79999999999637,
          "velocity": 0.48031496062992124,
          "duration": 0.09999999999999432
        },
        {
          "name": "A2",
          "midi": 45,
          "time": 141.99999999999636,
          "velocity": 0.48031496062992124,
          "duration": 0.09999999999999432
        },
        {
          "name": "D3",
          "midi": 50,
          "time": 142.09999999999636,
          "velocity": 0.48031496062992124,
          "duration": 0.09999999999999432
        },
        {
          "name": "F3",
          "midi": 53,
          "time": 142.19999999999635,
          "velocity": 0.48031496062992124,
          "duration": 0.09999999999999432
        },
        {
          "name": "D2",
          "midi": 38,
          "time": 142.39999999999634,
          "velocity": 0.48031496062992124,
          "duration": 0.09999999999999432
        },
        {
          "name": "A2",
          "midi": 45,
          "time": 142.49999999999633,
          "velocity": 0.48031496062992124,
          "duration": 0.09999999999999432
        },
        {
          "name": "D3",
          "midi": 50,
          "time": 142.59999999999633,
          "velocity": 0.48031496062992124,
          "duration": 0.09999999999999432
        },
        {
          "name": "D3",
          "midi": 50,
          "time": 142.79999999999632,
          "velocity": 0.48031496062992124,
          "duration": 0.09999999999999432
        },
        {
          "name": "A3",
          "midi": 57,
          "time": 142.8999999999963,
          "velocity": 0.48031496062992124,
          "duration": 0.09999999999999432
        },
        {
          "name": "C4",
          "midi": 60,
          "time": 142.9999999999963,
          "velocity": 0.48031496062992124,
          "duration": 0.09999999999999432
        },
        {
          "name": "D3",
          "midi": 50,
          "time": 143.1999999999963,
          "velocity": 0.48031496062992124,
          "duration": 0.09999999999999432
        },
        {
          "name": "A3",
          "midi": 57,
          "time": 143.2999999999963,
          "velocity": 0.48031496062992124,
          "duration": 0.09999999999999432
        },
        {
          "name": "D4",
          "midi": 62,
          "time": 143.39999999999628,
          "velocity": 0.48031496062992124,
          "duration": 0.09999999999999432
        },
        {
          "name": "A2",
          "midi": 45,
          "time": 143.59999999999627,
          "velocity": 0.48031496062992124,
          "duration": 0.09999999999999432
        },
        {
          "name": "D3",
          "midi": 50,
          "time": 143.69999999999627,
          "velocity": 0.48031496062992124,
          "duration": 0.09999999999999432
        },
        {
          "name": "F3",
          "midi": 53,
          "time": 143.79999999999626,
          "velocity": 0.48031496062992124,
          "duration": 0.09999999999999432
        },
        {
          "name": "A#1",
          "midi": 34,
          "time": 143.99999999999625,
          "velocity": 0.48031496062992124,
          "duration": 0.09999999999999432
        },
        {
          "name": "A#2",
          "midi": 46,
          "time": 144.19999999999624,
          "velocity": 0.48031496062992124,
          "duration": 0.09999999999999432
        },
        {
          "name": "A#2",
          "midi": 46,
          "time": 144.39999999999623,
          "velocity": 0.48031496062992124,
          "duration": 0.09999999999999432
        },
        {
          "name": "F3",
          "midi": 53,
          "time": 144.49999999999622,
          "velocity": 0.48031496062992124,
          "duration": 0.09999999999999432
        },
        {
          "name": "A#3",
          "midi": 58,
          "time": 144.59999999999621,
          "velocity": 0.48031496062992124,
          "duration": 0.09999999999999432
        },
        {
          "name": "A#2",
          "midi": 46,
          "time": 144.7999999999962,
          "velocity": 0.48031496062992124,
          "duration": 0.09999999999999432
        },
        {
          "name": "F3",
          "midi": 53,
          "time": 144.8999999999962,
          "velocity": 0.48031496062992124,
          "duration": 0.09999999999999432
        },
        {
          "name": "C4",
          "midi": 60,
          "time": 144.9999999999962,
          "velocity": 0.48031496062992124,
          "duration": 0.09999999999999432
        },
        {
          "name": "A#2",
          "midi": 46,
          "time": 145.19999999999618,
          "velocity": 0.48031496062992124,
          "duration": 0.09999999999999432
        },
        {
          "name": "F3",
          "midi": 53,
          "time": 145.29999999999617,
          "velocity": 0.48031496062992124,
          "duration": 0.09999999999999432
        },
        {
          "name": "A#3",
          "midi": 58,
          "time": 145.39999999999617,
          "velocity": 0.48031496062992124,
          "duration": 0.09999999999999432
        },
        {
          "name": "A#1",
          "midi": 34,
          "time": 145.59999999999616,
          "velocity": 0.48031496062992124,
          "duration": 0.09999999999999432
        },
        {
          "name": "A#2",
          "midi": 46,
          "time": 145.79999999999615,
          "velocity": 0.48031496062992124,
          "duration": 0.09999999999999432
        },
        {
          "name": "A#2",
          "midi": 46,
          "time": 145.99999999999613,
          "velocity": 0.48031496062992124,
          "duration": 0.09999999999999432
        },
        {
          "name": "F3",
          "midi": 53,
          "time": 146.09999999999613,
          "velocity": 0.48031496062992124,
          "duration": 0.09999999999999432
        },
        {
          "name": "A#3",
          "midi": 58,
          "time": 146.19999999999612,
          "velocity": 0.48031496062992124,
          "duration": 0.09999999999999432
        },
        {
          "name": "A#2",
          "midi": 46,
          "time": 146.3999999999961,
          "velocity": 0.48031496062992124,
          "duration": 0.09999999999999432
        },
        {
          "name": "F3",
          "midi": 53,
          "time": 146.4999999999961,
          "velocity": 0.48031496062992124,
          "duration": 0.09999999999999432
        },
        {
          "name": "C4",
          "midi": 60,
          "time": 146.5999999999961,
          "velocity": 0.48031496062992124,
          "duration": 0.09999999999999432
        },
        {
          "name": "A#2",
          "midi": 46,
          "time": 146.7999999999961,
          "velocity": 0.48031496062992124,
          "duration": 0.09999999999999432
        },
        {
          "name": "F3",
          "midi": 53,
          "time": 146.89999999999608,
          "velocity": 0.48031496062992124,
          "duration": 0.09999999999999432
        },
        {
          "name": "A#3",
          "midi": 58,
          "time": 146.99999999999608,
          "velocity": 0.48031496062992124,
          "duration": 0.09999999999999432
        },
        {
          "name": "D2",
          "midi": 38,
          "time": 147.19999999999607,
          "velocity": 0.48031496062992124,
          "duration": 0.09999999999999432
        },
        {
          "name": "A2",
          "midi": 45,
          "time": 147.29999999999606,
          "velocity": 0.48031496062992124,
          "duration": 0.09999999999999432
        },
        {
          "name": "D3",
          "midi": 50,
          "time": 147.39999999999606,
          "velocity": 0.48031496062992124,
          "duration": 0.09999999999999432
        },
        {
          "name": "D3",
          "midi": 50,
          "time": 147.59999999999604,
          "velocity": 0.48031496062992124,
          "duration": 0.09999999999999432
        },
        {
          "name": "A3",
          "midi": 57,
          "time": 147.69999999999604,
          "velocity": 0.48031496062992124,
          "duration": 0.09999999999999432
        },
        {
          "name": "C4",
          "midi": 60,
          "time": 147.79999999999603,
          "velocity": 0.48031496062992124,
          "duration": 0.09999999999999432
        },
        {
          "name": "D3",
          "midi": 50,
          "time": 147.99999999999602,
          "velocity": 0.48031496062992124,
          "duration": 0.09999999999999432
        },
        {
          "name": "A3",
          "midi": 57,
          "time": 148.09999999999602,
          "velocity": 0.48031496062992124,
          "duration": 0.09999999999999432
        },
        {
          "name": "D4",
          "midi": 62,
          "time": 148.199999999996,
          "velocity": 0.48031496062992124,
          "duration": 0.09999999999999432
        },
        {
          "name": "A2",
          "midi": 45,
          "time": 148.399999999996,
          "velocity": 0.48031496062992124,
          "duration": 0.09999999999999432
        },
        {
          "name": "D3",
          "midi": 50,
          "time": 148.499999999996,
          "velocity": 0.48031496062992124,
          "duration": 0.09999999999999432
        },
        {
          "name": "F3",
          "midi": 53,
          "time": 148.599999999996,
          "velocity": 0.48031496062992124,
          "duration": 0.09999999999999432
        },
        {
          "name": "D2",
          "midi": 38,
          "time": 148.79999999999598,
          "velocity": 0.48031496062992124,
          "duration": 0.09999999999999432
        },
        {
          "name": "A2",
          "midi": 45,
          "time": 148.89999999999597,
          "velocity": 0.48031496062992124,
          "duration": 0.09999999999999432
        },
        {
          "name": "D3",
          "midi": 50,
          "time": 148.99999999999596,
          "velocity": 0.48031496062992124,
          "duration": 0.09999999999999432
        },
        {
          "name": "D3",
          "midi": 50,
          "time": 149.19999999999595,
          "velocity": 0.48031496062992124,
          "duration": 0.09999999999999432
        },
        {
          "name": "A3",
          "midi": 57,
          "time": 149.29999999999595,
          "velocity": 0.48031496062992124,
          "duration": 0.09999999999999432
        },
        {
          "name": "C4",
          "midi": 60,
          "time": 149.39999999999594,
          "velocity": 0.48031496062992124,
          "duration": 0.09999999999999432
        },
        {
          "name": "D3",
          "midi": 50,
          "time": 149.59999999999593,
          "velocity": 0.48031496062992124,
          "duration": 0.09999999999999432
        },
        {
          "name": "A3",
          "midi": 57,
          "time": 149.69999999999592,
          "velocity": 0.48031496062992124,
          "duration": 0.09999999999999432
        },
        {
          "name": "D4",
          "midi": 62,
          "time": 149.79999999999592,
          "velocity": 0.48031496062992124,
          "duration": 0.09999999999999432
        },
        {
          "name": "A2",
          "midi": 45,
          "time": 149.9999999999959,
          "velocity": 0.48031496062992124,
          "duration": 0.09999999999999432
        },
        {
          "name": "D3",
          "midi": 50,
          "time": 150.0999999999959,
          "velocity": 0.48031496062992124,
          "duration": 0.09999999999999432
        },
        {
          "name": "F3",
          "midi": 53,
          "time": 150.1999999999959,
          "velocity": 0.48031496062992124,
          "duration": 0.09999999999999432
        },
        {
          "name": "A#1",
          "midi": 34,
          "time": 150.39999999999588,
          "velocity": 0.48031496062992124,
          "duration": 0.09999999999999432
        },
        {
          "name": "A#2",
          "midi": 46,
          "time": 150.59999999999587,
          "velocity": 0.48031496062992124,
          "duration": 0.09999999999999432
        },
        {
          "name": "A#2",
          "midi": 46,
          "time": 150.79999999999586,
          "velocity": 0.48031496062992124,
          "duration": 0.09999999999999432
        },
        {
          "name": "F3",
          "midi": 53,
          "time": 150.89999999999586,
          "velocity": 0.48031496062992124,
          "duration": 0.09999999999999432
        },
        {
          "name": "A#3",
          "midi": 58,
          "time": 150.99999999999585,
          "velocity": 0.48031496062992124,
          "duration": 0.09999999999999432
        },
        {
          "name": "A#2",
          "midi": 46,
          "time": 151.19999999999584,
          "velocity": 0.48031496062992124,
          "duration": 0.09999999999999432
        },
        {
          "name": "F3",
          "midi": 53,
          "time": 151.29999999999583,
          "velocity": 0.48031496062992124,
          "duration": 0.09999999999999432
        },
        {
          "name": "C4",
          "midi": 60,
          "time": 151.39999999999583,
          "velocity": 0.48031496062992124,
          "duration": 0.09999999999999432
        },
        {
          "name": "A#2",
          "midi": 46,
          "time": 151.59999999999582,
          "velocity": 0.48031496062992124,
          "duration": 0.09999999999999432
        },
        {
          "name": "F3",
          "midi": 53,
          "time": 151.6999999999958,
          "velocity": 0.48031496062992124,
          "duration": 0.09999999999999432
        },
        {
          "name": "A#3",
          "midi": 58,
          "time": 151.7999999999958,
          "velocity": 0.48031496062992124,
          "duration": 0.09999999999999432
        },
        {
          "name": "A#1",
          "midi": 34,
          "time": 151.9999999999958,
          "velocity": 0.48031496062992124,
          "duration": 0.09999999999999432
        },
        {
          "name": "A#2",
          "midi": 46,
          "time": 152.19999999999578,
          "velocity": 0.48031496062992124,
          "duration": 0.09999999999999432
        },
        {
          "name": "A#2",
          "midi": 46,
          "time": 152.39999999999577,
          "velocity": 0.48031496062992124,
          "duration": 0.09999999999999432
        },
        {
          "name": "F3",
          "midi": 53,
          "time": 152.49999999999577,
          "velocity": 0.48031496062992124,
          "duration": 0.09999999999999432
        },
        {
          "name": "A#3",
          "midi": 58,
          "time": 152.59999999999576,
          "velocity": 0.48031496062992124,
          "duration": 0.09999999999999432
        },
        {
          "name": "A#2",
          "midi": 46,
          "time": 152.79999999999575,
          "velocity": 0.48031496062992124,
          "duration": 0.09999999999999432
        },
        {
          "name": "F3",
          "midi": 53,
          "time": 152.89999999999574,
          "velocity": 0.48031496062992124,
          "duration": 0.09999999999999432
        },
        {
          "name": "C4",
          "midi": 60,
          "time": 152.99999999999574,
          "velocity": 0.48031496062992124,
          "duration": 0.09999999999999432
        },
        {
          "name": "A#2",
          "midi": 46,
          "time": 153.19999999999573,
          "velocity": 0.48031496062992124,
          "duration": 0.09999999999999432
        },
        {
          "name": "F3",
          "midi": 53,
          "time": 153.29999999999572,
          "velocity": 0.48031496062992124,
          "duration": 0.09999999999999432
        },
        {
          "name": "A#3",
          "midi": 58,
          "time": 153.3999999999957,
          "velocity": 0.48031496062992124,
          "duration": 0.09999999999999432
        },
        {
          "name": "D2",
          "midi": 38,
          "time": 153.5999999999957,
          "velocity": 0.48031496062992124,
          "duration": 0.09999999999999432
        },
        {
          "name": "A2",
          "midi": 45,
          "time": 153.6999999999957,
          "velocity": 0.48031496062992124,
          "duration": 0.09999999999999432
        },
        {
          "name": "D3",
          "midi": 50,
          "time": 153.7999999999957,
          "velocity": 0.48031496062992124,
          "duration": 0.09999999999999432
        },
        {
          "name": "D3",
          "midi": 50,
          "time": 153.99999999999568,
          "velocity": 0.48031496062992124,
          "duration": 0.09999999999999432
        },
        {
          "name": "A3",
          "midi": 57,
          "time": 154.09999999999567,
          "velocity": 0.48031496062992124,
          "duration": 0.09999999999999432
        },
        {
          "name": "C4",
          "midi": 60,
          "time": 154.19999999999567,
          "velocity": 0.48031496062992124,
          "duration": 0.09999999999999432
        },
        {
          "name": "D3",
          "midi": 50,
          "time": 154.39999999999566,
          "velocity": 0.48031496062992124,
          "duration": 0.09999999999999432
        },
        {
          "name": "A3",
          "midi": 57,
          "time": 154.49999999999565,
          "velocity": 0.48031496062992124,
          "duration": 0.09999999999999432
        },
        {
          "name": "D4",
          "midi": 62,
          "time": 154.59999999999565,
          "velocity": 0.48031496062992124,
          "duration": 0.09999999999999432
        },
        {
          "name": "A2",
          "midi": 45,
          "time": 154.79999999999563,
          "velocity": 0.48031496062992124,
          "duration": 0.09999999999999432
        },
        {
          "name": "D3",
          "midi": 50,
          "time": 154.89999999999563,
          "velocity": 0.48031496062992124,
          "duration": 0.09999999999999432
        },
        {
          "name": "F3",
          "midi": 53,
          "time": 154.99999999999562,
          "velocity": 0.48031496062992124,
          "duration": 0.09999999999999432
        },
        {
          "name": "D2",
          "midi": 38,
          "time": 155.1999999999956,
          "velocity": 0.48031496062992124,
          "duration": 0.09999999999999432
        },
        {
          "name": "A2",
          "midi": 45,
          "time": 155.2999999999956,
          "velocity": 0.48031496062992124,
          "duration": 0.09999999999999432
        },
        {
          "name": "D3",
          "midi": 50,
          "time": 155.3999999999956,
          "velocity": 0.48031496062992124,
          "duration": 0.09999999999999432
        },
        {
          "name": "D3",
          "midi": 50,
          "time": 155.5999999999956,
          "velocity": 0.48031496062992124,
          "duration": 0.09999999999999432
        },
        {
          "name": "A3",
          "midi": 57,
          "time": 155.69999999999558,
          "velocity": 0.48031496062992124,
          "duration": 0.09999999999999432
        },
        {
          "name": "C4",
          "midi": 60,
          "time": 155.79999999999558,
          "velocity": 0.48031496062992124,
          "duration": 0.09999999999999432
        },
        {
          "name": "D3",
          "midi": 50,
          "time": 155.99999999999557,
          "velocity": 0.48031496062992124,
          "duration": 0.09999999999999432
        },
        {
          "name": "A3",
          "midi": 57,
          "time": 156.09999999999556,
          "velocity": 0.48031496062992124,
          "duration": 0.09999999999999432
        },
        {
          "name": "D4",
          "midi": 62,
          "time": 156.19999999999555,
          "velocity": 0.48031496062992124,
          "duration": 0.09999999999999432
        },
        {
          "name": "A2",
          "midi": 45,
          "time": 156.39999999999554,
          "velocity": 0.48031496062992124,
          "duration": 0.09999999999999432
        },
        {
          "name": "D3",
          "midi": 50,
          "time": 156.49999999999554,
          "velocity": 0.48031496062992124,
          "duration": 0.09999999999999432
        },
        {
          "name": "F3",
          "midi": 53,
          "time": 156.59999999999553,
          "velocity": 0.48031496062992124,
          "duration": 0.09999999999999432
        },
        {
          "name": "A#1",
          "midi": 34,
          "time": 156.79999999999552,
          "velocity": 0.48031496062992124,
          "duration": 0.09999999999999432
        },
        {
          "name": "A#2",
          "midi": 46,
          "time": 156.9999999999955,
          "velocity": 0.48031496062992124,
          "duration": 0.09999999999999432
        },
        {
          "name": "A#2",
          "midi": 46,
          "time": 157.1999999999955,
          "velocity": 0.48031496062992124,
          "duration": 0.09999999999999432
        },
        {
          "name": "F3",
          "midi": 53,
          "time": 157.2999999999955,
          "velocity": 0.48031496062992124,
          "duration": 0.09999999999999432
        },
        {
          "name": "A#3",
          "midi": 58,
          "time": 157.3999999999955,
          "velocity": 0.48031496062992124,
          "duration": 0.09999999999999432
        },
        {
          "name": "A#2",
          "midi": 46,
          "time": 157.59999999999548,
          "velocity": 0.48031496062992124,
          "duration": 0.09999999999999432
        },
        {
          "name": "F3",
          "midi": 53,
          "time": 157.69999999999547,
          "velocity": 0.48031496062992124,
          "duration": 0.09999999999999432
        },
        {
          "name": "C4",
          "midi": 60,
          "time": 157.79999999999546,
          "velocity": 0.48031496062992124,
          "duration": 0.09999999999999432
        },
        {
          "name": "A#2",
          "midi": 46,
          "time": 157.99999999999545,
          "velocity": 0.48031496062992124,
          "duration": 0.09999999999999432
        },
        {
          "name": "F3",
          "midi": 53,
          "time": 158.09999999999545,
          "velocity": 0.48031496062992124,
          "duration": 0.09999999999999432
        },
        {
          "name": "A#3",
          "midi": 58,
          "time": 158.19999999999544,
          "velocity": 0.48031496062992124,
          "duration": 0.09999999999999432
        },
        {
          "name": "A#1",
          "midi": 34,
          "time": 158.39999999999543,
          "velocity": 0.48031496062992124,
          "duration": 0.09999999999999432
        },
        {
          "name": "A#2",
          "midi": 46,
          "time": 158.59999999999542,
          "velocity": 0.48031496062992124,
          "duration": 0.09999999999999432
        },
        {
          "name": "A#2",
          "midi": 46,
          "time": 158.7999999999954,
          "velocity": 0.48031496062992124,
          "duration": 0.09999999999999432
        },
        {
          "name": "F3",
          "midi": 53,
          "time": 158.8999999999954,
          "velocity": 0.48031496062992124,
          "duration": 0.09999999999999432
        },
        {
          "name": "A#3",
          "midi": 58,
          "time": 158.9999999999954,
          "velocity": 0.48031496062992124,
          "duration": 0.09999999999999432
        },
        {
          "name": "A#2",
          "midi": 46,
          "time": 159.19999999999538,
          "velocity": 0.48031496062992124,
          "duration": 0.09999999999999432
        },
        {
          "name": "D3",
          "midi": 50,
          "time": 159.29999999999538,
          "velocity": 0.48031496062992124,
          "duration": 0.09999999999999432
        },
        {
          "name": "F3",
          "midi": 53,
          "time": 159.39999999999537,
          "velocity": 0.48031496062992124,
          "duration": 0.09999999999999432
        },
        {
          "name": "A#2",
          "midi": 46,
          "time": 159.59999999999536,
          "velocity": 0.48031496062992124,
          "duration": 0.09999999999999432
        },
        {
          "name": "A#1",
          "midi": 34,
          "time": 159.59999999999536,
          "velocity": 0.48031496062992124,
          "duration": 0.09999999999999432
        },
        {
          "name": "B1",
          "midi": 35,
          "time": 159.99999999999537,
          "velocity": 0.48031496062992124,
          "duration": 0.09999999999999432
        },
        {
          "name": "B2",
          "midi": 47,
          "time": 160.19999999999536,
          "velocity": 0.48031496062992124,
          "duration": 0.09999999999999432
        },
        {
          "name": "F#2",
          "midi": 42,
          "time": 160.39999999999534,
          "velocity": 0.48031496062992124,
          "duration": 0.09999999999999432
        },
        {
          "name": "B2",
          "midi": 47,
          "time": 160.49999999999534,
          "velocity": 0.48031496062992124,
          "duration": 0.09999999999999432
        },
        {
          "name": "C#3",
          "midi": 49,
          "time": 160.59999999999533,
          "velocity": 0.48031496062992124,
          "duration": 0.09999999999999432
        },
        {
          "name": "B1",
          "midi": 35,
          "time": 160.79999999999532,
          "velocity": 0.48031496062992124,
          "duration": 0.09999999999999432
        },
        {
          "name": "B2",
          "midi": 47,
          "time": 160.89999999999532,
          "velocity": 0.48031496062992124,
          "duration": 0.09999999999999432
        },
        {
          "name": "B1",
          "midi": 35,
          "time": 161.0999999999953,
          "velocity": 0.48031496062992124,
          "duration": 0.09999999999999432
        },
        {
          "name": "C#2",
          "midi": 37,
          "time": 161.1999999999953,
          "velocity": 0.48031496062992124,
          "duration": 0.09999999999999432
        },
        {
          "name": "F2",
          "midi": 41,
          "time": 161.3999999999953,
          "velocity": 0.48031496062992124,
          "duration": 0.09999999999999432
        },
        {
          "name": "C#2",
          "midi": 37,
          "time": 161.59999999999528,
          "velocity": 0.48031496062992124,
          "duration": 0.09999999999999432
        },
        {
          "name": "C#3",
          "midi": 49,
          "time": 161.79999999999526,
          "velocity": 0.48031496062992124,
          "duration": 0.09999999999999432
        },
        {
          "name": "G#2",
          "midi": 44,
          "time": 161.99999999999525,
          "velocity": 0.48031496062992124,
          "duration": 0.09999999999999432
        },
        {
          "name": "C#3",
          "midi": 49,
          "time": 162.09999999999525,
          "velocity": 0.48031496062992124,
          "duration": 0.09999999999999432
        },
        {
          "name": "D#3",
          "midi": 51,
          "time": 162.19999999999524,
          "velocity": 0.48031496062992124,
          "duration": 0.09999999999999432
        },
        {
          "name": "C#2",
          "midi": 37,
          "time": 162.39999999999523,
          "velocity": 0.48031496062992124,
          "duration": 0.09999999999999432
        },
        {
          "name": "C#3",
          "midi": 49,
          "time": 162.49999999999523,
          "velocity": 0.48031496062992124,
          "duration": 0.09999999999999432
        },
        {
          "name": "C#2",
          "midi": 37,
          "time": 162.6999999999952,
          "velocity": 0.48031496062992124,
          "duration": 0.09999999999999432
        },
        {
          "name": "G#2",
          "midi": 44,
          "time": 162.7999999999952,
          "velocity": 0.48031496062992124,
          "duration": 0.09999999999999432
        },
        {
          "name": "A#2",
          "midi": 46,
          "time": 162.9999999999952,
          "velocity": 0.48031496062992124,
          "duration": 0.09999999999999432
        },
        {
          "name": "D#2",
          "midi": 39,
          "time": 163.19999999999519,
          "velocity": 0.48031496062992124,
          "duration": 0.09999999999999432
        },
        {
          "name": "D#3",
          "midi": 51,
          "time": 163.39999999999517,
          "velocity": 0.48031496062992124,
          "duration": 0.09999999999999432
        },
        {
          "name": "A#2",
          "midi": 46,
          "time": 163.59999999999516,
          "velocity": 0.48031496062992124,
          "duration": 0.09999999999999432
        },
        {
          "name": "D#3",
          "midi": 51,
          "time": 163.69999999999516,
          "velocity": 0.48031496062992124,
          "duration": 0.09999999999999432
        },
        {
          "name": "F3",
          "midi": 53,
          "time": 163.79999999999515,
          "velocity": 0.48031496062992124,
          "duration": 0.09999999999999432
        },
        {
          "name": "D#2",
          "midi": 39,
          "time": 163.99999999999514,
          "velocity": 0.48031496062992124,
          "duration": 0.09999999999999432
        },
        {
          "name": "D#3",
          "midi": 51,
          "time": 164.09999999999513,
          "velocity": 0.48031496062992124,
          "duration": 0.09999999999999432
        },
        {
          "name": "D#2",
          "midi": 39,
          "time": 164.29999999999512,
          "velocity": 0.48031496062992124,
          "duration": 0.09999999999999432
        },
        {
          "name": "F#2",
          "midi": 42,
          "time": 164.39999999999512,
          "velocity": 0.48031496062992124,
          "duration": 0.09999999999999432
        },
        {
          "name": "G#2",
          "midi": 44,
          "time": 164.5999999999951,
          "velocity": 0.48031496062992124,
          "duration": 0.09999999999999432
        },
        {
          "name": "D#2",
          "midi": 39,
          "time": 164.7999999999951,
          "velocity": 0.48031496062992124,
          "duration": 0.09999999999999432
        },
        {
          "name": "D#3",
          "midi": 51,
          "time": 164.99999999999508,
          "velocity": 0.48031496062992124,
          "duration": 0.09999999999999432
        },
        {
          "name": "A#2",
          "midi": 46,
          "time": 165.19999999999507,
          "velocity": 0.48031496062992124,
          "duration": 0.09999999999999432
        },
        {
          "name": "D#3",
          "midi": 51,
          "time": 165.29999999999507,
          "velocity": 0.48031496062992124,
          "duration": 0.09999999999999432
        },
        {
          "name": "F3",
          "midi": 53,
          "time": 165.39999999999506,
          "velocity": 0.48031496062992124,
          "duration": 0.09999999999999432
        },
        {
          "name": "D#2",
          "midi": 39,
          "time": 165.59999999999505,
          "velocity": 0.48031496062992124,
          "duration": 0.09999999999999432
        },
        {
          "name": "D#3",
          "midi": 51,
          "time": 165.69999999999504,
          "velocity": 0.48031496062992124,
          "duration": 0.09999999999999432
        },
        {
          "name": "D#2",
          "midi": 39,
          "time": 165.89999999999503,
          "velocity": 0.48031496062992124,
          "duration": 0.09999999999999432
        },
        {
          "name": "F#2",
          "midi": 42,
          "time": 165.99999999999503,
          "velocity": 0.48031496062992124,
          "duration": 0.09999999999999432
        },
        {
          "name": "G#2",
          "midi": 44,
          "time": 166.19999999999501,
          "velocity": 0.48031496062992124,
          "duration": 0.09999999999999432
        },
        {
          "name": "B1",
          "midi": 35,
          "time": 166.399999999995,
          "velocity": 0.48031496062992124,
          "duration": 0.09999999999999432
        },
        {
          "name": "B2",
          "midi": 47,
          "time": 166.599999999995,
          "velocity": 0.48031496062992124,
          "duration": 0.09999999999999432
        },
        {
          "name": "F#2",
          "midi": 42,
          "time": 166.79999999999498,
          "velocity": 0.48031496062992124,
          "duration": 0.09999999999999432
        },
        {
          "name": "B2",
          "midi": 47,
          "time": 166.89999999999498,
          "velocity": 0.48031496062992124,
          "duration": 0.09999999999999432
        },
        {
          "name": "C#3",
          "midi": 49,
          "time": 166.99999999999497,
          "velocity": 0.48031496062992124,
          "duration": 0.09999999999999432
        },
        {
          "name": "B1",
          "midi": 35,
          "time": 167.19999999999496,
          "velocity": 0.48031496062992124,
          "duration": 0.09999999999999432
        },
        {
          "name": "B2",
          "midi": 47,
          "time": 167.29999999999495,
          "velocity": 0.48031496062992124,
          "duration": 0.09999999999999432
        },
        {
          "name": "B1",
          "midi": 35,
          "time": 167.49999999999494,
          "velocity": 0.48031496062992124,
          "duration": 0.09999999999999432
        },
        {
          "name": "C#2",
          "midi": 37,
          "time": 167.59999999999494,
          "velocity": 0.48031496062992124,
          "duration": 0.09999999999999432
        },
        {
          "name": "F2",
          "midi": 41,
          "time": 167.79999999999492,
          "velocity": 0.48031496062992124,
          "duration": 0.09999999999999432
        },
        {
          "name": "C#2",
          "midi": 37,
          "time": 167.9999999999949,
          "velocity": 0.48031496062992124,
          "duration": 0.09999999999999432
        },
        {
          "name": "C#3",
          "midi": 49,
          "time": 168.1999999999949,
          "velocity": 0.48031496062992124,
          "duration": 0.09999999999999432
        },
        {
          "name": "G#2",
          "midi": 44,
          "time": 168.3999999999949,
          "velocity": 0.48031496062992124,
          "duration": 0.09999999999999432
        },
        {
          "name": "C#3",
          "midi": 49,
          "time": 168.49999999999488,
          "velocity": 0.48031496062992124,
          "duration": 0.09999999999999432
        },
        {
          "name": "D#3",
          "midi": 51,
          "time": 168.59999999999488,
          "velocity": 0.48031496062992124,
          "duration": 0.09999999999999432
        },
        {
          "name": "C#2",
          "midi": 37,
          "time": 168.79999999999487,
          "velocity": 0.48031496062992124,
          "duration": 0.09999999999999432
        },
        {
          "name": "C#3",
          "midi": 49,
          "time": 168.89999999999486,
          "velocity": 0.48031496062992124,
          "duration": 0.09999999999999432
        },
        {
          "name": "C#2",
          "midi": 37,
          "time": 169.09999999999485,
          "velocity": 0.48031496062992124,
          "duration": 0.09999999999999432
        },
        {
          "name": "G#2",
          "midi": 44,
          "time": 169.19999999999484,
          "velocity": 0.48031496062992124,
          "duration": 0.09999999999999432
        },
        {
          "name": "A#2",
          "midi": 46,
          "time": 169.39999999999483,
          "velocity": 0.48031496062992124,
          "duration": 0.09999999999999432
        },
        {
          "name": "D#2",
          "midi": 39,
          "time": 169.59999999999482,
          "velocity": 0.48031496062992124,
          "duration": 0.09999999999999432
        },
        {
          "name": "D#3",
          "midi": 51,
          "time": 169.7999999999948,
          "velocity": 0.48031496062992124,
          "duration": 0.09999999999999432
        },
        {
          "name": "A#2",
          "midi": 46,
          "time": 169.9999999999948,
          "velocity": 0.48031496062992124,
          "duration": 0.09999999999999432
        },
        {
          "name": "D#3",
          "midi": 51,
          "time": 170.0999999999948,
          "velocity": 0.48031496062992124,
          "duration": 0.09999999999999432
        },
        {
          "name": "F3",
          "midi": 53,
          "time": 170.1999999999948,
          "velocity": 0.48031496062992124,
          "duration": 0.09999999999999432
        },
        {
          "name": "D#2",
          "midi": 39,
          "time": 170.39999999999478,
          "velocity": 0.48031496062992124,
          "duration": 0.09999999999999432
        },
        {
          "name": "D#3",
          "midi": 51,
          "time": 170.49999999999477,
          "velocity": 0.48031496062992124,
          "duration": 0.09999999999999432
        },
        {
          "name": "D#2",
          "midi": 39,
          "time": 170.69999999999476,
          "velocity": 0.48031496062992124,
          "duration": 0.09999999999999432
        },
        {
          "name": "F#2",
          "midi": 42,
          "time": 170.79999999999475,
          "velocity": 0.48031496062992124,
          "duration": 0.09999999999999432
        },
        {
          "name": "G#2",
          "midi": 44,
          "time": 170.99999999999474,
          "velocity": 0.48031496062992124,
          "duration": 0.09999999999999432
        },
        {
          "name": "D#2",
          "midi": 39,
          "time": 171.19999999999473,
          "velocity": 0.48031496062992124,
          "duration": 0.09999999999999432
        },
        {
          "name": "D#3",
          "midi": 51,
          "time": 171.39999999999472,
          "velocity": 0.48031496062992124,
          "duration": 0.09999999999999432
        },
        {
          "name": "A#2",
          "midi": 46,
          "time": 171.5999999999947,
          "velocity": 0.48031496062992124,
          "duration": 0.09999999999999432
        },
        {
          "name": "D#3",
          "midi": 51,
          "time": 171.6999999999947,
          "velocity": 0.48031496062992124,
          "duration": 0.09999999999999432
        },
        {
          "name": "F3",
          "midi": 53,
          "time": 171.7999999999947,
          "velocity": 0.48031496062992124,
          "duration": 0.09999999999999432
        },
        {
          "name": "D#2",
          "midi": 39,
          "time": 171.99999999999469,
          "velocity": 0.48031496062992124,
          "duration": 0.09999999999999432
        },
        {
          "name": "D#3",
          "midi": 51,
          "time": 172.09999999999468,
          "velocity": 0.48031496062992124,
          "duration": 0.09999999999999432
        },
        {
          "name": "D#2",
          "midi": 39,
          "time": 172.29999999999467,
          "velocity": 0.48031496062992124,
          "duration": 0.09999999999999432
        },
        {
          "name": "F#2",
          "midi": 42,
          "time": 172.39999999999466,
          "velocity": 0.48031496062992124,
          "duration": 0.09999999999999432
        },
        {
          "name": "D5",
          "midi": 74,
          "time": 172.79999999999467,
          "velocity": 0.48031496062992124,
          "duration": 0.09999999999999432
        },
        {
          "name": "F4",
          "midi": 65,
          "time": 172.79999999999467,
          "velocity": 0.48031496062992124,
          "duration": 0.09999999999999432
        },
        {
          "name": "A#4",
          "midi": 70,
          "time": 172.79999999999467,
          "velocity": 0.48031496062992124,
          "duration": 0.09999999999999432
        },
        {
          "name": "D5",
          "midi": 74,
          "time": 173.19999999999467,
          "velocity": 0.48031496062992124,
          "duration": 0.09999999999999432
        },
        {
          "name": "A#4",
          "midi": 70,
          "time": 173.19999999999467,
          "velocity": 0.48031496062992124,
          "duration": 0.09999999999999432
        },
        {
          "name": "E4",
          "midi": 64,
          "time": 173.19999999999467,
          "velocity": 0.48031496062992124,
          "duration": 0.09999999999999432
        },
        {
          "name": "D5",
          "midi": 74,
          "time": 173.59999999999468,
          "velocity": 0.48031496062992124,
          "duration": 0.09999999999999432
        },
        {
          "name": "A#4",
          "midi": 70,
          "time": 173.59999999999468,
          "velocity": 0.48031496062992124,
          "duration": 0.09999999999999432
        },
        {
          "name": "F4",
          "midi": 65,
          "time": 173.59999999999468,
          "velocity": 0.48031496062992124,
          "duration": 0.09999999999999432
        },
        {
          "name": "D5",
          "midi": 74,
          "time": 173.99999999999469,
          "velocity": 0.48031496062992124,
          "duration": 0.09999999999999432
        },
        {
          "name": "A#4",
          "midi": 70,
          "time": 173.99999999999469,
          "velocity": 0.48031496062992124,
          "duration": 0.09999999999999432
        },
        {
          "name": "E4",
          "midi": 64,
          "time": 173.99999999999469,
          "velocity": 0.48031496062992124,
          "duration": 0.09999999999999432
        },
        {
          "name": "A#4",
          "midi": 70,
          "time": 174.3999999999947,
          "velocity": 0.48031496062992124,
          "duration": 0.09999999999999432
        },
        {
          "name": "E4",
          "midi": 64,
          "time": 174.3999999999947,
          "velocity": 0.48031496062992124,
          "duration": 0.09999999999999432
        },
        {
          "name": "C5",
          "midi": 72,
          "time": 174.3999999999947,
          "velocity": 0.48031496062992124,
          "duration": 0.09999999999999432
        },
        {
          "name": "A#4",
          "midi": 70,
          "time": 174.7999999999947,
          "velocity": 0.48031496062992124,
          "duration": 0.09999999999999432
        },
        {
          "name": "F4",
          "midi": 65,
          "time": 174.7999999999947,
          "velocity": 0.48031496062992124,
          "duration": 0.09999999999999432
        },
        {
          "name": "C5",
          "midi": 72,
          "time": 174.7999999999947,
          "velocity": 0.48031496062992124,
          "duration": 0.09999999999999432
        },
        {
          "name": "A#4",
          "midi": 70,
          "time": 175.1999999999947,
          "velocity": 0.48031496062992124,
          "duration": 0.09999999999999432
        },
        {
          "name": "E4",
          "midi": 64,
          "time": 175.1999999999947,
          "velocity": 0.48031496062992124,
          "duration": 0.09999999999999432
        },
        {
          "name": "C5",
          "midi": 72,
          "time": 175.1999999999947,
          "velocity": 0.48031496062992124,
          "duration": 0.09999999999999432
        },
        {
          "name": "A#4",
          "midi": 70,
          "time": 175.5999999999947,
          "velocity": 0.48031496062992124,
          "duration": 0.09999999999999432
        },
        {
          "name": "F4",
          "midi": 65,
          "time": 175.5999999999947,
          "velocity": 0.48031496062992124,
          "duration": 0.09999999999999432
        },
        {
          "name": "C5",
          "midi": 72,
          "time": 175.5999999999947,
          "velocity": 0.48031496062992124,
          "duration": 0.09999999999999432
        },
        {
          "name": "A4",
          "midi": 69,
          "time": 175.9999999999947,
          "velocity": 0.48031496062992124,
          "duration": 0.09999999999999432
        },
        {
          "name": "F4",
          "midi": 65,
          "time": 175.9999999999947,
          "velocity": 0.48031496062992124,
          "duration": 0.09999999999999432
        },
        {
          "name": "D4",
          "midi": 62,
          "time": 175.9999999999947,
          "velocity": 0.48031496062992124,
          "duration": 0.09999999999999432
        },
        {
          "name": "F4",
          "midi": 65,
          "time": 176.39999999999472,
          "velocity": 0.48031496062992124,
          "duration": 0.09999999999999432
        },
        {
          "name": "A4",
          "midi": 69,
          "time": 176.39999999999472,
          "velocity": 0.48031496062992124,
          "duration": 0.09999999999999432
        },
        {
          "name": "E4",
          "midi": 64,
          "time": 176.39999999999472,
          "velocity": 0.48031496062992124,
          "duration": 0.09999999999999432
        },
        {
          "name": "A4",
          "midi": 69,
          "time": 176.79999999999472,
          "velocity": 0.48031496062992124,
          "duration": 0.09999999999999432
        },
        {
          "name": "F4",
          "midi": 65,
          "time": 176.79999999999472,
          "velocity": 0.48031496062992124,
          "duration": 0.09999999999999432
        },
        {
          "name": "D4",
          "midi": 62,
          "time": 176.79999999999472,
          "velocity": 0.48031496062992124,
          "duration": 0.09999999999999432
        },
        {
          "name": "A4",
          "midi": 69,
          "time": 177.19999999999473,
          "velocity": 0.48031496062992124,
          "duration": 0.09999999999999432
        },
        {
          "name": "F4",
          "midi": 65,
          "time": 177.19999999999473,
          "velocity": 0.48031496062992124,
          "duration": 0.09999999999999432
        },
        {
          "name": "E4",
          "midi": 64,
          "time": 177.19999999999473,
          "velocity": 0.48031496062992124,
          "duration": 0.09999999999999432
        },
        {
          "name": "A4",
          "midi": 69,
          "time": 177.59999999999474,
          "velocity": 0.48031496062992124,
          "duration": 0.09999999999999432
        },
        {
          "name": "F4",
          "midi": 65,
          "time": 177.59999999999474,
          "velocity": 0.48031496062992124,
          "duration": 0.09999999999999432
        },
        {
          "name": "D4",
          "midi": 62,
          "time": 177.59999999999474,
          "velocity": 0.48031496062992124,
          "duration": 0.09999999999999432
        },
        {
          "name": "F4",
          "midi": 65,
          "time": 177.99999999999474,
          "velocity": 0.48031496062992124,
          "duration": 0.09999999999999432
        },
        {
          "name": "A4",
          "midi": 69,
          "time": 177.99999999999474,
          "velocity": 0.48031496062992124,
          "duration": 0.09999999999999432
        },
        {
          "name": "E4",
          "midi": 64,
          "time": 177.99999999999474,
          "velocity": 0.48031496062992124,
          "duration": 0.09999999999999432
        },
        {
          "name": "A4",
          "midi": 69,
          "time": 178.39999999999475,
          "velocity": 0.48031496062992124,
          "duration": 0.09999999999999432
        },
        {
          "name": "F4",
          "midi": 65,
          "time": 178.39999999999475,
          "velocity": 0.48031496062992124,
          "duration": 0.09999999999999432
        },
        {
          "name": "D4",
          "midi": 62,
          "time": 178.39999999999475,
          "velocity": 0.48031496062992124,
          "duration": 0.09999999999999432
        },
        {
          "name": "A4",
          "midi": 69,
          "time": 178.79999999999475,
          "velocity": 0.48031496062992124,
          "duration": 0.09999999999999432
        },
        {
          "name": "F4",
          "midi": 65,
          "time": 178.79999999999475,
          "velocity": 0.48031496062992124,
          "duration": 0.09999999999999432
        },
        {
          "name": "E4",
          "midi": 64,
          "time": 178.79999999999475,
          "velocity": 0.48031496062992124,
          "duration": 0.09999999999999432
        },
        {
          "name": "D5",
          "midi": 74,
          "time": 179.19999999999476,
          "velocity": 0.48031496062992124,
          "duration": 0.09999999999999432
        },
        {
          "name": "F4",
          "midi": 65,
          "time": 179.19999999999476,
          "velocity": 0.48031496062992124,
          "duration": 0.09999999999999432
        },
        {
          "name": "A#4",
          "midi": 70,
          "time": 179.19999999999476,
          "velocity": 0.48031496062992124,
          "duration": 0.09999999999999432
        },
        {
          "name": "D5",
          "midi": 74,
          "time": 179.59999999999476,
          "velocity": 0.48031496062992124,
          "duration": 0.09999999999999432
        },
        {
          "name": "A#4",
          "midi": 70,
          "time": 179.59999999999476,
          "velocity": 0.48031496062992124,
          "duration": 0.09999999999999432
        },
        {
          "name": "E4",
          "midi": 64,
          "time": 179.59999999999476,
          "velocity": 0.48031496062992124,
          "duration": 0.09999999999999432
        },
        {
          "name": "D5",
          "midi": 74,
          "time": 179.99999999999477,
          "velocity": 0.48031496062992124,
          "duration": 0.09999999999999432
        },
        {
          "name": "A#4",
          "midi": 70,
          "time": 179.99999999999477,
          "velocity": 0.48031496062992124,
          "duration": 0.09999999999999432
        },
        {
          "name": "F4",
          "midi": 65,
          "time": 179.99999999999477,
          "velocity": 0.48031496062992124,
          "duration": 0.09999999999999432
        },
        {
          "name": "D5",
          "midi": 74,
          "time": 180.39999999999478,
          "velocity": 0.48031496062992124,
          "duration": 0.09999999999999432
        },
        {
          "name": "A#4",
          "midi": 70,
          "time": 180.39999999999478,
          "velocity": 0.48031496062992124,
          "duration": 0.09999999999999432
        },
        {
          "name": "E4",
          "midi": 64,
          "time": 180.39999999999478,
          "velocity": 0.48031496062992124,
          "duration": 0.09999999999999432
        },
        {
          "name": "A#4",
          "midi": 70,
          "time": 180.79999999999478,
          "velocity": 0.48031496062992124,
          "duration": 0.09999999999999432
        },
        {
          "name": "E4",
          "midi": 64,
          "time": 180.79999999999478,
          "velocity": 0.48031496062992124,
          "duration": 0.09999999999999432
        },
        {
          "name": "C5",
          "midi": 72,
          "time": 180.79999999999478,
          "velocity": 0.48031496062992124,
          "duration": 0.09999999999999432
        },
        {
          "name": "A#4",
          "midi": 70,
          "time": 181.1999999999948,
          "velocity": 0.48031496062992124,
          "duration": 0.09999999999999432
        },
        {
          "name": "F4",
          "midi": 65,
          "time": 181.1999999999948,
          "velocity": 0.48031496062992124,
          "duration": 0.09999999999999432
        },
        {
          "name": "C5",
          "midi": 72,
          "time": 181.1999999999948,
          "velocity": 0.48031496062992124,
          "duration": 0.09999999999999432
        },
        {
          "name": "A#4",
          "midi": 70,
          "time": 181.5999999999948,
          "velocity": 0.48031496062992124,
          "duration": 0.09999999999999432
        },
        {
          "name": "E4",
          "midi": 64,
          "time": 181.5999999999948,
          "velocity": 0.48031496062992124,
          "duration": 0.09999999999999432
        },
        {
          "name": "C5",
          "midi": 72,
          "time": 181.5999999999948,
          "velocity": 0.48031496062992124,
          "duration": 0.09999999999999432
        },
        {
          "name": "A#4",
          "midi": 70,
          "time": 181.9999999999948,
          "velocity": 0.48031496062992124,
          "duration": 0.09999999999999432
        },
        {
          "name": "F4",
          "midi": 65,
          "time": 181.9999999999948,
          "velocity": 0.48031496062992124,
          "duration": 0.09999999999999432
        },
        {
          "name": "C5",
          "midi": 72,
          "time": 181.9999999999948,
          "velocity": 0.48031496062992124,
          "duration": 0.09999999999999432
        },
        {
          "name": "A4",
          "midi": 69,
          "time": 182.3999999999948,
          "velocity": 0.48031496062992124,
          "duration": 0.09999999999999432
        },
        {
          "name": "F4",
          "midi": 65,
          "time": 182.3999999999948,
          "velocity": 0.48031496062992124,
          "duration": 0.09999999999999432
        },
        {
          "name": "D4",
          "midi": 62,
          "time": 182.3999999999948,
          "velocity": 0.48031496062992124,
          "duration": 0.09999999999999432
        },
        {
          "name": "C5",
          "midi": 72,
          "time": 182.3999999999948,
          "velocity": 0.48031496062992124,
          "duration": 0.09999999999999432
        },
        {
          "name": "F4",
          "midi": 65,
          "time": 182.7999999999948,
          "velocity": 0.48031496062992124,
          "duration": 0.09999999999999432
        },
        {
          "name": "A4",
          "midi": 69,
          "time": 182.7999999999948,
          "velocity": 0.48031496062992124,
          "duration": 0.09999999999999432
        },
        {
          "name": "E4",
          "midi": 64,
          "time": 182.7999999999948,
          "velocity": 0.48031496062992124,
          "duration": 0.09999999999999432
        },
        {
          "name": "C5",
          "midi": 72,
          "time": 182.7999999999948,
          "velocity": 0.48031496062992124,
          "duration": 0.09999999999999432
        },
        {
          "name": "A4",
          "midi": 69,
          "time": 183.19999999999482,
          "velocity": 0.48031496062992124,
          "duration": 0.09999999999999432
        },
        {
          "name": "F4",
          "midi": 65,
          "time": 183.19999999999482,
          "velocity": 0.48031496062992124,
          "duration": 0.09999999999999432
        },
        {
          "name": "D4",
          "midi": 62,
          "time": 183.19999999999482,
          "velocity": 0.48031496062992124,
          "duration": 0.09999999999999432
        },
        {
          "name": "C5",
          "midi": 72,
          "time": 183.19999999999482,
          "velocity": 0.48031496062992124,
          "duration": 0.09999999999999432
        },
        {
          "name": "A4",
          "midi": 69,
          "time": 183.59999999999482,
          "velocity": 0.48031496062992124,
          "duration": 0.09999999999999432
        },
        {
          "name": "F4",
          "midi": 65,
          "time": 183.59999999999482,
          "velocity": 0.48031496062992124,
          "duration": 0.09999999999999432
        },
        {
          "name": "E4",
          "midi": 64,
          "time": 183.59999999999482,
          "velocity": 0.48031496062992124,
          "duration": 0.09999999999999432
        },
        {
          "name": "C5",
          "midi": 72,
          "time": 183.59999999999482,
          "velocity": 0.48031496062992124,
          "duration": 0.09999999999999432
        },
        {
          "name": "A4",
          "midi": 69,
          "time": 183.99999999999483,
          "velocity": 0.48031496062992124,
          "duration": 0.09999999999999432
        },
        {
          "name": "F4",
          "midi": 65,
          "time": 183.99999999999483,
          "velocity": 0.48031496062992124,
          "duration": 0.09999999999999432
        },
        {
          "name": "D4",
          "midi": 62,
          "time": 183.99999999999483,
          "velocity": 0.48031496062992124,
          "duration": 0.09999999999999432
        },
        {
          "name": "C5",
          "midi": 72,
          "time": 183.99999999999483,
          "velocity": 0.48031496062992124,
          "duration": 0.09999999999999432
        },
        {
          "name": "F4",
          "midi": 65,
          "time": 184.39999999999483,
          "velocity": 0.48031496062992124,
          "duration": 0.09999999999999432
        },
        {
          "name": "A4",
          "midi": 69,
          "time": 184.39999999999483,
          "velocity": 0.48031496062992124,
          "duration": 0.09999999999999432
        },
        {
          "name": "E4",
          "midi": 64,
          "time": 184.39999999999483,
          "velocity": 0.48031496062992124,
          "duration": 0.09999999999999432
        },
        {
          "name": "C5",
          "midi": 72,
          "time": 184.39999999999483,
          "velocity": 0.48031496062992124,
          "duration": 0.09999999999999432
        },
        {
          "name": "A4",
          "midi": 69,
          "time": 184.79999999999484,
          "velocity": 0.48031496062992124,
          "duration": 0.09999999999999432
        },
        {
          "name": "F4",
          "midi": 65,
          "time": 184.79999999999484,
          "velocity": 0.48031496062992124,
          "duration": 0.09999999999999432
        },
        {
          "name": "D4",
          "midi": 62,
          "time": 184.79999999999484,
          "velocity": 0.48031496062992124,
          "duration": 0.09999999999999432
        },
        {
          "name": "C5",
          "midi": 72,
          "time": 184.79999999999484,
          "velocity": 0.48031496062992124,
          "duration": 0.09999999999999432
        },
        {
          "name": "G#4",
          "midi": 68,
          "time": 185.19999999999484,
          "velocity": 0.48031496062992124,
          "duration": 0.09999999999999432
        },
        {
          "name": "F4",
          "midi": 65,
          "time": 185.19999999999484,
          "velocity": 0.48031496062992124,
          "duration": 0.09999999999999432
        },
        {
          "name": "D4",
          "midi": 62,
          "time": 185.19999999999484,
          "velocity": 0.48031496062992124,
          "duration": 0.09999999999999432
        },
        {
          "name": "A#4",
          "midi": 70,
          "time": 185.19999999999484,
          "velocity": 0.48031496062992124,
          "duration": 0.09999999999999432
        },
        {
          "name": "F#3",
          "midi": 54,
          "time": 185.59999999999485,
          "velocity": 0.48031496062992124,
          "duration": 0.09999999999999432
        },
        {
          "name": "B2",
          "midi": 47,
          "time": 185.59999999999485,
          "velocity": 0.48031496062992124,
          "duration": 0.09999999999999432
        },
        {
          "name": "B2",
          "midi": 47,
          "time": 185.99999999999486,
          "velocity": 0.48031496062992124,
          "duration": 0.09999999999999432
        },
        {
          "name": "B1",
          "midi": 35,
          "time": 185.99999999999486,
          "velocity": 0.48031496062992124,
          "duration": 0.09999999999999432
        },
        {
          "name": "D#4",
          "midi": 63,
          "time": 186.79999999999484,
          "velocity": 0.48031496062992124,
          "duration": 0.09999999999999432
        },
        {
          "name": "B3",
          "midi": 59,
          "time": 186.79999999999484,
          "velocity": 0.48031496062992124,
          "duration": 0.09999999999999432
        },
        {
          "name": "F3",
          "midi": 53,
          "time": 187.19999999999484,
          "velocity": 0.48031496062992124,
          "duration": 0.09999999999999432
        },
        {
          "name": "C#3",
          "midi": 49,
          "time": 187.19999999999484,
          "velocity": 0.48031496062992124,
          "duration": 0.09999999999999432
        },
        {
          "name": "C#3",
          "midi": 49,
          "time": 187.59999999999485,
          "velocity": 0.48031496062992124,
          "duration": 0.09999999999999432
        },
        {
          "name": "C#2",
          "midi": 37,
          "time": 187.59999999999485,
          "velocity": 0.48031496062992124,
          "duration": 0.09999999999999432
        },
        {
          "name": "F3",
          "midi": 53,
          "time": 188.39999999999483,
          "velocity": 0.48031496062992124,
          "duration": 0.09999999999999432
        },
        {
          "name": "G#2",
          "midi": 44,
          "time": 188.39999999999483,
          "velocity": 0.48031496062992124,
          "duration": 0.09999999999999432
        },
        {
          "name": "F#3",
          "midi": 54,
          "time": 188.79999999999484,
          "velocity": 0.48031496062992124,
          "duration": 0.09999999999999432
        },
        {
          "name": "D#3",
          "midi": 51,
          "time": 188.79999999999484,
          "velocity": 0.48031496062992124,
          "duration": 0.09999999999999432
        },
        {
          "name": "D#3",
          "midi": 51,
          "time": 189.19999999999484,
          "velocity": 0.48031496062992124,
          "duration": 0.09999999999999432
        },
        {
          "name": "D#2",
          "midi": 39,
          "time": 189.19999999999484,
          "velocity": 0.48031496062992124,
          "duration": 0.09999999999999432
        },
        {
          "name": "F3",
          "midi": 53,
          "time": 189.99999999999483,
          "velocity": 0.48031496062992124,
          "duration": 0.09999999999999432
        },
        {
          "name": "A#3",
          "midi": 58,
          "time": 189.99999999999483,
          "velocity": 0.48031496062992124,
          "duration": 0.09999999999999432
        },
        {
          "name": "F#3",
          "midi": 54,
          "time": 190.39999999999483,
          "velocity": 0.48031496062992124,
          "duration": 0.09999999999999432
        },
        {
          "name": "D#3",
          "midi": 51,
          "time": 190.39999999999483,
          "velocity": 0.48031496062992124,
          "duration": 0.09999999999999432
        },
        {
          "name": "D#3",
          "midi": 51,
          "time": 190.79999999999484,
          "velocity": 0.48031496062992124,
          "duration": 0.09999999999999432
        },
        {
          "name": "D#2",
          "midi": 39,
          "time": 190.79999999999484,
          "velocity": 0.48031496062992124,
          "duration": 0.09999999999999432
        },
        {
          "name": "F#2",
          "midi": 42,
          "time": 191.59999999999482,
          "velocity": 0.48031496062992124,
          "duration": 0.09999999999999432
        },
        {
          "name": "F#3",
          "midi": 54,
          "time": 191.99999999999483,
          "velocity": 0.48031496062992124,
          "duration": 0.09999999999999432
        },
        {
          "name": "B2",
          "midi": 47,
          "time": 191.99999999999483,
          "velocity": 0.48031496062992124,
          "duration": 0.09999999999999432
        },
        {
          "name": "B2",
          "midi": 47,
          "time": 192.39999999999483,
          "velocity": 0.48031496062992124,
          "duration": 0.09999999999999432
        },
        {
          "name": "B1",
          "midi": 35,
          "time": 192.39999999999483,
          "velocity": 0.48031496062992124,
          "duration": 0.09999999999999432
        },
        {
          "name": "D#4",
          "midi": 63,
          "time": 193.19999999999482,
          "velocity": 0.48031496062992124,
          "duration": 0.09999999999999432
        },
        {
          "name": "A#3",
          "midi": 58,
          "time": 193.19999999999482,
          "velocity": 0.48031496062992124,
          "duration": 0.09999999999999432
        },
        {
          "name": "C#3",
          "midi": 49,
          "time": 193.59999999999482,
          "velocity": 0.48031496062992124,
          "duration": 0.09999999999999432
        },
        {
          "name": "F3",
          "midi": 53,
          "time": 193.59999999999482,
          "velocity": 0.48031496062992124,
          "duration": 0.09999999999999432
        },
        {
          "name": "C#3",
          "midi": 49,
          "time": 193.99999999999483,
          "velocity": 0.48031496062992124,
          "duration": 0.09999999999999432
        },
        {
          "name": "C#2",
          "midi": 37,
          "time": 193.99999999999483,
          "velocity": 0.48031496062992124,
          "duration": 0.09999999999999432
        },
        {
          "name": "F3",
          "midi": 53,
          "time": 194.7999999999948,
          "velocity": 0.48031496062992124,
          "duration": 0.09999999999999432
        },
        {
          "name": "G#2",
          "midi": 44,
          "time": 194.7999999999948,
          "velocity": 0.48031496062992124,
          "duration": 0.09999999999999432
        },
        {
          "name": "A#3",
          "midi": 58,
          "time": 195.19999999999482,
          "velocity": 0.48031496062992124,
          "duration": 0.09999999999999432
        },
        {
          "name": "D#3",
          "midi": 51,
          "time": 195.19999999999482,
          "velocity": 0.48031496062992124,
          "duration": 0.09999999999999432
        },
        {
          "name": "A#3",
          "midi": 58,
          "time": 195.9999999999948,
          "velocity": 0.48031496062992124,
          "duration": 0.09999999999999432
        },
        {
          "name": "D#3",
          "midi": 51,
          "time": 195.9999999999948,
          "velocity": 0.48031496062992124,
          "duration": 0.09999999999999432
        },
        {
          "name": "D#3",
          "midi": 51,
          "time": 196.79999999999478,
          "velocity": 0.48031496062992124,
          "duration": 0.09999999999999432
        },
        {
          "name": "D#2",
          "midi": 39,
          "time": 196.79999999999478,
          "velocity": 0.48031496062992124,
          "duration": 0.09999999999999432
        },
        {
          "name": "D#3",
          "midi": 51,
          "time": 197.1999999999948,
          "velocity": 0.48031496062992124,
          "duration": 0.09999999999999432
        },
        {
          "name": "G3",
          "midi": 55,
          "time": 197.1999999999948,
          "velocity": 0.48031496062992124,
          "duration": 0.09999999999999432
        },
        {
          "name": "G#3",
          "midi": 56,
          "time": 197.29999999999478,
          "velocity": 0.48031496062992124,
          "duration": 0.09999999999999432
        },
        {
          "name": "D#2",
          "midi": 39,
          "time": 197.59999999999476,
          "velocity": 0.48031496062992124,
          "duration": 0.09999999999999432
        },
        {
          "name": "A#2",
          "midi": 46,
          "time": 197.79999999999475,
          "velocity": 0.48031496062992124,
          "duration": 0.09999999999999432
        },
        {
          "name": "D#2",
          "midi": 39,
          "time": 197.99999999999474,
          "velocity": 0.48031496062992124,
          "duration": 0.09999999999999432
        },
        {
          "name": "D#1",
          "midi": 27,
          "time": 197.99999999999474,
          "velocity": 0.48031496062992124,
          "duration": 0.09999999999999432
        },
        {
          "name": "G1",
          "midi": 31,
          "time": 198.09999999999474,
          "velocity": 0.48031496062992124,
          "duration": 0.09999999999999432
        },
        {
          "name": "A#1",
          "midi": 34,
          "time": 198.19999999999473,
          "velocity": 0.48031496062992124,
          "duration": 0.09999999999999432
        },
        {
          "name": "B1",
          "midi": 35,
          "time": 198.39999999999472,
          "velocity": 0.48031496062992124,
          "duration": 0.09999999999999432
        },
        {
          "name": "B2",
          "midi": 47,
          "time": 198.5999999999947,
          "velocity": 0.48031496062992124,
          "duration": 0.09999999999999432
        },
        {
          "name": "B2",
          "midi": 47,
          "time": 198.7999999999947,
          "velocity": 0.48031496062992124,
          "duration": 0.09999999999999432
        },
        {
          "name": "F#3",
          "midi": 54,
          "time": 198.99999999999469,
          "velocity": 0.48031496062992124,
          "duration": 0.09999999999999432
        },
        {
          "name": "B3",
          "midi": 59,
          "time": 198.99999999999469,
          "velocity": 0.48031496062992124,
          "duration": 0.09999999999999432
        },
        {
          "name": "B2",
          "midi": 47,
          "time": 199.19999999999467,
          "velocity": 0.48031496062992124,
          "duration": 0.09999999999999432
        },
        {
          "name": "F#3",
          "midi": 54,
          "time": 199.39999999999466,
          "velocity": 0.48031496062992124,
          "duration": 0.09999999999999432
        },
        {
          "name": "D#4",
          "midi": 63,
          "time": 199.39999999999466,
          "velocity": 0.48031496062992124,
          "duration": 0.09999999999999432
        },
        {
          "name": "B2",
          "midi": 47,
          "time": 199.59999999999465,
          "velocity": 0.48031496062992124,
          "duration": 0.09999999999999432
        },
        {
          "name": "F#3",
          "midi": 54,
          "time": 199.79999999999464,
          "velocity": 0.48031496062992124,
          "duration": 0.09999999999999432
        },
        {
          "name": "G#3",
          "midi": 56,
          "time": 199.79999999999464,
          "velocity": 0.48031496062992124,
          "duration": 0.09999999999999432
        },
        {
          "name": "C#3",
          "midi": 49,
          "time": 199.99999999999463,
          "velocity": 0.48031496062992124,
          "duration": 0.09999999999999432
        },
        {
          "name": "F#3",
          "midi": 54,
          "time": 200.19999999999462,
          "velocity": 0.48031496062992124,
          "duration": 0.09999999999999432
        },
        {
          "name": "G#3",
          "midi": 56,
          "time": 200.19999999999462,
          "velocity": 0.48031496062992124,
          "duration": 0.09999999999999432
        },
        {
          "name": "C#3",
          "midi": 49,
          "time": 200.3999999999946,
          "velocity": 0.48031496062992124,
          "duration": 0.09999999999999432
        },
        {
          "name": "G#3",
          "midi": 56,
          "time": 200.5999999999946,
          "velocity": 0.48031496062992124,
          "duration": 0.09999999999999432
        },
        {
          "name": "C#4",
          "midi": 61,
          "time": 200.5999999999946,
          "velocity": 0.48031496062992124,
          "duration": 0.09999999999999432
        },
        {
          "name": "G#2",
          "midi": 44,
          "time": 200.79999999999458,
          "velocity": 0.48031496062992124,
          "duration": 0.09999999999999432
        },
        {
          "name": "C#3",
          "midi": 49,
          "time": 200.99999999999457,
          "velocity": 0.48031496062992124,
          "duration": 0.09999999999999432
        },
        {
          "name": "G#3",
          "midi": 56,
          "time": 200.99999999999457,
          "velocity": 0.48031496062992124,
          "duration": 0.09999999999999432
        },
        {
          "name": "G#2",
          "midi": 44,
          "time": 201.19999999999456,
          "velocity": 0.48031496062992124,
          "duration": 0.09999999999999432
        },
        {
          "name": "C#3",
          "midi": 49,
          "time": 201.39999999999455,
          "velocity": 0.48031496062992124,
          "duration": 0.09999999999999432
        },
        {
          "name": "F#3",
          "midi": 54,
          "time": 201.39999999999455,
          "velocity": 0.48031496062992124,
          "duration": 0.09999999999999432
        },
        {
          "name": "D#2",
          "midi": 39,
          "time": 201.59999999999454,
          "velocity": 0.48031496062992124,
          "duration": 0.09999999999999432
        },
        {
          "name": "D#3",
          "midi": 51,
          "time": 201.79999999999453,
          "velocity": 0.48031496062992124,
          "duration": 0.09999999999999432
        },
        {
          "name": "A#2",
          "midi": 46,
          "time": 201.79999999999453,
          "velocity": 0.48031496062992124,
          "duration": 0.09999999999999432
        },
        {
          "name": "D#2",
          "midi": 39,
          "time": 201.99999999999451,
          "velocity": 0.48031496062992124,
          "duration": 0.09999999999999432
        },
        {
          "name": "C#3",
          "midi": 49,
          "time": 202.1999999999945,
          "velocity": 0.48031496062992124,
          "duration": 0.09999999999999432
        },
        {
          "name": "A#2",
          "midi": 46,
          "time": 202.1999999999945,
          "velocity": 0.48031496062992124,
          "duration": 0.09999999999999432
        },
        {
          "name": "D#2",
          "midi": 39,
          "time": 202.3999999999945,
          "velocity": 0.48031496062992124,
          "duration": 0.09999999999999432
        },
        {
          "name": "A#2",
          "midi": 46,
          "time": 202.59999999999448,
          "velocity": 0.48031496062992124,
          "duration": 0.09999999999999432
        },
        {
          "name": "D#3",
          "midi": 51,
          "time": 202.59999999999448,
          "velocity": 0.48031496062992124,
          "duration": 0.09999999999999432
        },
        {
          "name": "D#2",
          "midi": 39,
          "time": 202.79999999999447,
          "velocity": 0.48031496062992124,
          "duration": 0.09999999999999432
        },
        {
          "name": "A#2",
          "midi": 46,
          "time": 202.99999999999446,
          "velocity": 0.48031496062992124,
          "duration": 0.09999999999999432
        },
        {
          "name": "F#3",
          "midi": 54,
          "time": 202.99999999999446,
          "velocity": 0.48031496062992124,
          "duration": 0.09999999999999432
        },
        {
          "name": "D#2",
          "midi": 39,
          "time": 203.19999999999445,
          "velocity": 0.48031496062992124,
          "duration": 0.09999999999999432
        },
        {
          "name": "A#2",
          "midi": 46,
          "time": 203.39999999999444,
          "velocity": 0.48031496062992124,
          "duration": 0.09999999999999432
        },
        {
          "name": "D#3",
          "midi": 51,
          "time": 203.39999999999444,
          "velocity": 0.48031496062992124,
          "duration": 0.09999999999999432
        },
        {
          "name": "D#2",
          "midi": 39,
          "time": 203.59999999999442,
          "velocity": 0.48031496062992124,
          "duration": 0.09999999999999432
        },
        {
          "name": "D#3",
          "midi": 51,
          "time": 203.7999999999944,
          "velocity": 0.48031496062992124,
          "duration": 0.09999999999999432
        },
        {
          "name": "A#2",
          "midi": 46,
          "time": 203.7999999999944,
          "velocity": 0.48031496062992124,
          "duration": 0.09999999999999432
        },
        {
          "name": "D#2",
          "midi": 39,
          "time": 203.9999999999944,
          "velocity": 0.48031496062992124,
          "duration": 0.09999999999999432
        },
        {
          "name": "A#2",
          "midi": 46,
          "time": 204.1999999999944,
          "velocity": 0.48031496062992124,
          "duration": 0.09999999999999432
        },
        {
          "name": "F3",
          "midi": 53,
          "time": 204.1999999999944,
          "velocity": 0.48031496062992124,
          "duration": 0.09999999999999432
        },
        {
          "name": "D#2",
          "midi": 39,
          "time": 204.39999999999438,
          "velocity": 0.48031496062992124,
          "duration": 0.09999999999999432
        },
        {
          "name": "A#2",
          "midi": 46,
          "time": 204.59999999999437,
          "velocity": 0.48031496062992124,
          "duration": 0.09999999999999432
        },
        {
          "name": "F#3",
          "midi": 54,
          "time": 204.59999999999437,
          "velocity": 0.48031496062992124,
          "duration": 0.09999999999999432
        },
        {
          "name": "B1",
          "midi": 35,
          "time": 204.79999999999436,
          "velocity": 0.48031496062992124,
          "duration": 0.09999999999999432
        },
        {
          "name": "B2",
          "midi": 47,
          "time": 204.99999999999434,
          "velocity": 0.48031496062992124,
          "duration": 0.09999999999999432
        },
        {
          "name": "B2",
          "midi": 47,
          "time": 205.19999999999433,
          "velocity": 0.48031496062992124,
          "duration": 0.09999999999999432
        },
        {
          "name": "F#3",
          "midi": 54,
          "time": 205.39999999999432,
          "velocity": 0.48031496062992124,
          "duration": 0.09999999999999432
        },
        {
          "name": "B3",
          "midi": 59,
          "time": 205.39999999999432,
          "velocity": 0.48031496062992124,
          "duration": 0.09999999999999432
        },
        {
          "name": "B2",
          "midi": 47,
          "time": 205.5999999999943,
          "velocity": 0.48031496062992124,
          "duration": 0.09999999999999432
        },
        {
          "name": "F#3",
          "midi": 54,
          "time": 205.7999999999943,
          "velocity": 0.48031496062992124,
          "duration": 0.09999999999999432
        },
        {
          "name": "D#4",
          "midi": 63,
          "time": 205.7999999999943,
          "velocity": 0.48031496062992124,
          "duration": 0.09999999999999432
        },
        {
          "name": "B2",
          "midi": 47,
          "time": 205.9999999999943,
          "velocity": 0.48031496062992124,
          "duration": 0.09999999999999432
        },
        {
          "name": "F#3",
          "midi": 54,
          "time": 206.19999999999428,
          "velocity": 0.48031496062992124,
          "duration": 0.09999999999999432
        },
        {
          "name": "G#3",
          "midi": 56,
          "time": 206.19999999999428,
          "velocity": 0.48031496062992124,
          "duration": 0.09999999999999432
        },
        {
          "name": "C#3",
          "midi": 49,
          "time": 206.39999999999426,
          "velocity": 0.48031496062992124,
          "duration": 0.09999999999999432
        },
        {
          "name": "F#3",
          "midi": 54,
          "time": 206.59999999999425,
          "velocity": 0.48031496062992124,
          "duration": 0.09999999999999432
        },
        {
          "name": "G#3",
          "midi": 56,
          "time": 206.59999999999425,
          "velocity": 0.48031496062992124,
          "duration": 0.09999999999999432
        },
        {
          "name": "C#3",
          "midi": 49,
          "time": 206.79999999999424,
          "velocity": 0.48031496062992124,
          "duration": 0.09999999999999432
        },
        {
          "name": "G#3",
          "midi": 56,
          "time": 206.99999999999423,
          "velocity": 0.48031496062992124,
          "duration": 0.09999999999999432
        },
        {
          "name": "C#4",
          "midi": 61,
          "time": 206.99999999999423,
          "velocity": 0.48031496062992124,
          "duration": 0.09999999999999432
        },
        {
          "name": "G#2",
          "midi": 44,
          "time": 207.19999999999422,
          "velocity": 0.48031496062992124,
          "duration": 0.09999999999999432
        },
        {
          "name": "C#3",
          "midi": 49,
          "time": 207.3999999999942,
          "velocity": 0.48031496062992124,
          "duration": 0.09999999999999432
        },
        {
          "name": "G#3",
          "midi": 56,
          "time": 207.3999999999942,
          "velocity": 0.48031496062992124,
          "duration": 0.09999999999999432
        },
        {
          "name": "G#2",
          "midi": 44,
          "time": 207.5999999999942,
          "velocity": 0.48031496062992124,
          "duration": 0.09999999999999432
        },
        {
          "name": "C#3",
          "midi": 49,
          "time": 207.79999999999418,
          "velocity": 0.48031496062992124,
          "duration": 0.09999999999999432
        },
        {
          "name": "F#3",
          "midi": 54,
          "time": 207.79999999999418,
          "velocity": 0.48031496062992124,
          "duration": 0.09999999999999432
        },
        {
          "name": "A#2",
          "midi": 46,
          "time": 207.99999999999417,
          "velocity": 0.48031496062992124,
          "duration": 0.09999999999999432
        },
        {
          "name": "F3",
          "midi": 53,
          "time": 208.19999999999416,
          "velocity": 0.48031496062992124,
          "duration": 0.09999999999999432
        },
        {
          "name": "A#3",
          "midi": 58,
          "time": 208.19999999999416,
          "velocity": 0.48031496062992124,
          "duration": 0.09999999999999432
        },
        {
          "name": "A#2",
          "midi": 46,
          "time": 208.39999999999415,
          "velocity": 0.48031496062992124,
          "duration": 0.09999999999999432
        },
        {
          "name": "F3",
          "midi": 53,
          "time": 208.59999999999414,
          "velocity": 0.48031496062992124,
          "duration": 0.09999999999999432
        },
        {
          "name": "G#3",
          "midi": 56,
          "time": 208.59999999999414,
          "velocity": 0.48031496062992124,
          "duration": 0.09999999999999432
        },
        {
          "name": "A#2",
          "midi": 46,
          "time": 208.79999999999413,
          "velocity": 0.48031496062992124,
          "duration": 0.09999999999999432
        },
        {
          "name": "F3",
          "midi": 53,
          "time": 208.99999999999412,
          "velocity": 0.48031496062992124,
          "duration": 0.09999999999999432
        },
        {
          "name": "A#3",
          "midi": 58,
          "time": 208.99999999999412,
          "velocity": 0.48031496062992124,
          "duration": 0.09999999999999432
        },
        {
          "name": "A#2",
          "midi": 46,
          "time": 209.1999999999941,
          "velocity": 0.48031496062992124,
          "duration": 0.09999999999999432
        },
        {
          "name": "F3",
          "midi": 53,
          "time": 209.3999999999941,
          "velocity": 0.48031496062992124,
          "duration": 0.09999999999999432
        },
        {
          "name": "D3",
          "midi": 50,
          "time": 209.3999999999941,
          "velocity": 0.48031496062992124,
          "duration": 0.09999999999999432
        },
        {
          "name": "A#2",
          "midi": 46,
          "time": 209.59999999999408,
          "velocity": 0.48031496062992124,
          "duration": 0.09999999999999432
        },
        {
          "name": "F3",
          "midi": 53,
          "time": 209.79999999999407,
          "velocity": 0.48031496062992124,
          "duration": 0.09999999999999432
        },
        {
          "name": "A#3",
          "midi": 58,
          "time": 209.79999999999407,
          "velocity": 0.48031496062992124,
          "duration": 0.09999999999999432
        },
        {
          "name": "A#2",
          "midi": 46,
          "time": 209.99999999999406,
          "velocity": 0.48031496062992124,
          "duration": 0.09999999999999432
        },
        {
          "name": "F3",
          "midi": 53,
          "time": 210.19999999999405,
          "velocity": 0.48031496062992124,
          "duration": 0.09999999999999432
        },
        {
          "name": "G#3",
          "midi": 56,
          "time": 210.19999999999405,
          "velocity": 0.48031496062992124,
          "duration": 0.09999999999999432
        },
        {
          "name": "A#2",
          "midi": 46,
          "time": 210.39999999999404,
          "velocity": 0.48031496062992124,
          "duration": 0.09999999999999432
        },
        {
          "name": "F3",
          "midi": 53,
          "time": 210.59999999999403,
          "velocity": 0.48031496062992124,
          "duration": 0.09999999999999432
        },
        {
          "name": "A#3",
          "midi": 58,
          "time": 210.59999999999403,
          "velocity": 0.48031496062992124,
          "duration": 0.09999999999999432
        },
        {
          "name": "A#2",
          "midi": 46,
          "time": 210.79999999999401,
          "velocity": 0.48031496062992124,
          "duration": 0.09999999999999432
        },
        {
          "name": "F3",
          "midi": 53,
          "time": 210.999999999994,
          "velocity": 0.48031496062992124,
          "duration": 0.09999999999999432
        },
        {
          "name": "D3",
          "midi": 50,
          "time": 210.999999999994,
          "velocity": 0.48031496062992124,
          "duration": 0.09999999999999432
        }
      ],
      "controlChanges": {},
      "id": 8,
      "name": "Pizzicato",
      "instrumentNumber": 45,
      "instrument": "pizzicato strings",
      "instrumentFamily": "strings",
      "channelNumber": 8,
      "isPercussion": false
    }
  ]
};
