/*var json = {
  "header": {
    "PPQ": 480,
    "bpm": 120,
    "name": ""
  },
  "tempo": [
    {
      "absoluteTime": 0,
      "seconds": 0,
      "bpm": 120
    }
  ],
  "timeSignature": [],
  "startTime": 0,
  "duration": 183.92708333333303,
  "tracks": [
    {
      "startTime": 0,
      "duration": 0,
      "length": 0,
      "notes": [],
      "controlChanges": {},
      "id": 0,
      "name": ""
    },
    {
      "startTime": 6.00625,
      "duration": 183.92708333333303,
      "length": 1875,
      "notes": [
        {
          "name": "F#5",
          "midi": 78,
          "time": 6.00625,
          "velocity": 0.6535433070866141,
          "duration": 2.520833333333334
        },
        {
          "name": "D5",
          "midi": 74,
          "time": 6.529166666666667,
          "velocity": 0.7716535433070866,
          "duration": 1.9979166666666668
        },
        {
          "name": "A2",
          "midi": 45,
          "time": 8.538541666666667,
          "velocity": 0.4094488188976378,
          "duration": 0.453125
        },
        {
          "name": "D2",
          "midi": 38,
          "time": 8.538541666666667,
          "velocity": 0.49606299212598426,
          "duration": 0.2666666666666675
        },
        {
          "name": "D3",
          "midi": 50,
          "time": 8.55,
          "velocity": 0.3464566929133858,
          "duration": 0.24375000000000036
        },
        {
          "name": "A2",
          "midi": 45,
          "time": 8.991666666666667,
          "velocity": 0.4409448818897638,
          "duration": 0.30208333333333215
        },
        {
          "name": "D2",
          "midi": 38,
          "time": 8.991666666666667,
          "velocity": 0.41732283464566927,
          "duration": 0.3135416666666657
        },
        {
          "name": "D3",
          "midi": 50,
          "time": 9.003125,
          "velocity": 0.3228346456692913,
          "duration": 0.15104166666666607
        },
        {
          "name": "A2",
          "midi": 45,
          "time": 9.44375,
          "velocity": 0.41732283464566927,
          "duration": 0.17395833333333321
        },
        {
          "name": "D2",
          "midi": 38,
          "time": 9.44375,
          "velocity": 0.4251968503937008,
          "duration": 0.17395833333333321
        },
        {
          "name": "A4",
          "midi": 69,
          "time": 9.676041666666666,
          "velocity": 0.6771653543307087,
          "duration": 0.3958333333333339
        },
        {
          "name": "G4",
          "midi": 67,
          "time": 9.919791666666667,
          "velocity": 0.5984251968503937,
          "duration": 0.1875
        },
        {
          "name": "F4",
          "midi": 65,
          "time": 10.014583333333334,
          "velocity": 0.6299212598425197,
          "duration": 0.20937499999999964
        },
        {
          "name": "C4",
          "midi": 60,
          "time": 10.130208333333334,
          "velocity": 0.6614173228346457,
          "duration": 0.22083333333333321
        },
        {
          "name": "D4",
          "midi": 62,
          "time": 10.3625,
          "velocity": 0.5748031496062992,
          "duration": 0.38333333333333286
        },
        {
          "name": "A#2",
          "midi": 46,
          "time": 10.3625,
          "velocity": 0.6456692913385826,
          "duration": 0.3718749999999993
        },
        {
          "name": "A4",
          "midi": 69,
          "time": 10.815625,
          "velocity": 0.6929133858267716,
          "duration": 0.41770833333333357
        },
        {
          "name": "A#2",
          "midi": 46,
          "time": 10.815625,
          "velocity": 0.41732283464566927,
          "duration": 0.23229166666666679
        },
        {
          "name": "A#2",
          "midi": 46,
          "time": 11.047916666666667,
          "velocity": 0.6299212598425197,
          "duration": 0.18541666666666679
        },
        {
          "name": "G4",
          "midi": 67,
          "time": 11.152083333333334,
          "velocity": 0.6377952755905512,
          "duration": 0.23229166666666856
        },
        {
          "name": "A2",
          "midi": 45,
          "time": 11.267708333333335,
          "velocity": 0.4409448818897638,
          "duration": 0.34791666666666643
        },
        {
          "name": "D4",
          "midi": 62,
          "time": 11.384375000000002,
          "velocity": 0.6141732283464567,
          "duration": 0.23229166666666679
        },
        {
          "name": "C4",
          "midi": 60,
          "time": 11.500000000000002,
          "velocity": 0.5669291338582677,
          "duration": 0.2552083333333339
        },
        {
          "name": "D4",
          "midi": 62,
          "time": 11.616666666666669,
          "velocity": 0.6220472440944882,
          "duration": 0.22083333333333321
        },
        {
          "name": "A2",
          "midi": 45,
          "time": 11.616666666666669,
          "velocity": 0.5275590551181102,
          "duration": 0.17395833333333321
        },
        {
          "name": "D4",
          "midi": 62,
          "time": 11.837500000000002,
          "velocity": 0.5905511811023622,
          "duration": 0.2218750000000007
        },
        {
          "name": "C4",
          "midi": 60,
          "time": 11.95416666666667,
          "velocity": 0.4645669291338583,
          "duration": 0.44166666666666643
        },
        {
          "name": "D2",
          "midi": 38,
          "time": 11.95416666666667,
          "velocity": 0.41732283464566927,
          "duration": 0.47604166666666714
        },
        {
          "name": "D4",
          "midi": 62,
          "time": 12.059375000000003,
          "velocity": 0.5433070866141733,
          "duration": 0.4875000000000007
        },
        {
          "name": "A2",
          "midi": 45,
          "time": 12.152083333333335,
          "velocity": 0.3700787401574803,
          "duration": 0.20937499999999964
        },
        {
          "name": "D3",
          "midi": 50,
          "time": 12.197916666666668,
          "velocity": 0.4645669291338583,
          "duration": 0.16249999999999964
        },
        {
          "name": "A4",
          "midi": 69,
          "time": 12.628125000000004,
          "velocity": 0.7165354330708661,
          "duration": 0.453125
        },
        {
          "name": "A2",
          "midi": 45,
          "time": 12.628125000000004,
          "velocity": 0.3858267716535433,
          "duration": 0.24375000000000036
        },
        {
          "name": "D3",
          "midi": 50,
          "time": 12.639583333333338,
          "velocity": 0.25984251968503935,
          "duration": 0.15104166666666607
        },
        {
          "name": "G4",
          "midi": 67,
          "time": 12.97604166666667,
          "velocity": 0.6850393700787402,
          "duration": 0.3020833333333339
        },
        {
          "name": "A2",
          "midi": 45,
          "time": 13.034375000000004,
          "velocity": 0.4251968503937008,
          "duration": 0.22083333333333321
        },
        {
          "name": "D2",
          "midi": 38,
          "time": 13.080208333333337,
          "velocity": 0.30708661417322836,
          "duration": 0.16250000000000142
        },
        {
          "name": "G#4",
          "midi": 68,
          "time": 13.323958333333337,
          "velocity": 0.6850393700787402,
          "duration": 0.22083333333333321
        },
        {
          "name": "G4",
          "midi": 67,
          "time": 13.556250000000004,
          "velocity": 0.6771653543307087,
          "duration": 0.23229166666666679
        },
        {
          "name": "F4",
          "midi": 65,
          "time": 13.626041666666671,
          "velocity": 0.7244094488188977,
          "duration": 0.1395833333333325
        },
        {
          "name": "F4",
          "midi": 65,
          "time": 13.777083333333337,
          "velocity": 0.7007874015748031,
          "duration": 0.2218750000000007
        },
        {
          "name": "A#2",
          "midi": 46,
          "time": 13.987500000000004,
          "velocity": 0.6062992125984252,
          "duration": 0.23229166666666679
        },
        {
          "name": "C4",
          "midi": 60,
          "time": 14.103125000000004,
          "velocity": 0.5905511811023622,
          "duration": 0.34791666666666643
        },
        {
          "name": "D4",
          "midi": 62,
          "time": 14.219791666666671,
          "velocity": 0.4881889763779528,
          "duration": 0.33645833333333286
        },
        {
          "name": "C4",
          "midi": 60,
          "time": 14.452083333333338,
          "velocity": 0.5826771653543307,
          "duration": 0.22083333333333321
        },
        {
          "name": "D4",
          "midi": 62,
          "time": 14.556250000000004,
          "velocity": 0.5748031496062992,
          "duration": 0.22083333333333321
        },
        {
          "name": "A#2",
          "midi": 46,
          "time": 14.626041666666671,
          "velocity": 0.6456692913385826,
          "duration": 0.1395833333333325
        },
        {
          "name": "A#2",
          "midi": 46,
          "time": 14.777083333333337,
          "velocity": 0.5669291338582677,
          "duration": 0.13958333333333428
        },
        {
          "name": "F4",
          "midi": 65,
          "time": 14.800000000000004,
          "velocity": 0.5511811023622047,
          "duration": 0.22083333333333321
        },
        {
          "name": "G4",
          "midi": 67,
          "time": 14.916666666666671,
          "velocity": 0.6771653543307087,
          "duration": 0.30208333333333215
        },
        {
          "name": "A2",
          "midi": 45,
          "time": 14.916666666666671,
          "velocity": 0.48031496062992124,
          "duration": 0.33645833333333286
        },
        {
          "name": "A4",
          "midi": 69,
          "time": 15.253125000000004,
          "velocity": 0.5590551181102362,
          "duration": 0.3020833333333339
        },
        {
          "name": "A2",
          "midi": 45,
          "time": 15.253125000000004,
          "velocity": 0.4881889763779528,
          "duration": 0.32500000000000107
        },
        {
          "name": "A3",
          "midi": 57,
          "time": 15.473958333333337,
          "velocity": 0.6456692913385826,
          "duration": 0.23229166666666856
        },
        {
          "name": "D2",
          "midi": 38,
          "time": 15.601041666666672,
          "velocity": 0.4645669291338583,
          "duration": 0.30312499999999964
        },
        {
          "name": "C4",
          "midi": 60,
          "time": 15.647916666666672,
          "velocity": 0.5905511811023622,
          "duration": 0.17395833333333321
        },
        {
          "name": "A4",
          "midi": 69,
          "time": 15.705208333333339,
          "velocity": 0.31496062992125984,
          "duration": 0.2218750000000007
        },
        {
          "name": "A3",
          "midi": 57,
          "time": 15.705208333333339,
          "velocity": 0.6771653543307087,
          "duration": 0.2218750000000007
        },
        {
          "name": "C4",
          "midi": 60,
          "time": 15.821875000000006,
          "velocity": 0.6141732283464567,
          "duration": 0.2218750000000007
        },
        {
          "name": "A4",
          "midi": 69,
          "time": 15.92708333333334,
          "velocity": 0.31496062992125984,
          "duration": 0.13958333333333428
        },
        {
          "name": "A3",
          "midi": 57,
          "time": 15.92708333333334,
          "velocity": 0.7086614173228346,
          "duration": 0.220833333333335
        },
        {
          "name": "C4",
          "midi": 60,
          "time": 16.043750000000006,
          "velocity": 0.6377952755905512,
          "duration": 0.220833333333335
        },
        {
          "name": "A4",
          "midi": 69,
          "time": 16.147916666666674,
          "velocity": 0.29133858267716534,
          "duration": 0.19687500000000213
        },
        {
          "name": "A3",
          "midi": 57,
          "time": 16.147916666666674,
          "velocity": 0.5905511811023622,
          "duration": 0.32500000000000284
        },
        {
          "name": "A2",
          "midi": 45,
          "time": 16.253125000000008,
          "velocity": 0.4094488188976378,
          "duration": 0.2552083333333357
        },
        {
          "name": "C4",
          "midi": 60,
          "time": 16.26458333333334,
          "velocity": 0.6850393700787402,
          "duration": 0.29062500000000213
        },
        {
          "name": "D2",
          "midi": 38,
          "time": 16.26458333333334,
          "velocity": 0.3858267716535433,
          "duration": 0.26666666666666927
        },
        {
          "name": "D4",
          "midi": 62,
          "time": 16.61250000000001,
          "velocity": 0.6141732283464567,
          "duration": 0.29062500000000213
        },
        {
          "name": "A2",
          "midi": 45,
          "time": 16.623958333333345,
          "velocity": 0.33858267716535434,
          "duration": 0.16250000000000142
        },
        {
          "name": "D3",
          "midi": 50,
          "time": 16.693750000000012,
          "velocity": 0.3858267716535433,
          "duration": 0.16250000000000142
        },
        {
          "name": "D2",
          "midi": 38,
          "time": 16.740625000000012,
          "velocity": 0.3700787401574803,
          "duration": 0.173958333333335
        },
        {
          "name": "A4",
          "midi": 69,
          "time": 16.948958333333348,
          "velocity": 0.6377952755905512,
          "duration": 0.41770833333333357
        },
        {
          "name": "G4",
          "midi": 67,
          "time": 17.181250000000013,
          "velocity": 0.6220472440944882,
          "duration": 0.18541666666666856
        },
        {
          "name": "A2",
          "midi": 45,
          "time": 17.181250000000013,
          "velocity": 0.4566929133858268,
          "duration": 0.13958333333333428
        },
        {
          "name": "F4",
          "midi": 65,
          "time": 17.29791666666668,
          "velocity": 0.6062992125984252,
          "duration": 0.20937500000000142
        },
        {
          "name": "C4",
          "midi": 60,
          "time": 17.41354166666668,
          "velocity": 0.6535433070866141,
          "duration": 0.3020833333333357
        },
        {
          "name": "D4",
          "midi": 62,
          "time": 17.634375000000016,
          "velocity": 0.47244094488188976,
          "duration": 0.3031250000000014
        },
        {
          "name": "A#2",
          "midi": 46,
          "time": 17.634375000000016,
          "velocity": 0.5039370078740157,
          "duration": 0.45416666666666927
        },
        {
          "name": "A4",
          "midi": 69,
          "time": 18.088541666666686,
          "velocity": 0.6771653543307087,
          "duration": 0.3833333333333364
        },
        {
          "name": "A#2",
          "midi": 46,
          "time": 18.088541666666686,
          "velocity": 0.4251968503937008,
          "duration": 0.220833333333335
        },
        {
          "name": "A#2",
          "midi": 46,
          "time": 18.30937500000002,
          "velocity": 0.6535433070866141,
          "duration": 0.23229166666666856
        },
        {
          "name": "G4",
          "midi": 67,
          "time": 18.425000000000022,
          "velocity": 0.6535433070866141,
          "duration": 0.24375000000000213
        },
        {
          "name": "A2",
          "midi": 45,
          "time": 18.540625000000023,
          "velocity": 0.5039370078740157,
          "duration": 0.34791666666667
        },
        {
          "name": "C4",
          "midi": 60,
          "time": 18.65729166666669,
          "velocity": 0.5511811023622047,
          "duration": 0.23229166666666856
        },
        {
          "name": "D4",
          "midi": 62,
          "time": 18.772916666666692,
          "velocity": 0.5748031496062992,
          "duration": 0.220833333333335
        },
        {
          "name": "C4",
          "midi": 60,
          "time": 18.88958333333336,
          "velocity": 0.5748031496062992,
          "duration": 0.16250000000000142
        },
        {
          "name": "A2",
          "midi": 45,
          "time": 18.88958333333336,
          "velocity": 0.5118110236220472,
          "duration": 0.23229166666666856
        },
        {
          "name": "D4",
          "midi": 62,
          "time": 18.993750000000027,
          "velocity": 0.6535433070866141,
          "duration": 0.20937500000000142
        },
        {
          "name": "C4",
          "midi": 60,
          "time": 19.226041666666696,
          "velocity": 0.5905511811023622,
          "duration": 0.20937500000000142
        },
        {
          "name": "D2",
          "midi": 38,
          "time": 19.226041666666696,
          "velocity": 0.3779527559055118,
          "duration": 0.6041666666666714
        },
        {
          "name": "D4",
          "midi": 62,
          "time": 19.458333333333364,
          "velocity": 0.6299212598425197,
          "duration": 0.40625000000000355
        },
        {
          "name": "D3",
          "midi": 50,
          "time": 19.458333333333364,
          "velocity": 0.28346456692913385,
          "duration": 0.15104166666666785
        },
        {
          "name": "A2",
          "midi": 45,
          "time": 19.9010416666667,
          "velocity": 0.4409448818897638,
          "duration": 0.24374999999999858
        },
        {
          "name": "A4",
          "midi": 69,
          "time": 19.912500000000033,
          "velocity": 0.7086614173228346,
          "duration": 0.41770833333333357
        },
        {
          "name": "G4",
          "midi": 67,
          "time": 20.248958333333366,
          "velocity": 0.7086614173228346,
          "duration": 0.3135416666666657
        },
        {
          "name": "A2",
          "midi": 45,
          "time": 20.330208333333367,
          "velocity": 0.47244094488188976,
          "duration": 0.185416666666665
        },
        {
          "name": "D2",
          "midi": 38,
          "time": 20.365625000000033,
          "velocity": 0.33858267716535434,
          "duration": 0.16249999999999787
        },
        {
          "name": "G#4",
          "midi": 68,
          "time": 20.5854166666667,
          "velocity": 0.6850393700787402,
          "duration": 0.23229166666666856
        },
        {
          "name": "A2",
          "midi": 45,
          "time": 20.806250000000034,
          "velocity": 0.4330708661417323,
          "duration": 0.173958333333335
        },
        {
          "name": "G4",
          "midi": 67,
          "time": 20.817708333333368,
          "velocity": 0.7086614173228346,
          "duration": 0.24375000000000213
        },
        {
          "name": "F4",
          "midi": 65,
          "time": 21.038541666666703,
          "velocity": 0.6929133858267716,
          "duration": 0.23229166666666856
        },
        {
          "name": "A#2",
          "midi": 46,
          "time": 21.27083333333337,
          "velocity": 0.5590551181102362,
          "duration": 0.453125
        },
        {
          "name": "D4",
          "midi": 62,
          "time": 21.503125000000036,
          "velocity": 0.5748031496062992,
          "duration": 0.3364583333333364
        },
        {
          "name": "A#2",
          "midi": 46,
          "time": 21.72395833333337,
          "velocity": 0.3858267716535433,
          "duration": 0.2218750000000007
        },
        {
          "name": "D4",
          "midi": 62,
          "time": 21.839583333333373,
          "velocity": 0.6456692913385826,
          "duration": 0.2218750000000007
        },
        {
          "name": "A#2",
          "midi": 46,
          "time": 21.945833333333372,
          "velocity": 0.6141732283464567,
          "duration": 0.220833333333335
        },
        {
          "name": "D4",
          "midi": 62,
          "time": 22.061458333333373,
          "velocity": 0.5196850393700787,
          "duration": 0.29062500000000213
        },
        {
          "name": "G4",
          "midi": 67,
          "time": 22.177083333333375,
          "velocity": 0.6535433070866141,
          "duration": 0.23229166666666856
        },
        {
          "name": "A2",
          "midi": 45,
          "time": 22.177083333333375,
          "velocity": 0.5118110236220472,
          "duration": 0.34791666666667
        },
        {
          "name": "A4",
          "midi": 69,
          "time": 22.514583333333377,
          "velocity": 0.6535433070866141,
          "duration": 0.19687499999999858
        },
        {
          "name": "A2",
          "midi": 45,
          "time": 22.52604166666671,
          "velocity": 0.5826771653543307,
          "duration": 0.185416666666665
        },
        {
          "name": "C4",
          "midi": 60,
          "time": 22.746875000000042,
          "velocity": 0.6692913385826772,
          "duration": 0.23229166666666856
        },
        {
          "name": "D2",
          "midi": 38,
          "time": 22.85104166666671,
          "velocity": 0.4251968503937008,
          "duration": 0.18541666666666856
        },
        {
          "name": "C4",
          "midi": 60,
          "time": 22.97916666666671,
          "velocity": 0.6614173228346457,
          "duration": 0.23229166666666856
        },
        {
          "name": "C4",
          "midi": 60,
          "time": 23.210416666666713,
          "velocity": 0.5511811023622047,
          "duration": 0.453125
        },
        {
          "name": "D4",
          "midi": 62,
          "time": 23.431250000000045,
          "velocity": 0.6062992125984252,
          "duration": 0.16250000000000142
        },
        {
          "name": "C4",
          "midi": 60,
          "time": 23.663541666666713,
          "velocity": 0.5590551181102362,
          "duration": 0.15104166666666785
        },
        {
          "name": "D4",
          "midi": 62,
          "time": 23.87395833333338,
          "velocity": 0.6141732283464567,
          "duration": 0.29062500000000213
        },
        {
          "name": "A2",
          "midi": 45,
          "time": 23.97812500000005,
          "velocity": 0.4015748031496063,
          "duration": 0.173958333333335
        },
        {
          "name": "D2",
          "midi": 38,
          "time": 24.00208333333338,
          "velocity": 0.36220472440944884,
          "duration": 0.13958333333333428
        },
        {
          "name": "F4",
          "midi": 65,
          "time": 24.22187500000005,
          "velocity": 0.7480314960629921,
          "duration": 0.220833333333335
        },
        {
          "name": "F4",
          "midi": 65,
          "time": 24.442708333333385,
          "velocity": 0.7637795275590551,
          "duration": 0.453125
        },
        {
          "name": "D4",
          "midi": 62,
          "time": 24.442708333333385,
          "velocity": 0.6850393700787402,
          "duration": 0.46458333333333357
        },
        {
          "name": "A#2",
          "midi": 46,
          "time": 24.90729166666672,
          "velocity": 0.6141732283464567,
          "duration": 0.4291666666666707
        },
        {
          "name": "F5",
          "midi": 77,
          "time": 25.128125000000054,
          "velocity": 0.6220472440944882,
          "duration": 0.220833333333335
        },
        {
          "name": "G5",
          "midi": 79,
          "time": 25.25520833333339,
          "velocity": 0.6377952755905512,
          "duration": 0.13958333333333428
        },
        {
          "name": "A5",
          "midi": 81,
          "time": 25.360416666666723,
          "velocity": 0.4094488188976378,
          "duration": 0.15104166666666785
        },
        {
          "name": "A#2",
          "midi": 46,
          "time": 25.371875000000056,
          "velocity": 0.3858267716535433,
          "duration": 0.220833333333335
        },
        {
          "name": "A#2",
          "midi": 46,
          "time": 25.591666666666725,
          "velocity": 0.7716535433070866,
          "duration": 0.232291666666665
        },
        {
          "name": "G5",
          "midi": 79,
          "time": 25.82395833333339,
          "velocity": 0.48031496062992124,
          "duration": 0.16354166666666714
        },
        {
          "name": "A2",
          "midi": 45,
          "time": 25.82395833333339,
          "velocity": 0.7086614173228346,
          "duration": 0.32604166666666856
        },
        {
          "name": "F5",
          "midi": 77,
          "time": 26.151041666666725,
          "velocity": 0.5590551181102362,
          "duration": 0.15104166666666785
        },
        {
          "name": "A2",
          "midi": 45,
          "time": 26.151041666666725,
          "velocity": 0.5511811023622047,
          "duration": 0.5687500000000014
        },
        {
          "name": "C#5",
          "midi": 73,
          "time": 26.49895833333339,
          "velocity": 0.6929133858267716,
          "duration": 0.2552083333333357
        },
        {
          "name": "D2",
          "midi": 38,
          "time": 26.49895833333339,
          "velocity": 0.5118110236220472,
          "duration": 0.23229166666666856
        },
        {
          "name": "A2",
          "midi": 45,
          "time": 26.719791666666726,
          "velocity": 0.4881889763779528,
          "duration": 0.20937500000000142
        },
        {
          "name": "D2",
          "midi": 38,
          "time": 26.73125000000006,
          "velocity": 0.3779527559055118,
          "duration": 0.18541666666666856
        },
        {
          "name": "D5",
          "midi": 74,
          "time": 26.952083333333395,
          "velocity": 0.6614173228346457,
          "duration": 0.2666666666666657
        },
        {
          "name": "A2",
          "midi": 45,
          "time": 27.18437500000006,
          "velocity": 0.4645669291338583,
          "duration": 0.3020833333333357
        },
        {
          "name": "D2",
          "midi": 38,
          "time": 27.195833333333393,
          "velocity": 0.3779527559055118,
          "duration": 0.29062500000000213
        },
        {
          "name": "D3",
          "midi": 50,
          "time": 27.230208333333394,
          "velocity": 0.33858267716535434,
          "duration": 0.20937500000000142
        },
        {
          "name": "D2",
          "midi": 38,
          "time": 27.62500000000006,
          "velocity": 0.3543307086614173,
          "duration": 0.13958333333333428
        },
        {
          "name": "A4",
          "midi": 69,
          "time": 27.636458333333394,
          "velocity": 0.5590551181102362,
          "duration": 0.45416666666666927
        },
        {
          "name": "F4",
          "midi": 65,
          "time": 27.636458333333394,
          "velocity": 0.7244094488188977,
          "duration": 0.45416666666666927
        },
        {
          "name": "D4",
          "midi": 62,
          "time": 27.636458333333394,
          "velocity": 0.5354330708661418,
          "duration": 0.4427083333333357
        },
        {
          "name": "D3",
          "midi": 50,
          "time": 27.647916666666728,
          "velocity": 0.5196850393700787,
          "duration": 0.2562500000000014
        },
        {
          "name": "A2",
          "midi": 45,
          "time": 27.647916666666728,
          "velocity": 0.3779527559055118,
          "duration": 0.16250000000000142
        },
        {
          "name": "D5",
          "midi": 74,
          "time": 28.090625000000063,
          "velocity": 0.5984251968503937,
          "duration": 0.3364583333333364
        },
        {
          "name": "A4",
          "midi": 69,
          "time": 28.090625000000063,
          "velocity": 0.6456692913385826,
          "duration": 0.3364583333333364
        },
        {
          "name": "F4",
          "midi": 65,
          "time": 28.090625000000063,
          "velocity": 0.6614173228346457,
          "duration": 0.4645833333333371
        },
        {
          "name": "D3",
          "midi": 50,
          "time": 28.090625000000063,
          "velocity": 0.4566929133858268,
          "duration": 0.23229166666666856
        },
        {
          "name": "A2",
          "midi": 45,
          "time": 28.090625000000063,
          "velocity": 0.3700787401574803,
          "duration": 0.13958333333333428
        },
        {
          "name": "D5",
          "midi": 74,
          "time": 28.4270833333334,
          "velocity": 0.5433070866141733,
          "duration": 0.13958333333333428
        },
        {
          "name": "A4",
          "midi": 69,
          "time": 28.4270833333334,
          "velocity": 0.6535433070866141,
          "duration": 0.13958333333333428
        },
        {
          "name": "A#2",
          "midi": 46,
          "time": 28.4270833333334,
          "velocity": 0.6771653543307087,
          "duration": 0.173958333333335
        },
        {
          "name": "A#2",
          "midi": 46,
          "time": 28.6020833333334,
          "velocity": 0.6220472440944882,
          "duration": 0.39479166666667
        },
        {
          "name": "F5",
          "midi": 77,
          "time": 28.764583333333402,
          "velocity": 0.6220472440944882,
          "duration": 0.18541666666666856
        },
        {
          "name": "G5",
          "midi": 79,
          "time": 28.880208333333403,
          "velocity": 0.6535433070866141,
          "duration": 0.173958333333335
        },
        {
          "name": "F3",
          "midi": 53,
          "time": 28.99687500000007,
          "velocity": 0.36220472440944884,
          "duration": 0.16250000000000142
        },
        {
          "name": "A#2",
          "midi": 46,
          "time": 28.99687500000007,
          "velocity": 0.5590551181102362,
          "duration": 0.220833333333335
        },
        {
          "name": "A#2",
          "midi": 46,
          "time": 29.21666666666674,
          "velocity": 0.7480314960629921,
          "duration": 0.24374999999999858
        },
        {
          "name": "G5",
          "midi": 79,
          "time": 29.448958333333405,
          "velocity": 0.49606299212598426,
          "duration": 0.19687499999999858
        },
        {
          "name": "A2",
          "midi": 45,
          "time": 29.460416666666738,
          "velocity": 0.7086614173228346,
          "duration": 0.33645833333333286
        },
        {
          "name": "F5",
          "midi": 77,
          "time": 29.797916666666737,
          "velocity": 0.5511811023622047,
          "duration": 0.12916666666666643
        },
        {
          "name": "A2",
          "midi": 45,
          "time": 29.797916666666737,
          "velocity": 0.5433070866141733,
          "duration": 0.5697916666666636
        },
        {
          "name": "C#5",
          "midi": 73,
          "time": 30.123958333333402,
          "velocity": 0.6692913385826772,
          "duration": 0.2781249999999993
        },
        {
          "name": "D2",
          "midi": 38,
          "time": 30.135416666666735,
          "velocity": 0.49606299212598426,
          "duration": 0.24374999999999858
        },
        {
          "name": "A2",
          "midi": 45,
          "time": 30.3677083333334,
          "velocity": 0.5275590551181102,
          "duration": 0.19687500000000213
        },
        {
          "name": "D2",
          "midi": 38,
          "time": 30.379166666666734,
          "velocity": 0.4015748031496063,
          "duration": 0.19687500000000213
        },
        {
          "name": "D5",
          "midi": 74,
          "time": 30.588541666666735,
          "velocity": 0.6456692913385826,
          "duration": 0.24374999999999858
        },
        {
          "name": "A2",
          "midi": 45,
          "time": 30.8208333333334,
          "velocity": 0.4015748031496063,
          "duration": 0.20937500000000142
        },
        {
          "name": "D2",
          "midi": 38,
          "time": 30.8208333333334,
          "velocity": 0.41732283464566927,
          "duration": 0.24375000000000213
        },
        {
          "name": "A5",
          "midi": 81,
          "time": 31.04062500000007,
          "velocity": 0.6377952755905512,
          "duration": 0.232291666666665
        },
        {
          "name": "D5",
          "midi": 74,
          "time": 31.272916666666735,
          "velocity": 0.4645669291338583,
          "duration": 0.40625000000000355
        },
        {
          "name": "A2",
          "midi": 45,
          "time": 31.272916666666735,
          "velocity": 0.3464566929133858,
          "duration": 0.16250000000000142
        },
        {
          "name": "D2",
          "midi": 38,
          "time": 31.272916666666735,
          "velocity": 0.30708661417322836,
          "duration": 0.13958333333333428
        },
        {
          "name": "A4",
          "midi": 69,
          "time": 31.505208333333403,
          "velocity": 0.7086614173228346,
          "duration": 0.2802083333333343
        },
        {
          "name": "G4",
          "midi": 67,
          "time": 31.73750000000007,
          "velocity": 0.5905511811023622,
          "duration": 0.16354166666666714
        },
        {
          "name": "F4",
          "midi": 65,
          "time": 31.832291666666737,
          "velocity": 0.6220472440944882,
          "duration": 0.173958333333335
        },
        {
          "name": "C4",
          "midi": 60,
          "time": 31.94791666666674,
          "velocity": 0.6141732283464567,
          "duration": 0.19687500000000213
        },
        {
          "name": "D4",
          "midi": 62,
          "time": 32.18020833333341,
          "velocity": 0.4409448818897638,
          "duration": 0.24374999999999858
        },
        {
          "name": "A#2",
          "midi": 46,
          "time": 32.18020833333341,
          "velocity": 0.5905511811023622,
          "duration": 0.4416666666666629
        },
        {
          "name": "F3",
          "midi": 53,
          "time": 32.621875000000074,
          "velocity": 0.41732283464566927,
          "duration": 0.17395833333333144
        },
        {
          "name": "A#2",
          "midi": 46,
          "time": 32.621875000000074,
          "velocity": 0.5669291338582677,
          "duration": 0.24374999999999858
        },
        {
          "name": "A4",
          "midi": 69,
          "time": 32.633333333333404,
          "velocity": 0.6535433070866141,
          "duration": 0.34791666666667
        },
        {
          "name": "F4",
          "midi": 65,
          "time": 32.633333333333404,
          "velocity": 0.5039370078740157,
          "duration": 0.39479166666667
        },
        {
          "name": "A#2",
          "midi": 46,
          "time": 32.86562500000007,
          "velocity": 0.6850393700787402,
          "duration": 0.23229166666666856
        },
        {
          "name": "G4",
          "midi": 67,
          "time": 32.981250000000074,
          "velocity": 0.5905511811023622,
          "duration": 0.16250000000000142
        },
        {
          "name": "D4",
          "midi": 62,
          "time": 32.981250000000074,
          "velocity": 0.44881889763779526,
          "duration": 0.23229166666666856
        },
        {
          "name": "A2",
          "midi": 45,
          "time": 33.096875000000075,
          "velocity": 0.6062992125984252,
          "duration": 0.33645833333333286
        },
        {
          "name": "D4",
          "midi": 62,
          "time": 33.21354166666674,
          "velocity": 0.6377952755905512,
          "duration": 0.22083333333333144
        },
        {
          "name": "D4",
          "midi": 62,
          "time": 33.434375000000074,
          "velocity": 0.5039370078740157,
          "duration": 0.3374999999999986
        },
        {
          "name": "A2",
          "midi": 45,
          "time": 33.434375000000074,
          "velocity": 0.6062992125984252,
          "duration": 0.24374999999999858
        },
        {
          "name": "C4",
          "midi": 60,
          "time": 33.77187500000007,
          "velocity": 0.5275590551181102,
          "duration": 0.23229166666666856
        },
        {
          "name": "D4",
          "midi": 62,
          "time": 34.108333333333405,
          "velocity": 0.6535433070866141,
          "duration": 0.3135416666666657
        },
        {
          "name": "A4",
          "midi": 69,
          "time": 34.45729166666674,
          "velocity": 0.7165354330708661,
          "duration": 0.3604166666666657
        },
        {
          "name": "F4",
          "midi": 65,
          "time": 34.45729166666674,
          "velocity": 0.6929133858267716,
          "duration": 0.40625
        },
        {
          "name": "D3",
          "midi": 50,
          "time": 34.45729166666674,
          "velocity": 0.44881889763779526,
          "duration": 0.2552083333333357
        },
        {
          "name": "D2",
          "midi": 38,
          "time": 34.45729166666674,
          "velocity": 0.2992125984251969,
          "duration": 0.13958333333333428
        },
        {
          "name": "G4",
          "midi": 67,
          "time": 34.793750000000074,
          "velocity": 0.6141732283464567,
          "duration": 0.2666666666666657
        },
        {
          "name": "D4",
          "midi": 62,
          "time": 34.793750000000074,
          "velocity": 0.5275590551181102,
          "duration": 0.2552083333333357
        },
        {
          "name": "A2",
          "midi": 45,
          "time": 34.88645833333341,
          "velocity": 0.4094488188976378,
          "duration": 0.13958333333333428
        },
        {
          "name": "D3",
          "midi": 50,
          "time": 34.88645833333341,
          "velocity": 0.4015748031496063,
          "duration": 0.19687499999999858
        },
        {
          "name": "D2",
          "midi": 38,
          "time": 34.909375000000075,
          "velocity": 0.33858267716535434,
          "duration": 0.19687499999999858
        },
        {
          "name": "G#4",
          "midi": 68,
          "time": 35.141666666666744,
          "velocity": 0.6535433070866141,
          "duration": 0.20937500000000142
        },
        {
          "name": "G4",
          "midi": 67,
          "time": 35.362500000000075,
          "velocity": 0.6062992125984252,
          "duration": 0.18541666666666856
        },
        {
          "name": "F4",
          "midi": 65,
          "time": 35.43229166666674,
          "velocity": 0.7244094488188977,
          "duration": 0.1510416666666714
        },
        {
          "name": "F4",
          "midi": 65,
          "time": 35.594791666666744,
          "velocity": 0.7007874015748031,
          "duration": 0.22187500000000426
        },
        {
          "name": "A#2",
          "midi": 46,
          "time": 35.757291666666745,
          "velocity": 0.7480314960629921,
          "duration": 0.17499999999999716
        },
        {
          "name": "A3",
          "midi": 57,
          "time": 35.92083333333341,
          "velocity": 0.6220472440944882,
          "duration": 0.3479166666666629
        },
        {
          "name": "A#2",
          "midi": 46,
          "time": 35.93229166666674,
          "velocity": 0.4094488188976378,
          "duration": 0.33645833333333286
        },
        {
          "name": "D4",
          "midi": 62,
          "time": 36.03750000000007,
          "velocity": 0.5039370078740157,
          "duration": 0.34791666666667
        },
        {
          "name": "A3",
          "midi": 57,
          "time": 36.26979166666674,
          "velocity": 0.6062992125984252,
          "duration": 0.22083333333333144
        },
        {
          "name": "A#2",
          "midi": 46,
          "time": 36.26979166666674,
          "velocity": 0.47244094488188976,
          "duration": 0.3020833333333286
        },
        {
          "name": "D4",
          "midi": 62,
          "time": 36.38541666666674,
          "velocity": 0.5511811023622047,
          "duration": 0.19687499999999147
        },
        {
          "name": "A#2",
          "midi": 46,
          "time": 36.570833333333404,
          "velocity": 0.6377952755905512,
          "duration": 0.16250000000000142
        },
        {
          "name": "F4",
          "midi": 65,
          "time": 36.617708333333404,
          "velocity": 0.5905511811023622,
          "duration": 0.1510416666666643
        },
        {
          "name": "G4",
          "midi": 67,
          "time": 36.73437500000007,
          "velocity": 0.6692913385826772,
          "duration": 0.2666666666666657
        },
        {
          "name": "A2",
          "midi": 45,
          "time": 36.73437500000007,
          "velocity": 0.5118110236220472,
          "duration": 0.33645833333333286
        },
        {
          "name": "A4",
          "midi": 69,
          "time": 37.070833333333404,
          "velocity": 0.5196850393700787,
          "duration": 0.22083333333333144
        },
        {
          "name": "A2",
          "midi": 45,
          "time": 37.070833333333404,
          "velocity": 0.5590551181102362,
          "duration": 0.3479166666666629
        },
        {
          "name": "A4",
          "midi": 69,
          "time": 37.29062500000007,
          "velocity": 0.36220472440944884,
          "duration": 0.23229166666666146
        },
        {
          "name": "A3",
          "midi": 57,
          "time": 37.29062500000007,
          "velocity": 0.5984251968503937,
          "duration": 0.23229166666666146
        },
        {
          "name": "D2",
          "midi": 38,
          "time": 37.41875000000007,
          "velocity": 0.3937007874015748,
          "duration": 0.22083333333333144
        },
        {
          "name": "C4",
          "midi": 60,
          "time": 37.46562500000007,
          "velocity": 0.5748031496062992,
          "duration": 0.17395833333333144
        },
        {
          "name": "A4",
          "midi": 69,
          "time": 37.52291666666673,
          "velocity": 0.3228346456692913,
          "duration": 0.22187499999999716
        },
        {
          "name": "A3",
          "midi": 57,
          "time": 37.52291666666673,
          "velocity": 0.5905511811023622,
          "duration": 0.22187499999999716
        },
        {
          "name": "A2",
          "midi": 45,
          "time": 37.61666666666673,
          "velocity": 0.4330708661417323,
          "duration": 0.2562499999999943
        },
        {
          "name": "C4",
          "midi": 60,
          "time": 37.6395833333334,
          "velocity": 0.5669291338582677,
          "duration": 0.22187499999999716
        },
        {
          "name": "D2",
          "midi": 38,
          "time": 37.6395833333334,
          "velocity": 0.3779527559055118,
          "duration": 0.23333333333332718
        },
        {
          "name": "A4",
          "midi": 69,
          "time": 37.74479166666673,
          "velocity": 0.3543307086614173,
          "duration": 0.18541666666666146
        },
        {
          "name": "A3",
          "midi": 57,
          "time": 37.74479166666673,
          "velocity": 0.6062992125984252,
          "duration": 0.22083333333333144
        },
        {
          "name": "C4",
          "midi": 60,
          "time": 37.861458333333395,
          "velocity": 0.5669291338582677,
          "duration": 0.23229166666665435
        },
        {
          "name": "D4",
          "midi": 62,
          "time": 37.97708333333339,
          "velocity": 0.5275590551181102,
          "duration": 0.23229166666666146
        },
        {
          "name": "D3",
          "midi": 50,
          "time": 38.08229166666672,
          "velocity": 0.33070866141732286,
          "duration": 0.1510416666666643
        },
        {
          "name": "A2",
          "midi": 45,
          "time": 38.08229166666672,
          "velocity": 0.3464566929133858,
          "duration": 0.17395833333333144
        },
        {
          "name": "C4",
          "midi": 60,
          "time": 38.09375000000005,
          "velocity": 0.5748031496062992,
          "duration": 0.20937500000000142
        },
        {
          "name": "D2",
          "midi": 38,
          "time": 38.09375000000005,
          "velocity": 0.5118110236220472,
          "duration": 0.22083333333333144
        },
        {
          "name": "D4",
          "midi": 62,
          "time": 38.43020833333338,
          "velocity": 0.6141732283464567,
          "duration": 0.16250000000000142
        },
        {
          "name": "G4",
          "midi": 67,
          "time": 38.651041666666714,
          "velocity": 0.7165354330708661,
          "duration": 0.23229166666666856
        },
        {
          "name": "D4",
          "midi": 62,
          "time": 38.766666666666715,
          "velocity": 0.7007874015748031,
          "duration": 0.27812500000000284
        },
        {
          "name": "G4",
          "midi": 67,
          "time": 38.88333333333338,
          "velocity": 0.7086614173228346,
          "duration": 0.23229166666666856
        },
        {
          "name": "D2",
          "midi": 38,
          "time": 38.998958333333384,
          "velocity": 0.33858267716535434,
          "duration": 0.24374999999999858
        },
        {
          "name": "D4",
          "midi": 62,
          "time": 39.045833333333384,
          "velocity": 0.5905511811023622,
          "duration": 0.24374999999999858
        },
        {
          "name": "G4",
          "midi": 67,
          "time": 39.11562500000005,
          "velocity": 0.6850393700787402,
          "duration": 0.3479166666666629
        },
        {
          "name": "F4",
          "midi": 65,
          "time": 39.219791666666715,
          "velocity": 0.6299212598425197,
          "duration": 0.20937500000000142
        },
        {
          "name": "G4",
          "midi": 67,
          "time": 39.463541666666714,
          "velocity": 0.5275590551181102,
          "duration": 0.18541666666666856
        },
        {
          "name": "D4",
          "midi": 62,
          "time": 39.463541666666714,
          "velocity": 0.3937007874015748,
          "duration": 0.32604166666666856
        },
        {
          "name": "A#2",
          "midi": 46,
          "time": 39.463541666666714,
          "velocity": 0.5354330708661418,
          "duration": 0.4312499999999986
        },
        {
          "name": "A4",
          "midi": 69,
          "time": 39.68437500000005,
          "velocity": 0.6377952755905512,
          "duration": 0.15208333333333002
        },
        {
          "name": "F4",
          "midi": 65,
          "time": 39.68437500000005,
          "velocity": 0.49606299212598426,
          "duration": 0.32604166666665435
        },
        {
          "name": "D4",
          "midi": 62,
          "time": 39.78958333333338,
          "velocity": 0.5511811023622047,
          "duration": 0.16249999999999432
        },
        {
          "name": "G4",
          "midi": 67,
          "time": 39.80104166666671,
          "velocity": 0.5748031496062992,
          "duration": 0.13958333333333428
        },
        {
          "name": "A#2",
          "midi": 46,
          "time": 39.89479166666671,
          "velocity": 0.48031496062992124,
          "duration": 0.23229166666665435
        },
        {
          "name": "F4",
          "midi": 65,
          "time": 40.01041666666671,
          "velocity": 0.6377952755905512,
          "duration": 0.1510416666666572
        },
        {
          "name": "A4",
          "midi": 69,
          "time": 40.02187500000004,
          "velocity": 0.5826771653543307,
          "duration": 0.1510416666666572
        },
        {
          "name": "A#2",
          "midi": 46,
          "time": 40.1260416666667,
          "velocity": 0.7007874015748031,
          "duration": 0.23229166666666146
        },
        {
          "name": "G4",
          "midi": 67,
          "time": 40.24270833333336,
          "velocity": 0.5984251968503937,
          "duration": 0.17395833333333144
        },
        {
          "name": "D4",
          "midi": 62,
          "time": 40.24270833333336,
          "velocity": 0.5748031496062992,
          "duration": 0.13958333333333428
        },
        {
          "name": "A2",
          "midi": 45,
          "time": 40.35833333333336,
          "velocity": 0.5354330708661418,
          "duration": 0.33645833333331865
        },
        {
          "name": "F4",
          "midi": 65,
          "time": 40.42812500000002,
          "velocity": 0.6456692913385826,
          "duration": 0.1510416666666643
        },
        {
          "name": "F4",
          "midi": 65,
          "time": 40.59062500000002,
          "velocity": 0.5826771653543307,
          "duration": 0.17395833333333144
        },
        {
          "name": "A2",
          "midi": 45,
          "time": 40.69583333333335,
          "velocity": 0.5669291338582677,
          "duration": 0.2666666666666657
        },
        {
          "name": "D4",
          "midi": 62,
          "time": 40.81145833333335,
          "velocity": 0.5196850393700787,
          "duration": 0.22083333333333144
        },
        {
          "name": "F4",
          "midi": 65,
          "time": 41.05520833333335,
          "velocity": 0.6299212598425197,
          "duration": 0.20937500000000142
        },
        {
          "name": "D2",
          "midi": 38,
          "time": 41.09062500000002,
          "velocity": 0.4881889763779528,
          "duration": 0.17395833333333144
        },
        {
          "name": "D4",
          "midi": 62,
          "time": 41.27604166666668,
          "velocity": 0.4881889763779528,
          "duration": 0.3479166666666629
        },
        {
          "name": "A2",
          "midi": 45,
          "time": 41.27604166666668,
          "velocity": 0.41732283464566927,
          "duration": 0.18541666666666146
        },
        {
          "name": "D2",
          "midi": 38,
          "time": 41.27604166666668,
          "velocity": 0.3700787401574803,
          "duration": 0.18541666666666146
        },
        {
          "name": "G4",
          "midi": 67,
          "time": 41.28750000000001,
          "velocity": 0.47244094488188976,
          "duration": 0.33645833333333286
        },
        {
          "name": "F4",
          "midi": 65,
          "time": 41.49687500000001,
          "velocity": 0.5669291338582677,
          "duration": 0.3374999999999986
        },
        {
          "name": "A4",
          "midi": 69,
          "time": 41.50833333333334,
          "velocity": 0.6377952755905512,
          "duration": 0.16250000000000142
        },
        {
          "name": "G4",
          "midi": 67,
          "time": 41.62395833333334,
          "velocity": 0.6062992125984252,
          "duration": 0.1875
        },
        {
          "name": "D4",
          "midi": 62,
          "time": 41.62395833333334,
          "velocity": 0.5354330708661418,
          "duration": 0.15208333333333002
        },
        {
          "name": "A2",
          "midi": 45,
          "time": 41.730208333333344,
          "velocity": 0.41732283464566927,
          "duration": 0.13958333333333428
        },
        {
          "name": "D2",
          "midi": 38,
          "time": 41.730208333333344,
          "velocity": 0.3858267716535433,
          "duration": 0.18541666666666856
        },
        {
          "name": "D3",
          "midi": 50,
          "time": 41.741666666666674,
          "velocity": 0.4015748031496063,
          "duration": 0.20937500000000853
        },
        {
          "name": "A4",
          "midi": 69,
          "time": 41.83437500000001,
          "velocity": 0.6850393700787402,
          "duration": 0.22083333333333854
        },
        {
          "name": "F4",
          "midi": 65,
          "time": 41.83437500000001,
          "velocity": 0.7244094488188977,
          "duration": 0.22083333333333854
        },
        {
          "name": "G4",
          "midi": 67,
          "time": 42.06666666666668,
          "velocity": 0.6062992125984252,
          "duration": 0.20937500000000142
        },
        {
          "name": "D4",
          "midi": 62,
          "time": 42.06666666666668,
          "velocity": 0.6377952755905512,
          "duration": 0.16250000000000142
        },
        {
          "name": "D2",
          "midi": 38,
          "time": 42.18229166666668,
          "velocity": 0.3543307086614173,
          "duration": 0.19687499999999858
        },
        {
          "name": "F4",
          "midi": 65,
          "time": 42.24062500000001,
          "velocity": 0.7322834645669292,
          "duration": 0.1510416666666714
        },
        {
          "name": "F4",
          "midi": 65,
          "time": 42.40312500000001,
          "velocity": 0.5748031496062992,
          "duration": 0.20937500000000142
        },
        {
          "name": "G4",
          "midi": 67,
          "time": 42.51979166666668,
          "velocity": 0.6299212598425197,
          "duration": 0.22083333333333144
        },
        {
          "name": "A2",
          "midi": 45,
          "time": 42.62395833333334,
          "velocity": 0.3858267716535433,
          "duration": 0.19687499999999858
        },
        {
          "name": "D2",
          "midi": 38,
          "time": 42.64687500000001,
          "velocity": 0.41732283464566927,
          "duration": 0.2666666666666657
        },
        {
          "name": "D4",
          "midi": 62,
          "time": 42.68229166666668,
          "velocity": 0.5433070866141733,
          "duration": 0.23229166666666146
        },
        {
          "name": "F4",
          "midi": 65,
          "time": 42.86770833333334,
          "velocity": 0.7322834645669292,
          "duration": 0.22083333333333144
        },
        {
          "name": "C5",
          "midi": 72,
          "time": 43.08854166666667,
          "velocity": 0.3543307086614173,
          "duration": 0.3020833333333286
        },
        {
          "name": "F4",
          "midi": 65,
          "time": 43.08854166666667,
          "velocity": 0.4645669291338583,
          "duration": 0.4645833333333229
        },
        {
          "name": "A#2",
          "midi": 46,
          "time": 43.08854166666667,
          "velocity": 0.6062992125984252,
          "duration": 0.4531249999999929
        },
        {
          "name": "D4",
          "midi": 62,
          "time": 43.1,
          "velocity": 0.41732283464566927,
          "duration": 0.24374999999999858
        },
        {
          "name": "F3",
          "midi": 53,
          "time": 43.1,
          "velocity": 0.2992125984251969,
          "duration": 0.17395833333333144
        },
        {
          "name": "A#2",
          "midi": 46,
          "time": 43.541666666666664,
          "velocity": 0.5826771653543307,
          "duration": 0.22187499999999716
        },
        {
          "name": "F4",
          "midi": 65,
          "time": 43.553124999999994,
          "velocity": 0.4881889763779528,
          "duration": 0.32604166666666856
        },
        {
          "name": "F3",
          "midi": 53,
          "time": 43.553124999999994,
          "velocity": 0.3858267716535433,
          "duration": 0.1510416666666643
        },
        {
          "name": "A#2",
          "midi": 46,
          "time": 43.76354166666666,
          "velocity": 0.6614173228346457,
          "duration": 0.22083333333333144
        },
        {
          "name": "F4",
          "midi": 65,
          "time": 43.87916666666666,
          "velocity": 0.5039370078740157,
          "duration": 0.16249999999999432
        },
        {
          "name": "G4",
          "midi": 67,
          "time": 43.99479166666666,
          "velocity": 0.6220472440944882,
          "duration": 0.20937499999999432
        },
        {
          "name": "C#4",
          "midi": 61,
          "time": 43.99479166666666,
          "velocity": 0.5118110236220472,
          "duration": 0.1510416666666643
        },
        {
          "name": "A2",
          "midi": 45,
          "time": 43.99479166666666,
          "velocity": 0.5433070866141733,
          "duration": 0.34791666666665577
        },
        {
          "name": "A4",
          "midi": 69,
          "time": 44.21562499999998,
          "velocity": 0.6456692913385826,
          "duration": 0.18541666666666146
        },
        {
          "name": "G4",
          "midi": 67,
          "time": 44.34374999999998,
          "velocity": 0.5354330708661418,
          "duration": 0.18541666666666146
        },
        {
          "name": "C#4",
          "midi": 61,
          "time": 44.34374999999998,
          "velocity": 0.5669291338582677,
          "duration": 0.19687499999999147
        },
        {
          "name": "A2",
          "midi": 45,
          "time": 44.34374999999998,
          "velocity": 0.5196850393700787,
          "duration": 0.33645833333332575
        },
        {
          "name": "F4",
          "midi": 65,
          "time": 44.52916666666664,
          "velocity": 0.6850393700787402,
          "duration": 0.1510416666666643
        },
        {
          "name": "A2",
          "midi": 45,
          "time": 44.680208333333304,
          "velocity": 0.44881889763779526,
          "duration": 0.17395833333333144
        },
        {
          "name": "D2",
          "midi": 38,
          "time": 44.680208333333304,
          "velocity": 0.3858267716535433,
          "duration": 0.17395833333333144
        },
        {
          "name": "F4",
          "midi": 65,
          "time": 44.691666666666634,
          "velocity": 0.5748031496062992,
          "duration": 0.20937500000000142
        },
        {
          "name": "D3",
          "midi": 50,
          "time": 44.691666666666634,
          "velocity": 0.4094488188976378,
          "duration": 0.18541666666666856
        },
        {
          "name": "G4",
          "midi": 67,
          "time": 44.912499999999966,
          "velocity": 0.5354330708661418,
          "duration": 0.33645833333333286
        },
        {
          "name": "A4",
          "midi": 69,
          "time": 45.1333333333333,
          "velocity": 0.6062992125984252,
          "duration": 0.33645833333333997
        },
        {
          "name": "G4",
          "midi": 67,
          "time": 45.2489583333333,
          "velocity": 0.6692913385826772,
          "duration": 0.22083333333333854
        },
        {
          "name": "F4",
          "midi": 65,
          "time": 45.43437499999997,
          "velocity": 0.7244094488188977,
          "duration": 0.1510416666666714
        },
        {
          "name": "F4",
          "midi": 65,
          "time": 45.59791666666664,
          "velocity": 0.6535433070866141,
          "duration": 0.32604166666666856
        },
        {
          "name": "A2",
          "midi": 45,
          "time": 45.90104166666664,
          "velocity": 0.4409448818897638,
          "duration": 0.13958333333333428
        },
        {
          "name": "A2",
          "midi": 45,
          "time": 46.03958333333331,
          "velocity": 0.7637795275590551,
          "duration": 0.6968749999999844
        },
        {
          "name": "C#5",
          "midi": 73,
          "time": 46.05104166666664,
          "velocity": 0.4645669291338583,
          "duration": 0.33645833333332575
        },
        {
          "name": "G4",
          "midi": 67,
          "time": 46.05104166666664,
          "velocity": 0.48031496062992124,
          "duration": 0.32499999999999574
        },
        {
          "name": "E3",
          "midi": 52,
          "time": 46.15624999999997,
          "velocity": 0.3700787401574803,
          "duration": 0.3479166666666629
        },
        {
          "name": "E3",
          "midi": 52,
          "time": 46.515624999999964,
          "velocity": 0.4330708661417323,
          "duration": 0.17395833333333144
        },
        {
          "name": "D5",
          "midi": 74,
          "time": 46.724999999999966,
          "velocity": 0.4881889763779528,
          "duration": 0.18541666666666146
        },
        {
          "name": "A4",
          "midi": 69,
          "time": 46.724999999999966,
          "velocity": 0.3543307086614173,
          "duration": 0.16249999999999432
        },
        {
          "name": "F3",
          "midi": 53,
          "time": 46.736458333333296,
          "velocity": 0.5039370078740157,
          "duration": 0.1510416666666643
        },
        {
          "name": "A#2",
          "midi": 46,
          "time": 46.736458333333296,
          "velocity": 0.5275590551181102,
          "duration": 0.19687499999999858
        },
        {
          "name": "D4",
          "midi": 62,
          "time": 46.95729166666663,
          "velocity": 0.4409448818897638,
          "duration": 0.22083333333333144
        },
        {
          "name": "F2",
          "midi": 41,
          "time": 47.04999999999996,
          "velocity": 0.5039370078740157,
          "duration": 0.27812499999999574
        },
        {
          "name": "A3",
          "midi": 57,
          "time": 47.06145833333329,
          "velocity": 0.5118110236220472,
          "duration": 0.20937500000000142
        },
        {
          "name": "A#2",
          "midi": 46,
          "time": 47.165624999999956,
          "velocity": 0.6614173228346457,
          "duration": 0.37187499999999574
        },
        {
          "name": "D4",
          "midi": 62,
          "time": 47.17812499999996,
          "velocity": 0.44881889763779526,
          "duration": 0.23229166666666146
        },
        {
          "name": "D4",
          "midi": 62,
          "time": 47.409374999999955,
          "velocity": 0.4645669291338583,
          "duration": 0.20937499999999432
        },
        {
          "name": "A3",
          "midi": 57,
          "time": 47.49062499999995,
          "velocity": 0.6220472440944882,
          "duration": 0.13958333333332718
        },
        {
          "name": "G2",
          "midi": 43,
          "time": 47.61874999999995,
          "velocity": 0.29133858267716534,
          "duration": 0.16354166666666003
        },
        {
          "name": "E4",
          "midi": 64,
          "time": 47.64166666666661,
          "velocity": 0.5433070866141733,
          "duration": 0.3031249999999943
        },
        {
          "name": "C#3",
          "midi": 49,
          "time": 47.678124999999945,
          "velocity": 0.44881889763779526,
          "duration": 0.18541666666666146
        },
        {
          "name": "G3",
          "midi": 55,
          "time": 47.689583333333275,
          "velocity": 0.5354330708661418,
          "duration": 0.38333333333333286
        },
        {
          "name": "C#2",
          "midi": 37,
          "time": 47.689583333333275,
          "velocity": 0.3543307086614173,
          "duration": 0.17395833333333144
        },
        {
          "name": "C#3",
          "midi": 49,
          "time": 47.863541666666606,
          "velocity": 0.4251968503937008,
          "duration": 0.22083333333333144
        },
        {
          "name": "C#2",
          "midi": 37,
          "time": 47.863541666666606,
          "velocity": 0.3937007874015748,
          "duration": 0.48749999999999716
        },
        {
          "name": "F4",
          "midi": 65,
          "time": 47.98020833333327,
          "velocity": 0.3779527559055118,
          "duration": 0.33645833333333286
        },
        {
          "name": "A2",
          "midi": 45,
          "time": 47.98020833333327,
          "velocity": 0.6299212598425197,
          "duration": 0.2906249999999986
        },
        {
          "name": "C#3",
          "midi": 49,
          "time": 48.08437499999994,
          "velocity": 0.6456692913385826,
          "duration": 0.3479166666666629
        },
        {
          "name": "G4",
          "midi": 67,
          "time": 48.316666666666606,
          "velocity": 0.5511811023622047,
          "duration": 0.4062499999999929
        },
        {
          "name": "F4",
          "midi": 65,
          "time": 48.316666666666606,
          "velocity": 0.49606299212598426,
          "duration": 0.4531249999999929
        },
        {
          "name": "C4",
          "midi": 60,
          "time": 48.316666666666606,
          "velocity": 0.4645669291338583,
          "duration": 0.4645833333333229
        },
        {
          "name": "C#2",
          "midi": 37,
          "time": 48.3510416666666,
          "velocity": 0.5275590551181102,
          "duration": 0.16249999999999432
        },
        {
          "name": "D2",
          "midi": 38,
          "time": 48.54895833333327,
          "velocity": 0.4645669291338583,
          "duration": 0.23229166666666146
        },
        {
          "name": "A4",
          "midi": 69,
          "time": 48.7697916666666,
          "velocity": 0.5196850393700787,
          "duration": 0.16249999999999432
        },
        {
          "name": "F4",
          "midi": 65,
          "time": 48.7697916666666,
          "velocity": 0.5354330708661418,
          "duration": 0.16249999999999432
        },
        {
          "name": "C4",
          "midi": 60,
          "time": 48.78124999999993,
          "velocity": 0.4566929133858268,
          "duration": 0.1510416666666643
        },
        {
          "name": "D2",
          "midi": 38,
          "time": 48.78124999999993,
          "velocity": 0.5118110236220472,
          "duration": 0.20937499999999432
        },
        {
          "name": "A2",
          "midi": 45,
          "time": 48.87395833333326,
          "velocity": 0.7165354330708661,
          "duration": 0.32499999999999574
        },
        {
          "name": "D3",
          "midi": 50,
          "time": 48.98958333333326,
          "velocity": 0.6062992125984252,
          "duration": 0.44166666666667
        },
        {
          "name": "D2",
          "midi": 38,
          "time": 48.98958333333326,
          "velocity": 0.4566929133858268,
          "duration": 0.23229166666666856
        },
        {
          "name": "D2",
          "midi": 38,
          "time": 49.221874999999926,
          "velocity": 0.5354330708661418,
          "duration": 0.20937500000000142
        },
        {
          "name": "F4",
          "midi": 65,
          "time": 49.23437499999993,
          "velocity": 0.6141732283464567,
          "duration": 0.20937500000000142
        },
        {
          "name": "G4",
          "midi": 67,
          "time": 49.46562499999993,
          "velocity": 0.4645669291338583,
          "duration": 0.13958333333333428
        },
        {
          "name": "C2",
          "midi": 36,
          "time": 49.478124999999935,
          "velocity": 0.47244094488188976,
          "duration": 0.22187499999999716
        },
        {
          "name": "A4",
          "midi": 69,
          "time": 49.6760416666666,
          "velocity": 0.6771653543307087,
          "duration": 0.13958333333333428
        },
        {
          "name": "G4",
          "midi": 67,
          "time": 49.792708333333266,
          "velocity": 0.44881889763779526,
          "duration": 0.18541666666666856
        },
        {
          "name": "C#3",
          "midi": 49,
          "time": 49.792708333333266,
          "velocity": 0.49606299212598426,
          "duration": 0.20937500000000142
        },
        {
          "name": "C#2",
          "midi": 37,
          "time": 49.792708333333266,
          "velocity": 0.5118110236220472,
          "duration": 0.22083333333333144
        },
        {
          "name": "F4",
          "midi": 65,
          "time": 49.978124999999935,
          "velocity": 0.6535433070866141,
          "duration": 0.1510416666666643
        },
        {
          "name": "D3",
          "midi": 50,
          "time": 50.1291666666666,
          "velocity": 0.5196850393700787,
          "duration": 0.20937499999999432
        },
        {
          "name": "F4",
          "midi": 65,
          "time": 50.14062499999993,
          "velocity": 0.5196850393700787,
          "duration": 0.17395833333333144
        },
        {
          "name": "D2",
          "midi": 38,
          "time": 50.14062499999993,
          "velocity": 0.5590551181102362,
          "duration": 0.20937499999999432
        },
        {
          "name": "G#4",
          "midi": 68,
          "time": 50.36145833333325,
          "velocity": 0.5511811023622047,
          "duration": 0.2552083333333215
        },
        {
          "name": "D4",
          "midi": 62,
          "time": 50.36145833333325,
          "velocity": 0.4881889763779528,
          "duration": 0.23229166666666146
        },
        {
          "name": "A#3",
          "midi": 58,
          "time": 50.36145833333325,
          "velocity": 0.5590551181102362,
          "duration": 0.24374999999999147
        },
        {
          "name": "A#2",
          "midi": 46,
          "time": 50.37291666666658,
          "velocity": 0.3700787401574803,
          "duration": 0.22083333333333144
        },
        {
          "name": "E2",
          "midi": 40,
          "time": 50.37291666666658,
          "velocity": 0.5275590551181102,
          "duration": 0.19687499999999858
        },
        {
          "name": "E2",
          "midi": 40,
          "time": 50.57083333333325,
          "velocity": 0.6220472440944882,
          "duration": 0.23229166666666146
        },
        {
          "name": "A#2",
          "midi": 46,
          "time": 50.593749999999915,
          "velocity": 0.7086614173228346,
          "duration": 0.22083333333332433
        },
        {
          "name": "E2",
          "midi": 40,
          "time": 50.80208333333324,
          "velocity": 0.3858267716535433,
          "duration": 0.27812499999998863
        },
        {
          "name": "G4",
          "midi": 67,
          "time": 50.81458333333324,
          "velocity": 0.5590551181102362,
          "duration": 0.24374999999999858
        },
        {
          "name": "D4",
          "midi": 62,
          "time": 50.81458333333324,
          "velocity": 0.44881889763779526,
          "duration": 0.2552083333333286
        },
        {
          "name": "A#3",
          "midi": 58,
          "time": 50.81458333333324,
          "velocity": 0.4566929133858268,
          "duration": 0.24374999999999858
        },
        {
          "name": "E3",
          "midi": 52,
          "time": 50.81458333333324,
          "velocity": 0.5118110236220472,
          "duration": 0.37187499999998863
        },
        {
          "name": "A#2",
          "midi": 46,
          "time": 50.81458333333324,
          "velocity": 0.6377952755905512,
          "duration": 0.2666666666666586
        },
        {
          "name": "E2",
          "midi": 40,
          "time": 51.0812499999999,
          "velocity": 0.5984251968503937,
          "duration": 0.16249999999999432
        },
        {
          "name": "F4",
          "midi": 65,
          "time": 51.27812499999989,
          "velocity": 0.6062992125984252,
          "duration": 0.22083333333333144
        },
        {
          "name": "G3",
          "midi": 55,
          "time": 51.33645833333322,
          "velocity": 0.5669291338582677,
          "duration": 0.17395833333333144
        },
        {
          "name": "F4",
          "midi": 65,
          "time": 51.49895833333322,
          "velocity": 0.5511811023622047,
          "duration": 0.1875
        },
        {
          "name": "D4",
          "midi": 62,
          "time": 51.603124999999885,
          "velocity": 0.4566929133858268,
          "duration": 0.1406249999999929
        },
        {
          "name": "E2",
          "midi": 40,
          "time": 51.69791666666655,
          "velocity": 0.48031496062992124,
          "duration": 0.1510416666666572
        },
        {
          "name": "A2",
          "midi": 45,
          "time": 51.70937499999988,
          "velocity": 0.6692913385826772,
          "duration": 0.27812499999998863
        },
        {
          "name": "E3",
          "midi": 52,
          "time": 51.94166666666654,
          "velocity": 0.6220472440944882,
          "duration": 0.4531249999999929
        },
        {
          "name": "C4",
          "midi": 60,
          "time": 51.95312499999987,
          "velocity": 0.4094488188976378,
          "duration": 0.3020833333333286
        },
        {
          "name": "G3",
          "midi": 55,
          "time": 51.95312499999987,
          "velocity": 0.6062992125984252,
          "duration": 0.4531249999999929
        },
        {
          "name": "D2",
          "midi": 38,
          "time": 52.1739583333332,
          "velocity": 0.5039370078740157,
          "duration": 0.37187499999999574
        },
        {
          "name": "F3",
          "midi": 53,
          "time": 52.394791666666535,
          "velocity": 0.5275590551181102,
          "duration": 0.18541666666666146
        },
        {
          "name": "A2",
          "midi": 45,
          "time": 52.521874999999866,
          "velocity": 0.7244094488188977,
          "duration": 0.33645833333332575
        },
        {
          "name": "D2",
          "midi": 38,
          "time": 52.544791666666534,
          "velocity": 0.49606299212598426,
          "duration": 0.3135416666666586
        },
        {
          "name": "D3",
          "midi": 50,
          "time": 52.63854166666653,
          "velocity": 0.7322834645669292,
          "duration": 0.22083333333333144
        },
        {
          "name": "A3",
          "midi": 57,
          "time": 52.85833333333319,
          "velocity": 0.4015748031496063,
          "duration": 0.24374999999999147
        },
        {
          "name": "D3",
          "midi": 50,
          "time": 52.85833333333319,
          "velocity": 0.3937007874015748,
          "duration": 0.18541666666666146
        },
        {
          "name": "D2",
          "midi": 38,
          "time": 52.85833333333319,
          "velocity": 0.5354330708661418,
          "duration": 0.23229166666666146
        },
        {
          "name": "A4",
          "midi": 69,
          "time": 52.87083333333319,
          "velocity": 0.3937007874015748,
          "duration": 0.22083333333333144
        },
        {
          "name": "A4",
          "midi": 69,
          "time": 53.090624999999854,
          "velocity": 0.36220472440944884,
          "duration": 0.23229166666666146
        },
        {
          "name": "A3",
          "midi": 57,
          "time": 53.102083333333184,
          "velocity": 0.49606299212598426,
          "duration": 0.2552083333333215
        },
        {
          "name": "C#3",
          "midi": 49,
          "time": 53.102083333333184,
          "velocity": 0.5039370078740157,
          "duration": 0.23229166666666146
        },
        {
          "name": "C#2",
          "midi": 37,
          "time": 53.102083333333184,
          "velocity": 0.5039370078740157,
          "duration": 0.24374999999999147
        },
        {
          "name": "A4",
          "midi": 69,
          "time": 53.322916666666515,
          "velocity": 0.6299212598425197,
          "duration": 0.13958333333332007
        },
        {
          "name": "B1",
          "midi": 35,
          "time": 53.42812499999984,
          "velocity": 0.41732283464566927,
          "duration": 0.19687499999999858
        },
        {
          "name": "C4",
          "midi": 60,
          "time": 53.43958333333317,
          "velocity": 0.44881889763779526,
          "duration": 0.18541666666666856
        },
        {
          "name": "D4",
          "midi": 62,
          "time": 53.76562499999984,
          "velocity": 0.5275590551181102,
          "duration": 0.24374999999999858
        },
        {
          "name": "A2",
          "midi": 45,
          "time": 53.76562499999984,
          "velocity": 0.6220472440944882,
          "duration": 0.20937500000000142
        },
        {
          "name": "A#2",
          "midi": 46,
          "time": 53.97499999999984,
          "velocity": 0.33858267716535434,
          "duration": 0.16249999999999432
        },
        {
          "name": "A#2",
          "midi": 46,
          "time": 54.21874999999983,
          "velocity": 0.47244094488188976,
          "duration": 0.22083333333332433
        },
        {
          "name": "F2",
          "midi": 41,
          "time": 54.2416666666665,
          "velocity": 0.5118110236220472,
          "duration": 0.18541666666666146
        },
        {
          "name": "D5",
          "midi": 74,
          "time": 54.33437499999983,
          "velocity": 0.4645669291338583,
          "duration": 0.23229166666665435
        },
        {
          "name": "F4",
          "midi": 65,
          "time": 54.33437499999983,
          "velocity": 0.48031496062992124,
          "duration": 0.13958333333332007
        },
        {
          "name": "A4",
          "midi": 69,
          "time": 54.34583333333316,
          "velocity": 0.5511811023622047,
          "duration": 0.22083333333332433
        },
        {
          "name": "F2",
          "midi": 41,
          "time": 54.42708333333316,
          "velocity": 0.5669291338582677,
          "duration": 0.2666666666666586
        },
        {
          "name": "A#2",
          "midi": 46,
          "time": 54.43854166666649,
          "velocity": 0.7874015748031497,
          "duration": 0.24374999999999858
        },
        {
          "name": "D5",
          "midi": 74,
          "time": 54.566666666666485,
          "velocity": 0.44881889763779526,
          "duration": 0.22083333333333144
        },
        {
          "name": "A4",
          "midi": 69,
          "time": 54.566666666666485,
          "velocity": 0.5354330708661418,
          "duration": 0.20937500000000142
        },
        {
          "name": "A#2",
          "midi": 46,
          "time": 54.68333333333315,
          "velocity": 0.5511811023622047,
          "duration": 0.2906249999999915
        },
        {
          "name": "E5",
          "midi": 76,
          "time": 54.79895833333315,
          "velocity": 0.4094488188976378,
          "duration": 0.4531249999999929
        },
        {
          "name": "A#4",
          "midi": 70,
          "time": 54.79895833333315,
          "velocity": 0.5196850393700787,
          "duration": 0.3135416666666657
        },
        {
          "name": "G4",
          "midi": 67,
          "time": 54.79895833333315,
          "velocity": 0.41732283464566927,
          "duration": 0.4531249999999929
        },
        {
          "name": "C#2",
          "midi": 37,
          "time": 54.97291666666648,
          "velocity": 0.44881889763779526,
          "duration": 0.17395833333333144
        },
        {
          "name": "C#2",
          "midi": 37,
          "time": 55.14687499999981,
          "velocity": 0.49606299212598426,
          "duration": 0.23229166666666146
        },
        {
          "name": "A2",
          "midi": 45,
          "time": 55.20520833333314,
          "velocity": 0.6299212598425197,
          "duration": 0.13958333333333428
        },
        {
          "name": "E5",
          "midi": 76,
          "time": 55.25208333333314,
          "velocity": 0.4645669291338583,
          "duration": 0.22083333333333144
        },
        {
          "name": "A#4",
          "midi": 70,
          "time": 55.25208333333314,
          "velocity": 0.4566929133858268,
          "duration": 0.23229166666666146
        },
        {
          "name": "G4",
          "midi": 67,
          "time": 55.25208333333314,
          "velocity": 0.47244094488188976,
          "duration": 0.23229166666666146
        },
        {
          "name": "C#3",
          "midi": 49,
          "time": 55.356249999999804,
          "velocity": 0.5748031496062992,
          "duration": 0.3374999999999915
        },
        {
          "name": "A2",
          "midi": 45,
          "time": 55.356249999999804,
          "velocity": 0.5590551181102362,
          "duration": 0.18541666666666146
        },
        {
          "name": "E5",
          "midi": 76,
          "time": 55.471874999999805,
          "velocity": 0.5039370078740157,
          "duration": 0.16354166666666003
        },
        {
          "name": "A#4",
          "midi": 70,
          "time": 55.4843749999998,
          "velocity": 0.5433070866141733,
          "duration": 0.17499999999999716
        },
        {
          "name": "G4",
          "midi": 67,
          "time": 55.4843749999998,
          "velocity": 0.4881889763779528,
          "duration": 0.15208333333333002
        },
        {
          "name": "C#2",
          "midi": 37,
          "time": 55.588541666666465,
          "velocity": 0.44881889763779526,
          "duration": 0.12916666666666288
        },
        {
          "name": "F5",
          "midi": 77,
          "time": 55.693749999999795,
          "velocity": 0.5275590551181102,
          "duration": 0.1510416666666643
        },
        {
          "name": "C5",
          "midi": 72,
          "time": 55.693749999999795,
          "velocity": 0.3937007874015748,
          "duration": 0.2906249999999986
        },
        {
          "name": "A4",
          "midi": 69,
          "time": 55.693749999999795,
          "velocity": 0.44881889763779526,
          "duration": 0.3604166666666586
        },
        {
          "name": "D2",
          "midi": 38,
          "time": 55.787499999999795,
          "velocity": 0.5275590551181102,
          "duration": 0.27812499999998863
        },
        {
          "name": "F4",
          "midi": 65,
          "time": 56.042708333333124,
          "velocity": 0.4330708661417323,
          "duration": 0.23229166666665435
        },
        {
          "name": "A4",
          "midi": 69,
          "time": 56.054166666666454,
          "velocity": 0.4409448818897638,
          "duration": 0.22083333333332433
        },
        {
          "name": "D2",
          "midi": 38,
          "time": 56.065624999999784,
          "velocity": 0.5039370078740157,
          "duration": 0.19687499999999858
        },
        {
          "name": "A2",
          "midi": 45,
          "time": 56.15833333333312,
          "velocity": 0.7795275590551181,
          "duration": 0.13958333333332718
        },
        {
          "name": "D2",
          "midi": 38,
          "time": 56.26354166666645,
          "velocity": 0.3937007874015748,
          "duration": 0.24374999999999858
        },
        {
          "name": "A4",
          "midi": 69,
          "time": 56.27499999999978,
          "velocity": 0.4251968503937008,
          "duration": 0.18541666666666856
        },
        {
          "name": "F4",
          "midi": 65,
          "time": 56.27499999999978,
          "velocity": 0.48031496062992124,
          "duration": 0.33645833333333286
        },
        {
          "name": "D3",
          "midi": 50,
          "time": 56.27499999999978,
          "velocity": 0.6614173228346457,
          "duration": 0.2906249999999986
        },
        {
          "name": "A2",
          "midi": 45,
          "time": 56.297916666666445,
          "velocity": 0.5354330708661418,
          "duration": 0.2906249999999986
        },
        {
          "name": "G4",
          "midi": 67,
          "time": 56.494791666666444,
          "velocity": 0.4645669291338583,
          "duration": 0.3135416666666657
        },
        {
          "name": "D2",
          "midi": 38,
          "time": 56.50729166666645,
          "velocity": 0.4881889763779528,
          "duration": 0.22083333333333144
        },
        {
          "name": "F4",
          "midi": 65,
          "time": 56.61145833333311,
          "velocity": 0.4645669291338583,
          "duration": 0.5687500000000014
        },
        {
          "name": "D4",
          "midi": 62,
          "time": 56.61145833333311,
          "velocity": 0.4251968503937008,
          "duration": 0.44166666666667
        },
        {
          "name": "D3",
          "midi": 50,
          "time": 56.84374999999978,
          "velocity": 0.3858267716535433,
          "duration": 0.13958333333333428
        },
        {
          "name": "B1",
          "midi": 35,
          "time": 57.06458333333311,
          "velocity": 0.4015748031496063,
          "duration": 0.16250000000000142
        },
        {
          "name": "F4",
          "midi": 65,
          "time": 57.18020833333311,
          "velocity": 0.6141732283464567,
          "duration": 0.2666666666666657
        },
        {
          "name": "A2",
          "midi": 45,
          "time": 57.41249999999978,
          "velocity": 0.6535433070866141,
          "duration": 0.22187499999999716
        },
        {
          "name": "G4",
          "midi": 67,
          "time": 57.42395833333311,
          "velocity": 0.5669291338582677,
          "duration": 0.19895833333333712
        },
        {
          "name": "G#4",
          "midi": 68,
          "time": 57.63437499999978,
          "velocity": 0.44881889763779526,
          "duration": 0.3479166666666629
        },
        {
          "name": "D4",
          "midi": 62,
          "time": 57.63437499999978,
          "velocity": 0.5118110236220472,
          "duration": 0.22083333333333144
        },
        {
          "name": "A#3",
          "midi": 58,
          "time": 57.63437499999978,
          "velocity": 0.4330708661417323,
          "duration": 0.33645833333333286
        },
        {
          "name": "E2",
          "midi": 40,
          "time": 57.63437499999978,
          "velocity": 0.5511811023622047,
          "duration": 0.22083333333333144
        },
        {
          "name": "E2",
          "midi": 40,
          "time": 57.85520833333311,
          "velocity": 0.5826771653543307,
          "duration": 0.13958333333332718
        },
        {
          "name": "A#3",
          "midi": 58,
          "time": 57.97083333333311,
          "velocity": 0.4409448818897638,
          "duration": 0.17395833333332433
        },
        {
          "name": "A#2",
          "midi": 46,
          "time": 57.97083333333311,
          "velocity": 0.7874015748031497,
          "duration": 0.13958333333332718
        },
        {
          "name": "G#4",
          "midi": 68,
          "time": 57.98229166666644,
          "velocity": 0.5118110236220472,
          "duration": 0.33645833333331865
        },
        {
          "name": "D4",
          "midi": 62,
          "time": 57.98229166666644,
          "velocity": 0.41732283464566927,
          "duration": 0.24374999999999147
        },
        {
          "name": "E2",
          "midi": 40,
          "time": 57.99374999999977,
          "velocity": 0.4881889763779528,
          "duration": 0.32499999999998863
        },
        {
          "name": "E3",
          "midi": 52,
          "time": 58.08749999999977,
          "velocity": 0.5669291338582677,
          "duration": 0.27812499999998863
        },
        {
          "name": "A#2",
          "midi": 46,
          "time": 58.11041666666644,
          "velocity": 0.7086614173228346,
          "duration": 0.19687499999999147
        },
        {
          "name": "G#4",
          "midi": 68,
          "time": 58.319791666666426,
          "velocity": 0.5984251968503937,
          "duration": 0.23229166666666856
        },
        {
          "name": "E2",
          "midi": 40,
          "time": 58.319791666666426,
          "velocity": 0.5511811023622047,
          "duration": 0.20937500000000142
        },
        {
          "name": "C#4",
          "midi": 61,
          "time": 58.52812499999976,
          "velocity": 0.4094488188976378,
          "duration": 0.13958333333332718
        },
        {
          "name": "G3",
          "midi": 55,
          "time": 58.60937499999976,
          "velocity": 0.4409448818897638,
          "duration": 0.2906249999999915
        },
        {
          "name": "F4",
          "midi": 65,
          "time": 58.88854166666642,
          "velocity": 0.44881889763779526,
          "duration": 0.3718749999999815
        },
        {
          "name": "G3",
          "midi": 55,
          "time": 58.89999999999975,
          "velocity": 0.47244094488188976,
          "duration": 0.4531249999999858
        },
        {
          "name": "E2",
          "midi": 40,
          "time": 58.92291666666642,
          "velocity": 0.3779527559055118,
          "duration": 0.19687499999999147
        },
        {
          "name": "C#4",
          "midi": 61,
          "time": 59.051041666666414,
          "velocity": 0.28346456692913385,
          "duration": 0.17395833333332433
        },
        {
          "name": "A2",
          "midi": 45,
          "time": 59.062499999999744,
          "velocity": 0.6141732283464567,
          "duration": 0.3604166666666586
        },
        {
          "name": "C#4",
          "midi": 61,
          "time": 59.23645833333307,
          "velocity": 0.4645669291338583,
          "duration": 0.13958333333333428
        },
        {
          "name": "A3",
          "midi": 57,
          "time": 59.4572916666664,
          "velocity": 0.36220472440944884,
          "duration": 0.22187499999999005
        },
        {
          "name": "F3",
          "midi": 53,
          "time": 59.4572916666664,
          "velocity": 0.5748031496062992,
          "duration": 0.22187499999999005
        },
        {
          "name": "D4",
          "midi": 62,
          "time": 59.46874999999973,
          "velocity": 0.3228346456692913,
          "duration": 0.2447916666666572
        },
        {
          "name": "D2",
          "midi": 38,
          "time": 59.50312499999973,
          "velocity": 0.5039370078740157,
          "duration": 0.16354166666666714
        },
        {
          "name": "D2",
          "midi": 38,
          "time": 59.66770833333306,
          "velocity": 0.41732283464566927,
          "duration": 0.23229166666666146
        },
        {
          "name": "A3",
          "midi": 57,
          "time": 59.67916666666639,
          "velocity": 0.4881889763779528,
          "duration": 0.23229166666666146
        },
        {
          "name": "F3",
          "midi": 53,
          "time": 59.67916666666639,
          "velocity": 0.6141732283464567,
          "duration": 0.23229166666666146
        },
        {
          "name": "D3",
          "midi": 50,
          "time": 59.67916666666639,
          "velocity": 0.6220472440944882,
          "duration": 0.22083333333333144
        },
        {
          "name": "D2",
          "midi": 38,
          "time": 59.89999999999972,
          "velocity": 0.5433070866141733,
          "duration": 0.18541666666666146
        },
        {
          "name": "A3",
          "midi": 57,
          "time": 59.91145833333305,
          "velocity": 0.3858267716535433,
          "duration": 0.13958333333333428
        },
        {
          "name": "F3",
          "midi": 53,
          "time": 59.91145833333305,
          "velocity": 0.5826771653543307,
          "duration": 0.18541666666666146
        },
        {
          "name": "E3",
          "midi": 52,
          "time": 60.09687499999971,
          "velocity": 0.5433070866141733,
          "duration": 0.13958333333333428
        },
        {
          "name": "F3",
          "midi": 53,
          "time": 60.24791666666638,
          "velocity": 0.4566929133858268,
          "duration": 0.2552083333333286
        },
        {
          "name": "D3",
          "midi": 50,
          "time": 60.24791666666638,
          "velocity": 0.5039370078740157,
          "duration": 0.3020833333333286
        },
        {
          "name": "D2",
          "midi": 38,
          "time": 60.25937499999971,
          "velocity": 0.5433070866141733,
          "duration": 0.2906249999999986
        },
        {
          "name": "G5",
          "midi": 79,
          "time": 60.5843749999997,
          "velocity": 0.4566929133858268,
          "duration": 0.23229166666666856
        },
        {
          "name": "E5",
          "midi": 76,
          "time": 60.5843749999997,
          "velocity": 0.44881889763779526,
          "duration": 0.20937500000000142
        },
        {
          "name": "A2",
          "midi": 45,
          "time": 60.5843749999997,
          "velocity": 0.7795275590551181,
          "duration": 0.23229166666666856
        },
        {
          "name": "E3",
          "midi": 52,
          "time": 60.72395833333304,
          "velocity": 0.3858267716535433,
          "duration": 0.3020833333333357
        },
        {
          "name": "A2",
          "midi": 45,
          "time": 60.81666666666637,
          "velocity": 0.6535433070866141,
          "duration": 0.4989583333333272
        },
        {
          "name": "E3",
          "midi": 52,
          "time": 61.02604166666637,
          "velocity": 0.48031496062992124,
          "duration": 0.2552083333333286
        },
        {
          "name": "D6",
          "midi": 86,
          "time": 61.26979166666637,
          "velocity": 0.4566929133858268,
          "duration": 0.20937499999999432
        },
        {
          "name": "A5",
          "midi": 81,
          "time": 61.26979166666637,
          "velocity": 0.41732283464566927,
          "duration": 0.17395833333332433
        },
        {
          "name": "F5",
          "midi": 77,
          "time": 61.26979166666637,
          "velocity": 0.4566929133858268,
          "duration": 0.17395833333332433
        },
        {
          "name": "F3",
          "midi": 53,
          "time": 61.2812499999997,
          "velocity": 0.4645669291338583,
          "duration": 0.31458333333332433
        },
        {
          "name": "A#2",
          "midi": 46,
          "time": 61.3156249999997,
          "velocity": 0.5826771653543307,
          "duration": 0.2666666666666657
        },
        {
          "name": "D5",
          "midi": 74,
          "time": 61.50208333333303,
          "velocity": 0.5196850393700787,
          "duration": 0.22187499999999005
        },
        {
          "name": "A#2",
          "midi": 46,
          "time": 61.584374999999696,
          "velocity": 0.7086614173228346,
          "duration": 0.13958333333332718
        },
        {
          "name": "F3",
          "midi": 53,
          "time": 61.595833333333026,
          "velocity": 0.5826771653543307,
          "duration": 0.3604166666666657
        },
        {
          "name": "A4",
          "midi": 69,
          "time": 61.607291666666356,
          "velocity": 0.30708661417322836,
          "duration": 0.2552083333333357
        },
        {
          "name": "D5",
          "midi": 74,
          "time": 61.72395833333302,
          "velocity": 0.5118110236220472,
          "duration": 0.22083333333333854
        },
        {
          "name": "A#3",
          "midi": 58,
          "time": 61.72395833333302,
          "velocity": 0.3937007874015748,
          "duration": 0.17395833333333854
        },
        {
          "name": "A#2",
          "midi": 46,
          "time": 61.72395833333302,
          "velocity": 0.7086614173228346,
          "duration": 0.23229166666666856
        },
        {
          "name": "D5",
          "midi": 74,
          "time": 61.943749999999696,
          "velocity": 0.4881889763779528,
          "duration": 0.18541666666666146
        },
        {
          "name": "F3",
          "midi": 53,
          "time": 61.95624999999969,
          "velocity": 0.4645669291338583,
          "duration": 0.24374999999999858
        },
        {
          "name": "A#2",
          "midi": 46,
          "time": 61.95624999999969,
          "velocity": 0.6456692913385826,
          "duration": 0.3479166666666629
        },
        {
          "name": "C#2",
          "midi": 37,
          "time": 62.16458333333303,
          "velocity": 0.49606299212598426,
          "duration": 0.22083333333332433
        },
        {
          "name": "E5",
          "midi": 76,
          "time": 62.17604166666636,
          "velocity": 0.49606299212598426,
          "duration": 0.23229166666665435
        },
        {
          "name": "C#5",
          "midi": 73,
          "time": 62.17604166666636,
          "velocity": 0.5039370078740157,
          "duration": 0.22083333333332433
        },
        {
          "name": "G4",
          "midi": 67,
          "time": 62.17604166666636,
          "velocity": 0.4645669291338583,
          "duration": 0.3604166666666444
        },
        {
          "name": "C#2",
          "midi": 37,
          "time": 62.38541666666635,
          "velocity": 0.4330708661417323,
          "duration": 0.4760416666666458
        },
        {
          "name": "C#3",
          "midi": 49,
          "time": 62.40833333333301,
          "velocity": 0.5984251968503937,
          "duration": 0.4531249999999858
        },
        {
          "name": "A3",
          "midi": 57,
          "time": 62.51354166666634,
          "velocity": 0.41732283464566927,
          "duration": 0.33645833333332575
        },
        {
          "name": "F5",
          "midi": 77,
          "time": 62.52499999999967,
          "velocity": 0.36220472440944884,
          "duration": 0.33645833333332575
        },
        {
          "name": "G4",
          "midi": 67,
          "time": 62.536458333333,
          "velocity": 0.4409448818897638,
          "duration": 0.2552083333333357
        },
        {
          "name": "F5",
          "midi": 77,
          "time": 62.861458333333,
          "velocity": 0.49606299212598426,
          "duration": 0.24374999999999147
        },
        {
          "name": "C#3",
          "midi": 49,
          "time": 62.861458333333,
          "velocity": 0.6456692913385826,
          "duration": 0.39479166666665577
        },
        {
          "name": "C#2",
          "midi": 37,
          "time": 62.861458333333,
          "velocity": 0.3464566929133858,
          "duration": 0.16249999999999432
        },
        {
          "name": "C5",
          "midi": 72,
          "time": 62.87291666666633,
          "velocity": 0.3779527559055118,
          "duration": 0.16249999999999432
        },
        {
          "name": "D2",
          "midi": 38,
          "time": 63.10520833333299,
          "velocity": 0.5905511811023622,
          "duration": 0.3020833333333215
        },
        {
          "name": "F5",
          "midi": 77,
          "time": 63.29062499999965,
          "velocity": 0.5039370078740157,
          "duration": 0.13958333333332718
        },
        {
          "name": "C5",
          "midi": 72,
          "time": 63.31458333333298,
          "velocity": 0.3937007874015748,
          "duration": 0.3031249999999943
        },
        {
          "name": "D3",
          "midi": 50,
          "time": 63.32604166666631,
          "velocity": 0.5826771653543307,
          "duration": 0.4427083333333286
        },
        {
          "name": "D2",
          "midi": 38,
          "time": 63.40729166666631,
          "velocity": 0.5196850393700787,
          "duration": 0.5354166666666629
        },
        {
          "name": "A3",
          "midi": 57,
          "time": 63.44166666666631,
          "velocity": 0.44881889763779526,
          "duration": 0.32604166666666856
        },
        {
          "name": "F5",
          "midi": 77,
          "time": 63.756249999999646,
          "velocity": 0.5118110236220472,
          "duration": 0.19687499999999147
        },
        {
          "name": "D3",
          "midi": 50,
          "time": 63.76874999999964,
          "velocity": 0.5905511811023622,
          "duration": 0.42916666666666003
        },
        {
          "name": "C2",
          "midi": 36,
          "time": 63.98854166666631,
          "velocity": 0.4409448818897638,
          "duration": 0.2552083333333286
        },
        {
          "name": "C5",
          "midi": 72,
          "time": 63.99999999999964,
          "velocity": 0.30708661417322836,
          "duration": 0.1510416666666643
        },
        {
          "name": "C3",
          "midi": 48,
          "time": 63.99999999999964,
          "velocity": 0.44881889763779526,
          "duration": 0.23229166666666146
        },
        {
          "name": "C#3",
          "midi": 49,
          "time": 64.33749999999964,
          "velocity": 0.5275590551181102,
          "duration": 0.23229166666666856
        },
        {
          "name": "C#2",
          "midi": 37,
          "time": 64.33749999999964,
          "velocity": 0.5354330708661418,
          "duration": 0.24375000000000568
        },
        {
          "name": "G5",
          "midi": 79,
          "time": 64.34895833333297,
          "velocity": 0.48031496062992124,
          "duration": 0.1510416666666714
        },
        {
          "name": "F5",
          "midi": 77,
          "time": 64.5697916666663,
          "velocity": 0.5433070866141733,
          "duration": 0.24375000000000568
        },
        {
          "name": "D3",
          "midi": 50,
          "time": 64.68541666666631,
          "velocity": 0.5354330708661418,
          "duration": 0.20937499999999432
        },
        {
          "name": "D2",
          "midi": 38,
          "time": 64.68541666666631,
          "velocity": 0.5748031496062992,
          "duration": 0.22083333333333144
        },
        {
          "name": "A#4",
          "midi": 70,
          "time": 64.90624999999964,
          "velocity": 0.49606299212598426,
          "duration": 0.24375000000000568
        },
        {
          "name": "E2",
          "midi": 40,
          "time": 64.90624999999964,
          "velocity": 0.5748031496062992,
          "duration": 0.8604166666666657
        },
        {
          "name": "E3",
          "midi": 52,
          "time": 65.13854166666631,
          "velocity": 0.4409448818897638,
          "duration": 0.23229166666666856
        },
        {
          "name": "A#3",
          "midi": 58,
          "time": 65.19583333333298,
          "velocity": 0.6062992125984252,
          "duration": 0.16249999999999432
        },
        {
          "name": "D5",
          "midi": 74,
          "time": 65.35833333333298,
          "velocity": 0.49606299212598426,
          "duration": 0.2447916666666714
        },
        {
          "name": "A#3",
          "midi": 58,
          "time": 65.37083333333298,
          "velocity": 0.44881889763779526,
          "duration": 0.5
        },
        {
          "name": "E3",
          "midi": 52,
          "time": 65.37083333333298,
          "velocity": 0.44881889763779526,
          "duration": 0.19895833333333712
        },
        {
          "name": "E3",
          "midi": 52,
          "time": 65.56874999999965,
          "velocity": 0.5433070866141733,
          "duration": 0.4177083333333371
        },
        {
          "name": "F5",
          "midi": 77,
          "time": 65.81249999999964,
          "velocity": 0.4566929133858268,
          "duration": 0.3479166666666913
        },
        {
          "name": "C#5",
          "midi": 73,
          "time": 65.81249999999964,
          "velocity": 0.4330708661417323,
          "duration": 0.26666666666667993
        },
        {
          "name": "G4",
          "midi": 67,
          "time": 65.81249999999964,
          "velocity": 0.5590551181102362,
          "duration": 0.2906250000000199
        },
        {
          "name": "A2",
          "midi": 45,
          "time": 65.81249999999964,
          "velocity": 0.49606299212598426,
          "duration": 0.24375000000000568
        },
        {
          "name": "A1",
          "midi": 33,
          "time": 65.92916666666632,
          "velocity": 0.33858267716535434,
          "duration": 0.13958333333333428
        },
        {
          "name": "A2",
          "midi": 45,
          "time": 66.05624999999965,
          "velocity": 0.7086614173228346,
          "duration": 0.22083333333335986
        },
        {
          "name": "D5",
          "midi": 74,
          "time": 66.14999999999966,
          "velocity": 0.4409448818897638,
          "duration": 0.2552083333333428
        },
        {
          "name": "E3",
          "midi": 52,
          "time": 66.161458333333,
          "velocity": 0.5433070866141733,
          "duration": 0.33645833333332575
        },
        {
          "name": "A3",
          "midi": 57,
          "time": 66.26562499999967,
          "velocity": 0.3543307086614173,
          "duration": 0.16249999999999432
        },
        {
          "name": "A2",
          "midi": 45,
          "time": 66.27708333333301,
          "velocity": 0.6141732283464567,
          "duration": 0.22083333333331723
        },
        {
          "name": "G4",
          "midi": 67,
          "time": 66.49791666666633,
          "velocity": 0.5118110236220472,
          "duration": 0.40625
        },
        {
          "name": "E3",
          "midi": 52,
          "time": 66.49791666666633,
          "velocity": 0.44881889763779526,
          "duration": 0.32500000000000284
        },
        {
          "name": "A2",
          "midi": 45,
          "time": 66.49791666666633,
          "velocity": 0.6377952755905512,
          "duration": 0.38333333333333997
        },
        {
          "name": "C5",
          "midi": 72,
          "time": 66.50937499999966,
          "velocity": 0.3858267716535433,
          "duration": 0.37187500000000284
        },
        {
          "name": "D2",
          "midi": 38,
          "time": 66.78854166666633,
          "velocity": 0.5039370078740157,
          "duration": 0.24374999999999147
        },
        {
          "name": "D3",
          "midi": 50,
          "time": 66.95104166666633,
          "velocity": 0.5984251968503937,
          "duration": 0.4645833333333371
        },
        {
          "name": "D2",
          "midi": 38,
          "time": 67.03229166666632,
          "velocity": 0.4881889763779528,
          "duration": 0.38333333333333997
        },
        {
          "name": "A3",
          "midi": 57,
          "time": 67.07812499999966,
          "velocity": 0.4094488188976378,
          "duration": 0.33645833333333997
        },
        {
          "name": "D4",
          "midi": 62,
          "time": 67.136458333333,
          "velocity": 0.3937007874015748,
          "duration": 0.22083333333333144
        },
        {
          "name": "A5",
          "midi": 81,
          "time": 67.414583333333,
          "velocity": 0.3700787401574803,
          "duration": 0.21041666666667425
        },
        {
          "name": "A4",
          "midi": 69,
          "time": 67.414583333333,
          "velocity": 0.4015748031496063,
          "duration": 0.2333333333333485
        },
        {
          "name": "A3",
          "midi": 57,
          "time": 67.414583333333,
          "velocity": 0.30708661417322836,
          "duration": 0.17499999999999716
        },
        {
          "name": "D3",
          "midi": 50,
          "time": 67.414583333333,
          "velocity": 0.6456692913385826,
          "duration": 0.22187500000001137
        },
        {
          "name": "D2",
          "midi": 38,
          "time": 67.414583333333,
          "velocity": 0.4645669291338583,
          "duration": 0.19895833333333712
        },
        {
          "name": "C#2",
          "midi": 37,
          "time": 67.61354166666634,
          "velocity": 0.4251968503937008,
          "duration": 0.2552083333333428
        },
        {
          "name": "A5",
          "midi": 81,
          "time": 67.62499999999967,
          "velocity": 0.3937007874015748,
          "duration": 0.33645833333333997
        },
        {
          "name": "D3",
          "midi": 50,
          "time": 67.63645833333301,
          "velocity": 0.4566929133858268,
          "duration": 0.24375000000000568
        },
        {
          "name": "A4",
          "midi": 69,
          "time": 67.64895833333301,
          "velocity": 0.3543307086614173,
          "duration": 0.13958333333333428
        },
        {
          "name": "B1",
          "midi": 35,
          "time": 67.94999999999968,
          "velocity": 0.47244094488188976,
          "duration": 0.2552083333333428
        },
        {
          "name": "D5",
          "midi": 74,
          "time": 68.31041666666636,
          "velocity": 0.4409448818897638,
          "duration": 0.23229166666666856
        },
        {
          "name": "A2",
          "midi": 45,
          "time": 68.35624999999969,
          "velocity": 0.6299212598425197,
          "duration": 0.20937499999999432
        },
        {
          "name": "A#1",
          "midi": 34,
          "time": 68.56562499999968,
          "velocity": 0.4251968503937008,
          "duration": 0.20937500000000853
        },
        {
          "name": "A#2",
          "midi": 46,
          "time": 68.57708333333302,
          "velocity": 0.3700787401574803,
          "duration": 0.18541666666666856
        },
        {
          "name": "A#2",
          "midi": 46,
          "time": 68.76354166666636,
          "velocity": 0.6929133858267716,
          "duration": 0.13958333333333428
        },
        {
          "name": "F3",
          "midi": 53,
          "time": 68.87916666666636,
          "velocity": 0.5433070866141733,
          "duration": 0.3479166666666629
        },
        {
          "name": "A#2",
          "midi": 46,
          "time": 68.90208333333302,
          "velocity": 0.6692913385826772,
          "duration": 0.20937500000000853
        },
        {
          "name": "D6",
          "midi": 86,
          "time": 68.99479166666636,
          "velocity": 0.4251968503937008,
          "duration": 0.42916666666667425
        },
        {
          "name": "A#3",
          "midi": 58,
          "time": 69.00729166666636,
          "velocity": 0.5275590551181102,
          "duration": 0.3604166666666657
        },
        {
          "name": "F5",
          "midi": 77,
          "time": 69.11145833333303,
          "velocity": 0.2755905511811024,
          "duration": 0.1510416666666572
        },
        {
          "name": "A#2",
          "midi": 46,
          "time": 69.11145833333303,
          "velocity": 0.7007874015748031,
          "duration": 0.17395833333331723
        },
        {
          "name": "F3",
          "midi": 53,
          "time": 69.22708333333303,
          "velocity": 0.4330708661417323,
          "duration": 0.2906250000000057
        },
        {
          "name": "A#2",
          "midi": 46,
          "time": 69.28541666666635,
          "velocity": 0.6850393700787402,
          "duration": 0.35000000000002274
        },
        {
          "name": "E6",
          "midi": 88,
          "time": 69.34374999999969,
          "velocity": 0.41732283464566927,
          "duration": 0.25625000000002274
        },
        {
          "name": "C#2",
          "midi": 37,
          "time": 69.52916666666637,
          "velocity": 0.6299212598425197,
          "duration": 0.12916666666666288
        },
        {
          "name": "C#2",
          "midi": 37,
          "time": 69.65833333333303,
          "velocity": 0.44881889763779526,
          "duration": 0.48750000000001137
        },
        {
          "name": "C#3",
          "midi": 49,
          "time": 69.66979166666637,
          "velocity": 0.5590551181102362,
          "duration": 0.23229166666665435
        },
        {
          "name": "A3",
          "midi": 57,
          "time": 69.78645833333303,
          "velocity": 0.4409448818897638,
          "duration": 0.17395833333333144
        },
        {
          "name": "E6",
          "midi": 88,
          "time": 69.90208333333302,
          "velocity": 0.3464566929133858,
          "duration": 0.23229166666668277
        },
        {
          "name": "A#5",
          "midi": 82,
          "time": 69.90208333333302,
          "velocity": 0.4409448818897638,
          "duration": 0.22083333333334565
        },
        {
          "name": "G5",
          "midi": 79,
          "time": 69.90208333333302,
          "velocity": 0.5511811023622047,
          "duration": 0.23229166666668277
        },
        {
          "name": "C#3",
          "midi": 49,
          "time": 69.90208333333302,
          "velocity": 0.5275590551181102,
          "duration": 0.23229166666668277
        },
        {
          "name": "A2",
          "midi": 45,
          "time": 70.0187499999997,
          "velocity": 0.36220472440944884,
          "duration": 0.46458333333335133
        },
        {
          "name": "A#5",
          "midi": 82,
          "time": 70.12291666666637,
          "velocity": 0.3779527559055118,
          "duration": 0.16250000000000853
        },
        {
          "name": "E6",
          "midi": 88,
          "time": 70.13437499999971,
          "velocity": 0.4330708661417323,
          "duration": 0.20937500000000853
        },
        {
          "name": "G5",
          "midi": 79,
          "time": 70.13437499999971,
          "velocity": 0.48031496062992124,
          "duration": 0.20937500000000853
        },
        {
          "name": "C#3",
          "midi": 49,
          "time": 70.13437499999971,
          "velocity": 0.5984251968503937,
          "duration": 0.38333333333333997
        },
        {
          "name": "C#2",
          "midi": 37,
          "time": 70.14583333333304,
          "velocity": 0.41732283464566927,
          "duration": 0.13958333333333428
        },
        {
          "name": "D2",
          "midi": 38,
          "time": 70.44791666666639,
          "velocity": 0.5354330708661418,
          "duration": 0.23229166666665435
        },
        {
          "name": "A5",
          "midi": 81,
          "time": 70.58749999999971,
          "velocity": 0.3464566929133858,
          "duration": 0.3020833333333144
        },
        {
          "name": "F5",
          "midi": 77,
          "time": 70.58749999999971,
          "velocity": 0.4251968503937008,
          "duration": 0.23229166666665435
        },
        {
          "name": "D3",
          "midi": 50,
          "time": 70.58749999999971,
          "velocity": 0.6377952755905512,
          "duration": 0.23229166666665435
        },
        {
          "name": "D2",
          "midi": 38,
          "time": 70.68020833333304,
          "velocity": 0.48031496062992124,
          "duration": 0.5229166666666458
        },
        {
          "name": "A3",
          "midi": 57,
          "time": 70.7031249999997,
          "velocity": 0.4645669291338583,
          "duration": 0.33645833333331154
        },
        {
          "name": "F5",
          "midi": 77,
          "time": 70.81979166666636,
          "velocity": 0.3937007874015748,
          "duration": 0.33645833333332575
        },
        {
          "name": "D4",
          "midi": 62,
          "time": 70.81979166666636,
          "velocity": 0.3858267716535433,
          "duration": 0.1510416666666572
        },
        {
          "name": "D3",
          "midi": 50,
          "time": 70.81979166666636,
          "velocity": 0.6062992125984252,
          "duration": 0.23229166666665435
        },
        {
          "name": "A3",
          "midi": 57,
          "time": 71.03958333333301,
          "velocity": 0.4330708661417323,
          "duration": 0.20937500000000853
        },
        {
          "name": "D3",
          "midi": 50,
          "time": 71.05104166666635,
          "velocity": 0.5590551181102362,
          "duration": 0.4999999999999858
        },
        {
          "name": "F5",
          "midi": 77,
          "time": 71.15624999999969,
          "velocity": 0.47244094488188976,
          "duration": 0.16249999999999432
        },
        {
          "name": "D5",
          "midi": 74,
          "time": 71.15624999999969,
          "velocity": 0.48031496062992124,
          "duration": 0.1510416666666572
        },
        {
          "name": "C3",
          "midi": 48,
          "time": 71.27187499999968,
          "velocity": 0.4251968503937008,
          "duration": 0.22083333333333144
        },
        {
          "name": "C2",
          "midi": 36,
          "time": 71.27187499999968,
          "velocity": 0.44881889763779526,
          "duration": 0.24374999999999147
        },
        {
          "name": "B1",
          "midi": 35,
          "time": 71.61041666666634,
          "velocity": 0.4015748031496063,
          "duration": 0.19687500000000568
        },
        {
          "name": "F5",
          "midi": 77,
          "time": 71.71458333333301,
          "velocity": 0.5984251968503937,
          "duration": 0.23229166666666856
        },
        {
          "name": "G5",
          "midi": 79,
          "time": 71.94687499999968,
          "velocity": 0.47244094488188976,
          "duration": 0.1510416666666714
        },
        {
          "name": "A2",
          "midi": 45,
          "time": 71.94687499999968,
          "velocity": 0.6614173228346457,
          "duration": 0.2666666666666657
        },
        {
          "name": "D5",
          "midi": 74,
          "time": 72.17916666666635,
          "velocity": 0.3937007874015748,
          "duration": 0.3479166666666771
        },
        {
          "name": "A#4",
          "midi": 70,
          "time": 72.19062499999968,
          "velocity": 0.48031496062992124,
          "duration": 0.22083333333333144
        },
        {
          "name": "E2",
          "midi": 40,
          "time": 72.19062499999968,
          "velocity": 0.5590551181102362,
          "duration": 0.8822916666666742
        },
        {
          "name": "E3",
          "midi": 52,
          "time": 72.41145833333302,
          "velocity": 0.4251968503937008,
          "duration": 0.23229166666666856
        },
        {
          "name": "G#5",
          "midi": 80,
          "time": 72.51562499999969,
          "velocity": 0.3464566929133858,
          "duration": 0.16249999999999432
        },
        {
          "name": "A#3",
          "midi": 58,
          "time": 72.51562499999969,
          "velocity": 0.4645669291338583,
          "duration": 0.5229166666666742
        },
        {
          "name": "D5",
          "midi": 74,
          "time": 72.52708333333302,
          "velocity": 0.47244094488188976,
          "duration": 0.2552083333333286
        },
        {
          "name": "A#2",
          "midi": 46,
          "time": 72.60833333333302,
          "velocity": 0.4094488188976378,
          "duration": 0.22083333333333144
        },
        {
          "name": "E3",
          "midi": 52,
          "time": 72.64374999999968,
          "velocity": 0.5590551181102362,
          "duration": 0.23229166666666856
        },
        {
          "name": "E3",
          "midi": 52,
          "time": 72.87604166666635,
          "velocity": 0.47244094488188976,
          "duration": 0.5572916666666714
        },
        {
          "name": "G#5",
          "midi": 80,
          "time": 72.88749999999969,
          "velocity": 0.4645669291338583,
          "duration": 0.17395833333333144
        },
        {
          "name": "C#5",
          "midi": 73,
          "time": 73.0843749999997,
          "velocity": 0.4251968503937008,
          "duration": 0.3479166666666629
        },
        {
          "name": "A2",
          "midi": 45,
          "time": 73.0843749999997,
          "velocity": 0.5039370078740157,
          "duration": 0.22083333333333144
        },
        {
          "name": "G4",
          "midi": 67,
          "time": 73.09583333333303,
          "velocity": 0.5590551181102362,
          "duration": 0.33645833333332575
        },
        {
          "name": "A2",
          "midi": 45,
          "time": 73.30520833333303,
          "velocity": 0.7637795275590551,
          "duration": 0.23333333333333428
        },
        {
          "name": "C#5",
          "midi": 73,
          "time": 73.43333333333302,
          "velocity": 0.36220472440944884,
          "duration": 0.32604166666666856
        },
        {
          "name": "G4",
          "midi": 67,
          "time": 73.43333333333302,
          "velocity": 0.44881889763779526,
          "duration": 0.2916666666666714
        },
        {
          "name": "E3",
          "midi": 52,
          "time": 73.43333333333302,
          "velocity": 0.5433070866141733,
          "duration": 0.5354166666666629
        },
        {
          "name": "A3",
          "midi": 57,
          "time": 73.52708333333302,
          "velocity": 0.33858267716535434,
          "duration": 0.13958333333333428
        },
        {
          "name": "A2",
          "midi": 45,
          "time": 73.53854166666636,
          "velocity": 0.6771653543307087,
          "duration": 0.2666666666666657
        },
        {
          "name": "C#5",
          "midi": 73,
          "time": 73.7593749999997,
          "velocity": 0.48031496062992124,
          "duration": 0.20937499999999432
        },
        {
          "name": "A2",
          "midi": 45,
          "time": 73.80520833333303,
          "velocity": 0.7716535433070866,
          "duration": 0.19687499999999147
        },
        {
          "name": "D5",
          "midi": 74,
          "time": 73.99166666666635,
          "velocity": 0.44881889763779526,
          "duration": 0.3020833333333428
        },
        {
          "name": "F4",
          "midi": 65,
          "time": 74.00312499999968,
          "velocity": 0.4094488188976378,
          "duration": 0.23229166666666856
        },
        {
          "name": "D3",
          "midi": 50,
          "time": 74.00312499999968,
          "velocity": 0.3858267716535433,
          "duration": 0.22083333333333144
        },
        {
          "name": "A2",
          "midi": 45,
          "time": 74.00312499999968,
          "velocity": 0.5039370078740157,
          "duration": 0.1510416666666714
        },
        {
          "name": "A4",
          "midi": 69,
          "time": 74.22395833333302,
          "velocity": 0.33070866141732286,
          "duration": 0.23229166666666856
        },
        {
          "name": "D3",
          "midi": 50,
          "time": 74.22395833333302,
          "velocity": 0.6535433070866141,
          "duration": 0.23229166666666856
        },
        {
          "name": "F4",
          "midi": 65,
          "time": 74.23541666666635,
          "velocity": 0.5905511811023622,
          "duration": 0.22083333333333144
        },
        {
          "name": "D5",
          "midi": 74,
          "time": 74.45624999999968,
          "velocity": 0.4409448818897638,
          "duration": 0.17395833333333144
        },
        {
          "name": "A4",
          "midi": 69,
          "time": 74.45624999999968,
          "velocity": 0.49606299212598426,
          "duration": 0.19687500000000568
        },
        {
          "name": "F4",
          "midi": 65,
          "time": 74.45624999999968,
          "velocity": 0.49606299212598426,
          "duration": 0.17395833333333144
        },
        {
          "name": "D3",
          "midi": 50,
          "time": 74.45624999999968,
          "velocity": 0.31496062992125984,
          "duration": 0.13958333333333428
        },
        {
          "name": "D2",
          "midi": 38,
          "time": 74.45624999999968,
          "velocity": 0.5039370078740157,
          "duration": 0.18541666666666856
        },
        {
          "name": "F4",
          "midi": 65,
          "time": 74.79270833333302,
          "velocity": 0.4566929133858268,
          "duration": 0.5343749999999972
        },
        {
          "name": "D3",
          "midi": 50,
          "time": 74.79270833333302,
          "velocity": 0.4645669291338583,
          "duration": 0.9645833333333371
        },
        {
          "name": "D2",
          "midi": 38,
          "time": 74.87395833333302,
          "velocity": 0.5748031496062992,
          "duration": 0.9416666666666771
        },
        {
          "name": "D2",
          "midi": 38,
          "time": 75.8156249999997,
          "velocity": 0.49606299212598426,
          "duration": 0.19687500000000568
        },
        {
          "name": "A2",
          "midi": 45,
          "time": 76.11770833333304,
          "velocity": 0.4015748031496063,
          "duration": 0.36041666666667993
        },
        {
          "name": "D4",
          "midi": 62,
          "time": 76.16354166666638,
          "velocity": 0.3464566929133858,
          "duration": 0.33645833333333997
        },
        {
          "name": "D2",
          "midi": 38,
          "time": 76.16354166666638,
          "velocity": 0.3937007874015748,
          "duration": 0.2552083333333428
        },
        {
          "name": "D3",
          "midi": 50,
          "time": 76.17499999999971,
          "velocity": 0.30708661417322836,
          "duration": 0.1510416666666714
        },
        {
          "name": "D4",
          "midi": 62,
          "time": 76.49999999999972,
          "velocity": 0.3700787401574803,
          "duration": 0.33645833333332575
        },
        {
          "name": "A#2",
          "midi": 46,
          "time": 76.61666666666638,
          "velocity": 0.3937007874015748,
          "duration": 0.13958333333333428
        },
        {
          "name": "D4",
          "midi": 62,
          "time": 76.83749999999971,
          "velocity": 0.5433070866141733,
          "duration": 0.23229166666666856
        },
        {
          "name": "C#4",
          "midi": 61,
          "time": 77.06979166666638,
          "velocity": 0.49606299212598426,
          "duration": 0.17395833333331723
        },
        {
          "name": "D3",
          "midi": 50,
          "time": 77.09270833333304,
          "velocity": 0.3543307086614173,
          "duration": 0.3958333333333286
        },
        {
          "name": "A2",
          "midi": 45,
          "time": 77.09270833333304,
          "velocity": 0.44881889763779526,
          "duration": 0.32499999999998863
        },
        {
          "name": "D2",
          "midi": 38,
          "time": 77.1624999999997,
          "velocity": 0.5118110236220472,
          "duration": 0.24374999999999147
        },
        {
          "name": "D4",
          "midi": 62,
          "time": 77.2437499999997,
          "velocity": 0.4094488188976378,
          "duration": 0.26874999999999716
        },
        {
          "name": "D#2",
          "midi": 39,
          "time": 77.40624999999969,
          "velocity": 0.49606299212598426,
          "duration": 0.23333333333333428
        },
        {
          "name": "A#2",
          "midi": 46,
          "time": 77.41770833333302,
          "velocity": 0.36220472440944884,
          "duration": 0.3031249999999943
        },
        {
          "name": "D4",
          "midi": 62,
          "time": 77.51145833333302,
          "velocity": 0.4330708661417323,
          "duration": 0.3479166666666629
        },
        {
          "name": "D2",
          "midi": 38,
          "time": 77.63958333333302,
          "velocity": 0.4409448818897638,
          "duration": 0.33645833333332575
        },
        {
          "name": "D3",
          "midi": 50,
          "time": 77.68645833333302,
          "velocity": 0.4015748031496063,
          "duration": 0.2906249999999915
        },
        {
          "name": "A2",
          "midi": 45,
          "time": 77.73229166666636,
          "velocity": 0.48031496062992124,
          "duration": 0.24374999999999147
        },
        {
          "name": "D4",
          "midi": 62,
          "time": 77.86041666666635,
          "velocity": 0.4251968503937008,
          "duration": 0.3479166666666629
        },
        {
          "name": "D3",
          "midi": 50,
          "time": 77.97604166666635,
          "velocity": 0.36220472440944884,
          "duration": 0.2906250000000057
        },
        {
          "name": "A2",
          "midi": 45,
          "time": 77.97604166666635,
          "velocity": 0.41732283464566927,
          "duration": 0.33645833333333997
        },
        {
          "name": "D2",
          "midi": 38,
          "time": 77.97604166666635,
          "velocity": 0.4645669291338583,
          "duration": 0.32500000000000284
        },
        {
          "name": "D4",
          "midi": 62,
          "time": 78.20833333333302,
          "velocity": 0.44881889763779526,
          "duration": 0.17395833333333144
        },
        {
          "name": "D#2",
          "midi": 39,
          "time": 78.30104166666635,
          "velocity": 0.33858267716535434,
          "duration": 0.2666666666666657
        },
        {
          "name": "A#2",
          "midi": 46,
          "time": 78.31249999999969,
          "velocity": 0.3700787401574803,
          "duration": 0.2906249999999915
        },
        {
          "name": "C#4",
          "midi": 61,
          "time": 78.39374999999968,
          "velocity": 0.5748031496062992,
          "duration": 0.13958333333333428
        },
        {
          "name": "D4",
          "midi": 62,
          "time": 78.54479166666636,
          "velocity": 0.48031496062992124,
          "duration": 0.3479166666666629
        },
        {
          "name": "D2",
          "midi": 38,
          "time": 78.56874999999968,
          "velocity": 0.4094488188976378,
          "duration": 0.32500000000000284
        },
        {
          "name": "A2",
          "midi": 45,
          "time": 78.60312499999968,
          "velocity": 0.41732283464566927,
          "duration": 0.2906250000000057
        },
        {
          "name": "D3",
          "midi": 50,
          "time": 78.61458333333302,
          "velocity": 0.3937007874015748,
          "duration": 0.1510416666666714
        },
        {
          "name": "D4",
          "midi": 62,
          "time": 78.89374999999968,
          "velocity": 0.5590551181102362,
          "duration": 0.23229166666666856
        },
        {
          "name": "D2",
          "midi": 38,
          "time": 78.89374999999968,
          "velocity": 0.4409448818897638,
          "duration": 0.22083333333333144
        },
        {
          "name": "D3",
          "midi": 50,
          "time": 78.90520833333302,
          "velocity": 0.3937007874015748,
          "duration": 0.17395833333333144
        },
        {
          "name": "A2",
          "midi": 45,
          "time": 78.90520833333302,
          "velocity": 0.4251968503937008,
          "duration": 0.33645833333333997
        },
        {
          "name": "D2",
          "midi": 38,
          "time": 79.11354166666635,
          "velocity": 0.3779527559055118,
          "duration": 0.1395833333333485
        },
        {
          "name": "D3",
          "midi": 50,
          "time": 79.13749999999969,
          "velocity": 0.36220472440944884,
          "duration": 0.20937500000000853
        },
        {
          "name": "D4",
          "midi": 62,
          "time": 79.23020833333302,
          "velocity": 0.3464566929133858,
          "duration": 0.3374999999999915
        },
        {
          "name": "A#2",
          "midi": 46,
          "time": 79.24166666666636,
          "velocity": 0.3937007874015748,
          "duration": 0.26874999999999716
        },
        {
          "name": "D#2",
          "midi": 39,
          "time": 79.2531249999997,
          "velocity": 0.3700787401574803,
          "duration": 0.16249999999999432
        },
        {
          "name": "A2",
          "midi": 45,
          "time": 79.51041666666636,
          "velocity": 0.36220472440944884,
          "duration": 0.27812499999998863
        },
        {
          "name": "D3",
          "midi": 50,
          "time": 79.54479166666636,
          "velocity": 0.4251968503937008,
          "duration": 0.16249999999999432
        },
        {
          "name": "D4",
          "midi": 62,
          "time": 79.56770833333302,
          "velocity": 0.5196850393700787,
          "duration": 0.3479166666666629
        },
        {
          "name": "D2",
          "midi": 38,
          "time": 79.76562499999969,
          "velocity": 0.3779527559055118,
          "duration": 0.3604166666666515
        },
        {
          "name": "D3",
          "midi": 50,
          "time": 79.79999999999968,
          "velocity": 0.36220472440944884,
          "duration": 0.19687499999999147
        },
        {
          "name": "A2",
          "midi": 45,
          "time": 79.79999999999968,
          "velocity": 0.3464566929133858,
          "duration": 0.32499999999998863
        },
        {
          "name": "D4",
          "midi": 62,
          "time": 79.91666666666634,
          "velocity": 0.4094488188976378,
          "duration": 0.32499999999998863
        },
        {
          "name": "A#2",
          "midi": 46,
          "time": 80.12499999999967,
          "velocity": 0.3543307086614173,
          "duration": 0.3249999999999744
        },
        {
          "name": "D#2",
          "midi": 39,
          "time": 80.12499999999967,
          "velocity": 0.4566929133858268,
          "duration": 0.2552083333333144
        },
        {
          "name": "D4",
          "midi": 62,
          "time": 80.24166666666633,
          "velocity": 0.4094488188976378,
          "duration": 0.34791666666664867
        },
        {
          "name": "D3",
          "midi": 50,
          "time": 80.35729166666633,
          "velocity": 0.3228346456692913,
          "duration": 0.1624999999999801
        },
        {
          "name": "D2",
          "midi": 38,
          "time": 80.38124999999965,
          "velocity": 0.33858267716535434,
          "duration": 0.1510416666666572
        },
        {
          "name": "A2",
          "midi": 45,
          "time": 80.44999999999965,
          "velocity": 0.3937007874015748,
          "duration": 0.1510416666666714
        },
        {
          "name": "D4",
          "midi": 62,
          "time": 80.58958333333298,
          "velocity": 0.4566929133858268,
          "duration": 0.3479166666666771
        },
        {
          "name": "A2",
          "midi": 45,
          "time": 80.70624999999966,
          "velocity": 0.41732283464566927,
          "duration": 0.33645833333333997
        },
        {
          "name": "D2",
          "midi": 38,
          "time": 80.70624999999966,
          "velocity": 0.4409448818897638,
          "duration": 0.33645833333333997
        },
        {
          "name": "D3",
          "midi": 50,
          "time": 80.717708333333,
          "velocity": 0.3700787401574803,
          "duration": 0.27812500000000284
        },
        {
          "name": "D4",
          "midi": 62,
          "time": 80.93854166666632,
          "velocity": 0.3779527559055118,
          "duration": 0.3479166666666771
        },
        {
          "name": "A#2",
          "midi": 46,
          "time": 81.042708333333,
          "velocity": 0.4094488188976378,
          "duration": 0.17395833333333144
        },
        {
          "name": "D#2",
          "midi": 39,
          "time": 81.042708333333,
          "velocity": 0.31496062992125984,
          "duration": 0.2552083333333428
        },
        {
          "name": "G2",
          "midi": 43,
          "time": 81.27499999999966,
          "velocity": 0.5433070866141733,
          "duration": 0.32604166666666856
        },
        {
          "name": "D4",
          "midi": 62,
          "time": 81.286458333333,
          "velocity": 0.4645669291338583,
          "duration": 0.19895833333333712
        },
        {
          "name": "D3",
          "midi": 50,
          "time": 81.29791666666634,
          "velocity": 0.3858267716535433,
          "duration": 0.32604166666665435
        },
        {
          "name": "C#4",
          "midi": 61,
          "time": 81.48541666666634,
          "velocity": 0.5511811023622047,
          "duration": 0.17395833333331723
        },
        {
          "name": "G2",
          "midi": 43,
          "time": 81.60104166666633,
          "velocity": 0.5826771653543307,
          "duration": 0.23229166666665435
        },
        {
          "name": "D3",
          "midi": 50,
          "time": 81.623958333333,
          "velocity": 0.4645669291338583,
          "duration": 0.3020833333333286
        },
        {
          "name": "G2",
          "midi": 43,
          "time": 81.83333333333299,
          "velocity": 0.5433070866141733,
          "duration": 0.3135416666666657
        },
        {
          "name": "D3",
          "midi": 50,
          "time": 81.92604166666632,
          "velocity": 0.3700787401574803,
          "duration": 0.16249999999999432
        },
        {
          "name": "D4",
          "midi": 62,
          "time": 81.94895833333298,
          "velocity": 0.3779527559055118,
          "duration": 0.22083333333333144
        },
        {
          "name": "A#2",
          "midi": 46,
          "time": 81.94895833333298,
          "velocity": 0.4645669291338583,
          "duration": 0.2906250000000057
        },
        {
          "name": "D#2",
          "midi": 39,
          "time": 81.94895833333298,
          "velocity": 0.44881889763779526,
          "duration": 0.24375000000000568
        },
        {
          "name": "D3",
          "midi": 50,
          "time": 82.18124999999965,
          "velocity": 0.29133858267716534,
          "duration": 0.22083333333333144
        },
        {
          "name": "D2",
          "midi": 38,
          "time": 82.19374999999965,
          "velocity": 0.3700787401574803,
          "duration": 0.33645833333333997
        },
        {
          "name": "C#4",
          "midi": 61,
          "time": 82.23958333333299,
          "velocity": 0.5984251968503937,
          "duration": 0.17395833333333144
        },
        {
          "name": "A2",
          "midi": 45,
          "time": 82.23958333333299,
          "velocity": 0.4094488188976378,
          "duration": 0.27812500000000284
        },
        {
          "name": "D4",
          "midi": 62,
          "time": 82.41354166666632,
          "velocity": 0.5748031496062992,
          "duration": 0.22083333333334565
        },
        {
          "name": "D3",
          "midi": 50,
          "time": 82.530208333333,
          "velocity": 0.3700787401574803,
          "duration": 0.16250000000000853
        },
        {
          "name": "A2",
          "midi": 45,
          "time": 82.530208333333,
          "velocity": 0.36220472440944884,
          "duration": 0.3479166666666913
        },
        {
          "name": "D2",
          "midi": 38,
          "time": 82.530208333333,
          "velocity": 0.44881889763779526,
          "duration": 0.22083333333334565
        },
        {
          "name": "D#4",
          "midi": 63,
          "time": 82.63437499999966,
          "velocity": 0.5354330708661418,
          "duration": 0.22083333333334565
        },
        {
          "name": "D2",
          "midi": 38,
          "time": 82.74999999999967,
          "velocity": 0.4094488188976378,
          "duration": 0.16250000000000853
        },
        {
          "name": "G2",
          "midi": 43,
          "time": 82.85520833333301,
          "velocity": 0.3700787401574803,
          "duration": 0.22083333333333144
        },
        {
          "name": "D4",
          "midi": 62,
          "time": 82.86666666666635,
          "velocity": 0.41732283464566927,
          "duration": 0.20937499999999432
        },
        {
          "name": "C#5",
          "midi": 73,
          "time": 83.19166666666634,
          "velocity": 0.5748031496062992,
          "duration": 0.19687500000000568
        },
        {
          "name": "A2",
          "midi": 45,
          "time": 83.19166666666634,
          "velocity": 0.41732283464566927,
          "duration": 0.24375000000000568
        },
        {
          "name": "D4",
          "midi": 62,
          "time": 83.31979166666633,
          "velocity": 0.4645669291338583,
          "duration": 0.3375000000000057
        },
        {
          "name": "D2",
          "midi": 38,
          "time": 83.377083333333,
          "velocity": 0.5275590551181102,
          "duration": 0.140625
        },
        {
          "name": "A2",
          "midi": 45,
          "time": 83.43541666666634,
          "velocity": 0.4094488188976378,
          "duration": 0.31458333333333144
        },
        {
          "name": "D3",
          "midi": 50,
          "time": 83.43645833333301,
          "velocity": 0.33070866141732286,
          "duration": 0.13958333333333428
        },
        {
          "name": "C#5",
          "midi": 73,
          "time": 83.52916666666634,
          "velocity": 0.49606299212598426,
          "duration": 0.16249999999999432
        },
        {
          "name": "D2",
          "midi": 38,
          "time": 83.52916666666634,
          "velocity": 0.5984251968503937,
          "duration": 0.24374999999999147
        },
        {
          "name": "D4",
          "midi": 62,
          "time": 83.65729166666634,
          "velocity": 0.5669291338582677,
          "duration": 0.33645833333331154
        },
        {
          "name": "D3",
          "midi": 50,
          "time": 83.65729166666634,
          "velocity": 0.3700787401574803,
          "duration": 0.1510416666666572
        },
        {
          "name": "A#2",
          "midi": 46,
          "time": 83.74999999999967,
          "velocity": 0.3937007874015748,
          "duration": 0.3020833333333144
        },
        {
          "name": "D#2",
          "midi": 39,
          "time": 83.773958333333,
          "velocity": 0.4251968503937008,
          "duration": 0.3020833333333144
        },
        {
          "name": "C#5",
          "midi": 73,
          "time": 83.87812499999966,
          "velocity": 0.5196850393700787,
          "duration": 0.17395833333333144
        },
        {
          "name": "D4",
          "midi": 62,
          "time": 83.99374999999965,
          "velocity": 0.6141732283464567,
          "duration": 0.33645833333333997
        },
        {
          "name": "D3",
          "midi": 50,
          "time": 83.99374999999965,
          "velocity": 0.28346456692913385,
          "duration": 0.18541666666666856
        },
        {
          "name": "A2",
          "midi": 45,
          "time": 84.05208333333299,
          "velocity": 0.3858267716535433,
          "duration": 0.27812500000000284
        },
        {
          "name": "D2",
          "midi": 38,
          "time": 84.07499999999965,
          "velocity": 0.4015748031496063,
          "duration": 0.36041666666667993
        },
        {
          "name": "C#5",
          "midi": 73,
          "time": 84.22604166666632,
          "velocity": 0.4251968503937008,
          "duration": 0.33645833333333997
        },
        {
          "name": "D4",
          "midi": 62,
          "time": 84.33124999999966,
          "velocity": 0.4015748031496063,
          "duration": 0.3479166666666629
        },
        {
          "name": "D3",
          "midi": 50,
          "time": 84.342708333333,
          "velocity": 0.30708661417322836,
          "duration": 0.1510416666666714
        },
        {
          "name": "A2",
          "midi": 45,
          "time": 84.342708333333,
          "velocity": 0.5511811023622047,
          "duration": 0.33645833333332575
        },
        {
          "name": "D2",
          "midi": 38,
          "time": 84.44687499999966,
          "velocity": 0.4645669291338583,
          "duration": 0.34791666666664867
        },
        {
          "name": "C#5",
          "midi": 73,
          "time": 84.56249999999966,
          "velocity": 0.4094488188976378,
          "duration": 0.33645833333332575
        },
        {
          "name": "D4",
          "midi": 62,
          "time": 84.67916666666632,
          "velocity": 0.5196850393700787,
          "duration": 0.33645833333333997
        },
        {
          "name": "A#2",
          "midi": 46,
          "time": 84.67916666666632,
          "velocity": 0.3700787401574803,
          "duration": 0.20937499999999432
        },
        {
          "name": "D#2",
          "midi": 39,
          "time": 84.79479166666631,
          "velocity": 0.4251968503937008,
          "duration": 0.23229166666668277
        },
        {
          "name": "C#5",
          "midi": 73,
          "time": 84.89999999999965,
          "velocity": 0.47244094488188976,
          "duration": 0.3479166666666771
        },
        {
          "name": "A2",
          "midi": 45,
          "time": 84.91145833333299,
          "velocity": 0.3937007874015748,
          "duration": 0.33645833333333997
        },
        {
          "name": "D4",
          "midi": 62,
          "time": 85.01562499999966,
          "velocity": 0.5511811023622047,
          "duration": 0.3947916666666629
        },
        {
          "name": "D2",
          "midi": 38,
          "time": 85.20104166666633,
          "velocity": 0.48031496062992124,
          "duration": 0.19687499999999147
        },
        {
          "name": "C#5",
          "midi": 73,
          "time": 85.24791666666633,
          "velocity": 0.5748031496062992,
          "duration": 0.17395833333333144
        },
        {
          "name": "A2",
          "midi": 45,
          "time": 85.24791666666633,
          "velocity": 0.4330708661417323,
          "duration": 0.3374999999999915
        },
        {
          "name": "D3",
          "midi": 50,
          "time": 85.36354166666632,
          "velocity": 0.3543307086614173,
          "duration": 0.2562499999999943
        },
        {
          "name": "D2",
          "midi": 38,
          "time": 85.39895833333298,
          "velocity": 0.6062992125984252,
          "duration": 0.1875
        },
        {
          "name": "D4",
          "midi": 62,
          "time": 85.41041666666632,
          "velocity": 0.3779527559055118,
          "duration": 0.2916666666666714
        },
        {
          "name": "C#5",
          "midi": 73,
          "time": 85.55104166666632,
          "velocity": 0.5039370078740157,
          "duration": 0.13958333333333428
        },
        {
          "name": "A#2",
          "midi": 46,
          "time": 85.58541666666632,
          "velocity": 0.3543307086614173,
          "duration": 0.3135416666666657
        },
        {
          "name": "D#2",
          "midi": 39,
          "time": 85.58541666666632,
          "velocity": 0.4015748031496063,
          "duration": 0.24375000000000568
        },
        {
          "name": "C#5",
          "midi": 73,
          "time": 85.702083333333,
          "velocity": 0.3700787401574803,
          "duration": 0.22083333333333144
        },
        {
          "name": "D4",
          "midi": 62,
          "time": 85.702083333333,
          "velocity": 0.5039370078740157,
          "duration": 0.33645833333332575
        },
        {
          "name": "D3",
          "midi": 50,
          "time": 85.80624999999966,
          "velocity": 0.33070866141732286,
          "duration": 0.1510416666666572
        },
        {
          "name": "A2",
          "midi": 45,
          "time": 85.89895833333298,
          "velocity": 0.36220472440944884,
          "duration": 0.3479166666666629
        },
        {
          "name": "C#5",
          "midi": 73,
          "time": 85.92291666666632,
          "velocity": 0.4645669291338583,
          "duration": 0.33645833333332575
        },
        {
          "name": "D4",
          "midi": 62,
          "time": 86.03854166666632,
          "velocity": 0.48031496062992124,
          "duration": 0.33645833333332575
        },
        {
          "name": "D2",
          "midi": 38,
          "time": 86.11979166666632,
          "velocity": 0.49606299212598426,
          "duration": 0.13958333333333428
        },
        {
          "name": "C#5",
          "midi": 73,
          "time": 86.25937499999965,
          "velocity": 0.4015748031496063,
          "duration": 0.33645833333332575
        },
        {
          "name": "A2",
          "midi": 45,
          "time": 86.25937499999965,
          "velocity": 0.5039370078740157,
          "duration": 0.24374999999999147
        },
        {
          "name": "D2",
          "midi": 38,
          "time": 86.25937499999965,
          "velocity": 0.5118110236220472,
          "duration": 0.3020833333333286
        },
        {
          "name": "D4",
          "midi": 62,
          "time": 86.37499999999964,
          "velocity": 0.49606299212598426,
          "duration": 0.3479166666666629
        },
        {
          "name": "A#2",
          "midi": 46,
          "time": 86.50312499999964,
          "velocity": 0.4645669291338583,
          "duration": 0.1510416666666714
        },
        {
          "name": "C#5",
          "midi": 73,
          "time": 86.59583333333298,
          "velocity": 0.5275590551181102,
          "duration": 0.18541666666666856
        },
        {
          "name": "D#2",
          "midi": 39,
          "time": 86.59583333333298,
          "velocity": 0.4566929133858268,
          "duration": 0.2906250000000057
        },
        {
          "name": "A2",
          "midi": 45,
          "time": 86.69999999999965,
          "velocity": 0.31496062992125984,
          "duration": 0.3604166666666657
        },
        {
          "name": "D4",
          "midi": 62,
          "time": 86.72395833333297,
          "velocity": 0.6062992125984252,
          "duration": 0.3479166666666771
        },
        {
          "name": "D3",
          "midi": 50,
          "time": 86.72395833333297,
          "velocity": 0.3858267716535433,
          "duration": 0.16250000000000853
        },
        {
          "name": "C#5",
          "midi": 73,
          "time": 86.95624999999964,
          "velocity": 0.5590551181102362,
          "duration": 0.18541666666666856
        },
        {
          "name": "D4",
          "midi": 62,
          "time": 87.07187499999965,
          "velocity": 0.5433070866141733,
          "duration": 0.13958333333332007
        },
        {
          "name": "A2",
          "midi": 45,
          "time": 87.07187499999965,
          "velocity": 0.44881889763779526,
          "duration": 0.22083333333331723
        },
        {
          "name": "D2",
          "midi": 38,
          "time": 87.18854166666631,
          "velocity": 0.5748031496062992,
          "duration": 0.23333333333333428
        },
        {
          "name": "A2",
          "midi": 45,
          "time": 87.29270833333297,
          "velocity": 0.49606299212598426,
          "duration": 0.16354166666667425
        },
        {
          "name": "C#5",
          "midi": 73,
          "time": 87.3041666666663,
          "velocity": 0.4015748031496063,
          "duration": 0.31458333333334565
        },
        {
          "name": "D#2",
          "midi": 39,
          "time": 87.42187499999964,
          "velocity": 0.36220472440944884,
          "duration": 0.2552083333333428
        },
        {
          "name": "D3",
          "midi": 50,
          "time": 87.4447916666663,
          "velocity": 0.3228346456692913,
          "duration": 0.23229166666668277
        },
        {
          "name": "A#2",
          "midi": 46,
          "time": 87.45624999999964,
          "velocity": 0.4015748031496063,
          "duration": 0.16250000000000853
        },
        {
          "name": "D4",
          "midi": 62,
          "time": 87.46770833333298,
          "velocity": 0.44881889763779526,
          "duration": 0.27812500000000284
        },
        {
          "name": "C#5",
          "midi": 73,
          "time": 87.61874999999965,
          "velocity": 0.4645669291338583,
          "duration": 0.3479166666666629
        },
        {
          "name": "A2",
          "midi": 45,
          "time": 87.63020833333299,
          "velocity": 0.36220472440944884,
          "duration": 0.33645833333332575
        },
        {
          "name": "D4",
          "midi": 62,
          "time": 87.74687499999965,
          "velocity": 0.6535433070866141,
          "duration": 0.27812500000000284
        },
        {
          "name": "D2",
          "midi": 38,
          "time": 87.94374999999965,
          "velocity": 0.3858267716535433,
          "duration": 0.1510416666666572
        },
        {
          "name": "C#5",
          "midi": 73,
          "time": 87.96770833333298,
          "velocity": 0.5433070866141733,
          "duration": 0.17395833333333144
        },
        {
          "name": "A2",
          "midi": 45,
          "time": 87.96770833333298,
          "velocity": 0.4094488188976378,
          "duration": 0.33645833333332575
        },
        {
          "name": "D4",
          "midi": 62,
          "time": 88.09479166666631,
          "velocity": 0.3937007874015748,
          "duration": 0.3479166666666629
        },
        {
          "name": "D2",
          "midi": 38,
          "time": 88.09479166666631,
          "velocity": 0.6535433070866141,
          "duration": 0.22083333333333144
        },
        {
          "name": "C#5",
          "midi": 73,
          "time": 88.31562499999964,
          "velocity": 0.4645669291338583,
          "duration": 0.17395833333333144
        },
        {
          "name": "A#2",
          "midi": 46,
          "time": 88.31562499999964,
          "velocity": 0.36220472440944884,
          "duration": 0.38333333333332575
        },
        {
          "name": "D#2",
          "midi": 39,
          "time": 88.31562499999964,
          "velocity": 0.3779527559055118,
          "duration": 0.2666666666666657
        },
        {
          "name": "D4",
          "midi": 62,
          "time": 88.44374999999964,
          "velocity": 0.41732283464566927,
          "duration": 0.33645833333332575
        },
        {
          "name": "G2",
          "midi": 43,
          "time": 88.53645833333297,
          "velocity": 0.5039370078740157,
          "duration": 0.3020833333333286
        },
        {
          "name": "D3",
          "midi": 50,
          "time": 88.54791666666631,
          "velocity": 0.4094488188976378,
          "duration": 0.17395833333331723
        },
        {
          "name": "C#5",
          "midi": 73,
          "time": 88.6635416666663,
          "velocity": 0.4015748031496063,
          "duration": 0.33645833333331154
        },
        {
          "name": "D4",
          "midi": 62,
          "time": 88.78020833333296,
          "velocity": 0.5354330708661418,
          "duration": 0.19687499999999147
        },
        {
          "name": "G2",
          "midi": 43,
          "time": 88.83749999999964,
          "velocity": 0.5984251968503937,
          "duration": 0.17395833333331723
        },
        {
          "name": "D3",
          "midi": 50,
          "time": 88.86145833333296,
          "velocity": 0.4251968503937008,
          "duration": 0.16249999999999432
        },
        {
          "name": "C#5",
          "midi": 73,
          "time": 89.00104166666628,
          "velocity": 0.4251968503937008,
          "duration": 0.17395833333334565
        },
        {
          "name": "G2",
          "midi": 43,
          "time": 89.01249999999962,
          "velocity": 0.5984251968503937,
          "duration": 0.3479166666666771
        },
        {
          "name": "D4",
          "midi": 62,
          "time": 89.11666666666629,
          "velocity": 0.4251968503937008,
          "duration": 0.3260416666666828
        },
        {
          "name": "D3",
          "midi": 50,
          "time": 89.11666666666629,
          "velocity": 0.31496062992125984,
          "duration": 0.16250000000000853
        },
        {
          "name": "D#2",
          "midi": 39,
          "time": 89.20937499999962,
          "velocity": 0.4015748031496063,
          "duration": 0.26875000000001137
        },
        {
          "name": "A#2",
          "midi": 46,
          "time": 89.22083333333296,
          "velocity": 0.4094488188976378,
          "duration": 0.21041666666667425
        },
        {
          "name": "C#5",
          "midi": 73,
          "time": 89.33749999999964,
          "velocity": 0.4645669291338583,
          "duration": 0.19895833333333712
        },
        {
          "name": "D4",
          "midi": 62,
          "time": 89.44270833333297,
          "velocity": 0.5748031496062992,
          "duration": 0.32500000000000284
        },
        {
          "name": "A4",
          "midi": 69,
          "time": 89.67499999999964,
          "velocity": 0.6771653543307087,
          "duration": 0.24375000000000568
        },
        {
          "name": "D2",
          "midi": 38,
          "time": 89.76770833333298,
          "velocity": 0.3937007874015748,
          "duration": 0.1510416666666714
        },
        {
          "name": "G4",
          "midi": 67,
          "time": 89.90729166666631,
          "velocity": 0.5748031496062992,
          "duration": 0.22083333333334565
        },
        {
          "name": "A2",
          "midi": 45,
          "time": 89.90729166666631,
          "velocity": 0.4015748031496063,
          "duration": 0.18541666666666856
        },
        {
          "name": "D2",
          "midi": 38,
          "time": 89.91874999999965,
          "velocity": 0.5118110236220472,
          "duration": 0.18541666666666856
        },
        {
          "name": "F4",
          "midi": 65,
          "time": 90.02395833333298,
          "velocity": 0.5196850393700787,
          "duration": 0.23229166666666856
        },
        {
          "name": "C4",
          "midi": 60,
          "time": 90.12812499999966,
          "velocity": 0.49606299212598426,
          "duration": 0.4531249999999858
        },
        {
          "name": "D2",
          "midi": 38,
          "time": 90.12812499999966,
          "velocity": 0.3858267716535433,
          "duration": 0.6614583333333286
        },
        {
          "name": "D4",
          "midi": 62,
          "time": 90.41770833333298,
          "velocity": 0.48031496062992124,
          "duration": 0.22083333333333144
        },
        {
          "name": "A2",
          "midi": 45,
          "time": 90.66249999999965,
          "velocity": 0.3779527559055118,
          "duration": 0.1510416666666572
        },
        {
          "name": "D2",
          "midi": 38,
          "time": 90.78958333333298,
          "velocity": 0.48031496062992124,
          "duration": 0.5572916666666572
        },
        {
          "name": "F4",
          "midi": 65,
          "time": 90.81249999999964,
          "velocity": 0.5669291338582677,
          "duration": 0.3947916666666629
        },
        {
          "name": "D3",
          "midi": 50,
          "time": 90.81249999999964,
          "velocity": 0.3464566929133858,
          "duration": 0.22083333333333144
        },
        {
          "name": "A2",
          "midi": 45,
          "time": 90.81249999999964,
          "velocity": 0.4094488188976378,
          "duration": 0.22083333333333144
        },
        {
          "name": "A4",
          "midi": 69,
          "time": 90.82499999999965,
          "velocity": 0.5039370078740157,
          "duration": 0.27812499999998863
        },
        {
          "name": "A2",
          "midi": 45,
          "time": 91.03333333333298,
          "velocity": 0.48031496062992124,
          "duration": 0.23229166666666856
        },
        {
          "name": "G4",
          "midi": 67,
          "time": 91.16145833333297,
          "velocity": 0.5354330708661418,
          "duration": 0.19687500000000568
        },
        {
          "name": "D4",
          "midi": 62,
          "time": 91.16145833333297,
          "velocity": 0.48031496062992124,
          "duration": 0.22083333333334565
        },
        {
          "name": "A2",
          "midi": 45,
          "time": 91.26562499999964,
          "velocity": 0.4015748031496063,
          "duration": 0.3260416666666828
        },
        {
          "name": "D2",
          "midi": 38,
          "time": 91.34687499999964,
          "velocity": 0.3464566929133858,
          "duration": 0.1406250000000142
        },
        {
          "name": "D4",
          "midi": 62,
          "time": 91.38229166666632,
          "velocity": 0.6299212598425197,
          "duration": 0.22187500000001137
        },
        {
          "name": "A3",
          "midi": 57,
          "time": 91.48749999999966,
          "velocity": 0.6456692913385826,
          "duration": 0.19687500000000568
        },
        {
          "name": "D2",
          "midi": 38,
          "time": 91.48749999999966,
          "velocity": 0.5984251968503937,
          "duration": 0.23229166666666856
        },
        {
          "name": "A2",
          "midi": 45,
          "time": 91.59166666666633,
          "velocity": 0.47244094488188976,
          "duration": 0.3604166666666515
        },
        {
          "name": "D4",
          "midi": 62,
          "time": 91.60416666666633,
          "velocity": 0.44881889763779526,
          "duration": 0.23229166666665435
        },
        {
          "name": "D2",
          "midi": 38,
          "time": 91.71979166666632,
          "velocity": 0.6377952755905512,
          "duration": 0.23229166666665435
        },
        {
          "name": "D4",
          "midi": 62,
          "time": 91.83541666666632,
          "velocity": 0.5590551181102362,
          "duration": 0.13958333333332007
        },
        {
          "name": "A3",
          "midi": 57,
          "time": 91.95208333333298,
          "velocity": 0.5354330708661418,
          "duration": 0.18541666666665435
        },
        {
          "name": "A2",
          "midi": 45,
          "time": 91.95208333333298,
          "velocity": 0.49606299212598426,
          "duration": 0.23229166666665435
        },
        {
          "name": "D2",
          "midi": 38,
          "time": 91.95208333333298,
          "velocity": 0.4251968503937008,
          "duration": 0.22083333333331723
        },
        {
          "name": "C4",
          "midi": 60,
          "time": 92.06770833333297,
          "velocity": 0.47244094488188976,
          "duration": 0.24374999999999147
        },
        {
          "name": "D2",
          "midi": 38,
          "time": 92.1729166666663,
          "velocity": 0.44881889763779526,
          "duration": 0.3479166666666629
        },
        {
          "name": "D4",
          "midi": 62,
          "time": 92.18437499999963,
          "velocity": 0.5354330708661418,
          "duration": 0.22083333333333144
        },
        {
          "name": "A2",
          "midi": 45,
          "time": 92.18437499999963,
          "velocity": 0.4094488188976378,
          "duration": 0.4062499999999858
        },
        {
          "name": "D4",
          "midi": 62,
          "time": 92.40520833333296,
          "velocity": 0.6220472440944882,
          "duration": 0.16249999999999432
        },
        {
          "name": "D2",
          "midi": 38,
          "time": 92.52083333333296,
          "velocity": 0.5826771653543307,
          "duration": 0.18541666666665435
        },
        {
          "name": "A4",
          "midi": 69,
          "time": 92.63749999999962,
          "velocity": 0.5118110236220472,
          "duration": 0.2906250000000057
        },
        {
          "name": "F4",
          "midi": 65,
          "time": 92.63749999999962,
          "velocity": 0.5669291338582677,
          "duration": 0.38333333333333997
        },
        {
          "name": "D3",
          "midi": 50,
          "time": 92.63749999999962,
          "velocity": 0.3779527559055118,
          "duration": 0.23229166666666856
        },
        {
          "name": "D2",
          "midi": 38,
          "time": 92.70624999999961,
          "velocity": 0.4645669291338583,
          "duration": 0.37187500000001705
        },
        {
          "name": "A2",
          "midi": 45,
          "time": 92.85729166666628,
          "velocity": 0.41732283464566927,
          "duration": 0.23229166666668277
        },
        {
          "name": "D4",
          "midi": 62,
          "time": 92.97395833333296,
          "velocity": 0.5196850393700787,
          "duration": 0.1395833333333485
        },
        {
          "name": "G4",
          "midi": 67,
          "time": 92.9854166666663,
          "velocity": 0.5196850393700787,
          "duration": 0.23229166666668277
        },
        {
          "name": "D2",
          "midi": 38,
          "time": 93.07812499999963,
          "velocity": 0.47244094488188976,
          "duration": 0.22083333333334565
        },
        {
          "name": "A2",
          "midi": 45,
          "time": 93.08958333333297,
          "velocity": 0.4409448818897638,
          "duration": 0.16250000000000853
        },
        {
          "name": "G#4",
          "midi": 68,
          "time": 93.32187499999964,
          "velocity": 0.6771653543307087,
          "duration": 0.16354166666666003
        },
        {
          "name": "D2",
          "midi": 38,
          "time": 93.4041666666663,
          "velocity": 0.4094488188976378,
          "duration": 0.13958333333333428
        },
        {
          "name": "A2",
          "midi": 45,
          "time": 93.5322916666663,
          "velocity": 0.41732283464566927,
          "duration": 0.24375000000000568
        },
        {
          "name": "G4",
          "midi": 67,
          "time": 93.54374999999963,
          "velocity": 0.6220472440944882,
          "duration": 0.19687499999999147
        },
        {
          "name": "D2",
          "midi": 38,
          "time": 93.54374999999963,
          "velocity": 0.47244094488188976,
          "duration": 0.24375000000000568
        },
        {
          "name": "D4",
          "midi": 62,
          "time": 93.6604166666663,
          "velocity": 0.5196850393700787,
          "duration": 0.15104166666668561
        },
        {
          "name": "F4",
          "midi": 65,
          "time": 93.76458333333296,
          "velocity": 0.5826771653543307,
          "duration": 0.23229166666668277
        },
        {
          "name": "C2",
          "midi": 36,
          "time": 93.78749999999964,
          "velocity": 0.5118110236220472,
          "duration": 0.3479166666666771
        },
        {
          "name": "A#2",
          "midi": 46,
          "time": 93.98541666666631,
          "velocity": 0.4330708661417323,
          "duration": 0.4645833333333371
        },
        {
          "name": "D4",
          "midi": 62,
          "time": 94.21770833333298,
          "velocity": 0.6141732283464567,
          "duration": 0.17395833333333144
        },
        {
          "name": "A#2",
          "midi": 46,
          "time": 94.44895833333298,
          "velocity": 0.5511811023622047,
          "duration": 0.4531249999999858
        },
        {
          "name": "D4",
          "midi": 62,
          "time": 94.56562499999964,
          "velocity": 0.4645669291338583,
          "duration": 0.22083333333333144
        },
        {
          "name": "F2",
          "midi": 41,
          "time": 94.68124999999964,
          "velocity": 0.6535433070866141,
          "duration": 0.23229166666666856
        },
        {
          "name": "D4",
          "midi": 62,
          "time": 94.78645833333297,
          "velocity": 0.5354330708661418,
          "duration": 0.23229166666666856
        },
        {
          "name": "A#2",
          "midi": 46,
          "time": 94.90208333333297,
          "velocity": 0.3858267716535433,
          "duration": 0.45416666666667993
        },
        {
          "name": "G4",
          "midi": 67,
          "time": 94.9135416666663,
          "velocity": 0.5826771653543307,
          "duration": 0.18541666666666856
        },
        {
          "name": "F2",
          "midi": 41,
          "time": 94.9135416666663,
          "velocity": 0.44881889763779526,
          "duration": 0.1510416666666714
        },
        {
          "name": "D4",
          "midi": 62,
          "time": 95.01874999999964,
          "velocity": 0.5590551181102362,
          "duration": 0.22083333333333144
        },
        {
          "name": "G#4",
          "midi": 68,
          "time": 95.09999999999964,
          "velocity": 0.6929133858267716,
          "duration": 0.13958333333333428
        },
        {
          "name": "A4",
          "midi": 69,
          "time": 95.25104166666631,
          "velocity": 0.5984251968503937,
          "duration": 0.140625
        },
        {
          "name": "A#2",
          "midi": 46,
          "time": 95.35624999999965,
          "velocity": 0.7086614173228346,
          "duration": 0.23229166666665435
        },
        {
          "name": "A#3",
          "midi": 58,
          "time": 95.47291666666631,
          "velocity": 0.4645669291338583,
          "duration": 0.18541666666665435
        },
        {
          "name": "F2",
          "midi": 41,
          "time": 95.49583333333297,
          "velocity": 0.48031496062992124,
          "duration": 0.27812500000000284
        },
        {
          "name": "B2",
          "midi": 47,
          "time": 95.5885416666663,
          "velocity": 0.4015748031496063,
          "duration": 0.17395833333333144
        },
        {
          "name": "B1",
          "midi": 35,
          "time": 95.5885416666663,
          "velocity": 0.5590551181102362,
          "duration": 0.22083333333333144
        },
        {
          "name": "C3",
          "midi": 48,
          "time": 95.80937499999963,
          "velocity": 0.3543307086614173,
          "duration": 0.17395833333333144
        },
        {
          "name": "C2",
          "midi": 36,
          "time": 95.80937499999963,
          "velocity": 0.3858267716535433,
          "duration": 0.18541666666666856
        },
        {
          "name": "A3",
          "midi": 57,
          "time": 95.92499999999963,
          "velocity": 0.6456692913385826,
          "duration": 0.23229166666666856
        },
        {
          "name": "C4",
          "midi": 60,
          "time": 96.0416666666663,
          "velocity": 0.4330708661417323,
          "duration": 0.34791666666664867
        },
        {
          "name": "C3",
          "midi": 48,
          "time": 96.11145833333296,
          "velocity": 0.3228346456692913,
          "duration": 0.16249999999999432
        },
        {
          "name": "A3",
          "midi": 57,
          "time": 96.1572916666663,
          "velocity": 0.6299212598425197,
          "duration": 0.22083333333331723
        },
        {
          "name": "C2",
          "midi": 36,
          "time": 96.19270833333296,
          "velocity": 0.33858267716535434,
          "duration": 0.16249999999999432
        },
        {
          "name": "C3",
          "midi": 48,
          "time": 96.27395833333296,
          "velocity": 0.5039370078740157,
          "duration": 0.22083333333331723
        },
        {
          "name": "A3",
          "midi": 57,
          "time": 96.37812499999961,
          "velocity": 0.5826771653543307,
          "duration": 0.18541666666665435
        },
        {
          "name": "G2",
          "midi": 43,
          "time": 96.45937499999961,
          "velocity": 0.4409448818897638,
          "duration": 0.19687499999999147
        },
        {
          "name": "A#2",
          "midi": 46,
          "time": 96.51770833333293,
          "velocity": 0.30708661417322836,
          "duration": 0.32500000000000284
        },
        {
          "name": "D4",
          "midi": 62,
          "time": 96.61041666666627,
          "velocity": 0.5039370078740157,
          "duration": 0.2906250000000057
        },
        {
          "name": "A4",
          "midi": 69,
          "time": 96.95833333333294,
          "velocity": 0.6771653543307087,
          "duration": 0.23229166666666856
        },
        {
          "name": "A2",
          "midi": 45,
          "time": 97.0281249999996,
          "velocity": 0.4251968503937008,
          "duration": 0.13958333333333428
        },
        {
          "name": "A2",
          "midi": 45,
          "time": 97.17916666666628,
          "velocity": 0.6377952755905512,
          "duration": 0.2333333333333485
        },
        {
          "name": "G4",
          "midi": 67,
          "time": 97.19062499999961,
          "velocity": 0.5984251968503937,
          "duration": 0.16354166666667425
        },
        {
          "name": "F4",
          "midi": 65,
          "time": 97.29479166666628,
          "velocity": 0.5118110236220472,
          "duration": 0.16354166666667425
        },
        {
          "name": "E2",
          "midi": 40,
          "time": 97.35416666666629,
          "velocity": 0.41732283464566927,
          "duration": 0.18541666666666856
        },
        {
          "name": "C3",
          "midi": 48,
          "time": 97.47083333333296,
          "velocity": 0.4409448818897638,
          "duration": 0.13958333333333428
        },
        {
          "name": "C2",
          "midi": 36,
          "time": 97.47083333333296,
          "velocity": 0.5275590551181102,
          "duration": 0.38333333333332575
        },
        {
          "name": "D2",
          "midi": 38,
          "time": 97.63333333333296,
          "velocity": 0.5118110236220472,
          "duration": 0.4416666666666629
        },
        {
          "name": "A2",
          "midi": 45,
          "time": 97.98124999999962,
          "velocity": 0.3858267716535433,
          "duration": 0.4416666666666771
        },
        {
          "name": "D2",
          "midi": 38,
          "time": 98.07395833333295,
          "velocity": 0.47244094488188976,
          "duration": 0.48750000000001137
        },
        {
          "name": "A4",
          "midi": 69,
          "time": 98.08645833333296,
          "velocity": 0.48031496062992124,
          "duration": 0.2906250000000057
        },
        {
          "name": "F4",
          "midi": 65,
          "time": 98.08645833333296,
          "velocity": 0.5433070866141733,
          "duration": 0.4062500000000142
        },
        {
          "name": "D3",
          "midi": 50,
          "time": 98.08645833333296,
          "velocity": 0.33070866141732286,
          "duration": 0.18541666666666856
        },
        {
          "name": "A2",
          "midi": 45,
          "time": 98.4229166666663,
          "velocity": 0.5118110236220472,
          "duration": 0.13958333333333428
        },
        {
          "name": "G4",
          "midi": 67,
          "time": 98.43437499999963,
          "velocity": 0.5433070866141733,
          "duration": 0.20937499999999432
        },
        {
          "name": "D4",
          "midi": 62,
          "time": 98.43437499999963,
          "velocity": 0.5039370078740157,
          "duration": 0.22083333333333144
        },
        {
          "name": "A2",
          "midi": 45,
          "time": 98.56145833333296,
          "velocity": 0.3858267716535433,
          "duration": 0.3020833333333286
        },
        {
          "name": "D2",
          "midi": 38,
          "time": 98.56145833333296,
          "velocity": 0.4094488188976378,
          "duration": 0.3020833333333286
        },
        {
          "name": "D4",
          "midi": 62,
          "time": 98.65520833333296,
          "velocity": 0.6614173228346457,
          "duration": 0.23229166666666856
        },
        {
          "name": "A3",
          "midi": 57,
          "time": 98.77083333333296,
          "velocity": 0.6614173228346457,
          "duration": 0.17395833333334565
        },
        {
          "name": "A2",
          "midi": 45,
          "time": 98.8635416666663,
          "velocity": 0.4251968503937008,
          "duration": 0.3604166666666657
        },
        {
          "name": "D2",
          "midi": 38,
          "time": 98.8635416666663,
          "velocity": 0.5511811023622047,
          "duration": 0.1395833333333485
        },
        {
          "name": "D4",
          "midi": 62,
          "time": 98.88749999999963,
          "velocity": 0.4251968503937008,
          "duration": 0.23229166666666856
        },
        {
          "name": "F#3",
          "midi": 54,
          "time": 98.9916666666663,
          "velocity": 0.2677165354330709,
          "duration": 0.17395833333333144
        },
        {
          "name": "C4",
          "midi": 60,
          "time": 99.00312499999964,
          "velocity": 0.47244094488188976,
          "duration": 0.18541666666665435
        },
        {
          "name": "D2",
          "midi": 38,
          "time": 99.00312499999964,
          "velocity": 0.5984251968503937,
          "duration": 0.22083333333331723
        },
        {
          "name": "D4",
          "midi": 62,
          "time": 99.11874999999964,
          "velocity": 0.48031496062992124,
          "duration": 0.13958333333332007
        },
        {
          "name": "A2",
          "midi": 45,
          "time": 99.22395833333296,
          "velocity": 0.49606299212598426,
          "duration": 0.22187500000001137
        },
        {
          "name": "D2",
          "midi": 38,
          "time": 99.22395833333296,
          "velocity": 0.4409448818897638,
          "duration": 0.31458333333333144
        },
        {
          "name": "A3",
          "midi": 57,
          "time": 99.2354166666663,
          "velocity": 0.5354330708661418,
          "duration": 0.15208333333333712
        },
        {
          "name": "C4",
          "midi": 60,
          "time": 99.3291666666663,
          "velocity": 0.44881889763779526,
          "duration": 0.3020833333333286
        },
        {
          "name": "D4",
          "midi": 62,
          "time": 99.44583333333297,
          "velocity": 0.5275590551181102,
          "duration": 0.2906249999999915
        },
        {
          "name": "A2",
          "midi": 45,
          "time": 99.44583333333297,
          "velocity": 0.5275590551181102,
          "duration": 0.24374999999999147
        },
        {
          "name": "D3",
          "midi": 50,
          "time": 99.51562499999963,
          "velocity": 0.36220472440944884,
          "duration": 0.17395833333333144
        },
        {
          "name": "D2",
          "midi": 38,
          "time": 99.53854166666629,
          "velocity": 0.5196850393700787,
          "duration": 0.3020833333333428
        },
        {
          "name": "A2",
          "midi": 45,
          "time": 99.79374999999963,
          "velocity": 0.3543307086614173,
          "duration": 0.453125
        },
        {
          "name": "D2",
          "midi": 38,
          "time": 99.84062499999963,
          "velocity": 0.6377952755905512,
          "duration": 0.13958333333333428
        },
        {
          "name": "F4",
          "midi": 65,
          "time": 99.8979166666663,
          "velocity": 0.5590551181102362,
          "duration": 0.3604166666666657
        },
        {
          "name": "D3",
          "midi": 50,
          "time": 99.8979166666663,
          "velocity": 0.36220472440944884,
          "duration": 0.22083333333333144
        },
        {
          "name": "A4",
          "midi": 69,
          "time": 99.91041666666631,
          "velocity": 0.5354330708661418,
          "duration": 0.2666666666666657
        },
        {
          "name": "D2",
          "midi": 38,
          "time": 99.9791666666663,
          "velocity": 0.3858267716535433,
          "duration": 0.4416666666666629
        },
        {
          "name": "G4",
          "midi": 67,
          "time": 100.24687499999963,
          "velocity": 0.5275590551181102,
          "duration": 0.22083333333333144
        },
        {
          "name": "D4",
          "midi": 62,
          "time": 100.24687499999963,
          "velocity": 0.49606299212598426,
          "duration": 0.13958333333333428
        },
        {
          "name": "A2",
          "midi": 45,
          "time": 100.24687499999963,
          "velocity": 0.41732283464566927,
          "duration": 0.2906249999999915
        },
        {
          "name": "D2",
          "midi": 38,
          "time": 100.42083333333296,
          "velocity": 0.41732283464566927,
          "duration": 0.1510416666666572
        },
        {
          "name": "G#4",
          "midi": 68,
          "time": 100.59479166666628,
          "velocity": 0.6929133858267716,
          "duration": 0.23229166666666856
        },
        {
          "name": "A2",
          "midi": 45,
          "time": 100.81562499999961,
          "velocity": 0.3937007874015748,
          "duration": 0.22083333333334565
        },
        {
          "name": "D2",
          "midi": 38,
          "time": 100.81562499999961,
          "velocity": 0.44881889763779526,
          "duration": 0.22083333333334565
        },
        {
          "name": "G4",
          "midi": 67,
          "time": 100.82708333333295,
          "velocity": 0.6062992125984252,
          "duration": 0.18541666666666856
        },
        {
          "name": "D4",
          "midi": 62,
          "time": 100.93124999999962,
          "velocity": 0.4645669291338583,
          "duration": 0.13958333333333428
        },
        {
          "name": "F4",
          "midi": 65,
          "time": 101.0479166666663,
          "velocity": 0.5826771653543307,
          "duration": 0.2552083333333286
        },
        {
          "name": "C2",
          "midi": 36,
          "time": 101.07083333333296,
          "velocity": 0.5196850393700787,
          "duration": 0.26874999999999716
        },
        {
          "name": "C4",
          "midi": 60,
          "time": 101.37395833333295,
          "velocity": 0.5275590551181102,
          "duration": 0.22083333333331723
        },
        {
          "name": "D4",
          "midi": 62,
          "time": 101.49062499999961,
          "velocity": 0.5590551181102362,
          "duration": 0.13958333333332007
        },
        {
          "name": "A#2",
          "midi": 46,
          "time": 101.56041666666627,
          "velocity": 0.4881889763779528,
          "duration": 0.1510416666666572
        },
        {
          "name": "C4",
          "midi": 60,
          "time": 101.72291666666626,
          "velocity": 0.4251968503937008,
          "duration": 0.13958333333333428
        },
        {
          "name": "A#2",
          "midi": 46,
          "time": 101.72291666666626,
          "velocity": 0.5275590551181102,
          "duration": 0.4531250000000142
        },
        {
          "name": "D4",
          "midi": 62,
          "time": 101.83854166666626,
          "velocity": 0.3779527559055118,
          "duration": 0.23229166666668277
        },
        {
          "name": "F2",
          "midi": 41,
          "time": 101.8499999999996,
          "velocity": 0.5118110236220472,
          "duration": 0.20937500000000853
        },
        {
          "name": "F2",
          "midi": 41,
          "time": 102.0593749999996,
          "velocity": 0.5590551181102362,
          "duration": 0.31354166666667993
        },
        {
          "name": "D4",
          "midi": 62,
          "time": 102.07083333333294,
          "velocity": 0.4566929133858268,
          "duration": 0.24375000000000568
        },
        {
          "name": "A#2",
          "midi": 46,
          "time": 102.17499999999961,
          "velocity": 0.4330708661417323,
          "duration": 0.24375000000000568
        },
        {
          "name": "G4",
          "midi": 67,
          "time": 102.18645833333295,
          "velocity": 0.6062992125984252,
          "duration": 0.2552083333333286
        },
        {
          "name": "A#2",
          "midi": 46,
          "time": 102.41874999999962,
          "velocity": 0.5039370078740157,
          "duration": 0.22083333333331723
        },
        {
          "name": "A4",
          "midi": 69,
          "time": 102.52395833333294,
          "velocity": 0.5511811023622047,
          "duration": 0.13958333333333428
        },
        {
          "name": "A#2",
          "midi": 46,
          "time": 102.63958333333294,
          "velocity": 0.6535433070866141,
          "duration": 0.23229166666666856
        },
        {
          "name": "F2",
          "midi": 41,
          "time": 102.69791666666627,
          "velocity": 0.5669291338582677,
          "duration": 0.16249999999999432
        },
        {
          "name": "C5",
          "midi": 72,
          "time": 102.86041666666627,
          "velocity": 0.29133858267716534,
          "duration": 0.1510416666666714
        },
        {
          "name": "B1",
          "midi": 35,
          "time": 102.86041666666627,
          "velocity": 0.4566929133858268,
          "duration": 0.23229166666666856
        },
        {
          "name": "C4",
          "midi": 60,
          "time": 102.8718749999996,
          "velocity": 0.36220472440944884,
          "duration": 0.2906250000000057
        },
        {
          "name": "F2",
          "midi": 41,
          "time": 102.8718749999996,
          "velocity": 0.47244094488188976,
          "duration": 0.16249999999999432
        },
        {
          "name": "C3",
          "midi": 48,
          "time": 103.09270833333294,
          "velocity": 0.48031496062992124,
          "duration": 0.22187500000001137
        },
        {
          "name": "C2",
          "midi": 36,
          "time": 103.13854166666627,
          "velocity": 0.3937007874015748,
          "duration": 0.2916666666666714
        },
        {
          "name": "G2",
          "midi": 43,
          "time": 103.16249999999961,
          "velocity": 0.5984251968503937,
          "duration": 0.1875
        },
        {
          "name": "C4",
          "midi": 60,
          "time": 103.30312499999961,
          "velocity": 0.41732283464566927,
          "duration": 0.33645833333333997
        },
        {
          "name": "C3",
          "midi": 48,
          "time": 103.40729166666628,
          "velocity": 0.3779527559055118,
          "duration": 0.22083333333333144
        },
        {
          "name": "C2",
          "midi": 36,
          "time": 103.43020833333294,
          "velocity": 0.4566929133858268,
          "duration": 0.3479166666666771
        },
        {
          "name": "G#2",
          "midi": 44,
          "time": 103.47708333333294,
          "velocity": 0.5511811023622047,
          "duration": 0.24375000000000568
        },
        {
          "name": "A2",
          "midi": 45,
          "time": 103.76666666666628,
          "velocity": 0.7086614173228346,
          "duration": 0.23229166666666856
        },
        {
          "name": "D4",
          "midi": 62,
          "time": 103.77916666666628,
          "velocity": 0.3858267716535433,
          "duration": 0.1510416666666714
        },
        {
          "name": "C2",
          "midi": 36,
          "time": 103.77916666666628,
          "velocity": 0.49606299212598426,
          "duration": 0.23229166666666856
        },
        {
          "name": "A2",
          "midi": 45,
          "time": 103.99895833333295,
          "velocity": 0.7165354330708661,
          "duration": 0.22083333333333144
        },
        {
          "name": "E3",
          "midi": 52,
          "time": 104.01041666666629,
          "velocity": 0.4015748031496063,
          "duration": 0.13958333333333428
        },
        {
          "name": "C#5",
          "midi": 73,
          "time": 104.21979166666628,
          "velocity": 0.47244094488188976,
          "duration": 0.2666666666666657
        },
        {
          "name": "E4",
          "midi": 64,
          "time": 104.21979166666628,
          "velocity": 0.3937007874015748,
          "duration": 0.42916666666667425
        },
        {
          "name": "A2",
          "midi": 45,
          "time": 104.21979166666628,
          "velocity": 0.49606299212598426,
          "duration": 0.17395833333333144
        },
        {
          "name": "G2",
          "midi": 43,
          "time": 104.21979166666628,
          "velocity": 0.5748031496062992,
          "duration": 0.2552083333333286
        },
        {
          "name": "G4",
          "midi": 67,
          "time": 104.23124999999962,
          "velocity": 0.44881889763779526,
          "duration": 0.2666666666666657
        },
        {
          "name": "C3",
          "midi": 48,
          "time": 104.45208333333295,
          "velocity": 0.4566929133858268,
          "duration": 0.20937500000000853
        },
        {
          "name": "F2",
          "midi": 41,
          "time": 104.45208333333295,
          "velocity": 0.49606299212598426,
          "duration": 0.23229166666668277
        },
        {
          "name": "E3",
          "midi": 52,
          "time": 104.6729166666663,
          "velocity": 0.3700787401574803,
          "duration": 0.18541666666666856
        },
        {
          "name": "D5",
          "midi": 74,
          "time": 104.90520833333296,
          "velocity": 0.5118110236220472,
          "duration": 0.19687500000000568
        },
        {
          "name": "F4",
          "midi": 65,
          "time": 104.90520833333296,
          "velocity": 0.4094488188976378,
          "duration": 0.1510416666666714
        },
        {
          "name": "F3",
          "midi": 53,
          "time": 104.90520833333296,
          "velocity": 0.4566929133858268,
          "duration": 0.18541666666666856
        },
        {
          "name": "A#2",
          "midi": 46,
          "time": 104.90520833333296,
          "velocity": 0.5275590551181102,
          "duration": 0.24375000000000568
        },
        {
          "name": "A4",
          "midi": 69,
          "time": 104.9166666666663,
          "velocity": 0.4566929133858268,
          "duration": 0.17395833333333144
        },
        {
          "name": "D4",
          "midi": 62,
          "time": 105.14895833333297,
          "velocity": 0.4645669291338583,
          "duration": 0.21041666666667425
        },
        {
          "name": "A#2",
          "midi": 46,
          "time": 105.14895833333297,
          "velocity": 0.36220472440944884,
          "duration": 0.19895833333333712
        },
        {
          "name": "A3",
          "midi": 57,
          "time": 105.25312499999964,
          "velocity": 0.5511811023622047,
          "duration": 0.21041666666667425
        },
        {
          "name": "F2",
          "midi": 41,
          "time": 105.25312499999964,
          "velocity": 0.5433070866141733,
          "duration": 0.26875000000001137
        },
        {
          "name": "A#2",
          "midi": 46,
          "time": 105.34687499999964,
          "velocity": 0.6771653543307087,
          "duration": 0.37187500000000284
        },
        {
          "name": "D4",
          "midi": 62,
          "time": 105.35937499999964,
          "velocity": 0.49606299212598426,
          "duration": 0.23229166666666856
        },
        {
          "name": "D4",
          "midi": 62,
          "time": 105.59062499999965,
          "velocity": 0.47244094488188976,
          "duration": 0.18541666666666856
        },
        {
          "name": "A3",
          "midi": 57,
          "time": 105.66041666666631,
          "velocity": 0.6062992125984252,
          "duration": 0.1395833333333485
        },
        {
          "name": "E4",
          "midi": 64,
          "time": 105.811458333333,
          "velocity": 0.5354330708661418,
          "duration": 0.3135416666666657
        },
        {
          "name": "G3",
          "midi": 55,
          "time": 105.811458333333,
          "velocity": 0.5196850393700787,
          "duration": 0.46458333333335133
        },
        {
          "name": "C#3",
          "midi": 49,
          "time": 105.858333333333,
          "velocity": 0.4251968503937008,
          "duration": 0.18541666666666856
        },
        {
          "name": "C#2",
          "midi": 37,
          "time": 105.86979166666633,
          "velocity": 0.4330708661417323,
          "duration": 0.18541666666666856
        },
        {
          "name": "A2",
          "midi": 45,
          "time": 105.973958333333,
          "velocity": 0.3700787401574803,
          "duration": 0.16249999999999432
        },
        {
          "name": "C#3",
          "midi": 49,
          "time": 106.04374999999966,
          "velocity": 0.41732283464566927,
          "duration": 0.22083333333334565
        },
        {
          "name": "C#2",
          "midi": 37,
          "time": 106.055208333333,
          "velocity": 0.4409448818897638,
          "duration": 0.31354166666667993
        },
        {
          "name": "A2",
          "midi": 45,
          "time": 106.14791666666633,
          "velocity": 0.6062992125984252,
          "duration": 0.3020833333333428
        },
        {
          "name": "F4",
          "midi": 65,
          "time": 106.16041666666634,
          "velocity": 0.3937007874015748,
          "duration": 0.33645833333333997
        },
        {
          "name": "C#3",
          "midi": 49,
          "time": 106.26458333333301,
          "velocity": 0.6062992125984252,
          "duration": 0.3604166666666657
        },
        {
          "name": "G4",
          "midi": 67,
          "time": 106.49687499999968,
          "velocity": 0.5354330708661418,
          "duration": 0.4177083333333229
        },
        {
          "name": "F4",
          "midi": 65,
          "time": 106.49687499999968,
          "velocity": 0.49606299212598426,
          "duration": 0.4645833333333229
        },
        {
          "name": "C4",
          "midi": 60,
          "time": 106.50833333333301,
          "velocity": 0.44881889763779526,
          "duration": 0.4531249999999858
        },
        {
          "name": "C#2",
          "midi": 37,
          "time": 106.53124999999967,
          "velocity": 0.5039370078740157,
          "duration": 0.17395833333333144
        },
        {
          "name": "D2",
          "midi": 38,
          "time": 106.74062499999967,
          "velocity": 0.5039370078740157,
          "duration": 0.23229166666666856
        },
        {
          "name": "A4",
          "midi": 69,
          "time": 106.961458333333,
          "velocity": 0.5275590551181102,
          "duration": 0.1510416666666714
        },
        {
          "name": "F4",
          "midi": 65,
          "time": 106.961458333333,
          "velocity": 0.5433070866141733,
          "duration": 0.1510416666666714
        },
        {
          "name": "C4",
          "midi": 60,
          "time": 106.961458333333,
          "velocity": 0.4566929133858268,
          "duration": 0.16250000000000853
        },
        {
          "name": "D2",
          "midi": 38,
          "time": 106.97291666666634,
          "velocity": 0.5196850393700787,
          "duration": 0.20937500000000853
        },
        {
          "name": "A2",
          "midi": 45,
          "time": 107.06562499999967,
          "velocity": 0.7401574803149606,
          "duration": 0.31458333333334565
        },
        {
          "name": "D3",
          "midi": 50,
          "time": 107.18124999999968,
          "velocity": 0.5984251968503937,
          "duration": 0.4312500000000057
        },
        {
          "name": "D2",
          "midi": 38,
          "time": 107.18124999999968,
          "velocity": 0.5275590551181102,
          "duration": 0.23333333333333428
        },
        {
          "name": "F4",
          "midi": 65,
          "time": 107.40312499999968,
          "velocity": 0.5984251968503937,
          "duration": 0.19687500000000568
        },
        {
          "name": "D2",
          "midi": 38,
          "time": 107.41562499999968,
          "velocity": 0.49606299212598426,
          "duration": 0.17395833333333144
        },
        {
          "name": "G4",
          "midi": 67,
          "time": 107.63541666666634,
          "velocity": 0.4645669291338583,
          "duration": 0.1510416666666714
        },
        {
          "name": "C2",
          "midi": 36,
          "time": 107.64687499999968,
          "velocity": 0.4881889763779528,
          "duration": 0.23229166666665435
        },
        {
          "name": "A4",
          "midi": 69,
          "time": 107.85624999999968,
          "velocity": 0.6771653543307087,
          "duration": 0.13958333333333428
        },
        {
          "name": "G4",
          "midi": 67,
          "time": 107.97291666666634,
          "velocity": 0.4566929133858268,
          "duration": 0.17395833333334565
        },
        {
          "name": "C#3",
          "midi": 49,
          "time": 107.97291666666634,
          "velocity": 0.49606299212598426,
          "duration": 0.22083333333334565
        },
        {
          "name": "C#2",
          "midi": 37,
          "time": 107.98437499999967,
          "velocity": 0.5039370078740157,
          "duration": 0.24375000000000568
        },
        {
          "name": "F4",
          "midi": 65,
          "time": 108.19270833333302,
          "velocity": 0.6929133858267716,
          "duration": 0.13958333333333428
        },
        {
          "name": "D3",
          "midi": 50,
          "time": 108.32083333333301,
          "velocity": 0.5118110236220472,
          "duration": 0.20937499999999432
        },
        {
          "name": "F4",
          "midi": 65,
          "time": 108.33229166666635,
          "velocity": 0.49606299212598426,
          "duration": 0.17395833333333144
        },
        {
          "name": "D2",
          "midi": 38,
          "time": 108.33229166666635,
          "velocity": 0.5590551181102362,
          "duration": 0.19687499999999147
        },
        {
          "name": "G#4",
          "midi": 68,
          "time": 108.55312499999967,
          "velocity": 0.5433070866141733,
          "duration": 0.24375000000000568
        },
        {
          "name": "D4",
          "midi": 62,
          "time": 108.55312499999967,
          "velocity": 0.49606299212598426,
          "duration": 0.20937499999999432
        },
        {
          "name": "A#3",
          "midi": 58,
          "time": 108.55312499999967,
          "velocity": 0.5511811023622047,
          "duration": 0.23229166666666856
        },
        {
          "name": "A#2",
          "midi": 46,
          "time": 108.611458333333,
          "velocity": 0.30708661417322836,
          "duration": 0.1510416666666572
        },
        {
          "name": "E2",
          "midi": 40,
          "time": 108.63437499999966,
          "velocity": 0.5354330708661418,
          "duration": 0.17395833333334565
        },
        {
          "name": "A#2",
          "midi": 46,
          "time": 108.773958333333,
          "velocity": 0.6614173228346457,
          "duration": 0.23229166666668277
        },
        {
          "name": "E2",
          "midi": 40,
          "time": 108.80833333333301,
          "velocity": 0.4330708661417323,
          "duration": 0.4416666666666771
        },
        {
          "name": "G4",
          "midi": 67,
          "time": 109.00624999999968,
          "velocity": 0.5354330708661418,
          "duration": 0.24375000000000568
        },
        {
          "name": "A#3",
          "midi": 58,
          "time": 109.00624999999968,
          "velocity": 0.44881889763779526,
          "duration": 0.22083333333333144
        },
        {
          "name": "E3",
          "midi": 52,
          "time": 109.00624999999968,
          "velocity": 0.5118110236220472,
          "duration": 0.3500000000000085
        },
        {
          "name": "A#2",
          "midi": 46,
          "time": 109.00624999999968,
          "velocity": 0.6299212598425197,
          "duration": 0.2562500000000085
        },
        {
          "name": "D4",
          "midi": 62,
          "time": 109.05208333333302,
          "velocity": 0.44881889763779526,
          "duration": 0.18541666666666856
        },
        {
          "name": "E2",
          "midi": 40,
          "time": 109.24999999999969,
          "velocity": 0.5826771653543307,
          "duration": 0.16354166666667425
        },
        {
          "name": "F4",
          "midi": 65,
          "time": 109.44791666666636,
          "velocity": 0.5748031496062992,
          "duration": 0.22083333333331723
        },
        {
          "name": "C#4",
          "midi": 61,
          "time": 109.44791666666636,
          "velocity": 0.36220472440944884,
          "duration": 0.13958333333332007
        },
        {
          "name": "G3",
          "midi": 55,
          "time": 109.51770833333302,
          "velocity": 0.5590551181102362,
          "duration": 0.1510416666666572
        },
        {
          "name": "F4",
          "midi": 65,
          "time": 109.66874999999968,
          "velocity": 0.5590551181102362,
          "duration": 0.18541666666666856
        },
        {
          "name": "D4",
          "midi": 62,
          "time": 109.79687499999967,
          "velocity": 0.4881889763779528,
          "duration": 0.1510416666666714
        },
        {
          "name": "E2",
          "midi": 40,
          "time": 109.88958333333301,
          "velocity": 0.48031496062992124,
          "duration": 0.1510416666666714
        },
        {
          "name": "A2",
          "midi": 45,
          "time": 109.95937499999968,
          "velocity": 0.6377952755905512,
          "duration": 0.22083333333333144
        },
        {
          "name": "E3",
          "midi": 52,
          "time": 110.13333333333301,
          "velocity": 0.6141732283464567,
          "duration": 0.4416666666666629
        },
        {
          "name": "C4",
          "midi": 60,
          "time": 110.14479166666635,
          "velocity": 0.4330708661417323,
          "duration": 0.27812499999998863
        },
        {
          "name": "G3",
          "midi": 55,
          "time": 110.14479166666635,
          "velocity": 0.6220472440944882,
          "duration": 0.4416666666666629
        },
        {
          "name": "D2",
          "midi": 38,
          "time": 110.35416666666634,
          "velocity": 0.49606299212598426,
          "duration": 0.37187499999998863
        },
        {
          "name": "F3",
          "midi": 53,
          "time": 110.58645833333301,
          "velocity": 0.5354330708661418,
          "duration": 0.19687499999999147
        },
        {
          "name": "A2",
          "midi": 45,
          "time": 110.70208333333301,
          "velocity": 0.7165354330708661,
          "duration": 0.33645833333332575
        },
        {
          "name": "D2",
          "midi": 38,
          "time": 110.72499999999967,
          "velocity": 0.4881889763779528,
          "duration": 0.3135416666666657
        },
        {
          "name": "D3",
          "midi": 50,
          "time": 110.817708333333,
          "velocity": 0.7401574803149606,
          "duration": 0.23229166666666856
        },
        {
          "name": "D2",
          "midi": 38,
          "time": 111.03854166666633,
          "velocity": 0.5354330708661418,
          "duration": 0.21041666666666003
        },
        {
          "name": "A4",
          "midi": 69,
          "time": 111.04999999999967,
          "velocity": 0.3700787401574803,
          "duration": 0.22187499999998295
        },
        {
          "name": "A3",
          "midi": 57,
          "time": 111.04999999999967,
          "velocity": 0.3779527559055118,
          "duration": 0.22187499999998295
        },
        {
          "name": "D3",
          "midi": 50,
          "time": 111.04999999999967,
          "velocity": 0.3858267716535433,
          "duration": 0.16249999999999432
        },
        {
          "name": "A4",
          "midi": 69,
          "time": 111.27187499999965,
          "velocity": 0.3700787401574803,
          "duration": 0.22083333333333144
        },
        {
          "name": "A3",
          "midi": 57,
          "time": 111.27187499999965,
          "velocity": 0.4251968503937008,
          "duration": 0.3135416666666657
        },
        {
          "name": "C#3",
          "midi": 49,
          "time": 111.27187499999965,
          "velocity": 0.4881889763779528,
          "duration": 0.23229166666666856
        },
        {
          "name": "C#2",
          "midi": 37,
          "time": 111.27187499999965,
          "velocity": 0.49606299212598426,
          "duration": 0.23229166666666856
        },
        {
          "name": "A4",
          "midi": 69,
          "time": 111.49270833333298,
          "velocity": 0.6456692913385826,
          "duration": 0.1395833333333485
        },
        {
          "name": "B1",
          "midi": 35,
          "time": 111.59687499999966,
          "velocity": 0.3700787401574803,
          "duration": 0.22083333333333144
        },
        {
          "name": "C4",
          "midi": 60,
          "time": 111.620833333333,
          "velocity": 0.4566929133858268,
          "duration": 0.17395833333333144
        },
        {
          "name": "D4",
          "midi": 62,
          "time": 111.95729166666632,
          "velocity": 0.5118110236220472,
          "duration": 0.2552083333333286
        },
        {
          "name": "A2",
          "midi": 45,
          "time": 111.95729166666632,
          "velocity": 0.5826771653543307,
          "duration": 0.23229166666666856
        },
        {
          "name": "A#2",
          "midi": 46,
          "time": 112.41041666666632,
          "velocity": 0.47244094488188976,
          "duration": 0.20937500000000853
        },
        {
          "name": "F2",
          "midi": 41,
          "time": 112.50312499999966,
          "velocity": 0.5984251968503937,
          "duration": 0.38333333333333997
        },
        {
          "name": "D5",
          "midi": 74,
          "time": 112.514583333333,
          "velocity": 0.4881889763779528,
          "duration": 0.23229166666666856
        },
        {
          "name": "A4",
          "midi": 69,
          "time": 112.52604166666633,
          "velocity": 0.5511811023622047,
          "duration": 0.22083333333333144
        },
        {
          "name": "F4",
          "midi": 65,
          "time": 112.52604166666633,
          "velocity": 0.5039370078740157,
          "duration": 0.13958333333333428
        },
        {
          "name": "A#2",
          "midi": 46,
          "time": 112.61874999999966,
          "velocity": 0.7874015748031497,
          "duration": 0.24374999999999147
        },
        {
          "name": "D5",
          "midi": 74,
          "time": 112.74687499999966,
          "velocity": 0.4645669291338583,
          "duration": 0.22083333333333144
        },
        {
          "name": "A4",
          "midi": 69,
          "time": 112.74687499999966,
          "velocity": 0.5511811023622047,
          "duration": 0.20937499999999432
        },
        {
          "name": "A#2",
          "midi": 46,
          "time": 112.86249999999966,
          "velocity": 0.5905511811023622,
          "duration": 0.23229166666666856
        },
        {
          "name": "E5",
          "midi": 76,
          "time": 112.97916666666633,
          "velocity": 0.48031496062992124,
          "duration": 0.32604166666665435
        },
        {
          "name": "A#4",
          "midi": 70,
          "time": 112.97916666666633,
          "velocity": 0.5118110236220472,
          "duration": 0.2916666666666572
        },
        {
          "name": "G4",
          "midi": 67,
          "time": 112.97916666666633,
          "velocity": 0.49606299212598426,
          "duration": 0.32604166666665435
        },
        {
          "name": "C#2",
          "midi": 37,
          "time": 113.09479166666632,
          "velocity": 0.4330708661417323,
          "duration": 0.22187499999999716
        },
        {
          "name": "C#2",
          "midi": 37,
          "time": 113.31666666666632,
          "velocity": 0.4251968503937008,
          "duration": 0.42916666666666003
        },
        {
          "name": "A2",
          "midi": 45,
          "time": 113.38645833333298,
          "velocity": 0.6771653543307087,
          "duration": 0.16249999999999432
        },
        {
          "name": "C#3",
          "midi": 49,
          "time": 113.51458333333298,
          "velocity": 0.5590551181102362,
          "duration": 0.1510416666666714
        },
        {
          "name": "E5",
          "midi": 76,
          "time": 113.53749999999964,
          "velocity": 0.41732283464566927,
          "duration": 0.2552083333333428
        },
        {
          "name": "A2",
          "midi": 45,
          "time": 113.56041666666631,
          "velocity": 0.5433070866141733,
          "duration": 0.16250000000000853
        },
        {
          "name": "A#4",
          "midi": 70,
          "time": 113.65312499999965,
          "velocity": 0.6141732283464567,
          "duration": 0.23229166666666856
        },
        {
          "name": "G4",
          "midi": 67,
          "time": 113.66562499999965,
          "velocity": 0.36220472440944884,
          "duration": 0.17395833333333144
        },
        {
          "name": "C#3",
          "midi": 49,
          "time": 113.67708333333299,
          "velocity": 0.4566929133858268,
          "duration": 0.20937499999999432
        },
        {
          "name": "C#2",
          "midi": 37,
          "time": 113.74687499999965,
          "velocity": 0.4251968503937008,
          "duration": 0.18541666666666856
        },
        {
          "name": "C5",
          "midi": 72,
          "time": 113.87395833333298,
          "velocity": 0.3464566929133858,
          "duration": 0.2906250000000057
        },
        {
          "name": "F5",
          "midi": 77,
          "time": 113.88541666666632,
          "velocity": 0.5039370078740157,
          "duration": 0.13958333333333428
        },
        {
          "name": "A4",
          "midi": 69,
          "time": 113.88541666666632,
          "velocity": 0.44881889763779526,
          "duration": 0.3479166666666771
        },
        {
          "name": "D2",
          "midi": 38,
          "time": 113.97916666666632,
          "velocity": 0.5669291338582677,
          "duration": 0.32500000000000284
        },
        {
          "name": "F4",
          "midi": 65,
          "time": 114.22291666666632,
          "velocity": 0.4566929133858268,
          "duration": 0.23229166666665435
        },
        {
          "name": "A4",
          "midi": 69,
          "time": 114.23437499999966,
          "velocity": 0.4330708661417323,
          "duration": 0.22083333333331723
        },
        {
          "name": "D2",
          "midi": 38,
          "time": 114.30416666666632,
          "velocity": 0.5511811023622047,
          "duration": 0.13958333333332007
        },
        {
          "name": "A2",
          "midi": 45,
          "time": 114.32708333333298,
          "velocity": 0.6692913385826772,
          "duration": 0.37187500000000284
        },
        {
          "name": "D2",
          "midi": 38,
          "time": 114.44270833333297,
          "velocity": 0.4015748031496063,
          "duration": 0.2552083333333428
        },
        {
          "name": "A4",
          "midi": 69,
          "time": 114.45416666666631,
          "velocity": 0.4330708661417323,
          "duration": 0.19687500000000568
        },
        {
          "name": "F4",
          "midi": 65,
          "time": 114.45416666666631,
          "velocity": 0.48031496062992124,
          "duration": 0.33645833333333997
        },
        {
          "name": "D3",
          "midi": 50,
          "time": 114.51249999999965,
          "velocity": 0.6377952755905512,
          "duration": 0.24375000000000568
        },
        {
          "name": "G4",
          "midi": 67,
          "time": 114.68645833333298,
          "velocity": 0.44881889763779526,
          "duration": 0.36041666666667993
        },
        {
          "name": "D2",
          "midi": 38,
          "time": 114.69895833333298,
          "velocity": 0.4881889763779528,
          "duration": 0.19687500000000568
        },
        {
          "name": "F4",
          "midi": 65,
          "time": 114.79166666666632,
          "velocity": 0.48031496062992124,
          "duration": 0.5697916666666742
        },
        {
          "name": "D4",
          "midi": 62,
          "time": 114.79166666666632,
          "velocity": 0.4094488188976378,
          "duration": 0.45416666666667993
        },
        {
          "name": "D3",
          "midi": 50,
          "time": 114.79166666666632,
          "velocity": 0.36220472440944884,
          "duration": 0.38333333333333997
        },
        {
          "name": "C2",
          "midi": 36,
          "time": 114.90729166666632,
          "velocity": 0.33070866141732286,
          "duration": 0.22083333333333144
        },
        {
          "name": "B1",
          "midi": 35,
          "time": 115.245833333333,
          "velocity": 0.4094488188976378,
          "duration": 0.18541666666665435
        },
        {
          "name": "F4",
          "midi": 65,
          "time": 115.36145833333299,
          "velocity": 0.6062992125984252,
          "duration": 0.2666666666666515
        },
        {
          "name": "G4",
          "midi": 67,
          "time": 115.59374999999964,
          "velocity": 0.5748031496062992,
          "duration": 0.19687499999999147
        },
        {
          "name": "A2",
          "midi": 45,
          "time": 115.59374999999964,
          "velocity": 0.6535433070866141,
          "duration": 0.22083333333333144
        },
        {
          "name": "G#4",
          "midi": 68,
          "time": 115.81458333333298,
          "velocity": 0.44881889763779526,
          "duration": 0.3479166666666771
        },
        {
          "name": "A#3",
          "midi": 58,
          "time": 115.81458333333298,
          "velocity": 0.4094488188976378,
          "duration": 0.33645833333333997
        },
        {
          "name": "D4",
          "midi": 62,
          "time": 115.82604166666631,
          "velocity": 0.4094488188976378,
          "duration": 0.33645833333333997
        },
        {
          "name": "E2",
          "midi": 40,
          "time": 115.82604166666631,
          "velocity": 0.5590551181102362,
          "duration": 0.19687500000000568
        },
        {
          "name": "E2",
          "midi": 40,
          "time": 116.02291666666632,
          "velocity": 0.5905511811023622,
          "duration": 0.13958333333333428
        },
        {
          "name": "A#3",
          "midi": 58,
          "time": 116.15104166666632,
          "velocity": 0.4566929133858268,
          "duration": 0.17395833333334565
        },
        {
          "name": "A#2",
          "midi": 46,
          "time": 116.15104166666632,
          "velocity": 0.7795275590551181,
          "duration": 0.1395833333333485
        },
        {
          "name": "G#4",
          "midi": 68,
          "time": 116.16249999999965,
          "velocity": 0.5039370078740157,
          "duration": 0.3479166666666771
        },
        {
          "name": "D4",
          "midi": 62,
          "time": 116.16249999999965,
          "velocity": 0.41732283464566927,
          "duration": 0.24375000000000568
        },
        {
          "name": "E2",
          "midi": 40,
          "time": 116.16249999999965,
          "velocity": 0.47244094488188976,
          "duration": 0.33645833333333997
        },
        {
          "name": "E3",
          "midi": 52,
          "time": 116.26666666666632,
          "velocity": 0.5669291338582677,
          "duration": 0.2906250000000057
        },
        {
          "name": "A#2",
          "midi": 46,
          "time": 116.29062499999966,
          "velocity": 0.6614173228346457,
          "duration": 0.23229166666666856
        },
        {
          "name": "E2",
          "midi": 40,
          "time": 116.498958333333,
          "velocity": 0.5669291338582677,
          "duration": 0.22083333333333144
        },
        {
          "name": "G#4",
          "midi": 68,
          "time": 116.51041666666633,
          "velocity": 0.5984251968503937,
          "duration": 0.22083333333333144
        },
        {
          "name": "G4",
          "midi": 67,
          "time": 116.73124999999966,
          "velocity": 0.4251968503937008,
          "duration": 0.1510416666666714
        },
        {
          "name": "C#4",
          "midi": 61,
          "time": 116.73124999999966,
          "velocity": 0.4251968503937008,
          "duration": 0.13958333333333428
        },
        {
          "name": "A2",
          "midi": 45,
          "time": 116.73124999999966,
          "velocity": 0.2992125984251969,
          "duration": 0.27812500000000284
        },
        {
          "name": "G3",
          "midi": 55,
          "time": 116.789583333333,
          "velocity": 0.4645669291338583,
          "duration": 0.3020833333333428
        },
        {
          "name": "F4",
          "midi": 65,
          "time": 117.067708333333,
          "velocity": 0.4409448818897638,
          "duration": 0.3500000000000085
        },
        {
          "name": "G3",
          "midi": 55,
          "time": 117.09166666666634,
          "velocity": 0.49606299212598426,
          "duration": 0.4072916666666657
        },
        {
          "name": "E2",
          "midi": 40,
          "time": 117.10312499999968,
          "velocity": 0.36220472440944884,
          "duration": 0.17499999999999716
        },
        {
          "name": "A2",
          "midi": 45,
          "time": 117.23229166666634,
          "velocity": 0.6220472440944882,
          "duration": 0.3604166666666657
        },
        {
          "name": "C#4",
          "midi": 61,
          "time": 117.37083333333301,
          "velocity": 0.44881889763779526,
          "duration": 0.1510416666666572
        },
        {
          "name": "D2",
          "midi": 38,
          "time": 117.61562499999967,
          "velocity": 0.4881889763779528,
          "duration": 0.23229166666666856
        },
        {
          "name": "F3",
          "midi": 53,
          "time": 117.627083333333,
          "velocity": 0.5826771653543307,
          "duration": 0.23229166666666856
        },
        {
          "name": "D4",
          "midi": 62,
          "time": 117.63854166666634,
          "velocity": 0.30708661417322836,
          "duration": 0.23229166666666856
        },
        {
          "name": "A3",
          "midi": 57,
          "time": 117.63854166666634,
          "velocity": 0.33858267716535434,
          "duration": 0.22083333333333144
        },
        {
          "name": "D2",
          "midi": 38,
          "time": 117.84687499999967,
          "velocity": 0.4015748031496063,
          "duration": 0.24375000000000568
        },
        {
          "name": "A3",
          "midi": 57,
          "time": 117.85937499999967,
          "velocity": 0.4645669291338583,
          "duration": 0.23229166666666856
        },
        {
          "name": "F3",
          "midi": 53,
          "time": 117.85937499999967,
          "velocity": 0.6299212598425197,
          "duration": 0.23229166666666856
        },
        {
          "name": "D3",
          "midi": 50,
          "time": 117.85937499999967,
          "velocity": 0.5905511811023622,
          "duration": 0.23229166666666856
        },
        {
          "name": "A3",
          "midi": 57,
          "time": 118.09166666666634,
          "velocity": 0.4015748031496063,
          "duration": 0.13958333333333428
        },
        {
          "name": "F3",
          "midi": 53,
          "time": 118.09166666666634,
          "velocity": 0.5748031496062992,
          "duration": 0.20937500000000853
        },
        {
          "name": "D2",
          "midi": 38,
          "time": 118.09166666666634,
          "velocity": 0.5196850393700787,
          "duration": 0.18541666666666856
        },
        {
          "name": "G3",
          "midi": 55,
          "time": 118.32291666666634,
          "velocity": 0.4645669291338583,
          "duration": 0.13958333333333428
        },
        {
          "name": "D3",
          "midi": 50,
          "time": 118.42812499999968,
          "velocity": 0.49606299212598426,
          "duration": 0.453125
        },
        {
          "name": "A3",
          "midi": 57,
          "time": 118.43958333333302,
          "velocity": 0.33858267716535434,
          "duration": 0.1510416666666572
        },
        {
          "name": "F3",
          "midi": 53,
          "time": 118.43958333333302,
          "velocity": 0.4881889763779528,
          "duration": 0.3947916666666629
        },
        {
          "name": "D2",
          "midi": 38,
          "time": 118.43958333333302,
          "velocity": 0.6141732283464567,
          "duration": 0.4989583333333343
        },
        {
          "name": "A5",
          "midi": 81,
          "time": 118.77604166666634,
          "velocity": 0.30708661417322836,
          "duration": 0.23229166666668277
        },
        {
          "name": "G5",
          "midi": 79,
          "time": 118.77604166666634,
          "velocity": 0.5118110236220472,
          "duration": 0.22083333333334565
        },
        {
          "name": "C#5",
          "midi": 73,
          "time": 118.77604166666634,
          "velocity": 0.6141732283464567,
          "duration": 0.23229166666668277
        },
        {
          "name": "A2",
          "midi": 45,
          "time": 118.82291666666634,
          "velocity": 0.4409448818897638,
          "duration": 0.17395833333334565
        },
        {
          "name": "E4",
          "midi": 64,
          "time": 118.88020833333302,
          "velocity": 0.3779527559055118,
          "duration": 0.2552083333333428
        },
        {
          "name": "G5",
          "midi": 79,
          "time": 118.99687499999969,
          "velocity": 0.5118110236220472,
          "duration": 0.23333333333332007
        },
        {
          "name": "A3",
          "midi": 57,
          "time": 118.99687499999969,
          "velocity": 0.4330708661417323,
          "duration": 0.19687499999999147
        },
        {
          "name": "A5",
          "midi": 81,
          "time": 119.00833333333303,
          "velocity": 0.3700787401574803,
          "duration": 0.16249999999999432
        },
        {
          "name": "C#5",
          "midi": 73,
          "time": 119.00833333333303,
          "velocity": 0.5669291338582677,
          "duration": 0.3145833333333172
        },
        {
          "name": "A2",
          "midi": 45,
          "time": 119.00833333333303,
          "velocity": 0.6456692913385826,
          "duration": 0.22187499999998295
        },
        {
          "name": "A2",
          "midi": 45,
          "time": 119.23020833333301,
          "velocity": 0.6535433070866141,
          "duration": 0.47604166666666003
        },
        {
          "name": "D3",
          "midi": 50,
          "time": 119.439583333333,
          "velocity": 0.7165354330708661,
          "duration": 0.3604166666666657
        },
        {
          "name": "F5",
          "midi": 77,
          "time": 119.67187499999967,
          "velocity": 0.48031496062992124,
          "duration": 0.23229166666666856
        },
        {
          "name": "A3",
          "midi": 57,
          "time": 119.67187499999967,
          "velocity": 0.5433070866141733,
          "duration": 0.3479166666666629
        },
        {
          "name": "D5",
          "midi": 74,
          "time": 119.78749999999967,
          "velocity": 0.4645669291338583,
          "duration": 0.20937500000000853
        },
        {
          "name": "D4",
          "midi": 62,
          "time": 119.78749999999967,
          "velocity": 0.3464566929133858,
          "duration": 0.19687500000000568
        },
        {
          "name": "F4",
          "midi": 65,
          "time": 119.798958333333,
          "velocity": 0.48031496062992124,
          "duration": 0.52291666666666
        },
        {
          "name": "D3",
          "midi": 50,
          "time": 119.798958333333,
          "velocity": 0.6299212598425197,
          "duration": 0.33645833333332575
        },
        {
          "name": "F5",
          "midi": 77,
          "time": 119.90312499999968,
          "velocity": 0.49606299212598426,
          "duration": 0.23229166666665435
        },
        {
          "name": "A3",
          "midi": 57,
          "time": 120.01979166666634,
          "velocity": 0.6535433070866141,
          "duration": 0.38333333333332575
        },
        {
          "name": "F5",
          "midi": 77,
          "time": 120.13541666666633,
          "velocity": 0.4094488188976378,
          "duration": 0.47604166666666003
        },
        {
          "name": "D3",
          "midi": 50,
          "time": 120.13541666666633,
          "velocity": 0.7086614173228346,
          "duration": 0.23229166666666856
        },
        {
          "name": "G5",
          "midi": 79,
          "time": 120.35624999999966,
          "velocity": 0.4645669291338583,
          "duration": 0.27812499999998863
        },
        {
          "name": "C#3",
          "midi": 49,
          "time": 120.367708333333,
          "velocity": 0.6456692913385826,
          "duration": 0.6854166666666686
        },
        {
          "name": "A3",
          "midi": 57,
          "time": 120.58854166666633,
          "velocity": 0.5354330708661418,
          "duration": 0.33645833333332575
        },
        {
          "name": "A#5",
          "midi": 82,
          "time": 120.69270833333299,
          "velocity": 0.47244094488188976,
          "duration": 0.3479166666666771
        },
        {
          "name": "E4",
          "midi": 64,
          "time": 120.71666666666633,
          "velocity": 0.4094488188976378,
          "duration": 0.2666666666666657
        },
        {
          "name": "A3",
          "midi": 57,
          "time": 120.92499999999966,
          "velocity": 0.5354330708661418,
          "duration": 0.4072916666666657
        },
        {
          "name": "A2",
          "midi": 45,
          "time": 120.92499999999966,
          "velocity": 0.4015748031496063,
          "duration": 0.26875000000001137
        },
        {
          "name": "A#5",
          "midi": 82,
          "time": 121.04166666666633,
          "velocity": 0.48031496062992124,
          "duration": 0.15208333333333712
        },
        {
          "name": "C#3",
          "midi": 49,
          "time": 121.05312499999967,
          "velocity": 0.6062992125984252,
          "duration": 0.21041666666666003
        },
        {
          "name": "D3",
          "midi": 50,
          "time": 121.26354166666633,
          "velocity": 0.6456692913385826,
          "duration": 0.6968749999999773
        },
        {
          "name": "A#5",
          "midi": 82,
          "time": 121.37916666666632,
          "velocity": 0.4330708661417323,
          "duration": 0.4062499999999858
        },
        {
          "name": "A3",
          "midi": 57,
          "time": 121.49583333333298,
          "velocity": 0.6692913385826772,
          "duration": 0.33645833333332575
        },
        {
          "name": "F4",
          "midi": 65,
          "time": 121.61145833333298,
          "velocity": 0.4645669291338583,
          "duration": 0.2906249999999915
        },
        {
          "name": "A3",
          "midi": 57,
          "time": 121.83229166666631,
          "velocity": 0.6377952755905512,
          "duration": 0.3479166666666629
        },
        {
          "name": "D6",
          "midi": 86,
          "time": 121.9479166666663,
          "velocity": 0.49606299212598426,
          "duration": 0.23229166666666856
        },
        {
          "name": "D3",
          "midi": 50,
          "time": 121.95937499999964,
          "velocity": 0.7165354330708661,
          "duration": 0.23229166666666856
        },
        {
          "name": "D6",
          "midi": 86,
          "time": 122.18020833333297,
          "velocity": 0.5196850393700787,
          "duration": 0.23229166666666856
        },
        {
          "name": "A5",
          "midi": 81,
          "time": 122.18020833333297,
          "velocity": 0.4566929133858268,
          "duration": 0.17395833333333144
        },
        {
          "name": "A3",
          "midi": 57,
          "time": 122.18020833333297,
          "velocity": 0.3779527559055118,
          "duration": 0.23229166666666856
        },
        {
          "name": "D3",
          "midi": 50,
          "time": 122.19166666666631,
          "velocity": 0.6299212598425197,
          "duration": 0.6614583333333144
        },
        {
          "name": "F5",
          "midi": 77,
          "time": 122.41249999999964,
          "velocity": 0.3937007874015748,
          "duration": 0.22083333333333144
        },
        {
          "name": "A3",
          "midi": 57,
          "time": 122.41249999999964,
          "velocity": 0.6062992125984252,
          "duration": 0.33645833333332575
        },
        {
          "name": "F4",
          "midi": 65,
          "time": 122.51666666666631,
          "velocity": 0.44881889763779526,
          "duration": 0.34791666666664867
        },
        {
          "name": "D6",
          "midi": 86,
          "time": 122.63333333333297,
          "velocity": 0.5039370078740157,
          "duration": 0.1510416666666572
        },
        {
          "name": "A5",
          "midi": 81,
          "time": 122.63333333333297,
          "velocity": 0.3858267716535433,
          "duration": 0.1510416666666572
        },
        {
          "name": "F5",
          "midi": 77,
          "time": 122.63333333333297,
          "velocity": 0.44881889763779526,
          "duration": 0.1510416666666572
        },
        {
          "name": "A3",
          "midi": 57,
          "time": 122.74895833333296,
          "velocity": 0.5669291338582677,
          "duration": 0.3604166666666515
        },
        {
          "name": "D5",
          "midi": 74,
          "time": 122.85416666666629,
          "velocity": 0.5354330708661418,
          "duration": 0.1510416666666714
        },
        {
          "name": "D4",
          "midi": 62,
          "time": 122.85416666666629,
          "velocity": 0.33858267716535434,
          "duration": 0.1510416666666714
        },
        {
          "name": "D3",
          "midi": 50,
          "time": 122.85416666666629,
          "velocity": 0.6692913385826772,
          "duration": 0.41875000000000284
        },
        {
          "name": "C5",
          "midi": 72,
          "time": 122.98124999999962,
          "velocity": 0.48031496062992124,
          "duration": 0.1875
        },
        {
          "name": "A#2",
          "midi": 46,
          "time": 123.08645833333296,
          "velocity": 0.7244094488188977,
          "duration": 0.6864583333333485
        },
        {
          "name": "F3",
          "midi": 53,
          "time": 123.31979166666629,
          "velocity": 0.5984251968503937,
          "duration": 0.33645833333333997
        },
        {
          "name": "D4",
          "midi": 62,
          "time": 123.42395833333296,
          "velocity": 0.47244094488188976,
          "duration": 0.4645833333333371
        },
        {
          "name": "A#4",
          "midi": 70,
          "time": 123.53958333333296,
          "velocity": 0.47244094488188976,
          "duration": 0.17395833333334565
        },
        {
          "name": "A#3",
          "midi": 58,
          "time": 123.55208333333296,
          "velocity": 0.33858267716535434,
          "duration": 0.1510416666666714
        },
        {
          "name": "F3",
          "midi": 53,
          "time": 123.65624999999963,
          "velocity": 0.5748031496062992,
          "duration": 0.42916666666666003
        },
        {
          "name": "D5",
          "midi": 74,
          "time": 123.7604166666663,
          "velocity": 0.5196850393700787,
          "duration": 0.20937499999999432
        },
        {
          "name": "A#2",
          "midi": 46,
          "time": 123.77187499999964,
          "velocity": 0.6220472440944882,
          "duration": 0.37187499999998863
        },
        {
          "name": "C3",
          "midi": 48,
          "time": 123.99270833333296,
          "velocity": 0.6614173228346457,
          "duration": 0.6968749999999915
        },
        {
          "name": "C5",
          "midi": 72,
          "time": 124.0041666666663,
          "velocity": 0.47244094488188976,
          "duration": 0.2906249999999915
        },
        {
          "name": "G3",
          "midi": 55,
          "time": 124.22499999999962,
          "velocity": 0.6220472440944882,
          "duration": 0.3479166666666629
        },
        {
          "name": "D5",
          "midi": 74,
          "time": 124.32916666666628,
          "velocity": 0.3779527559055118,
          "duration": 0.16250000000000853
        },
        {
          "name": "E4",
          "midi": 64,
          "time": 124.35312499999962,
          "velocity": 0.4881889763779528,
          "duration": 0.49895833333332007
        },
        {
          "name": "G3",
          "midi": 55,
          "time": 124.57291666666629,
          "velocity": 0.5590551181102362,
          "duration": 0.3479166666666629
        },
        {
          "name": "C5",
          "midi": 72,
          "time": 124.68958333333295,
          "velocity": 0.4645669291338583,
          "duration": 0.2666666666666657
        },
        {
          "name": "C3",
          "midi": 48,
          "time": 124.68958333333295,
          "velocity": 0.6456692913385826,
          "duration": 0.2906250000000057
        },
        {
          "name": "D3",
          "midi": 50,
          "time": 124.91041666666628,
          "velocity": 0.6456692913385826,
          "duration": 0.6749999999999972
        },
        {
          "name": "A4",
          "midi": 69,
          "time": 125.14270833333295,
          "velocity": 0.25196850393700787,
          "duration": 0.12916666666666288
        },
        {
          "name": "A3",
          "midi": 57,
          "time": 125.14270833333295,
          "velocity": 0.6377952755905512,
          "duration": 0.32604166666666856
        },
        {
          "name": "F4",
          "midi": 65,
          "time": 125.24791666666628,
          "velocity": 0.4645669291338583,
          "duration": 0.18541666666665435
        },
        {
          "name": "G#4",
          "midi": 68,
          "time": 125.27083333333294,
          "velocity": 0.4645669291338583,
          "duration": 0.17395833333333144
        },
        {
          "name": "A3",
          "midi": 57,
          "time": 125.46874999999962,
          "velocity": 0.6141732283464567,
          "duration": 0.38333333333332575
        },
        {
          "name": "D3",
          "midi": 50,
          "time": 125.58437499999961,
          "velocity": 0.5669291338582677,
          "duration": 0.453125
        },
        {
          "name": "E5",
          "midi": 76,
          "time": 125.80520833333294,
          "velocity": 0.5118110236220472,
          "duration": 0.22083333333333144
        },
        {
          "name": "C6",
          "midi": 84,
          "time": 125.81666666666628,
          "velocity": 0.49606299212598426,
          "duration": 0.24374999999999147
        },
        {
          "name": "C3",
          "midi": 48,
          "time": 125.81666666666628,
          "velocity": 0.6771653543307087,
          "duration": 0.6968749999999915
        },
        {
          "name": "G5",
          "midi": 79,
          "time": 125.9218749999996,
          "velocity": 0.48031496062992124,
          "duration": 0.19687500000000568
        },
        {
          "name": "A3",
          "midi": 57,
          "time": 126.03749999999961,
          "velocity": 0.5590551181102362,
          "duration": 0.47604166666666003
        },
        {
          "name": "D6",
          "midi": 86,
          "time": 126.1531249999996,
          "velocity": 0.4015748031496063,
          "duration": 0.18541666666666856
        },
        {
          "name": "F5",
          "midi": 77,
          "time": 126.1531249999996,
          "velocity": 0.41732283464566927,
          "duration": 0.18541666666666856
        },
        {
          "name": "E4",
          "midi": 64,
          "time": 126.16562499999961,
          "velocity": 0.4566929133858268,
          "duration": 0.27812500000000284
        },
        {
          "name": "A3",
          "midi": 57,
          "time": 126.51354166666627,
          "velocity": 0.5511811023622047,
          "duration": 0.24374999999999147
        },
        {
          "name": "C3",
          "midi": 48,
          "time": 126.51354166666627,
          "velocity": 0.6456692913385826,
          "duration": 0.33645833333332575
        },
        {
          "name": "A#2",
          "midi": 46,
          "time": 126.72291666666626,
          "velocity": 0.7007874015748031,
          "duration": 0.6864583333333343
        },
        {
          "name": "F3",
          "midi": 53,
          "time": 126.95520833333293,
          "velocity": 0.6535433070866141,
          "duration": 0.3374999999999915
        },
        {
          "name": "D4",
          "midi": 62,
          "time": 127.07083333333293,
          "velocity": 0.5196850393700787,
          "duration": 0.3375000000000057
        },
        {
          "name": "A#4",
          "midi": 70,
          "time": 127.17708333333293,
          "velocity": 0.48031496062992124,
          "duration": 0.18541666666666856
        },
        {
          "name": "A#3",
          "midi": 58,
          "time": 127.17708333333293,
          "velocity": 0.3464566929133858,
          "duration": 0.13958333333333428
        },
        {
          "name": "F3",
          "midi": 53,
          "time": 127.29270833333293,
          "velocity": 0.7007874015748031,
          "duration": 0.16250000000000853
        },
        {
          "name": "D5",
          "midi": 74,
          "time": 127.3968749999996,
          "velocity": 0.5039370078740157,
          "duration": 0.20937500000000853
        },
        {
          "name": "D4",
          "midi": 62,
          "time": 127.40833333333293,
          "velocity": 0.44881889763779526,
          "duration": 0.17395833333333144
        },
        {
          "name": "A#2",
          "midi": 46,
          "time": 127.40833333333293,
          "velocity": 0.6299212598425197,
          "duration": 0.37187499999998863
        },
        {
          "name": "F3",
          "midi": 53,
          "time": 127.45520833333293,
          "velocity": 0.5433070866141733,
          "duration": 0.3020833333333286
        },
        {
          "name": "C5",
          "midi": 72,
          "time": 127.62916666666626,
          "velocity": 0.4330708661417323,
          "duration": 0.32499999999998863
        },
        {
          "name": "C3",
          "midi": 48,
          "time": 127.62916666666626,
          "velocity": 0.6771653543307087,
          "duration": 0.6968750000000057
        },
        {
          "name": "G3",
          "midi": 55,
          "time": 127.82708333333292,
          "velocity": 0.5984251968503937,
          "duration": 0.13958333333333428
        },
        {
          "name": "E4",
          "midi": 64,
          "time": 127.9781249999996,
          "velocity": 0.5118110236220472,
          "duration": 0.5458333333333343
        },
        {
          "name": "G3",
          "midi": 55,
          "time": 127.9781249999996,
          "velocity": 0.6141732283464567,
          "duration": 0.3479166666666771
        },
        {
          "name": "E5",
          "midi": 76,
          "time": 128.31458333333293,
          "velocity": 0.36220472440944884,
          "duration": 0.1510416666666572
        },
        {
          "name": "G3",
          "midi": 55,
          "time": 128.32604166666627,
          "velocity": 0.4881889763779528,
          "duration": 0.22083333333333144
        },
        {
          "name": "C3",
          "midi": 48,
          "time": 128.32604166666627,
          "velocity": 0.7716535433070866,
          "duration": 0.22083333333333144
        },
        {
          "name": "F5",
          "midi": 77,
          "time": 128.53541666666626,
          "velocity": 0.5590551181102362,
          "duration": 0.24374999999997726
        },
        {
          "name": "C3",
          "midi": 48,
          "time": 128.5468749999996,
          "velocity": 0.49606299212598426,
          "duration": 0.17395833333333144
        },
        {
          "name": "A2",
          "midi": 45,
          "time": 128.5468749999996,
          "velocity": 0.7086614173228346,
          "duration": 0.34791666666663446
        },
        {
          "name": "G3",
          "midi": 55,
          "time": 128.76666666666625,
          "velocity": 0.6299212598425197,
          "duration": 0.361458333333303
        },
        {
          "name": "C4",
          "midi": 60,
          "time": 128.8833333333329,
          "velocity": 0.5590551181102362,
          "duration": 0.361458333333303
        },
        {
          "name": "A2",
          "midi": 45,
          "time": 128.89479166666624,
          "velocity": 0.6220472440944882,
          "duration": 0.32604166666664014
        },
        {
          "name": "G3",
          "midi": 55,
          "time": 129.12812499999956,
          "velocity": 0.5826771653543307,
          "duration": 0.33645833333332575
        },
        {
          "name": "A2",
          "midi": 45,
          "time": 129.22083333333288,
          "velocity": 0.7716535433070866,
          "duration": 0.22083333333333144
        },
        {
          "name": "D3",
          "midi": 50,
          "time": 129.4416666666662,
          "velocity": 0.6614173228346457,
          "duration": 0.6968750000000057
        },
        {
          "name": "A2",
          "midi": 45,
          "time": 129.4416666666662,
          "velocity": 0.5354330708661418,
          "duration": 0.16249999999999432
        },
        {
          "name": "G#5",
          "midi": 80,
          "time": 129.67395833333288,
          "velocity": 0.48031496062992124,
          "duration": 0.17395833333333144
        },
        {
          "name": "F5",
          "midi": 77,
          "time": 129.67395833333288,
          "velocity": 0.5196850393700787,
          "duration": 0.17395833333333144
        },
        {
          "name": "A3",
          "midi": 57,
          "time": 129.67395833333288,
          "velocity": 0.6141732283464567,
          "duration": 0.47604166666667425
        },
        {
          "name": "F4",
          "midi": 65,
          "time": 129.79062499999955,
          "velocity": 0.41732283464566927,
          "duration": 0.453125
        },
        {
          "name": "G5",
          "midi": 79,
          "time": 129.90624999999955,
          "velocity": 0.5039370078740157,
          "duration": 0.17395833333333144
        },
        {
          "name": "E5",
          "midi": 76,
          "time": 129.90624999999955,
          "velocity": 0.44881889763779526,
          "duration": 0.1510416666666572
        },
        {
          "name": "F5",
          "midi": 77,
          "time": 130.12708333333288,
          "velocity": 0.44881889763779526,
          "duration": 0.18541666666666856
        },
        {
          "name": "D5",
          "midi": 74,
          "time": 130.1385416666662,
          "velocity": 0.41732283464566927,
          "duration": 0.22083333333333144
        },
        {
          "name": "D3",
          "midi": 50,
          "time": 130.1385416666662,
          "velocity": 0.5905511811023622,
          "duration": 0.3947916666666629
        },
        {
          "name": "A3",
          "midi": 57,
          "time": 130.14999999999955,
          "velocity": 0.5275590551181102,
          "duration": 0.23229166666666856
        },
        {
          "name": "G#5",
          "midi": 80,
          "time": 130.35937499999955,
          "velocity": 0.4251968503937008,
          "duration": 0.20937499999999432
        },
        {
          "name": "D5",
          "midi": 74,
          "time": 130.35937499999955,
          "velocity": 0.5196850393700787,
          "duration": 0.24375000000000568
        },
        {
          "name": "E3",
          "midi": 52,
          "time": 130.35937499999955,
          "velocity": 0.6456692913385826,
          "duration": 0.3479166666666629
        },
        {
          "name": "G#3",
          "midi": 56,
          "time": 130.60312499999955,
          "velocity": 0.49606299212598426,
          "duration": 0.33645833333332575
        },
        {
          "name": "D5",
          "midi": 74,
          "time": 130.7072916666662,
          "velocity": 0.33858267716535434,
          "duration": 0.1510416666666572
        },
        {
          "name": "A#4",
          "midi": 70,
          "time": 130.7072916666662,
          "velocity": 0.3858267716535433,
          "duration": 0.17395833333333144
        },
        {
          "name": "D4",
          "midi": 62,
          "time": 130.7072916666662,
          "velocity": 0.4330708661417323,
          "duration": 0.26666666666667993
        },
        {
          "name": "E3",
          "midi": 52,
          "time": 130.7072916666662,
          "velocity": 0.5275590551181102,
          "duration": 0.3364583333333542
        },
        {
          "name": "D3",
          "midi": 50,
          "time": 130.7072916666662,
          "velocity": 0.25196850393700787,
          "duration": 0.13958333333332007
        },
        {
          "name": "G#3",
          "midi": 56,
          "time": 130.93958333333288,
          "velocity": 0.4251968503937008,
          "duration": 1.0114583333333655
        },
        {
          "name": "D5",
          "midi": 74,
          "time": 131.04374999999956,
          "velocity": 0.4330708661417323,
          "duration": 0.2333333333333485
        },
        {
          "name": "A#4",
          "midi": 70,
          "time": 131.04374999999956,
          "velocity": 0.3700787401574803,
          "duration": 0.2333333333333485
        },
        {
          "name": "E3",
          "midi": 52,
          "time": 131.04374999999956,
          "velocity": 0.48031496062992124,
          "duration": 1.1510416666666856
        },
        {
          "name": "E2",
          "midi": 40,
          "time": 131.13854166666624,
          "velocity": 0.31496062992125984,
          "duration": 0.3020833333333428
        },
        {
          "name": "D5",
          "midi": 74,
          "time": 131.2770833333329,
          "velocity": 0.41732283464566927,
          "duration": 0.24375000000000568
        },
        {
          "name": "A#4",
          "midi": 70,
          "time": 131.2770833333329,
          "velocity": 0.3858267716535433,
          "duration": 0.3020833333333428
        },
        {
          "name": "G#4",
          "midi": 68,
          "time": 131.2770833333329,
          "velocity": 0.5039370078740157,
          "duration": 0.3020833333333428
        },
        {
          "name": "E4",
          "midi": 64,
          "time": 131.49791666666624,
          "velocity": 0.49606299212598426,
          "duration": 0.6156249999999943
        },
        {
          "name": "D4",
          "midi": 62,
          "time": 131.71874999999957,
          "velocity": 0.4645669291338583,
          "duration": 0.4645833333333371
        },
        {
          "name": "G#3",
          "midi": 56,
          "time": 131.95104166666624,
          "velocity": 0.5905511811023622,
          "duration": 0.23229166666666856
        },
        {
          "name": "E5",
          "midi": 76,
          "time": 132.17187499999957,
          "velocity": 0.25196850393700787,
          "duration": 0.15104166666668561
        },
        {
          "name": "D5",
          "midi": 74,
          "time": 132.1833333333329,
          "velocity": 0.28346456692913385,
          "duration": 0.1395833333333485
        },
        {
          "name": "A4",
          "midi": 69,
          "time": 132.1833333333329,
          "velocity": 0.3858267716535433,
          "duration": 0.15104166666668561
        },
        {
          "name": "A3",
          "midi": 57,
          "time": 132.1833333333329,
          "velocity": 0.4645669291338583,
          "duration": 0.15104166666668561
        },
        {
          "name": "A2",
          "midi": 45,
          "time": 132.1833333333329,
          "velocity": 0.7165354330708661,
          "duration": 0.15104166666668561
        },
        {
          "name": "E3",
          "midi": 52,
          "time": 132.19479166666625,
          "velocity": 0.4251968503937008,
          "duration": 0.2906250000000057
        },
        {
          "name": "E5",
          "midi": 76,
          "time": 132.32187499999958,
          "velocity": 0.5275590551181102,
          "duration": 0.23229166666669698
        },
        {
          "name": "D5",
          "midi": 74,
          "time": 132.32187499999958,
          "velocity": 0.4094488188976378,
          "duration": 0.15104166666668561
        },
        {
          "name": "A4",
          "midi": 69,
          "time": 132.3343749999996,
          "velocity": 0.47244094488188976,
          "duration": 0.18541666666666856
        },
        {
          "name": "A3",
          "midi": 57,
          "time": 132.3343749999996,
          "velocity": 0.2992125984251969,
          "duration": 0.1510416666666572
        },
        {
          "name": "A2",
          "midi": 45,
          "time": 132.3343749999996,
          "velocity": 0.5905511811023622,
          "duration": 0.20937500000002274
        },
        {
          "name": "D5",
          "midi": 74,
          "time": 132.47291666666626,
          "velocity": 0.3543307086614173,
          "duration": 0.31354166666667993
        },
        {
          "name": "A3",
          "midi": 57,
          "time": 132.48541666666625,
          "velocity": 0.4251968503937008,
          "duration": 0.30208333333337123
        },
        {
          "name": "E3",
          "midi": 52,
          "time": 132.48541666666625,
          "velocity": 0.7007874015748031,
          "duration": 0.30208333333337123
        },
        {
          "name": "A2",
          "midi": 45,
          "time": 132.54270833333294,
          "velocity": 0.7165354330708661,
          "duration": 0.24375000000000568
        },
        {
          "name": "D5",
          "midi": 74,
          "time": 132.78645833333294,
          "velocity": 0.5118110236220472,
          "duration": 0.16250000000002274
        },
        {
          "name": "A3",
          "midi": 57,
          "time": 132.78645833333294,
          "velocity": 0.48031496062992124,
          "duration": 0.26666666666667993
        },
        {
          "name": "E3",
          "midi": 52,
          "time": 132.78645833333294,
          "velocity": 0.6456692913385826,
          "duration": 0.16250000000002274
        },
        {
          "name": "A2",
          "midi": 45,
          "time": 132.78645833333294,
          "velocity": 0.5984251968503937,
          "duration": 0.16250000000002274
        },
        {
          "name": "E5",
          "midi": 76,
          "time": 132.93749999999963,
          "velocity": 0.31496062992125984,
          "duration": 0.21041666666667425
        },
        {
          "name": "D5",
          "midi": 74,
          "time": 132.94895833333297,
          "velocity": 0.3464566929133858,
          "duration": 0.13958333333332007
        },
        {
          "name": "E3",
          "midi": 52,
          "time": 132.94895833333297,
          "velocity": 0.6299212598425197,
          "duration": 0.1510416666666572
        },
        {
          "name": "A2",
          "midi": 45,
          "time": 132.94895833333297,
          "velocity": 0.6614173228346457,
          "duration": 0.22187500000001137
        },
        {
          "name": "D5",
          "midi": 74,
          "time": 133.0885416666663,
          "velocity": 0.4094488188976378,
          "duration": 0.45416666666667993
        },
        {
          "name": "E3",
          "midi": 52,
          "time": 133.09999999999962,
          "velocity": 0.7322834645669292,
          "duration": 0.4427083333333428
        },
        {
          "name": "A2",
          "midi": 45,
          "time": 133.17083333333298,
          "velocity": 0.7322834645669292,
          "duration": 0.37187499999998863
        },
        {
          "name": "D5",
          "midi": 74,
          "time": 133.54270833333297,
          "velocity": 0.47244094488188976,
          "duration": 0.3020833333333428
        },
        {
          "name": "A3",
          "midi": 57,
          "time": 133.54270833333297,
          "velocity": 0.47244094488188976,
          "duration": 0.453125
        },
        {
          "name": "E3",
          "midi": 52,
          "time": 133.54270833333297,
          "velocity": 0.7244094488188977,
          "duration": 0.453125
        },
        {
          "name": "A2",
          "midi": 45,
          "time": 133.54270833333297,
          "velocity": 0.7007874015748031,
          "duration": 0.453125
        },
        {
          "name": "G#5",
          "midi": 80,
          "time": 133.56562499999964,
          "velocity": 0.2992125984251969,
          "duration": 0.2906250000000057
        },
        {
          "name": "C#5",
          "midi": 73,
          "time": 133.99583333333297,
          "velocity": 0.5354330708661418,
          "duration": 0.16249999999999432
        },
        {
          "name": "A3",
          "midi": 57,
          "time": 133.99583333333297,
          "velocity": 0.3858267716535433,
          "duration": 0.3604166666666515
        },
        {
          "name": "E3",
          "midi": 52,
          "time": 133.99583333333297,
          "velocity": 0.5433070866141733,
          "duration": 0.3135416666666515
        },
        {
          "name": "A2",
          "midi": 45,
          "time": 133.99583333333297,
          "velocity": 0.7559055118110236,
          "duration": 0.17395833333333144
        },
        {
          "name": "A5",
          "midi": 81,
          "time": 134.14687499999962,
          "velocity": 0.30708661417322836,
          "duration": 0.2552083333333144
        },
        {
          "name": "C#5",
          "midi": 73,
          "time": 134.15833333333296,
          "velocity": 0.5826771653543307,
          "duration": 0.1510416666666572
        },
        {
          "name": "G#2",
          "midi": 44,
          "time": 134.1697916666663,
          "velocity": 0.49606299212598426,
          "duration": 0.13958333333332007
        },
        {
          "name": "C#5",
          "midi": 73,
          "time": 134.30937499999962,
          "velocity": 0.41732283464566927,
          "duration": 0.33645833333332575
        },
        {
          "name": "E3",
          "midi": 52,
          "time": 134.30937499999962,
          "velocity": 0.3779527559055118,
          "duration": 0.2666666666666515
        },
        {
          "name": "A2",
          "midi": 45,
          "time": 134.30937499999962,
          "velocity": 0.4330708661417323,
          "duration": 0.32499999999998863
        },
        {
          "name": "G2",
          "midi": 43,
          "time": 134.30937499999962,
          "velocity": 0.5905511811023622,
          "duration": 0.16249999999999432
        },
        {
          "name": "F#2",
          "midi": 42,
          "time": 134.4718749999996,
          "velocity": 0.41732283464566927,
          "duration": 0.2666666666666515
        },
        {
          "name": "A2",
          "midi": 45,
          "time": 134.6343749999996,
          "velocity": 0.3700787401574803,
          "duration": 0.27812499999998863
        },
        {
          "name": "C#5",
          "midi": 73,
          "time": 134.64583333333294,
          "velocity": 0.5039370078740157,
          "duration": 0.17395833333333144
        },
        {
          "name": "F#2",
          "midi": 42,
          "time": 134.73854166666626,
          "velocity": 0.36220472440944884,
          "duration": 0.18541666666666856
        },
        {
          "name": "E2",
          "midi": 40,
          "time": 134.7968749999996,
          "velocity": 0.4015748031496063,
          "duration": 0.22083333333333144
        },
        {
          "name": "C#5",
          "midi": 73,
          "time": 134.81979166666628,
          "velocity": 0.5275590551181102,
          "duration": 0.17395833333333144
        },
        {
          "name": "C#5",
          "midi": 73,
          "time": 134.9937499999996,
          "velocity": 0.5118110236220472,
          "duration": 0.1875
        },
        {
          "name": "D#2",
          "midi": 39,
          "time": 135.0749999999996,
          "velocity": 0.4094488188976378,
          "duration": 0.5354166666666913
        },
        {
          "name": "A2",
          "midi": 45,
          "time": 135.16979166666627,
          "velocity": 0.3700787401574803,
          "duration": 0.19687500000000568
        },
        {
          "name": "C#5",
          "midi": 73,
          "time": 135.55208333333294,
          "velocity": 0.44881889763779526,
          "duration": 0.16249999999999432
        },
        {
          "name": "G2",
          "midi": 43,
          "time": 135.55208333333294,
          "velocity": 0.4015748031496063,
          "duration": 0.20937499999999432
        },
        {
          "name": "B1",
          "midi": 35,
          "time": 135.77291666666628,
          "velocity": 0.31496062992125984,
          "duration": 0.42916666666667425
        },
        {
          "name": "A2",
          "midi": 45,
          "time": 136.24895833333295,
          "velocity": 0.5669291338582677,
          "duration": 0.20937499999999432
        },
        {
          "name": "E3",
          "midi": 52,
          "time": 136.2843749999996,
          "velocity": 0.33858267716535434,
          "duration": 0.33645833333332575
        },
        {
          "name": "A2",
          "midi": 45,
          "time": 136.45833333333294,
          "velocity": 0.4409448818897638,
          "duration": 1.2781249999999886
        },
        {
          "name": "C#3",
          "midi": 49,
          "time": 136.62083333333294,
          "velocity": 0.30708661417322836,
          "duration": 0.3947916666666629
        },
        {
          "name": "E3",
          "midi": 52,
          "time": 136.8062499999996,
          "velocity": 0.36220472440944884,
          "duration": 0.7447916666666572
        },
        {
          "name": "C#3",
          "midi": 49,
          "time": 137.33020833333293,
          "velocity": 0.3700787401574803,
          "duration": 0.19687500000000568
        },
        {
          "name": "D6",
          "midi": 86,
          "time": 137.60833333333292,
          "velocity": 0.6614173228346457,
          "duration": 0.24375000000000568
        },
        {
          "name": "D5",
          "midi": 74,
          "time": 137.85208333333293,
          "velocity": 0.7086614173228346,
          "duration": 0.22083333333333144
        },
        {
          "name": "F4",
          "midi": 65,
          "time": 137.85208333333293,
          "velocity": 0.4645669291338583,
          "duration": 0.13958333333332007
        },
        {
          "name": "A#3",
          "midi": 58,
          "time": 137.85208333333293,
          "velocity": 0.49606299212598426,
          "duration": 0.16249999999999432
        },
        {
          "name": "A#2",
          "midi": 46,
          "time": 137.85208333333293,
          "velocity": 0.4251968503937008,
          "duration": 0.16249999999999432
        },
        {
          "name": "D5",
          "midi": 74,
          "time": 138.07291666666626,
          "velocity": 0.7086614173228346,
          "duration": 0.3479166666666629
        },
        {
          "name": "F4",
          "midi": 65,
          "time": 138.2937499999996,
          "velocity": 0.4251968503937008,
          "duration": 0.1395833333333485
        },
        {
          "name": "D4",
          "midi": 62,
          "time": 138.30520833333293,
          "velocity": 0.4251968503937008,
          "duration": 0.1395833333333485
        },
        {
          "name": "A#2",
          "midi": 46,
          "time": 138.30520833333293,
          "velocity": 0.4645669291338583,
          "duration": 0.18541666666669698
        },
        {
          "name": "A#3",
          "midi": 58,
          "time": 138.31666666666626,
          "velocity": 0.5196850393700787,
          "duration": 0.15104166666668561
        },
        {
          "name": "D5",
          "midi": 74,
          "time": 138.4218749999996,
          "velocity": 0.5826771653543307,
          "duration": 0.22083333333335986
        },
        {
          "name": "E5",
          "midi": 76,
          "time": 138.5260416666663,
          "velocity": 0.7086614173228346,
          "duration": 0.33645833333332575
        },
        {
          "name": "G4",
          "midi": 67,
          "time": 138.74687499999962,
          "velocity": 0.5354330708661418,
          "duration": 0.13958333333332007
        },
        {
          "name": "A3",
          "midi": 57,
          "time": 138.75833333333296,
          "velocity": 0.5748031496062992,
          "duration": 0.13958333333332007
        },
        {
          "name": "F5",
          "midi": 77,
          "time": 138.87395833333295,
          "velocity": 0.6062992125984252,
          "duration": 0.2562499999999943
        },
        {
          "name": "G5",
          "midi": 79,
          "time": 139.2124999999996,
          "velocity": 0.7165354330708661,
          "duration": 0.4645833333333087
        },
        {
          "name": "G4",
          "midi": 67,
          "time": 139.2124999999996,
          "velocity": 0.5433070866141733,
          "duration": 0.29062499999997726
        },
        {
          "name": "A3",
          "midi": 57,
          "time": 139.2124999999996,
          "velocity": 0.47244094488188976,
          "duration": 0.13958333333332007
        },
        {
          "name": "A5",
          "midi": 81,
          "time": 139.66458333333293,
          "velocity": 0.5039370078740157,
          "duration": 0.17395833333333144
        },
        {
          "name": "A4",
          "midi": 69,
          "time": 139.66458333333293,
          "velocity": 0.4251968503937008,
          "duration": 0.23229166666666856
        },
        {
          "name": "F4",
          "midi": 65,
          "time": 139.67708333333292,
          "velocity": 0.5354330708661418,
          "duration": 0.20937500000002274
        },
        {
          "name": "D4",
          "midi": 62,
          "time": 139.67708333333292,
          "velocity": 0.47244094488188976,
          "duration": 0.22083333333335986
        },
        {
          "name": "F5",
          "midi": 77,
          "time": 140.11770833333296,
          "velocity": 0.6456692913385826,
          "duration": 0.24375000000000568
        },
        {
          "name": "F4",
          "midi": 65,
          "time": 140.11770833333296,
          "velocity": 0.5748031496062992,
          "duration": 0.19687500000000568
        },
        {
          "name": "G5",
          "midi": 79,
          "time": 140.34999999999962,
          "velocity": 0.5669291338582677,
          "duration": 0.33645833333332575
        },
        {
          "name": "F4",
          "midi": 65,
          "time": 140.54687499999963,
          "velocity": 0.4881889763779528,
          "duration": 0.1510416666666572
        },
        {
          "name": "A4",
          "midi": 69,
          "time": 140.5822916666663,
          "velocity": 0.5433070866141733,
          "duration": 0.1510416666666572
        },
        {
          "name": "C4",
          "midi": 60,
          "time": 140.59374999999963,
          "velocity": 0.5196850393700787,
          "duration": 0.24374999999997726
        },
        {
          "name": "G5",
          "midi": 79,
          "time": 140.68645833333295,
          "velocity": 0.6929133858267716,
          "duration": 0.22083333333333144
        },
        {
          "name": "F5",
          "midi": 77,
          "time": 140.8843749999996,
          "velocity": 0.6929133858267716,
          "duration": 0.1395833333333485
        },
        {
          "name": "F5",
          "midi": 77,
          "time": 141.0354166666663,
          "velocity": 0.5433070866141733,
          "duration": 0.15208333333333712
        },
        {
          "name": "A4",
          "midi": 69,
          "time": 141.0354166666663,
          "velocity": 0.5984251968503937,
          "duration": 0.17500000000001137
        },
        {
          "name": "F4",
          "midi": 65,
          "time": 141.0354166666663,
          "velocity": 0.6141732283464567,
          "duration": 0.1875
        },
        {
          "name": "C4",
          "midi": 60,
          "time": 141.04687499999963,
          "velocity": 0.5039370078740157,
          "duration": 0.16354166666667425
        },
        {
          "name": "G#5",
          "midi": 80,
          "time": 141.2572916666663,
          "velocity": 0.6377952755905512,
          "duration": 0.24375000000000568
        },
        {
          "name": "G#4",
          "midi": 68,
          "time": 141.48958333333297,
          "velocity": 0.5669291338582677,
          "duration": 0.19687500000000568
        },
        {
          "name": "E4",
          "midi": 64,
          "time": 141.48958333333297,
          "velocity": 0.6062992125984252,
          "duration": 0.19687500000000568
        },
        {
          "name": "A#3",
          "midi": 58,
          "time": 141.48958333333297,
          "velocity": 0.6377952755905512,
          "duration": 0.20937499999999432
        },
        {
          "name": "G5",
          "midi": 79,
          "time": 141.70937499999962,
          "velocity": 0.7874015748031497,
          "duration": 0.24375000000000568
        },
        {
          "name": "G4",
          "midi": 67,
          "time": 141.9416666666663,
          "velocity": 0.6220472440944882,
          "duration": 0.22083333333333144
        },
        {
          "name": "E4",
          "midi": 64,
          "time": 141.9416666666663,
          "velocity": 0.5748031496062992,
          "duration": 0.20937499999999432
        },
        {
          "name": "A#3",
          "midi": 58,
          "time": 141.9416666666663,
          "velocity": 0.5590551181102362,
          "duration": 0.37187499999998863
        },
        {
          "name": "F5",
          "midi": 77,
          "time": 142.16249999999962,
          "velocity": 0.7322834645669292,
          "duration": 0.23229166666666856
        },
        {
          "name": "F5",
          "midi": 77,
          "time": 142.3947916666663,
          "velocity": 0.5118110236220472,
          "duration": 0.17395833333333144
        },
        {
          "name": "F4",
          "midi": 65,
          "time": 142.3947916666663,
          "velocity": 0.5354330708661418,
          "duration": 0.17395833333333144
        },
        {
          "name": "G3",
          "midi": 55,
          "time": 142.3947916666663,
          "velocity": 0.4409448818897638,
          "duration": 0.20937499999999432
        },
        {
          "name": "D5",
          "midi": 74,
          "time": 142.49895833333295,
          "velocity": 0.6456692913385826,
          "duration": 0.33645833333332575
        },
        {
          "name": "C5",
          "midi": 72,
          "time": 142.8593749999996,
          "velocity": 0.6062992125984252,
          "duration": 0.4427083333333144
        },
        {
          "name": "E3",
          "midi": 52,
          "time": 142.8593749999996,
          "velocity": 0.5196850393700787,
          "duration": 0.1989583333333087
        },
        {
          "name": "G3",
          "midi": 55,
          "time": 142.90520833333292,
          "velocity": 0.5354330708661418,
          "duration": 0.16354166666664582
        },
        {
          "name": "D5",
          "midi": 74,
          "time": 143.30104166666624,
          "velocity": 0.5433070866141733,
          "duration": 0.3364583333333542
        },
        {
          "name": "A3",
          "midi": 57,
          "time": 143.30104166666624,
          "velocity": 0.5354330708661418,
          "duration": 0.22083333333335986
        },
        {
          "name": "F3",
          "midi": 53,
          "time": 143.30104166666624,
          "velocity": 0.49606299212598426,
          "duration": 0.4531250000000284
        },
        {
          "name": "D4",
          "midi": 62,
          "time": 143.31354166666625,
          "velocity": 0.3858267716535433,
          "duration": 0.19687500000000568
        },
        {
          "name": "A5",
          "midi": 81,
          "time": 143.75416666666626,
          "velocity": 0.47244094488188976,
          "duration": 0.22083333333333144
        },
        {
          "name": "A3",
          "midi": 57,
          "time": 143.75416666666626,
          "velocity": 0.6377952755905512,
          "duration": 0.20937499999999432
        },
        {
          "name": "F3",
          "midi": 53,
          "time": 143.75416666666626,
          "velocity": 0.6141732283464567,
          "duration": 0.2906250000000057
        },
        {
          "name": "D4",
          "midi": 62,
          "time": 143.7656249999996,
          "velocity": 0.4645669291338583,
          "duration": 0.22083333333333144
        },
        {
          "name": "A5",
          "midi": 81,
          "time": 143.9749999999996,
          "velocity": 0.6850393700787402,
          "duration": 0.23229166666666856
        },
        {
          "name": "G5",
          "midi": 79,
          "time": 144.20729166666626,
          "velocity": 0.5669291338582677,
          "duration": 0.2906250000000057
        },
        {
          "name": "C4",
          "midi": 60,
          "time": 144.2187499999996,
          "velocity": 0.47244094488188976,
          "duration": 0.24375000000000568
        },
        {
          "name": "A3",
          "midi": 57,
          "time": 144.2187499999996,
          "velocity": 0.5433070866141733,
          "duration": 0.1510416666666572
        },
        {
          "name": "E3",
          "midi": 52,
          "time": 144.2187499999996,
          "velocity": 0.5354330708661418,
          "duration": 0.16249999999999432
        },
        {
          "name": "C6",
          "midi": 84,
          "time": 144.32291666666626,
          "velocity": 0.5905511811023622,
          "duration": 0.36041666666667993
        },
        {
          "name": "D6",
          "midi": 86,
          "time": 144.6718749999996,
          "velocity": 0.5748031496062992,
          "duration": 0.23229166666664014
        },
        {
          "name": "E3",
          "midi": 52,
          "time": 144.6718749999996,
          "velocity": 0.6299212598425197,
          "duration": 0.20937499999999432
        },
        {
          "name": "A2",
          "midi": 45,
          "time": 144.6718749999996,
          "velocity": 0.3228346456692913,
          "duration": 0.17395833333333144
        },
        {
          "name": "C4",
          "midi": 60,
          "time": 144.68333333333294,
          "velocity": 0.5039370078740157,
          "duration": 0.16249999999999432
        },
        {
          "name": "A3",
          "midi": 57,
          "time": 144.68333333333294,
          "velocity": 0.5275590551181102,
          "duration": 0.1510416666666572
        },
        {
          "name": "A#2",
          "midi": 46,
          "time": 144.89166666666625,
          "velocity": 0.7559055118110236,
          "duration": 0.22187499999998295
        },
        {
          "name": "D4",
          "midi": 62,
          "time": 145.11354166666624,
          "velocity": 0.5118110236220472,
          "duration": 0.18541666666666856
        },
        {
          "name": "A3",
          "midi": 57,
          "time": 145.11354166666624,
          "velocity": 0.5984251968503937,
          "duration": 0.17395833333333144
        },
        {
          "name": "F3",
          "midi": 53,
          "time": 145.11354166666624,
          "velocity": 0.5669291338582677,
          "duration": 0.22083333333333144
        },
        {
          "name": "A#2",
          "midi": 46,
          "time": 145.11354166666624,
          "velocity": 0.4881889763779528,
          "duration": 0.24375000000000568
        },
        {
          "name": "C6",
          "midi": 84,
          "time": 145.24166666666625,
          "velocity": 0.41732283464566927,
          "duration": 0.1510416666666572
        },
        {
          "name": "D6",
          "midi": 86,
          "time": 145.46249999999958,
          "velocity": 0.6062992125984252,
          "duration": 0.20937499999999432
        },
        {
          "name": "A3",
          "midi": 57,
          "time": 145.57812499999957,
          "velocity": 0.5669291338582677,
          "duration": 0.17395833333333144
        },
        {
          "name": "F3",
          "midi": 53,
          "time": 145.57812499999957,
          "velocity": 0.5590551181102362,
          "duration": 0.18541666666666856
        },
        {
          "name": "E6",
          "midi": 88,
          "time": 145.6833333333329,
          "velocity": 0.47244094488188976,
          "duration": 0.24375000000000568
        },
        {
          "name": "C#3",
          "midi": 49,
          "time": 145.7989583333329,
          "velocity": 0.6456692913385826,
          "duration": 0.37187499999998863
        },
        {
          "name": "E4",
          "midi": 64,
          "time": 146.03124999999957,
          "velocity": 0.44881889763779526,
          "duration": 0.4531249999999716
        },
        {
          "name": "A#3",
          "midi": 58,
          "time": 146.0427083333329,
          "velocity": 0.5590551181102362,
          "duration": 0.23229166666664014
        },
        {
          "name": "G3",
          "midi": 55,
          "time": 146.05416666666625,
          "velocity": 0.4094488188976378,
          "duration": 0.18541666666664014
        },
        {
          "name": "E6",
          "midi": 88,
          "time": 146.14687499999957,
          "velocity": 0.6614173228346457,
          "duration": 0.34791666666663446
        },
        {
          "name": "E4",
          "midi": 64,
          "time": 146.48437499999955,
          "velocity": 0.6062992125984252,
          "duration": 0.22083333333333144
        },
        {
          "name": "A#3",
          "midi": 58,
          "time": 146.49583333333288,
          "velocity": 0.5984251968503937,
          "duration": 0.20937499999999432
        },
        {
          "name": "G3",
          "midi": 55,
          "time": 146.49583333333288,
          "velocity": 0.5826771653543307,
          "duration": 0.20937499999999432
        },
        {
          "name": "D3",
          "midi": 50,
          "time": 146.71562499999953,
          "velocity": 0.7795275590551181,
          "duration": 0.23229166666666856
        },
        {
          "name": "A5",
          "midi": 81,
          "time": 146.93645833333287,
          "velocity": 0.4566929133858268,
          "duration": 0.22187500000001137
        },
        {
          "name": "D4",
          "midi": 62,
          "time": 146.93645833333287,
          "velocity": 0.5118110236220472,
          "duration": 0.22187500000001137
        },
        {
          "name": "A3",
          "midi": 57,
          "time": 146.93645833333287,
          "velocity": 0.6141732283464567,
          "duration": 0.21041666666667425
        },
        {
          "name": "F4",
          "midi": 65,
          "time": 146.9479166666662,
          "velocity": 0.48031496062992124,
          "duration": 0.15208333333333712
        },
        {
          "name": "D3",
          "midi": 50,
          "time": 146.9479166666662,
          "velocity": 0.5196850393700787,
          "duration": 0.32604166666666856
        },
        {
          "name": "A5",
          "midi": 81,
          "time": 147.15833333333288,
          "velocity": 0.6456692913385826,
          "duration": 0.22083333333333144
        },
        {
          "name": "G5",
          "midi": 79,
          "time": 147.39062499999955,
          "velocity": 0.5826771653543307,
          "duration": 0.17395833333335986
        },
        {
          "name": "F4",
          "midi": 65,
          "time": 147.39062499999955,
          "velocity": 0.5196850393700787,
          "duration": 0.20937500000002274
        },
        {
          "name": "A3",
          "midi": 57,
          "time": 147.40208333333288,
          "velocity": 0.5905511811023622,
          "duration": 0.1395833333333485
        },
        {
          "name": "F5",
          "midi": 77,
          "time": 147.50729166666622,
          "velocity": 0.5590551181102362,
          "duration": 0.3020833333333428
        },
        {
          "name": "C3",
          "midi": 48,
          "time": 147.62291666666624,
          "velocity": 0.7401574803149606,
          "duration": 0.23229166666666856
        },
        {
          "name": "A3",
          "midi": 57,
          "time": 147.84374999999957,
          "velocity": 0.6220472440944882,
          "duration": 0.22083333333333144
        },
        {
          "name": "F4",
          "midi": 65,
          "time": 147.8552083333329,
          "velocity": 0.5433070866141733,
          "duration": 0.22083333333333144
        },
        {
          "name": "C4",
          "midi": 60,
          "time": 147.8552083333329,
          "velocity": 0.5590551181102362,
          "duration": 0.20937499999999432
        },
        {
          "name": "C3",
          "midi": 48,
          "time": 147.8552083333329,
          "velocity": 0.5984251968503937,
          "duration": 0.19687500000000568
        },
        {
          "name": "F5",
          "midi": 77,
          "time": 148.07604166666624,
          "velocity": 0.6929133858267716,
          "duration": 0.26666666666667993
        },
        {
          "name": "F4",
          "midi": 65,
          "time": 148.07604166666624,
          "velocity": 0.3543307086614173,
          "duration": 0.23229166666666856
        },
        {
          "name": "G5",
          "midi": 79,
          "time": 148.3083333333329,
          "velocity": 0.5354330708661418,
          "duration": 0.22083333333335986
        },
        {
          "name": "F4",
          "midi": 65,
          "time": 148.3083333333329,
          "velocity": 0.5511811023622047,
          "duration": 0.16250000000002274
        },
        {
          "name": "C4",
          "midi": 60,
          "time": 148.3083333333329,
          "velocity": 0.6377952755905512,
          "duration": 0.20937500000002274
        },
        {
          "name": "A3",
          "midi": 57,
          "time": 148.3083333333329,
          "velocity": 0.6535433070866141,
          "duration": 0.18541666666669698
        },
        {
          "name": "G#5",
          "midi": 80,
          "time": 148.5281249999996,
          "velocity": 0.44881889763779526,
          "duration": 0.33645833333332575
        },
        {
          "name": "E3",
          "midi": 52,
          "time": 148.5281249999996,
          "velocity": 0.7874015748031497,
          "duration": 0.23229166666666856
        },
        {
          "name": "E4",
          "midi": 64,
          "time": 148.76041666666626,
          "velocity": 0.5118110236220472,
          "duration": 0.1395833333333485
        },
        {
          "name": "A#3",
          "midi": 58,
          "time": 148.76041666666626,
          "velocity": 0.5590551181102362,
          "duration": 0.22083333333335986
        },
        {
          "name": "G3",
          "midi": 55,
          "time": 148.76041666666626,
          "velocity": 0.4094488188976378,
          "duration": 0.20937500000002274
        },
        {
          "name": "E3",
          "midi": 52,
          "time": 148.76041666666626,
          "velocity": 0.5433070866141733,
          "duration": 0.35000000000002274
        },
        {
          "name": "G#5",
          "midi": 80,
          "time": 148.8656249999996,
          "velocity": 0.5748031496062992,
          "duration": 0.3375000000000057
        },
        {
          "name": "G#5",
          "midi": 80,
          "time": 149.2031249999996,
          "velocity": 0.5354330708661418,
          "duration": 0.24375000000000568
        },
        {
          "name": "E4",
          "midi": 64,
          "time": 149.2031249999996,
          "velocity": 0.5669291338582677,
          "duration": 0.19687500000000568
        },
        {
          "name": "A#3",
          "midi": 58,
          "time": 149.2031249999996,
          "velocity": 0.6141732283464567,
          "duration": 0.19687500000000568
        },
        {
          "name": "G3",
          "midi": 55,
          "time": 149.21458333333294,
          "velocity": 0.5354330708661418,
          "duration": 0.17395833333333144
        },
        {
          "name": "A2",
          "midi": 45,
          "time": 149.43541666666627,
          "velocity": 0.6850393700787402,
          "duration": 0.38333333333332575
        },
        {
          "name": "G5",
          "midi": 79,
          "time": 149.4468749999996,
          "velocity": 0.5118110236220472,
          "duration": 0.20937499999999432
        },
        {
          "name": "C#4",
          "midi": 61,
          "time": 149.66770833333294,
          "velocity": 0.48031496062992124,
          "duration": 0.20937499999999432
        },
        {
          "name": "G3",
          "midi": 55,
          "time": 149.66770833333294,
          "velocity": 0.4330708661417323,
          "duration": 0.22083333333333144
        },
        {
          "name": "E3",
          "midi": 52,
          "time": 149.66770833333294,
          "velocity": 0.5433070866141733,
          "duration": 0.24375000000000568
        },
        {
          "name": "F5",
          "midi": 77,
          "time": 149.78333333333293,
          "velocity": 0.6062992125984252,
          "duration": 0.32500000000001705
        },
        {
          "name": "C#5",
          "midi": 73,
          "time": 150.12083333333294,
          "velocity": 0.4094488188976378,
          "duration": 0.22083333333333144
        },
        {
          "name": "E3",
          "midi": 52,
          "time": 150.12083333333294,
          "velocity": 0.5590551181102362,
          "duration": 0.17395833333333144
        },
        {
          "name": "C#4",
          "midi": 61,
          "time": 150.13229166666628,
          "velocity": 0.5196850393700787,
          "duration": 0.1510416666666572
        },
        {
          "name": "G3",
          "midi": 55,
          "time": 150.13229166666628,
          "velocity": 0.5590551181102362,
          "duration": 0.16249999999999432
        },
        {
          "name": "D5",
          "midi": 74,
          "time": 150.3406249999996,
          "velocity": 0.3228346456692913,
          "duration": 0.23229166666666856
        },
        {
          "name": "D3",
          "midi": 50,
          "time": 150.3406249999996,
          "velocity": 0.7716535433070866,
          "duration": 0.23229166666666856
        },
        {
          "name": "D5",
          "midi": 74,
          "time": 150.57291666666626,
          "velocity": 0.3543307086614173,
          "duration": 0.32499999999998863
        },
        {
          "name": "D3",
          "midi": 50,
          "time": 150.57291666666626,
          "velocity": 0.7401574803149606,
          "duration": 0.23229166666666856
        },
        {
          "name": "D3",
          "midi": 50,
          "time": 150.80520833333293,
          "velocity": 0.6377952755905512,
          "duration": 0.33749999999997726
        },
        {
          "name": "C3",
          "midi": 48,
          "time": 151.00416666666624,
          "velocity": 0.5275590551181102,
          "duration": 0.1395833333333485
        },
        {
          "name": "D3",
          "midi": 50,
          "time": 151.14374999999959,
          "velocity": 0.7401574803149606,
          "duration": 0.32499999999998863
        },
        {
          "name": "E5",
          "midi": 76,
          "time": 151.4802083333329,
          "velocity": 0.44881889763779526,
          "duration": 0.2552083333333428
        },
        {
          "name": "A2",
          "midi": 45,
          "time": 151.4802083333329,
          "velocity": 0.7637795275590551,
          "duration": 0.23229166666666856
        },
        {
          "name": "G5",
          "midi": 79,
          "time": 151.49166666666625,
          "velocity": 0.44881889763779526,
          "duration": 0.20937499999999432
        },
        {
          "name": "E3",
          "midi": 52,
          "time": 151.60729166666624,
          "velocity": 0.4251968503937008,
          "duration": 0.3479166666666913
        },
        {
          "name": "A2",
          "midi": 45,
          "time": 151.71249999999958,
          "velocity": 0.6377952755905512,
          "duration": 0.5687500000000512
        },
        {
          "name": "E3",
          "midi": 52,
          "time": 151.9562499999996,
          "velocity": 0.5275590551181102,
          "duration": 0.20937500000002274
        },
        {
          "name": "D6",
          "midi": 86,
          "time": 152.16458333333296,
          "velocity": 0.4645669291338583,
          "duration": 0.17395833333333144
        },
        {
          "name": "F3",
          "midi": 53,
          "time": 152.16458333333296,
          "velocity": 0.5275590551181102,
          "duration": 0.17395833333333144
        },
        {
          "name": "D4",
          "midi": 62,
          "time": 152.39687499999962,
          "velocity": 0.5118110236220472,
          "duration": 0.23229166666666856
        },
        {
          "name": "F2",
          "midi": 41,
          "time": 152.4666666666663,
          "velocity": 0.5826771653543307,
          "duration": 0.1510416666666572
        },
        {
          "name": "A3",
          "midi": 57,
          "time": 152.50208333333296,
          "velocity": 0.5590551181102362,
          "duration": 0.19687500000000568
        },
        {
          "name": "D4",
          "midi": 62,
          "time": 152.6291666666663,
          "velocity": 0.5275590551181102,
          "duration": 0.23229166666666856
        },
        {
          "name": "A#2",
          "midi": 46,
          "time": 152.6291666666663,
          "velocity": 0.6692913385826772,
          "duration": 0.3375000000000057
        },
        {
          "name": "F2",
          "midi": 41,
          "time": 152.6291666666663,
          "velocity": 0.4566929133858268,
          "duration": 0.17395833333333144
        },
        {
          "name": "D4",
          "midi": 62,
          "time": 152.86145833333296,
          "velocity": 0.5275590551181102,
          "duration": 0.16354166666667425
        },
        {
          "name": "A3",
          "midi": 57,
          "time": 152.93124999999964,
          "velocity": 0.6141732283464567,
          "duration": 0.140625
        },
        {
          "name": "E4",
          "midi": 64,
          "time": 153.07187499999964,
          "velocity": 0.5275590551181102,
          "duration": 0.3020833333333428
        },
        {
          "name": "G3",
          "midi": 55,
          "time": 153.07187499999964,
          "velocity": 0.5196850393700787,
          "duration": 0.3479166666666629
        },
        {
          "name": "C#3",
          "midi": 49,
          "time": 153.07187499999964,
          "velocity": 0.3937007874015748,
          "duration": 0.23229166666666856
        },
        {
          "name": "A2",
          "midi": 45,
          "time": 153.07187499999964,
          "velocity": 0.3228346456692913,
          "duration": 0.3479166666666629
        },
        {
          "name": "C#2",
          "midi": 37,
          "time": 153.11874999999964,
          "velocity": 0.4094488188976378,
          "duration": 0.18541666666666856
        },
        {
          "name": "C#3",
          "midi": 49,
          "time": 153.3041666666663,
          "velocity": 0.3937007874015748,
          "duration": 0.22083333333333144
        },
        {
          "name": "C#2",
          "midi": 37,
          "time": 153.3041666666663,
          "velocity": 0.3858267716535433,
          "duration": 0.4760416666666458
        },
        {
          "name": "F4",
          "midi": 65,
          "time": 153.4197916666663,
          "velocity": 0.4015748031496063,
          "duration": 0.33645833333329733
        },
        {
          "name": "G3",
          "midi": 55,
          "time": 153.4197916666663,
          "velocity": 0.4251968503937008,
          "duration": 0.1510416666666572
        },
        {
          "name": "A2",
          "midi": 45,
          "time": 153.4197916666663,
          "velocity": 0.6141732283464567,
          "duration": 0.29062499999997726
        },
        {
          "name": "C#3",
          "midi": 49,
          "time": 153.52499999999964,
          "velocity": 0.6377952755905512,
          "duration": 0.32499999999998863
        },
        {
          "name": "G4",
          "midi": 67,
          "time": 153.75729166666628,
          "velocity": 0.5590551181102362,
          "duration": 0.40625
        },
        {
          "name": "F4",
          "midi": 65,
          "time": 153.75729166666628,
          "velocity": 0.4881889763779528,
          "duration": 0.4645833333333371
        },
        {
          "name": "C4",
          "midi": 60,
          "time": 153.7687499999996,
          "velocity": 0.4566929133858268,
          "duration": 0.453125
        },
        {
          "name": "C#2",
          "midi": 37,
          "time": 153.78020833333295,
          "velocity": 0.49606299212598426,
          "duration": 0.17395833333333144
        },
        {
          "name": "D2",
          "midi": 38,
          "time": 153.97708333333296,
          "velocity": 0.5039370078740157,
          "duration": 0.33645833333332575
        },
        {
          "name": "A4",
          "midi": 69,
          "time": 154.22083333333293,
          "velocity": 0.5196850393700787,
          "duration": 0.1395833333333769
        },
        {
          "name": "F4",
          "midi": 65,
          "time": 154.22083333333293,
          "velocity": 0.5433070866141733,
          "duration": 0.15104166666671404
        },
        {
          "name": "C4",
          "midi": 60,
          "time": 154.22083333333293,
          "velocity": 0.4566929133858268,
          "duration": 0.17395833333338828
        },
        {
          "name": "D2",
          "midi": 38,
          "time": 154.31458333333296,
          "velocity": 0.5354330708661418,
          "duration": 0.3718750000000455
        },
        {
          "name": "A2",
          "midi": 45,
          "time": 154.3260416666663,
          "velocity": 0.7244094488188977,
          "duration": 0.31354166666667993
        },
        {
          "name": "D3",
          "midi": 50,
          "time": 154.44166666666632,
          "velocity": 0.5984251968503937,
          "duration": 0.42916666666667425
        },
        {
          "name": "F4",
          "midi": 65,
          "time": 154.673958333333,
          "velocity": 0.6377952755905512,
          "duration": 0.20937499999999432
        },
        {
          "name": "D2",
          "midi": 38,
          "time": 154.68541666666633,
          "velocity": 0.5196850393700787,
          "duration": 0.18541666666666856
        },
        {
          "name": "G4",
          "midi": 67,
          "time": 154.90624999999966,
          "velocity": 0.5039370078740157,
          "duration": 0.17500000000001137
        },
        {
          "name": "C3",
          "midi": 48,
          "time": 154.90624999999966,
          "velocity": 0.3228346456692913,
          "duration": 0.17500000000001137
        },
        {
          "name": "C2",
          "midi": 36,
          "time": 154.917708333333,
          "velocity": 0.47244094488188976,
          "duration": 0.22187500000001137
        },
        {
          "name": "A4",
          "midi": 69,
          "time": 155.11666666666633,
          "velocity": 0.6535433070866141,
          "duration": 0.1510416666666572
        },
        {
          "name": "G4",
          "midi": 67,
          "time": 155.23229166666633,
          "velocity": 0.48031496062992124,
          "duration": 0.17395833333333144
        },
        {
          "name": "C#3",
          "midi": 49,
          "time": 155.23229166666633,
          "velocity": 0.5039370078740157,
          "duration": 0.20937499999999432
        },
        {
          "name": "C#2",
          "midi": 37,
          "time": 155.23229166666633,
          "velocity": 0.5118110236220472,
          "duration": 0.22083333333333144
        },
        {
          "name": "F4",
          "midi": 65,
          "time": 155.41874999999965,
          "velocity": 0.6614173228346457,
          "duration": 0.15104166666668561
        },
        {
          "name": "D3",
          "midi": 50,
          "time": 155.56979166666633,
          "velocity": 0.5433070866141733,
          "duration": 0.22083333333333144
        },
        {
          "name": "F4",
          "midi": 65,
          "time": 155.58124999999967,
          "velocity": 0.49606299212598426,
          "duration": 0.17395833333333144
        },
        {
          "name": "D2",
          "midi": 38,
          "time": 155.63854166666633,
          "velocity": 0.5511811023622047,
          "duration": 0.16249999999999432
        },
        {
          "name": "G#4",
          "midi": 68,
          "time": 155.80104166666632,
          "velocity": 0.5511811023622047,
          "duration": 0.26666666666667993
        },
        {
          "name": "A#3",
          "midi": 58,
          "time": 155.80104166666632,
          "velocity": 0.5511811023622047,
          "duration": 0.24375000000000568
        },
        {
          "name": "D4",
          "midi": 62,
          "time": 155.82499999999965,
          "velocity": 0.47244094488188976,
          "duration": 0.22083333333335986
        },
        {
          "name": "E2",
          "midi": 40,
          "time": 155.82499999999965,
          "velocity": 0.47244094488188976,
          "duration": 0.19687500000000568
        },
        {
          "name": "A#2",
          "midi": 46,
          "time": 155.84791666666632,
          "velocity": 0.3700787401574803,
          "duration": 0.17395833333333144
        },
        {
          "name": "E2",
          "midi": 40,
          "time": 156.02187499999965,
          "velocity": 0.5669291338582677,
          "duration": 0.23229166666666856
        },
        {
          "name": "A#2",
          "midi": 46,
          "time": 156.033333333333,
          "velocity": 0.6535433070866141,
          "duration": 0.23229166666666856
        },
        {
          "name": "E2",
          "midi": 40,
          "time": 156.25416666666632,
          "velocity": 0.36220472440944884,
          "duration": 0.24375000000000568
        },
        {
          "name": "G4",
          "midi": 67,
          "time": 156.26562499999966,
          "velocity": 0.5511811023622047,
          "duration": 0.26666666666667993
        },
        {
          "name": "D4",
          "midi": 62,
          "time": 156.26562499999966,
          "velocity": 0.4566929133858268,
          "duration": 0.20937499999999432
        },
        {
          "name": "A#3",
          "midi": 58,
          "time": 156.26562499999966,
          "velocity": 0.4566929133858268,
          "duration": 0.19687500000000568
        },
        {
          "name": "E3",
          "midi": 52,
          "time": 156.26562499999966,
          "velocity": 0.5039370078740157,
          "duration": 0.36041666666667993
        },
        {
          "name": "A#2",
          "midi": 46,
          "time": 156.26562499999966,
          "velocity": 0.6456692913385826,
          "duration": 0.2552083333333428
        },
        {
          "name": "E2",
          "midi": 40,
          "time": 156.49791666666633,
          "velocity": 0.5748031496062992,
          "duration": 0.19687500000000568
        },
        {
          "name": "F4",
          "midi": 65,
          "time": 156.71874999999966,
          "velocity": 0.6062992125984252,
          "duration": 0.22187499999998295
        },
        {
          "name": "C#4",
          "midi": 61,
          "time": 156.71874999999966,
          "velocity": 0.3858267716535433,
          "duration": 0.1510416666666572
        },
        {
          "name": "G3",
          "midi": 55,
          "time": 156.777083333333,
          "velocity": 0.5748031496062992,
          "duration": 0.17499999999998295
        },
        {
          "name": "F4",
          "midi": 65,
          "time": 156.94062499999964,
          "velocity": 0.5275590551181102,
          "duration": 0.20937499999999432
        },
        {
          "name": "D4",
          "midi": 62,
          "time": 157.0447916666663,
          "velocity": 0.4645669291338583,
          "duration": 0.1510416666666572
        },
        {
          "name": "E2",
          "midi": 40,
          "time": 157.0447916666663,
          "velocity": 0.4409448818897638,
          "duration": 0.23229166666666856
        },
        {
          "name": "A2",
          "midi": 45,
          "time": 157.14999999999964,
          "velocity": 0.6692913385826772,
          "duration": 0.27812500000001705
        },
        {
          "name": "C4",
          "midi": 60,
          "time": 157.39374999999964,
          "velocity": 0.4330708661417323,
          "duration": 0.3020833333333428
        },
        {
          "name": "G3",
          "midi": 55,
          "time": 157.39374999999964,
          "velocity": 0.6141732283464567,
          "duration": 0.453125
        },
        {
          "name": "E3",
          "midi": 52,
          "time": 157.39374999999964,
          "velocity": 0.6141732283464567,
          "duration": 0.4645833333333371
        },
        {
          "name": "D2",
          "midi": 38,
          "time": 157.61354166666632,
          "velocity": 0.4881889763779528,
          "duration": 0.22083333333333144
        },
        {
          "name": "D2",
          "midi": 38,
          "time": 157.83437499999965,
          "velocity": 0.5275590551181102,
          "duration": 0.1510416666666572
        },
        {
          "name": "F3",
          "midi": 53,
          "time": 157.8572916666663,
          "velocity": 0.5354330708661418,
          "duration": 0.18541666666666856
        },
        {
          "name": "A2",
          "midi": 45,
          "time": 157.96249999999964,
          "velocity": 0.7165354330708661,
          "duration": 0.33645833333332575
        },
        {
          "name": "D2",
          "midi": 38,
          "time": 157.9854166666663,
          "velocity": 0.5039370078740157,
          "duration": 0.3135416666666515
        },
        {
          "name": "D3",
          "midi": 50,
          "time": 158.07812499999963,
          "velocity": 0.6377952755905512,
          "duration": 0.3479166666666629
        },
        {
          "name": "D2",
          "midi": 38,
          "time": 158.29895833333296,
          "velocity": 0.5275590551181102,
          "duration": 0.20937499999999432
        },
        {
          "name": "A4",
          "midi": 69,
          "time": 158.3104166666663,
          "velocity": 0.4094488188976378,
          "duration": 0.22083333333333144
        },
        {
          "name": "A3",
          "midi": 57,
          "time": 158.3104166666663,
          "velocity": 0.4251968503937008,
          "duration": 0.23229166666666856
        },
        {
          "name": "A4",
          "midi": 69,
          "time": 158.53124999999963,
          "velocity": 0.3700787401574803,
          "duration": 0.23229166666666856
        },
        {
          "name": "A3",
          "midi": 57,
          "time": 158.54270833333297,
          "velocity": 0.4881889763779528,
          "duration": 0.23229166666666856
        },
        {
          "name": "C#3",
          "midi": 49,
          "time": 158.54270833333297,
          "velocity": 0.47244094488188976,
          "duration": 0.20937499999999432
        },
        {
          "name": "C#2",
          "midi": 37,
          "time": 158.54270833333297,
          "velocity": 0.4881889763779528,
          "duration": 0.23229166666666856
        },
        {
          "name": "A4",
          "midi": 69,
          "time": 158.7635416666663,
          "velocity": 0.6299212598425197,
          "duration": 0.13958333333332007
        },
        {
          "name": "C4",
          "midi": 60,
          "time": 158.8791666666663,
          "velocity": 0.47244094488188976,
          "duration": 0.17499999999998295
        },
        {
          "name": "B1",
          "midi": 35,
          "time": 158.8791666666663,
          "velocity": 0.41732283464566927,
          "duration": 0.1989583333333087
        },
        {
          "name": "D4",
          "midi": 62,
          "time": 159.21770833333292,
          "velocity": 0.5433070866141733,
          "duration": 0.2552083333333428
        },
        {
          "name": "A2",
          "midi": 45,
          "time": 159.21770833333292,
          "velocity": 0.5905511811023622,
          "duration": 0.23229166666666856
        },
        {
          "name": "A#2",
          "midi": 46,
          "time": 159.66979166666627,
          "velocity": 0.4094488188976378,
          "duration": 0.22083333333330302
        },
        {
          "name": "F2",
          "midi": 41,
          "time": 159.68229166666626,
          "velocity": 0.5433070866141733,
          "duration": 0.20937499999999432
        },
        {
          "name": "F4",
          "midi": 65,
          "time": 159.77499999999958,
          "velocity": 0.31496062992125984,
          "duration": 0.15104166666668561
        },
        {
          "name": "A#2",
          "midi": 46,
          "time": 159.89062499999957,
          "velocity": 0.7637795275590551,
          "duration": 0.23229166666669698
        },
        {
          "name": "F2",
          "midi": 41,
          "time": 159.89062499999957,
          "velocity": 0.5669291338582677,
          "duration": 0.2437500000000341
        },
        {
          "name": "D5",
          "midi": 74,
          "time": 160.00729166666628,
          "velocity": 0.4881889763779528,
          "duration": 0.22083333333333144
        },
        {
          "name": "A4",
          "midi": 69,
          "time": 160.00729166666628,
          "velocity": 0.5826771653543307,
          "duration": 0.22083333333333144
        },
        {
          "name": "A#2",
          "midi": 46,
          "time": 160.12291666666627,
          "velocity": 0.5590551181102362,
          "duration": 0.22083333333333144
        },
        {
          "name": "E5",
          "midi": 76,
          "time": 160.23958333333294,
          "velocity": 0.48031496062992124,
          "duration": 0.3479166666666629
        },
        {
          "name": "A#4",
          "midi": 70,
          "time": 160.23958333333294,
          "velocity": 0.5275590551181102,
          "duration": 0.3479166666666629
        },
        {
          "name": "G4",
          "midi": 67,
          "time": 160.23958333333294,
          "velocity": 0.48031496062992124,
          "duration": 0.3604166666666515
        },
        {
          "name": "C#2",
          "midi": 37,
          "time": 160.3437499999996,
          "velocity": 0.4015748031496063,
          "duration": 0.24375000000000568
        },
        {
          "name": "C#2",
          "midi": 37,
          "time": 160.5874999999996,
          "velocity": 0.4330708661417323,
          "duration": 0.3135416666666231
        },
        {
          "name": "A2",
          "midi": 45,
          "time": 160.68020833333293,
          "velocity": 0.6220472440944882,
          "duration": 0.28020833333329165
        },
        {
          "name": "E5",
          "midi": 76,
          "time": 160.78437499999959,
          "velocity": 0.47244094488188976,
          "duration": 0.12916666666663446
        },
        {
          "name": "G4",
          "midi": 67,
          "time": 160.78437499999959,
          "velocity": 0.4881889763779528,
          "duration": 0.12916666666663446
        },
        {
          "name": "C#3",
          "midi": 49,
          "time": 160.8083333333329,
          "velocity": 0.5354330708661418,
          "duration": 0.28020833333329165
        },
        {
          "name": "A#4",
          "midi": 70,
          "time": 160.92499999999956,
          "velocity": 0.6377952755905512,
          "duration": 0.22083333333330302
        },
        {
          "name": "G4",
          "midi": 67,
          "time": 160.92499999999956,
          "velocity": 0.4566929133858268,
          "duration": 0.2093749999999659
        },
        {
          "name": "C#2",
          "midi": 37,
          "time": 161.00624999999954,
          "velocity": 0.3779527559055118,
          "duration": 0.1510416666666572
        },
        {
          "name": "C5",
          "midi": 72,
          "time": 161.13437499999952,
          "velocity": 0.3858267716535433,
          "duration": 0.3020833333333144
        },
        {
          "name": "F5",
          "midi": 77,
          "time": 161.14583333333286,
          "velocity": 0.5039370078740157,
          "duration": 0.1510416666666572
        },
        {
          "name": "A4",
          "midi": 69,
          "time": 161.14583333333286,
          "velocity": 0.4881889763779528,
          "duration": 0.33645833333332575
        },
        {
          "name": "D3",
          "midi": 50,
          "time": 161.24999999999952,
          "velocity": 0.3543307086614173,
          "duration": 0.24375000000000568
        },
        {
          "name": "D2",
          "midi": 38,
          "time": 161.2624999999995,
          "velocity": 0.6141732283464567,
          "duration": 0.20937500000002274
        },
        {
          "name": "D2",
          "midi": 38,
          "time": 161.47083333333285,
          "velocity": 0.5669291338582677,
          "duration": 0.22083333333333144
        },
        {
          "name": "A2",
          "midi": 45,
          "time": 161.51770833333285,
          "velocity": 0.6535433070866141,
          "duration": 0.17395833333333144
        },
        {
          "name": "D2",
          "midi": 38,
          "time": 161.69166666666618,
          "velocity": 0.5748031496062992,
          "duration": 0.27812500000001705
        },
        {
          "name": "A2",
          "midi": 45,
          "time": 161.70312499999952,
          "velocity": 0.6062992125984252,
          "duration": 0.20937500000002274
        },
        {
          "name": "D3",
          "midi": 50,
          "time": 161.71458333333285,
          "velocity": 0.5039370078740157,
          "duration": 0.31354166666667993
        },
        {
          "name": "E5",
          "midi": 76,
          "time": 161.8197916666662,
          "velocity": 0.41732283464566927,
          "duration": 0.20937500000002274
        },
        {
          "name": "C5",
          "midi": 72,
          "time": 161.8197916666662,
          "velocity": 0.44881889763779526,
          "duration": 0.15104166666668561
        },
        {
          "name": "G5",
          "midi": 79,
          "time": 161.83124999999953,
          "velocity": 0.5748031496062992,
          "duration": 0.23229166666669698
        },
        {
          "name": "D2",
          "midi": 38,
          "time": 161.9697916666662,
          "velocity": 0.5433070866141733,
          "duration": 0.20937500000005116
        },
        {
          "name": "D5",
          "midi": 74,
          "time": 162.02812499999953,
          "velocity": 0.5590551181102362,
          "duration": 0.1395833333333769
        },
        {
          "name": "A5",
          "midi": 81,
          "time": 162.0520833333329,
          "velocity": 0.48031496062992124,
          "duration": 0.1395833333333485
        },
        {
          "name": "F5",
          "midi": 77,
          "time": 162.0520833333329,
          "velocity": 0.4330708661417323,
          "duration": 0.3833333333333542
        },
        {
          "name": "C2",
          "midi": 36,
          "time": 162.14479166666624,
          "velocity": 0.41732283464566927,
          "duration": 0.23229166666666856
        },
        {
          "name": "G3",
          "midi": 55,
          "time": 162.1677083333329,
          "velocity": 0.36220472440944884,
          "duration": 0.24375000000000568
        },
        {
          "name": "D5",
          "midi": 74,
          "time": 162.3302083333329,
          "velocity": 0.3937007874015748,
          "duration": 0.1395833333333485
        },
        {
          "name": "B1",
          "midi": 35,
          "time": 162.50416666666626,
          "velocity": 0.33070866141732286,
          "duration": 0.23229166666666856
        },
        {
          "name": "G4",
          "midi": 67,
          "time": 162.63229166666628,
          "velocity": 0.6692913385826772,
          "duration": 0.26666666666667993
        },
        {
          "name": "A2",
          "midi": 45,
          "time": 162.8531249999996,
          "velocity": 0.6771653543307087,
          "duration": 0.2218750000000398
        },
        {
          "name": "F4",
          "midi": 65,
          "time": 162.86458333333294,
          "velocity": 0.4881889763779528,
          "duration": 0.1291666666666913
        },
        {
          "name": "A#3",
          "midi": 58,
          "time": 163.07499999999965,
          "velocity": 0.4330708661417323,
          "duration": 0.33645833333332575
        },
        {
          "name": "G#4",
          "midi": 68,
          "time": 163.08645833333298,
          "velocity": 0.44881889763779526,
          "duration": 0.33645833333332575
        },
        {
          "name": "D4",
          "midi": 62,
          "time": 163.08645833333298,
          "velocity": 0.5039370078740157,
          "duration": 0.22083333333333144
        },
        {
          "name": "A#2",
          "midi": 46,
          "time": 163.08645833333298,
          "velocity": 0.36220472440944884,
          "duration": 0.32499999999998863
        },
        {
          "name": "E2",
          "midi": 40,
          "time": 163.08645833333298,
          "velocity": 0.5196850393700787,
          "duration": 0.19687500000000568
        },
        {
          "name": "E2",
          "midi": 40,
          "time": 163.283333333333,
          "velocity": 0.5275590551181102,
          "duration": 0.17395833333333144
        },
        {
          "name": "A#3",
          "midi": 58,
          "time": 163.41145833333297,
          "velocity": 0.4566929133858268,
          "duration": 0.16250000000002274
        },
        {
          "name": "A#2",
          "midi": 46,
          "time": 163.41145833333297,
          "velocity": 0.7795275590551181,
          "duration": 0.1395833333333485
        },
        {
          "name": "G#4",
          "midi": 68,
          "time": 163.4229166666663,
          "velocity": 0.5039370078740157,
          "duration": 0.33645833333332575
        },
        {
          "name": "D4",
          "midi": 62,
          "time": 163.4229166666663,
          "velocity": 0.4330708661417323,
          "duration": 0.19687500000000568
        },
        {
          "name": "E2",
          "midi": 40,
          "time": 163.45729166666632,
          "velocity": 0.4566929133858268,
          "duration": 0.3020833333333144
        },
        {
          "name": "E3",
          "midi": 52,
          "time": 163.527083333333,
          "velocity": 0.5669291338582677,
          "duration": 0.27812499999998863
        },
        {
          "name": "A#2",
          "midi": 46,
          "time": 163.55104166666632,
          "velocity": 0.6850393700787402,
          "duration": 0.20937499999999432
        },
        {
          "name": "G#4",
          "midi": 68,
          "time": 163.75937499999964,
          "velocity": 0.6220472440944882,
          "duration": 0.22083333333335986
        },
        {
          "name": "E2",
          "midi": 40,
          "time": 163.75937499999964,
          "velocity": 0.5669291338582677,
          "duration": 0.20937500000002274
        },
        {
          "name": "G4",
          "midi": 67,
          "time": 163.980208333333,
          "velocity": 0.4409448818897638,
          "duration": 0.1395833333333485
        },
        {
          "name": "A2",
          "midi": 45,
          "time": 163.99166666666633,
          "velocity": 0.28346456692913385,
          "duration": 0.24375000000000568
        },
        {
          "name": "G3",
          "midi": 55,
          "time": 164.04999999999967,
          "velocity": 0.4881889763779528,
          "duration": 0.2906250000000057
        },
        {
          "name": "F4",
          "midi": 65,
          "time": 164.32812499999966,
          "velocity": 0.4881889763779528,
          "duration": 0.37187500000001705
        },
        {
          "name": "G3",
          "midi": 55,
          "time": 164.339583333333,
          "velocity": 0.4881889763779528,
          "duration": 0.42916666666667425
        },
        {
          "name": "E2",
          "midi": 40,
          "time": 164.3749999999997,
          "velocity": 0.36220472440944884,
          "duration": 0.16249999999999432
        },
        {
          "name": "C#4",
          "midi": 61,
          "time": 164.47916666666634,
          "velocity": 0.31496062992125984,
          "duration": 0.18541666666666856
        },
        {
          "name": "A2",
          "midi": 45,
          "time": 164.50208333333302,
          "velocity": 0.6220472440944882,
          "duration": 0.3604166666666515
        },
        {
          "name": "C#4",
          "midi": 61,
          "time": 164.677083333333,
          "velocity": 0.44881889763779526,
          "duration": 0.1395833333333485
        },
        {
          "name": "A3",
          "midi": 57,
          "time": 164.886458333333,
          "velocity": 0.41732283464566927,
          "duration": 0.23229166666666856
        },
        {
          "name": "F3",
          "midi": 53,
          "time": 164.886458333333,
          "velocity": 0.6141732283464567,
          "duration": 0.23229166666666856
        },
        {
          "name": "D2",
          "midi": 38,
          "time": 164.886458333333,
          "velocity": 0.48031496062992124,
          "duration": 0.22083333333333144
        },
        {
          "name": "D4",
          "midi": 62,
          "time": 164.89895833333298,
          "velocity": 0.31496062992125984,
          "duration": 0.27812500000001705
        },
        {
          "name": "D2",
          "midi": 38,
          "time": 165.10729166666633,
          "velocity": 0.44881889763779526,
          "duration": 0.26666666666667993
        },
        {
          "name": "A3",
          "midi": 57,
          "time": 165.11874999999966,
          "velocity": 0.4881889763779528,
          "duration": 0.22083333333333144
        },
        {
          "name": "F3",
          "midi": 53,
          "time": 165.11874999999966,
          "velocity": 0.6456692913385826,
          "duration": 0.22083333333333144
        },
        {
          "name": "D3",
          "midi": 50,
          "time": 165.11874999999966,
          "velocity": 0.6141732283464567,
          "duration": 0.22083333333333144
        },
        {
          "name": "A3",
          "midi": 57,
          "time": 165.339583333333,
          "velocity": 0.41732283464566927,
          "duration": 0.16250000000002274
        },
        {
          "name": "F3",
          "midi": 53,
          "time": 165.339583333333,
          "velocity": 0.5984251968503937,
          "duration": 0.20937500000002274
        },
        {
          "name": "D2",
          "midi": 38,
          "time": 165.3749999999997,
          "velocity": 0.5354330708661418,
          "duration": 0.1510416666666572
        },
        {
          "name": "E3",
          "midi": 52,
          "time": 165.54895833333302,
          "velocity": 0.5433070866141733,
          "duration": 0.1395833333333485
        },
        {
          "name": "G3",
          "midi": 55,
          "time": 165.5718749999997,
          "velocity": 0.4645669291338583,
          "duration": 0.1395833333333485
        },
        {
          "name": "F3",
          "midi": 53,
          "time": 165.6999999999997,
          "velocity": 0.5118110236220472,
          "duration": 0.26666666666667993
        },
        {
          "name": "D3",
          "midi": 50,
          "time": 165.6999999999997,
          "velocity": 0.48031496062992124,
          "duration": 0.2906250000000057
        },
        {
          "name": "D2",
          "midi": 38,
          "time": 165.6999999999997,
          "velocity": 0.5354330708661418,
          "duration": 0.27812500000001705
        },
        {
          "name": "A4",
          "midi": 69,
          "time": 166.03645833333303,
          "velocity": 0.4645669291338583,
          "duration": 0.20937499999999432
        },
        {
          "name": "A2",
          "midi": 45,
          "time": 166.03645833333303,
          "velocity": 0.7637795275590551,
          "duration": 0.22083333333333144
        },
        {
          "name": "A2",
          "midi": 45,
          "time": 166.25729166666636,
          "velocity": 0.6692913385826772,
          "duration": 0.4645833333333371
        },
        {
          "name": "F5",
          "midi": 77,
          "time": 166.37291666666636,
          "velocity": 0.4645669291338583,
          "duration": 0.20937499999999432
        },
        {
          "name": "C5",
          "midi": 72,
          "time": 166.48958333333303,
          "velocity": 0.5196850393700787,
          "duration": 0.20937499999999432
        },
        {
          "name": "D5",
          "midi": 74,
          "time": 166.70937499999968,
          "velocity": 0.5118110236220472,
          "duration": 0.24479166666668561
        },
        {
          "name": "A4",
          "midi": 69,
          "time": 166.72083333333302,
          "velocity": 0.3937007874015748,
          "duration": 0.25625000000002274
        },
        {
          "name": "F4",
          "midi": 65,
          "time": 166.72083333333302,
          "velocity": 0.41732283464566927,
          "duration": 0.16354166666667425
        },
        {
          "name": "F3",
          "midi": 53,
          "time": 166.72083333333302,
          "velocity": 0.5905511811023622,
          "duration": 0.326041666666697
        },
        {
          "name": "A#2",
          "midi": 46,
          "time": 166.72083333333302,
          "velocity": 0.6299212598425197,
          "duration": 0.21041666666667425
        },
        {
          "name": "A#2",
          "midi": 46,
          "time": 166.9312499999997,
          "velocity": 0.7165354330708661,
          "duration": 0.23229166666669698
        },
        {
          "name": "F3",
          "midi": 53,
          "time": 167.0479166666664,
          "velocity": 0.5669291338582677,
          "duration": 0.6041666666666572
        },
        {
          "name": "F5",
          "midi": 77,
          "time": 167.15208333333305,
          "velocity": 0.4409448818897638,
          "duration": 0.18541666666666856
        },
        {
          "name": "D5",
          "midi": 74,
          "time": 167.15208333333305,
          "velocity": 0.4645669291338583,
          "duration": 0.2552083333333428
        },
        {
          "name": "A#3",
          "midi": 58,
          "time": 167.15208333333305,
          "velocity": 0.47244094488188976,
          "duration": 0.23229166666666856
        },
        {
          "name": "A#2",
          "midi": 46,
          "time": 167.1635416666664,
          "velocity": 0.7322834645669292,
          "duration": 0.37187499999998863
        },
        {
          "name": "E5",
          "midi": 76,
          "time": 167.49999999999972,
          "velocity": 0.5039370078740157,
          "duration": 0.16249999999999432
        },
        {
          "name": "C#5",
          "midi": 73,
          "time": 167.5124999999997,
          "velocity": 0.5748031496062992,
          "duration": 0.16249999999999432
        },
        {
          "name": "A#2",
          "midi": 46,
          "time": 167.53541666666638,
          "velocity": 0.5511811023622047,
          "duration": 0.3020833333333144
        },
        {
          "name": "C#2",
          "midi": 37,
          "time": 167.68645833333304,
          "velocity": 0.47244094488188976,
          "duration": 0.6156249999999943
        },
        {
          "name": "D5",
          "midi": 74,
          "time": 167.73229166666636,
          "velocity": 0.47244094488188976,
          "duration": 0.23229166666666856
        },
        {
          "name": "C5",
          "midi": 72,
          "time": 167.84895833333303,
          "velocity": 0.4015748031496063,
          "duration": 0.17395833333333144
        },
        {
          "name": "C#3",
          "midi": 49,
          "time": 167.84895833333303,
          "velocity": 0.5669291338582677,
          "duration": 0.453125
        },
        {
          "name": "D5",
          "midi": 74,
          "time": 167.96458333333302,
          "velocity": 0.31496062992125984,
          "duration": 0.22083333333333144
        },
        {
          "name": "A3",
          "midi": 57,
          "time": 167.96458333333302,
          "velocity": 0.3937007874015748,
          "duration": 0.3020833333333428
        },
        {
          "name": "D5",
          "midi": 74,
          "time": 168.18541666666636,
          "velocity": 0.5196850393700787,
          "duration": 0.23229166666666856
        },
        {
          "name": "F5",
          "midi": 77,
          "time": 168.30208333333303,
          "velocity": 0.4015748031496063,
          "duration": 0.19687500000000568
        },
        {
          "name": "C5",
          "midi": 72,
          "time": 168.30208333333303,
          "velocity": 0.3779527559055118,
          "duration": 0.17395833333333144
        },
        {
          "name": "C#3",
          "midi": 49,
          "time": 168.30208333333303,
          "velocity": 0.6771653543307087,
          "duration": 0.24375000000000568
        },
        {
          "name": "C#2",
          "midi": 37,
          "time": 168.30208333333303,
          "velocity": 0.36220472440944884,
          "duration": 0.13958333333332007
        },
        {
          "name": "D5",
          "midi": 74,
          "time": 168.41770833333302,
          "velocity": 0.5196850393700787,
          "duration": 0.22083333333333144
        },
        {
          "name": "D3",
          "midi": 50,
          "time": 168.54583333333304,
          "velocity": 0.3779527559055118,
          "duration": 0.20937499999999432
        },
        {
          "name": "D2",
          "midi": 38,
          "time": 168.54583333333304,
          "velocity": 0.4645669291338583,
          "duration": 0.3020833333333428
        },
        {
          "name": "D5",
          "midi": 74,
          "time": 168.63854166666636,
          "velocity": 0.49606299212598426,
          "duration": 0.20937500000002274
        },
        {
          "name": "F4",
          "midi": 65,
          "time": 168.63854166666636,
          "velocity": 0.6062992125984252,
          "duration": 0.35000000000002274
        },
        {
          "name": "A4",
          "midi": 69,
          "time": 168.6499999999997,
          "velocity": 0.47244094488188976,
          "duration": 0.1395833333333485
        },
        {
          "name": "D3",
          "midi": 50,
          "time": 168.75416666666635,
          "velocity": 0.5905511811023622,
          "duration": 0.2333333333333485
        },
        {
          "name": "D2",
          "midi": 38,
          "time": 168.8468749999997,
          "velocity": 0.44881889763779526,
          "duration": 0.5468749999999716
        },
        {
          "name": "A3",
          "midi": 57,
          "time": 168.8718749999997,
          "velocity": 0.5118110236220472,
          "duration": 0.32499999999998863
        },
        {
          "name": "D4",
          "midi": 62,
          "time": 168.97604166666636,
          "velocity": 0.4645669291338583,
          "duration": 0.20937499999999432
        },
        {
          "name": "F5",
          "midi": 77,
          "time": 168.9874999999997,
          "velocity": 0.4330708661417323,
          "duration": 0.18541666666666856
        },
        {
          "name": "F4",
          "midi": 65,
          "time": 168.9874999999997,
          "velocity": 0.48031496062992124,
          "duration": 0.32499999999998863
        },
        {
          "name": "D3",
          "midi": 50,
          "time": 168.9874999999997,
          "velocity": 0.6062992125984252,
          "duration": 0.23229166666666856
        },
        {
          "name": "D3",
          "midi": 50,
          "time": 169.21979166666637,
          "velocity": 0.5511811023622047,
          "duration": 0.4177083333333087
        },
        {
          "name": "E5",
          "midi": 76,
          "time": 169.32499999999968,
          "velocity": 0.4015748031496063,
          "duration": 0.13958333333332007
        },
        {
          "name": "C3",
          "midi": 48,
          "time": 169.42916666666633,
          "velocity": 0.4645669291338583,
          "duration": 0.20937500000002274
        },
        {
          "name": "C2",
          "midi": 36,
          "time": 169.42916666666633,
          "velocity": 0.44881889763779526,
          "duration": 0.26666666666670835
        },
        {
          "name": "G#5",
          "midi": 80,
          "time": 169.63749999999968,
          "velocity": 0.5590551181102362,
          "duration": 0.1395833333333769
        },
        {
          "name": "F5",
          "midi": 77,
          "time": 169.66145833333303,
          "velocity": 0.5354330708661418,
          "duration": 0.16250000000002274
        },
        {
          "name": "C#2",
          "midi": 37,
          "time": 169.76562499999972,
          "velocity": 0.5196850393700787,
          "duration": 0.22083333333333144
        },
        {
          "name": "C#3",
          "midi": 49,
          "time": 169.77708333333305,
          "velocity": 0.5039370078740157,
          "duration": 0.16249999999999432
        },
        {
          "name": "E5",
          "midi": 76,
          "time": 169.85833333333306,
          "velocity": 0.5590551181102362,
          "duration": 0.13958333333332007
        },
        {
          "name": "G5",
          "midi": 79,
          "time": 169.89374999999973,
          "velocity": 0.5511811023622047,
          "duration": 0.1510416666666572
        },
        {
          "name": "D5",
          "midi": 74,
          "time": 169.9749999999997,
          "velocity": 0.5826771653543307,
          "duration": 0.1395833333333485
        },
        {
          "name": "D3",
          "midi": 50,
          "time": 170.11354166666638,
          "velocity": 0.5275590551181102,
          "duration": 0.24375000000000568
        },
        {
          "name": "F5",
          "midi": 77,
          "time": 170.1260416666664,
          "velocity": 0.5196850393700787,
          "duration": 0.19687500000000568
        },
        {
          "name": "D5",
          "midi": 74,
          "time": 170.1260416666664,
          "velocity": 0.4015748031496063,
          "duration": 0.20937499999999432
        },
        {
          "name": "D2",
          "midi": 38,
          "time": 170.1260416666664,
          "velocity": 0.5748031496062992,
          "duration": 0.22083333333333144
        },
        {
          "name": "E2",
          "midi": 40,
          "time": 170.34583333333305,
          "velocity": 0.7322834645669292,
          "duration": 0.24375000000000568
        },
        {
          "name": "D5",
          "midi": 74,
          "time": 170.57812499999972,
          "velocity": 0.4094488188976378,
          "duration": 0.3375000000000057
        },
        {
          "name": "G4",
          "midi": 67,
          "time": 170.58958333333305,
          "velocity": 0.4645669291338583,
          "duration": 0.32604166666666856
        },
        {
          "name": "E2",
          "midi": 40,
          "time": 170.58958333333305,
          "velocity": 0.5511811023622047,
          "duration": 0.6750000000000114
        },
        {
          "name": "A#3",
          "midi": 58,
          "time": 170.6947916666664,
          "velocity": 0.44881889763779526,
          "duration": 0.22187500000001137
        },
        {
          "name": "E3",
          "midi": 52,
          "time": 170.79895833333305,
          "velocity": 0.3937007874015748,
          "duration": 0.2333333333333485
        },
        {
          "name": "D5",
          "midi": 74,
          "time": 170.9166666666664,
          "velocity": 0.4566929133858268,
          "duration": 0.33645833333332575
        },
        {
          "name": "G4",
          "midi": 67,
          "time": 170.9166666666664,
          "velocity": 0.4409448818897638,
          "duration": 0.23229166666666856
        },
        {
          "name": "A#3",
          "midi": 58,
          "time": 170.9166666666664,
          "velocity": 0.36220472440944884,
          "duration": 0.27812499999998863
        },
        {
          "name": "E3",
          "midi": 52,
          "time": 171.0322916666664,
          "velocity": 0.4251968503937008,
          "duration": 0.6968750000000057
        },
        {
          "name": "A2",
          "midi": 45,
          "time": 171.2416666666664,
          "velocity": 0.7401574803149606,
          "duration": 0.3479166666666629
        },
        {
          "name": "G5",
          "midi": 79,
          "time": 171.25312499999973,
          "velocity": 0.5354330708661418,
          "duration": 0.19687500000000568
        },
        {
          "name": "C#5",
          "midi": 73,
          "time": 171.25312499999973,
          "velocity": 0.47244094488188976,
          "duration": 0.33645833333332575
        },
        {
          "name": "A4",
          "midi": 69,
          "time": 171.25312499999973,
          "velocity": 0.4645669291338583,
          "duration": 0.20937499999999432
        },
        {
          "name": "A5",
          "midi": 81,
          "time": 171.58958333333305,
          "velocity": 0.33070866141732286,
          "duration": 0.16250000000002274
        },
        {
          "name": "C#5",
          "midi": 73,
          "time": 171.58958333333305,
          "velocity": 0.48031496062992124,
          "duration": 0.2552083333333428
        },
        {
          "name": "A2",
          "midi": 45,
          "time": 171.58958333333305,
          "velocity": 0.6771653543307087,
          "duration": 0.4177083333333371
        },
        {
          "name": "A3",
          "midi": 57,
          "time": 171.70624999999973,
          "velocity": 0.3858267716535433,
          "duration": 0.1510416666666572
        },
        {
          "name": "E3",
          "midi": 52,
          "time": 171.7291666666664,
          "velocity": 0.4251968503937008,
          "duration": 0.4291666666666458
        },
        {
          "name": "C5",
          "midi": 72,
          "time": 171.9385416666664,
          "velocity": 0.4251968503937008,
          "duration": 0.4645833333333371
        },
        {
          "name": "A2",
          "midi": 45,
          "time": 172.0072916666664,
          "velocity": 0.6299212598425197,
          "duration": 0.32499999999998863
        },
        {
          "name": "D2",
          "midi": 38,
          "time": 172.21666666666638,
          "velocity": 0.5511811023622047,
          "duration": 0.26666666666667993
        },
        {
          "name": "D3",
          "midi": 50,
          "time": 172.39062499999972,
          "velocity": 0.6692913385826772,
          "duration": 0.45416666666667993
        },
        {
          "name": "C5",
          "midi": 72,
          "time": 172.40208333333305,
          "velocity": 0.44881889763779526,
          "duration": 0.23229166666666856
        },
        {
          "name": "A4",
          "midi": 69,
          "time": 172.40208333333305,
          "velocity": 0.29133858267716534,
          "duration": 0.17395833333333144
        },
        {
          "name": "D2",
          "midi": 38,
          "time": 172.48333333333306,
          "velocity": 0.49606299212598426,
          "duration": 0.6052083333333371
        },
        {
          "name": "A3",
          "midi": 57,
          "time": 172.51874999999973,
          "velocity": 0.44881889763779526,
          "duration": 0.2906250000000057
        },
        {
          "name": "C5",
          "midi": 72,
          "time": 172.63437499999972,
          "velocity": 0.5039370078740157,
          "duration": 0.18541666666666856
        },
        {
          "name": "D5",
          "midi": 74,
          "time": 172.8447916666664,
          "velocity": 0.5196850393700787,
          "duration": 0.23229166666666856
        },
        {
          "name": "D3",
          "midi": 50,
          "time": 172.8447916666664,
          "velocity": 0.6535433070866141,
          "duration": 0.22083333333333144
        },
        {
          "name": "F4",
          "midi": 65,
          "time": 172.96145833333307,
          "velocity": 0.5748031496062992,
          "duration": 0.16249999999999432
        },
        {
          "name": "C#3",
          "midi": 49,
          "time": 173.06562499999973,
          "velocity": 0.3464566929133858,
          "duration": 0.13958333333332007
        },
        {
          "name": "C#2",
          "midi": 37,
          "time": 173.1354166666664,
          "velocity": 0.47244094488188976,
          "duration": 0.17395833333330302
        },
        {
          "name": "G5",
          "midi": 79,
          "time": 173.18124999999972,
          "velocity": 0.6614173228346457,
          "duration": 0.23229166666664014
        },
        {
          "name": "D5",
          "midi": 74,
          "time": 173.29791666666637,
          "velocity": 0.5118110236220472,
          "duration": 0.22083333333333144
        },
        {
          "name": "B1",
          "midi": 35,
          "time": 173.40208333333302,
          "velocity": 0.4094488188976378,
          "duration": 0.20937499999999432
        },
        {
          "name": "G5",
          "midi": 79,
          "time": 173.41354166666636,
          "velocity": 0.5984251968503937,
          "duration": 0.22083333333333144
        },
        {
          "name": "D5",
          "midi": 74,
          "time": 173.5187499999997,
          "velocity": 0.5275590551181102,
          "duration": 0.19687500000000568
        },
        {
          "name": "G5",
          "midi": 79,
          "time": 173.6343749999997,
          "velocity": 0.5748031496062992,
          "duration": 0.36041666666670835
        },
        {
          "name": "A2",
          "midi": 45,
          "time": 173.74999999999972,
          "velocity": 0.6692913385826772,
          "duration": 0.24375000000000568
        },
        {
          "name": "G5",
          "midi": 79,
          "time": 173.9947916666664,
          "velocity": 0.4645669291338583,
          "duration": 0.17395833333333144
        },
        {
          "name": "D5",
          "midi": 74,
          "time": 173.9947916666664,
          "velocity": 0.5118110236220472,
          "duration": 0.33645833333332575
        },
        {
          "name": "A#2",
          "midi": 46,
          "time": 173.9947916666664,
          "velocity": 0.6062992125984252,
          "duration": 0.32499999999998863
        },
        {
          "name": "A#2",
          "midi": 46,
          "time": 174.3197916666664,
          "velocity": 0.7165354330708661,
          "duration": 0.36041666666667993
        },
        {
          "name": "A#5",
          "midi": 82,
          "time": 174.33124999999973,
          "velocity": 0.2677165354330709,
          "duration": 0.16249999999999432
        },
        {
          "name": "D5",
          "midi": 74,
          "time": 174.33124999999973,
          "velocity": 0.47244094488188976,
          "duration": 0.2552083333333144
        },
        {
          "name": "F3",
          "midi": 53,
          "time": 174.33124999999973,
          "velocity": 0.47244094488188976,
          "duration": 0.5822916666666629
        },
        {
          "name": "A#3",
          "midi": 58,
          "time": 174.44687499999972,
          "velocity": 0.3937007874015748,
          "duration": 0.22083333333333144
        },
        {
          "name": "A#2",
          "midi": 46,
          "time": 174.6791666666664,
          "velocity": 0.8267716535433071,
          "duration": 0.21041666666667425
        },
        {
          "name": "C#5",
          "midi": 73,
          "time": 174.78333333333308,
          "velocity": 0.4566929133858268,
          "duration": 0.2916666666666572
        },
        {
          "name": "C#3",
          "midi": 49,
          "time": 174.88958333333306,
          "velocity": 0.33070866141732286,
          "duration": 0.22083333333333144
        },
        {
          "name": "A#2",
          "midi": 46,
          "time": 174.88958333333306,
          "velocity": 0.5748031496062992,
          "duration": 0.17395833333333144
        },
        {
          "name": "C#2",
          "midi": 37,
          "time": 174.9479166666664,
          "velocity": 0.5905511811023622,
          "duration": 0.16249999999999432
        },
        {
          "name": "F5",
          "midi": 77,
          "time": 175.1104166666664,
          "velocity": 0.3937007874015748,
          "duration": 0.4760416666666458
        },
        {
          "name": "C#3",
          "midi": 49,
          "time": 175.1104166666664,
          "velocity": 0.5905511811023622,
          "duration": 0.23229166666666856
        },
        {
          "name": "C#2",
          "midi": 37,
          "time": 175.1104166666664,
          "velocity": 0.47244094488188976,
          "duration": 0.6041666666666572
        },
        {
          "name": "A3",
          "midi": 57,
          "time": 175.2260416666664,
          "velocity": 0.4566929133858268,
          "duration": 0.33645833333332575
        },
        {
          "name": "D5",
          "midi": 74,
          "time": 175.34270833333306,
          "velocity": 0.4645669291338583,
          "duration": 0.20937499999999432
        },
        {
          "name": "C#3",
          "midi": 49,
          "time": 175.34270833333306,
          "velocity": 0.5905511811023622,
          "duration": 0.23229166666664014
        },
        {
          "name": "C#3",
          "midi": 49,
          "time": 175.5749999999997,
          "velocity": 0.7480314960629921,
          "duration": 0.23229166666669698
        },
        {
          "name": "F5",
          "midi": 77,
          "time": 175.58645833333304,
          "velocity": 0.5196850393700787,
          "duration": 0.18541666666666856
        },
        {
          "name": "D5",
          "midi": 74,
          "time": 175.79479166666638,
          "velocity": 0.4881889763779528,
          "duration": 0.23229166666666856
        },
        {
          "name": "A4",
          "midi": 69,
          "time": 175.80624999999972,
          "velocity": 0.5118110236220472,
          "duration": 0.2666666666666515
        },
        {
          "name": "D3",
          "midi": 50,
          "time": 175.80624999999972,
          "velocity": 0.4566929133858268,
          "duration": 0.22083333333333144
        },
        {
          "name": "D2",
          "midi": 38,
          "time": 175.8760416666664,
          "velocity": 0.4645669291338583,
          "duration": 0.24374999999997726
        },
        {
          "name": "D3",
          "midi": 50,
          "time": 176.02708333333305,
          "velocity": 0.7007874015748031,
          "duration": 0.580208333333303
        },
        {
          "name": "D2",
          "midi": 38,
          "time": 176.11979166666637,
          "velocity": 0.4645669291338583,
          "duration": 0.4645833333333087
        },
        {
          "name": "A3",
          "midi": 57,
          "time": 176.15520833333304,
          "velocity": 0.4566929133858268,
          "duration": 0.3604166666666515
        },
        {
          "name": "D4",
          "midi": 62,
          "time": 176.24791666666636,
          "velocity": 0.33858267716535434,
          "duration": 0.18541666666666856
        },
        {
          "name": "D3",
          "midi": 50,
          "time": 176.60833333333304,
          "velocity": 0.49606299212598426,
          "duration": 0.3843750000000057
        },
        {
          "name": "C3",
          "midi": 48,
          "time": 176.7124999999997,
          "velocity": 0.4251968503937008,
          "duration": 0.16354166666667425
        },
        {
          "name": "C2",
          "midi": 36,
          "time": 176.73541666666637,
          "velocity": 0.4409448818897638,
          "duration": 0.1875
        },
        {
          "name": "F5",
          "midi": 77,
          "time": 176.81770833333303,
          "velocity": 0.5984251968503937,
          "duration": 0.23229166666666856
        },
        {
          "name": "B1",
          "midi": 35,
          "time": 177.03854166666636,
          "velocity": 0.31496062992125984,
          "duration": 0.16250000000002274
        },
        {
          "name": "G5",
          "midi": 79,
          "time": 177.0499999999997,
          "velocity": 0.4645669291338583,
          "duration": 0.1395833333333485
        },
        {
          "name": "D5",
          "midi": 74,
          "time": 177.16666666666637,
          "velocity": 0.5433070866141733,
          "duration": 0.18541666666666856
        },
        {
          "name": "A2",
          "midi": 45,
          "time": 177.3874999999997,
          "velocity": 0.6456692913385826,
          "duration": 0.23229166666669698
        },
        {
          "name": "F5",
          "midi": 77,
          "time": 177.39895833333304,
          "velocity": 0.36220472440944884,
          "duration": 0.22083333333335986
        },
        {
          "name": "F5",
          "midi": 77,
          "time": 177.61874999999972,
          "velocity": 0.5354330708661418,
          "duration": 0.19687500000000568
        },
        {
          "name": "D5",
          "midi": 74,
          "time": 177.61874999999972,
          "velocity": 0.5118110236220472,
          "duration": 0.19687500000000568
        },
        {
          "name": "E2",
          "midi": 40,
          "time": 177.61874999999972,
          "velocity": 0.5669291338582677,
          "duration": 0.9177083333333371
        },
        {
          "name": "E3",
          "midi": 52,
          "time": 177.8510416666664,
          "velocity": 0.41732283464566927,
          "duration": 0.22083333333333144
        },
        {
          "name": "A#3",
          "midi": 58,
          "time": 177.95624999999973,
          "velocity": 0.5196850393700787,
          "duration": 0.5687499999999943
        },
        {
          "name": "E3",
          "midi": 52,
          "time": 178.07187499999972,
          "velocity": 0.5354330708661418,
          "duration": 0.23229166666666856
        },
        {
          "name": "F5",
          "midi": 77,
          "time": 178.3041666666664,
          "velocity": 0.44881889763779526,
          "duration": 0.20937499999999432
        },
        {
          "name": "E3",
          "midi": 52,
          "time": 178.3041666666664,
          "velocity": 0.4251968503937008,
          "duration": 0.5697916666666742
        },
        {
          "name": "C#5",
          "midi": 73,
          "time": 178.52499999999972,
          "velocity": 0.4881889763779528,
          "duration": 0.35000000000002274
        },
        {
          "name": "A2",
          "midi": 45,
          "time": 178.52499999999972,
          "velocity": 0.7165354330708661,
          "duration": 0.22083333333333144
        },
        {
          "name": "G5",
          "midi": 79,
          "time": 178.53645833333306,
          "velocity": 0.4566929133858268,
          "duration": 0.40729166666667993
        },
        {
          "name": "A4",
          "midi": 69,
          "time": 178.53645833333306,
          "velocity": 0.5275590551181102,
          "duration": 0.22083333333333144
        },
        {
          "name": "A2",
          "midi": 45,
          "time": 178.74583333333305,
          "velocity": 0.8267716535433071,
          "duration": 0.21041666666670267
        },
        {
          "name": "A4",
          "midi": 69,
          "time": 178.7572916666664,
          "velocity": 0.2755905511811024,
          "duration": 0.18750000000002842
        },
        {
          "name": "C#5",
          "midi": 73,
          "time": 178.87395833333306,
          "velocity": 0.47244094488188976,
          "duration": 0.20937500000002274
        },
        {
          "name": "E3",
          "midi": 52,
          "time": 178.87395833333306,
          "velocity": 0.5354330708661418,
          "duration": 0.5458333333333485
        },
        {
          "name": "A2",
          "midi": 45,
          "time": 178.95520833333308,
          "velocity": 0.7165354330708661,
          "duration": 0.32500000000001705
        },
        {
          "name": "A3",
          "midi": 57,
          "time": 178.99062499999977,
          "velocity": 0.3858267716535433,
          "duration": 0.1510416666666572
        },
        {
          "name": "F5",
          "midi": 77,
          "time": 179.2114583333331,
          "velocity": 0.4015748031496063,
          "duration": 0.23229166666664014
        },
        {
          "name": "A2",
          "midi": 45,
          "time": 179.2802083333331,
          "velocity": 0.5196850393700787,
          "duration": 0.29062499999997726
        },
        {
          "name": "A5",
          "midi": 81,
          "time": 179.43124999999975,
          "velocity": 0.31496062992125984,
          "duration": 0.27812499999998863
        },
        {
          "name": "D2",
          "midi": 38,
          "time": 179.43124999999975,
          "velocity": 0.49606299212598426,
          "duration": 0.24374999999997726
        },
        {
          "name": "F5",
          "midi": 77,
          "time": 179.44374999999974,
          "velocity": 0.3858267716535433,
          "duration": 0.32499999999998863
        },
        {
          "name": "D3",
          "midi": 50,
          "time": 179.44374999999974,
          "velocity": 0.5196850393700787,
          "duration": 0.22083333333333144
        },
        {
          "name": "D3",
          "midi": 50,
          "time": 179.6635416666664,
          "velocity": 0.5590551181102362,
          "duration": 0.23229166666666856
        },
        {
          "name": "D2",
          "midi": 38,
          "time": 179.67499999999973,
          "velocity": 0.5354330708661418,
          "duration": 0.22083333333333144
        },
        {
          "name": "D3",
          "midi": 50,
          "time": 179.89583333333306,
          "velocity": 0.5669291338582677,
          "duration": 0.19687500000000568
        },
        {
          "name": "D2",
          "midi": 38,
          "time": 179.89583333333306,
          "velocity": 0.48031496062992124,
          "duration": 0.4177083333333371
        },
        {
          "name": "F5",
          "midi": 77,
          "time": 180.23229166666638,
          "velocity": 0.41732283464566927,
          "duration": 0.17395833333333144
        },
        {
          "name": "D5",
          "midi": 74,
          "time": 180.23229166666638,
          "velocity": 0.33858267716535434,
          "duration": 0.5104166666666572
        },
        {
          "name": "D3",
          "midi": 50,
          "time": 180.23229166666638,
          "velocity": 0.5196850393700787,
          "duration": 0.8020833333333144
        },
        {
          "name": "D2",
          "midi": 38,
          "time": 180.3135416666664,
          "velocity": 0.5118110236220472,
          "duration": 0.8718749999999602
        },
        {
          "name": "F#5",
          "midi": 78,
          "time": 180.44166666666638,
          "velocity": 0.3228346456692913,
          "duration": 0.20937499999999432
        },
        {
          "name": "D3",
          "midi": 50,
          "time": 181.39479166666635,
          "velocity": 0.3779527559055118,
          "duration": 0.13958333333332007
        },
        {
          "name": "D3",
          "midi": 50,
          "time": 182.05729166666634,
          "velocity": 0.5196850393700787,
          "duration": 1.1968750000000057
        },
        {
          "name": "D2",
          "midi": 38,
          "time": 182.30104166666635,
          "velocity": 0.3700787401574803,
          "duration": 0.16249999999999432
        },
        {
          "name": "D3",
          "midi": 50,
          "time": 183.69479166666636,
          "velocity": 0.6141732283464567,
          "duration": 0.23229166666666856
        }
      ],
      "controlChanges": {},
      "id": 1,
      "name": "",
      "instrumentNumber": 4,
      "instrument": "electric piano 1",
      "instrumentFamily": "piano",
      "channelNumber": 0,
      "isPercussion": false
    }
  ]
};*/