var json = {
  "header": {
    "PPQ": 192,
    "bpm": 182.000182000182,
    "timeSignature": [
      4,
      4
    ],
    "name": "Piano Template"
  },
  "tempo": [
    {
      "absoluteTime": 0,
      "seconds": 0,
      "bpm": 182.000182000182
    },
    {
      "absoluteTime": 25248,
      "seconds": 43.35160499999999,
      "bpm": 180.00018000018
    },
    {
      "absoluteTime": 31392,
      "seconds": 53.90104499999999,
      "bpm": 183.0004758012371
    },
    {
      "absoluteTime": 36000,
      "seconds": 61.813124999999985,
      "bpm": 182.000182000182
    },
    {
      "absoluteTime": 37536,
      "seconds": 64.45048499999999,
      "bpm": 175.00007291669704
    },
    {
      "absoluteTime": 42912,
      "seconds": 73.68124499999999,
      "bpm": 180.00018000018
    },
    {
      "absoluteTime": 48288,
      "seconds": 82.912005,
      "bpm": 183.0004758012371
    },
    {
      "absoluteTime": 49824,
      "seconds": 85.549365,
      "bpm": 182.000182000182
    },
    {
      "absoluteTime": 62112,
      "seconds": 106.64824499999999,
      "bpm": 183.0004758012371
    },
    {
      "absoluteTime": 68256,
      "seconds": 117.19768499999999,
      "bpm": 182.000182000182
    },
    {
      "absoluteTime": 86688,
      "seconds": 148.846005,
      "bpm": 185.000185000185
    },
    {
      "absoluteTime": 95136,
      "seconds": 163.351485,
      "bpm": 184.00053973491654
    },
    {
      "absoluteTime": 97440,
      "seconds": 167.307525,
      "bpm": 182.000182000182
    },
    {
      "absoluteTime": 98976,
      "seconds": 169.944885,
      "bpm": 179.0002834171154
    },
    {
      "absoluteTime": 107424,
      "seconds": 184.450365,
      "bpm": 170.0000850000425
    },
    {
      "absoluteTime": 108960,
      "seconds": 187.087725,
      "bpm": 150
    },
    {
      "absoluteTime": 109728,
      "seconds": 188.406405,
      "bpm": 115.00002875000719
    },
    {
      "absoluteTime": 111840,
      "seconds": 192.03277500000002,
      "bpm": 100
    }
  ],
  "timeSignature": [
    {
      "absoluteTime": 0,
      "seconds": 0,
      "numerator": 4,
      "denominator": 2,
      "click": 24,
      "notesQ": 8
    },
    {
      "absoluteTime": 111264,
      "seconds": 191.043765,
      "numerator": 3,
      "denominator": 2,
      "click": 24,
      "notesQ": 8
    },
    {
      "absoluteTime": 111840,
      "seconds": 192.03277500000002,
      "numerator": 4,
      "denominator": 2,
      "click": 24,
      "notesQ": 8
    },
    {
      "absoluteTime": 113484,
      "seconds": 194.855574375,
      "numerator": 5,
      "denominator": 2,
      "click": 24,
      "notesQ": 8
    },
    {
      "absoluteTime": 114492,
      "seconds": 196.58634187500002,
      "numerator": 4,
      "denominator": 2,
      "click": 24,
      "notesQ": 8
    }
  ],
  "startTime": 0,
  "duration": 199.08633937499374,
  "tracks": [
    {
      "startTime": 0,
      "duration": 0,
      "length": 0,
      "notes": [],
      "controlChanges": {},
      "id": 0,
      "name": "Piano Template"
    },
    {
      "startTime": 1.1538449999999998,
      "duration": 199.08633937499374,
      "length": 1682,
      "notes": [
        {
          "name": "C3",
          "midi": 48,
          "time": 1.1538449999999998,
          "velocity": 0.8661417322834646,
          "duration": 0.06868125000000003
        },
        {
          "name": "C#3",
          "midi": 49,
          "time": 1.2362624999999998,
          "velocity": 0.8661417322834646,
          "duration": 0.06868125000000003
        },
        {
          "name": "C#3",
          "midi": 49,
          "time": 1.3186799999999999,
          "velocity": 0.8661417322834646,
          "duration": 0.05494500000000002
        },
        {
          "name": "A3",
          "midi": 57,
          "time": 1.483515,
          "velocity": 0.8661417322834646,
          "duration": 0.05494500000000002
        },
        {
          "name": "G3",
          "midi": 55,
          "time": 1.64835,
          "velocity": 0.8661417322834646,
          "duration": 0.06868125000000003
        },
        {
          "name": "A3",
          "midi": 57,
          "time": 1.7307675,
          "velocity": 0.8661417322834646,
          "duration": 0.05494500000000002
        },
        {
          "name": "E3",
          "midi": 52,
          "time": 1.8956025,
          "velocity": 0.8661417322834646,
          "duration": 0.05494500000000002
        },
        {
          "name": "F3",
          "midi": 53,
          "time": 2.0604375,
          "velocity": 0.8661417322834646,
          "duration": 0.05494500000000002
        },
        {
          "name": "A3",
          "midi": 57,
          "time": 2.2252725,
          "velocity": 0.8661417322834646,
          "duration": 0.06868125000000003
        },
        {
          "name": "G3",
          "midi": 55,
          "time": 2.30769,
          "velocity": 0.8661417322834646,
          "duration": 0.06868125000000003
        },
        {
          "name": "F3",
          "midi": 53,
          "time": 2.3901075,
          "velocity": 0.8661417322834646,
          "duration": 0.06868125000000003
        },
        {
          "name": "E3",
          "midi": 52,
          "time": 2.472525,
          "velocity": 0.8661417322834646,
          "duration": 0.06868125000000003
        },
        {
          "name": "D3",
          "midi": 50,
          "time": 2.5549425,
          "velocity": 0.8661417322834646,
          "duration": 0.11675812500000005
        },
        {
          "name": "A3",
          "midi": 57,
          "time": 2.7197775,
          "velocity": 0.8661417322834646,
          "duration": 0.05494500000000002
        },
        {
          "name": "G3",
          "midi": 55,
          "time": 2.8846125000000002,
          "velocity": 0.8661417322834646,
          "duration": 0.06868125000000003
        },
        {
          "name": "A3",
          "midi": 57,
          "time": 2.9670300000000003,
          "velocity": 0.8661417322834646,
          "duration": 0.05494500000000002
        },
        {
          "name": "E3",
          "midi": 52,
          "time": 3.1318650000000003,
          "velocity": 0.8661417322834646,
          "duration": 0.05494500000000002
        },
        {
          "name": "F3",
          "midi": 53,
          "time": 3.2967000000000004,
          "velocity": 0.8661417322834646,
          "duration": 0.05494500000000002
        },
        {
          "name": "A3",
          "midi": 57,
          "time": 3.4615350000000005,
          "velocity": 0.8661417322834646,
          "duration": 0.02747250000000001
        },
        {
          "name": "C3",
          "midi": 48,
          "time": 3.5439525000000005,
          "velocity": 0.8661417322834646,
          "duration": 0.05494500000000002
        },
        {
          "name": "C#3",
          "midi": 49,
          "time": 3.7087875000000006,
          "velocity": 0.8661417322834646,
          "duration": 0.05494500000000002
        },
        {
          "name": "D3",
          "midi": 50,
          "time": 3.8736225000000006,
          "velocity": 0.8661417322834646,
          "duration": 0.05494500000000002
        },
        {
          "name": "A3",
          "midi": 57,
          "time": 4.038457500000001,
          "velocity": 0.8661417322834646,
          "duration": 0.05494500000000002
        },
        {
          "name": "G3",
          "midi": 55,
          "time": 4.203292500000001,
          "velocity": 0.8661417322834646,
          "duration": 0.06868125000000003
        },
        {
          "name": "A3",
          "midi": 57,
          "time": 4.285710000000001,
          "velocity": 0.8661417322834646,
          "duration": 0.05494500000000002
        },
        {
          "name": "E3",
          "midi": 52,
          "time": 4.450545000000001,
          "velocity": 0.8661417322834646,
          "duration": 0.05494500000000002
        },
        {
          "name": "F3",
          "midi": 53,
          "time": 4.615380000000001,
          "velocity": 0.8661417322834646,
          "duration": 0.05494500000000002
        },
        {
          "name": "A3",
          "midi": 57,
          "time": 4.780215000000001,
          "velocity": 0.8661417322834646,
          "duration": 0.06868125000000003
        },
        {
          "name": "G3",
          "midi": 55,
          "time": 4.862632500000001,
          "velocity": 0.8661417322834646,
          "duration": 0.06868125000000003
        },
        {
          "name": "F3",
          "midi": 53,
          "time": 4.945050000000001,
          "velocity": 0.8661417322834646,
          "duration": 0.06868125000000003
        },
        {
          "name": "E3",
          "midi": 52,
          "time": 5.027467500000001,
          "velocity": 0.8661417322834646,
          "duration": 0.06868125000000003
        },
        {
          "name": "D3",
          "midi": 50,
          "time": 5.109885000000001,
          "velocity": 0.8661417322834646,
          "duration": 0.1167581249999996
        },
        {
          "name": "A3",
          "midi": 57,
          "time": 5.27472,
          "velocity": 0.8661417322834646,
          "duration": 0.05494500000000002
        },
        {
          "name": "G3",
          "midi": 55,
          "time": 5.439555,
          "velocity": 0.8661417322834646,
          "duration": 0.06868125000000003
        },
        {
          "name": "A3",
          "midi": 57,
          "time": 5.5219725,
          "velocity": 0.8661417322834646,
          "duration": 0.05494500000000002
        },
        {
          "name": "E3",
          "midi": 52,
          "time": 5.6868075000000005,
          "velocity": 0.8661417322834646,
          "duration": 0.05494500000000002
        },
        {
          "name": "F3",
          "midi": 53,
          "time": 5.8516425000000005,
          "velocity": 0.8661417322834646,
          "duration": 0.05494500000000002
        },
        {
          "name": "A3",
          "midi": 57,
          "time": 6.016477500000001,
          "velocity": 0.8661417322834646,
          "duration": 0.02747250000000001
        },
        {
          "name": "C3",
          "midi": 48,
          "time": 6.098895000000001,
          "velocity": 0.8661417322834646,
          "duration": 0.05494500000000002
        },
        {
          "name": "C#3",
          "midi": 49,
          "time": 6.263730000000001,
          "velocity": 0.8661417322834646,
          "duration": 0.05494500000000002
        },
        {
          "name": "D3",
          "midi": 50,
          "time": 6.428565000000001,
          "velocity": 0.8661417322834646,
          "duration": 0.05494500000000002
        },
        {
          "name": "A3",
          "midi": 57,
          "time": 6.593400000000001,
          "velocity": 0.8661417322834646,
          "duration": 0.05494500000000002
        },
        {
          "name": "G3",
          "midi": 55,
          "time": 6.758235000000001,
          "velocity": 0.8661417322834646,
          "duration": 0.06868125000000003
        },
        {
          "name": "A3",
          "midi": 57,
          "time": 6.840652500000001,
          "velocity": 0.8661417322834646,
          "duration": 0.05494500000000002
        },
        {
          "name": "E3",
          "midi": 52,
          "time": 7.005487500000001,
          "velocity": 0.8661417322834646,
          "duration": 0.05494500000000002
        },
        {
          "name": "F3",
          "midi": 53,
          "time": 7.170322500000001,
          "velocity": 0.8661417322834646,
          "duration": 0.05494500000000002
        },
        {
          "name": "A3",
          "midi": 57,
          "time": 7.335157500000001,
          "velocity": 0.8661417322834646,
          "duration": 0.06868125000000003
        },
        {
          "name": "G3",
          "midi": 55,
          "time": 7.417575000000001,
          "velocity": 0.8661417322834646,
          "duration": 0.06868125000000003
        },
        {
          "name": "F3",
          "midi": 53,
          "time": 7.499992500000001,
          "velocity": 0.8661417322834646,
          "duration": 0.06868125000000003
        },
        {
          "name": "E3",
          "midi": 52,
          "time": 7.582410000000001,
          "velocity": 0.8661417322834646,
          "duration": 0.06868125000000003
        },
        {
          "name": "D3",
          "midi": 50,
          "time": 7.664827500000001,
          "velocity": 0.8661417322834646,
          "duration": 0.1167581249999996
        },
        {
          "name": "A3",
          "midi": 57,
          "time": 7.9120800000000004,
          "velocity": 0.8661417322834646,
          "duration": 0.05494500000000002
        },
        {
          "name": "G3",
          "midi": 55,
          "time": 8.076915,
          "velocity": 0.8661417322834646,
          "duration": 0.06868124999999914
        },
        {
          "name": "A3",
          "midi": 57,
          "time": 8.159332499999998,
          "velocity": 0.8661417322834646,
          "duration": 0.05494500000000002
        },
        {
          "name": "E3",
          "midi": 52,
          "time": 8.324167499999998,
          "velocity": 0.8661417322834646,
          "duration": 0.05494500000000002
        },
        {
          "name": "F3",
          "midi": 53,
          "time": 8.489002499999998,
          "velocity": 0.8661417322834646,
          "duration": 0.05494500000000002
        },
        {
          "name": "A3",
          "midi": 57,
          "time": 8.653837499999998,
          "velocity": 0.8661417322834646,
          "duration": 0.02747250000000001
        },
        {
          "name": "C3",
          "midi": 48,
          "time": 8.736254999999998,
          "velocity": 0.8661417322834646,
          "duration": 0.05494500000000002
        },
        {
          "name": "C#3",
          "midi": 49,
          "time": 8.901089999999998,
          "velocity": 0.8661417322834646,
          "duration": 0.05494500000000002
        },
        {
          "name": "D3",
          "midi": 50,
          "time": 9.065924999999998,
          "velocity": 0.8661417322834646,
          "duration": 0.05494500000000002
        },
        {
          "name": "A3",
          "midi": 57,
          "time": 9.230759999999998,
          "velocity": 0.8661417322834646,
          "duration": 0.05494500000000002
        },
        {
          "name": "G3",
          "midi": 55,
          "time": 9.395594999999998,
          "velocity": 0.8661417322834646,
          "duration": 0.06868124999999914
        },
        {
          "name": "A3",
          "midi": 57,
          "time": 9.478012499999997,
          "velocity": 0.8661417322834646,
          "duration": 0.05494500000000002
        },
        {
          "name": "E3",
          "midi": 52,
          "time": 9.642847499999997,
          "velocity": 0.8661417322834646,
          "duration": 0.05494500000000002
        },
        {
          "name": "F3",
          "midi": 53,
          "time": 9.807682499999997,
          "velocity": 0.8661417322834646,
          "duration": 0.05494500000000002
        },
        {
          "name": "A3",
          "midi": 57,
          "time": 9.972517499999997,
          "velocity": 0.8661417322834646,
          "duration": 0.06868124999999914
        },
        {
          "name": "G3",
          "midi": 55,
          "time": 10.054934999999995,
          "velocity": 0.8661417322834646,
          "duration": 0.06868124999999914
        },
        {
          "name": "F3",
          "midi": 53,
          "time": 10.137352499999993,
          "velocity": 0.8661417322834646,
          "duration": 0.06868124999999914
        },
        {
          "name": "E3",
          "midi": 52,
          "time": 10.219769999999992,
          "velocity": 0.8661417322834646,
          "duration": 0.06868124999999914
        },
        {
          "name": "D3",
          "midi": 50,
          "time": 10.30218749999999,
          "velocity": 0.8661417322834646,
          "duration": 0.15109874999999917
        },
        {
          "name": "A3",
          "midi": 57,
          "time": 10.549439999999988,
          "velocity": 0.8661417322834646,
          "duration": 0.05494500000000002
        },
        {
          "name": "G3",
          "midi": 55,
          "time": 10.714274999999988,
          "velocity": 0.8661417322834646,
          "duration": 0.06868124999999914
        },
        {
          "name": "A3",
          "midi": 57,
          "time": 10.796692499999986,
          "velocity": 0.8661417322834646,
          "duration": 0.05494500000000002
        },
        {
          "name": "C4",
          "midi": 60,
          "time": 10.961527499999987,
          "velocity": 0.8661417322834646,
          "duration": 0.05494500000000002
        },
        {
          "name": "C4",
          "midi": 60,
          "time": 11.126362499999987,
          "velocity": 0.8661417322834646,
          "duration": 0.06868124999999914
        },
        {
          "name": "A3",
          "midi": 57,
          "time": 11.208779999999985,
          "velocity": 0.8661417322834646,
          "duration": 0.13736250000000005
        },
        {
          "name": "C4",
          "midi": 60,
          "time": 11.373614999999985,
          "velocity": 0.8661417322834646,
          "duration": 0.13736250000000005
        },
        {
          "name": "E4",
          "midi": 64,
          "time": 11.373614999999985,
          "velocity": 0.8661417322834646,
          "duration": 0.13736250000000005
        },
        {
          "name": "C4",
          "midi": 60,
          "time": 11.538449999999985,
          "velocity": 0.8661417322834646,
          "duration": 0.06868124999999914
        },
        {
          "name": "C#4",
          "midi": 61,
          "time": 11.620867499999983,
          "velocity": 0.8661417322834646,
          "duration": 0.06868124999999914
        },
        {
          "name": "A3",
          "midi": 57,
          "time": 11.703284999999982,
          "velocity": 0.8661417322834646,
          "duration": 0.05494500000000002
        },
        {
          "name": "D4",
          "midi": 62,
          "time": 11.703284999999982,
          "velocity": 0.8661417322834646,
          "duration": 0.05494500000000002
        },
        {
          "name": "F4",
          "midi": 65,
          "time": 11.868119999999982,
          "velocity": 0.8661417322834646,
          "duration": 0.05494500000000002
        },
        {
          "name": "A4",
          "midi": 69,
          "time": 11.868119999999982,
          "velocity": 0.8661417322834646,
          "duration": 0.05494500000000002
        },
        {
          "name": "G4",
          "midi": 67,
          "time": 12.032954999999982,
          "velocity": 0.8661417322834646,
          "duration": 0.06868124999999914
        },
        {
          "name": "A4",
          "midi": 69,
          "time": 12.11537249999998,
          "velocity": 0.8661417322834646,
          "duration": 0.05494500000000002
        },
        {
          "name": "C4",
          "midi": 60,
          "time": 12.28020749999998,
          "velocity": 0.8661417322834646,
          "duration": 0.05494500000000002
        },
        {
          "name": "E4",
          "midi": 64,
          "time": 12.28020749999998,
          "velocity": 0.8661417322834646,
          "duration": 0.05494500000000002
        },
        {
          "name": "D4",
          "midi": 62,
          "time": 12.44504249999998,
          "velocity": 0.8661417322834646,
          "duration": 0.05494500000000002
        },
        {
          "name": "F4",
          "midi": 65,
          "time": 12.44504249999998,
          "velocity": 0.8661417322834646,
          "duration": 0.05494500000000002
        },
        {
          "name": "A4",
          "midi": 69,
          "time": 12.60987749999998,
          "velocity": 0.8661417322834646,
          "duration": 0.06868124999999914
        },
        {
          "name": "G4",
          "midi": 67,
          "time": 12.692294999999978,
          "velocity": 0.8661417322834646,
          "duration": 0.06868124999999914
        },
        {
          "name": "F4",
          "midi": 65,
          "time": 12.774712499999977,
          "velocity": 0.8661417322834646,
          "duration": 0.06868124999999914
        },
        {
          "name": "E4",
          "midi": 64,
          "time": 12.857129999999975,
          "velocity": 0.8661417322834646,
          "duration": 0.06868124999999914
        },
        {
          "name": "D4",
          "midi": 62,
          "time": 12.939547499999973,
          "velocity": 0.8661417322834646,
          "duration": 0.11675812500000049
        },
        {
          "name": "F4",
          "midi": 65,
          "time": 13.186799999999973,
          "velocity": 0.8661417322834646,
          "duration": 0.05494500000000002
        },
        {
          "name": "A4",
          "midi": 69,
          "time": 13.186799999999973,
          "velocity": 0.8661417322834646,
          "duration": 0.05494500000000002
        },
        {
          "name": "G4",
          "midi": 67,
          "time": 13.351634999999973,
          "velocity": 0.8661417322834646,
          "duration": 0.06868124999999914
        },
        {
          "name": "A4",
          "midi": 69,
          "time": 13.434052499999972,
          "velocity": 0.8661417322834646,
          "duration": 0.05494500000000002
        },
        {
          "name": "C4",
          "midi": 60,
          "time": 13.598887499999972,
          "velocity": 0.8661417322834646,
          "duration": 0.13736250000000005
        },
        {
          "name": "E4",
          "midi": 64,
          "time": 13.598887499999972,
          "velocity": 0.8661417322834646,
          "duration": 0.13736250000000005
        },
        {
          "name": "D4",
          "midi": 62,
          "time": 13.763722499999972,
          "velocity": 0.8661417322834646,
          "duration": 0.06868124999999914
        },
        {
          "name": "F4",
          "midi": 65,
          "time": 13.763722499999972,
          "velocity": 0.8661417322834646,
          "duration": 0.06868124999999914
        },
        {
          "name": "A4",
          "midi": 69,
          "time": 13.84613999999997,
          "velocity": 0.8661417322834646,
          "duration": 0.05494500000000002
        },
        {
          "name": "A3",
          "midi": 57,
          "time": 14.01097499999997,
          "velocity": 0.8661417322834646,
          "duration": 0.05494500000000002
        },
        {
          "name": "C4",
          "midi": 60,
          "time": 14.01097499999997,
          "velocity": 0.8661417322834646,
          "duration": 0.05494500000000002
        },
        {
          "name": "A3",
          "midi": 57,
          "time": 14.17580999999997,
          "velocity": 0.8661417322834646,
          "duration": 0.05494500000000002
        },
        {
          "name": "C#4",
          "midi": 61,
          "time": 14.17580999999997,
          "velocity": 0.8661417322834646,
          "duration": 0.05494500000000002
        },
        {
          "name": "A3",
          "midi": 57,
          "time": 14.34064499999997,
          "velocity": 0.8661417322834646,
          "duration": 0.05494500000000002
        },
        {
          "name": "D4",
          "midi": 62,
          "time": 14.34064499999997,
          "velocity": 0.8661417322834646,
          "duration": 0.05494500000000002
        },
        {
          "name": "F4",
          "midi": 65,
          "time": 14.50547999999997,
          "velocity": 0.8661417322834646,
          "duration": 0.05494500000000002
        },
        {
          "name": "A4",
          "midi": 69,
          "time": 14.50547999999997,
          "velocity": 0.8661417322834646,
          "duration": 0.05494500000000002
        },
        {
          "name": "G4",
          "midi": 67,
          "time": 14.67031499999997,
          "velocity": 0.8661417322834646,
          "duration": 0.06868124999999914
        },
        {
          "name": "A4",
          "midi": 69,
          "time": 14.752732499999968,
          "velocity": 0.8661417322834646,
          "duration": 0.05494500000000002
        },
        {
          "name": "C4",
          "midi": 60,
          "time": 14.917567499999969,
          "velocity": 0.8661417322834646,
          "duration": 0.05494500000000002
        },
        {
          "name": "E4",
          "midi": 64,
          "time": 14.917567499999969,
          "velocity": 0.8661417322834646,
          "duration": 0.05494500000000002
        },
        {
          "name": "D4",
          "midi": 62,
          "time": 15.082402499999969,
          "velocity": 0.8661417322834646,
          "duration": 0.05494500000000002
        },
        {
          "name": "F4",
          "midi": 65,
          "time": 15.082402499999969,
          "velocity": 0.8661417322834646,
          "duration": 0.05494500000000002
        },
        {
          "name": "A4",
          "midi": 69,
          "time": 15.247237499999969,
          "velocity": 0.8661417322834646,
          "duration": 0.06868124999999914
        },
        {
          "name": "G4",
          "midi": 67,
          "time": 15.329654999999967,
          "velocity": 0.8661417322834646,
          "duration": 0.06868124999999914
        },
        {
          "name": "F4",
          "midi": 65,
          "time": 15.412072499999965,
          "velocity": 0.8661417322834646,
          "duration": 0.06868124999999914
        },
        {
          "name": "E4",
          "midi": 64,
          "time": 15.494489999999963,
          "velocity": 0.8661417322834646,
          "duration": 0.06868124999999914
        },
        {
          "name": "D4",
          "midi": 62,
          "time": 15.576907499999962,
          "velocity": 0.8661417322834646,
          "duration": 0.11675812500000049
        },
        {
          "name": "F4",
          "midi": 65,
          "time": 15.824159999999962,
          "velocity": 0.8661417322834646,
          "duration": 0.05494500000000002
        },
        {
          "name": "A4",
          "midi": 69,
          "time": 15.824159999999962,
          "velocity": 0.8661417322834646,
          "duration": 0.05494500000000002
        },
        {
          "name": "G4",
          "midi": 67,
          "time": 15.988994999999962,
          "velocity": 0.8661417322834646,
          "duration": 0.06868124999999914
        },
        {
          "name": "A4",
          "midi": 69,
          "time": 16.071412499999962,
          "velocity": 0.8661417322834646,
          "duration": 0.05494500000000002
        },
        {
          "name": "C4",
          "midi": 60,
          "time": 16.236247499999962,
          "velocity": 0.8661417322834646,
          "duration": 0.13736249999999828
        },
        {
          "name": "E4",
          "midi": 64,
          "time": 16.236247499999962,
          "velocity": 0.8661417322834646,
          "duration": 0.13736249999999828
        },
        {
          "name": "D4",
          "midi": 62,
          "time": 16.40108249999996,
          "velocity": 0.8661417322834646,
          "duration": 0.06868125000000092
        },
        {
          "name": "F4",
          "midi": 65,
          "time": 16.40108249999996,
          "velocity": 0.8661417322834646,
          "duration": 0.06868125000000092
        },
        {
          "name": "A4",
          "midi": 69,
          "time": 16.48349999999996,
          "velocity": 0.8661417322834646,
          "duration": 0.05494500000000002
        },
        {
          "name": "A3",
          "midi": 57,
          "time": 16.64833499999996,
          "velocity": 0.8661417322834646,
          "duration": 0.05494500000000002
        },
        {
          "name": "C4",
          "midi": 60,
          "time": 16.64833499999996,
          "velocity": 0.8661417322834646,
          "duration": 0.05494500000000002
        },
        {
          "name": "A3",
          "midi": 57,
          "time": 16.81316999999996,
          "velocity": 0.8661417322834646,
          "duration": 0.05494500000000002
        },
        {
          "name": "C#4",
          "midi": 61,
          "time": 16.81316999999996,
          "velocity": 0.8661417322834646,
          "duration": 0.05494500000000002
        },
        {
          "name": "A3",
          "midi": 57,
          "time": 16.97800499999996,
          "velocity": 0.8661417322834646,
          "duration": 0.05494500000000002
        },
        {
          "name": "D4",
          "midi": 62,
          "time": 16.97800499999996,
          "velocity": 0.8661417322834646,
          "duration": 0.05494500000000002
        },
        {
          "name": "F4",
          "midi": 65,
          "time": 17.14283999999996,
          "velocity": 0.8661417322834646,
          "duration": 0.05494500000000002
        },
        {
          "name": "A4",
          "midi": 69,
          "time": 17.14283999999996,
          "velocity": 0.8661417322834646,
          "duration": 0.05494500000000002
        },
        {
          "name": "G4",
          "midi": 67,
          "time": 17.30767499999996,
          "velocity": 0.8661417322834646,
          "duration": 0.06868125000000092
        },
        {
          "name": "A4",
          "midi": 69,
          "time": 17.390092499999962,
          "velocity": 0.8661417322834646,
          "duration": 0.05494500000000002
        },
        {
          "name": "C4",
          "midi": 60,
          "time": 17.554927499999962,
          "velocity": 0.8661417322834646,
          "duration": 0.05494500000000002
        },
        {
          "name": "E4",
          "midi": 64,
          "time": 17.554927499999962,
          "velocity": 0.8661417322834646,
          "duration": 0.05494500000000002
        },
        {
          "name": "D4",
          "midi": 62,
          "time": 17.719762499999963,
          "velocity": 0.8661417322834646,
          "duration": 0.05494500000000002
        },
        {
          "name": "F4",
          "midi": 65,
          "time": 17.719762499999963,
          "velocity": 0.8661417322834646,
          "duration": 0.05494500000000002
        },
        {
          "name": "A4",
          "midi": 69,
          "time": 17.884597499999963,
          "velocity": 0.8661417322834646,
          "duration": 0.06868125000000092
        },
        {
          "name": "G4",
          "midi": 67,
          "time": 17.967014999999964,
          "velocity": 0.8661417322834646,
          "duration": 0.06868125000000092
        },
        {
          "name": "F4",
          "midi": 65,
          "time": 18.049432499999966,
          "velocity": 0.8661417322834646,
          "duration": 0.06868125000000092
        },
        {
          "name": "E4",
          "midi": 64,
          "time": 18.131849999999968,
          "velocity": 0.8661417322834646,
          "duration": 0.06868125000000092
        },
        {
          "name": "D4",
          "midi": 62,
          "time": 18.21426749999997,
          "velocity": 0.8661417322834646,
          "duration": 0.11675812500000049
        },
        {
          "name": "F4",
          "midi": 65,
          "time": 18.46151999999997,
          "velocity": 0.8661417322834646,
          "duration": 0.05494500000000002
        },
        {
          "name": "A4",
          "midi": 69,
          "time": 18.46151999999997,
          "velocity": 0.8661417322834646,
          "duration": 0.05494500000000002
        },
        {
          "name": "G4",
          "midi": 67,
          "time": 18.626354999999972,
          "velocity": 0.8661417322834646,
          "duration": 0.06868125000000092
        },
        {
          "name": "A4",
          "midi": 69,
          "time": 18.708772499999974,
          "velocity": 0.8661417322834646,
          "duration": 0.05494500000000002
        },
        {
          "name": "C4",
          "midi": 60,
          "time": 18.873607499999974,
          "velocity": 0.8661417322834646,
          "duration": 0.13736249999999828
        },
        {
          "name": "E4",
          "midi": 64,
          "time": 18.873607499999974,
          "velocity": 0.8661417322834646,
          "duration": 0.13736249999999828
        },
        {
          "name": "D4",
          "midi": 62,
          "time": 19.03844249999997,
          "velocity": 0.8661417322834646,
          "duration": 0.06868125000000092
        },
        {
          "name": "F4",
          "midi": 65,
          "time": 19.03844249999997,
          "velocity": 0.8661417322834646,
          "duration": 0.06868125000000092
        },
        {
          "name": "A4",
          "midi": 69,
          "time": 19.120859999999972,
          "velocity": 0.8661417322834646,
          "duration": 0.05494500000000002
        },
        {
          "name": "A3",
          "midi": 57,
          "time": 19.285694999999972,
          "velocity": 0.8661417322834646,
          "duration": 0.05494500000000002
        },
        {
          "name": "C4",
          "midi": 60,
          "time": 19.285694999999972,
          "velocity": 0.8661417322834646,
          "duration": 0.05494500000000002
        },
        {
          "name": "A3",
          "midi": 57,
          "time": 19.450529999999972,
          "velocity": 0.8661417322834646,
          "duration": 0.05494500000000002
        },
        {
          "name": "C#4",
          "midi": 61,
          "time": 19.450529999999972,
          "velocity": 0.8661417322834646,
          "duration": 0.05494500000000002
        },
        {
          "name": "A3",
          "midi": 57,
          "time": 19.615364999999972,
          "velocity": 0.8661417322834646,
          "duration": 0.05494500000000002
        },
        {
          "name": "D4",
          "midi": 62,
          "time": 19.615364999999972,
          "velocity": 0.8661417322834646,
          "duration": 0.05494500000000002
        },
        {
          "name": "F4",
          "midi": 65,
          "time": 19.780199999999972,
          "velocity": 0.8661417322834646,
          "duration": 0.05494500000000002
        },
        {
          "name": "A4",
          "midi": 69,
          "time": 19.780199999999972,
          "velocity": 0.8661417322834646,
          "duration": 0.05494500000000002
        },
        {
          "name": "G4",
          "midi": 67,
          "time": 19.945034999999972,
          "velocity": 0.8661417322834646,
          "duration": 0.06868125000000092
        },
        {
          "name": "A4",
          "midi": 69,
          "time": 20.027452499999974,
          "velocity": 0.8661417322834646,
          "duration": 0.05494500000000002
        },
        {
          "name": "C4",
          "midi": 60,
          "time": 20.192287499999974,
          "velocity": 0.8661417322834646,
          "duration": 0.05494500000000002
        },
        {
          "name": "E4",
          "midi": 64,
          "time": 20.192287499999974,
          "velocity": 0.8661417322834646,
          "duration": 0.05494500000000002
        },
        {
          "name": "D4",
          "midi": 62,
          "time": 20.357122499999974,
          "velocity": 0.8661417322834646,
          "duration": 0.05494500000000002
        },
        {
          "name": "F4",
          "midi": 65,
          "time": 20.357122499999974,
          "velocity": 0.8661417322834646,
          "duration": 0.05494500000000002
        },
        {
          "name": "A4",
          "midi": 69,
          "time": 20.521957499999974,
          "velocity": 0.8661417322834646,
          "duration": 0.06868125000000092
        },
        {
          "name": "G4",
          "midi": 67,
          "time": 20.604374999999976,
          "velocity": 0.8661417322834646,
          "duration": 0.06868125000000092
        },
        {
          "name": "F4",
          "midi": 65,
          "time": 20.686792499999978,
          "velocity": 0.8661417322834646,
          "duration": 0.06868125000000092
        },
        {
          "name": "E4",
          "midi": 64,
          "time": 20.76920999999998,
          "velocity": 0.8661417322834646,
          "duration": 0.06868125000000092
        },
        {
          "name": "D4",
          "midi": 62,
          "time": 20.85162749999998,
          "velocity": 0.8661417322834646,
          "duration": 0.11675812500000049
        },
        {
          "name": "A3",
          "midi": 57,
          "time": 20.975253749999982,
          "velocity": 0.8661417322834646,
          "duration": 0.03434062499999868
        },
        {
          "name": "B3",
          "midi": 59,
          "time": 21.01646249999998,
          "velocity": 0.8661417322834646,
          "duration": 0.03434062499999868
        },
        {
          "name": "C4",
          "midi": 60,
          "time": 21.05767124999998,
          "velocity": 0.8661417322834646,
          "duration": 0.03434062499999868
        },
        {
          "name": "D4",
          "midi": 62,
          "time": 21.09887999999998,
          "velocity": 0.8661417322834646,
          "duration": 0.03434062499999868
        },
        {
          "name": "E4",
          "midi": 64,
          "time": 21.14008874999998,
          "velocity": 0.8661417322834646,
          "duration": 0.03434062499999868
        },
        {
          "name": "F4",
          "midi": 65,
          "time": 21.181297499999978,
          "velocity": 0.8661417322834646,
          "duration": 0.03434062499999868
        },
        {
          "name": "G4",
          "midi": 67,
          "time": 21.222506249999977,
          "velocity": 0.8661417322834646,
          "duration": 0.03434062499999868
        },
        {
          "name": "A4",
          "midi": 69,
          "time": 21.263714999999976,
          "velocity": 0.8661417322834646,
          "duration": 0.03434062499999868
        },
        {
          "name": "B4",
          "midi": 71,
          "time": 21.304923749999976,
          "velocity": 0.8661417322834646,
          "duration": 0.03434062499999868
        },
        {
          "name": "C5",
          "midi": 72,
          "time": 21.346132499999975,
          "velocity": 0.8661417322834646,
          "duration": 0.03434062499999868
        },
        {
          "name": "D5",
          "midi": 74,
          "time": 21.387341249999974,
          "velocity": 0.8661417322834646,
          "duration": 0.03434062499999868
        },
        {
          "name": "E5",
          "midi": 76,
          "time": 21.428549999999973,
          "velocity": 0.8661417322834646,
          "duration": 0.03434062499999868
        },
        {
          "name": "F5",
          "midi": 77,
          "time": 21.469758749999972,
          "velocity": 0.8661417322834646,
          "duration": 0.03434062499999868
        },
        {
          "name": "G5",
          "midi": 79,
          "time": 21.51096749999997,
          "velocity": 0.8661417322834646,
          "duration": 0.03434062499999868
        },
        {
          "name": "A5",
          "midi": 81,
          "time": 21.55217624999997,
          "velocity": 0.8661417322834646,
          "duration": 0.03434062499999868
        },
        {
          "name": "B5",
          "midi": 83,
          "time": 21.59338499999997,
          "velocity": 0.8661417322834646,
          "duration": 0.03434062499999868
        },
        {
          "name": "C6",
          "midi": 84,
          "time": 21.63459374999997,
          "velocity": 0.8661417322834646,
          "duration": 0.03434062499999868
        },
        {
          "name": "D6",
          "midi": 86,
          "time": 21.675802499999968,
          "velocity": 0.8661417322834646,
          "duration": 0.03434062499999868
        },
        {
          "name": "E6",
          "midi": 88,
          "time": 21.717011249999967,
          "velocity": 0.8661417322834646,
          "duration": 0.03434062499999868
        },
        {
          "name": "F6",
          "midi": 89,
          "time": 21.758219999999966,
          "velocity": 0.8661417322834646,
          "duration": 0.03434062499999868
        },
        {
          "name": "G6",
          "midi": 91,
          "time": 21.799428749999965,
          "velocity": 0.8661417322834646,
          "duration": 0.03434062499999868
        },
        {
          "name": "A6",
          "midi": 93,
          "time": 21.840637499999964,
          "velocity": 0.8661417322834646,
          "duration": 0.03434062499999868
        },
        {
          "name": "B6",
          "midi": 95,
          "time": 21.881846249999963,
          "velocity": 0.8661417322834646,
          "duration": 0.03434062499999868
        },
        {
          "name": "C7",
          "midi": 96,
          "time": 21.923054999999962,
          "velocity": 0.8661417322834646,
          "duration": 0.03434062499999868
        },
        {
          "name": "D7",
          "midi": 98,
          "time": 21.96426374999996,
          "velocity": 0.8661417322834646,
          "duration": 0.03434062499999868
        },
        {
          "name": "F4",
          "midi": 65,
          "time": 22.25272499999996,
          "velocity": 0.8661417322834646,
          "duration": 0.13736249999999828
        },
        {
          "name": "A4",
          "midi": 69,
          "time": 22.25272499999996,
          "velocity": 0.8661417322834646,
          "duration": 0.13736249999999828
        },
        {
          "name": "D5",
          "midi": 74,
          "time": 22.417559999999956,
          "velocity": 0.8661417322834646,
          "duration": 0.13736249999999828
        },
        {
          "name": "F5",
          "midi": 77,
          "time": 22.417559999999956,
          "velocity": 0.8661417322834646,
          "duration": 0.13736249999999828
        },
        {
          "name": "E5",
          "midi": 76,
          "time": 22.582394999999952,
          "velocity": 0.8661417322834646,
          "duration": 0.06868125000000092
        },
        {
          "name": "F5",
          "midi": 77,
          "time": 22.664812499999954,
          "velocity": 0.8661417322834646,
          "duration": 0.06868125000000092
        },
        {
          "name": "E5",
          "midi": 76,
          "time": 22.747229999999956,
          "velocity": 0.8661417322834646,
          "duration": 0.13736249999999828
        },
        {
          "name": "C5",
          "midi": 72,
          "time": 22.912064999999952,
          "velocity": 0.8661417322834646,
          "duration": 0.13736249999999828
        },
        {
          "name": "G5",
          "midi": 79,
          "time": 22.912064999999952,
          "velocity": 0.8661417322834646,
          "duration": 0.13736249999999828
        },
        {
          "name": "F5",
          "midi": 77,
          "time": 23.07689999999995,
          "velocity": 0.8661417322834646,
          "duration": 0.13736249999999828
        },
        {
          "name": "E5",
          "midi": 76,
          "time": 23.241734999999945,
          "velocity": 0.8661417322834646,
          "duration": 0.06868125000000092
        },
        {
          "name": "F5",
          "midi": 77,
          "time": 23.324152499999947,
          "velocity": 0.8661417322834646,
          "duration": 0.06868125000000092
        },
        {
          "name": "E5",
          "midi": 76,
          "time": 23.40656999999995,
          "velocity": 0.8661417322834646,
          "duration": 0.06868125000000092
        },
        {
          "name": "C5",
          "midi": 72,
          "time": 23.48898749999995,
          "velocity": 0.8661417322834646,
          "duration": 0.06868125000000092
        },
        {
          "name": "D5",
          "midi": 74,
          "time": 23.571404999999952,
          "velocity": 0.8661417322834646,
          "duration": 0.13736249999999828
        },
        {
          "name": "F5",
          "midi": 77,
          "time": 23.73623999999995,
          "velocity": 0.8661417322834646,
          "duration": 0.13736249999999828
        },
        {
          "name": "A5",
          "midi": 81,
          "time": 23.73623999999995,
          "velocity": 0.8661417322834646,
          "duration": 0.13736249999999828
        },
        {
          "name": "G5",
          "midi": 79,
          "time": 23.901074999999945,
          "velocity": 0.8661417322834646,
          "duration": 0.06868125000000092
        },
        {
          "name": "A5",
          "midi": 81,
          "time": 23.983492499999947,
          "velocity": 0.8661417322834646,
          "duration": 0.06868125000000092
        },
        {
          "name": "G5",
          "midi": 79,
          "time": 24.06590999999995,
          "velocity": 0.8661417322834646,
          "duration": 0.06868125000000092
        },
        {
          "name": "A5",
          "midi": 81,
          "time": 24.14832749999995,
          "velocity": 0.8661417322834646,
          "duration": 0.06868125000000092
        },
        {
          "name": "F5",
          "midi": 77,
          "time": 24.230744999999953,
          "velocity": 0.8661417322834646,
          "duration": 0.13736249999999828
        },
        {
          "name": "C6",
          "midi": 84,
          "time": 24.230744999999953,
          "velocity": 0.8661417322834646,
          "duration": 0.13736249999999828
        },
        {
          "name": "A5",
          "midi": 81,
          "time": 24.39557999999995,
          "velocity": 0.8661417322834646,
          "duration": 0.13736249999999828
        },
        {
          "name": "G5",
          "midi": 79,
          "time": 24.560414999999946,
          "velocity": 0.8661417322834646,
          "duration": 0.13736249999999828
        },
        {
          "name": "A5",
          "midi": 81,
          "time": 24.725249999999942,
          "velocity": 0.8661417322834646,
          "duration": 0.13736249999999828
        },
        {
          "name": "F4",
          "midi": 65,
          "time": 24.89008499999994,
          "velocity": 0.8661417322834646,
          "duration": 0.13736249999999828
        },
        {
          "name": "A4",
          "midi": 69,
          "time": 24.89008499999994,
          "velocity": 0.8661417322834646,
          "duration": 0.13736249999999828
        },
        {
          "name": "D5",
          "midi": 74,
          "time": 25.054919999999935,
          "velocity": 0.8661417322834646,
          "duration": 0.13736249999999828
        },
        {
          "name": "F5",
          "midi": 77,
          "time": 25.054919999999935,
          "velocity": 0.8661417322834646,
          "duration": 0.13736249999999828
        },
        {
          "name": "E5",
          "midi": 76,
          "time": 25.21975499999993,
          "velocity": 0.8661417322834646,
          "duration": 0.06868125000000092
        },
        {
          "name": "F5",
          "midi": 77,
          "time": 25.302172499999934,
          "velocity": 0.8661417322834646,
          "duration": 0.06868125000000092
        },
        {
          "name": "E5",
          "midi": 76,
          "time": 25.384589999999935,
          "velocity": 0.8661417322834646,
          "duration": 0.13736249999999828
        },
        {
          "name": "C5",
          "midi": 72,
          "time": 25.549424999999932,
          "velocity": 0.8661417322834646,
          "duration": 0.13736249999999828
        },
        {
          "name": "G5",
          "midi": 79,
          "time": 25.549424999999932,
          "velocity": 0.8661417322834646,
          "duration": 0.13736249999999828
        },
        {
          "name": "F5",
          "midi": 77,
          "time": 25.71425999999993,
          "velocity": 0.8661417322834646,
          "duration": 0.13736249999999828
        },
        {
          "name": "E5",
          "midi": 76,
          "time": 25.879094999999925,
          "velocity": 0.8661417322834646,
          "duration": 0.06868125000000092
        },
        {
          "name": "F5",
          "midi": 77,
          "time": 25.961512499999927,
          "velocity": 0.8661417322834646,
          "duration": 0.06868125000000092
        },
        {
          "name": "E5",
          "midi": 76,
          "time": 26.04392999999993,
          "velocity": 0.8661417322834646,
          "duration": 0.06868125000000092
        },
        {
          "name": "C5",
          "midi": 72,
          "time": 26.12634749999993,
          "velocity": 0.8661417322834646,
          "duration": 0.06868125000000092
        },
        {
          "name": "D5",
          "midi": 74,
          "time": 26.208764999999932,
          "velocity": 0.8661417322834646,
          "duration": 0.13736249999999828
        },
        {
          "name": "F5",
          "midi": 77,
          "time": 26.37359999999993,
          "velocity": 0.8661417322834646,
          "duration": 0.13736249999999828
        },
        {
          "name": "A5",
          "midi": 81,
          "time": 26.37359999999993,
          "velocity": 0.8661417322834646,
          "duration": 0.13736249999999828
        },
        {
          "name": "G5",
          "midi": 79,
          "time": 26.538434999999925,
          "velocity": 0.8661417322834646,
          "duration": 0.06868125000000092
        },
        {
          "name": "A5",
          "midi": 81,
          "time": 26.620852499999927,
          "velocity": 0.8661417322834646,
          "duration": 0.06868125000000092
        },
        {
          "name": "G5",
          "midi": 79,
          "time": 26.70326999999993,
          "velocity": 0.8661417322834646,
          "duration": 0.06868125000000092
        },
        {
          "name": "A5",
          "midi": 81,
          "time": 26.78568749999993,
          "velocity": 0.8661417322834646,
          "duration": 0.06868125000000092
        },
        {
          "name": "F5",
          "midi": 77,
          "time": 26.868104999999932,
          "velocity": 0.8661417322834646,
          "duration": 0.13736249999999828
        },
        {
          "name": "C#6",
          "midi": 85,
          "time": 26.868104999999932,
          "velocity": 0.8661417322834646,
          "duration": 0.13736249999999828
        },
        {
          "name": "A5",
          "midi": 81,
          "time": 27.03293999999993,
          "velocity": 0.8661417322834646,
          "duration": 0.13736249999999828
        },
        {
          "name": "G5",
          "midi": 79,
          "time": 27.197774999999925,
          "velocity": 0.8661417322834646,
          "duration": 0.13736249999999828
        },
        {
          "name": "A5",
          "midi": 81,
          "time": 27.362609999999922,
          "velocity": 0.8661417322834646,
          "duration": 0.13736249999999828
        },
        {
          "name": "F4",
          "midi": 65,
          "time": 27.52744499999992,
          "velocity": 0.8661417322834646,
          "duration": 0.13736249999999828
        },
        {
          "name": "A4",
          "midi": 69,
          "time": 27.52744499999992,
          "velocity": 0.8661417322834646,
          "duration": 0.13736249999999828
        },
        {
          "name": "D5",
          "midi": 74,
          "time": 27.692279999999915,
          "velocity": 0.8661417322834646,
          "duration": 0.13736249999999828
        },
        {
          "name": "F5",
          "midi": 77,
          "time": 27.692279999999915,
          "velocity": 0.8661417322834646,
          "duration": 0.13736249999999828
        },
        {
          "name": "E5",
          "midi": 76,
          "time": 27.85711499999991,
          "velocity": 0.8661417322834646,
          "duration": 0.06868125000000092
        },
        {
          "name": "F5",
          "midi": 77,
          "time": 27.939532499999913,
          "velocity": 0.8661417322834646,
          "duration": 0.06868125000000092
        },
        {
          "name": "E5",
          "midi": 76,
          "time": 28.021949999999915,
          "velocity": 0.8661417322834646,
          "duration": 0.13736249999999828
        },
        {
          "name": "C5",
          "midi": 72,
          "time": 28.18678499999991,
          "velocity": 0.8661417322834646,
          "duration": 0.13736249999999828
        },
        {
          "name": "G5",
          "midi": 79,
          "time": 28.18678499999991,
          "velocity": 0.8661417322834646,
          "duration": 0.13736249999999828
        },
        {
          "name": "F5",
          "midi": 77,
          "time": 28.351619999999908,
          "velocity": 0.8661417322834646,
          "duration": 0.13736249999999828
        },
        {
          "name": "E5",
          "midi": 76,
          "time": 28.516454999999905,
          "velocity": 0.8661417322834646,
          "duration": 0.06868125000000092
        },
        {
          "name": "F5",
          "midi": 77,
          "time": 28.598872499999906,
          "velocity": 0.8661417322834646,
          "duration": 0.06868125000000092
        },
        {
          "name": "E5",
          "midi": 76,
          "time": 28.68128999999991,
          "velocity": 0.8661417322834646,
          "duration": 0.06868125000000092
        },
        {
          "name": "C5",
          "midi": 72,
          "time": 28.76370749999991,
          "velocity": 0.8661417322834646,
          "duration": 0.06868125000000092
        },
        {
          "name": "D5",
          "midi": 74,
          "time": 28.846124999999912,
          "velocity": 0.8661417322834646,
          "duration": 0.13736249999999828
        },
        {
          "name": "F5",
          "midi": 77,
          "time": 29.01095999999991,
          "velocity": 0.8661417322834646,
          "duration": 0.13736249999999828
        },
        {
          "name": "A5",
          "midi": 81,
          "time": 29.01095999999991,
          "velocity": 0.8661417322834646,
          "duration": 0.13736249999999828
        },
        {
          "name": "G5",
          "midi": 79,
          "time": 29.175794999999905,
          "velocity": 0.8661417322834646,
          "duration": 0.06868125000000092
        },
        {
          "name": "A5",
          "midi": 81,
          "time": 29.258212499999907,
          "velocity": 0.8661417322834646,
          "duration": 0.06868125000000092
        },
        {
          "name": "G5",
          "midi": 79,
          "time": 29.34062999999991,
          "velocity": 0.8661417322834646,
          "duration": 0.06868125000000092
        },
        {
          "name": "A5",
          "midi": 81,
          "time": 29.42304749999991,
          "velocity": 0.8661417322834646,
          "duration": 0.06868125000000092
        },
        {
          "name": "F5",
          "midi": 77,
          "time": 29.505464999999912,
          "velocity": 0.8661417322834646,
          "duration": 0.13736249999999828
        },
        {
          "name": "C6",
          "midi": 84,
          "time": 29.505464999999912,
          "velocity": 0.8661417322834646,
          "duration": 0.13736249999999828
        },
        {
          "name": "A5",
          "midi": 81,
          "time": 29.67029999999991,
          "velocity": 0.8661417322834646,
          "duration": 0.13736249999999828
        },
        {
          "name": "F5",
          "midi": 77,
          "time": 29.835134999999905,
          "velocity": 0.8661417322834646,
          "duration": 0.13736249999999828
        },
        {
          "name": "F#5",
          "midi": 78,
          "time": 29.9999699999999,
          "velocity": 0.8661417322834646,
          "duration": 0.13736249999999828
        },
        {
          "name": "G4",
          "midi": 67,
          "time": 30.164804999999898,
          "velocity": 0.8661417322834646,
          "duration": 0.13736249999999828
        },
        {
          "name": "D5",
          "midi": 74,
          "time": 30.164804999999898,
          "velocity": 0.8661417322834646,
          "duration": 0.13736249999999828
        },
        {
          "name": "G5",
          "midi": 79,
          "time": 30.164804999999898,
          "velocity": 0.8661417322834646,
          "duration": 0.13736249999999828
        },
        {
          "name": "A#4",
          "midi": 70,
          "time": 30.329639999999895,
          "velocity": 0.8661417322834646,
          "duration": 0.06868125000000092
        },
        {
          "name": "D5",
          "midi": 74,
          "time": 30.412057499999896,
          "velocity": 0.8661417322834646,
          "duration": 0.06868125000000092
        },
        {
          "name": "A#4",
          "midi": 70,
          "time": 30.4944749999999,
          "velocity": 0.8661417322834646,
          "duration": 0.13736249999999828
        },
        {
          "name": "D5",
          "midi": 74,
          "time": 30.659309999999895,
          "velocity": 0.8661417322834646,
          "duration": 0.13736249999999828
        },
        {
          "name": "G5",
          "midi": 79,
          "time": 30.659309999999895,
          "velocity": 0.8661417322834646,
          "duration": 0.13736249999999828
        },
        {
          "name": "E5",
          "midi": 76,
          "time": 30.82414499999989,
          "velocity": 0.8661417322834646,
          "duration": 0.13736249999999828
        },
        {
          "name": "A5",
          "midi": 81,
          "time": 30.82414499999989,
          "velocity": 0.8661417322834646,
          "duration": 0.13736249999999828
        },
        {
          "name": "A4",
          "midi": 69,
          "time": 30.988979999999888,
          "velocity": 0.8661417322834646,
          "duration": 0.06868125000000092
        },
        {
          "name": "E5",
          "midi": 76,
          "time": 31.07139749999989,
          "velocity": 0.8661417322834646,
          "duration": 0.06868125000000092
        },
        {
          "name": "A5",
          "midi": 81,
          "time": 31.07139749999989,
          "velocity": 0.8661417322834646,
          "duration": 0.06868125000000092
        },
        {
          "name": "A4",
          "midi": 69,
          "time": 31.15381499999989,
          "velocity": 0.8661417322834646,
          "duration": 0.13736249999999828
        },
        {
          "name": "E5",
          "midi": 76,
          "time": 31.318649999999888,
          "velocity": 0.8661417322834646,
          "duration": 0.13736249999999828
        },
        {
          "name": "A5",
          "midi": 81,
          "time": 31.318649999999888,
          "velocity": 0.8661417322834646,
          "duration": 0.13736249999999828
        },
        {
          "name": "F5",
          "midi": 77,
          "time": 31.483484999999884,
          "velocity": 0.8661417322834646,
          "duration": 0.13736249999999828
        },
        {
          "name": "A#5",
          "midi": 82,
          "time": 31.483484999999884,
          "velocity": 0.8661417322834646,
          "duration": 0.13736249999999828
        },
        {
          "name": "D5",
          "midi": 74,
          "time": 31.64831999999988,
          "velocity": 0.8661417322834646,
          "duration": 0.13736249999999828
        },
        {
          "name": "F5",
          "midi": 77,
          "time": 31.813154999999878,
          "velocity": 0.8661417322834646,
          "duration": 0.13736249999999828
        },
        {
          "name": "B5",
          "midi": 83,
          "time": 31.813154999999878,
          "velocity": 0.8661417322834646,
          "duration": 0.13736249999999828
        },
        {
          "name": "D5",
          "midi": 74,
          "time": 31.977989999999874,
          "velocity": 0.8661417322834646,
          "duration": 0.13736249999999828
        },
        {
          "name": "E5",
          "midi": 76,
          "time": 32.142824999999874,
          "velocity": 0.8661417322834646,
          "duration": 0.5494500000000002
        },
        {
          "name": "G5",
          "midi": 79,
          "time": 32.142824999999874,
          "velocity": 0.8661417322834646,
          "duration": 0.5494500000000002
        },
        {
          "name": "C6",
          "midi": 84,
          "time": 32.142824999999874,
          "velocity": 0.8661417322834646,
          "duration": 0.5494500000000002
        },
        {
          "name": "F4",
          "midi": 65,
          "time": 32.802164999999874,
          "velocity": 0.8661417322834646,
          "duration": 0.13736250000000183
        },
        {
          "name": "A4",
          "midi": 69,
          "time": 32.802164999999874,
          "velocity": 0.8661417322834646,
          "duration": 0.13736250000000183
        },
        {
          "name": "D5",
          "midi": 74,
          "time": 32.96699999999988,
          "velocity": 0.8661417322834646,
          "duration": 0.13736250000000183
        },
        {
          "name": "F5",
          "midi": 77,
          "time": 32.96699999999988,
          "velocity": 0.8661417322834646,
          "duration": 0.13736250000000183
        },
        {
          "name": "E5",
          "midi": 76,
          "time": 33.13183499999988,
          "velocity": 0.8661417322834646,
          "duration": 0.06868124999999736
        },
        {
          "name": "F5",
          "midi": 77,
          "time": 33.21425249999988,
          "velocity": 0.8661417322834646,
          "duration": 0.06868124999999736
        },
        {
          "name": "E5",
          "midi": 76,
          "time": 33.29666999999988,
          "velocity": 0.8661417322834646,
          "duration": 0.13736250000000183
        },
        {
          "name": "C5",
          "midi": 72,
          "time": 33.46150499999988,
          "velocity": 0.8661417322834646,
          "duration": 0.13736250000000183
        },
        {
          "name": "G5",
          "midi": 79,
          "time": 33.46150499999988,
          "velocity": 0.8661417322834646,
          "duration": 0.13736250000000183
        },
        {
          "name": "F5",
          "midi": 77,
          "time": 33.626339999999885,
          "velocity": 0.8661417322834646,
          "duration": 0.13736250000000183
        },
        {
          "name": "E5",
          "midi": 76,
          "time": 33.79117499999989,
          "velocity": 0.8661417322834646,
          "duration": 0.06868124999999736
        },
        {
          "name": "F5",
          "midi": 77,
          "time": 33.87359249999989,
          "velocity": 0.8661417322834646,
          "duration": 0.06868124999999736
        },
        {
          "name": "E5",
          "midi": 76,
          "time": 33.956009999999885,
          "velocity": 0.8661417322834646,
          "duration": 0.06868124999999736
        },
        {
          "name": "C5",
          "midi": 72,
          "time": 34.038427499999884,
          "velocity": 0.8661417322834646,
          "duration": 0.06868124999999736
        },
        {
          "name": "D5",
          "midi": 74,
          "time": 34.12084499999988,
          "velocity": 0.8661417322834646,
          "duration": 0.13736250000000183
        },
        {
          "name": "F5",
          "midi": 77,
          "time": 34.285679999999886,
          "velocity": 0.8661417322834646,
          "duration": 0.13736250000000183
        },
        {
          "name": "A5",
          "midi": 81,
          "time": 34.285679999999886,
          "velocity": 0.8661417322834646,
          "duration": 0.13736250000000183
        },
        {
          "name": "G5",
          "midi": 79,
          "time": 34.45051499999989,
          "velocity": 0.8661417322834646,
          "duration": 0.06868124999999736
        },
        {
          "name": "A5",
          "midi": 81,
          "time": 34.53293249999989,
          "velocity": 0.8661417322834646,
          "duration": 0.06868124999999736
        },
        {
          "name": "G5",
          "midi": 79,
          "time": 34.615349999999886,
          "velocity": 0.8661417322834646,
          "duration": 0.06868124999999736
        },
        {
          "name": "A5",
          "midi": 81,
          "time": 34.697767499999884,
          "velocity": 0.8661417322834646,
          "duration": 0.06868124999999736
        },
        {
          "name": "F5",
          "midi": 77,
          "time": 34.78018499999988,
          "velocity": 0.8661417322834646,
          "duration": 0.13736250000000183
        },
        {
          "name": "C6",
          "midi": 84,
          "time": 34.78018499999988,
          "velocity": 0.8661417322834646,
          "duration": 0.13736250000000183
        },
        {
          "name": "A5",
          "midi": 81,
          "time": 34.945019999999886,
          "velocity": 0.8661417322834646,
          "duration": 0.13736250000000183
        },
        {
          "name": "G5",
          "midi": 79,
          "time": 35.10985499999989,
          "velocity": 0.8661417322834646,
          "duration": 0.13736250000000183
        },
        {
          "name": "A5",
          "midi": 81,
          "time": 35.27468999999989,
          "velocity": 0.8661417322834646,
          "duration": 0.13736250000000183
        },
        {
          "name": "F4",
          "midi": 65,
          "time": 35.4395249999999,
          "velocity": 0.8661417322834646,
          "duration": 0.13736250000000183
        },
        {
          "name": "A4",
          "midi": 69,
          "time": 35.4395249999999,
          "velocity": 0.8661417322834646,
          "duration": 0.13736250000000183
        },
        {
          "name": "D5",
          "midi": 74,
          "time": 35.6043599999999,
          "velocity": 0.8661417322834646,
          "duration": 0.13736250000000183
        },
        {
          "name": "F5",
          "midi": 77,
          "time": 35.6043599999999,
          "velocity": 0.8661417322834646,
          "duration": 0.13736250000000183
        },
        {
          "name": "E5",
          "midi": 76,
          "time": 35.769194999999904,
          "velocity": 0.8661417322834646,
          "duration": 0.06868124999999736
        },
        {
          "name": "F5",
          "midi": 77,
          "time": 35.8516124999999,
          "velocity": 0.8661417322834646,
          "duration": 0.06868124999999736
        },
        {
          "name": "E5",
          "midi": 76,
          "time": 35.9340299999999,
          "velocity": 0.8661417322834646,
          "duration": 0.13736250000000183
        },
        {
          "name": "C5",
          "midi": 72,
          "time": 36.098864999999904,
          "velocity": 0.8661417322834646,
          "duration": 0.13736250000000183
        },
        {
          "name": "G5",
          "midi": 79,
          "time": 36.098864999999904,
          "velocity": 0.8661417322834646,
          "duration": 0.13736250000000183
        },
        {
          "name": "F5",
          "midi": 77,
          "time": 36.26369999999991,
          "velocity": 0.8661417322834646,
          "duration": 0.13736250000000183
        },
        {
          "name": "E5",
          "midi": 76,
          "time": 36.42853499999991,
          "velocity": 0.8661417322834646,
          "duration": 0.06868124999999736
        },
        {
          "name": "F5",
          "midi": 77,
          "time": 36.51095249999991,
          "velocity": 0.8661417322834646,
          "duration": 0.06868124999999736
        },
        {
          "name": "E5",
          "midi": 76,
          "time": 36.59336999999991,
          "velocity": 0.8661417322834646,
          "duration": 0.06868124999999736
        },
        {
          "name": "C5",
          "midi": 72,
          "time": 36.675787499999906,
          "velocity": 0.8661417322834646,
          "duration": 0.06868124999999736
        },
        {
          "name": "D5",
          "midi": 74,
          "time": 36.758204999999904,
          "velocity": 0.8661417322834646,
          "duration": 0.13736250000000183
        },
        {
          "name": "F5",
          "midi": 77,
          "time": 36.92303999999991,
          "velocity": 0.8661417322834646,
          "duration": 0.13736250000000183
        },
        {
          "name": "A5",
          "midi": 81,
          "time": 36.92303999999991,
          "velocity": 0.8661417322834646,
          "duration": 0.13736250000000183
        },
        {
          "name": "G5",
          "midi": 79,
          "time": 37.08787499999991,
          "velocity": 0.8661417322834646,
          "duration": 0.06868124999999736
        },
        {
          "name": "A5",
          "midi": 81,
          "time": 37.17029249999991,
          "velocity": 0.8661417322834646,
          "duration": 0.06868124999999736
        },
        {
          "name": "G5",
          "midi": 79,
          "time": 37.25270999999991,
          "velocity": 0.8661417322834646,
          "duration": 0.06868124999999736
        },
        {
          "name": "A5",
          "midi": 81,
          "time": 37.335127499999906,
          "velocity": 0.8661417322834646,
          "duration": 0.06868124999999736
        },
        {
          "name": "F5",
          "midi": 77,
          "time": 37.417544999999905,
          "velocity": 0.8661417322834646,
          "duration": 0.13736250000000183
        },
        {
          "name": "C#6",
          "midi": 85,
          "time": 37.417544999999905,
          "velocity": 0.8661417322834646,
          "duration": 0.13736250000000183
        },
        {
          "name": "A5",
          "midi": 81,
          "time": 37.58237999999991,
          "velocity": 0.8661417322834646,
          "duration": 0.13736250000000183
        },
        {
          "name": "G5",
          "midi": 79,
          "time": 37.74721499999991,
          "velocity": 0.8661417322834646,
          "duration": 0.13736250000000183
        },
        {
          "name": "A5",
          "midi": 81,
          "time": 37.912049999999915,
          "velocity": 0.8661417322834646,
          "duration": 0.13736250000000183
        },
        {
          "name": "F4",
          "midi": 65,
          "time": 38.07688499999992,
          "velocity": 0.8661417322834646,
          "duration": 0.13736250000000183
        },
        {
          "name": "A4",
          "midi": 69,
          "time": 38.07688499999992,
          "velocity": 0.8661417322834646,
          "duration": 0.13736250000000183
        },
        {
          "name": "D5",
          "midi": 74,
          "time": 38.24171999999992,
          "velocity": 0.8661417322834646,
          "duration": 0.13736250000000183
        },
        {
          "name": "F5",
          "midi": 77,
          "time": 38.24171999999992,
          "velocity": 0.8661417322834646,
          "duration": 0.13736250000000183
        },
        {
          "name": "E5",
          "midi": 76,
          "time": 38.406554999999926,
          "velocity": 0.8661417322834646,
          "duration": 0.06868124999999736
        },
        {
          "name": "F5",
          "midi": 77,
          "time": 38.488972499999925,
          "velocity": 0.8661417322834646,
          "duration": 0.06868124999999736
        },
        {
          "name": "E5",
          "midi": 76,
          "time": 38.57138999999992,
          "velocity": 0.8661417322834646,
          "duration": 0.13736250000000183
        },
        {
          "name": "C5",
          "midi": 72,
          "time": 38.736224999999926,
          "velocity": 0.8661417322834646,
          "duration": 0.13736250000000183
        },
        {
          "name": "G5",
          "midi": 79,
          "time": 38.736224999999926,
          "velocity": 0.8661417322834646,
          "duration": 0.13736250000000183
        },
        {
          "name": "F5",
          "midi": 77,
          "time": 38.90105999999993,
          "velocity": 0.8661417322834646,
          "duration": 0.13736250000000183
        },
        {
          "name": "E5",
          "midi": 76,
          "time": 39.065894999999934,
          "velocity": 0.8661417322834646,
          "duration": 0.06868124999999736
        },
        {
          "name": "F5",
          "midi": 77,
          "time": 39.14831249999993,
          "velocity": 0.8661417322834646,
          "duration": 0.06868124999999736
        },
        {
          "name": "E5",
          "midi": 76,
          "time": 39.23072999999993,
          "velocity": 0.8661417322834646,
          "duration": 0.06868124999999736
        },
        {
          "name": "C5",
          "midi": 72,
          "time": 39.31314749999993,
          "velocity": 0.8661417322834646,
          "duration": 0.06868124999999736
        },
        {
          "name": "D5",
          "midi": 74,
          "time": 39.39556499999993,
          "velocity": 0.8661417322834646,
          "duration": 0.13736250000000183
        },
        {
          "name": "F5",
          "midi": 77,
          "time": 39.56039999999993,
          "velocity": 0.8661417322834646,
          "duration": 0.13736250000000183
        },
        {
          "name": "A5",
          "midi": 81,
          "time": 39.56039999999993,
          "velocity": 0.8661417322834646,
          "duration": 0.13736250000000183
        },
        {
          "name": "G5",
          "midi": 79,
          "time": 39.725234999999934,
          "velocity": 0.8661417322834646,
          "duration": 0.06868124999999736
        },
        {
          "name": "A5",
          "midi": 81,
          "time": 39.80765249999993,
          "velocity": 0.8661417322834646,
          "duration": 0.06868124999999736
        },
        {
          "name": "G5",
          "midi": 79,
          "time": 39.89006999999993,
          "velocity": 0.8661417322834646,
          "duration": 0.06868124999999736
        },
        {
          "name": "A5",
          "midi": 81,
          "time": 39.97248749999993,
          "velocity": 0.8661417322834646,
          "duration": 0.06868124999999736
        },
        {
          "name": "F5",
          "midi": 77,
          "time": 40.05490499999993,
          "velocity": 0.8661417322834646,
          "duration": 0.13736250000000183
        },
        {
          "name": "C6",
          "midi": 84,
          "time": 40.05490499999993,
          "velocity": 0.8661417322834646,
          "duration": 0.13736250000000183
        },
        {
          "name": "A5",
          "midi": 81,
          "time": 40.21973999999993,
          "velocity": 0.8661417322834646,
          "duration": 0.13736250000000183
        },
        {
          "name": "F5",
          "midi": 77,
          "time": 40.384574999999934,
          "velocity": 0.8661417322834646,
          "duration": 0.13736250000000183
        },
        {
          "name": "F#5",
          "midi": 78,
          "time": 40.54940999999994,
          "velocity": 0.8661417322834646,
          "duration": 0.13736250000000183
        },
        {
          "name": "G4",
          "midi": 67,
          "time": 40.71424499999994,
          "velocity": 0.8661417322834646,
          "duration": 0.13736250000000183
        },
        {
          "name": "D5",
          "midi": 74,
          "time": 40.71424499999994,
          "velocity": 0.8661417322834646,
          "duration": 0.13736250000000183
        },
        {
          "name": "G5",
          "midi": 79,
          "time": 40.71424499999994,
          "velocity": 0.8661417322834646,
          "duration": 0.13736250000000183
        },
        {
          "name": "A#4",
          "midi": 70,
          "time": 40.879079999999945,
          "velocity": 0.8661417322834646,
          "duration": 0.06868124999999736
        },
        {
          "name": "D5",
          "midi": 74,
          "time": 40.96149749999994,
          "velocity": 0.8661417322834646,
          "duration": 0.06868124999999736
        },
        {
          "name": "A#4",
          "midi": 70,
          "time": 41.04391499999994,
          "velocity": 0.8661417322834646,
          "duration": 0.13736250000000183
        },
        {
          "name": "D5",
          "midi": 74,
          "time": 41.208749999999945,
          "velocity": 0.8661417322834646,
          "duration": 0.13736250000000183
        },
        {
          "name": "G5",
          "midi": 79,
          "time": 41.208749999999945,
          "velocity": 0.8661417322834646,
          "duration": 0.13736250000000183
        },
        {
          "name": "C5",
          "midi": 72,
          "time": 41.37358499999995,
          "velocity": 0.8661417322834646,
          "duration": 0.13736250000000183
        },
        {
          "name": "E5",
          "midi": 76,
          "time": 41.37358499999995,
          "velocity": 0.8661417322834646,
          "duration": 0.13736250000000183
        },
        {
          "name": "A5",
          "midi": 81,
          "time": 41.37358499999995,
          "velocity": 0.8661417322834646,
          "duration": 0.13736250000000183
        },
        {
          "name": "G5",
          "midi": 79,
          "time": 41.53841999999995,
          "velocity": 0.8661417322834646,
          "duration": 0.13736250000000183
        },
        {
          "name": "F5",
          "midi": 77,
          "time": 41.703254999999956,
          "velocity": 0.8661417322834646,
          "duration": 0.13736250000000183
        },
        {
          "name": "E5",
          "midi": 76,
          "time": 41.86808999999996,
          "velocity": 0.8661417322834646,
          "duration": 0.13736250000000183
        },
        {
          "name": "F4",
          "midi": 65,
          "time": 42.03292499999996,
          "velocity": 0.8661417322834646,
          "duration": 1.0989000000000004
        },
        {
          "name": "A4",
          "midi": 69,
          "time": 42.03292499999996,
          "velocity": 0.8661417322834646,
          "duration": 1.0989000000000004
        },
        {
          "name": "D5",
          "midi": 74,
          "time": 42.03292499999996,
          "velocity": 0.8661417322834646,
          "duration": 1.0989000000000004
        },
        {
          "name": "A3",
          "midi": 57,
          "time": 43.351604999999964,
          "velocity": 0.8661417322834646,
          "duration": 0.13736250000000183
        },
        {
          "name": "F4",
          "midi": 65,
          "time": 43.51643999999997,
          "velocity": 0.8661417322834646,
          "duration": 0.13736250000000183
        },
        {
          "name": "E4",
          "midi": 64,
          "time": 43.68127499999997,
          "velocity": 0.8661417322834646,
          "duration": 0.06868124999999736
        },
        {
          "name": "F4",
          "midi": 65,
          "time": 43.76369249999997,
          "velocity": 0.8661417322834646,
          "duration": 0.06868124999999736
        },
        {
          "name": "E4",
          "midi": 64,
          "time": 43.84610999999997,
          "velocity": 0.8661417322834646,
          "duration": 0.13736250000000183
        },
        {
          "name": "G4",
          "midi": 67,
          "time": 44.01094499999997,
          "velocity": 0.8661417322834646,
          "duration": 0.13736250000000183
        },
        {
          "name": "F4",
          "midi": 65,
          "time": 44.175779999999975,
          "velocity": 0.8661417322834646,
          "duration": 0.13736250000000183
        },
        {
          "name": "E4",
          "midi": 64,
          "time": 44.34061499999998,
          "velocity": 0.8661417322834646,
          "duration": 0.06868124999999736
        },
        {
          "name": "F4",
          "midi": 65,
          "time": 44.42303249999998,
          "velocity": 0.8661417322834646,
          "duration": 0.06868124999999736
        },
        {
          "name": "E4",
          "midi": 64,
          "time": 44.505449999999975,
          "velocity": 0.8661417322834646,
          "duration": 0.06868124999999736
        },
        {
          "name": "C4",
          "midi": 60,
          "time": 44.58786749999997,
          "velocity": 0.8661417322834646,
          "duration": 0.06868124999999736
        },
        {
          "name": "D4",
          "midi": 62,
          "time": 44.67028499999997,
          "velocity": 0.8661417322834646,
          "duration": 0.13736250000000183
        },
        {
          "name": "A4",
          "midi": 69,
          "time": 44.835119999999975,
          "velocity": 0.8661417322834646,
          "duration": 0.13736250000000183
        },
        {
          "name": "G4",
          "midi": 67,
          "time": 44.99995499999998,
          "velocity": 0.8661417322834646,
          "duration": 0.06868124999999736
        },
        {
          "name": "A4",
          "midi": 69,
          "time": 45.08237249999998,
          "velocity": 0.8661417322834646,
          "duration": 0.06868124999999736
        },
        {
          "name": "G4",
          "midi": 67,
          "time": 45.164789999999975,
          "velocity": 0.8661417322834646,
          "duration": 0.06868124999999736
        },
        {
          "name": "A4",
          "midi": 69,
          "time": 45.24720749999997,
          "velocity": 0.8661417322834646,
          "duration": 0.06868124999999736
        },
        {
          "name": "C5",
          "midi": 72,
          "time": 45.32962499999997,
          "velocity": 0.8661417322834646,
          "duration": 0.13736250000000183
        },
        {
          "name": "A4",
          "midi": 69,
          "time": 45.494459999999975,
          "velocity": 0.8661417322834646,
          "duration": 0.13736250000000183
        },
        {
          "name": "G4",
          "midi": 67,
          "time": 45.65929499999998,
          "velocity": 0.8661417322834646,
          "duration": 0.13736250000000183
        },
        {
          "name": "A4",
          "midi": 69,
          "time": 45.82412999999998,
          "velocity": 0.8661417322834646,
          "duration": 0.13736250000000183
        },
        {
          "name": "A3",
          "midi": 57,
          "time": 45.988964999999986,
          "velocity": 0.8661417322834646,
          "duration": 0.13736250000000183
        },
        {
          "name": "F4",
          "midi": 65,
          "time": 46.15379999999999,
          "velocity": 0.8661417322834646,
          "duration": 0.13736250000000183
        },
        {
          "name": "E4",
          "midi": 64,
          "time": 46.31863499999999,
          "velocity": 0.8661417322834646,
          "duration": 0.06868124999999736
        },
        {
          "name": "F4",
          "midi": 65,
          "time": 46.40105249999999,
          "velocity": 0.8661417322834646,
          "duration": 0.06868124999999736
        },
        {
          "name": "E4",
          "midi": 64,
          "time": 46.48346999999999,
          "velocity": 0.8661417322834646,
          "duration": 0.13736250000000183
        },
        {
          "name": "G4",
          "midi": 67,
          "time": 46.64830499999999,
          "velocity": 0.8661417322834646,
          "duration": 0.13736250000000183
        },
        {
          "name": "F4",
          "midi": 65,
          "time": 46.81314,
          "velocity": 0.8661417322834646,
          "duration": 0.13736250000000183
        },
        {
          "name": "E4",
          "midi": 64,
          "time": 46.977975,
          "velocity": 0.8661417322834646,
          "duration": 0.06868124999999736
        },
        {
          "name": "F4",
          "midi": 65,
          "time": 47.0603925,
          "velocity": 0.8661417322834646,
          "duration": 0.06868124999999736
        },
        {
          "name": "E4",
          "midi": 64,
          "time": 47.14281,
          "velocity": 0.8661417322834646,
          "duration": 0.06868124999999736
        },
        {
          "name": "C4",
          "midi": 60,
          "time": 47.225227499999995,
          "velocity": 0.8661417322834646,
          "duration": 0.06868124999999736
        },
        {
          "name": "D4",
          "midi": 62,
          "time": 47.307644999999994,
          "velocity": 0.8661417322834646,
          "duration": 0.13736250000000183
        },
        {
          "name": "A4",
          "midi": 69,
          "time": 47.47248,
          "velocity": 0.8661417322834646,
          "duration": 0.13736250000000183
        },
        {
          "name": "G4",
          "midi": 67,
          "time": 47.637315,
          "velocity": 0.8661417322834646,
          "duration": 0.06868124999999736
        },
        {
          "name": "A4",
          "midi": 69,
          "time": 47.7197325,
          "velocity": 0.8661417322834646,
          "duration": 0.06868124999999736
        },
        {
          "name": "G4",
          "midi": 67,
          "time": 47.80215,
          "velocity": 0.8661417322834646,
          "duration": 0.06868124999999736
        },
        {
          "name": "A4",
          "midi": 69,
          "time": 47.884567499999996,
          "velocity": 0.8661417322834646,
          "duration": 0.06868124999999736
        },
        {
          "name": "C5",
          "midi": 72,
          "time": 47.966984999999994,
          "velocity": 0.8661417322834646,
          "duration": 0.13736250000000183
        },
        {
          "name": "A4",
          "midi": 69,
          "time": 48.13182,
          "velocity": 0.8661417322834646,
          "duration": 0.13736250000000183
        },
        {
          "name": "G4",
          "midi": 67,
          "time": 48.296655,
          "velocity": 0.8661417322834646,
          "duration": 0.13736250000000183
        },
        {
          "name": "E4",
          "midi": 64,
          "time": 48.461490000000005,
          "velocity": 0.8661417322834646,
          "duration": 0.13736250000000183
        },
        {
          "name": "F4",
          "midi": 65,
          "time": 48.62632500000001,
          "velocity": 0.8661417322834646,
          "duration": 0.13736250000000183
        },
        {
          "name": "E4",
          "midi": 64,
          "time": 48.79116000000001,
          "velocity": 0.8661417322834646,
          "duration": 0.06868124999999736
        },
        {
          "name": "F4",
          "midi": 65,
          "time": 48.87357750000001,
          "velocity": 0.8661417322834646,
          "duration": 0.06868124999999736
        },
        {
          "name": "E4",
          "midi": 64,
          "time": 48.95599500000001,
          "velocity": 0.8661417322834646,
          "duration": 0.13736250000000183
        },
        {
          "name": "C4",
          "midi": 60,
          "time": 49.12083000000001,
          "velocity": 0.8661417322834646,
          "duration": 0.13736250000000183
        },
        {
          "name": "D4",
          "midi": 62,
          "time": 49.285665000000016,
          "velocity": 0.8661417322834646,
          "duration": 0.13736250000000183
        },
        {
          "name": "C4",
          "midi": 60,
          "time": 49.45050000000002,
          "velocity": 0.8661417322834646,
          "duration": 0.13736250000000183
        },
        {
          "name": "G3",
          "midi": 55,
          "time": 49.61533500000002,
          "velocity": 0.8661417322834646,
          "duration": 0.13736250000000183
        },
        {
          "name": "E3",
          "midi": 52,
          "time": 49.78017000000003,
          "velocity": 0.8661417322834646,
          "duration": 0.13736250000000183
        },
        {
          "name": "D3",
          "midi": 50,
          "time": 49.94500500000003,
          "velocity": 0.8661417322834646,
          "duration": 0.13736250000000183
        },
        {
          "name": "E3",
          "midi": 52,
          "time": 50.109840000000034,
          "velocity": 0.8661417322834646,
          "duration": 0.13736250000000183
        },
        {
          "name": "F3",
          "midi": 53,
          "time": 50.27467500000004,
          "velocity": 0.8661417322834646,
          "duration": 0.13736250000000183
        },
        {
          "name": "G3",
          "midi": 55,
          "time": 50.43951000000004,
          "velocity": 0.8661417322834646,
          "duration": 0.13736250000000183
        },
        {
          "name": "A3",
          "midi": 57,
          "time": 50.604345000000045,
          "velocity": 0.8661417322834646,
          "duration": 0.13736250000000183
        },
        {
          "name": "C#4",
          "midi": 61,
          "time": 50.76918000000005,
          "velocity": 0.8661417322834646,
          "duration": 0.13736250000000183
        },
        {
          "name": "D4",
          "midi": 62,
          "time": 50.93401500000005,
          "velocity": 0.8661417322834646,
          "duration": 0.13736250000000183
        },
        {
          "name": "E4",
          "midi": 64,
          "time": 51.098850000000056,
          "velocity": 0.8661417322834646,
          "duration": 0.13736250000000183
        },
        {
          "name": "A3",
          "midi": 57,
          "time": 51.26368500000006,
          "velocity": 0.8661417322834646,
          "duration": 0.13736250000000183
        },
        {
          "name": "C#4",
          "midi": 61,
          "time": 51.26368500000006,
          "velocity": 0.8661417322834646,
          "duration": 0.13736250000000183
        },
        {
          "name": "A4",
          "midi": 69,
          "time": 51.42852000000006,
          "velocity": 0.8661417322834646,
          "duration": 0.13736250000000183
        },
        {
          "name": "G4",
          "midi": 67,
          "time": 51.59335500000007,
          "velocity": 0.8661417322834646,
          "duration": 0.06868124999999736
        },
        {
          "name": "A4",
          "midi": 69,
          "time": 51.675772500000065,
          "velocity": 0.8661417322834646,
          "duration": 0.06868124999999736
        },
        {
          "name": "G4",
          "midi": 67,
          "time": 51.75819000000006,
          "velocity": 0.8661417322834646,
          "duration": 0.06868124999999736
        },
        {
          "name": "A4",
          "midi": 69,
          "time": 51.84060750000006,
          "velocity": 0.8661417322834646,
          "duration": 0.06868124999999736
        },
        {
          "name": "E4",
          "midi": 64,
          "time": 51.92302500000006,
          "velocity": 0.8661417322834646,
          "duration": 0.13736250000000183
        },
        {
          "name": "C#5",
          "midi": 73,
          "time": 51.92302500000006,
          "velocity": 0.8661417322834646,
          "duration": 0.13736250000000183
        },
        {
          "name": "A4",
          "midi": 69,
          "time": 52.08786000000006,
          "velocity": 0.8661417322834646,
          "duration": 0.13736250000000183
        },
        {
          "name": "G4",
          "midi": 67,
          "time": 52.25269500000007,
          "velocity": 0.8661417322834646,
          "duration": 0.06868124999999736
        },
        {
          "name": "A4",
          "midi": 69,
          "time": 52.335112500000065,
          "velocity": 0.8661417322834646,
          "duration": 0.06868124999999736
        },
        {
          "name": "G4",
          "midi": 67,
          "time": 52.41753000000006,
          "velocity": 0.8661417322834646,
          "duration": 0.13736250000000183
        },
        {
          "name": "A3",
          "midi": 57,
          "time": 52.58236500000007,
          "velocity": 0.8661417322834646,
          "duration": 0.13736250000000183
        },
        {
          "name": "C#4",
          "midi": 61,
          "time": 52.58236500000007,
          "velocity": 0.8661417322834646,
          "duration": 0.13736250000000183
        },
        {
          "name": "C#5",
          "midi": 73,
          "time": 52.74720000000007,
          "velocity": 0.8661417322834646,
          "duration": 0.13736250000000183
        },
        {
          "name": "A4",
          "midi": 69,
          "time": 52.912035000000074,
          "velocity": 0.8661417322834646,
          "duration": 0.06868124999999736
        },
        {
          "name": "D5",
          "midi": 74,
          "time": 52.99445250000007,
          "velocity": 0.8661417322834646,
          "duration": 0.06868124999999736
        },
        {
          "name": "A4",
          "midi": 69,
          "time": 53.07687000000007,
          "velocity": 0.8661417322834646,
          "duration": 0.06868124999999736
        },
        {
          "name": "D5",
          "midi": 74,
          "time": 53.15928750000007,
          "velocity": 0.8661417322834646,
          "duration": 0.06868124999999736
        },
        {
          "name": "E5",
          "midi": 76,
          "time": 53.24170500000007,
          "velocity": 0.8661417322834646,
          "duration": 0.13736250000000183
        },
        {
          "name": "G4",
          "midi": 67,
          "time": 53.40654000000007,
          "velocity": 0.8661417322834646,
          "duration": 0.13736250000000183
        },
        {
          "name": "F4",
          "midi": 65,
          "time": 53.571375000000074,
          "velocity": 0.8661417322834646,
          "duration": 0.13736250000000183
        },
        {
          "name": "E4",
          "midi": 64,
          "time": 53.73621000000008,
          "velocity": 0.8661417322834646,
          "duration": 0.13736250000000183
        },
        {
          "name": "A3",
          "midi": 57,
          "time": 53.90104500000008,
          "velocity": 0.8661417322834646,
          "duration": 0.13736250000000183
        },
        {
          "name": "F4",
          "midi": 65,
          "time": 54.065880000000085,
          "velocity": 0.8661417322834646,
          "duration": 0.13736250000000183
        },
        {
          "name": "E4",
          "midi": 64,
          "time": 54.23071500000009,
          "velocity": 0.8661417322834646,
          "duration": 0.06868124999999736
        },
        {
          "name": "F4",
          "midi": 65,
          "time": 54.31313250000009,
          "velocity": 0.8661417322834646,
          "duration": 0.06868124999999736
        },
        {
          "name": "E4",
          "midi": 64,
          "time": 54.395550000000085,
          "velocity": 0.8661417322834646,
          "duration": 0.13736250000000183
        },
        {
          "name": "G4",
          "midi": 67,
          "time": 54.56038500000009,
          "velocity": 0.8661417322834646,
          "duration": 0.13736250000000183
        },
        {
          "name": "F4",
          "midi": 65,
          "time": 54.72522000000009,
          "velocity": 0.8661417322834646,
          "duration": 0.13736250000000183
        },
        {
          "name": "E4",
          "midi": 64,
          "time": 54.890055000000096,
          "velocity": 0.8661417322834646,
          "duration": 0.06868124999999736
        },
        {
          "name": "F4",
          "midi": 65,
          "time": 54.972472500000094,
          "velocity": 0.8661417322834646,
          "duration": 0.06868124999999736
        },
        {
          "name": "E4",
          "midi": 64,
          "time": 55.05489000000009,
          "velocity": 0.8661417322834646,
          "duration": 0.06868124999999736
        },
        {
          "name": "C4",
          "midi": 60,
          "time": 55.13730750000009,
          "velocity": 0.8661417322834646,
          "duration": 0.06868124999999736
        },
        {
          "name": "D4",
          "midi": 62,
          "time": 55.21972500000009,
          "velocity": 0.8661417322834646,
          "duration": 0.13736250000000183
        },
        {
          "name": "A4",
          "midi": 69,
          "time": 55.38456000000009,
          "velocity": 0.8661417322834646,
          "duration": 0.13736250000000183
        },
        {
          "name": "G4",
          "midi": 67,
          "time": 55.549395000000096,
          "velocity": 0.8661417322834646,
          "duration": 0.06868124999999736
        },
        {
          "name": "A4",
          "midi": 69,
          "time": 55.631812500000095,
          "velocity": 0.8661417322834646,
          "duration": 0.06868124999999736
        },
        {
          "name": "G4",
          "midi": 67,
          "time": 55.71423000000009,
          "velocity": 0.8661417322834646,
          "duration": 0.06868124999999736
        },
        {
          "name": "A4",
          "midi": 69,
          "time": 55.79664750000009,
          "velocity": 0.8661417322834646,
          "duration": 0.06868124999999736
        },
        {
          "name": "C5",
          "midi": 72,
          "time": 55.87906500000009,
          "velocity": 0.8661417322834646,
          "duration": 0.13736250000000183
        },
        {
          "name": "A4",
          "midi": 69,
          "time": 56.04390000000009,
          "velocity": 0.8661417322834646,
          "duration": 0.13736250000000183
        },
        {
          "name": "G4",
          "midi": 67,
          "time": 56.2087350000001,
          "velocity": 0.8661417322834646,
          "duration": 0.13736250000000183
        },
        {
          "name": "A4",
          "midi": 69,
          "time": 56.3735700000001,
          "velocity": 0.8661417322834646,
          "duration": 0.13736250000000183
        },
        {
          "name": "A3",
          "midi": 57,
          "time": 56.538405000000104,
          "velocity": 0.8661417322834646,
          "duration": 0.13736250000000183
        },
        {
          "name": "F4",
          "midi": 65,
          "time": 56.70324000000011,
          "velocity": 0.8661417322834646,
          "duration": 0.13736250000000183
        },
        {
          "name": "E4",
          "midi": 64,
          "time": 56.86807500000011,
          "velocity": 0.8661417322834646,
          "duration": 0.06868124999999736
        },
        {
          "name": "F4",
          "midi": 65,
          "time": 56.95049250000011,
          "velocity": 0.8661417322834646,
          "duration": 0.06868124999999736
        },
        {
          "name": "E4",
          "midi": 64,
          "time": 57.03291000000011,
          "velocity": 0.8661417322834646,
          "duration": 0.13736250000000183
        },
        {
          "name": "G4",
          "midi": 67,
          "time": 57.19774500000011,
          "velocity": 0.8661417322834646,
          "duration": 0.13736250000000183
        },
        {
          "name": "F4",
          "midi": 65,
          "time": 57.362580000000115,
          "velocity": 0.8661417322834646,
          "duration": 0.13736250000000183
        },
        {
          "name": "E4",
          "midi": 64,
          "time": 57.52741500000012,
          "velocity": 0.8661417322834646,
          "duration": 0.06868124999999736
        },
        {
          "name": "F4",
          "midi": 65,
          "time": 57.60983250000012,
          "velocity": 0.8661417322834646,
          "duration": 0.06868124999999736
        },
        {
          "name": "E4",
          "midi": 64,
          "time": 57.692250000000115,
          "velocity": 0.8661417322834646,
          "duration": 0.06868124999999736
        },
        {
          "name": "C4",
          "midi": 60,
          "time": 57.77466750000011,
          "velocity": 0.8661417322834646,
          "duration": 0.06868124999999736
        },
        {
          "name": "D4",
          "midi": 62,
          "time": 57.85708500000011,
          "velocity": 0.8661417322834646,
          "duration": 0.13736250000000183
        },
        {
          "name": "A4",
          "midi": 69,
          "time": 58.021920000000115,
          "velocity": 0.8661417322834646,
          "duration": 0.13736250000000183
        },
        {
          "name": "G4",
          "midi": 67,
          "time": 58.18675500000012,
          "velocity": 0.8661417322834646,
          "duration": 0.06868124999999736
        },
        {
          "name": "A4",
          "midi": 69,
          "time": 58.26917250000012,
          "velocity": 0.8661417322834646,
          "duration": 0.06868124999999736
        },
        {
          "name": "G4",
          "midi": 67,
          "time": 58.351590000000115,
          "velocity": 0.8661417322834646,
          "duration": 0.06868124999999736
        },
        {
          "name": "A4",
          "midi": 69,
          "time": 58.434007500000114,
          "velocity": 0.8661417322834646,
          "duration": 0.06868124999999736
        },
        {
          "name": "C5",
          "midi": 72,
          "time": 58.51642500000011,
          "velocity": 0.8661417322834646,
          "duration": 0.13736250000000183
        },
        {
          "name": "A4",
          "midi": 69,
          "time": 58.681260000000115,
          "velocity": 0.8661417322834646,
          "duration": 0.13736250000000183
        },
        {
          "name": "G4",
          "midi": 67,
          "time": 58.84609500000012,
          "velocity": 0.8661417322834646,
          "duration": 0.13736250000000183
        },
        {
          "name": "E4",
          "midi": 64,
          "time": 59.01093000000012,
          "velocity": 0.8661417322834646,
          "duration": 0.13736250000000183
        },
        {
          "name": "F4",
          "midi": 65,
          "time": 59.175765000000126,
          "velocity": 0.8661417322834646,
          "duration": 0.13736250000000183
        },
        {
          "name": "E4",
          "midi": 64,
          "time": 59.34060000000013,
          "velocity": 0.8661417322834646,
          "duration": 0.06868124999999736
        },
        {
          "name": "F4",
          "midi": 65,
          "time": 59.42301750000013,
          "velocity": 0.8661417322834646,
          "duration": 0.06868124999999736
        },
        {
          "name": "E4",
          "midi": 64,
          "time": 59.505435000000126,
          "velocity": 0.8661417322834646,
          "duration": 0.13736250000000183
        },
        {
          "name": "C4",
          "midi": 60,
          "time": 59.67027000000013,
          "velocity": 0.8661417322834646,
          "duration": 0.13736250000000183
        },
        {
          "name": "D4",
          "midi": 62,
          "time": 59.835105000000134,
          "velocity": 0.8661417322834646,
          "duration": 0.13736250000000183
        },
        {
          "name": "C4",
          "midi": 60,
          "time": 59.99994000000014,
          "velocity": 0.8661417322834646,
          "duration": 0.13736250000000183
        },
        {
          "name": "G3",
          "midi": 55,
          "time": 60.16477500000014,
          "velocity": 0.8661417322834646,
          "duration": 0.13736250000000183
        },
        {
          "name": "E3",
          "midi": 52,
          "time": 60.329610000000145,
          "velocity": 0.8661417322834646,
          "duration": 0.13736250000000183
        },
        {
          "name": "D3",
          "midi": 50,
          "time": 60.49444500000015,
          "velocity": 0.8661417322834646,
          "duration": 0.13736250000000183
        },
        {
          "name": "E3",
          "midi": 52,
          "time": 60.65928000000015,
          "velocity": 0.8661417322834646,
          "duration": 0.13736250000000183
        },
        {
          "name": "F3",
          "midi": 53,
          "time": 60.824115000000155,
          "velocity": 0.8661417322834646,
          "duration": 0.13736250000000183
        },
        {
          "name": "G3",
          "midi": 55,
          "time": 60.98895000000016,
          "velocity": 0.8661417322834646,
          "duration": 0.13736250000000183
        },
        {
          "name": "A3",
          "midi": 57,
          "time": 61.15378500000016,
          "velocity": 0.8661417322834646,
          "duration": 0.13736250000000183
        },
        {
          "name": "C#4",
          "midi": 61,
          "time": 61.318620000000166,
          "velocity": 0.8661417322834646,
          "duration": 0.13736250000000183
        },
        {
          "name": "D4",
          "midi": 62,
          "time": 61.48345500000017,
          "velocity": 0.8661417322834646,
          "duration": 0.13736250000000183
        },
        {
          "name": "E4",
          "midi": 64,
          "time": 61.64829000000017,
          "velocity": 0.8661417322834646,
          "duration": 0.13736250000000183
        },
        {
          "name": "A3",
          "midi": 57,
          "time": 61.81312500000018,
          "velocity": 0.8661417322834646,
          "duration": 0.13736250000000183
        },
        {
          "name": "C#4",
          "midi": 61,
          "time": 61.81312500000018,
          "velocity": 0.8661417322834646,
          "duration": 0.13736250000000183
        },
        {
          "name": "A4",
          "midi": 69,
          "time": 61.97796000000018,
          "velocity": 0.8661417322834646,
          "duration": 0.13736250000000183
        },
        {
          "name": "G4",
          "midi": 67,
          "time": 62.142795000000184,
          "velocity": 0.8661417322834646,
          "duration": 0.06868124999999736
        },
        {
          "name": "A4",
          "midi": 69,
          "time": 62.22521250000018,
          "velocity": 0.8661417322834646,
          "duration": 0.06868124999999736
        },
        {
          "name": "G4",
          "midi": 67,
          "time": 62.30763000000018,
          "velocity": 0.8661417322834646,
          "duration": 0.06868124999999736
        },
        {
          "name": "A4",
          "midi": 69,
          "time": 62.39004750000018,
          "velocity": 0.8661417322834646,
          "duration": 0.06868124999999736
        },
        {
          "name": "E4",
          "midi": 64,
          "time": 62.47246500000018,
          "velocity": 0.8661417322834646,
          "duration": 0.13736250000000183
        },
        {
          "name": "C#5",
          "midi": 73,
          "time": 62.47246500000018,
          "velocity": 0.8661417322834646,
          "duration": 0.13736250000000183
        },
        {
          "name": "A4",
          "midi": 69,
          "time": 62.63730000000018,
          "velocity": 0.8661417322834646,
          "duration": 0.13736250000000183
        },
        {
          "name": "G4",
          "midi": 67,
          "time": 62.802135000000185,
          "velocity": 0.8661417322834646,
          "duration": 0.06868124999999736
        },
        {
          "name": "A4",
          "midi": 69,
          "time": 62.88455250000018,
          "velocity": 0.8661417322834646,
          "duration": 0.06868124999999736
        },
        {
          "name": "G4",
          "midi": 67,
          "time": 62.96697000000018,
          "velocity": 0.8661417322834646,
          "duration": 0.13736250000000183
        },
        {
          "name": "A3",
          "midi": 57,
          "time": 63.131805000000185,
          "velocity": 0.8661417322834646,
          "duration": 0.13736250000000183
        },
        {
          "name": "C#4",
          "midi": 61,
          "time": 63.131805000000185,
          "velocity": 0.8661417322834646,
          "duration": 0.13736250000000183
        },
        {
          "name": "C#5",
          "midi": 73,
          "time": 63.29664000000019,
          "velocity": 0.8661417322834646,
          "duration": 0.13736250000000183
        },
        {
          "name": "A4",
          "midi": 69,
          "time": 63.46147500000019,
          "velocity": 0.8661417322834646,
          "duration": 0.06868124999999736
        },
        {
          "name": "D5",
          "midi": 74,
          "time": 63.54389250000019,
          "velocity": 0.8661417322834646,
          "duration": 0.06868124999999736
        },
        {
          "name": "A4",
          "midi": 69,
          "time": 63.62631000000019,
          "velocity": 0.8661417322834646,
          "duration": 0.06868124999999736
        },
        {
          "name": "D5",
          "midi": 74,
          "time": 63.70872750000019,
          "velocity": 0.8661417322834646,
          "duration": 0.06868124999999736
        },
        {
          "name": "E5",
          "midi": 76,
          "time": 63.791145000000185,
          "velocity": 0.8661417322834646,
          "duration": 0.13736250000000183
        },
        {
          "name": "D5",
          "midi": 74,
          "time": 63.95598000000019,
          "velocity": 0.8661417322834646,
          "duration": 0.13736250000000183
        },
        {
          "name": "A4",
          "midi": 69,
          "time": 64.12081500000019,
          "velocity": 0.8661417322834646,
          "duration": 0.27472500000000366
        },
        {
          "name": "A5",
          "midi": 81,
          "time": 64.12081500000019,
          "velocity": 0.8661417322834646,
          "duration": 0.27472500000000366
        },
        {
          "name": "D5",
          "midi": 74,
          "time": 64.4504850000002,
          "velocity": 0.8661417322834646,
          "duration": 0.27472500000000366
        },
        {
          "name": "F5",
          "midi": 77,
          "time": 64.7801550000002,
          "velocity": 0.8661417322834646,
          "duration": 0.27472500000000366
        },
        {
          "name": "E5",
          "midi": 76,
          "time": 65.10982500000021,
          "velocity": 0.8661417322834646,
          "duration": 0.27472500000000366
        },
        {
          "name": "D5",
          "midi": 74,
          "time": 65.43949500000022,
          "velocity": 0.8661417322834646,
          "duration": 0.13736249999999472
        },
        {
          "name": "C5",
          "midi": 72,
          "time": 65.60433000000022,
          "velocity": 0.8661417322834646,
          "duration": 0.4395600000000002
        },
        {
          "name": "A5",
          "midi": 81,
          "time": 66.09883500000022,
          "velocity": 0.8661417322834646,
          "duration": 0.27472500000000366
        },
        {
          "name": "E5",
          "midi": 76,
          "time": 66.42850500000023,
          "velocity": 0.8661417322834646,
          "duration": 0.27472500000000366
        },
        {
          "name": "C5",
          "midi": 72,
          "time": 66.75817500000024,
          "velocity": 0.8661417322834646,
          "duration": 0.13736249999999472
        },
        {
          "name": "C#5",
          "midi": 73,
          "time": 66.92301000000023,
          "velocity": 0.8661417322834646,
          "duration": 0.13736249999999472
        },
        {
          "name": "D5",
          "midi": 74,
          "time": 67.08784500000023,
          "velocity": 0.8661417322834646,
          "duration": 0.27472500000000366
        },
        {
          "name": "F5",
          "midi": 77,
          "time": 67.41751500000024,
          "velocity": 0.8661417322834646,
          "duration": 0.27472500000000366
        },
        {
          "name": "E5",
          "midi": 76,
          "time": 67.74718500000024,
          "velocity": 0.8661417322834646,
          "duration": 0.27472500000000366
        },
        {
          "name": "D5",
          "midi": 74,
          "time": 68.07685500000025,
          "velocity": 0.8661417322834646,
          "duration": 0.13736249999999472
        },
        {
          "name": "C5",
          "midi": 72,
          "time": 68.24169000000025,
          "velocity": 0.8661417322834646,
          "duration": 0.4395600000000002
        },
        {
          "name": "A5",
          "midi": 81,
          "time": 68.73619500000025,
          "velocity": 0.8661417322834646,
          "duration": 0.27472500000000366
        },
        {
          "name": "E5",
          "midi": 76,
          "time": 69.06586500000026,
          "velocity": 0.8661417322834646,
          "duration": 0.13736249999999472
        },
        {
          "name": "D5",
          "midi": 74,
          "time": 69.23070000000025,
          "velocity": 0.8661417322834646,
          "duration": 0.13736249999999472
        },
        {
          "name": "C5",
          "midi": 72,
          "time": 69.39553500000025,
          "velocity": 0.8661417322834646,
          "duration": 0.27472500000000366
        },
        {
          "name": "D5",
          "midi": 74,
          "time": 69.72520500000026,
          "velocity": 0.8661417322834646,
          "duration": 0.27472500000000366
        },
        {
          "name": "F5",
          "midi": 77,
          "time": 70.05487500000027,
          "velocity": 0.8661417322834646,
          "duration": 0.27472500000000366
        },
        {
          "name": "E5",
          "midi": 76,
          "time": 70.38454500000027,
          "velocity": 0.8661417322834646,
          "duration": 0.27472500000000366
        },
        {
          "name": "D5",
          "midi": 74,
          "time": 70.71421500000028,
          "velocity": 0.8661417322834646,
          "duration": 0.13736249999999472
        },
        {
          "name": "C5",
          "midi": 72,
          "time": 70.87905000000028,
          "velocity": 0.8661417322834646,
          "duration": 0.4395600000000002
        },
        {
          "name": "A5",
          "midi": 81,
          "time": 71.37355500000028,
          "velocity": 0.8661417322834646,
          "duration": 0.27472500000000366
        },
        {
          "name": "E5",
          "midi": 76,
          "time": 71.70322500000029,
          "velocity": 0.8661417322834646,
          "duration": 0.27472500000000366
        },
        {
          "name": "C5",
          "midi": 72,
          "time": 72.0328950000003,
          "velocity": 0.8661417322834646,
          "duration": 0.13736249999999472
        },
        {
          "name": "C#5",
          "midi": 73,
          "time": 72.19773000000029,
          "velocity": 0.8661417322834646,
          "duration": 0.13736249999999472
        },
        {
          "name": "D5",
          "midi": 74,
          "time": 72.36256500000029,
          "velocity": 0.8661417322834646,
          "duration": 0.27472500000000366
        },
        {
          "name": "F5",
          "midi": 77,
          "time": 72.6922350000003,
          "velocity": 0.8661417322834646,
          "duration": 0.27472500000000366
        },
        {
          "name": "E5",
          "midi": 76,
          "time": 73.0219050000003,
          "velocity": 0.8661417322834646,
          "duration": 0.27472500000000366
        },
        {
          "name": "F5",
          "midi": 77,
          "time": 73.35157500000031,
          "velocity": 0.8661417322834646,
          "duration": 0.13736249999999472
        },
        {
          "name": "G5",
          "midi": 79,
          "time": 73.5164100000003,
          "velocity": 0.8661417322834646,
          "duration": 0.4395600000000002
        },
        {
          "name": "F5",
          "midi": 77,
          "time": 74.01091500000031,
          "velocity": 0.8661417322834646,
          "duration": 0.27472500000000366
        },
        {
          "name": "E5",
          "midi": 76,
          "time": 74.34058500000032,
          "velocity": 0.8661417322834646,
          "duration": 0.27472500000000366
        },
        {
          "name": "C5",
          "midi": 72,
          "time": 74.67025500000032,
          "velocity": 0.8661417322834646,
          "duration": 0.13736249999999472
        },
        {
          "name": "C#5",
          "midi": 73,
          "time": 74.83509000000032,
          "velocity": 0.8661417322834646,
          "duration": 0.13736249999999472
        },
        {
          "name": "F4",
          "midi": 65,
          "time": 74.99992500000032,
          "velocity": 0.8661417322834646,
          "duration": 0.27472500000000366
        },
        {
          "name": "D5",
          "midi": 74,
          "time": 74.99992500000032,
          "velocity": 0.8661417322834646,
          "duration": 0.27472500000000366
        },
        {
          "name": "F5",
          "midi": 77,
          "time": 74.99992500000032,
          "velocity": 0.8661417322834646,
          "duration": 0.27472500000000366
        },
        {
          "name": "A4",
          "midi": 69,
          "time": 75.32959500000032,
          "velocity": 0.8661417322834646,
          "duration": 0.27472500000000366
        },
        {
          "name": "F5",
          "midi": 77,
          "time": 75.32959500000032,
          "velocity": 0.8661417322834646,
          "duration": 0.27472500000000366
        },
        {
          "name": "A5",
          "midi": 81,
          "time": 75.32959500000032,
          "velocity": 0.8661417322834646,
          "duration": 0.27472500000000366
        },
        {
          "name": "G4",
          "midi": 67,
          "time": 75.65926500000033,
          "velocity": 0.8661417322834646,
          "duration": 0.13736249999999472
        },
        {
          "name": "E5",
          "midi": 76,
          "time": 75.65926500000033,
          "velocity": 0.8661417322834646,
          "duration": 0.13736249999999472
        },
        {
          "name": "G5",
          "midi": 79,
          "time": 75.65926500000033,
          "velocity": 0.8661417322834646,
          "duration": 0.13736249999999472
        },
        {
          "name": "F4",
          "midi": 65,
          "time": 75.82410000000033,
          "velocity": 0.8661417322834646,
          "duration": 0.27472500000000366
        },
        {
          "name": "D5",
          "midi": 74,
          "time": 75.82410000000033,
          "velocity": 0.8661417322834646,
          "duration": 0.27472500000000366
        },
        {
          "name": "F5",
          "midi": 77,
          "time": 75.82410000000033,
          "velocity": 0.8661417322834646,
          "duration": 0.27472500000000366
        },
        {
          "name": "E4",
          "midi": 64,
          "time": 76.15377000000034,
          "velocity": 0.8661417322834646,
          "duration": 0.4395600000000002
        },
        {
          "name": "C5",
          "midi": 72,
          "time": 76.15377000000034,
          "velocity": 0.8661417322834646,
          "duration": 0.4395600000000002
        },
        {
          "name": "E5",
          "midi": 76,
          "time": 76.15377000000034,
          "velocity": 0.8661417322834646,
          "duration": 0.4395600000000002
        },
        {
          "name": "C5",
          "midi": 72,
          "time": 76.64827500000034,
          "velocity": 0.8661417322834646,
          "duration": 0.27472500000000366
        },
        {
          "name": "A5",
          "midi": 81,
          "time": 76.64827500000034,
          "velocity": 0.8661417322834646,
          "duration": 0.27472500000000366
        },
        {
          "name": "C6",
          "midi": 84,
          "time": 76.64827500000034,
          "velocity": 0.8661417322834646,
          "duration": 0.27472500000000366
        },
        {
          "name": "G4",
          "midi": 67,
          "time": 76.97794500000035,
          "velocity": 0.8661417322834646,
          "duration": 0.27472500000000366
        },
        {
          "name": "E5",
          "midi": 76,
          "time": 76.97794500000035,
          "velocity": 0.8661417322834646,
          "duration": 0.27472500000000366
        },
        {
          "name": "G5",
          "midi": 79,
          "time": 76.97794500000035,
          "velocity": 0.8661417322834646,
          "duration": 0.27472500000000366
        },
        {
          "name": "E4",
          "midi": 64,
          "time": 77.30761500000035,
          "velocity": 0.8661417322834646,
          "duration": 0.27472500000000366
        },
        {
          "name": "C5",
          "midi": 72,
          "time": 77.30761500000035,
          "velocity": 0.8661417322834646,
          "duration": 0.27472500000000366
        },
        {
          "name": "E5",
          "midi": 76,
          "time": 77.30761500000035,
          "velocity": 0.8661417322834646,
          "duration": 0.27472500000000366
        },
        {
          "name": "F4",
          "midi": 65,
          "time": 77.63728500000036,
          "velocity": 0.8661417322834646,
          "duration": 0.27472500000000366
        },
        {
          "name": "D5",
          "midi": 74,
          "time": 77.63728500000036,
          "velocity": 0.8661417322834646,
          "duration": 0.27472500000000366
        },
        {
          "name": "F5",
          "midi": 77,
          "time": 77.63728500000036,
          "velocity": 0.8661417322834646,
          "duration": 0.27472500000000366
        },
        {
          "name": "A4",
          "midi": 69,
          "time": 77.96695500000037,
          "velocity": 0.8661417322834646,
          "duration": 0.27472500000000366
        },
        {
          "name": "F5",
          "midi": 77,
          "time": 77.96695500000037,
          "velocity": 0.8661417322834646,
          "duration": 0.27472500000000366
        },
        {
          "name": "A5",
          "midi": 81,
          "time": 77.96695500000037,
          "velocity": 0.8661417322834646,
          "duration": 0.27472500000000366
        },
        {
          "name": "G4",
          "midi": 67,
          "time": 78.29662500000038,
          "velocity": 0.8661417322834646,
          "duration": 0.13736249999999472
        },
        {
          "name": "E5",
          "midi": 76,
          "time": 78.29662500000038,
          "velocity": 0.8661417322834646,
          "duration": 0.13736249999999472
        },
        {
          "name": "G5",
          "midi": 79,
          "time": 78.29662500000038,
          "velocity": 0.8661417322834646,
          "duration": 0.13736249999999472
        },
        {
          "name": "A4",
          "midi": 69,
          "time": 78.46146000000037,
          "velocity": 0.8661417322834646,
          "duration": 0.27472500000000366
        },
        {
          "name": "F5",
          "midi": 77,
          "time": 78.46146000000037,
          "velocity": 0.8661417322834646,
          "duration": 0.27472500000000366
        },
        {
          "name": "A5",
          "midi": 81,
          "time": 78.46146000000037,
          "velocity": 0.8661417322834646,
          "duration": 0.27472500000000366
        },
        {
          "name": "A#4",
          "midi": 70,
          "time": 78.79113000000038,
          "velocity": 0.8661417322834646,
          "duration": 0.4395600000000002
        },
        {
          "name": "G5",
          "midi": 79,
          "time": 78.79113000000038,
          "velocity": 0.8661417322834646,
          "duration": 0.4395600000000002
        },
        {
          "name": "A#5",
          "midi": 82,
          "time": 78.79113000000038,
          "velocity": 0.8661417322834646,
          "duration": 0.4395600000000002
        },
        {
          "name": "A4",
          "midi": 69,
          "time": 79.28563500000038,
          "velocity": 0.8661417322834646,
          "duration": 0.27472500000000366
        },
        {
          "name": "F5",
          "midi": 77,
          "time": 79.28563500000038,
          "velocity": 0.8661417322834646,
          "duration": 0.27472500000000366
        },
        {
          "name": "A5",
          "midi": 81,
          "time": 79.28563500000038,
          "velocity": 0.8661417322834646,
          "duration": 0.27472500000000366
        },
        {
          "name": "G4",
          "midi": 67,
          "time": 79.61530500000039,
          "velocity": 0.8661417322834646,
          "duration": 0.27472500000000366
        },
        {
          "name": "E5",
          "midi": 76,
          "time": 79.61530500000039,
          "velocity": 0.8661417322834646,
          "duration": 0.27472500000000366
        },
        {
          "name": "G5",
          "midi": 79,
          "time": 79.61530500000039,
          "velocity": 0.8661417322834646,
          "duration": 0.27472500000000366
        },
        {
          "name": "E4",
          "midi": 64,
          "time": 79.9449750000004,
          "velocity": 0.8661417322834646,
          "duration": 0.27472500000000366
        },
        {
          "name": "C5",
          "midi": 72,
          "time": 79.9449750000004,
          "velocity": 0.8661417322834646,
          "duration": 0.27472500000000366
        },
        {
          "name": "E5",
          "midi": 76,
          "time": 79.9449750000004,
          "velocity": 0.8661417322834646,
          "duration": 0.27472500000000366
        },
        {
          "name": "D4",
          "midi": 62,
          "time": 80.2746450000004,
          "velocity": 0.8661417322834646,
          "duration": 0.27472500000000366
        },
        {
          "name": "A#4",
          "midi": 70,
          "time": 80.2746450000004,
          "velocity": 0.8661417322834646,
          "duration": 0.27472500000000366
        },
        {
          "name": "D5",
          "midi": 74,
          "time": 80.2746450000004,
          "velocity": 0.8661417322834646,
          "duration": 0.27472500000000366
        },
        {
          "name": "F4",
          "midi": 65,
          "time": 80.60431500000041,
          "velocity": 0.8661417322834646,
          "duration": 0.27472500000000366
        },
        {
          "name": "D5",
          "midi": 74,
          "time": 80.60431500000041,
          "velocity": 0.8661417322834646,
          "duration": 0.27472500000000366
        },
        {
          "name": "F5",
          "midi": 77,
          "time": 80.60431500000041,
          "velocity": 0.8661417322834646,
          "duration": 0.27472500000000366
        },
        {
          "name": "E4",
          "midi": 64,
          "time": 80.93398500000042,
          "velocity": 0.8661417322834646,
          "duration": 0.27472500000000366
        },
        {
          "name": "C5",
          "midi": 72,
          "time": 80.93398500000042,
          "velocity": 0.8661417322834646,
          "duration": 0.27472500000000366
        },
        {
          "name": "E5",
          "midi": 76,
          "time": 80.93398500000042,
          "velocity": 0.8661417322834646,
          "duration": 0.27472500000000366
        },
        {
          "name": "D4",
          "midi": 62,
          "time": 81.26365500000043,
          "velocity": 0.8661417322834646,
          "duration": 0.27472500000000366
        },
        {
          "name": "A#4",
          "midi": 70,
          "time": 81.26365500000043,
          "velocity": 0.8661417322834646,
          "duration": 0.27472500000000366
        },
        {
          "name": "D5",
          "midi": 74,
          "time": 81.26365500000043,
          "velocity": 0.8661417322834646,
          "duration": 0.27472500000000366
        },
        {
          "name": "D4",
          "midi": 62,
          "time": 81.59332500000043,
          "velocity": 0.8661417322834646,
          "duration": 0.27472500000000366
        },
        {
          "name": "A#4",
          "midi": 70,
          "time": 81.59332500000043,
          "velocity": 0.8661417322834646,
          "duration": 0.27472500000000366
        },
        {
          "name": "D5",
          "midi": 74,
          "time": 81.59332500000043,
          "velocity": 0.8661417322834646,
          "duration": 0.27472500000000366
        },
        {
          "name": "A#4",
          "midi": 70,
          "time": 81.92299500000044,
          "velocity": 0.8661417322834646,
          "duration": 0.27472500000000366
        },
        {
          "name": "G5",
          "midi": 79,
          "time": 81.92299500000044,
          "velocity": 0.8661417322834646,
          "duration": 0.27472500000000366
        },
        {
          "name": "A#5",
          "midi": 82,
          "time": 81.92299500000044,
          "velocity": 0.8661417322834646,
          "duration": 0.27472500000000366
        },
        {
          "name": "A4",
          "midi": 69,
          "time": 82.25266500000045,
          "velocity": 0.8661417322834646,
          "duration": 0.27472500000000366
        },
        {
          "name": "E5",
          "midi": 76,
          "time": 82.25266500000045,
          "velocity": 0.8661417322834646,
          "duration": 0.27472500000000366
        },
        {
          "name": "A5",
          "midi": 81,
          "time": 82.25266500000045,
          "velocity": 0.8661417322834646,
          "duration": 0.27472500000000366
        },
        {
          "name": "G4",
          "midi": 67,
          "time": 82.58233500000046,
          "velocity": 0.8661417322834646,
          "duration": 0.27472500000000366
        },
        {
          "name": "D5",
          "midi": 74,
          "time": 82.58233500000046,
          "velocity": 0.8661417322834646,
          "duration": 0.27472500000000366
        },
        {
          "name": "G5",
          "midi": 79,
          "time": 82.58233500000046,
          "velocity": 0.8661417322834646,
          "duration": 0.27472500000000366
        },
        {
          "name": "A4",
          "midi": 69,
          "time": 82.91200500000046,
          "velocity": 0.8661417322834646,
          "duration": 0.13736249999999472
        },
        {
          "name": "E5",
          "midi": 76,
          "time": 82.91200500000046,
          "velocity": 0.8661417322834646,
          "duration": 0.13736249999999472
        },
        {
          "name": "A5",
          "midi": 81,
          "time": 82.91200500000046,
          "velocity": 0.8661417322834646,
          "duration": 0.13736249999999472
        },
        {
          "name": "E5",
          "midi": 76,
          "time": 83.07684000000046,
          "velocity": 0.8661417322834646,
          "duration": 0.06868124999999736
        },
        {
          "name": "C#5",
          "midi": 73,
          "time": 83.15925750000045,
          "velocity": 0.8661417322834646,
          "duration": 0.06868124999999736
        },
        {
          "name": "A4",
          "midi": 69,
          "time": 83.24167500000044,
          "velocity": 0.8661417322834646,
          "duration": 0.13736249999999472
        },
        {
          "name": "C#5",
          "midi": 73,
          "time": 83.40651000000044,
          "velocity": 0.8661417322834646,
          "duration": 0.13736249999999472
        },
        {
          "name": "C#5",
          "midi": 73,
          "time": 83.57134500000043,
          "velocity": 0.8661417322834646,
          "duration": 0.13736249999999472
        },
        {
          "name": "B5",
          "midi": 83,
          "time": 83.57134500000043,
          "velocity": 0.8661417322834646,
          "duration": 0.13736249999999472
        },
        {
          "name": "B4",
          "midi": 71,
          "time": 83.73618000000043,
          "velocity": 0.8661417322834646,
          "duration": 0.13736249999999472
        },
        {
          "name": "C#5",
          "midi": 73,
          "time": 83.90101500000043,
          "velocity": 0.8661417322834646,
          "duration": 0.13736249999999472
        },
        {
          "name": "A#5",
          "midi": 82,
          "time": 83.90101500000043,
          "velocity": 0.8661417322834646,
          "duration": 0.13736249999999472
        },
        {
          "name": "C#5",
          "midi": 73,
          "time": 84.06585000000042,
          "velocity": 0.8661417322834646,
          "duration": 0.4395600000000002
        },
        {
          "name": "G5",
          "midi": 79,
          "time": 84.06585000000042,
          "velocity": 0.8661417322834646,
          "duration": 0.4395600000000002
        },
        {
          "name": "C#6",
          "midi": 85,
          "time": 84.06585000000042,
          "velocity": 0.8661417322834646,
          "duration": 0.4395600000000002
        },
        {
          "name": "C#5",
          "midi": 73,
          "time": 84.56035500000043,
          "velocity": 0.8661417322834646,
          "duration": 0.13736249999999472
        },
        {
          "name": "C#6",
          "midi": 85,
          "time": 84.56035500000043,
          "velocity": 0.8661417322834646,
          "duration": 0.13736249999999472
        },
        {
          "name": "D5",
          "midi": 74,
          "time": 84.72519000000042,
          "velocity": 0.8661417322834646,
          "duration": 0.13736249999999472
        },
        {
          "name": "D6",
          "midi": 86,
          "time": 84.72519000000042,
          "velocity": 0.8661417322834646,
          "duration": 0.13736249999999472
        },
        {
          "name": "E5",
          "midi": 76,
          "time": 84.89002500000042,
          "velocity": 0.8661417322834646,
          "duration": 0.13736249999999472
        },
        {
          "name": "A5",
          "midi": 81,
          "time": 84.89002500000042,
          "velocity": 0.8661417322834646,
          "duration": 0.13736249999999472
        },
        {
          "name": "C#6",
          "midi": 85,
          "time": 84.89002500000042,
          "velocity": 0.8661417322834646,
          "duration": 0.13736249999999472
        },
        {
          "name": "E6",
          "midi": 88,
          "time": 84.89002500000042,
          "velocity": 0.8661417322834646,
          "duration": 0.13736249999999472
        },
        {
          "name": "C4",
          "midi": 60,
          "time": 85.09606875000041,
          "velocity": 0.8661417322834646,
          "duration": 0.01717031249999934
        },
        {
          "name": "D4",
          "midi": 62,
          "time": 85.11667312500042,
          "velocity": 0.8661417322834646,
          "duration": 0.01717031249999934
        },
        {
          "name": "E4",
          "midi": 64,
          "time": 85.13727750000042,
          "velocity": 0.8661417322834646,
          "duration": 0.01717031249999934
        },
        {
          "name": "F4",
          "midi": 65,
          "time": 85.15788187500043,
          "velocity": 0.8661417322834646,
          "duration": 0.01717031249999934
        },
        {
          "name": "G4",
          "midi": 67,
          "time": 85.17848625000043,
          "velocity": 0.8661417322834646,
          "duration": 0.01717031249999934
        },
        {
          "name": "A4",
          "midi": 69,
          "time": 85.19909062500044,
          "velocity": 0.8661417322834646,
          "duration": 0.01717031249999934
        },
        {
          "name": "B4",
          "midi": 71,
          "time": 85.21969500000044,
          "velocity": 0.8661417322834646,
          "duration": 0.01717031249999934
        },
        {
          "name": "C5",
          "midi": 72,
          "time": 85.24029937500045,
          "velocity": 0.8661417322834646,
          "duration": 0.01717031249999934
        },
        {
          "name": "D5",
          "midi": 74,
          "time": 85.26090375000045,
          "velocity": 0.8661417322834646,
          "duration": 0.01717031249999934
        },
        {
          "name": "E5",
          "midi": 76,
          "time": 85.28150812500046,
          "velocity": 0.8661417322834646,
          "duration": 0.01717031249999934
        },
        {
          "name": "F5",
          "midi": 77,
          "time": 85.30211250000046,
          "velocity": 0.8661417322834646,
          "duration": 0.01717031249999934
        },
        {
          "name": "G5",
          "midi": 79,
          "time": 85.32271687500047,
          "velocity": 0.8661417322834646,
          "duration": 0.01717031249999934
        },
        {
          "name": "A5",
          "midi": 81,
          "time": 85.34332125000047,
          "velocity": 0.8661417322834646,
          "duration": 0.01717031249999934
        },
        {
          "name": "B5",
          "midi": 83,
          "time": 85.36392562500048,
          "velocity": 0.8661417322834646,
          "duration": 0.01717031249999934
        },
        {
          "name": "C6",
          "midi": 84,
          "time": 85.38453000000048,
          "velocity": 0.8661417322834646,
          "duration": 0.01717031249999934
        },
        {
          "name": "D6",
          "midi": 86,
          "time": 85.40513437500049,
          "velocity": 0.8661417322834646,
          "duration": 0.01717031249999934
        },
        {
          "name": "F4",
          "midi": 65,
          "time": 85.54936500000049,
          "velocity": 0.8661417322834646,
          "duration": 0.13736249999999472
        },
        {
          "name": "A4",
          "midi": 69,
          "time": 85.54936500000049,
          "velocity": 0.8661417322834646,
          "duration": 0.13736249999999472
        },
        {
          "name": "D5",
          "midi": 74,
          "time": 85.71420000000049,
          "velocity": 0.8661417322834646,
          "duration": 0.13736249999999472
        },
        {
          "name": "F5",
          "midi": 77,
          "time": 85.71420000000049,
          "velocity": 0.8661417322834646,
          "duration": 0.13736249999999472
        },
        {
          "name": "E5",
          "midi": 76,
          "time": 85.87903500000048,
          "velocity": 0.8661417322834646,
          "duration": 0.06868124999999736
        },
        {
          "name": "F5",
          "midi": 77,
          "time": 85.96145250000048,
          "velocity": 0.8661417322834646,
          "duration": 0.06868124999999736
        },
        {
          "name": "E5",
          "midi": 76,
          "time": 86.04387000000047,
          "velocity": 0.8661417322834646,
          "duration": 0.13736249999999472
        },
        {
          "name": "C5",
          "midi": 72,
          "time": 86.20870500000046,
          "velocity": 0.8661417322834646,
          "duration": 0.13736249999999472
        },
        {
          "name": "G5",
          "midi": 79,
          "time": 86.20870500000046,
          "velocity": 0.8661417322834646,
          "duration": 0.13736249999999472
        },
        {
          "name": "F5",
          "midi": 77,
          "time": 86.37354000000046,
          "velocity": 0.8661417322834646,
          "duration": 0.13736249999999472
        },
        {
          "name": "E5",
          "midi": 76,
          "time": 86.53837500000046,
          "velocity": 0.8661417322834646,
          "duration": 0.06868124999999736
        },
        {
          "name": "F5",
          "midi": 77,
          "time": 86.62079250000045,
          "velocity": 0.8661417322834646,
          "duration": 0.06868124999999736
        },
        {
          "name": "E5",
          "midi": 76,
          "time": 86.70321000000044,
          "velocity": 0.8661417322834646,
          "duration": 0.06868124999999736
        },
        {
          "name": "C5",
          "midi": 72,
          "time": 86.78562750000043,
          "velocity": 0.8661417322834646,
          "duration": 0.06868124999999736
        },
        {
          "name": "D5",
          "midi": 74,
          "time": 86.86804500000042,
          "velocity": 0.8661417322834646,
          "duration": 0.13736249999999472
        },
        {
          "name": "F5",
          "midi": 77,
          "time": 87.03288000000042,
          "velocity": 0.8661417322834646,
          "duration": 0.13736249999999472
        },
        {
          "name": "A5",
          "midi": 81,
          "time": 87.03288000000042,
          "velocity": 0.8661417322834646,
          "duration": 0.13736249999999472
        },
        {
          "name": "G5",
          "midi": 79,
          "time": 87.19771500000041,
          "velocity": 0.8661417322834646,
          "duration": 0.06868124999999736
        },
        {
          "name": "A5",
          "midi": 81,
          "time": 87.2801325000004,
          "velocity": 0.8661417322834646,
          "duration": 0.06868124999999736
        },
        {
          "name": "G5",
          "midi": 79,
          "time": 87.3625500000004,
          "velocity": 0.8661417322834646,
          "duration": 0.06868124999999736
        },
        {
          "name": "A5",
          "midi": 81,
          "time": 87.44496750000039,
          "velocity": 0.8661417322834646,
          "duration": 0.06868124999999736
        },
        {
          "name": "F5",
          "midi": 77,
          "time": 87.52738500000038,
          "velocity": 0.8661417322834646,
          "duration": 0.13736249999999472
        },
        {
          "name": "C6",
          "midi": 84,
          "time": 87.52738500000038,
          "velocity": 0.8661417322834646,
          "duration": 0.13736249999999472
        },
        {
          "name": "A5",
          "midi": 81,
          "time": 87.69222000000038,
          "velocity": 0.8661417322834646,
          "duration": 0.13736249999999472
        },
        {
          "name": "G5",
          "midi": 79,
          "time": 87.85705500000037,
          "velocity": 0.8661417322834646,
          "duration": 0.13736249999999472
        },
        {
          "name": "A5",
          "midi": 81,
          "time": 88.02189000000037,
          "velocity": 0.8661417322834646,
          "duration": 0.13736249999999472
        },
        {
          "name": "F4",
          "midi": 65,
          "time": 88.18672500000037,
          "velocity": 0.8661417322834646,
          "duration": 0.13736249999999472
        },
        {
          "name": "A4",
          "midi": 69,
          "time": 88.18672500000037,
          "velocity": 0.8661417322834646,
          "duration": 0.13736249999999472
        },
        {
          "name": "D5",
          "midi": 74,
          "time": 88.35156000000036,
          "velocity": 0.8661417322834646,
          "duration": 0.13736249999999472
        },
        {
          "name": "F5",
          "midi": 77,
          "time": 88.35156000000036,
          "velocity": 0.8661417322834646,
          "duration": 0.13736249999999472
        },
        {
          "name": "E5",
          "midi": 76,
          "time": 88.51639500000036,
          "velocity": 0.8661417322834646,
          "duration": 0.06868124999999736
        },
        {
          "name": "F5",
          "midi": 77,
          "time": 88.59881250000035,
          "velocity": 0.8661417322834646,
          "duration": 0.06868124999999736
        },
        {
          "name": "E5",
          "midi": 76,
          "time": 88.68123000000034,
          "velocity": 0.8661417322834646,
          "duration": 0.13736249999999472
        },
        {
          "name": "C5",
          "midi": 72,
          "time": 88.84606500000034,
          "velocity": 0.8661417322834646,
          "duration": 0.13736249999999472
        },
        {
          "name": "G5",
          "midi": 79,
          "time": 88.84606500000034,
          "velocity": 0.8661417322834646,
          "duration": 0.13736249999999472
        },
        {
          "name": "F5",
          "midi": 77,
          "time": 89.01090000000033,
          "velocity": 0.8661417322834646,
          "duration": 0.13736249999999472
        },
        {
          "name": "E5",
          "midi": 76,
          "time": 89.17573500000033,
          "velocity": 0.8661417322834646,
          "duration": 0.06868124999999736
        },
        {
          "name": "F5",
          "midi": 77,
          "time": 89.25815250000032,
          "velocity": 0.8661417322834646,
          "duration": 0.06868124999999736
        },
        {
          "name": "E5",
          "midi": 76,
          "time": 89.34057000000031,
          "velocity": 0.8661417322834646,
          "duration": 0.06868124999999736
        },
        {
          "name": "C5",
          "midi": 72,
          "time": 89.4229875000003,
          "velocity": 0.8661417322834646,
          "duration": 0.06868124999999736
        },
        {
          "name": "D5",
          "midi": 74,
          "time": 89.5054050000003,
          "velocity": 0.8661417322834646,
          "duration": 0.13736249999999472
        },
        {
          "name": "F5",
          "midi": 77,
          "time": 89.67024000000029,
          "velocity": 0.8661417322834646,
          "duration": 0.13736249999999472
        },
        {
          "name": "A5",
          "midi": 81,
          "time": 89.67024000000029,
          "velocity": 0.8661417322834646,
          "duration": 0.13736249999999472
        },
        {
          "name": "G5",
          "midi": 79,
          "time": 89.83507500000029,
          "velocity": 0.8661417322834646,
          "duration": 0.06868124999999736
        },
        {
          "name": "A5",
          "midi": 81,
          "time": 89.91749250000028,
          "velocity": 0.8661417322834646,
          "duration": 0.06868124999999736
        },
        {
          "name": "G5",
          "midi": 79,
          "time": 89.99991000000027,
          "velocity": 0.8661417322834646,
          "duration": 0.06868124999999736
        },
        {
          "name": "A5",
          "midi": 81,
          "time": 90.08232750000026,
          "velocity": 0.8661417322834646,
          "duration": 0.06868124999999736
        },
        {
          "name": "F5",
          "midi": 77,
          "time": 90.16474500000025,
          "velocity": 0.8661417322834646,
          "duration": 0.13736249999999472
        },
        {
          "name": "C#6",
          "midi": 85,
          "time": 90.16474500000025,
          "velocity": 0.8661417322834646,
          "duration": 0.13736249999999472
        },
        {
          "name": "A5",
          "midi": 81,
          "time": 90.32958000000025,
          "velocity": 0.8661417322834646,
          "duration": 0.13736249999999472
        },
        {
          "name": "G5",
          "midi": 79,
          "time": 90.49441500000025,
          "velocity": 0.8661417322834646,
          "duration": 0.13736249999999472
        },
        {
          "name": "A5",
          "midi": 81,
          "time": 90.65925000000024,
          "velocity": 0.8661417322834646,
          "duration": 0.13736249999999472
        },
        {
          "name": "F4",
          "midi": 65,
          "time": 90.82408500000024,
          "velocity": 0.8661417322834646,
          "duration": 0.13736249999999472
        },
        {
          "name": "A4",
          "midi": 69,
          "time": 90.82408500000024,
          "velocity": 0.8661417322834646,
          "duration": 0.13736249999999472
        },
        {
          "name": "D5",
          "midi": 74,
          "time": 90.98892000000023,
          "velocity": 0.8661417322834646,
          "duration": 0.13736249999999472
        },
        {
          "name": "F5",
          "midi": 77,
          "time": 90.98892000000023,
          "velocity": 0.8661417322834646,
          "duration": 0.13736249999999472
        },
        {
          "name": "E5",
          "midi": 76,
          "time": 91.15375500000023,
          "velocity": 0.8661417322834646,
          "duration": 0.06868124999999736
        },
        {
          "name": "F5",
          "midi": 77,
          "time": 91.23617250000022,
          "velocity": 0.8661417322834646,
          "duration": 0.06868124999999736
        },
        {
          "name": "E5",
          "midi": 76,
          "time": 91.31859000000021,
          "velocity": 0.8661417322834646,
          "duration": 0.13736249999999472
        },
        {
          "name": "C5",
          "midi": 72,
          "time": 91.48342500000021,
          "velocity": 0.8661417322834646,
          "duration": 0.13736249999999472
        },
        {
          "name": "G5",
          "midi": 79,
          "time": 91.48342500000021,
          "velocity": 0.8661417322834646,
          "duration": 0.13736249999999472
        },
        {
          "name": "F5",
          "midi": 77,
          "time": 91.6482600000002,
          "velocity": 0.8661417322834646,
          "duration": 0.13736249999999472
        },
        {
          "name": "E5",
          "midi": 76,
          "time": 91.8130950000002,
          "velocity": 0.8661417322834646,
          "duration": 0.06868124999999736
        },
        {
          "name": "F5",
          "midi": 77,
          "time": 91.8955125000002,
          "velocity": 0.8661417322834646,
          "duration": 0.06868124999999736
        },
        {
          "name": "E5",
          "midi": 76,
          "time": 91.97793000000019,
          "velocity": 0.8661417322834646,
          "duration": 0.06868124999999736
        },
        {
          "name": "C5",
          "midi": 72,
          "time": 92.06034750000018,
          "velocity": 0.8661417322834646,
          "duration": 0.06868124999999736
        },
        {
          "name": "D5",
          "midi": 74,
          "time": 92.14276500000017,
          "velocity": 0.8661417322834646,
          "duration": 0.13736249999999472
        },
        {
          "name": "F5",
          "midi": 77,
          "time": 92.30760000000016,
          "velocity": 0.8661417322834646,
          "duration": 0.13736249999999472
        },
        {
          "name": "A5",
          "midi": 81,
          "time": 92.30760000000016,
          "velocity": 0.8661417322834646,
          "duration": 0.13736249999999472
        },
        {
          "name": "G5",
          "midi": 79,
          "time": 92.47243500000016,
          "velocity": 0.8661417322834646,
          "duration": 0.06868124999999736
        },
        {
          "name": "A5",
          "midi": 81,
          "time": 92.55485250000015,
          "velocity": 0.8661417322834646,
          "duration": 0.06868124999999736
        },
        {
          "name": "G5",
          "midi": 79,
          "time": 92.63727000000014,
          "velocity": 0.8661417322834646,
          "duration": 0.06868124999999736
        },
        {
          "name": "A5",
          "midi": 81,
          "time": 92.71968750000013,
          "velocity": 0.8661417322834646,
          "duration": 0.06868124999999736
        },
        {
          "name": "F5",
          "midi": 77,
          "time": 92.80210500000013,
          "velocity": 0.8661417322834646,
          "duration": 0.13736249999999472
        },
        {
          "name": "C6",
          "midi": 84,
          "time": 92.80210500000013,
          "velocity": 0.8661417322834646,
          "duration": 0.13736249999999472
        },
        {
          "name": "A5",
          "midi": 81,
          "time": 92.96694000000012,
          "velocity": 0.8661417322834646,
          "duration": 0.13736249999999472
        },
        {
          "name": "F5",
          "midi": 77,
          "time": 93.13177500000012,
          "velocity": 0.8661417322834646,
          "duration": 0.13736249999999472
        },
        {
          "name": "F#5",
          "midi": 78,
          "time": 93.29661000000011,
          "velocity": 0.8661417322834646,
          "duration": 0.13736249999999472
        },
        {
          "name": "G4",
          "midi": 67,
          "time": 93.46144500000011,
          "velocity": 0.8661417322834646,
          "duration": 0.13736249999999472
        },
        {
          "name": "D5",
          "midi": 74,
          "time": 93.46144500000011,
          "velocity": 0.8661417322834646,
          "duration": 0.13736249999999472
        },
        {
          "name": "G5",
          "midi": 79,
          "time": 93.46144500000011,
          "velocity": 0.8661417322834646,
          "duration": 0.13736249999999472
        },
        {
          "name": "A#4",
          "midi": 70,
          "time": 93.62628000000011,
          "velocity": 0.8661417322834646,
          "duration": 0.06868124999999736
        },
        {
          "name": "D5",
          "midi": 74,
          "time": 93.7086975000001,
          "velocity": 0.8661417322834646,
          "duration": 0.06868124999999736
        },
        {
          "name": "A#4",
          "midi": 70,
          "time": 93.79111500000009,
          "velocity": 0.8661417322834646,
          "duration": 0.13736249999999472
        },
        {
          "name": "D5",
          "midi": 74,
          "time": 93.95595000000009,
          "velocity": 0.8661417322834646,
          "duration": 0.13736249999999472
        },
        {
          "name": "G5",
          "midi": 79,
          "time": 93.95595000000009,
          "velocity": 0.8661417322834646,
          "duration": 0.13736249999999472
        },
        {
          "name": "E5",
          "midi": 76,
          "time": 94.12078500000008,
          "velocity": 0.8661417322834646,
          "duration": 0.13736249999999472
        },
        {
          "name": "A5",
          "midi": 81,
          "time": 94.12078500000008,
          "velocity": 0.8661417322834646,
          "duration": 0.13736249999999472
        },
        {
          "name": "A4",
          "midi": 69,
          "time": 94.28562000000008,
          "velocity": 0.8661417322834646,
          "duration": 0.06868124999999736
        },
        {
          "name": "E5",
          "midi": 76,
          "time": 94.36803750000007,
          "velocity": 0.8661417322834646,
          "duration": 0.06868124999999736
        },
        {
          "name": "A5",
          "midi": 81,
          "time": 94.36803750000007,
          "velocity": 0.8661417322834646,
          "duration": 0.06868124999999736
        },
        {
          "name": "A4",
          "midi": 69,
          "time": 94.45045500000006,
          "velocity": 0.8661417322834646,
          "duration": 0.13736249999999472
        },
        {
          "name": "E5",
          "midi": 76,
          "time": 94.61529000000006,
          "velocity": 0.8661417322834646,
          "duration": 0.13736249999999472
        },
        {
          "name": "A5",
          "midi": 81,
          "time": 94.61529000000006,
          "velocity": 0.8661417322834646,
          "duration": 0.13736249999999472
        },
        {
          "name": "F5",
          "midi": 77,
          "time": 94.78012500000006,
          "velocity": 0.8661417322834646,
          "duration": 0.13736249999999472
        },
        {
          "name": "A#5",
          "midi": 82,
          "time": 94.78012500000006,
          "velocity": 0.8661417322834646,
          "duration": 0.13736249999999472
        },
        {
          "name": "D5",
          "midi": 74,
          "time": 94.94496000000005,
          "velocity": 0.8661417322834646,
          "duration": 0.13736249999999472
        },
        {
          "name": "F5",
          "midi": 77,
          "time": 95.10979500000005,
          "velocity": 0.8661417322834646,
          "duration": 0.13736249999999472
        },
        {
          "name": "B5",
          "midi": 83,
          "time": 95.10979500000005,
          "velocity": 0.8661417322834646,
          "duration": 0.13736249999999472
        },
        {
          "name": "D5",
          "midi": 74,
          "time": 95.27463000000004,
          "velocity": 0.8661417322834646,
          "duration": 0.13736249999999472
        },
        {
          "name": "E5",
          "midi": 76,
          "time": 95.43946500000004,
          "velocity": 0.8661417322834646,
          "duration": 0.5494499999999931
        },
        {
          "name": "G5",
          "midi": 79,
          "time": 95.43946500000004,
          "velocity": 0.8661417322834646,
          "duration": 0.5494499999999931
        },
        {
          "name": "C6",
          "midi": 84,
          "time": 95.43946500000004,
          "velocity": 0.8661417322834646,
          "duration": 0.5494499999999931
        },
        {
          "name": "F4",
          "midi": 65,
          "time": 96.09880500000003,
          "velocity": 0.8661417322834646,
          "duration": 0.13736249999999472
        },
        {
          "name": "A4",
          "midi": 69,
          "time": 96.09880500000003,
          "velocity": 0.8661417322834646,
          "duration": 0.13736249999999472
        },
        {
          "name": "D5",
          "midi": 74,
          "time": 96.26364000000002,
          "velocity": 0.8661417322834646,
          "duration": 0.13736249999999472
        },
        {
          "name": "F5",
          "midi": 77,
          "time": 96.26364000000002,
          "velocity": 0.8661417322834646,
          "duration": 0.13736249999999472
        },
        {
          "name": "E5",
          "midi": 76,
          "time": 96.42847500000002,
          "velocity": 0.8661417322834646,
          "duration": 0.06868124999999736
        },
        {
          "name": "F5",
          "midi": 77,
          "time": 96.51089250000001,
          "velocity": 0.8661417322834646,
          "duration": 0.06868124999999736
        },
        {
          "name": "E5",
          "midi": 76,
          "time": 96.59331,
          "velocity": 0.8661417322834646,
          "duration": 0.13736249999999472
        },
        {
          "name": "C5",
          "midi": 72,
          "time": 96.758145,
          "velocity": 0.8661417322834646,
          "duration": 0.13736249999999472
        },
        {
          "name": "G5",
          "midi": 79,
          "time": 96.758145,
          "velocity": 0.8661417322834646,
          "duration": 0.13736249999999472
        },
        {
          "name": "F5",
          "midi": 77,
          "time": 96.92298,
          "velocity": 0.8661417322834646,
          "duration": 0.13736249999999472
        },
        {
          "name": "E5",
          "midi": 76,
          "time": 97.08781499999999,
          "velocity": 0.8661417322834646,
          "duration": 0.06868124999999736
        },
        {
          "name": "F5",
          "midi": 77,
          "time": 97.17023249999998,
          "velocity": 0.8661417322834646,
          "duration": 0.06868124999999736
        },
        {
          "name": "E5",
          "midi": 76,
          "time": 97.25264999999997,
          "velocity": 0.8661417322834646,
          "duration": 0.06868124999999736
        },
        {
          "name": "C5",
          "midi": 72,
          "time": 97.33506749999997,
          "velocity": 0.8661417322834646,
          "duration": 0.06868124999999736
        },
        {
          "name": "D5",
          "midi": 74,
          "time": 97.41748499999996,
          "velocity": 0.8661417322834646,
          "duration": 0.13736249999999472
        },
        {
          "name": "F5",
          "midi": 77,
          "time": 97.58231999999995,
          "velocity": 0.8661417322834646,
          "duration": 0.13736249999999472
        },
        {
          "name": "A5",
          "midi": 81,
          "time": 97.58231999999995,
          "velocity": 0.8661417322834646,
          "duration": 0.13736249999999472
        },
        {
          "name": "G5",
          "midi": 79,
          "time": 97.74715499999995,
          "velocity": 0.8661417322834646,
          "duration": 0.06868124999999736
        },
        {
          "name": "A5",
          "midi": 81,
          "time": 97.82957249999994,
          "velocity": 0.8661417322834646,
          "duration": 0.06868124999999736
        },
        {
          "name": "G5",
          "midi": 79,
          "time": 97.91198999999993,
          "velocity": 0.8661417322834646,
          "duration": 0.06868124999999736
        },
        {
          "name": "A5",
          "midi": 81,
          "time": 97.99440749999992,
          "velocity": 0.8661417322834646,
          "duration": 0.06868124999999736
        },
        {
          "name": "F5",
          "midi": 77,
          "time": 98.07682499999991,
          "velocity": 0.8661417322834646,
          "duration": 0.13736249999999472
        },
        {
          "name": "C6",
          "midi": 84,
          "time": 98.07682499999991,
          "velocity": 0.8661417322834646,
          "duration": 0.13736249999999472
        },
        {
          "name": "A5",
          "midi": 81,
          "time": 98.24165999999991,
          "velocity": 0.8661417322834646,
          "duration": 0.13736249999999472
        },
        {
          "name": "G5",
          "midi": 79,
          "time": 98.40649499999991,
          "velocity": 0.8661417322834646,
          "duration": 0.13736249999999472
        },
        {
          "name": "A5",
          "midi": 81,
          "time": 98.5713299999999,
          "velocity": 0.8661417322834646,
          "duration": 0.13736249999999472
        },
        {
          "name": "F4",
          "midi": 65,
          "time": 98.7361649999999,
          "velocity": 0.8661417322834646,
          "duration": 0.13736249999999472
        },
        {
          "name": "A4",
          "midi": 69,
          "time": 98.7361649999999,
          "velocity": 0.8661417322834646,
          "duration": 0.13736249999999472
        },
        {
          "name": "D5",
          "midi": 74,
          "time": 98.9009999999999,
          "velocity": 0.8661417322834646,
          "duration": 0.13736249999999472
        },
        {
          "name": "F5",
          "midi": 77,
          "time": 98.9009999999999,
          "velocity": 0.8661417322834646,
          "duration": 0.13736249999999472
        },
        {
          "name": "E5",
          "midi": 76,
          "time": 99.0658349999999,
          "velocity": 0.8661417322834646,
          "duration": 0.06868124999999736
        },
        {
          "name": "F5",
          "midi": 77,
          "time": 99.14825249999988,
          "velocity": 0.8661417322834646,
          "duration": 0.06868124999999736
        },
        {
          "name": "E5",
          "midi": 76,
          "time": 99.23066999999988,
          "velocity": 0.8661417322834646,
          "duration": 0.13736249999999472
        },
        {
          "name": "C5",
          "midi": 72,
          "time": 99.39550499999987,
          "velocity": 0.8661417322834646,
          "duration": 0.13736249999999472
        },
        {
          "name": "G5",
          "midi": 79,
          "time": 99.39550499999987,
          "velocity": 0.8661417322834646,
          "duration": 0.13736249999999472
        },
        {
          "name": "F5",
          "midi": 77,
          "time": 99.56033999999987,
          "velocity": 0.8661417322834646,
          "duration": 0.13736249999999472
        },
        {
          "name": "E5",
          "midi": 76,
          "time": 99.72517499999987,
          "velocity": 0.8661417322834646,
          "duration": 0.06868124999999736
        },
        {
          "name": "F5",
          "midi": 77,
          "time": 99.80759249999986,
          "velocity": 0.8661417322834646,
          "duration": 0.06868124999999736
        },
        {
          "name": "E5",
          "midi": 76,
          "time": 99.89000999999985,
          "velocity": 0.8661417322834646,
          "duration": 0.06868124999999736
        },
        {
          "name": "C5",
          "midi": 72,
          "time": 99.97242749999984,
          "velocity": 0.8661417322834646,
          "duration": 0.06868124999999736
        },
        {
          "name": "D5",
          "midi": 74,
          "time": 100.05484499999983,
          "velocity": 0.8661417322834646,
          "duration": 0.13736249999999472
        },
        {
          "name": "F5",
          "midi": 77,
          "time": 100.21967999999983,
          "velocity": 0.8661417322834646,
          "duration": 0.13736249999999472
        },
        {
          "name": "A5",
          "midi": 81,
          "time": 100.21967999999983,
          "velocity": 0.8661417322834646,
          "duration": 0.13736249999999472
        },
        {
          "name": "G5",
          "midi": 79,
          "time": 100.38451499999982,
          "velocity": 0.8661417322834646,
          "duration": 0.06868124999999736
        },
        {
          "name": "A5",
          "midi": 81,
          "time": 100.46693249999981,
          "velocity": 0.8661417322834646,
          "duration": 0.06868124999999736
        },
        {
          "name": "G5",
          "midi": 79,
          "time": 100.5493499999998,
          "velocity": 0.8661417322834646,
          "duration": 0.06868124999999736
        },
        {
          "name": "A5",
          "midi": 81,
          "time": 100.6317674999998,
          "velocity": 0.8661417322834646,
          "duration": 0.06868124999999736
        },
        {
          "name": "F5",
          "midi": 77,
          "time": 100.71418499999979,
          "velocity": 0.8661417322834646,
          "duration": 0.13736249999999472
        },
        {
          "name": "C#6",
          "midi": 85,
          "time": 100.71418499999979,
          "velocity": 0.8661417322834646,
          "duration": 0.13736249999999472
        },
        {
          "name": "A5",
          "midi": 81,
          "time": 100.87901999999978,
          "velocity": 0.8661417322834646,
          "duration": 0.13736249999999472
        },
        {
          "name": "G5",
          "midi": 79,
          "time": 101.04385499999978,
          "velocity": 0.8661417322834646,
          "duration": 0.13736249999999472
        },
        {
          "name": "A5",
          "midi": 81,
          "time": 101.20868999999978,
          "velocity": 0.8661417322834646,
          "duration": 0.13736249999999472
        },
        {
          "name": "F4",
          "midi": 65,
          "time": 101.37352499999977,
          "velocity": 0.8661417322834646,
          "duration": 0.13736249999999472
        },
        {
          "name": "A4",
          "midi": 69,
          "time": 101.37352499999977,
          "velocity": 0.8661417322834646,
          "duration": 0.13736249999999472
        },
        {
          "name": "D5",
          "midi": 74,
          "time": 101.53835999999977,
          "velocity": 0.8661417322834646,
          "duration": 0.13736249999999472
        },
        {
          "name": "F5",
          "midi": 77,
          "time": 101.53835999999977,
          "velocity": 0.8661417322834646,
          "duration": 0.13736249999999472
        },
        {
          "name": "E5",
          "midi": 76,
          "time": 101.70319499999977,
          "velocity": 0.8661417322834646,
          "duration": 0.06868124999999736
        },
        {
          "name": "F5",
          "midi": 77,
          "time": 101.78561249999976,
          "velocity": 0.8661417322834646,
          "duration": 0.06868124999999736
        },
        {
          "name": "E5",
          "midi": 76,
          "time": 101.86802999999975,
          "velocity": 0.8661417322834646,
          "duration": 0.13736249999999472
        },
        {
          "name": "C5",
          "midi": 72,
          "time": 102.03286499999975,
          "velocity": 0.8661417322834646,
          "duration": 0.13736249999999472
        },
        {
          "name": "G5",
          "midi": 79,
          "time": 102.03286499999975,
          "velocity": 0.8661417322834646,
          "duration": 0.13736249999999472
        },
        {
          "name": "F5",
          "midi": 77,
          "time": 102.19769999999974,
          "velocity": 0.8661417322834646,
          "duration": 0.13736249999999472
        },
        {
          "name": "E5",
          "midi": 76,
          "time": 102.36253499999974,
          "velocity": 0.8661417322834646,
          "duration": 0.06868124999999736
        },
        {
          "name": "F5",
          "midi": 77,
          "time": 102.44495249999973,
          "velocity": 0.8661417322834646,
          "duration": 0.06868124999999736
        },
        {
          "name": "E5",
          "midi": 76,
          "time": 102.52736999999972,
          "velocity": 0.8661417322834646,
          "duration": 0.06868124999999736
        },
        {
          "name": "C5",
          "midi": 72,
          "time": 102.60978749999971,
          "velocity": 0.8661417322834646,
          "duration": 0.06868124999999736
        },
        {
          "name": "D5",
          "midi": 74,
          "time": 102.6922049999997,
          "velocity": 0.8661417322834646,
          "duration": 0.13736249999999472
        },
        {
          "name": "F5",
          "midi": 77,
          "time": 102.8570399999997,
          "velocity": 0.8661417322834646,
          "duration": 0.13736249999999472
        },
        {
          "name": "A5",
          "midi": 81,
          "time": 102.8570399999997,
          "velocity": 0.8661417322834646,
          "duration": 0.13736249999999472
        },
        {
          "name": "G5",
          "midi": 79,
          "time": 103.0218749999997,
          "velocity": 0.8661417322834646,
          "duration": 0.06868124999999736
        },
        {
          "name": "A5",
          "midi": 81,
          "time": 103.10429249999969,
          "velocity": 0.8661417322834646,
          "duration": 0.06868124999999736
        },
        {
          "name": "G5",
          "midi": 79,
          "time": 103.18670999999968,
          "velocity": 0.8661417322834646,
          "duration": 0.06868124999999736
        },
        {
          "name": "A5",
          "midi": 81,
          "time": 103.26912749999967,
          "velocity": 0.8661417322834646,
          "duration": 0.06868124999999736
        },
        {
          "name": "F5",
          "midi": 77,
          "time": 103.35154499999966,
          "velocity": 0.8661417322834646,
          "duration": 0.13736249999999472
        },
        {
          "name": "C6",
          "midi": 84,
          "time": 103.35154499999966,
          "velocity": 0.8661417322834646,
          "duration": 0.13736249999999472
        },
        {
          "name": "A5",
          "midi": 81,
          "time": 103.51637999999966,
          "velocity": 0.8661417322834646,
          "duration": 0.13736249999999472
        },
        {
          "name": "F5",
          "midi": 77,
          "time": 103.68121499999965,
          "velocity": 0.8661417322834646,
          "duration": 0.13736249999999472
        },
        {
          "name": "F#5",
          "midi": 78,
          "time": 103.84604999999965,
          "velocity": 0.8661417322834646,
          "duration": 0.13736249999999472
        },
        {
          "name": "G4",
          "midi": 67,
          "time": 104.01088499999965,
          "velocity": 0.8661417322834646,
          "duration": 0.13736249999999472
        },
        {
          "name": "D5",
          "midi": 74,
          "time": 104.01088499999965,
          "velocity": 0.8661417322834646,
          "duration": 0.13736249999999472
        },
        {
          "name": "G5",
          "midi": 79,
          "time": 104.01088499999965,
          "velocity": 0.8661417322834646,
          "duration": 0.13736249999999472
        },
        {
          "name": "A#4",
          "midi": 70,
          "time": 104.17571999999964,
          "velocity": 0.8661417322834646,
          "duration": 0.06868124999999736
        },
        {
          "name": "D5",
          "midi": 74,
          "time": 104.25813749999963,
          "velocity": 0.8661417322834646,
          "duration": 0.06868124999999736
        },
        {
          "name": "A#4",
          "midi": 70,
          "time": 104.34055499999963,
          "velocity": 0.8661417322834646,
          "duration": 0.13736249999999472
        },
        {
          "name": "D5",
          "midi": 74,
          "time": 104.50538999999962,
          "velocity": 0.8661417322834646,
          "duration": 0.13736249999999472
        },
        {
          "name": "G5",
          "midi": 79,
          "time": 104.50538999999962,
          "velocity": 0.8661417322834646,
          "duration": 0.13736249999999472
        },
        {
          "name": "C5",
          "midi": 72,
          "time": 104.67022499999962,
          "velocity": 0.8661417322834646,
          "duration": 0.13736249999999472
        },
        {
          "name": "E5",
          "midi": 76,
          "time": 104.67022499999962,
          "velocity": 0.8661417322834646,
          "duration": 0.13736249999999472
        },
        {
          "name": "A5",
          "midi": 81,
          "time": 104.67022499999962,
          "velocity": 0.8661417322834646,
          "duration": 0.13736249999999472
        },
        {
          "name": "G5",
          "midi": 79,
          "time": 104.83505999999961,
          "velocity": 0.8661417322834646,
          "duration": 0.13736249999999472
        },
        {
          "name": "F5",
          "midi": 77,
          "time": 104.99989499999961,
          "velocity": 0.8661417322834646,
          "duration": 0.13736249999999472
        },
        {
          "name": "E5",
          "midi": 76,
          "time": 105.16472999999961,
          "velocity": 0.8661417322834646,
          "duration": 0.13736249999999472
        },
        {
          "name": "F4",
          "midi": 65,
          "time": 105.3295649999996,
          "velocity": 0.8661417322834646,
          "duration": 1.0989000000000004
        },
        {
          "name": "A4",
          "midi": 69,
          "time": 105.3295649999996,
          "velocity": 0.8661417322834646,
          "duration": 1.0989000000000004
        },
        {
          "name": "D5",
          "midi": 74,
          "time": 105.3295649999996,
          "velocity": 0.8661417322834646,
          "duration": 1.0989000000000004
        },
        {
          "name": "D3",
          "midi": 50,
          "time": 106.6482449999996,
          "velocity": 0.8661417322834646,
          "duration": 0.054945000000003574
        },
        {
          "name": "A3",
          "midi": 57,
          "time": 106.8130799999996,
          "velocity": 0.8661417322834646,
          "duration": 0.054945000000003574
        },
        {
          "name": "G3",
          "midi": 55,
          "time": 106.9779149999996,
          "velocity": 0.8661417322834646,
          "duration": 0.06868124999999736
        },
        {
          "name": "A3",
          "midi": 57,
          "time": 107.06033249999959,
          "velocity": 0.8661417322834646,
          "duration": 0.054945000000003574
        },
        {
          "name": "E3",
          "midi": 52,
          "time": 107.22516749999959,
          "velocity": 0.8661417322834646,
          "duration": 0.054945000000003574
        },
        {
          "name": "F3",
          "midi": 53,
          "time": 107.39000249999958,
          "velocity": 0.8661417322834646,
          "duration": 0.054945000000003574
        },
        {
          "name": "A3",
          "midi": 57,
          "time": 107.55483749999958,
          "velocity": 0.8661417322834646,
          "duration": 0.06868124999999736
        },
        {
          "name": "G3",
          "midi": 55,
          "time": 107.63725499999957,
          "velocity": 0.8661417322834646,
          "duration": 0.06868124999999736
        },
        {
          "name": "F3",
          "midi": 53,
          "time": 107.71967249999956,
          "velocity": 0.8661417322834646,
          "duration": 0.06868124999999736
        },
        {
          "name": "E3",
          "midi": 52,
          "time": 107.80208999999955,
          "velocity": 0.8661417322834646,
          "duration": 0.06868124999999736
        },
        {
          "name": "D3",
          "midi": 50,
          "time": 107.88450749999954,
          "velocity": 0.8661417322834646,
          "duration": 0.11675812500000404
        },
        {
          "name": "A3",
          "midi": 57,
          "time": 108.13175999999955,
          "velocity": 0.8661417322834646,
          "duration": 0.054945000000003574
        },
        {
          "name": "G3",
          "midi": 55,
          "time": 108.29659499999954,
          "velocity": 0.8661417322834646,
          "duration": 0.06868124999999736
        },
        {
          "name": "A3",
          "midi": 57,
          "time": 108.37901249999953,
          "velocity": 0.8661417322834646,
          "duration": 0.054945000000003574
        },
        {
          "name": "E3",
          "midi": 52,
          "time": 108.54384749999953,
          "velocity": 0.8661417322834646,
          "duration": 0.054945000000003574
        },
        {
          "name": "F3",
          "midi": 53,
          "time": 108.70868249999953,
          "velocity": 0.8661417322834646,
          "duration": 0.054945000000003574
        },
        {
          "name": "A3",
          "midi": 57,
          "time": 108.87351749999952,
          "velocity": 0.8661417322834646,
          "duration": 0.027472500000001787
        },
        {
          "name": "C3",
          "midi": 48,
          "time": 108.95593499999953,
          "velocity": 0.8661417322834646,
          "duration": 0.054945000000003574
        },
        {
          "name": "C#3",
          "midi": 49,
          "time": 109.12076999999952,
          "velocity": 0.8661417322834646,
          "duration": 0.054945000000003574
        },
        {
          "name": "D3",
          "midi": 50,
          "time": 109.28560499999952,
          "velocity": 0.8661417322834646,
          "duration": 0.054945000000003574
        },
        {
          "name": "A3",
          "midi": 57,
          "time": 109.45043999999952,
          "velocity": 0.8661417322834646,
          "duration": 0.054945000000003574
        },
        {
          "name": "G3",
          "midi": 55,
          "time": 109.61527499999951,
          "velocity": 0.8661417322834646,
          "duration": 0.06868124999999736
        },
        {
          "name": "A3",
          "midi": 57,
          "time": 109.6976924999995,
          "velocity": 0.8661417322834646,
          "duration": 0.054945000000003574
        },
        {
          "name": "E3",
          "midi": 52,
          "time": 109.8625274999995,
          "velocity": 0.8661417322834646,
          "duration": 0.054945000000003574
        },
        {
          "name": "F3",
          "midi": 53,
          "time": 110.0273624999995,
          "velocity": 0.8661417322834646,
          "duration": 0.054945000000003574
        },
        {
          "name": "A3",
          "midi": 57,
          "time": 110.1921974999995,
          "velocity": 0.8661417322834646,
          "duration": 0.06868124999999736
        },
        {
          "name": "G3",
          "midi": 55,
          "time": 110.27461499999949,
          "velocity": 0.8661417322834646,
          "duration": 0.06868124999999736
        },
        {
          "name": "F3",
          "midi": 53,
          "time": 110.35703249999948,
          "velocity": 0.8661417322834646,
          "duration": 0.06868124999999736
        },
        {
          "name": "E3",
          "midi": 52,
          "time": 110.43944999999947,
          "velocity": 0.8661417322834646,
          "duration": 0.06868124999999736
        },
        {
          "name": "D3",
          "midi": 50,
          "time": 110.52186749999946,
          "velocity": 0.8661417322834646,
          "duration": 0.11675812500000404
        },
        {
          "name": "A3",
          "midi": 57,
          "time": 110.76911999999946,
          "velocity": 0.8661417322834646,
          "duration": 0.054945000000003574
        },
        {
          "name": "G3",
          "midi": 55,
          "time": 110.93395499999946,
          "velocity": 0.8661417322834646,
          "duration": 0.06868124999999736
        },
        {
          "name": "A3",
          "midi": 57,
          "time": 111.01637249999945,
          "velocity": 0.8661417322834646,
          "duration": 0.054945000000003574
        },
        {
          "name": "E3",
          "midi": 52,
          "time": 111.18120749999945,
          "velocity": 0.8661417322834646,
          "duration": 0.054945000000003574
        },
        {
          "name": "F3",
          "midi": 53,
          "time": 111.34604249999944,
          "velocity": 0.8661417322834646,
          "duration": 0.054945000000003574
        },
        {
          "name": "A3",
          "midi": 57,
          "time": 111.51087749999944,
          "velocity": 0.8661417322834646,
          "duration": 0.027472500000001787
        },
        {
          "name": "C3",
          "midi": 48,
          "time": 111.59329499999944,
          "velocity": 0.8661417322834646,
          "duration": 0.054945000000003574
        },
        {
          "name": "C#3",
          "midi": 49,
          "time": 111.75812999999944,
          "velocity": 0.8661417322834646,
          "duration": 0.054945000000003574
        },
        {
          "name": "D3",
          "midi": 50,
          "time": 111.92296499999944,
          "velocity": 0.8661417322834646,
          "duration": 0.054945000000003574
        },
        {
          "name": "A3",
          "midi": 57,
          "time": 112.08779999999943,
          "velocity": 0.8661417322834646,
          "duration": 0.054945000000003574
        },
        {
          "name": "G3",
          "midi": 55,
          "time": 112.25263499999943,
          "velocity": 0.8661417322834646,
          "duration": 0.06868124999999736
        },
        {
          "name": "A3",
          "midi": 57,
          "time": 112.33505249999942,
          "velocity": 0.8661417322834646,
          "duration": 0.054945000000003574
        },
        {
          "name": "E3",
          "midi": 52,
          "time": 112.49988749999942,
          "velocity": 0.8661417322834646,
          "duration": 0.054945000000003574
        },
        {
          "name": "F3",
          "midi": 53,
          "time": 112.66472249999941,
          "velocity": 0.8661417322834646,
          "duration": 0.054945000000003574
        },
        {
          "name": "A3",
          "midi": 57,
          "time": 112.82955749999941,
          "velocity": 0.8661417322834646,
          "duration": 0.06868124999999736
        },
        {
          "name": "G3",
          "midi": 55,
          "time": 112.9119749999994,
          "velocity": 0.8661417322834646,
          "duration": 0.06868124999999736
        },
        {
          "name": "F3",
          "midi": 53,
          "time": 112.99439249999939,
          "velocity": 0.8661417322834646,
          "duration": 0.06868124999999736
        },
        {
          "name": "E3",
          "midi": 52,
          "time": 113.07680999999938,
          "velocity": 0.8661417322834646,
          "duration": 0.06868124999999736
        },
        {
          "name": "D3",
          "midi": 50,
          "time": 113.15922749999937,
          "velocity": 0.8661417322834646,
          "duration": 0.11675812500000404
        },
        {
          "name": "A3",
          "midi": 57,
          "time": 113.40647999999938,
          "velocity": 0.8661417322834646,
          "duration": 0.054945000000003574
        },
        {
          "name": "G3",
          "midi": 55,
          "time": 113.57131499999937,
          "velocity": 0.8661417322834646,
          "duration": 0.06868124999999736
        },
        {
          "name": "A3",
          "midi": 57,
          "time": 113.65373249999936,
          "velocity": 0.8661417322834646,
          "duration": 0.054945000000003574
        },
        {
          "name": "E3",
          "midi": 52,
          "time": 113.81856749999936,
          "velocity": 0.8661417322834646,
          "duration": 0.054945000000003574
        },
        {
          "name": "F3",
          "midi": 53,
          "time": 113.98340249999936,
          "velocity": 0.8661417322834646,
          "duration": 0.054945000000003574
        },
        {
          "name": "A3",
          "midi": 57,
          "time": 114.14823749999935,
          "velocity": 0.8661417322834646,
          "duration": 0.027472500000001787
        },
        {
          "name": "C3",
          "midi": 48,
          "time": 114.23065499999936,
          "velocity": 0.8661417322834646,
          "duration": 0.054945000000003574
        },
        {
          "name": "C#3",
          "midi": 49,
          "time": 114.39548999999936,
          "velocity": 0.8661417322834646,
          "duration": 0.054945000000003574
        },
        {
          "name": "D3",
          "midi": 50,
          "time": 114.56032499999935,
          "velocity": 0.8661417322834646,
          "duration": 0.054945000000003574
        },
        {
          "name": "A3",
          "midi": 57,
          "time": 114.72515999999935,
          "velocity": 0.8661417322834646,
          "duration": 0.054945000000003574
        },
        {
          "name": "G3",
          "midi": 55,
          "time": 114.88999499999935,
          "velocity": 0.8661417322834646,
          "duration": 0.06868124999999736
        },
        {
          "name": "A3",
          "midi": 57,
          "time": 114.97241249999934,
          "velocity": 0.8661417322834646,
          "duration": 0.054945000000003574
        },
        {
          "name": "E3",
          "midi": 52,
          "time": 115.13724749999933,
          "velocity": 0.8661417322834646,
          "duration": 0.054945000000003574
        },
        {
          "name": "F3",
          "midi": 53,
          "time": 115.30208249999933,
          "velocity": 0.8661417322834646,
          "duration": 0.054945000000003574
        },
        {
          "name": "A3",
          "midi": 57,
          "time": 115.46691749999933,
          "velocity": 0.8661417322834646,
          "duration": 0.06868124999999736
        },
        {
          "name": "G3",
          "midi": 55,
          "time": 115.54933499999932,
          "velocity": 0.8661417322834646,
          "duration": 0.06868124999999736
        },
        {
          "name": "F3",
          "midi": 53,
          "time": 115.63175249999931,
          "velocity": 0.8661417322834646,
          "duration": 0.06868124999999736
        },
        {
          "name": "E3",
          "midi": 52,
          "time": 115.7141699999993,
          "velocity": 0.8661417322834646,
          "duration": 0.06868124999999736
        },
        {
          "name": "D3",
          "midi": 50,
          "time": 115.79658749999929,
          "velocity": 0.8661417322834646,
          "duration": 0.15109875000000272
        },
        {
          "name": "A3",
          "midi": 57,
          "time": 116.04383999999929,
          "velocity": 0.8661417322834646,
          "duration": 0.054945000000003574
        },
        {
          "name": "G3",
          "midi": 55,
          "time": 116.20867499999929,
          "velocity": 0.8661417322834646,
          "duration": 0.06868124999999736
        },
        {
          "name": "A3",
          "midi": 57,
          "time": 116.29109249999928,
          "velocity": 0.8661417322834646,
          "duration": 0.054945000000003574
        },
        {
          "name": "C4",
          "midi": 60,
          "time": 116.45592749999928,
          "velocity": 0.8661417322834646,
          "duration": 0.054945000000003574
        },
        {
          "name": "C4",
          "midi": 60,
          "time": 116.62076249999927,
          "velocity": 0.8661417322834646,
          "duration": 0.06868124999999736
        },
        {
          "name": "A3",
          "midi": 57,
          "time": 116.70317999999926,
          "velocity": 0.8661417322834646,
          "duration": 0.13736249999999472
        },
        {
          "name": "C4",
          "midi": 60,
          "time": 116.86801499999926,
          "velocity": 0.8661417322834646,
          "duration": 0.13736249999999472
        },
        {
          "name": "E4",
          "midi": 64,
          "time": 116.86801499999926,
          "velocity": 0.8661417322834646,
          "duration": 0.13736249999999472
        },
        {
          "name": "C4",
          "midi": 60,
          "time": 117.03284999999926,
          "velocity": 0.8661417322834646,
          "duration": 0.06868124999999736
        },
        {
          "name": "C#4",
          "midi": 61,
          "time": 117.11526749999925,
          "velocity": 0.8661417322834646,
          "duration": 0.06868124999999736
        },
        {
          "name": "A3",
          "midi": 57,
          "time": 117.19768499999924,
          "velocity": 0.8661417322834646,
          "duration": 0.054945000000003574
        },
        {
          "name": "D4",
          "midi": 62,
          "time": 117.19768499999924,
          "velocity": 0.8661417322834646,
          "duration": 0.054945000000003574
        },
        {
          "name": "F4",
          "midi": 65,
          "time": 117.36251999999924,
          "velocity": 0.8661417322834646,
          "duration": 0.054945000000003574
        },
        {
          "name": "A4",
          "midi": 69,
          "time": 117.36251999999924,
          "velocity": 0.8661417322834646,
          "duration": 0.054945000000003574
        },
        {
          "name": "G4",
          "midi": 67,
          "time": 117.52735499999923,
          "velocity": 0.8661417322834646,
          "duration": 0.06868124999999736
        },
        {
          "name": "A4",
          "midi": 69,
          "time": 117.60977249999922,
          "velocity": 0.8661417322834646,
          "duration": 0.054945000000003574
        },
        {
          "name": "C4",
          "midi": 60,
          "time": 117.77460749999922,
          "velocity": 0.8661417322834646,
          "duration": 0.054945000000003574
        },
        {
          "name": "E4",
          "midi": 64,
          "time": 117.77460749999922,
          "velocity": 0.8661417322834646,
          "duration": 0.054945000000003574
        },
        {
          "name": "D4",
          "midi": 62,
          "time": 117.93944249999922,
          "velocity": 0.8661417322834646,
          "duration": 0.054945000000003574
        },
        {
          "name": "F4",
          "midi": 65,
          "time": 117.93944249999922,
          "velocity": 0.8661417322834646,
          "duration": 0.054945000000003574
        },
        {
          "name": "A4",
          "midi": 69,
          "time": 118.10427749999921,
          "velocity": 0.8661417322834646,
          "duration": 0.06868124999999736
        },
        {
          "name": "G4",
          "midi": 67,
          "time": 118.1866949999992,
          "velocity": 0.8661417322834646,
          "duration": 0.06868124999999736
        },
        {
          "name": "F4",
          "midi": 65,
          "time": 118.2691124999992,
          "velocity": 0.8661417322834646,
          "duration": 0.06868124999999736
        },
        {
          "name": "E4",
          "midi": 64,
          "time": 118.35152999999919,
          "velocity": 0.8661417322834646,
          "duration": 0.06868124999999736
        },
        {
          "name": "D4",
          "midi": 62,
          "time": 118.43394749999918,
          "velocity": 0.8661417322834646,
          "duration": 0.11675812500000404
        },
        {
          "name": "F4",
          "midi": 65,
          "time": 118.68119999999918,
          "velocity": 0.8661417322834646,
          "duration": 0.054945000000003574
        },
        {
          "name": "A4",
          "midi": 69,
          "time": 118.68119999999918,
          "velocity": 0.8661417322834646,
          "duration": 0.054945000000003574
        },
        {
          "name": "G4",
          "midi": 67,
          "time": 118.84603499999918,
          "velocity": 0.8661417322834646,
          "duration": 0.06868124999999736
        },
        {
          "name": "A4",
          "midi": 69,
          "time": 118.92845249999917,
          "velocity": 0.8661417322834646,
          "duration": 0.054945000000003574
        },
        {
          "name": "C4",
          "midi": 60,
          "time": 119.09328749999916,
          "velocity": 0.8661417322834646,
          "duration": 0.13736249999999472
        },
        {
          "name": "E4",
          "midi": 64,
          "time": 119.09328749999916,
          "velocity": 0.8661417322834646,
          "duration": 0.13736249999999472
        },
        {
          "name": "D4",
          "midi": 62,
          "time": 119.25812249999916,
          "velocity": 0.8661417322834646,
          "duration": 0.06868124999999736
        },
        {
          "name": "F4",
          "midi": 65,
          "time": 119.25812249999916,
          "velocity": 0.8661417322834646,
          "duration": 0.06868124999999736
        },
        {
          "name": "A4",
          "midi": 69,
          "time": 119.34053999999915,
          "velocity": 0.8661417322834646,
          "duration": 0.054945000000003574
        },
        {
          "name": "A3",
          "midi": 57,
          "time": 119.50537499999915,
          "velocity": 0.8661417322834646,
          "duration": 0.054945000000003574
        },
        {
          "name": "C4",
          "midi": 60,
          "time": 119.50537499999915,
          "velocity": 0.8661417322834646,
          "duration": 0.054945000000003574
        },
        {
          "name": "A3",
          "midi": 57,
          "time": 119.67020999999914,
          "velocity": 0.8661417322834646,
          "duration": 0.054945000000003574
        },
        {
          "name": "C#4",
          "midi": 61,
          "time": 119.67020999999914,
          "velocity": 0.8661417322834646,
          "duration": 0.054945000000003574
        },
        {
          "name": "A3",
          "midi": 57,
          "time": 119.83504499999914,
          "velocity": 0.8661417322834646,
          "duration": 0.054945000000003574
        },
        {
          "name": "D4",
          "midi": 62,
          "time": 119.83504499999914,
          "velocity": 0.8661417322834646,
          "duration": 0.054945000000003574
        },
        {
          "name": "F4",
          "midi": 65,
          "time": 119.99987999999914,
          "velocity": 0.8661417322834646,
          "duration": 0.054945000000003574
        },
        {
          "name": "A4",
          "midi": 69,
          "time": 119.99987999999914,
          "velocity": 0.8661417322834646,
          "duration": 0.054945000000003574
        },
        {
          "name": "G4",
          "midi": 67,
          "time": 120.16471499999913,
          "velocity": 0.8661417322834646,
          "duration": 0.06868124999999736
        },
        {
          "name": "A4",
          "midi": 69,
          "time": 120.24713249999913,
          "velocity": 0.8661417322834646,
          "duration": 0.054945000000003574
        },
        {
          "name": "C4",
          "midi": 60,
          "time": 120.41196749999912,
          "velocity": 0.8661417322834646,
          "duration": 0.054945000000003574
        },
        {
          "name": "E4",
          "midi": 64,
          "time": 120.41196749999912,
          "velocity": 0.8661417322834646,
          "duration": 0.054945000000003574
        },
        {
          "name": "D4",
          "midi": 62,
          "time": 120.57680249999912,
          "velocity": 0.8661417322834646,
          "duration": 0.054945000000003574
        },
        {
          "name": "F4",
          "midi": 65,
          "time": 120.57680249999912,
          "velocity": 0.8661417322834646,
          "duration": 0.054945000000003574
        },
        {
          "name": "A4",
          "midi": 69,
          "time": 120.74163749999911,
          "velocity": 0.8661417322834646,
          "duration": 0.06868124999999736
        },
        {
          "name": "G4",
          "midi": 67,
          "time": 120.8240549999991,
          "velocity": 0.8661417322834646,
          "duration": 0.06868124999999736
        },
        {
          "name": "F4",
          "midi": 65,
          "time": 120.9064724999991,
          "velocity": 0.8661417322834646,
          "duration": 0.06868124999999736
        },
        {
          "name": "E4",
          "midi": 64,
          "time": 120.98888999999909,
          "velocity": 0.8661417322834646,
          "duration": 0.06868124999999736
        },
        {
          "name": "D4",
          "midi": 62,
          "time": 121.07130749999908,
          "velocity": 0.8661417322834646,
          "duration": 0.11675812500000404
        },
        {
          "name": "F4",
          "midi": 65,
          "time": 121.31855999999908,
          "velocity": 0.8661417322834646,
          "duration": 0.054945000000003574
        },
        {
          "name": "A4",
          "midi": 69,
          "time": 121.31855999999908,
          "velocity": 0.8661417322834646,
          "duration": 0.054945000000003574
        },
        {
          "name": "G4",
          "midi": 67,
          "time": 121.48339499999908,
          "velocity": 0.8661417322834646,
          "duration": 0.06868124999999736
        },
        {
          "name": "A4",
          "midi": 69,
          "time": 121.56581249999907,
          "velocity": 0.8661417322834646,
          "duration": 0.054945000000003574
        },
        {
          "name": "C4",
          "midi": 60,
          "time": 121.73064749999907,
          "velocity": 0.8661417322834646,
          "duration": 0.13736249999999472
        },
        {
          "name": "E4",
          "midi": 64,
          "time": 121.73064749999907,
          "velocity": 0.8661417322834646,
          "duration": 0.13736249999999472
        },
        {
          "name": "D4",
          "midi": 62,
          "time": 121.89548249999906,
          "velocity": 0.8661417322834646,
          "duration": 0.06868124999999736
        },
        {
          "name": "F4",
          "midi": 65,
          "time": 121.89548249999906,
          "velocity": 0.8661417322834646,
          "duration": 0.06868124999999736
        },
        {
          "name": "A4",
          "midi": 69,
          "time": 121.97789999999905,
          "velocity": 0.8661417322834646,
          "duration": 0.054945000000003574
        },
        {
          "name": "A3",
          "midi": 57,
          "time": 122.14273499999905,
          "velocity": 0.8661417322834646,
          "duration": 0.054945000000003574
        },
        {
          "name": "C4",
          "midi": 60,
          "time": 122.14273499999905,
          "velocity": 0.8661417322834646,
          "duration": 0.054945000000003574
        },
        {
          "name": "A3",
          "midi": 57,
          "time": 122.30756999999905,
          "velocity": 0.8661417322834646,
          "duration": 0.054945000000003574
        },
        {
          "name": "C#4",
          "midi": 61,
          "time": 122.30756999999905,
          "velocity": 0.8661417322834646,
          "duration": 0.054945000000003574
        },
        {
          "name": "A3",
          "midi": 57,
          "time": 122.47240499999904,
          "velocity": 0.8661417322834646,
          "duration": 0.054945000000003574
        },
        {
          "name": "D4",
          "midi": 62,
          "time": 122.47240499999904,
          "velocity": 0.8661417322834646,
          "duration": 0.054945000000003574
        },
        {
          "name": "F4",
          "midi": 65,
          "time": 122.63723999999904,
          "velocity": 0.8661417322834646,
          "duration": 0.054945000000003574
        },
        {
          "name": "A4",
          "midi": 69,
          "time": 122.63723999999904,
          "velocity": 0.8661417322834646,
          "duration": 0.054945000000003574
        },
        {
          "name": "G4",
          "midi": 67,
          "time": 122.80207499999904,
          "velocity": 0.8661417322834646,
          "duration": 0.06868124999999736
        },
        {
          "name": "A4",
          "midi": 69,
          "time": 122.88449249999903,
          "velocity": 0.8661417322834646,
          "duration": 0.054945000000003574
        },
        {
          "name": "C4",
          "midi": 60,
          "time": 123.04932749999902,
          "velocity": 0.8661417322834646,
          "duration": 0.054945000000003574
        },
        {
          "name": "E4",
          "midi": 64,
          "time": 123.04932749999902,
          "velocity": 0.8661417322834646,
          "duration": 0.054945000000003574
        },
        {
          "name": "D4",
          "midi": 62,
          "time": 123.21416249999902,
          "velocity": 0.8661417322834646,
          "duration": 0.054945000000003574
        },
        {
          "name": "F4",
          "midi": 65,
          "time": 123.21416249999902,
          "velocity": 0.8661417322834646,
          "duration": 0.054945000000003574
        },
        {
          "name": "A4",
          "midi": 69,
          "time": 123.37899749999902,
          "velocity": 0.8661417322834646,
          "duration": 0.06868124999999736
        },
        {
          "name": "G4",
          "midi": 67,
          "time": 123.46141499999901,
          "velocity": 0.8661417322834646,
          "duration": 0.06868124999999736
        },
        {
          "name": "F4",
          "midi": 65,
          "time": 123.543832499999,
          "velocity": 0.8661417322834646,
          "duration": 0.06868124999999736
        },
        {
          "name": "E4",
          "midi": 64,
          "time": 123.62624999999899,
          "velocity": 0.8661417322834646,
          "duration": 0.06868124999999736
        },
        {
          "name": "D4",
          "midi": 62,
          "time": 123.70866749999898,
          "velocity": 0.8661417322834646,
          "duration": 0.11675812500000404
        },
        {
          "name": "F4",
          "midi": 65,
          "time": 123.95591999999898,
          "velocity": 0.8661417322834646,
          "duration": 0.054945000000003574
        },
        {
          "name": "A4",
          "midi": 69,
          "time": 123.95591999999898,
          "velocity": 0.8661417322834646,
          "duration": 0.054945000000003574
        },
        {
          "name": "G4",
          "midi": 67,
          "time": 124.12075499999898,
          "velocity": 0.8661417322834646,
          "duration": 0.06868124999999736
        },
        {
          "name": "A4",
          "midi": 69,
          "time": 124.20317249999897,
          "velocity": 0.8661417322834646,
          "duration": 0.054945000000003574
        },
        {
          "name": "C4",
          "midi": 60,
          "time": 124.36800749999897,
          "velocity": 0.8661417322834646,
          "duration": 0.13736249999999472
        },
        {
          "name": "E4",
          "midi": 64,
          "time": 124.36800749999897,
          "velocity": 0.8661417322834646,
          "duration": 0.13736249999999472
        },
        {
          "name": "D4",
          "midi": 62,
          "time": 124.53284249999896,
          "velocity": 0.8661417322834646,
          "duration": 0.06868124999999736
        },
        {
          "name": "F4",
          "midi": 65,
          "time": 124.53284249999896,
          "velocity": 0.8661417322834646,
          "duration": 0.06868124999999736
        },
        {
          "name": "A4",
          "midi": 69,
          "time": 124.61525999999895,
          "velocity": 0.8661417322834646,
          "duration": 0.054945000000003574
        },
        {
          "name": "A3",
          "midi": 57,
          "time": 124.78009499999895,
          "velocity": 0.8661417322834646,
          "duration": 0.054945000000003574
        },
        {
          "name": "C4",
          "midi": 60,
          "time": 124.78009499999895,
          "velocity": 0.8661417322834646,
          "duration": 0.054945000000003574
        },
        {
          "name": "A3",
          "midi": 57,
          "time": 124.94492999999895,
          "velocity": 0.8661417322834646,
          "duration": 0.054945000000003574
        },
        {
          "name": "C#4",
          "midi": 61,
          "time": 124.94492999999895,
          "velocity": 0.8661417322834646,
          "duration": 0.054945000000003574
        },
        {
          "name": "A3",
          "midi": 57,
          "time": 125.10976499999894,
          "velocity": 0.8661417322834646,
          "duration": 0.054945000000003574
        },
        {
          "name": "D4",
          "midi": 62,
          "time": 125.10976499999894,
          "velocity": 0.8661417322834646,
          "duration": 0.054945000000003574
        },
        {
          "name": "F4",
          "midi": 65,
          "time": 125.27459999999894,
          "velocity": 0.8661417322834646,
          "duration": 0.054945000000003574
        },
        {
          "name": "A4",
          "midi": 69,
          "time": 125.27459999999894,
          "velocity": 0.8661417322834646,
          "duration": 0.054945000000003574
        },
        {
          "name": "G4",
          "midi": 67,
          "time": 125.43943499999894,
          "velocity": 0.8661417322834646,
          "duration": 0.06868124999999736
        },
        {
          "name": "A4",
          "midi": 69,
          "time": 125.52185249999893,
          "velocity": 0.8661417322834646,
          "duration": 0.054945000000003574
        },
        {
          "name": "C4",
          "midi": 60,
          "time": 125.68668749999892,
          "velocity": 0.8661417322834646,
          "duration": 0.054945000000003574
        },
        {
          "name": "E4",
          "midi": 64,
          "time": 125.68668749999892,
          "velocity": 0.8661417322834646,
          "duration": 0.054945000000003574
        },
        {
          "name": "D4",
          "midi": 62,
          "time": 125.85152249999892,
          "velocity": 0.8661417322834646,
          "duration": 0.054945000000003574
        },
        {
          "name": "F4",
          "midi": 65,
          "time": 125.85152249999892,
          "velocity": 0.8661417322834646,
          "duration": 0.054945000000003574
        },
        {
          "name": "A4",
          "midi": 69,
          "time": 126.01635749999892,
          "velocity": 0.8661417322834646,
          "duration": 0.06868124999999736
        },
        {
          "name": "G4",
          "midi": 67,
          "time": 126.09877499999891,
          "velocity": 0.8661417322834646,
          "duration": 0.06868124999999736
        },
        {
          "name": "F4",
          "midi": 65,
          "time": 126.1811924999989,
          "velocity": 0.8661417322834646,
          "duration": 0.06868124999999736
        },
        {
          "name": "E4",
          "midi": 64,
          "time": 126.26360999999889,
          "velocity": 0.8661417322834646,
          "duration": 0.06868124999999736
        },
        {
          "name": "D4",
          "midi": 62,
          "time": 126.34602749999888,
          "velocity": 0.8661417322834646,
          "duration": 0.11675812500000404
        },
        {
          "name": "A3",
          "midi": 57,
          "time": 126.46965374999888,
          "velocity": 0.8661417322834646,
          "duration": 0.03434062499999868
        },
        {
          "name": "B3",
          "midi": 59,
          "time": 126.51086249999888,
          "velocity": 0.8661417322834646,
          "duration": 0.03434062499999868
        },
        {
          "name": "C4",
          "midi": 60,
          "time": 126.55207124999887,
          "velocity": 0.8661417322834646,
          "duration": 0.03434062499999868
        },
        {
          "name": "D4",
          "midi": 62,
          "time": 126.59327999999887,
          "velocity": 0.8661417322834646,
          "duration": 0.03434062499999868
        },
        {
          "name": "E4",
          "midi": 64,
          "time": 126.63448874999887,
          "velocity": 0.8661417322834646,
          "duration": 0.03434062499999868
        },
        {
          "name": "F4",
          "midi": 65,
          "time": 126.67569749999886,
          "velocity": 0.8661417322834646,
          "duration": 0.03434062499999868
        },
        {
          "name": "G4",
          "midi": 67,
          "time": 126.71690624999886,
          "velocity": 0.8661417322834646,
          "duration": 0.03434062499999868
        },
        {
          "name": "A4",
          "midi": 69,
          "time": 126.75811499999885,
          "velocity": 0.8661417322834646,
          "duration": 0.03434062499999868
        },
        {
          "name": "B4",
          "midi": 71,
          "time": 126.79932374999885,
          "velocity": 0.8661417322834646,
          "duration": 0.03434062499999868
        },
        {
          "name": "C5",
          "midi": 72,
          "time": 126.84053249999884,
          "velocity": 0.8661417322834646,
          "duration": 0.03434062499999868
        },
        {
          "name": "D5",
          "midi": 74,
          "time": 126.88174124999884,
          "velocity": 0.8661417322834646,
          "duration": 0.03434062499999868
        },
        {
          "name": "E5",
          "midi": 76,
          "time": 126.92294999999883,
          "velocity": 0.8661417322834646,
          "duration": 0.03434062499999868
        },
        {
          "name": "F5",
          "midi": 77,
          "time": 126.96415874999883,
          "velocity": 0.8661417322834646,
          "duration": 0.03434062499999868
        },
        {
          "name": "G5",
          "midi": 79,
          "time": 127.00536749999883,
          "velocity": 0.8661417322834646,
          "duration": 0.03434062499999868
        },
        {
          "name": "A5",
          "midi": 81,
          "time": 127.04657624999882,
          "velocity": 0.8661417322834646,
          "duration": 0.03434062499999868
        },
        {
          "name": "B5",
          "midi": 83,
          "time": 127.08778499999882,
          "velocity": 0.8661417322834646,
          "duration": 0.03434062499999868
        },
        {
          "name": "C6",
          "midi": 84,
          "time": 127.12899374999881,
          "velocity": 0.8661417322834646,
          "duration": 0.03434062499999868
        },
        {
          "name": "D6",
          "midi": 86,
          "time": 127.17020249999881,
          "velocity": 0.8661417322834646,
          "duration": 0.03434062499999868
        },
        {
          "name": "E6",
          "midi": 88,
          "time": 127.2114112499988,
          "velocity": 0.8661417322834646,
          "duration": 0.03434062499999868
        },
        {
          "name": "F6",
          "midi": 89,
          "time": 127.2526199999988,
          "velocity": 0.8661417322834646,
          "duration": 0.03434062499999868
        },
        {
          "name": "G6",
          "midi": 91,
          "time": 127.2938287499988,
          "velocity": 0.8661417322834646,
          "duration": 0.03434062499999868
        },
        {
          "name": "A6",
          "midi": 93,
          "time": 127.33503749999879,
          "velocity": 0.8661417322834646,
          "duration": 0.03434062499999868
        },
        {
          "name": "B6",
          "midi": 95,
          "time": 127.37624624999879,
          "velocity": 0.8661417322834646,
          "duration": 0.03434062499999868
        },
        {
          "name": "C7",
          "midi": 96,
          "time": 127.41745499999878,
          "velocity": 0.8661417322834646,
          "duration": 0.03434062499999868
        },
        {
          "name": "D7",
          "midi": 98,
          "time": 127.45866374999878,
          "velocity": 0.8661417322834646,
          "duration": 0.03434062499999868
        },
        {
          "name": "F4",
          "midi": 65,
          "time": 127.74712499999877,
          "velocity": 0.8661417322834646,
          "duration": 0.13736249999999472
        },
        {
          "name": "A4",
          "midi": 69,
          "time": 127.74712499999877,
          "velocity": 0.8661417322834646,
          "duration": 0.13736249999999472
        },
        {
          "name": "D5",
          "midi": 74,
          "time": 127.91195999999877,
          "velocity": 0.8661417322834646,
          "duration": 0.13736249999999472
        },
        {
          "name": "F5",
          "midi": 77,
          "time": 127.91195999999877,
          "velocity": 0.8661417322834646,
          "duration": 0.13736249999999472
        },
        {
          "name": "E5",
          "midi": 76,
          "time": 128.07679499999875,
          "velocity": 0.8661417322834646,
          "duration": 0.06868124999999736
        },
        {
          "name": "F5",
          "midi": 77,
          "time": 128.15921249999874,
          "velocity": 0.8661417322834646,
          "duration": 0.06868124999999736
        },
        {
          "name": "E5",
          "midi": 76,
          "time": 128.24162999999874,
          "velocity": 0.8661417322834646,
          "duration": 0.13736249999999472
        },
        {
          "name": "C5",
          "midi": 72,
          "time": 128.40646499999872,
          "velocity": 0.8661417322834646,
          "duration": 0.13736249999999472
        },
        {
          "name": "G5",
          "midi": 79,
          "time": 128.40646499999872,
          "velocity": 0.8661417322834646,
          "duration": 0.13736249999999472
        },
        {
          "name": "F5",
          "midi": 77,
          "time": 128.5712999999987,
          "velocity": 0.8661417322834646,
          "duration": 0.13736249999999472
        },
        {
          "name": "E5",
          "midi": 76,
          "time": 128.73613499999868,
          "velocity": 0.8661417322834646,
          "duration": 0.06868124999999736
        },
        {
          "name": "F5",
          "midi": 77,
          "time": 128.81855249999867,
          "velocity": 0.8661417322834646,
          "duration": 0.06868124999999736
        },
        {
          "name": "E5",
          "midi": 76,
          "time": 128.90096999999867,
          "velocity": 0.8661417322834646,
          "duration": 0.06868124999999736
        },
        {
          "name": "C5",
          "midi": 72,
          "time": 128.98338749999866,
          "velocity": 0.8661417322834646,
          "duration": 0.06868124999999736
        },
        {
          "name": "D5",
          "midi": 74,
          "time": 129.06580499999865,
          "velocity": 0.8661417322834646,
          "duration": 0.13736249999999472
        },
        {
          "name": "F5",
          "midi": 77,
          "time": 129.23063999999863,
          "velocity": 0.8661417322834646,
          "duration": 0.13736249999999472
        },
        {
          "name": "A5",
          "midi": 81,
          "time": 129.23063999999863,
          "velocity": 0.8661417322834646,
          "duration": 0.13736249999999472
        },
        {
          "name": "G5",
          "midi": 79,
          "time": 129.3954749999986,
          "velocity": 0.8661417322834646,
          "duration": 0.06868124999999736
        },
        {
          "name": "A5",
          "midi": 81,
          "time": 129.4778924999986,
          "velocity": 0.8661417322834646,
          "duration": 0.06868124999999736
        },
        {
          "name": "G5",
          "midi": 79,
          "time": 129.5603099999986,
          "velocity": 0.8661417322834646,
          "duration": 0.06868124999999736
        },
        {
          "name": "A5",
          "midi": 81,
          "time": 129.64272749999859,
          "velocity": 0.8661417322834646,
          "duration": 0.06868124999999736
        },
        {
          "name": "F5",
          "midi": 77,
          "time": 129.72514499999858,
          "velocity": 0.8661417322834646,
          "duration": 0.13736249999999472
        },
        {
          "name": "C6",
          "midi": 84,
          "time": 129.72514499999858,
          "velocity": 0.8661417322834646,
          "duration": 0.13736249999999472
        },
        {
          "name": "A5",
          "midi": 81,
          "time": 129.88997999999856,
          "velocity": 0.8661417322834646,
          "duration": 0.13736249999999472
        },
        {
          "name": "G5",
          "midi": 79,
          "time": 130.05481499999854,
          "velocity": 0.8661417322834646,
          "duration": 0.13736249999999472
        },
        {
          "name": "A5",
          "midi": 81,
          "time": 130.21964999999852,
          "velocity": 0.8661417322834646,
          "duration": 0.13736249999999472
        },
        {
          "name": "F4",
          "midi": 65,
          "time": 130.3844849999985,
          "velocity": 0.8661417322834646,
          "duration": 0.13736249999999472
        },
        {
          "name": "A4",
          "midi": 69,
          "time": 130.3844849999985,
          "velocity": 0.8661417322834646,
          "duration": 0.13736249999999472
        },
        {
          "name": "D5",
          "midi": 74,
          "time": 130.5493199999985,
          "velocity": 0.8661417322834646,
          "duration": 0.13736249999999472
        },
        {
          "name": "F5",
          "midi": 77,
          "time": 130.5493199999985,
          "velocity": 0.8661417322834646,
          "duration": 0.13736249999999472
        },
        {
          "name": "E5",
          "midi": 76,
          "time": 130.71415499999847,
          "velocity": 0.8661417322834646,
          "duration": 0.06868124999999736
        },
        {
          "name": "F5",
          "midi": 77,
          "time": 130.79657249999846,
          "velocity": 0.8661417322834646,
          "duration": 0.06868124999999736
        },
        {
          "name": "E5",
          "midi": 76,
          "time": 130.87898999999845,
          "velocity": 0.8661417322834646,
          "duration": 0.13736249999999472
        },
        {
          "name": "C5",
          "midi": 72,
          "time": 131.04382499999844,
          "velocity": 0.8661417322834646,
          "duration": 0.13736249999999472
        },
        {
          "name": "G5",
          "midi": 79,
          "time": 131.04382499999844,
          "velocity": 0.8661417322834646,
          "duration": 0.13736249999999472
        },
        {
          "name": "F5",
          "midi": 77,
          "time": 131.20865999999842,
          "velocity": 0.8661417322834646,
          "duration": 0.13736249999999472
        },
        {
          "name": "E5",
          "midi": 76,
          "time": 131.3734949999984,
          "velocity": 0.8661417322834646,
          "duration": 0.06868124999999736
        },
        {
          "name": "F5",
          "midi": 77,
          "time": 131.4559124999984,
          "velocity": 0.8661417322834646,
          "duration": 0.06868124999999736
        },
        {
          "name": "E5",
          "midi": 76,
          "time": 131.53832999999838,
          "velocity": 0.8661417322834646,
          "duration": 0.06868124999999736
        },
        {
          "name": "C5",
          "midi": 72,
          "time": 131.62074749999837,
          "velocity": 0.8661417322834646,
          "duration": 0.06868124999999736
        },
        {
          "name": "D5",
          "midi": 74,
          "time": 131.70316499999836,
          "velocity": 0.8661417322834646,
          "duration": 0.13736249999999472
        },
        {
          "name": "F5",
          "midi": 77,
          "time": 131.86799999999835,
          "velocity": 0.8661417322834646,
          "duration": 0.13736249999999472
        },
        {
          "name": "A5",
          "midi": 81,
          "time": 131.86799999999835,
          "velocity": 0.8661417322834646,
          "duration": 0.13736249999999472
        },
        {
          "name": "G5",
          "midi": 79,
          "time": 132.03283499999833,
          "velocity": 0.8661417322834646,
          "duration": 0.06868124999999736
        },
        {
          "name": "A5",
          "midi": 81,
          "time": 132.11525249999832,
          "velocity": 0.8661417322834646,
          "duration": 0.06868124999999736
        },
        {
          "name": "G5",
          "midi": 79,
          "time": 132.1976699999983,
          "velocity": 0.8661417322834646,
          "duration": 0.06868124999999736
        },
        {
          "name": "A5",
          "midi": 81,
          "time": 132.2800874999983,
          "velocity": 0.8661417322834646,
          "duration": 0.06868124999999736
        },
        {
          "name": "F5",
          "midi": 77,
          "time": 132.3625049999983,
          "velocity": 0.8661417322834646,
          "duration": 0.13736249999999472
        },
        {
          "name": "C#6",
          "midi": 85,
          "time": 132.3625049999983,
          "velocity": 0.8661417322834646,
          "duration": 0.13736249999999472
        },
        {
          "name": "A5",
          "midi": 81,
          "time": 132.52733999999828,
          "velocity": 0.8661417322834646,
          "duration": 0.13736249999999472
        },
        {
          "name": "G5",
          "midi": 79,
          "time": 132.69217499999826,
          "velocity": 0.8661417322834646,
          "duration": 0.13736249999999472
        },
        {
          "name": "A5",
          "midi": 81,
          "time": 132.85700999999824,
          "velocity": 0.8661417322834646,
          "duration": 0.13736249999999472
        },
        {
          "name": "F4",
          "midi": 65,
          "time": 133.02184499999822,
          "velocity": 0.8661417322834646,
          "duration": 0.13736249999999472
        },
        {
          "name": "A4",
          "midi": 69,
          "time": 133.02184499999822,
          "velocity": 0.8661417322834646,
          "duration": 0.13736249999999472
        },
        {
          "name": "D5",
          "midi": 74,
          "time": 133.1866799999982,
          "velocity": 0.8661417322834646,
          "duration": 0.13736249999999472
        },
        {
          "name": "F5",
          "midi": 77,
          "time": 133.1866799999982,
          "velocity": 0.8661417322834646,
          "duration": 0.13736249999999472
        },
        {
          "name": "E5",
          "midi": 76,
          "time": 133.3515149999982,
          "velocity": 0.8661417322834646,
          "duration": 0.06868124999999736
        },
        {
          "name": "F5",
          "midi": 77,
          "time": 133.43393249999818,
          "velocity": 0.8661417322834646,
          "duration": 0.06868124999999736
        },
        {
          "name": "E5",
          "midi": 76,
          "time": 133.51634999999817,
          "velocity": 0.8661417322834646,
          "duration": 0.13736249999999472
        },
        {
          "name": "C5",
          "midi": 72,
          "time": 133.68118499999815,
          "velocity": 0.8661417322834646,
          "duration": 0.13736249999999472
        },
        {
          "name": "G5",
          "midi": 79,
          "time": 133.68118499999815,
          "velocity": 0.8661417322834646,
          "duration": 0.13736249999999472
        },
        {
          "name": "F5",
          "midi": 77,
          "time": 133.84601999999813,
          "velocity": 0.8661417322834646,
          "duration": 0.13736249999999472
        },
        {
          "name": "E5",
          "midi": 76,
          "time": 134.01085499999812,
          "velocity": 0.8661417322834646,
          "duration": 0.06868124999999736
        },
        {
          "name": "F5",
          "midi": 77,
          "time": 134.0932724999981,
          "velocity": 0.8661417322834646,
          "duration": 0.06868124999999736
        },
        {
          "name": "E5",
          "midi": 76,
          "time": 134.1756899999981,
          "velocity": 0.8661417322834646,
          "duration": 0.06868124999999736
        },
        {
          "name": "C5",
          "midi": 72,
          "time": 134.2581074999981,
          "velocity": 0.8661417322834646,
          "duration": 0.06868124999999736
        },
        {
          "name": "D5",
          "midi": 74,
          "time": 134.34052499999808,
          "velocity": 0.8661417322834646,
          "duration": 0.13736249999999472
        },
        {
          "name": "F5",
          "midi": 77,
          "time": 134.50535999999806,
          "velocity": 0.8661417322834646,
          "duration": 0.13736249999999472
        },
        {
          "name": "A5",
          "midi": 81,
          "time": 134.50535999999806,
          "velocity": 0.8661417322834646,
          "duration": 0.13736249999999472
        },
        {
          "name": "G5",
          "midi": 79,
          "time": 134.67019499999805,
          "velocity": 0.8661417322834646,
          "duration": 0.06868124999999736
        },
        {
          "name": "A5",
          "midi": 81,
          "time": 134.75261249999804,
          "velocity": 0.8661417322834646,
          "duration": 0.06868124999999736
        },
        {
          "name": "G5",
          "midi": 79,
          "time": 134.83502999999803,
          "velocity": 0.8661417322834646,
          "duration": 0.06868124999999736
        },
        {
          "name": "A5",
          "midi": 81,
          "time": 134.91744749999802,
          "velocity": 0.8661417322834646,
          "duration": 0.06868124999999736
        },
        {
          "name": "F5",
          "midi": 77,
          "time": 134.999864999998,
          "velocity": 0.8661417322834646,
          "duration": 0.13736249999999472
        },
        {
          "name": "C6",
          "midi": 84,
          "time": 134.999864999998,
          "velocity": 0.8661417322834646,
          "duration": 0.13736249999999472
        },
        {
          "name": "A5",
          "midi": 81,
          "time": 135.164699999998,
          "velocity": 0.8661417322834646,
          "duration": 0.13736249999999472
        },
        {
          "name": "F5",
          "midi": 77,
          "time": 135.32953499999797,
          "velocity": 0.8661417322834646,
          "duration": 0.13736249999999472
        },
        {
          "name": "F#5",
          "midi": 78,
          "time": 135.49436999999796,
          "velocity": 0.8661417322834646,
          "duration": 0.13736249999999472
        },
        {
          "name": "G4",
          "midi": 67,
          "time": 135.65920499999794,
          "velocity": 0.8661417322834646,
          "duration": 0.13736249999999472
        },
        {
          "name": "D5",
          "midi": 74,
          "time": 135.65920499999794,
          "velocity": 0.8661417322834646,
          "duration": 0.13736249999999472
        },
        {
          "name": "G5",
          "midi": 79,
          "time": 135.65920499999794,
          "velocity": 0.8661417322834646,
          "duration": 0.13736249999999472
        },
        {
          "name": "A#4",
          "midi": 70,
          "time": 135.82403999999792,
          "velocity": 0.8661417322834646,
          "duration": 0.06868124999999736
        },
        {
          "name": "D5",
          "midi": 74,
          "time": 135.9064574999979,
          "velocity": 0.8661417322834646,
          "duration": 0.06868124999999736
        },
        {
          "name": "A#4",
          "midi": 70,
          "time": 135.9888749999979,
          "velocity": 0.8661417322834646,
          "duration": 0.13736249999999472
        },
        {
          "name": "D5",
          "midi": 74,
          "time": 136.1537099999979,
          "velocity": 0.8661417322834646,
          "duration": 0.13736249999999472
        },
        {
          "name": "G5",
          "midi": 79,
          "time": 136.1537099999979,
          "velocity": 0.8661417322834646,
          "duration": 0.13736249999999472
        },
        {
          "name": "E5",
          "midi": 76,
          "time": 136.31854499999787,
          "velocity": 0.8661417322834646,
          "duration": 0.13736249999999472
        },
        {
          "name": "A5",
          "midi": 81,
          "time": 136.31854499999787,
          "velocity": 0.8661417322834646,
          "duration": 0.13736249999999472
        },
        {
          "name": "A4",
          "midi": 69,
          "time": 136.48337999999785,
          "velocity": 0.8661417322834646,
          "duration": 0.06868124999999736
        },
        {
          "name": "E5",
          "midi": 76,
          "time": 136.56579749999784,
          "velocity": 0.8661417322834646,
          "duration": 0.06868124999999736
        },
        {
          "name": "A5",
          "midi": 81,
          "time": 136.56579749999784,
          "velocity": 0.8661417322834646,
          "duration": 0.06868124999999736
        },
        {
          "name": "A4",
          "midi": 69,
          "time": 136.64821499999783,
          "velocity": 0.8661417322834646,
          "duration": 0.13736249999999472
        },
        {
          "name": "E5",
          "midi": 76,
          "time": 136.81304999999782,
          "velocity": 0.8661417322834646,
          "duration": 0.13736249999999472
        },
        {
          "name": "A5",
          "midi": 81,
          "time": 136.81304999999782,
          "velocity": 0.8661417322834646,
          "duration": 0.13736249999999472
        },
        {
          "name": "F5",
          "midi": 77,
          "time": 136.9778849999978,
          "velocity": 0.8661417322834646,
          "duration": 0.13736249999999472
        },
        {
          "name": "A#5",
          "midi": 82,
          "time": 136.9778849999978,
          "velocity": 0.8661417322834646,
          "duration": 0.13736249999999472
        },
        {
          "name": "D5",
          "midi": 74,
          "time": 137.14271999999778,
          "velocity": 0.8661417322834646,
          "duration": 0.13736249999999472
        },
        {
          "name": "F5",
          "midi": 77,
          "time": 137.30755499999776,
          "velocity": 0.8661417322834646,
          "duration": 0.13736249999999472
        },
        {
          "name": "B5",
          "midi": 83,
          "time": 137.30755499999776,
          "velocity": 0.8661417322834646,
          "duration": 0.13736249999999472
        },
        {
          "name": "D5",
          "midi": 74,
          "time": 137.47238999999774,
          "velocity": 0.8661417322834646,
          "duration": 0.13736249999999472
        },
        {
          "name": "E5",
          "midi": 76,
          "time": 137.63722499999773,
          "velocity": 0.8661417322834646,
          "duration": 0.5494500000000073
        },
        {
          "name": "G5",
          "midi": 79,
          "time": 137.63722499999773,
          "velocity": 0.8661417322834646,
          "duration": 0.5494500000000073
        },
        {
          "name": "C6",
          "midi": 84,
          "time": 137.63722499999773,
          "velocity": 0.8661417322834646,
          "duration": 0.5494500000000073
        },
        {
          "name": "F4",
          "midi": 65,
          "time": 138.29656499999774,
          "velocity": 0.8661417322834646,
          "duration": 0.13736249999999472
        },
        {
          "name": "A4",
          "midi": 69,
          "time": 138.29656499999774,
          "velocity": 0.8661417322834646,
          "duration": 0.13736249999999472
        },
        {
          "name": "D5",
          "midi": 74,
          "time": 138.46139999999772,
          "velocity": 0.8661417322834646,
          "duration": 0.13736249999999472
        },
        {
          "name": "F5",
          "midi": 77,
          "time": 138.46139999999772,
          "velocity": 0.8661417322834646,
          "duration": 0.13736249999999472
        },
        {
          "name": "E5",
          "midi": 76,
          "time": 138.6262349999977,
          "velocity": 0.8661417322834646,
          "duration": 0.06868124999999736
        },
        {
          "name": "F5",
          "midi": 77,
          "time": 138.7086524999977,
          "velocity": 0.8661417322834646,
          "duration": 0.06868124999999736
        },
        {
          "name": "E5",
          "midi": 76,
          "time": 138.7910699999977,
          "velocity": 0.8661417322834646,
          "duration": 0.13736249999999472
        },
        {
          "name": "C5",
          "midi": 72,
          "time": 138.95590499999767,
          "velocity": 0.8661417322834646,
          "duration": 0.13736249999999472
        },
        {
          "name": "G5",
          "midi": 79,
          "time": 138.95590499999767,
          "velocity": 0.8661417322834646,
          "duration": 0.13736249999999472
        },
        {
          "name": "F5",
          "midi": 77,
          "time": 139.12073999999765,
          "velocity": 0.8661417322834646,
          "duration": 0.13736249999999472
        },
        {
          "name": "E5",
          "midi": 76,
          "time": 139.28557499999764,
          "velocity": 0.8661417322834646,
          "duration": 0.06868124999999736
        },
        {
          "name": "F5",
          "midi": 77,
          "time": 139.36799249999763,
          "velocity": 0.8661417322834646,
          "duration": 0.06868124999999736
        },
        {
          "name": "E5",
          "midi": 76,
          "time": 139.45040999999762,
          "velocity": 0.8661417322834646,
          "duration": 0.06868124999999736
        },
        {
          "name": "C5",
          "midi": 72,
          "time": 139.5328274999976,
          "velocity": 0.8661417322834646,
          "duration": 0.06868124999999736
        },
        {
          "name": "D5",
          "midi": 74,
          "time": 139.6152449999976,
          "velocity": 0.8661417322834646,
          "duration": 0.13736249999999472
        },
        {
          "name": "F5",
          "midi": 77,
          "time": 139.78007999999758,
          "velocity": 0.8661417322834646,
          "duration": 0.13736249999999472
        },
        {
          "name": "A5",
          "midi": 81,
          "time": 139.78007999999758,
          "velocity": 0.8661417322834646,
          "duration": 0.13736249999999472
        },
        {
          "name": "G5",
          "midi": 79,
          "time": 139.94491499999756,
          "velocity": 0.8661417322834646,
          "duration": 0.06868124999999736
        },
        {
          "name": "A5",
          "midi": 81,
          "time": 140.02733249999756,
          "velocity": 0.8661417322834646,
          "duration": 0.06868124999999736
        },
        {
          "name": "G5",
          "midi": 79,
          "time": 140.10974999999755,
          "velocity": 0.8661417322834646,
          "duration": 0.06868124999999736
        },
        {
          "name": "A5",
          "midi": 81,
          "time": 140.19216749999754,
          "velocity": 0.8661417322834646,
          "duration": 0.06868124999999736
        },
        {
          "name": "F5",
          "midi": 77,
          "time": 140.27458499999753,
          "velocity": 0.8661417322834646,
          "duration": 0.13736249999999472
        },
        {
          "name": "C6",
          "midi": 84,
          "time": 140.27458499999753,
          "velocity": 0.8661417322834646,
          "duration": 0.13736249999999472
        },
        {
          "name": "A5",
          "midi": 81,
          "time": 140.4394199999975,
          "velocity": 0.8661417322834646,
          "duration": 0.13736249999999472
        },
        {
          "name": "G5",
          "midi": 79,
          "time": 140.6042549999975,
          "velocity": 0.8661417322834646,
          "duration": 0.13736249999999472
        },
        {
          "name": "A5",
          "midi": 81,
          "time": 140.76908999999748,
          "velocity": 0.8661417322834646,
          "duration": 0.13736249999999472
        },
        {
          "name": "F4",
          "midi": 65,
          "time": 140.93392499999746,
          "velocity": 0.8661417322834646,
          "duration": 0.13736249999999472
        },
        {
          "name": "A4",
          "midi": 69,
          "time": 140.93392499999746,
          "velocity": 0.8661417322834646,
          "duration": 0.13736249999999472
        },
        {
          "name": "D5",
          "midi": 74,
          "time": 141.09875999999744,
          "velocity": 0.8661417322834646,
          "duration": 0.13736249999999472
        },
        {
          "name": "F5",
          "midi": 77,
          "time": 141.09875999999744,
          "velocity": 0.8661417322834646,
          "duration": 0.13736249999999472
        },
        {
          "name": "E5",
          "midi": 76,
          "time": 141.26359499999742,
          "velocity": 0.8661417322834646,
          "duration": 0.06868124999999736
        },
        {
          "name": "F5",
          "midi": 77,
          "time": 141.3460124999974,
          "velocity": 0.8661417322834646,
          "duration": 0.06868124999999736
        },
        {
          "name": "E5",
          "midi": 76,
          "time": 141.4284299999974,
          "velocity": 0.8661417322834646,
          "duration": 0.13736249999999472
        },
        {
          "name": "C5",
          "midi": 72,
          "time": 141.5932649999974,
          "velocity": 0.8661417322834646,
          "duration": 0.13736249999999472
        },
        {
          "name": "G5",
          "midi": 79,
          "time": 141.5932649999974,
          "velocity": 0.8661417322834646,
          "duration": 0.13736249999999472
        },
        {
          "name": "F5",
          "midi": 77,
          "time": 141.75809999999737,
          "velocity": 0.8661417322834646,
          "duration": 0.13736249999999472
        },
        {
          "name": "E5",
          "midi": 76,
          "time": 141.92293499999735,
          "velocity": 0.8661417322834646,
          "duration": 0.06868124999999736
        },
        {
          "name": "F5",
          "midi": 77,
          "time": 142.00535249999734,
          "velocity": 0.8661417322834646,
          "duration": 0.06868124999999736
        },
        {
          "name": "E5",
          "midi": 76,
          "time": 142.08776999999733,
          "velocity": 0.8661417322834646,
          "duration": 0.06868124999999736
        },
        {
          "name": "C5",
          "midi": 72,
          "time": 142.17018749999733,
          "velocity": 0.8661417322834646,
          "duration": 0.06868124999999736
        },
        {
          "name": "D5",
          "midi": 74,
          "time": 142.25260499999732,
          "velocity": 0.8661417322834646,
          "duration": 0.13736249999999472
        },
        {
          "name": "F5",
          "midi": 77,
          "time": 142.4174399999973,
          "velocity": 0.8661417322834646,
          "duration": 0.13736249999999472
        },
        {
          "name": "A5",
          "midi": 81,
          "time": 142.4174399999973,
          "velocity": 0.8661417322834646,
          "duration": 0.13736249999999472
        },
        {
          "name": "G5",
          "midi": 79,
          "time": 142.58227499999728,
          "velocity": 0.8661417322834646,
          "duration": 0.06868124999999736
        },
        {
          "name": "A5",
          "midi": 81,
          "time": 142.66469249999727,
          "velocity": 0.8661417322834646,
          "duration": 0.06868124999999736
        },
        {
          "name": "G5",
          "midi": 79,
          "time": 142.74710999999726,
          "velocity": 0.8661417322834646,
          "duration": 0.06868124999999736
        },
        {
          "name": "A5",
          "midi": 81,
          "time": 142.82952749999725,
          "velocity": 0.8661417322834646,
          "duration": 0.06868124999999736
        },
        {
          "name": "F5",
          "midi": 77,
          "time": 142.91194499999725,
          "velocity": 0.8661417322834646,
          "duration": 0.13736249999999472
        },
        {
          "name": "C#6",
          "midi": 85,
          "time": 142.91194499999725,
          "velocity": 0.8661417322834646,
          "duration": 0.13736249999999472
        },
        {
          "name": "A5",
          "midi": 81,
          "time": 143.07677999999723,
          "velocity": 0.8661417322834646,
          "duration": 0.13736249999999472
        },
        {
          "name": "G5",
          "midi": 79,
          "time": 143.2416149999972,
          "velocity": 0.8661417322834646,
          "duration": 0.13736249999999472
        },
        {
          "name": "A5",
          "midi": 81,
          "time": 143.4064499999972,
          "velocity": 0.8661417322834646,
          "duration": 0.13736249999999472
        },
        {
          "name": "F4",
          "midi": 65,
          "time": 143.57128499999718,
          "velocity": 0.8661417322834646,
          "duration": 0.13736249999999472
        },
        {
          "name": "A4",
          "midi": 69,
          "time": 143.57128499999718,
          "velocity": 0.8661417322834646,
          "duration": 0.13736249999999472
        },
        {
          "name": "D5",
          "midi": 74,
          "time": 143.73611999999716,
          "velocity": 0.8661417322834646,
          "duration": 0.13736249999999472
        },
        {
          "name": "F5",
          "midi": 77,
          "time": 143.73611999999716,
          "velocity": 0.8661417322834646,
          "duration": 0.13736249999999472
        },
        {
          "name": "E5",
          "midi": 76,
          "time": 143.90095499999714,
          "velocity": 0.8661417322834646,
          "duration": 0.06868124999999736
        },
        {
          "name": "F5",
          "midi": 77,
          "time": 143.98337249999713,
          "velocity": 0.8661417322834646,
          "duration": 0.06868124999999736
        },
        {
          "name": "E5",
          "midi": 76,
          "time": 144.06578999999712,
          "velocity": 0.8661417322834646,
          "duration": 0.13736249999999472
        },
        {
          "name": "C5",
          "midi": 72,
          "time": 144.2306249999971,
          "velocity": 0.8661417322834646,
          "duration": 0.13736249999999472
        },
        {
          "name": "G5",
          "midi": 79,
          "time": 144.2306249999971,
          "velocity": 0.8661417322834646,
          "duration": 0.13736249999999472
        },
        {
          "name": "F5",
          "midi": 77,
          "time": 144.3954599999971,
          "velocity": 0.8661417322834646,
          "duration": 0.13736249999999472
        },
        {
          "name": "E5",
          "midi": 76,
          "time": 144.56029499999707,
          "velocity": 0.8661417322834646,
          "duration": 0.06868124999999736
        },
        {
          "name": "F5",
          "midi": 77,
          "time": 144.64271249999706,
          "velocity": 0.8661417322834646,
          "duration": 0.06868124999999736
        },
        {
          "name": "E5",
          "midi": 76,
          "time": 144.72512999999705,
          "velocity": 0.8661417322834646,
          "duration": 0.06868124999999736
        },
        {
          "name": "C5",
          "midi": 72,
          "time": 144.80754749999704,
          "velocity": 0.8661417322834646,
          "duration": 0.06868124999999736
        },
        {
          "name": "D5",
          "midi": 74,
          "time": 144.88996499999703,
          "velocity": 0.8661417322834646,
          "duration": 0.13736249999999472
        },
        {
          "name": "F5",
          "midi": 77,
          "time": 145.05479999999702,
          "velocity": 0.8661417322834646,
          "duration": 0.13736249999999472
        },
        {
          "name": "A5",
          "midi": 81,
          "time": 145.05479999999702,
          "velocity": 0.8661417322834646,
          "duration": 0.13736249999999472
        },
        {
          "name": "G5",
          "midi": 79,
          "time": 145.219634999997,
          "velocity": 0.8661417322834646,
          "duration": 0.06868124999999736
        },
        {
          "name": "A5",
          "midi": 81,
          "time": 145.302052499997,
          "velocity": 0.8661417322834646,
          "duration": 0.06868124999999736
        },
        {
          "name": "G5",
          "midi": 79,
          "time": 145.38446999999698,
          "velocity": 0.8661417322834646,
          "duration": 0.06868124999999736
        },
        {
          "name": "A5",
          "midi": 81,
          "time": 145.46688749999697,
          "velocity": 0.8661417322834646,
          "duration": 0.06868124999999736
        },
        {
          "name": "F5",
          "midi": 77,
          "time": 145.54930499999696,
          "velocity": 0.8661417322834646,
          "duration": 0.13736249999999472
        },
        {
          "name": "C6",
          "midi": 84,
          "time": 145.54930499999696,
          "velocity": 0.8661417322834646,
          "duration": 0.13736249999999472
        },
        {
          "name": "A5",
          "midi": 81,
          "time": 145.71413999999695,
          "velocity": 0.8661417322834646,
          "duration": 0.13736249999999472
        },
        {
          "name": "F5",
          "midi": 77,
          "time": 145.87897499999693,
          "velocity": 0.8661417322834646,
          "duration": 0.13736249999999472
        },
        {
          "name": "F#5",
          "midi": 78,
          "time": 146.0438099999969,
          "velocity": 0.8661417322834646,
          "duration": 0.13736249999999472
        },
        {
          "name": "G4",
          "midi": 67,
          "time": 146.2086449999969,
          "velocity": 0.8661417322834646,
          "duration": 0.13736249999999472
        },
        {
          "name": "D5",
          "midi": 74,
          "time": 146.2086449999969,
          "velocity": 0.8661417322834646,
          "duration": 0.13736249999999472
        },
        {
          "name": "G5",
          "midi": 79,
          "time": 146.2086449999969,
          "velocity": 0.8661417322834646,
          "duration": 0.13736249999999472
        },
        {
          "name": "A#4",
          "midi": 70,
          "time": 146.37347999999687,
          "velocity": 0.8661417322834646,
          "duration": 0.06868124999999736
        },
        {
          "name": "D5",
          "midi": 74,
          "time": 146.45589749999687,
          "velocity": 0.8661417322834646,
          "duration": 0.06868124999999736
        },
        {
          "name": "A#4",
          "midi": 70,
          "time": 146.53831499999686,
          "velocity": 0.8661417322834646,
          "duration": 0.13736249999999472
        },
        {
          "name": "D5",
          "midi": 74,
          "time": 146.70314999999684,
          "velocity": 0.8661417322834646,
          "duration": 0.13736249999999472
        },
        {
          "name": "G5",
          "midi": 79,
          "time": 146.70314999999684,
          "velocity": 0.8661417322834646,
          "duration": 0.13736249999999472
        },
        {
          "name": "A4",
          "midi": 69,
          "time": 146.86798499999682,
          "velocity": 0.8661417322834646,
          "duration": 0.13736249999999472
        },
        {
          "name": "E5",
          "midi": 76,
          "time": 146.86798499999682,
          "velocity": 0.8661417322834646,
          "duration": 0.13736249999999472
        },
        {
          "name": "A5",
          "midi": 81,
          "time": 146.86798499999682,
          "velocity": 0.8661417322834646,
          "duration": 0.13736249999999472
        },
        {
          "name": "A4",
          "midi": 69,
          "time": 147.0328199999968,
          "velocity": 0.8661417322834646,
          "duration": 0.06868124999999736
        },
        {
          "name": "E5",
          "midi": 76,
          "time": 147.1152374999968,
          "velocity": 0.8661417322834646,
          "duration": 0.13736249999999472
        },
        {
          "name": "A5",
          "midi": 81,
          "time": 147.1152374999968,
          "velocity": 0.8661417322834646,
          "duration": 0.13736249999999472
        },
        {
          "name": "A4",
          "midi": 69,
          "time": 147.28007249999678,
          "velocity": 0.8661417322834646,
          "duration": 0.06868124999999736
        },
        {
          "name": "D5",
          "midi": 74,
          "time": 147.36248999999677,
          "velocity": 0.8661417322834646,
          "duration": 0.30219750000000545
        },
        {
          "name": "F5",
          "midi": 77,
          "time": 147.36248999999677,
          "velocity": 0.8661417322834646,
          "duration": 0.30219750000000545
        },
        {
          "name": "A#5",
          "midi": 82,
          "time": 147.36248999999677,
          "velocity": 0.8661417322834646,
          "duration": 0.30219750000000545
        },
        {
          "name": "A5",
          "midi": 81,
          "time": 147.69215999999676,
          "velocity": 0.8661417322834646,
          "duration": 0.13736249999999472
        },
        {
          "name": "C6",
          "midi": 84,
          "time": 147.69215999999676,
          "velocity": 0.8661417322834646,
          "duration": 0.13736249999999472
        },
        {
          "name": "F6",
          "midi": 89,
          "time": 147.69215999999676,
          "velocity": 0.8661417322834646,
          "duration": 0.13736249999999472
        },
        {
          "name": "E6",
          "midi": 88,
          "time": 147.85699499999674,
          "velocity": 0.8661417322834646,
          "duration": 0.13736249999999472
        },
        {
          "name": "D6",
          "midi": 86,
          "time": 148.02182999999673,
          "velocity": 0.8661417322834646,
          "duration": 0.13736249999999472
        },
        {
          "name": "C6",
          "midi": 84,
          "time": 148.1866649999967,
          "velocity": 0.8661417322834646,
          "duration": 0.5494500000000073
        },
        {
          "name": "E6",
          "midi": 88,
          "time": 148.1866649999967,
          "velocity": 0.8661417322834646,
          "duration": 0.5494500000000073
        },
        {
          "name": "F#4",
          "midi": 66,
          "time": 148.84600499999672,
          "velocity": 0.8661417322834646,
          "duration": 0.13736249999999472
        },
        {
          "name": "A#4",
          "midi": 70,
          "time": 148.84600499999672,
          "velocity": 0.8661417322834646,
          "duration": 0.13736249999999472
        },
        {
          "name": "D#5",
          "midi": 75,
          "time": 149.0108399999967,
          "velocity": 0.8661417322834646,
          "duration": 0.13736249999999472
        },
        {
          "name": "F#5",
          "midi": 78,
          "time": 149.0108399999967,
          "velocity": 0.8661417322834646,
          "duration": 0.13736249999999472
        },
        {
          "name": "F5",
          "midi": 77,
          "time": 149.1756749999967,
          "velocity": 0.8661417322834646,
          "duration": 0.06868124999999736
        },
        {
          "name": "F#5",
          "midi": 78,
          "time": 149.25809249999668,
          "velocity": 0.8661417322834646,
          "duration": 0.06868124999999736
        },
        {
          "name": "F5",
          "midi": 77,
          "time": 149.34050999999667,
          "velocity": 0.8661417322834646,
          "duration": 0.06868124999999736
        },
        {
          "name": "F#5",
          "midi": 78,
          "time": 149.42292749999666,
          "velocity": 0.8661417322834646,
          "duration": 0.06868124999999736
        },
        {
          "name": "C#5",
          "midi": 73,
          "time": 149.50534499999665,
          "velocity": 0.8661417322834646,
          "duration": 0.13736249999999472
        },
        {
          "name": "G#5",
          "midi": 80,
          "time": 149.50534499999665,
          "velocity": 0.8661417322834646,
          "duration": 0.13736249999999472
        },
        {
          "name": "F#5",
          "midi": 78,
          "time": 149.67017999999663,
          "velocity": 0.8661417322834646,
          "duration": 0.13736249999999472
        },
        {
          "name": "F5",
          "midi": 77,
          "time": 149.83501499999662,
          "velocity": 0.8661417322834646,
          "duration": 0.06868124999999736
        },
        {
          "name": "F#5",
          "midi": 78,
          "time": 149.9174324999966,
          "velocity": 0.8661417322834646,
          "duration": 0.06868124999999736
        },
        {
          "name": "F5",
          "midi": 77,
          "time": 149.9998499999966,
          "velocity": 0.8661417322834646,
          "duration": 0.06868124999999736
        },
        {
          "name": "C#5",
          "midi": 73,
          "time": 150.0822674999966,
          "velocity": 0.8661417322834646,
          "duration": 0.06868124999999736
        },
        {
          "name": "D#5",
          "midi": 75,
          "time": 150.16468499999658,
          "velocity": 0.8661417322834646,
          "duration": 0.13736249999999472
        },
        {
          "name": "F#5",
          "midi": 78,
          "time": 150.32951999999656,
          "velocity": 0.8661417322834646,
          "duration": 0.13736249999999472
        },
        {
          "name": "A#5",
          "midi": 82,
          "time": 150.32951999999656,
          "velocity": 0.8661417322834646,
          "duration": 0.13736249999999472
        },
        {
          "name": "G#5",
          "midi": 80,
          "time": 150.49435499999655,
          "velocity": 0.8661417322834646,
          "duration": 0.06868124999999736
        },
        {
          "name": "A#5",
          "midi": 82,
          "time": 150.57677249999654,
          "velocity": 0.8661417322834646,
          "duration": 0.06868124999999736
        },
        {
          "name": "G#5",
          "midi": 80,
          "time": 150.65918999999653,
          "velocity": 0.8661417322834646,
          "duration": 0.06868124999999736
        },
        {
          "name": "A#5",
          "midi": 82,
          "time": 150.74160749999652,
          "velocity": 0.8661417322834646,
          "duration": 0.06868124999999736
        },
        {
          "name": "F#5",
          "midi": 78,
          "time": 150.8240249999965,
          "velocity": 0.8661417322834646,
          "duration": 0.13736249999999472
        },
        {
          "name": "C#6",
          "midi": 85,
          "time": 150.8240249999965,
          "velocity": 0.8661417322834646,
          "duration": 0.13736249999999472
        },
        {
          "name": "A#5",
          "midi": 82,
          "time": 150.9888599999965,
          "velocity": 0.8661417322834646,
          "duration": 0.13736249999999472
        },
        {
          "name": "G#5",
          "midi": 80,
          "time": 151.15369499999647,
          "velocity": 0.8661417322834646,
          "duration": 0.13736249999999472
        },
        {
          "name": "A#5",
          "midi": 82,
          "time": 151.31852999999646,
          "velocity": 0.8661417322834646,
          "duration": 0.13736249999999472
        },
        {
          "name": "F#4",
          "midi": 66,
          "time": 151.48336499999644,
          "velocity": 0.8661417322834646,
          "duration": 0.13736249999999472
        },
        {
          "name": "A#4",
          "midi": 70,
          "time": 151.48336499999644,
          "velocity": 0.8661417322834646,
          "duration": 0.13736249999999472
        },
        {
          "name": "F#5",
          "midi": 78,
          "time": 151.64819999999642,
          "velocity": 0.8661417322834646,
          "duration": 0.13736249999999472
        },
        {
          "name": "F5",
          "midi": 77,
          "time": 151.8130349999964,
          "velocity": 0.8661417322834646,
          "duration": 0.06868124999999736
        },
        {
          "name": "F#5",
          "midi": 78,
          "time": 151.8954524999964,
          "velocity": 0.8661417322834646,
          "duration": 0.06868124999999736
        },
        {
          "name": "F5",
          "midi": 77,
          "time": 151.9778699999964,
          "velocity": 0.8661417322834646,
          "duration": 0.06868124999999736
        },
        {
          "name": "F#5",
          "midi": 78,
          "time": 152.06028749999638,
          "velocity": 0.8661417322834646,
          "duration": 0.06868124999999736
        },
        {
          "name": "C#5",
          "midi": 73,
          "time": 152.14270499999637,
          "velocity": 0.8661417322834646,
          "duration": 0.13736249999999472
        },
        {
          "name": "G#5",
          "midi": 80,
          "time": 152.14270499999637,
          "velocity": 0.8661417322834646,
          "duration": 0.13736249999999472
        },
        {
          "name": "F#5",
          "midi": 78,
          "time": 152.30753999999635,
          "velocity": 0.8661417322834646,
          "duration": 0.13736249999999472
        },
        {
          "name": "F5",
          "midi": 77,
          "time": 152.47237499999633,
          "velocity": 0.8661417322834646,
          "duration": 0.06868124999999736
        },
        {
          "name": "F#5",
          "midi": 78,
          "time": 152.55479249999632,
          "velocity": 0.8661417322834646,
          "duration": 0.06868124999999736
        },
        {
          "name": "F5",
          "midi": 77,
          "time": 152.63720999999632,
          "velocity": 0.8661417322834646,
          "duration": 0.06868124999999736
        },
        {
          "name": "C#5",
          "midi": 73,
          "time": 152.7196274999963,
          "velocity": 0.8661417322834646,
          "duration": 0.06868124999999736
        },
        {
          "name": "D#5",
          "midi": 75,
          "time": 152.8020449999963,
          "velocity": 0.8661417322834646,
          "duration": 0.13736249999999472
        },
        {
          "name": "F#5",
          "midi": 78,
          "time": 152.96687999999628,
          "velocity": 0.8661417322834646,
          "duration": 0.13736249999999472
        },
        {
          "name": "A#5",
          "midi": 82,
          "time": 152.96687999999628,
          "velocity": 0.8661417322834646,
          "duration": 0.13736249999999472
        },
        {
          "name": "G#5",
          "midi": 80,
          "time": 153.13171499999626,
          "velocity": 0.8661417322834646,
          "duration": 0.06868124999999736
        },
        {
          "name": "A#5",
          "midi": 82,
          "time": 153.21413249999625,
          "velocity": 0.8661417322834646,
          "duration": 0.06868124999999736
        },
        {
          "name": "G#5",
          "midi": 80,
          "time": 153.29654999999624,
          "velocity": 0.8661417322834646,
          "duration": 0.06868124999999736
        },
        {
          "name": "A#5",
          "midi": 82,
          "time": 153.37896749999624,
          "velocity": 0.8661417322834646,
          "duration": 0.06868124999999736
        },
        {
          "name": "D5",
          "midi": 74,
          "time": 153.46138499999623,
          "velocity": 0.8661417322834646,
          "duration": 0.13736249999999472
        },
        {
          "name": "D6",
          "midi": 86,
          "time": 153.46138499999623,
          "velocity": 0.8661417322834646,
          "duration": 0.13736249999999472
        },
        {
          "name": "A#5",
          "midi": 82,
          "time": 153.6262199999962,
          "velocity": 0.8661417322834646,
          "duration": 0.13736249999999472
        },
        {
          "name": "G#5",
          "midi": 80,
          "time": 153.7910549999962,
          "velocity": 0.8661417322834646,
          "duration": 0.13736249999999472
        },
        {
          "name": "A#5",
          "midi": 82,
          "time": 153.95588999999617,
          "velocity": 0.8661417322834646,
          "duration": 0.13736249999999472
        },
        {
          "name": "F#4",
          "midi": 66,
          "time": 154.12072499999616,
          "velocity": 0.8661417322834646,
          "duration": 0.13736249999999472
        },
        {
          "name": "A#4",
          "midi": 70,
          "time": 154.12072499999616,
          "velocity": 0.8661417322834646,
          "duration": 0.13736249999999472
        },
        {
          "name": "F#5",
          "midi": 78,
          "time": 154.28555999999614,
          "velocity": 0.8661417322834646,
          "duration": 0.13736249999999472
        },
        {
          "name": "F5",
          "midi": 77,
          "time": 154.45039499999612,
          "velocity": 0.8661417322834646,
          "duration": 0.06868124999999736
        },
        {
          "name": "F#5",
          "midi": 78,
          "time": 154.5328124999961,
          "velocity": 0.8661417322834646,
          "duration": 0.06868124999999736
        },
        {
          "name": "F5",
          "midi": 77,
          "time": 154.6152299999961,
          "velocity": 0.8661417322834646,
          "duration": 0.06868124999999736
        },
        {
          "name": "F#5",
          "midi": 78,
          "time": 154.6976474999961,
          "velocity": 0.8661417322834646,
          "duration": 0.06868124999999736
        },
        {
          "name": "C#5",
          "midi": 73,
          "time": 154.78006499999609,
          "velocity": 0.8661417322834646,
          "duration": 0.13736249999999472
        },
        {
          "name": "G#5",
          "midi": 80,
          "time": 154.78006499999609,
          "velocity": 0.8661417322834646,
          "duration": 0.13736249999999472
        },
        {
          "name": "F#5",
          "midi": 78,
          "time": 154.94489999999607,
          "velocity": 0.8661417322834646,
          "duration": 0.13736249999999472
        },
        {
          "name": "F5",
          "midi": 77,
          "time": 155.10973499999605,
          "velocity": 0.8661417322834646,
          "duration": 0.06868124999999736
        },
        {
          "name": "F#5",
          "midi": 78,
          "time": 155.19215249999604,
          "velocity": 0.8661417322834646,
          "duration": 0.06868124999999736
        },
        {
          "name": "F5",
          "midi": 77,
          "time": 155.27456999999603,
          "velocity": 0.8661417322834646,
          "duration": 0.06868124999999736
        },
        {
          "name": "C#5",
          "midi": 73,
          "time": 155.35698749999602,
          "velocity": 0.8661417322834646,
          "duration": 0.06868124999999736
        },
        {
          "name": "D#5",
          "midi": 75,
          "time": 155.43940499999601,
          "velocity": 0.8661417322834646,
          "duration": 0.13736249999999472
        },
        {
          "name": "F#5",
          "midi": 78,
          "time": 155.604239999996,
          "velocity": 0.8661417322834646,
          "duration": 0.13736249999999472
        },
        {
          "name": "A#5",
          "midi": 82,
          "time": 155.604239999996,
          "velocity": 0.8661417322834646,
          "duration": 0.13736249999999472
        },
        {
          "name": "G#5",
          "midi": 80,
          "time": 155.76907499999598,
          "velocity": 0.8661417322834646,
          "duration": 0.06868124999999736
        },
        {
          "name": "A#5",
          "midi": 82,
          "time": 155.85149249999597,
          "velocity": 0.8661417322834646,
          "duration": 0.06868124999999736
        },
        {
          "name": "G#5",
          "midi": 80,
          "time": 155.93390999999596,
          "velocity": 0.8661417322834646,
          "duration": 0.06868124999999736
        },
        {
          "name": "A#5",
          "midi": 82,
          "time": 156.01632749999595,
          "velocity": 0.8661417322834646,
          "duration": 0.06868124999999736
        },
        {
          "name": "F#5",
          "midi": 78,
          "time": 156.09874499999594,
          "velocity": 0.8661417322834646,
          "duration": 0.13736249999999472
        },
        {
          "name": "C#6",
          "midi": 85,
          "time": 156.09874499999594,
          "velocity": 0.8661417322834646,
          "duration": 0.13736249999999472
        },
        {
          "name": "A#5",
          "midi": 82,
          "time": 156.26357999999593,
          "velocity": 0.8661417322834646,
          "duration": 0.13736249999999472
        },
        {
          "name": "F#5",
          "midi": 78,
          "time": 156.4284149999959,
          "velocity": 0.8661417322834646,
          "duration": 0.13736249999999472
        },
        {
          "name": "G#5",
          "midi": 80,
          "time": 156.4284149999959,
          "velocity": 0.8661417322834646,
          "duration": 0.13736249999999472
        },
        {
          "name": "G5",
          "midi": 79,
          "time": 156.5932499999959,
          "velocity": 0.8661417322834646,
          "duration": 0.13736249999999472
        },
        {
          "name": "D#5",
          "midi": 75,
          "time": 156.75808499999587,
          "velocity": 0.8661417322834646,
          "duration": 0.13736249999999472
        },
        {
          "name": "G#5",
          "midi": 80,
          "time": 156.75808499999587,
          "velocity": 0.8661417322834646,
          "duration": 0.13736249999999472
        },
        {
          "name": "B4",
          "midi": 71,
          "time": 156.92291999999586,
          "velocity": 0.8661417322834646,
          "duration": 0.06868124999999736
        },
        {
          "name": "D#5",
          "midi": 75,
          "time": 157.00533749999585,
          "velocity": 0.8661417322834646,
          "duration": 0.06868124999999736
        },
        {
          "name": "G#5",
          "midi": 80,
          "time": 157.00533749999585,
          "velocity": 0.8661417322834646,
          "duration": 0.06868124999999736
        },
        {
          "name": "A#4",
          "midi": 70,
          "time": 157.08775499999584,
          "velocity": 0.8661417322834646,
          "duration": 0.13736249999999472
        },
        {
          "name": "D#5",
          "midi": 75,
          "time": 157.25258999999582,
          "velocity": 0.8661417322834646,
          "duration": 0.13736249999999472
        },
        {
          "name": "G#5",
          "midi": 80,
          "time": 157.25258999999582,
          "velocity": 0.8661417322834646,
          "duration": 0.13736249999999472
        },
        {
          "name": "F5",
          "midi": 77,
          "time": 157.4174249999958,
          "velocity": 0.8661417322834646,
          "duration": 0.13736249999999472
        },
        {
          "name": "A#5",
          "midi": 82,
          "time": 157.4174249999958,
          "velocity": 0.8661417322834646,
          "duration": 0.13736249999999472
        },
        {
          "name": "C#5",
          "midi": 73,
          "time": 157.58225999999578,
          "velocity": 0.8661417322834646,
          "duration": 0.06868124999999736
        },
        {
          "name": "F5",
          "midi": 77,
          "time": 157.66467749999578,
          "velocity": 0.8661417322834646,
          "duration": 0.06868124999999736
        },
        {
          "name": "A#5",
          "midi": 82,
          "time": 157.66467749999578,
          "velocity": 0.8661417322834646,
          "duration": 0.06868124999999736
        },
        {
          "name": "C#5",
          "midi": 73,
          "time": 157.74709499999577,
          "velocity": 0.8661417322834646,
          "duration": 0.13736249999999472
        },
        {
          "name": "F5",
          "midi": 77,
          "time": 157.91192999999575,
          "velocity": 0.8661417322834646,
          "duration": 0.13736249999999472
        },
        {
          "name": "A#5",
          "midi": 82,
          "time": 157.91192999999575,
          "velocity": 0.8661417322834646,
          "duration": 0.13736249999999472
        },
        {
          "name": "F#5",
          "midi": 78,
          "time": 158.07676499999573,
          "velocity": 0.8661417322834646,
          "duration": 0.13736249999999472
        },
        {
          "name": "B5",
          "midi": 83,
          "time": 158.07676499999573,
          "velocity": 0.8661417322834646,
          "duration": 0.13736249999999472
        },
        {
          "name": "D#5",
          "midi": 75,
          "time": 158.2415999999957,
          "velocity": 0.8661417322834646,
          "duration": 0.13736249999999472
        },
        {
          "name": "F#5",
          "midi": 78,
          "time": 158.4064349999957,
          "velocity": 0.8661417322834646,
          "duration": 0.13736249999999472
        },
        {
          "name": "C6",
          "midi": 84,
          "time": 158.4064349999957,
          "velocity": 0.8661417322834646,
          "duration": 0.13736249999999472
        },
        {
          "name": "D#5",
          "midi": 75,
          "time": 158.57126999999568,
          "velocity": 0.8661417322834646,
          "duration": 0.13736249999999472
        },
        {
          "name": "F5",
          "midi": 77,
          "time": 158.73610499999566,
          "velocity": 0.8661417322834646,
          "duration": 0.5494500000000073
        },
        {
          "name": "G#5",
          "midi": 80,
          "time": 158.73610499999566,
          "velocity": 0.8661417322834646,
          "duration": 0.5494500000000073
        },
        {
          "name": "C#6",
          "midi": 85,
          "time": 158.73610499999566,
          "velocity": 0.8661417322834646,
          "duration": 0.5494500000000073
        },
        {
          "name": "F#4",
          "midi": 66,
          "time": 159.39544499999568,
          "velocity": 0.8661417322834646,
          "duration": 0.13736249999999472
        },
        {
          "name": "A#4",
          "midi": 70,
          "time": 159.39544499999568,
          "velocity": 0.8661417322834646,
          "duration": 0.13736249999999472
        },
        {
          "name": "D#5",
          "midi": 75,
          "time": 159.56027999999566,
          "velocity": 0.8661417322834646,
          "duration": 0.13736249999999472
        },
        {
          "name": "F#5",
          "midi": 78,
          "time": 159.56027999999566,
          "velocity": 0.8661417322834646,
          "duration": 0.13736249999999472
        },
        {
          "name": "F5",
          "midi": 77,
          "time": 159.72511499999564,
          "velocity": 0.8661417322834646,
          "duration": 0.06868124999999736
        },
        {
          "name": "F#5",
          "midi": 78,
          "time": 159.80753249999563,
          "velocity": 0.8661417322834646,
          "duration": 0.06868124999999736
        },
        {
          "name": "F5",
          "midi": 77,
          "time": 159.88994999999562,
          "velocity": 0.8661417322834646,
          "duration": 0.06868124999999736
        },
        {
          "name": "F#5",
          "midi": 78,
          "time": 159.9723674999956,
          "velocity": 0.8661417322834646,
          "duration": 0.06868124999999736
        },
        {
          "name": "C#5",
          "midi": 73,
          "time": 160.0547849999956,
          "velocity": 0.8661417322834646,
          "duration": 0.13736249999999472
        },
        {
          "name": "G#5",
          "midi": 80,
          "time": 160.0547849999956,
          "velocity": 0.8661417322834646,
          "duration": 0.13736249999999472
        },
        {
          "name": "F#5",
          "midi": 78,
          "time": 160.2196199999956,
          "velocity": 0.8661417322834646,
          "duration": 0.13736249999999472
        },
        {
          "name": "F5",
          "midi": 77,
          "time": 160.38445499999557,
          "velocity": 0.8661417322834646,
          "duration": 0.06868124999999736
        },
        {
          "name": "F#5",
          "midi": 78,
          "time": 160.46687249999556,
          "velocity": 0.8661417322834646,
          "duration": 0.06868124999999736
        },
        {
          "name": "F5",
          "midi": 77,
          "time": 160.54928999999555,
          "velocity": 0.8661417322834646,
          "duration": 0.06868124999999736
        },
        {
          "name": "C#5",
          "midi": 73,
          "time": 160.63170749999554,
          "velocity": 0.8661417322834646,
          "duration": 0.06868124999999736
        },
        {
          "name": "D#5",
          "midi": 75,
          "time": 160.71412499999553,
          "velocity": 0.8661417322834646,
          "duration": 0.13736249999999472
        },
        {
          "name": "F#5",
          "midi": 78,
          "time": 160.87895999999552,
          "velocity": 0.8661417322834646,
          "duration": 0.13736249999999472
        },
        {
          "name": "A#5",
          "midi": 82,
          "time": 160.87895999999552,
          "velocity": 0.8661417322834646,
          "duration": 0.13736249999999472
        },
        {
          "name": "G#5",
          "midi": 80,
          "time": 161.0437949999955,
          "velocity": 0.8661417322834646,
          "duration": 0.06868124999999736
        },
        {
          "name": "A#5",
          "midi": 82,
          "time": 161.1262124999955,
          "velocity": 0.8661417322834646,
          "duration": 0.06868124999999736
        },
        {
          "name": "G#5",
          "midi": 80,
          "time": 161.20862999999548,
          "velocity": 0.8661417322834646,
          "duration": 0.06868124999999736
        },
        {
          "name": "A#5",
          "midi": 82,
          "time": 161.29104749999547,
          "velocity": 0.8661417322834646,
          "duration": 0.06868124999999736
        },
        {
          "name": "F#5",
          "midi": 78,
          "time": 161.37346499999546,
          "velocity": 0.8661417322834646,
          "duration": 0.13736249999999472
        },
        {
          "name": "C#6",
          "midi": 85,
          "time": 161.37346499999546,
          "velocity": 0.8661417322834646,
          "duration": 0.13736249999999472
        },
        {
          "name": "A#5",
          "midi": 82,
          "time": 161.53829999999544,
          "velocity": 0.8661417322834646,
          "duration": 0.13736249999999472
        },
        {
          "name": "G#5",
          "midi": 80,
          "time": 161.70313499999543,
          "velocity": 0.8661417322834646,
          "duration": 0.13736249999999472
        },
        {
          "name": "A#5",
          "midi": 82,
          "time": 161.8679699999954,
          "velocity": 0.8661417322834646,
          "duration": 0.13736249999999472
        },
        {
          "name": "F#4",
          "midi": 66,
          "time": 162.0328049999954,
          "velocity": 0.8661417322834646,
          "duration": 0.13736249999999472
        },
        {
          "name": "A#4",
          "midi": 70,
          "time": 162.0328049999954,
          "velocity": 0.8661417322834646,
          "duration": 0.13736249999999472
        },
        {
          "name": "F#5",
          "midi": 78,
          "time": 162.19763999999537,
          "velocity": 0.8661417322834646,
          "duration": 0.13736249999999472
        },
        {
          "name": "F5",
          "midi": 77,
          "time": 162.36247499999536,
          "velocity": 0.8661417322834646,
          "duration": 0.06868124999999736
        },
        {
          "name": "F#5",
          "midi": 78,
          "time": 162.44489249999535,
          "velocity": 0.8661417322834646,
          "duration": 0.06868124999999736
        },
        {
          "name": "F5",
          "midi": 77,
          "time": 162.52730999999534,
          "velocity": 0.8661417322834646,
          "duration": 0.06868124999999736
        },
        {
          "name": "F#5",
          "midi": 78,
          "time": 162.60972749999533,
          "velocity": 0.8661417322834646,
          "duration": 0.06868124999999736
        },
        {
          "name": "C#5",
          "midi": 73,
          "time": 162.69214499999532,
          "velocity": 0.8661417322834646,
          "duration": 0.13736249999999472
        },
        {
          "name": "G#5",
          "midi": 80,
          "time": 162.69214499999532,
          "velocity": 0.8661417322834646,
          "duration": 0.13736249999999472
        },
        {
          "name": "F#5",
          "midi": 78,
          "time": 162.8569799999953,
          "velocity": 0.8661417322834646,
          "duration": 0.13736249999999472
        },
        {
          "name": "F5",
          "midi": 77,
          "time": 163.02181499999529,
          "velocity": 0.8661417322834646,
          "duration": 0.06868124999999736
        },
        {
          "name": "F#5",
          "midi": 78,
          "time": 163.10423249999528,
          "velocity": 0.8661417322834646,
          "duration": 0.06868124999999736
        },
        {
          "name": "F5",
          "midi": 77,
          "time": 163.18664999999527,
          "velocity": 0.8661417322834646,
          "duration": 0.06868124999999736
        },
        {
          "name": "C#5",
          "midi": 73,
          "time": 163.26906749999526,
          "velocity": 0.8661417322834646,
          "duration": 0.06868124999999736
        },
        {
          "name": "D#5",
          "midi": 75,
          "time": 163.35148499999525,
          "velocity": 0.8661417322834646,
          "duration": 0.13736249999999472
        },
        {
          "name": "F#5",
          "midi": 78,
          "time": 163.51631999999523,
          "velocity": 0.8661417322834646,
          "duration": 0.13736249999999472
        },
        {
          "name": "A#5",
          "midi": 82,
          "time": 163.51631999999523,
          "velocity": 0.8661417322834646,
          "duration": 0.13736249999999472
        },
        {
          "name": "G#5",
          "midi": 80,
          "time": 163.68115499999521,
          "velocity": 0.8661417322834646,
          "duration": 0.06868124999999736
        },
        {
          "name": "A#5",
          "midi": 82,
          "time": 163.7635724999952,
          "velocity": 0.8661417322834646,
          "duration": 0.06868124999999736
        },
        {
          "name": "G#5",
          "midi": 80,
          "time": 163.8459899999952,
          "velocity": 0.8661417322834646,
          "duration": 0.06868124999999736
        },
        {
          "name": "A#5",
          "midi": 82,
          "time": 163.9284074999952,
          "velocity": 0.8661417322834646,
          "duration": 0.06868124999999736
        },
        {
          "name": "D5",
          "midi": 74,
          "time": 164.01082499999518,
          "velocity": 0.8661417322834646,
          "duration": 0.13736249999999472
        },
        {
          "name": "D6",
          "midi": 86,
          "time": 164.01082499999518,
          "velocity": 0.8661417322834646,
          "duration": 0.13736249999999472
        },
        {
          "name": "A#5",
          "midi": 82,
          "time": 164.17565999999516,
          "velocity": 0.8661417322834646,
          "duration": 0.13736249999999472
        },
        {
          "name": "C#5",
          "midi": 73,
          "time": 164.34049499999514,
          "velocity": 0.8661417322834646,
          "duration": 0.13736249999999472
        },
        {
          "name": "C#6",
          "midi": 85,
          "time": 164.34049499999514,
          "velocity": 0.8661417322834646,
          "duration": 0.13736249999999472
        },
        {
          "name": "F5",
          "midi": 77,
          "time": 164.50532999999513,
          "velocity": 0.8661417322834646,
          "duration": 0.13736249999999472
        },
        {
          "name": "F6",
          "midi": 89,
          "time": 164.50532999999513,
          "velocity": 0.8661417322834646,
          "duration": 0.13736249999999472
        },
        {
          "name": "F#5",
          "midi": 78,
          "time": 164.6701649999951,
          "velocity": 0.8661417322834646,
          "duration": 0.4120875000000126
        },
        {
          "name": "A#5",
          "midi": 82,
          "time": 164.6701649999951,
          "velocity": 0.8661417322834646,
          "duration": 0.4120875000000126
        },
        {
          "name": "D#6",
          "midi": 87,
          "time": 164.6701649999951,
          "velocity": 0.8661417322834646,
          "duration": 0.4120875000000126
        },
        {
          "name": "F#5",
          "midi": 78,
          "time": 165.1646699999951,
          "velocity": 0.8661417322834646,
          "duration": 0.13736249999999472
        },
        {
          "name": "A#5",
          "midi": 82,
          "time": 165.1646699999951,
          "velocity": 0.8661417322834646,
          "duration": 0.13736249999999472
        },
        {
          "name": "D#6",
          "midi": 87,
          "time": 165.1646699999951,
          "velocity": 0.8661417322834646,
          "duration": 0.13736249999999472
        },
        {
          "name": "F#5",
          "midi": 78,
          "time": 165.3295049999951,
          "velocity": 0.8661417322834646,
          "duration": 0.13736249999999472
        },
        {
          "name": "A#5",
          "midi": 82,
          "time": 165.3295049999951,
          "velocity": 0.8661417322834646,
          "duration": 0.13736249999999472
        },
        {
          "name": "D#6",
          "midi": 87,
          "time": 165.3295049999951,
          "velocity": 0.8661417322834646,
          "duration": 0.13736249999999472
        },
        {
          "name": "F5",
          "midi": 77,
          "time": 165.49433999999508,
          "velocity": 0.8661417322834646,
          "duration": 0.27472499999998945
        },
        {
          "name": "G#5",
          "midi": 80,
          "time": 165.49433999999508,
          "velocity": 0.8661417322834646,
          "duration": 0.27472499999998945
        },
        {
          "name": "C#6",
          "midi": 85,
          "time": 165.49433999999508,
          "velocity": 0.8661417322834646,
          "duration": 0.27472499999998945
        },
        {
          "name": "F#5",
          "midi": 78,
          "time": 165.82400999999507,
          "velocity": 0.8661417322834646,
          "duration": 0.30219750000000545
        },
        {
          "name": "A#5",
          "midi": 82,
          "time": 165.82400999999507,
          "velocity": 0.8661417322834646,
          "duration": 0.30219750000000545
        },
        {
          "name": "D#6",
          "midi": 87,
          "time": 165.82400999999507,
          "velocity": 0.8661417322834646,
          "duration": 0.30219750000000545
        },
        {
          "name": "F#5",
          "midi": 78,
          "time": 166.15367999999506,
          "velocity": 0.8661417322834646,
          "duration": 0.13736249999999472
        },
        {
          "name": "A#5",
          "midi": 82,
          "time": 166.15367999999506,
          "velocity": 0.8661417322834646,
          "duration": 0.13736249999999472
        },
        {
          "name": "D#6",
          "midi": 87,
          "time": 166.15367999999506,
          "velocity": 0.8661417322834646,
          "duration": 0.13736249999999472
        },
        {
          "name": "F5",
          "midi": 77,
          "time": 166.31851499999505,
          "velocity": 0.8661417322834646,
          "duration": 0.13736249999999472
        },
        {
          "name": "G#5",
          "midi": 80,
          "time": 166.31851499999505,
          "velocity": 0.8661417322834646,
          "duration": 0.13736249999999472
        },
        {
          "name": "C#6",
          "midi": 85,
          "time": 166.31851499999505,
          "velocity": 0.8661417322834646,
          "duration": 0.13736249999999472
        },
        {
          "name": "A#5",
          "midi": 82,
          "time": 166.64818499999504,
          "velocity": 0.8661417322834646,
          "duration": 0.06868124999999736
        },
        {
          "name": "C#6",
          "midi": 85,
          "time": 166.73060249999503,
          "velocity": 0.8661417322834646,
          "duration": 0.06868124999999736
        },
        {
          "name": "A#5",
          "midi": 82,
          "time": 166.81301999999502,
          "velocity": 0.8661417322834646,
          "duration": 0.13736249999999472
        },
        {
          "name": "G#5",
          "midi": 80,
          "time": 166.977854999995,
          "velocity": 0.8661417322834646,
          "duration": 0.13736249999999472
        },
        {
          "name": "A#5",
          "midi": 82,
          "time": 167.14268999999499,
          "velocity": 0.8661417322834646,
          "duration": 0.13736249999999472
        },
        {
          "name": "B4",
          "midi": 71,
          "time": 167.30752499999497,
          "velocity": 0.8661417322834646,
          "duration": 0.27472499999998945
        },
        {
          "name": "D#5",
          "midi": 75,
          "time": 167.30752499999497,
          "velocity": 0.8661417322834646,
          "duration": 0.27472499999998945
        },
        {
          "name": "G#5",
          "midi": 80,
          "time": 167.30752499999497,
          "velocity": 0.8661417322834646,
          "duration": 0.27472499999998945
        },
        {
          "name": "A#4",
          "midi": 70,
          "time": 167.63719499999496,
          "velocity": 0.8661417322834646,
          "duration": 0.13736249999999472
        },
        {
          "name": "D#5",
          "midi": 75,
          "time": 167.63719499999496,
          "velocity": 0.8661417322834646,
          "duration": 0.13736249999999472
        },
        {
          "name": "G#5",
          "midi": 80,
          "time": 167.63719499999496,
          "velocity": 0.8661417322834646,
          "duration": 0.13736249999999472
        },
        {
          "name": "C#5",
          "midi": 73,
          "time": 167.80202999999494,
          "velocity": 0.8661417322834646,
          "duration": 0.13736249999999472
        },
        {
          "name": "F#5",
          "midi": 78,
          "time": 167.80202999999494,
          "velocity": 0.8661417322834646,
          "duration": 0.13736249999999472
        },
        {
          "name": "A#5",
          "midi": 82,
          "time": 167.80202999999494,
          "velocity": 0.8661417322834646,
          "duration": 0.13736249999999472
        },
        {
          "name": "G#5",
          "midi": 80,
          "time": 168.13169999999494,
          "velocity": 0.8661417322834646,
          "duration": 0.06868124999999736
        },
        {
          "name": "C#6",
          "midi": 85,
          "time": 168.13169999999494,
          "velocity": 0.8661417322834646,
          "duration": 0.06868124999999736
        },
        {
          "name": "F#6",
          "midi": 90,
          "time": 168.13169999999494,
          "velocity": 0.8661417322834646,
          "duration": 0.06868124999999736
        },
        {
          "name": "G#5",
          "midi": 80,
          "time": 168.21411749999493,
          "velocity": 0.8661417322834646,
          "duration": 0.06868124999999736
        },
        {
          "name": "C#6",
          "midi": 85,
          "time": 168.21411749999493,
          "velocity": 0.8661417322834646,
          "duration": 0.06868124999999736
        },
        {
          "name": "F#6",
          "midi": 90,
          "time": 168.21411749999493,
          "velocity": 0.8661417322834646,
          "duration": 0.06868124999999736
        },
        {
          "name": "F6",
          "midi": 89,
          "time": 168.29653499999492,
          "velocity": 0.8661417322834646,
          "duration": 0.13736249999999472
        },
        {
          "name": "G#5",
          "midi": 80,
          "time": 168.4613699999949,
          "velocity": 0.8661417322834646,
          "duration": 0.13736249999999472
        },
        {
          "name": "C#6",
          "midi": 85,
          "time": 168.4613699999949,
          "velocity": 0.8661417322834646,
          "duration": 0.13736249999999472
        },
        {
          "name": "F#5",
          "midi": 78,
          "time": 168.62620499999488,
          "velocity": 0.8661417322834646,
          "duration": 1.0988999999999862
        },
        {
          "name": "A#5",
          "midi": 82,
          "time": 168.62620499999488,
          "velocity": 0.8661417322834646,
          "duration": 1.0988999999999862
        },
        {
          "name": "D#6",
          "midi": 87,
          "time": 168.62620499999488,
          "velocity": 0.8661417322834646,
          "duration": 1.0988999999999862
        },
        {
          "name": "F#4",
          "midi": 66,
          "time": 169.94488499999485,
          "velocity": 0.8661417322834646,
          "duration": 0.27472499999998945
        },
        {
          "name": "A#4",
          "midi": 70,
          "time": 169.94488499999485,
          "velocity": 0.8661417322834646,
          "duration": 0.27472499999998945
        },
        {
          "name": "F#5",
          "midi": 78,
          "time": 170.27455499999485,
          "velocity": 0.8661417322834646,
          "duration": 0.27472499999998945
        },
        {
          "name": "F5",
          "midi": 77,
          "time": 170.60422499999484,
          "velocity": 0.8661417322834646,
          "duration": 0.13736249999999472
        },
        {
          "name": "F#5",
          "midi": 78,
          "time": 170.76905999999482,
          "velocity": 0.8661417322834646,
          "duration": 0.27472499999998945
        },
        {
          "name": "C#5",
          "midi": 73,
          "time": 171.09872999999482,
          "velocity": 0.8661417322834646,
          "duration": 0.4395600000000002
        },
        {
          "name": "G#5",
          "midi": 80,
          "time": 171.09872999999482,
          "velocity": 0.8661417322834646,
          "duration": 0.4395600000000002
        },
        {
          "name": "F#5",
          "midi": 78,
          "time": 171.59323499999482,
          "velocity": 0.8661417322834646,
          "duration": 0.27472499999998945
        },
        {
          "name": "F5",
          "midi": 77,
          "time": 171.9229049999948,
          "velocity": 0.8661417322834646,
          "duration": 0.27472499999998945
        },
        {
          "name": "G#4",
          "midi": 68,
          "time": 172.2525749999948,
          "velocity": 0.8661417322834646,
          "duration": 0.13736249999999472
        },
        {
          "name": "C#5",
          "midi": 73,
          "time": 172.2525749999948,
          "velocity": 0.8661417322834646,
          "duration": 0.13736249999999472
        },
        {
          "name": "D5",
          "midi": 74,
          "time": 172.4174099999948,
          "velocity": 0.8661417322834646,
          "duration": 0.13736249999999472
        },
        {
          "name": "A#4",
          "midi": 70,
          "time": 172.58224499999477,
          "velocity": 0.8661417322834646,
          "duration": 0.27472499999998945
        },
        {
          "name": "D#5",
          "midi": 75,
          "time": 172.58224499999477,
          "velocity": 0.8661417322834646,
          "duration": 0.27472499999998945
        },
        {
          "name": "F#5",
          "midi": 78,
          "time": 172.91191499999476,
          "velocity": 0.8661417322834646,
          "duration": 0.27472499999998945
        },
        {
          "name": "A#5",
          "midi": 82,
          "time": 172.91191499999476,
          "velocity": 0.8661417322834646,
          "duration": 0.27472499999998945
        },
        {
          "name": "F5",
          "midi": 77,
          "time": 173.24158499999476,
          "velocity": 0.8661417322834646,
          "duration": 0.13736249999999472
        },
        {
          "name": "G#5",
          "midi": 80,
          "time": 173.24158499999476,
          "velocity": 0.8661417322834646,
          "duration": 0.13736249999999472
        },
        {
          "name": "F#5",
          "midi": 78,
          "time": 173.40641999999474,
          "velocity": 0.8661417322834646,
          "duration": 0.27472499999998945
        },
        {
          "name": "A#5",
          "midi": 82,
          "time": 173.40641999999474,
          "velocity": 0.8661417322834646,
          "duration": 0.27472499999998945
        },
        {
          "name": "A#5",
          "midi": 82,
          "time": 173.73608999999473,
          "velocity": 0.8661417322834646,
          "duration": 0.4395600000000002
        },
        {
          "name": "C#6",
          "midi": 85,
          "time": 173.73608999999473,
          "velocity": 0.8661417322834646,
          "duration": 0.4395600000000002
        },
        {
          "name": "G#5",
          "midi": 80,
          "time": 174.23059499999474,
          "velocity": 0.8661417322834646,
          "duration": 0.27472499999998945
        },
        {
          "name": "B5",
          "midi": 83,
          "time": 174.23059499999474,
          "velocity": 0.8661417322834646,
          "duration": 0.27472499999998945
        },
        {
          "name": "F#5",
          "midi": 78,
          "time": 174.56026499999473,
          "velocity": 0.8661417322834646,
          "duration": 0.27472499999998945
        },
        {
          "name": "A#5",
          "midi": 82,
          "time": 174.56026499999473,
          "velocity": 0.8661417322834646,
          "duration": 0.27472499999998945
        },
        {
          "name": "F5",
          "midi": 77,
          "time": 174.88993499999472,
          "velocity": 0.8661417322834646,
          "duration": 0.27472499999998945
        },
        {
          "name": "G#5",
          "midi": 80,
          "time": 174.88993499999472,
          "velocity": 0.8661417322834646,
          "duration": 0.27472499999998945
        },
        {
          "name": "D#5",
          "midi": 75,
          "time": 175.21960499999471,
          "velocity": 0.8661417322834646,
          "duration": 0.5494500000000073
        },
        {
          "name": "F#5",
          "midi": 78,
          "time": 175.21960499999471,
          "velocity": 0.8661417322834646,
          "duration": 0.5494500000000073
        },
        {
          "name": "C#5",
          "midi": 73,
          "time": 175.87894499999473,
          "velocity": 0.8661417322834646,
          "duration": 0.13736249999999472
        },
        {
          "name": "F5",
          "midi": 77,
          "time": 175.87894499999473,
          "velocity": 0.8661417322834646,
          "duration": 0.13736249999999472
        },
        {
          "name": "D#5",
          "midi": 75,
          "time": 176.0437799999947,
          "velocity": 0.8661417322834646,
          "duration": 0.27472499999998945
        },
        {
          "name": "F#5",
          "midi": 78,
          "time": 176.0437799999947,
          "velocity": 0.8661417322834646,
          "duration": 0.27472499999998945
        },
        {
          "name": "F5",
          "midi": 77,
          "time": 176.3734499999947,
          "velocity": 0.8661417322834646,
          "duration": 0.4395600000000002
        },
        {
          "name": "G#5",
          "midi": 80,
          "time": 176.3734499999947,
          "velocity": 0.8661417322834646,
          "duration": 0.4395600000000002
        },
        {
          "name": "D#5",
          "midi": 75,
          "time": 176.8679549999947,
          "velocity": 0.8661417322834646,
          "duration": 0.27472499999998945
        },
        {
          "name": "F#5",
          "midi": 78,
          "time": 176.8679549999947,
          "velocity": 0.8661417322834646,
          "duration": 0.27472499999998945
        },
        {
          "name": "C#5",
          "midi": 73,
          "time": 177.1976249999947,
          "velocity": 0.8661417322834646,
          "duration": 0.27472499999998945
        },
        {
          "name": "F5",
          "midi": 77,
          "time": 177.1976249999947,
          "velocity": 0.8661417322834646,
          "duration": 0.27472499999998945
        },
        {
          "name": "G#4",
          "midi": 68,
          "time": 177.5272949999947,
          "velocity": 0.8661417322834646,
          "duration": 0.13736249999999472
        },
        {
          "name": "C#5",
          "midi": 73,
          "time": 177.5272949999947,
          "velocity": 0.8661417322834646,
          "duration": 0.13736249999999472
        },
        {
          "name": "D5",
          "midi": 74,
          "time": 177.69212999999468,
          "velocity": 0.8661417322834646,
          "duration": 0.13736249999999472
        },
        {
          "name": "A#4",
          "midi": 70,
          "time": 177.85696499999466,
          "velocity": 0.8661417322834646,
          "duration": 0.13736249999999472
        },
        {
          "name": "D#5",
          "midi": 75,
          "time": 177.85696499999466,
          "velocity": 0.8661417322834646,
          "duration": 0.13736249999999472
        },
        {
          "name": "C#5",
          "midi": 73,
          "time": 178.02179999999464,
          "velocity": 0.8661417322834646,
          "duration": 0.13736249999999472
        },
        {
          "name": "F5",
          "midi": 77,
          "time": 178.18663499999462,
          "velocity": 0.8661417322834646,
          "duration": 0.13736249999999472
        },
        {
          "name": "F#5",
          "midi": 78,
          "time": 178.3514699999946,
          "velocity": 0.8661417322834646,
          "duration": 0.30219750000000545
        },
        {
          "name": "C#5",
          "midi": 73,
          "time": 178.6811399999946,
          "velocity": 0.8661417322834646,
          "duration": 0.13736249999999472
        },
        {
          "name": "F5",
          "midi": 77,
          "time": 178.84597499999458,
          "velocity": 0.8661417322834646,
          "duration": 0.13736249999999472
        },
        {
          "name": "G#5",
          "midi": 80,
          "time": 178.84597499999458,
          "velocity": 0.8661417322834646,
          "duration": 0.13736249999999472
        },
        {
          "name": "F#5",
          "midi": 78,
          "time": 179.01080999999456,
          "velocity": 0.8661417322834646,
          "duration": 0.30219750000000545
        },
        {
          "name": "A#5",
          "midi": 82,
          "time": 179.01080999999456,
          "velocity": 0.8661417322834646,
          "duration": 0.30219750000000545
        },
        {
          "name": "C#6",
          "midi": 85,
          "time": 179.34047999999456,
          "velocity": 0.8661417322834646,
          "duration": 0.13736249999999472
        },
        {
          "name": "D#6",
          "midi": 87,
          "time": 179.50531499999454,
          "velocity": 0.8661417322834646,
          "duration": 0.13736249999999472
        },
        {
          "name": "F#6",
          "midi": 90,
          "time": 179.67014999999452,
          "velocity": 0.8661417322834646,
          "duration": 0.13736249999999472
        },
        {
          "name": "G#5",
          "midi": 80,
          "time": 179.8349849999945,
          "velocity": 0.8661417322834646,
          "duration": 0.13736249999999472
        },
        {
          "name": "F6",
          "midi": 89,
          "time": 179.8349849999945,
          "velocity": 0.8661417322834646,
          "duration": 0.13736249999999472
        },
        {
          "name": "D#6",
          "midi": 87,
          "time": 179.9998199999945,
          "velocity": 0.8661417322834646,
          "duration": 0.13736249999999472
        },
        {
          "name": "C#6",
          "midi": 85,
          "time": 180.16465499999447,
          "velocity": 0.8661417322834646,
          "duration": 0.27472499999998945
        },
        {
          "name": "A#5",
          "midi": 82,
          "time": 180.49432499999446,
          "velocity": 0.8661417322834646,
          "duration": 0.27472499999998945
        },
        {
          "name": "D#6",
          "midi": 87,
          "time": 180.49432499999446,
          "velocity": 0.8661417322834646,
          "duration": 0.27472499999998945
        },
        {
          "name": "D#6",
          "midi": 87,
          "time": 180.82399499999445,
          "velocity": 0.8661417322834646,
          "duration": 0.27472499999998945
        },
        {
          "name": "F#6",
          "midi": 90,
          "time": 180.82399499999445,
          "velocity": 0.8661417322834646,
          "duration": 0.27472499999998945
        },
        {
          "name": "C#6",
          "midi": 85,
          "time": 181.15366499999445,
          "velocity": 0.8661417322834646,
          "duration": 0.13736249999999472
        },
        {
          "name": "F6",
          "midi": 89,
          "time": 181.15366499999445,
          "velocity": 0.8661417322834646,
          "duration": 0.13736249999999472
        },
        {
          "name": "A#5",
          "midi": 82,
          "time": 181.31849999999443,
          "velocity": 0.8661417322834646,
          "duration": 0.27472499999998945
        },
        {
          "name": "D#6",
          "midi": 87,
          "time": 181.31849999999443,
          "velocity": 0.8661417322834646,
          "duration": 0.27472499999998945
        },
        {
          "name": "A#5",
          "midi": 82,
          "time": 181.64816999999442,
          "velocity": 0.8661417322834646,
          "duration": 0.9890100000000075
        },
        {
          "name": "D#6",
          "midi": 87,
          "time": 181.64816999999442,
          "velocity": 0.8661417322834646,
          "duration": 0.9890100000000075
        },
        {
          "name": "A#5",
          "midi": 82,
          "time": 182.96684999999442,
          "velocity": 0.8661417322834646,
          "duration": 0.4395600000000002
        },
        {
          "name": "D#6",
          "midi": 87,
          "time": 182.96684999999442,
          "velocity": 0.8661417322834646,
          "duration": 0.4395600000000002
        },
        {
          "name": "F#6",
          "midi": 90,
          "time": 183.46135499999443,
          "velocity": 0.8661417322834646,
          "duration": 0.27472499999998945
        },
        {
          "name": "A#6",
          "midi": 94,
          "time": 183.46135499999443,
          "velocity": 0.8661417322834646,
          "duration": 0.27472499999998945
        },
        {
          "name": "G#6",
          "midi": 92,
          "time": 183.79102499999442,
          "velocity": 0.8661417322834646,
          "duration": 0.13736249999999472
        },
        {
          "name": "D#6",
          "midi": 87,
          "time": 183.9558599999944,
          "velocity": 0.8661417322834646,
          "duration": 0.13736249999999472
        },
        {
          "name": "F#6",
          "midi": 90,
          "time": 183.9558599999944,
          "velocity": 0.8661417322834646,
          "duration": 0.13736249999999472
        },
        {
          "name": "C#6",
          "midi": 85,
          "time": 184.12069499999438,
          "velocity": 0.8661417322834646,
          "duration": 0.13736249999999472
        },
        {
          "name": "F6",
          "midi": 89,
          "time": 184.12069499999438,
          "velocity": 0.8661417322834646,
          "duration": 0.13736249999999472
        },
        {
          "name": "D#6",
          "midi": 87,
          "time": 184.28552999999437,
          "velocity": 0.8661417322834646,
          "duration": 0.9890100000000075
        },
        {
          "name": "F#6",
          "midi": 90,
          "time": 184.28552999999437,
          "velocity": 0.8661417322834646,
          "duration": 0.9890100000000075
        },
        {
          "name": "D#6",
          "midi": 87,
          "time": 185.60420999999437,
          "velocity": 0.8661417322834646,
          "duration": 0.4395600000000002
        },
        {
          "name": "F#6",
          "midi": 90,
          "time": 185.60420999999437,
          "velocity": 0.8661417322834646,
          "duration": 0.4395600000000002
        },
        {
          "name": "C#6",
          "midi": 85,
          "time": 186.09871499999437,
          "velocity": 0.8661417322834646,
          "duration": 0.27472499999998945
        },
        {
          "name": "F6",
          "midi": 89,
          "time": 186.09871499999437,
          "velocity": 0.8661417322834646,
          "duration": 0.27472499999998945
        },
        {
          "name": "A#5",
          "midi": 82,
          "time": 186.42838499999436,
          "velocity": 0.8661417322834646,
          "duration": 0.13736249999999472
        },
        {
          "name": "D#6",
          "midi": 87,
          "time": 186.42838499999436,
          "velocity": 0.8661417322834646,
          "duration": 0.13736249999999472
        },
        {
          "name": "C#6",
          "midi": 85,
          "time": 186.59321999999435,
          "velocity": 0.8661417322834646,
          "duration": 0.27472499999998945
        },
        {
          "name": "F6",
          "midi": 89,
          "time": 186.59321999999435,
          "velocity": 0.8661417322834646,
          "duration": 0.27472499999998945
        },
        {
          "name": "D#6",
          "midi": 87,
          "time": 186.92288999999434,
          "velocity": 0.8661417322834646,
          "duration": 0.4395600000000002
        },
        {
          "name": "F#6",
          "midi": 90,
          "time": 186.92288999999434,
          "velocity": 0.8661417322834646,
          "duration": 0.4395600000000002
        },
        {
          "name": "C#6",
          "midi": 85,
          "time": 187.41739499999434,
          "velocity": 0.8661417322834646,
          "duration": 0.27472499999998945
        },
        {
          "name": "F6",
          "midi": 89,
          "time": 187.41739499999434,
          "velocity": 0.8661417322834646,
          "duration": 0.27472499999998945
        },
        {
          "name": "A#5",
          "midi": 82,
          "time": 187.74706499999434,
          "velocity": 0.8661417322834646,
          "duration": 0.13736249999999472
        },
        {
          "name": "D#6",
          "midi": 87,
          "time": 187.74706499999434,
          "velocity": 0.8661417322834646,
          "duration": 0.13736249999999472
        },
        {
          "name": "C#6",
          "midi": 85,
          "time": 187.91189999999432,
          "velocity": 0.8661417322834646,
          "duration": 0.27472499999998945
        },
        {
          "name": "F6",
          "midi": 89,
          "time": 187.91189999999432,
          "velocity": 0.8661417322834646,
          "duration": 0.27472499999998945
        },
        {
          "name": "G5",
          "midi": 79,
          "time": 188.2415699999943,
          "velocity": 0.8661417322834646,
          "duration": 0.7142849999999896
        },
        {
          "name": "A#5",
          "midi": 82,
          "time": 188.2415699999943,
          "velocity": 0.8661417322834646,
          "duration": 0.7142849999999896
        },
        {
          "name": "D#6",
          "midi": 87,
          "time": 188.2415699999943,
          "velocity": 0.8661417322834646,
          "duration": 0.7142849999999896
        },
        {
          "name": "G6",
          "midi": 91,
          "time": 188.2415699999943,
          "velocity": 0.8661417322834646,
          "duration": 0.7142849999999896
        },
        {
          "name": "A#3",
          "midi": 58,
          "time": 189.2305799999943,
          "velocity": 0.8661417322834646,
          "duration": 0.06868124999999736
        },
        {
          "name": "D#4",
          "midi": 63,
          "time": 189.31299749999428,
          "velocity": 0.8661417322834646,
          "duration": 0.06868124999999736
        },
        {
          "name": "A#4",
          "midi": 70,
          "time": 189.39541499999427,
          "velocity": 0.8661417322834646,
          "duration": 0.06868124999999736
        },
        {
          "name": "D#5",
          "midi": 75,
          "time": 189.47783249999426,
          "velocity": 0.8661417322834646,
          "duration": 0.06868124999999736
        },
        {
          "name": "A#5",
          "midi": 82,
          "time": 189.56024999999426,
          "velocity": 0.8661417322834646,
          "duration": 0.06868124999999736
        },
        {
          "name": "D#6",
          "midi": 87,
          "time": 189.64266749999425,
          "velocity": 0.8661417322834646,
          "duration": 0.06868124999999736
        },
        {
          "name": "G6",
          "midi": 91,
          "time": 189.72508499999424,
          "velocity": 0.8661417322834646,
          "duration": 1.0714274999999702
        },
        {
          "name": "A#6",
          "midi": 94,
          "time": 189.80750249999423,
          "velocity": 0.8661417322834646,
          "duration": 0.9890099999999791
        },
        {
          "name": "D#7",
          "midi": 99,
          "time": 189.88991999999422,
          "velocity": 0.8661417322834646,
          "duration": 0.9065924999999879
        },
        {
          "name": "G7",
          "midi": 103,
          "time": 189.9723374999942,
          "velocity": 0.8661417322834646,
          "duration": 0.8241749999999968
        },
        {
          "name": "A#5",
          "midi": 82,
          "time": 192.07398374999423,
          "velocity": 0.8661417322834646,
          "duration": 0.15796687499999962
        },
        {
          "name": "B5",
          "midi": 83,
          "time": 192.09458812499423,
          "velocity": 0.8661417322834646,
          "duration": 0.13736249999999472
        },
        {
          "name": "G6",
          "midi": 91,
          "time": 192.2594231249942,
          "velocity": 0.8661417322834646,
          "duration": 0.13736249999999472
        },
        {
          "name": "F#6",
          "midi": 90,
          "time": 192.4242581249942,
          "velocity": 0.8661417322834646,
          "duration": 0.06868124999999736
        },
        {
          "name": "G6",
          "midi": 91,
          "time": 192.5066756249942,
          "velocity": 0.8661417322834646,
          "duration": 0.06868124999999736
        },
        {
          "name": "F#6",
          "midi": 90,
          "time": 192.58909312499418,
          "velocity": 0.8661417322834646,
          "duration": 0.13736249999999472
        },
        {
          "name": "A6",
          "midi": 93,
          "time": 192.79513687499417,
          "velocity": 0.8661417322834646,
          "duration": 0.13736249999999472
        },
        {
          "name": "G6",
          "midi": 91,
          "time": 192.95997187499415,
          "velocity": 0.8661417322834646,
          "duration": 0.13736249999999472
        },
        {
          "name": "F#6",
          "midi": 90,
          "time": 193.12480687499414,
          "velocity": 0.8661417322834646,
          "duration": 0.06868124999999736
        },
        {
          "name": "G6",
          "midi": 91,
          "time": 193.20722437499413,
          "velocity": 0.8661417322834646,
          "duration": 0.06868124999999736
        },
        {
          "name": "F#6",
          "midi": 90,
          "time": 193.28964187499412,
          "velocity": 0.8661417322834646,
          "duration": 0.06868124999999736
        },
        {
          "name": "D6",
          "midi": 86,
          "time": 193.3720593749941,
          "velocity": 0.8661417322834646,
          "duration": 0.06868124999999736
        },
        {
          "name": "E6",
          "midi": 88,
          "time": 193.4956856249941,
          "velocity": 0.8661417322834646,
          "duration": 0.13736249999999472
        },
        {
          "name": "B6",
          "midi": 95,
          "time": 193.6605206249941,
          "velocity": 0.8661417322834646,
          "duration": 0.13736249999999472
        },
        {
          "name": "A6",
          "midi": 93,
          "time": 193.82535562499407,
          "velocity": 0.8661417322834646,
          "duration": 0.06868124999999736
        },
        {
          "name": "B6",
          "midi": 95,
          "time": 193.90777312499407,
          "velocity": 0.8661417322834646,
          "duration": 0.06868124999999736
        },
        {
          "name": "A6",
          "midi": 93,
          "time": 193.99019062499406,
          "velocity": 0.8661417322834646,
          "duration": 0.06868124999999736
        },
        {
          "name": "B6",
          "midi": 95,
          "time": 194.07260812499405,
          "velocity": 0.8661417322834646,
          "duration": 0.06868124999999736
        },
        {
          "name": "D7",
          "midi": 98,
          "time": 194.19623437499405,
          "velocity": 0.8661417322834646,
          "duration": 0.13736249999999472
        },
        {
          "name": "B6",
          "midi": 95,
          "time": 194.36106937499403,
          "velocity": 0.8661417322834646,
          "duration": 0.13736249999999472
        },
        {
          "name": "A6",
          "midi": 93,
          "time": 194.525904374994,
          "velocity": 0.8661417322834646,
          "duration": 0.13736249999999472
        },
        {
          "name": "B6",
          "midi": 95,
          "time": 194.690739374994,
          "velocity": 0.8661417322834646,
          "duration": 0.13736249999999472
        },
        {
          "name": "B5",
          "midi": 83,
          "time": 195.22645312499398,
          "velocity": 0.8661417322834646,
          "duration": 0.13736249999999472
        },
        {
          "name": "G6",
          "midi": 91,
          "time": 195.39128812499396,
          "velocity": 0.8661417322834646,
          "duration": 0.13736249999999472
        },
        {
          "name": "F#6",
          "midi": 90,
          "time": 195.55612312499395,
          "velocity": 0.8661417322834646,
          "duration": 0.06868124999999736
        },
        {
          "name": "G6",
          "midi": 91,
          "time": 195.63854062499394,
          "velocity": 0.8661417322834646,
          "duration": 0.06868124999999736
        },
        {
          "name": "F#6",
          "midi": 90,
          "time": 195.72095812499393,
          "velocity": 0.8661417322834646,
          "duration": 0.13736249999999472
        },
        {
          "name": "A6",
          "midi": 93,
          "time": 195.92700187499392,
          "velocity": 0.8661417322834646,
          "duration": 0.13736249999999472
        },
        {
          "name": "G6",
          "midi": 91,
          "time": 196.0918368749939,
          "velocity": 0.8661417322834646,
          "duration": 0.13736249999999472
        },
        {
          "name": "F#6",
          "midi": 90,
          "time": 196.25667187499388,
          "velocity": 0.8661417322834646,
          "duration": 0.06868124999999736
        },
        {
          "name": "G6",
          "midi": 91,
          "time": 196.33908937499388,
          "velocity": 0.8661417322834646,
          "duration": 0.06868124999999736
        },
        {
          "name": "F#6",
          "midi": 90,
          "time": 196.42150687499387,
          "velocity": 0.8661417322834646,
          "duration": 0.06868124999999736
        },
        {
          "name": "D6",
          "midi": 86,
          "time": 196.50392437499386,
          "velocity": 0.8661417322834646,
          "duration": 0.06868124999999736
        },
        {
          "name": "E6",
          "midi": 88,
          "time": 196.62755062499386,
          "velocity": 0.8661417322834646,
          "duration": 0.13736249999999472
        },
        {
          "name": "B6",
          "midi": 95,
          "time": 196.79238562499384,
          "velocity": 0.8661417322834646,
          "duration": 0.13736249999999472
        },
        {
          "name": "A6",
          "midi": 93,
          "time": 196.95722062499382,
          "velocity": 0.8661417322834646,
          "duration": 0.06868124999999736
        },
        {
          "name": "B6",
          "midi": 95,
          "time": 197.03963812499381,
          "velocity": 0.8661417322834646,
          "duration": 0.06868124999999736
        },
        {
          "name": "A6",
          "midi": 93,
          "time": 197.1220556249938,
          "velocity": 0.8661417322834646,
          "duration": 0.06868124999999736
        },
        {
          "name": "B6",
          "midi": 95,
          "time": 197.2044731249938,
          "velocity": 0.8661417322834646,
          "duration": 0.06868124999999736
        },
        {
          "name": "D7",
          "midi": 98,
          "time": 197.3280993749938,
          "velocity": 0.8661417322834646,
          "duration": 0.13736249999999472
        },
        {
          "name": "B6",
          "midi": 95,
          "time": 197.49293437499378,
          "velocity": 0.8661417322834646,
          "duration": 0.13736249999999472
        },
        {
          "name": "A6",
          "midi": 93,
          "time": 197.65776937499376,
          "velocity": 0.8661417322834646,
          "duration": 0.13736249999999472
        },
        {
          "name": "B6",
          "midi": 95,
          "time": 197.82260437499374,
          "velocity": 0.8661417322834646,
          "duration": 1.263734999999997
        }
      ],
      "controlChanges": {
        "7": [
          {
            "number": 7,
            "time": 0,
            "value": 1
          }
        ],
        "10": [
          {
            "number": 10,
            "time": 0,
            "value": 0.5039370078740157
          }
        ],
        "64": [
          {
            "number": 64,
            "time": 192.03277499999422,
            "value": 1
          },
          {
            "number": 64,
            "time": 192.75392812499416,
            "value": 0
          },
          {
            "number": 64,
            "time": 192.75392812499416,
            "value": 1
          },
          {
            "number": 64,
            "time": 193.4544768749941,
            "value": 0
          },
          {
            "number": 64,
            "time": 193.4544768749941,
            "value": 1
          },
          {
            "number": 64,
            "time": 194.15502562499404,
            "value": 0
          },
          {
            "number": 64,
            "time": 194.15502562499404,
            "value": 1
          },
          {
            "number": 64,
            "time": 194.85557437499398,
            "value": 0
          },
          {
            "number": 64,
            "time": 194.85557437499398,
            "value": 1
          },
          {
            "number": 64,
            "time": 195.8857931249939,
            "value": 0
          },
          {
            "number": 64,
            "time": 195.8857931249939,
            "value": 1
          },
          {
            "number": 64,
            "time": 196.58634187499385,
            "value": 0
          },
          {
            "number": 64,
            "time": 196.58634187499385,
            "value": 1
          },
          {
            "number": 64,
            "time": 197.2868906249938,
            "value": 0
          },
          {
            "number": 64,
            "time": 197.2868906249938,
            "value": 1
          }
        ]
      },
      "id": 1,
      "name": "Right Hand",
      "instrumentNumber": 0,
      "instrument": "acoustic grand piano",
      "instrumentFamily": "piano",
      "channelNumber": 0,
      "isPercussion": false
    },
    {
      "startTime": 1.1538449999999998,
      "duration": 197.877549374993,
      "length": 1497,
      "notes": [
        {
          "name": "D1",
          "midi": 26,
          "time": 1.1538449999999998,
          "velocity": 0.8661417322834646,
          "duration": 4.862632499999999
        },
        {
          "name": "D2",
          "midi": 38,
          "time": 1.3186799999999999,
          "velocity": 0.8661417322834646,
          "duration": 4.697797499999999
        },
        {
          "name": "D1",
          "midi": 26,
          "time": 6.263729999999999,
          "velocity": 0.8661417322834646,
          "duration": 1.2362625000000005
        },
        {
          "name": "D2",
          "midi": 38,
          "time": 6.428564999999999,
          "velocity": 0.8661417322834646,
          "duration": 1.0714275000000004
        },
        {
          "name": "D1",
          "midi": 26,
          "time": 7.582409999999999,
          "velocity": 0.8661417322834646,
          "duration": 1.2362625000000005
        },
        {
          "name": "D2",
          "midi": 38,
          "time": 7.7472449999999995,
          "velocity": 0.8661417322834646,
          "duration": 1.0714275000000004
        },
        {
          "name": "D1",
          "midi": 26,
          "time": 8.90109,
          "velocity": 0.8661417322834646,
          "duration": 0.7142850000000003
        },
        {
          "name": "D2",
          "midi": 38,
          "time": 9.065925,
          "velocity": 0.8661417322834646,
          "duration": 0.5494500000000002
        },
        {
          "name": "D2",
          "midi": 38,
          "time": 9.725265,
          "velocity": 0.8661417322834646,
          "duration": 0.5494500000000002
        },
        {
          "name": "D2",
          "midi": 38,
          "time": 10.384605,
          "velocity": 0.8661417322834646,
          "duration": 0.2747250000000001
        },
        {
          "name": "A2",
          "midi": 45,
          "time": 10.384605,
          "velocity": 0.8661417322834646,
          "duration": 0.2747250000000001
        },
        {
          "name": "D2",
          "midi": 38,
          "time": 10.714275,
          "velocity": 0.8661417322834646,
          "duration": 0.2747250000000001
        },
        {
          "name": "A2",
          "midi": 45,
          "time": 10.714275,
          "velocity": 0.8661417322834646,
          "duration": 0.2747250000000001
        },
        {
          "name": "D3",
          "midi": 50,
          "time": 10.714275,
          "velocity": 0.8661417322834646,
          "duration": 0.2747250000000001
        },
        {
          "name": "D2",
          "midi": 38,
          "time": 11.043945,
          "velocity": 0.8661417322834646,
          "duration": 0.2747250000000001
        },
        {
          "name": "A2",
          "midi": 45,
          "time": 11.043945,
          "velocity": 0.8661417322834646,
          "duration": 0.2747250000000001
        },
        {
          "name": "D3",
          "midi": 50,
          "time": 11.043945,
          "velocity": 0.8661417322834646,
          "duration": 0.2747250000000001
        },
        {
          "name": "D2",
          "midi": 38,
          "time": 11.373615000000001,
          "velocity": 0.8661417322834646,
          "duration": 0.13736250000000005
        },
        {
          "name": "A2",
          "midi": 45,
          "time": 11.373615000000001,
          "velocity": 0.8661417322834646,
          "duration": 0.13736250000000005
        },
        {
          "name": "D3",
          "midi": 50,
          "time": 11.373615000000001,
          "velocity": 0.8661417322834646,
          "duration": 0.13736250000000005
        },
        {
          "name": "D2",
          "midi": 38,
          "time": 11.538450000000001,
          "velocity": 0.8661417322834646,
          "duration": 0.13736250000000005
        },
        {
          "name": "A2",
          "midi": 45,
          "time": 11.538450000000001,
          "velocity": 0.8661417322834646,
          "duration": 0.13736250000000005
        },
        {
          "name": "D3",
          "midi": 50,
          "time": 11.538450000000001,
          "velocity": 0.8661417322834646,
          "duration": 0.13736250000000005
        },
        {
          "name": "D2",
          "midi": 38,
          "time": 11.703285000000001,
          "velocity": 0.8661417322834646,
          "duration": 0.13736250000000005
        },
        {
          "name": "D3",
          "midi": 50,
          "time": 11.868120000000001,
          "velocity": 0.8661417322834646,
          "duration": 0.13736250000000005
        },
        {
          "name": "F3",
          "midi": 53,
          "time": 11.868120000000001,
          "velocity": 0.8661417322834646,
          "duration": 0.13736250000000005
        },
        {
          "name": "D2",
          "midi": 38,
          "time": 12.032955000000001,
          "velocity": 0.8661417322834646,
          "duration": 0.13736250000000005
        },
        {
          "name": "D3",
          "midi": 50,
          "time": 12.197790000000001,
          "velocity": 0.8661417322834646,
          "duration": 0.13736250000000005
        },
        {
          "name": "F3",
          "midi": 53,
          "time": 12.197790000000001,
          "velocity": 0.8661417322834646,
          "duration": 0.13736250000000005
        },
        {
          "name": "D2",
          "midi": 38,
          "time": 12.362625000000001,
          "velocity": 0.8661417322834646,
          "duration": 0.13736250000000005
        },
        {
          "name": "D3",
          "midi": 50,
          "time": 12.527460000000001,
          "velocity": 0.8661417322834646,
          "duration": 0.13736250000000005
        },
        {
          "name": "F3",
          "midi": 53,
          "time": 12.527460000000001,
          "velocity": 0.8661417322834646,
          "duration": 0.13736250000000005
        },
        {
          "name": "D2",
          "midi": 38,
          "time": 12.692295000000001,
          "velocity": 0.8661417322834646,
          "duration": 0.13736250000000005
        },
        {
          "name": "D3",
          "midi": 50,
          "time": 12.857130000000002,
          "velocity": 0.8661417322834646,
          "duration": 0.13736250000000005
        },
        {
          "name": "F3",
          "midi": 53,
          "time": 12.857130000000002,
          "velocity": 0.8661417322834646,
          "duration": 0.13736250000000005
        },
        {
          "name": "D2",
          "midi": 38,
          "time": 13.021965000000002,
          "velocity": 0.8661417322834646,
          "duration": 0.13736250000000005
        },
        {
          "name": "D3",
          "midi": 50,
          "time": 13.186800000000002,
          "velocity": 0.8661417322834646,
          "duration": 0.13736250000000005
        },
        {
          "name": "F3",
          "midi": 53,
          "time": 13.186800000000002,
          "velocity": 0.8661417322834646,
          "duration": 0.13736250000000005
        },
        {
          "name": "D2",
          "midi": 38,
          "time": 13.351635000000002,
          "velocity": 0.8661417322834646,
          "duration": 0.13736250000000005
        },
        {
          "name": "D3",
          "midi": 50,
          "time": 13.516470000000002,
          "velocity": 0.8661417322834646,
          "duration": 0.13736250000000005
        },
        {
          "name": "F3",
          "midi": 53,
          "time": 13.516470000000002,
          "velocity": 0.8661417322834646,
          "duration": 0.13736250000000005
        },
        {
          "name": "D2",
          "midi": 38,
          "time": 13.681305000000002,
          "velocity": 0.8661417322834646,
          "duration": 0.13736250000000005
        },
        {
          "name": "D3",
          "midi": 50,
          "time": 13.846140000000002,
          "velocity": 0.8661417322834646,
          "duration": 0.13736250000000005
        },
        {
          "name": "F3",
          "midi": 53,
          "time": 13.846140000000002,
          "velocity": 0.8661417322834646,
          "duration": 0.13736250000000005
        },
        {
          "name": "D2",
          "midi": 38,
          "time": 14.010975000000002,
          "velocity": 0.8661417322834646,
          "duration": 0.13736250000000005
        },
        {
          "name": "D3",
          "midi": 50,
          "time": 14.175810000000002,
          "velocity": 0.8661417322834646,
          "duration": 0.13736250000000005
        },
        {
          "name": "F3",
          "midi": 53,
          "time": 14.175810000000002,
          "velocity": 0.8661417322834646,
          "duration": 0.13736250000000005
        },
        {
          "name": "D2",
          "midi": 38,
          "time": 14.340645000000002,
          "velocity": 0.8661417322834646,
          "duration": 0.13736250000000005
        },
        {
          "name": "D3",
          "midi": 50,
          "time": 14.505480000000002,
          "velocity": 0.8661417322834646,
          "duration": 0.13736250000000005
        },
        {
          "name": "F3",
          "midi": 53,
          "time": 14.505480000000002,
          "velocity": 0.8661417322834646,
          "duration": 0.13736250000000005
        },
        {
          "name": "D2",
          "midi": 38,
          "time": 14.670315000000002,
          "velocity": 0.8661417322834646,
          "duration": 0.13736250000000005
        },
        {
          "name": "D3",
          "midi": 50,
          "time": 14.835150000000002,
          "velocity": 0.8661417322834646,
          "duration": 0.13736250000000005
        },
        {
          "name": "F3",
          "midi": 53,
          "time": 14.835150000000002,
          "velocity": 0.8661417322834646,
          "duration": 0.13736250000000005
        },
        {
          "name": "D2",
          "midi": 38,
          "time": 14.999985000000002,
          "velocity": 0.8661417322834646,
          "duration": 0.13736250000000005
        },
        {
          "name": "D3",
          "midi": 50,
          "time": 15.164820000000002,
          "velocity": 0.8661417322834646,
          "duration": 0.13736250000000005
        },
        {
          "name": "F3",
          "midi": 53,
          "time": 15.164820000000002,
          "velocity": 0.8661417322834646,
          "duration": 0.13736250000000005
        },
        {
          "name": "D2",
          "midi": 38,
          "time": 15.329655000000002,
          "velocity": 0.8661417322834646,
          "duration": 0.13736250000000005
        },
        {
          "name": "D3",
          "midi": 50,
          "time": 15.494490000000003,
          "velocity": 0.8661417322834646,
          "duration": 0.13736250000000005
        },
        {
          "name": "F3",
          "midi": 53,
          "time": 15.494490000000003,
          "velocity": 0.8661417322834646,
          "duration": 0.13736250000000005
        },
        {
          "name": "D2",
          "midi": 38,
          "time": 15.659325000000003,
          "velocity": 0.8661417322834646,
          "duration": 0.13736250000000005
        },
        {
          "name": "D3",
          "midi": 50,
          "time": 15.824160000000003,
          "velocity": 0.8661417322834646,
          "duration": 0.13736250000000005
        },
        {
          "name": "F3",
          "midi": 53,
          "time": 15.824160000000003,
          "velocity": 0.8661417322834646,
          "duration": 0.13736250000000005
        },
        {
          "name": "D2",
          "midi": 38,
          "time": 15.988995000000003,
          "velocity": 0.8661417322834646,
          "duration": 0.13736249999999828
        },
        {
          "name": "D3",
          "midi": 50,
          "time": 16.15383,
          "velocity": 0.8661417322834646,
          "duration": 0.13736249999999828
        },
        {
          "name": "F3",
          "midi": 53,
          "time": 16.15383,
          "velocity": 0.8661417322834646,
          "duration": 0.13736249999999828
        },
        {
          "name": "D2",
          "midi": 38,
          "time": 16.318664999999996,
          "velocity": 0.8661417322834646,
          "duration": 0.13736249999999828
        },
        {
          "name": "D3",
          "midi": 50,
          "time": 16.483499999999992,
          "velocity": 0.8661417322834646,
          "duration": 0.13736249999999828
        },
        {
          "name": "F3",
          "midi": 53,
          "time": 16.483499999999992,
          "velocity": 0.8661417322834646,
          "duration": 0.13736249999999828
        },
        {
          "name": "D2",
          "midi": 38,
          "time": 16.64833499999999,
          "velocity": 0.8661417322834646,
          "duration": 0.13736249999999828
        },
        {
          "name": "D3",
          "midi": 50,
          "time": 16.813169999999985,
          "velocity": 0.8661417322834646,
          "duration": 0.13736249999999828
        },
        {
          "name": "F3",
          "midi": 53,
          "time": 16.813169999999985,
          "velocity": 0.8661417322834646,
          "duration": 0.13736249999999828
        },
        {
          "name": "D2",
          "midi": 38,
          "time": 16.978004999999982,
          "velocity": 0.8661417322834646,
          "duration": 0.13736249999999828
        },
        {
          "name": "D3",
          "midi": 50,
          "time": 17.14283999999998,
          "velocity": 0.8661417322834646,
          "duration": 0.13736249999999828
        },
        {
          "name": "F3",
          "midi": 53,
          "time": 17.14283999999998,
          "velocity": 0.8661417322834646,
          "duration": 0.13736249999999828
        },
        {
          "name": "D2",
          "midi": 38,
          "time": 17.307674999999975,
          "velocity": 0.8661417322834646,
          "duration": 0.13736249999999828
        },
        {
          "name": "D3",
          "midi": 50,
          "time": 17.47250999999997,
          "velocity": 0.8661417322834646,
          "duration": 0.13736249999999828
        },
        {
          "name": "F3",
          "midi": 53,
          "time": 17.47250999999997,
          "velocity": 0.8661417322834646,
          "duration": 0.13736249999999828
        },
        {
          "name": "D2",
          "midi": 38,
          "time": 17.637344999999968,
          "velocity": 0.8661417322834646,
          "duration": 0.13736249999999828
        },
        {
          "name": "D3",
          "midi": 50,
          "time": 17.802179999999964,
          "velocity": 0.8661417322834646,
          "duration": 0.13736249999999828
        },
        {
          "name": "F3",
          "midi": 53,
          "time": 17.802179999999964,
          "velocity": 0.8661417322834646,
          "duration": 0.13736249999999828
        },
        {
          "name": "D2",
          "midi": 38,
          "time": 17.96701499999996,
          "velocity": 0.8661417322834646,
          "duration": 0.13736249999999828
        },
        {
          "name": "D3",
          "midi": 50,
          "time": 18.131849999999957,
          "velocity": 0.8661417322834646,
          "duration": 0.13736249999999828
        },
        {
          "name": "F3",
          "midi": 53,
          "time": 18.131849999999957,
          "velocity": 0.8661417322834646,
          "duration": 0.13736249999999828
        },
        {
          "name": "D2",
          "midi": 38,
          "time": 18.296684999999954,
          "velocity": 0.8661417322834646,
          "duration": 0.13736249999999828
        },
        {
          "name": "D3",
          "midi": 50,
          "time": 18.46151999999995,
          "velocity": 0.8661417322834646,
          "duration": 0.13736249999999828
        },
        {
          "name": "F3",
          "midi": 53,
          "time": 18.46151999999995,
          "velocity": 0.8661417322834646,
          "duration": 0.13736249999999828
        },
        {
          "name": "D2",
          "midi": 38,
          "time": 18.626354999999947,
          "velocity": 0.8661417322834646,
          "duration": 0.13736249999999828
        },
        {
          "name": "D3",
          "midi": 50,
          "time": 18.791189999999943,
          "velocity": 0.8661417322834646,
          "duration": 0.13736249999999828
        },
        {
          "name": "F3",
          "midi": 53,
          "time": 18.791189999999943,
          "velocity": 0.8661417322834646,
          "duration": 0.13736249999999828
        },
        {
          "name": "D2",
          "midi": 38,
          "time": 18.95602499999994,
          "velocity": 0.8661417322834646,
          "duration": 0.13736249999999828
        },
        {
          "name": "D3",
          "midi": 50,
          "time": 19.120859999999936,
          "velocity": 0.8661417322834646,
          "duration": 0.13736249999999828
        },
        {
          "name": "F3",
          "midi": 53,
          "time": 19.120859999999936,
          "velocity": 0.8661417322834646,
          "duration": 0.13736249999999828
        },
        {
          "name": "D2",
          "midi": 38,
          "time": 19.285694999999933,
          "velocity": 0.8661417322834646,
          "duration": 0.13736249999999828
        },
        {
          "name": "D3",
          "midi": 50,
          "time": 19.45052999999993,
          "velocity": 0.8661417322834646,
          "duration": 0.13736249999999828
        },
        {
          "name": "F3",
          "midi": 53,
          "time": 19.45052999999993,
          "velocity": 0.8661417322834646,
          "duration": 0.13736249999999828
        },
        {
          "name": "D2",
          "midi": 38,
          "time": 19.615364999999926,
          "velocity": 0.8661417322834646,
          "duration": 0.13736249999999828
        },
        {
          "name": "D3",
          "midi": 50,
          "time": 19.780199999999923,
          "velocity": 0.8661417322834646,
          "duration": 0.13736249999999828
        },
        {
          "name": "F3",
          "midi": 53,
          "time": 19.780199999999923,
          "velocity": 0.8661417322834646,
          "duration": 0.13736249999999828
        },
        {
          "name": "D2",
          "midi": 38,
          "time": 19.94503499999992,
          "velocity": 0.8661417322834646,
          "duration": 0.13736249999999828
        },
        {
          "name": "D3",
          "midi": 50,
          "time": 20.109869999999916,
          "velocity": 0.8661417322834646,
          "duration": 0.13736249999999828
        },
        {
          "name": "F3",
          "midi": 53,
          "time": 20.109869999999916,
          "velocity": 0.8661417322834646,
          "duration": 0.13736249999999828
        },
        {
          "name": "D2",
          "midi": 38,
          "time": 20.274704999999912,
          "velocity": 0.8661417322834646,
          "duration": 0.13736249999999828
        },
        {
          "name": "D3",
          "midi": 50,
          "time": 20.43953999999991,
          "velocity": 0.8661417322834646,
          "duration": 0.13736249999999828
        },
        {
          "name": "F3",
          "midi": 53,
          "time": 20.43953999999991,
          "velocity": 0.8661417322834646,
          "duration": 0.13736249999999828
        },
        {
          "name": "D2",
          "midi": 38,
          "time": 20.604374999999905,
          "velocity": 0.8661417322834646,
          "duration": 0.13736249999999828
        },
        {
          "name": "D3",
          "midi": 50,
          "time": 20.7692099999999,
          "velocity": 0.8661417322834646,
          "duration": 0.13736249999999828
        },
        {
          "name": "F3",
          "midi": 53,
          "time": 20.7692099999999,
          "velocity": 0.8661417322834646,
          "duration": 0.13736249999999828
        },
        {
          "name": "D2",
          "midi": 38,
          "time": 20.934044999999898,
          "velocity": 0.8661417322834646,
          "duration": 0.13736249999999828
        },
        {
          "name": "D3",
          "midi": 50,
          "time": 21.098879999999895,
          "velocity": 0.8661417322834646,
          "duration": 0.13736249999999828
        },
        {
          "name": "F3",
          "midi": 53,
          "time": 21.098879999999895,
          "velocity": 0.8661417322834646,
          "duration": 0.13736249999999828
        },
        {
          "name": "D2",
          "midi": 38,
          "time": 21.26371499999989,
          "velocity": 0.8661417322834646,
          "duration": 0.13736249999999828
        },
        {
          "name": "D3",
          "midi": 50,
          "time": 21.428549999999888,
          "velocity": 0.8661417322834646,
          "duration": 0.13736249999999828
        },
        {
          "name": "F3",
          "midi": 53,
          "time": 21.428549999999888,
          "velocity": 0.8661417322834646,
          "duration": 0.13736249999999828
        },
        {
          "name": "D2",
          "midi": 38,
          "time": 21.593384999999884,
          "velocity": 0.8661417322834646,
          "duration": 0.13736249999999828
        },
        {
          "name": "D3",
          "midi": 50,
          "time": 21.75821999999988,
          "velocity": 0.8661417322834646,
          "duration": 0.13736249999999828
        },
        {
          "name": "F3",
          "midi": 53,
          "time": 21.75821999999988,
          "velocity": 0.8661417322834646,
          "duration": 0.13736249999999828
        },
        {
          "name": "D2",
          "midi": 38,
          "time": 21.923054999999877,
          "velocity": 0.8661417322834646,
          "duration": 0.13736249999999828
        },
        {
          "name": "D3",
          "midi": 50,
          "time": 22.087889999999874,
          "velocity": 0.8661417322834646,
          "duration": 0.13736249999999828
        },
        {
          "name": "F3",
          "midi": 53,
          "time": 22.087889999999874,
          "velocity": 0.8661417322834646,
          "duration": 0.13736249999999828
        },
        {
          "name": "A#1",
          "midi": 34,
          "time": 22.25272499999987,
          "velocity": 0.8661417322834646,
          "duration": 0.13736249999999828
        },
        {
          "name": "A#2",
          "midi": 46,
          "time": 22.417559999999867,
          "velocity": 0.8661417322834646,
          "duration": 0.13736249999999828
        },
        {
          "name": "D3",
          "midi": 50,
          "time": 22.417559999999867,
          "velocity": 0.8661417322834646,
          "duration": 0.13736249999999828
        },
        {
          "name": "A#1",
          "midi": 34,
          "time": 22.582394999999863,
          "velocity": 0.8661417322834646,
          "duration": 0.13736249999999828
        },
        {
          "name": "A#2",
          "midi": 46,
          "time": 22.74722999999986,
          "velocity": 0.8661417322834646,
          "duration": 0.13736249999999828
        },
        {
          "name": "D3",
          "midi": 50,
          "time": 22.74722999999986,
          "velocity": 0.8661417322834646,
          "duration": 0.13736249999999828
        },
        {
          "name": "C2",
          "midi": 36,
          "time": 22.912064999999856,
          "velocity": 0.8661417322834646,
          "duration": 0.13736249999999828
        },
        {
          "name": "C3",
          "midi": 48,
          "time": 23.076899999999853,
          "velocity": 0.8661417322834646,
          "duration": 0.13736249999999828
        },
        {
          "name": "E3",
          "midi": 52,
          "time": 23.076899999999853,
          "velocity": 0.8661417322834646,
          "duration": 0.13736249999999828
        },
        {
          "name": "C2",
          "midi": 36,
          "time": 23.24173499999985,
          "velocity": 0.8661417322834646,
          "duration": 0.13736249999999828
        },
        {
          "name": "C3",
          "midi": 48,
          "time": 23.406569999999846,
          "velocity": 0.8661417322834646,
          "duration": 0.13736249999999828
        },
        {
          "name": "E3",
          "midi": 52,
          "time": 23.406569999999846,
          "velocity": 0.8661417322834646,
          "duration": 0.13736249999999828
        },
        {
          "name": "D2",
          "midi": 38,
          "time": 23.571404999999842,
          "velocity": 0.8661417322834646,
          "duration": 0.13736249999999828
        },
        {
          "name": "D3",
          "midi": 50,
          "time": 23.73623999999984,
          "velocity": 0.8661417322834646,
          "duration": 0.13736249999999828
        },
        {
          "name": "F3",
          "midi": 53,
          "time": 23.73623999999984,
          "velocity": 0.8661417322834646,
          "duration": 0.13736249999999828
        },
        {
          "name": "D2",
          "midi": 38,
          "time": 23.901074999999835,
          "velocity": 0.8661417322834646,
          "duration": 0.13736249999999828
        },
        {
          "name": "D3",
          "midi": 50,
          "time": 24.065909999999832,
          "velocity": 0.8661417322834646,
          "duration": 0.13736249999999828
        },
        {
          "name": "F3",
          "midi": 53,
          "time": 24.065909999999832,
          "velocity": 0.8661417322834646,
          "duration": 0.13736249999999828
        },
        {
          "name": "D2",
          "midi": 38,
          "time": 24.23074499999983,
          "velocity": 0.8661417322834646,
          "duration": 0.13736249999999828
        },
        {
          "name": "D3",
          "midi": 50,
          "time": 24.395579999999825,
          "velocity": 0.8661417322834646,
          "duration": 0.13736249999999828
        },
        {
          "name": "F3",
          "midi": 53,
          "time": 24.395579999999825,
          "velocity": 0.8661417322834646,
          "duration": 0.13736249999999828
        },
        {
          "name": "D2",
          "midi": 38,
          "time": 24.56041499999982,
          "velocity": 0.8661417322834646,
          "duration": 0.13736249999999828
        },
        {
          "name": "D3",
          "midi": 50,
          "time": 24.725249999999818,
          "velocity": 0.8661417322834646,
          "duration": 0.13736249999999828
        },
        {
          "name": "F3",
          "midi": 53,
          "time": 24.725249999999818,
          "velocity": 0.8661417322834646,
          "duration": 0.13736249999999828
        },
        {
          "name": "A#1",
          "midi": 34,
          "time": 24.890084999999814,
          "velocity": 0.8661417322834646,
          "duration": 0.13736249999999828
        },
        {
          "name": "A#2",
          "midi": 46,
          "time": 25.05491999999981,
          "velocity": 0.8661417322834646,
          "duration": 0.13736249999999828
        },
        {
          "name": "D3",
          "midi": 50,
          "time": 25.05491999999981,
          "velocity": 0.8661417322834646,
          "duration": 0.13736249999999828
        },
        {
          "name": "A#1",
          "midi": 34,
          "time": 25.219754999999807,
          "velocity": 0.8661417322834646,
          "duration": 0.13736249999999828
        },
        {
          "name": "A#2",
          "midi": 46,
          "time": 25.384589999999804,
          "velocity": 0.8661417322834646,
          "duration": 0.13736249999999828
        },
        {
          "name": "D3",
          "midi": 50,
          "time": 25.384589999999804,
          "velocity": 0.8661417322834646,
          "duration": 0.13736249999999828
        },
        {
          "name": "C2",
          "midi": 36,
          "time": 25.5494249999998,
          "velocity": 0.8661417322834646,
          "duration": 0.13736249999999828
        },
        {
          "name": "C3",
          "midi": 48,
          "time": 25.714259999999797,
          "velocity": 0.8661417322834646,
          "duration": 0.13736249999999828
        },
        {
          "name": "E3",
          "midi": 52,
          "time": 25.714259999999797,
          "velocity": 0.8661417322834646,
          "duration": 0.13736249999999828
        },
        {
          "name": "C2",
          "midi": 36,
          "time": 25.879094999999793,
          "velocity": 0.8661417322834646,
          "duration": 0.13736249999999828
        },
        {
          "name": "C3",
          "midi": 48,
          "time": 26.04392999999979,
          "velocity": 0.8661417322834646,
          "duration": 0.13736249999999828
        },
        {
          "name": "E3",
          "midi": 52,
          "time": 26.04392999999979,
          "velocity": 0.8661417322834646,
          "duration": 0.13736249999999828
        },
        {
          "name": "D2",
          "midi": 38,
          "time": 26.208764999999786,
          "velocity": 0.8661417322834646,
          "duration": 0.13736249999999828
        },
        {
          "name": "D3",
          "midi": 50,
          "time": 26.373599999999783,
          "velocity": 0.8661417322834646,
          "duration": 0.13736249999999828
        },
        {
          "name": "E2",
          "midi": 40,
          "time": 26.53843499999978,
          "velocity": 0.8661417322834646,
          "duration": 0.13736249999999828
        },
        {
          "name": "E3",
          "midi": 52,
          "time": 26.703269999999776,
          "velocity": 0.8661417322834646,
          "duration": 0.13736249999999828
        },
        {
          "name": "F2",
          "midi": 41,
          "time": 26.868104999999773,
          "velocity": 0.8661417322834646,
          "duration": 0.13736249999999828
        },
        {
          "name": "F3",
          "midi": 53,
          "time": 27.03293999999977,
          "velocity": 0.8661417322834646,
          "duration": 0.13736249999999828
        },
        {
          "name": "G2",
          "midi": 43,
          "time": 27.197774999999766,
          "velocity": 0.8661417322834646,
          "duration": 0.13736249999999828
        },
        {
          "name": "G3",
          "midi": 55,
          "time": 27.362609999999762,
          "velocity": 0.8661417322834646,
          "duration": 0.13736249999999828
        },
        {
          "name": "A#1",
          "midi": 34,
          "time": 27.52744499999976,
          "velocity": 0.8661417322834646,
          "duration": 0.13736249999999828
        },
        {
          "name": "A#2",
          "midi": 46,
          "time": 27.692279999999755,
          "velocity": 0.8661417322834646,
          "duration": 0.13736249999999828
        },
        {
          "name": "D3",
          "midi": 50,
          "time": 27.692279999999755,
          "velocity": 0.8661417322834646,
          "duration": 0.13736249999999828
        },
        {
          "name": "A#1",
          "midi": 34,
          "time": 27.85711499999975,
          "velocity": 0.8661417322834646,
          "duration": 0.13736249999999828
        },
        {
          "name": "A#2",
          "midi": 46,
          "time": 28.021949999999748,
          "velocity": 0.8661417322834646,
          "duration": 0.13736249999999828
        },
        {
          "name": "D3",
          "midi": 50,
          "time": 28.021949999999748,
          "velocity": 0.8661417322834646,
          "duration": 0.13736249999999828
        },
        {
          "name": "C2",
          "midi": 36,
          "time": 28.186784999999745,
          "velocity": 0.8661417322834646,
          "duration": 0.13736249999999828
        },
        {
          "name": "C3",
          "midi": 48,
          "time": 28.35161999999974,
          "velocity": 0.8661417322834646,
          "duration": 0.13736249999999828
        },
        {
          "name": "E3",
          "midi": 52,
          "time": 28.35161999999974,
          "velocity": 0.8661417322834646,
          "duration": 0.13736249999999828
        },
        {
          "name": "C2",
          "midi": 36,
          "time": 28.516454999999738,
          "velocity": 0.8661417322834646,
          "duration": 0.13736249999999828
        },
        {
          "name": "C3",
          "midi": 48,
          "time": 28.681289999999734,
          "velocity": 0.8661417322834646,
          "duration": 0.13736249999999828
        },
        {
          "name": "E3",
          "midi": 52,
          "time": 28.681289999999734,
          "velocity": 0.8661417322834646,
          "duration": 0.13736249999999828
        },
        {
          "name": "D2",
          "midi": 38,
          "time": 28.84612499999973,
          "velocity": 0.8661417322834646,
          "duration": 0.13736249999999828
        },
        {
          "name": "D3",
          "midi": 50,
          "time": 29.010959999999727,
          "velocity": 0.8661417322834646,
          "duration": 0.13736249999999828
        },
        {
          "name": "F3",
          "midi": 53,
          "time": 29.010959999999727,
          "velocity": 0.8661417322834646,
          "duration": 0.13736249999999828
        },
        {
          "name": "D2",
          "midi": 38,
          "time": 29.175794999999724,
          "velocity": 0.8661417322834646,
          "duration": 0.13736249999999828
        },
        {
          "name": "D3",
          "midi": 50,
          "time": 29.34062999999972,
          "velocity": 0.8661417322834646,
          "duration": 0.13736249999999828
        },
        {
          "name": "F3",
          "midi": 53,
          "time": 29.34062999999972,
          "velocity": 0.8661417322834646,
          "duration": 0.13736249999999828
        },
        {
          "name": "D2",
          "midi": 38,
          "time": 29.505464999999717,
          "velocity": 0.8661417322834646,
          "duration": 0.13736249999999828
        },
        {
          "name": "D3",
          "midi": 50,
          "time": 29.670299999999713,
          "velocity": 0.8661417322834646,
          "duration": 0.13736249999999828
        },
        {
          "name": "F3",
          "midi": 53,
          "time": 29.670299999999713,
          "velocity": 0.8661417322834646,
          "duration": 0.13736249999999828
        },
        {
          "name": "D2",
          "midi": 38,
          "time": 29.83513499999971,
          "velocity": 0.8661417322834646,
          "duration": 0.13736249999999828
        },
        {
          "name": "D3",
          "midi": 50,
          "time": 29.999969999999706,
          "velocity": 0.8661417322834646,
          "duration": 0.13736249999999828
        },
        {
          "name": "F3",
          "midi": 53,
          "time": 29.999969999999706,
          "velocity": 0.8661417322834646,
          "duration": 0.13736249999999828
        },
        {
          "name": "G1",
          "midi": 31,
          "time": 30.164804999999703,
          "velocity": 0.8661417322834646,
          "duration": 0.13736249999999828
        },
        {
          "name": "A#2",
          "midi": 46,
          "time": 30.3296399999997,
          "velocity": 0.8661417322834646,
          "duration": 0.13736249999999828
        },
        {
          "name": "G1",
          "midi": 31,
          "time": 30.494474999999696,
          "velocity": 0.8661417322834646,
          "duration": 0.13736249999999828
        },
        {
          "name": "A#2",
          "midi": 46,
          "time": 30.659309999999692,
          "velocity": 0.8661417322834646,
          "duration": 0.13736249999999828
        },
        {
          "name": "A1",
          "midi": 33,
          "time": 30.82414499999969,
          "velocity": 0.8661417322834646,
          "duration": 0.13736249999999828
        },
        {
          "name": "A2",
          "midi": 45,
          "time": 30.988979999999685,
          "velocity": 0.8661417322834646,
          "duration": 0.13736249999999828
        },
        {
          "name": "C3",
          "midi": 48,
          "time": 30.988979999999685,
          "velocity": 0.8661417322834646,
          "duration": 0.13736249999999828
        },
        {
          "name": "A1",
          "midi": 33,
          "time": 31.153814999999682,
          "velocity": 0.8661417322834646,
          "duration": 0.13736249999999828
        },
        {
          "name": "A2",
          "midi": 45,
          "time": 31.31864999999968,
          "velocity": 0.8661417322834646,
          "duration": 0.13736249999999828
        },
        {
          "name": "C3",
          "midi": 48,
          "time": 31.31864999999968,
          "velocity": 0.8661417322834646,
          "duration": 0.13736249999999828
        },
        {
          "name": "A#1",
          "midi": 34,
          "time": 31.483484999999675,
          "velocity": 0.8661417322834646,
          "duration": 0.13736249999999828
        },
        {
          "name": "A#2",
          "midi": 46,
          "time": 31.64831999999967,
          "velocity": 0.8661417322834646,
          "duration": 0.13736249999999828
        },
        {
          "name": "D3",
          "midi": 50,
          "time": 31.64831999999967,
          "velocity": 0.8661417322834646,
          "duration": 0.13736249999999828
        },
        {
          "name": "B1",
          "midi": 35,
          "time": 31.813154999999668,
          "velocity": 0.8661417322834646,
          "duration": 0.13736249999999828
        },
        {
          "name": "B2",
          "midi": 47,
          "time": 31.977989999999664,
          "velocity": 0.8661417322834646,
          "duration": 0.13736250000000183
        },
        {
          "name": "D3",
          "midi": 50,
          "time": 31.977989999999664,
          "velocity": 0.8661417322834646,
          "duration": 0.13736250000000183
        },
        {
          "name": "C2",
          "midi": 36,
          "time": 32.14282499999967,
          "velocity": 0.8661417322834646,
          "duration": 0.13736250000000183
        },
        {
          "name": "C3",
          "midi": 48,
          "time": 32.30765999999967,
          "velocity": 0.8661417322834646,
          "duration": 0.13736250000000183
        },
        {
          "name": "E3",
          "midi": 52,
          "time": 32.30765999999967,
          "velocity": 0.8661417322834646,
          "duration": 0.13736250000000183
        },
        {
          "name": "C2",
          "midi": 36,
          "time": 32.472494999999675,
          "velocity": 0.8661417322834646,
          "duration": 0.13736250000000183
        },
        {
          "name": "C3",
          "midi": 48,
          "time": 32.63732999999968,
          "velocity": 0.8661417322834646,
          "duration": 0.13736250000000183
        },
        {
          "name": "E3",
          "midi": 52,
          "time": 32.63732999999968,
          "velocity": 0.8661417322834646,
          "duration": 0.13736250000000183
        },
        {
          "name": "A#1",
          "midi": 34,
          "time": 32.80216499999968,
          "velocity": 0.8661417322834646,
          "duration": 0.13736250000000183
        },
        {
          "name": "A#2",
          "midi": 46,
          "time": 32.966999999999686,
          "velocity": 0.8661417322834646,
          "duration": 0.13736250000000183
        },
        {
          "name": "D3",
          "midi": 50,
          "time": 32.966999999999686,
          "velocity": 0.8661417322834646,
          "duration": 0.13736250000000183
        },
        {
          "name": "A#1",
          "midi": 34,
          "time": 33.13183499999969,
          "velocity": 0.8661417322834646,
          "duration": 0.13736250000000183
        },
        {
          "name": "A#2",
          "midi": 46,
          "time": 33.29666999999969,
          "velocity": 0.8661417322834646,
          "duration": 0.13736250000000183
        },
        {
          "name": "D3",
          "midi": 50,
          "time": 33.29666999999969,
          "velocity": 0.8661417322834646,
          "duration": 0.13736250000000183
        },
        {
          "name": "C2",
          "midi": 36,
          "time": 33.4615049999997,
          "velocity": 0.8661417322834646,
          "duration": 0.13736250000000183
        },
        {
          "name": "C3",
          "midi": 48,
          "time": 33.6263399999997,
          "velocity": 0.8661417322834646,
          "duration": 0.13736250000000183
        },
        {
          "name": "E3",
          "midi": 52,
          "time": 33.6263399999997,
          "velocity": 0.8661417322834646,
          "duration": 0.13736250000000183
        },
        {
          "name": "C2",
          "midi": 36,
          "time": 33.791174999999704,
          "velocity": 0.8661417322834646,
          "duration": 0.13736250000000183
        },
        {
          "name": "C3",
          "midi": 48,
          "time": 33.95600999999971,
          "velocity": 0.8661417322834646,
          "duration": 0.13736250000000183
        },
        {
          "name": "E3",
          "midi": 52,
          "time": 33.95600999999971,
          "velocity": 0.8661417322834646,
          "duration": 0.13736250000000183
        },
        {
          "name": "D2",
          "midi": 38,
          "time": 34.12084499999971,
          "velocity": 0.8661417322834646,
          "duration": 0.13736250000000183
        },
        {
          "name": "D3",
          "midi": 50,
          "time": 34.285679999999715,
          "velocity": 0.8661417322834646,
          "duration": 0.13736250000000183
        },
        {
          "name": "F3",
          "midi": 53,
          "time": 34.285679999999715,
          "velocity": 0.8661417322834646,
          "duration": 0.13736250000000183
        },
        {
          "name": "D2",
          "midi": 38,
          "time": 34.45051499999972,
          "velocity": 0.8661417322834646,
          "duration": 0.13736250000000183
        },
        {
          "name": "D3",
          "midi": 50,
          "time": 34.61534999999972,
          "velocity": 0.8661417322834646,
          "duration": 0.13736250000000183
        },
        {
          "name": "F3",
          "midi": 53,
          "time": 34.61534999999972,
          "velocity": 0.8661417322834646,
          "duration": 0.13736250000000183
        },
        {
          "name": "D2",
          "midi": 38,
          "time": 34.780184999999726,
          "velocity": 0.8661417322834646,
          "duration": 0.13736250000000183
        },
        {
          "name": "D3",
          "midi": 50,
          "time": 34.94501999999973,
          "velocity": 0.8661417322834646,
          "duration": 0.13736250000000183
        },
        {
          "name": "F3",
          "midi": 53,
          "time": 34.94501999999973,
          "velocity": 0.8661417322834646,
          "duration": 0.13736250000000183
        },
        {
          "name": "D2",
          "midi": 38,
          "time": 35.10985499999973,
          "velocity": 0.8661417322834646,
          "duration": 0.13736250000000183
        },
        {
          "name": "D3",
          "midi": 50,
          "time": 35.27468999999974,
          "velocity": 0.8661417322834646,
          "duration": 0.13736250000000183
        },
        {
          "name": "F3",
          "midi": 53,
          "time": 35.27468999999974,
          "velocity": 0.8661417322834646,
          "duration": 0.13736250000000183
        },
        {
          "name": "A#1",
          "midi": 34,
          "time": 35.43952499999974,
          "velocity": 0.8661417322834646,
          "duration": 0.13736250000000183
        },
        {
          "name": "A#2",
          "midi": 46,
          "time": 35.604359999999744,
          "velocity": 0.8661417322834646,
          "duration": 0.13736250000000183
        },
        {
          "name": "D3",
          "midi": 50,
          "time": 35.604359999999744,
          "velocity": 0.8661417322834646,
          "duration": 0.13736250000000183
        },
        {
          "name": "A#1",
          "midi": 34,
          "time": 35.76919499999975,
          "velocity": 0.8661417322834646,
          "duration": 0.13736250000000183
        },
        {
          "name": "A#2",
          "midi": 46,
          "time": 35.93402999999975,
          "velocity": 0.8661417322834646,
          "duration": 0.13736250000000183
        },
        {
          "name": "D3",
          "midi": 50,
          "time": 35.93402999999975,
          "velocity": 0.8661417322834646,
          "duration": 0.13736250000000183
        },
        {
          "name": "C2",
          "midi": 36,
          "time": 36.098864999999755,
          "velocity": 0.8661417322834646,
          "duration": 0.13736250000000183
        },
        {
          "name": "C3",
          "midi": 48,
          "time": 36.26369999999976,
          "velocity": 0.8661417322834646,
          "duration": 0.13736250000000183
        },
        {
          "name": "E3",
          "midi": 52,
          "time": 36.26369999999976,
          "velocity": 0.8661417322834646,
          "duration": 0.13736250000000183
        },
        {
          "name": "C2",
          "midi": 36,
          "time": 36.42853499999976,
          "velocity": 0.8661417322834646,
          "duration": 0.13736250000000183
        },
        {
          "name": "C3",
          "midi": 48,
          "time": 36.593369999999766,
          "velocity": 0.8661417322834646,
          "duration": 0.13736250000000183
        },
        {
          "name": "E3",
          "midi": 52,
          "time": 36.593369999999766,
          "velocity": 0.8661417322834646,
          "duration": 0.13736250000000183
        },
        {
          "name": "D2",
          "midi": 38,
          "time": 36.75820499999977,
          "velocity": 0.8661417322834646,
          "duration": 0.13736250000000183
        },
        {
          "name": "D3",
          "midi": 50,
          "time": 36.92303999999977,
          "velocity": 0.8661417322834646,
          "duration": 0.13736250000000183
        },
        {
          "name": "E2",
          "midi": 40,
          "time": 37.08787499999978,
          "velocity": 0.8661417322834646,
          "duration": 0.13736250000000183
        },
        {
          "name": "E3",
          "midi": 52,
          "time": 37.25270999999978,
          "velocity": 0.8661417322834646,
          "duration": 0.13736250000000183
        },
        {
          "name": "F2",
          "midi": 41,
          "time": 37.417544999999784,
          "velocity": 0.8661417322834646,
          "duration": 0.13736250000000183
        },
        {
          "name": "F3",
          "midi": 53,
          "time": 37.58237999999979,
          "velocity": 0.8661417322834646,
          "duration": 0.13736250000000183
        },
        {
          "name": "G2",
          "midi": 43,
          "time": 37.74721499999979,
          "velocity": 0.8661417322834646,
          "duration": 0.13736250000000183
        },
        {
          "name": "G3",
          "midi": 55,
          "time": 37.912049999999795,
          "velocity": 0.8661417322834646,
          "duration": 0.13736250000000183
        },
        {
          "name": "A#1",
          "midi": 34,
          "time": 38.0768849999998,
          "velocity": 0.8661417322834646,
          "duration": 0.13736250000000183
        },
        {
          "name": "A#2",
          "midi": 46,
          "time": 38.2417199999998,
          "velocity": 0.8661417322834646,
          "duration": 0.13736250000000183
        },
        {
          "name": "D3",
          "midi": 50,
          "time": 38.2417199999998,
          "velocity": 0.8661417322834646,
          "duration": 0.13736250000000183
        },
        {
          "name": "A#1",
          "midi": 34,
          "time": 38.406554999999805,
          "velocity": 0.8661417322834646,
          "duration": 0.13736250000000183
        },
        {
          "name": "A#2",
          "midi": 46,
          "time": 38.57138999999981,
          "velocity": 0.8661417322834646,
          "duration": 0.13736250000000183
        },
        {
          "name": "D3",
          "midi": 50,
          "time": 38.57138999999981,
          "velocity": 0.8661417322834646,
          "duration": 0.13736250000000183
        },
        {
          "name": "C2",
          "midi": 36,
          "time": 38.73622499999981,
          "velocity": 0.8661417322834646,
          "duration": 0.13736250000000183
        },
        {
          "name": "C3",
          "midi": 48,
          "time": 38.901059999999816,
          "velocity": 0.8661417322834646,
          "duration": 0.13736250000000183
        },
        {
          "name": "E3",
          "midi": 52,
          "time": 38.901059999999816,
          "velocity": 0.8661417322834646,
          "duration": 0.13736250000000183
        },
        {
          "name": "C2",
          "midi": 36,
          "time": 39.06589499999982,
          "velocity": 0.8661417322834646,
          "duration": 0.13736250000000183
        },
        {
          "name": "C3",
          "midi": 48,
          "time": 39.230729999999824,
          "velocity": 0.8661417322834646,
          "duration": 0.13736250000000183
        },
        {
          "name": "E3",
          "midi": 52,
          "time": 39.230729999999824,
          "velocity": 0.8661417322834646,
          "duration": 0.13736250000000183
        },
        {
          "name": "D2",
          "midi": 38,
          "time": 39.39556499999983,
          "velocity": 0.8661417322834646,
          "duration": 0.13736250000000183
        },
        {
          "name": "D3",
          "midi": 50,
          "time": 39.56039999999983,
          "velocity": 0.8661417322834646,
          "duration": 0.13736250000000183
        },
        {
          "name": "F3",
          "midi": 53,
          "time": 39.56039999999983,
          "velocity": 0.8661417322834646,
          "duration": 0.13736250000000183
        },
        {
          "name": "D2",
          "midi": 38,
          "time": 39.725234999999834,
          "velocity": 0.8661417322834646,
          "duration": 0.13736250000000183
        },
        {
          "name": "D3",
          "midi": 50,
          "time": 39.89006999999984,
          "velocity": 0.8661417322834646,
          "duration": 0.13736250000000183
        },
        {
          "name": "F3",
          "midi": 53,
          "time": 39.89006999999984,
          "velocity": 0.8661417322834646,
          "duration": 0.13736250000000183
        },
        {
          "name": "D2",
          "midi": 38,
          "time": 40.05490499999984,
          "velocity": 0.8661417322834646,
          "duration": 0.13736250000000183
        },
        {
          "name": "D3",
          "midi": 50,
          "time": 40.219739999999845,
          "velocity": 0.8661417322834646,
          "duration": 0.13736250000000183
        },
        {
          "name": "F3",
          "midi": 53,
          "time": 40.219739999999845,
          "velocity": 0.8661417322834646,
          "duration": 0.13736250000000183
        },
        {
          "name": "D2",
          "midi": 38,
          "time": 40.38457499999985,
          "velocity": 0.8661417322834646,
          "duration": 0.13736250000000183
        },
        {
          "name": "D3",
          "midi": 50,
          "time": 40.54940999999985,
          "velocity": 0.8661417322834646,
          "duration": 0.13736250000000183
        },
        {
          "name": "F3",
          "midi": 53,
          "time": 40.54940999999985,
          "velocity": 0.8661417322834646,
          "duration": 0.13736250000000183
        },
        {
          "name": "G1",
          "midi": 31,
          "time": 40.714244999999856,
          "velocity": 0.8661417322834646,
          "duration": 0.13736250000000183
        },
        {
          "name": "A#2",
          "midi": 46,
          "time": 40.87907999999986,
          "velocity": 0.8661417322834646,
          "duration": 0.13736250000000183
        },
        {
          "name": "G1",
          "midi": 31,
          "time": 41.04391499999986,
          "velocity": 0.8661417322834646,
          "duration": 0.13736250000000183
        },
        {
          "name": "A#2",
          "midi": 46,
          "time": 41.20874999999987,
          "velocity": 0.8661417322834646,
          "duration": 0.13736250000000183
        },
        {
          "name": "A1",
          "midi": 33,
          "time": 41.37358499999987,
          "velocity": 0.8661417322834646,
          "duration": 0.13736250000000183
        },
        {
          "name": "A2",
          "midi": 45,
          "time": 41.538419999999874,
          "velocity": 0.8661417322834646,
          "duration": 0.13736250000000183
        },
        {
          "name": "C3",
          "midi": 48,
          "time": 41.538419999999874,
          "velocity": 0.8661417322834646,
          "duration": 0.13736250000000183
        },
        {
          "name": "A1",
          "midi": 33,
          "time": 41.70325499999988,
          "velocity": 0.8661417322834646,
          "duration": 0.13736250000000183
        },
        {
          "name": "A2",
          "midi": 45,
          "time": 41.86808999999988,
          "velocity": 0.8661417322834646,
          "duration": 0.13736250000000183
        },
        {
          "name": "C3",
          "midi": 48,
          "time": 41.86808999999988,
          "velocity": 0.8661417322834646,
          "duration": 0.13736250000000183
        },
        {
          "name": "D2",
          "midi": 38,
          "time": 42.032924999999885,
          "velocity": 0.8661417322834646,
          "duration": 0.13736250000000183
        },
        {
          "name": "D3",
          "midi": 50,
          "time": 42.19775999999989,
          "velocity": 0.8661417322834646,
          "duration": 0.13736250000000183
        },
        {
          "name": "F3",
          "midi": 53,
          "time": 42.19775999999989,
          "velocity": 0.8661417322834646,
          "duration": 0.13736250000000183
        },
        {
          "name": "D2",
          "midi": 38,
          "time": 42.36259499999989,
          "velocity": 0.8661417322834646,
          "duration": 0.13736250000000183
        },
        {
          "name": "D3",
          "midi": 50,
          "time": 42.527429999999896,
          "velocity": 0.8661417322834646,
          "duration": 0.13736250000000183
        },
        {
          "name": "F3",
          "midi": 53,
          "time": 42.527429999999896,
          "velocity": 0.8661417322834646,
          "duration": 0.13736250000000183
        },
        {
          "name": "D2",
          "midi": 38,
          "time": 42.6922649999999,
          "velocity": 0.8661417322834646,
          "duration": 0.13736250000000183
        },
        {
          "name": "D3",
          "midi": 50,
          "time": 42.8570999999999,
          "velocity": 0.8661417322834646,
          "duration": 0.13736250000000183
        },
        {
          "name": "F3",
          "midi": 53,
          "time": 42.8570999999999,
          "velocity": 0.8661417322834646,
          "duration": 0.13736250000000183
        },
        {
          "name": "D2",
          "midi": 38,
          "time": 43.02193499999991,
          "velocity": 0.8661417322834646,
          "duration": 0.13736250000000183
        },
        {
          "name": "D3",
          "midi": 50,
          "time": 43.18676999999991,
          "velocity": 0.8661417322834646,
          "duration": 0.13736250000000183
        },
        {
          "name": "F3",
          "midi": 53,
          "time": 43.18676999999991,
          "velocity": 0.8661417322834646,
          "duration": 0.13736250000000183
        },
        {
          "name": "D2",
          "midi": 38,
          "time": 43.351604999999914,
          "velocity": 0.8661417322834646,
          "duration": 0.13736250000000183
        },
        {
          "name": "D3",
          "midi": 50,
          "time": 43.51643999999992,
          "velocity": 0.8661417322834646,
          "duration": 0.13736250000000183
        },
        {
          "name": "F3",
          "midi": 53,
          "time": 43.51643999999992,
          "velocity": 0.8661417322834646,
          "duration": 0.13736250000000183
        },
        {
          "name": "D2",
          "midi": 38,
          "time": 43.68127499999992,
          "velocity": 0.8661417322834646,
          "duration": 0.13736250000000183
        },
        {
          "name": "D3",
          "midi": 50,
          "time": 43.846109999999925,
          "velocity": 0.8661417322834646,
          "duration": 0.13736250000000183
        },
        {
          "name": "F3",
          "midi": 53,
          "time": 43.846109999999925,
          "velocity": 0.8661417322834646,
          "duration": 0.13736250000000183
        },
        {
          "name": "D2",
          "midi": 38,
          "time": 44.01094499999993,
          "velocity": 0.8661417322834646,
          "duration": 0.13736250000000183
        },
        {
          "name": "D3",
          "midi": 50,
          "time": 44.17577999999993,
          "velocity": 0.8661417322834646,
          "duration": 0.13736250000000183
        },
        {
          "name": "F3",
          "midi": 53,
          "time": 44.17577999999993,
          "velocity": 0.8661417322834646,
          "duration": 0.13736250000000183
        },
        {
          "name": "D2",
          "midi": 38,
          "time": 44.340614999999936,
          "velocity": 0.8661417322834646,
          "duration": 0.13736250000000183
        },
        {
          "name": "D3",
          "midi": 50,
          "time": 44.50544999999994,
          "velocity": 0.8661417322834646,
          "duration": 0.13736250000000183
        },
        {
          "name": "F3",
          "midi": 53,
          "time": 44.50544999999994,
          "velocity": 0.8661417322834646,
          "duration": 0.13736250000000183
        },
        {
          "name": "D2",
          "midi": 38,
          "time": 44.67028499999994,
          "velocity": 0.8661417322834646,
          "duration": 0.13736250000000183
        },
        {
          "name": "D3",
          "midi": 50,
          "time": 44.83511999999995,
          "velocity": 0.8661417322834646,
          "duration": 0.13736250000000183
        },
        {
          "name": "F3",
          "midi": 53,
          "time": 44.83511999999995,
          "velocity": 0.8661417322834646,
          "duration": 0.13736250000000183
        },
        {
          "name": "D2",
          "midi": 38,
          "time": 44.99995499999995,
          "velocity": 0.8661417322834646,
          "duration": 0.13736250000000183
        },
        {
          "name": "D3",
          "midi": 50,
          "time": 45.164789999999954,
          "velocity": 0.8661417322834646,
          "duration": 0.13736250000000183
        },
        {
          "name": "F3",
          "midi": 53,
          "time": 45.164789999999954,
          "velocity": 0.8661417322834646,
          "duration": 0.13736250000000183
        },
        {
          "name": "D2",
          "midi": 38,
          "time": 45.32962499999996,
          "velocity": 0.8661417322834646,
          "duration": 0.13736250000000183
        },
        {
          "name": "D3",
          "midi": 50,
          "time": 45.49445999999996,
          "velocity": 0.8661417322834646,
          "duration": 0.13736250000000183
        },
        {
          "name": "F3",
          "midi": 53,
          "time": 45.49445999999996,
          "velocity": 0.8661417322834646,
          "duration": 0.13736250000000183
        },
        {
          "name": "D2",
          "midi": 38,
          "time": 45.659294999999965,
          "velocity": 0.8661417322834646,
          "duration": 0.13736250000000183
        },
        {
          "name": "D3",
          "midi": 50,
          "time": 45.82412999999997,
          "velocity": 0.8661417322834646,
          "duration": 0.13736250000000183
        },
        {
          "name": "F3",
          "midi": 53,
          "time": 45.82412999999997,
          "velocity": 0.8661417322834646,
          "duration": 0.13736250000000183
        },
        {
          "name": "A#1",
          "midi": 34,
          "time": 45.98896499999997,
          "velocity": 0.8661417322834646,
          "duration": 0.13736250000000183
        },
        {
          "name": "A#2",
          "midi": 46,
          "time": 46.153799999999976,
          "velocity": 0.8661417322834646,
          "duration": 0.13736250000000183
        },
        {
          "name": "D3",
          "midi": 50,
          "time": 46.153799999999976,
          "velocity": 0.8661417322834646,
          "duration": 0.13736250000000183
        },
        {
          "name": "A#1",
          "midi": 34,
          "time": 46.31863499999998,
          "velocity": 0.8661417322834646,
          "duration": 0.13736250000000183
        },
        {
          "name": "A#2",
          "midi": 46,
          "time": 46.48346999999998,
          "velocity": 0.8661417322834646,
          "duration": 0.13736250000000183
        },
        {
          "name": "D3",
          "midi": 50,
          "time": 46.48346999999998,
          "velocity": 0.8661417322834646,
          "duration": 0.13736250000000183
        },
        {
          "name": "A#1",
          "midi": 34,
          "time": 46.648304999999986,
          "velocity": 0.8661417322834646,
          "duration": 0.13736250000000183
        },
        {
          "name": "A#2",
          "midi": 46,
          "time": 46.81313999999999,
          "velocity": 0.8661417322834646,
          "duration": 0.13736250000000183
        },
        {
          "name": "D3",
          "midi": 50,
          "time": 46.81313999999999,
          "velocity": 0.8661417322834646,
          "duration": 0.13736250000000183
        },
        {
          "name": "A#1",
          "midi": 34,
          "time": 46.977974999999994,
          "velocity": 0.8661417322834646,
          "duration": 0.13736250000000183
        },
        {
          "name": "A#2",
          "midi": 46,
          "time": 47.14281,
          "velocity": 0.8661417322834646,
          "duration": 0.13736250000000183
        },
        {
          "name": "D3",
          "midi": 50,
          "time": 47.14281,
          "velocity": 0.8661417322834646,
          "duration": 0.13736250000000183
        },
        {
          "name": "A#1",
          "midi": 34,
          "time": 47.307645,
          "velocity": 0.8661417322834646,
          "duration": 0.13736250000000183
        },
        {
          "name": "A#2",
          "midi": 46,
          "time": 47.472480000000004,
          "velocity": 0.8661417322834646,
          "duration": 0.13736250000000183
        },
        {
          "name": "D3",
          "midi": 50,
          "time": 47.472480000000004,
          "velocity": 0.8661417322834646,
          "duration": 0.13736250000000183
        },
        {
          "name": "A#1",
          "midi": 34,
          "time": 47.63731500000001,
          "velocity": 0.8661417322834646,
          "duration": 0.13736250000000183
        },
        {
          "name": "A#2",
          "midi": 46,
          "time": 47.80215000000001,
          "velocity": 0.8661417322834646,
          "duration": 0.13736250000000183
        },
        {
          "name": "D3",
          "midi": 50,
          "time": 47.80215000000001,
          "velocity": 0.8661417322834646,
          "duration": 0.13736250000000183
        },
        {
          "name": "A#1",
          "midi": 34,
          "time": 47.966985000000015,
          "velocity": 0.8661417322834646,
          "duration": 0.13736250000000183
        },
        {
          "name": "A#2",
          "midi": 46,
          "time": 48.13182000000002,
          "velocity": 0.8661417322834646,
          "duration": 0.13736250000000183
        },
        {
          "name": "D3",
          "midi": 50,
          "time": 48.13182000000002,
          "velocity": 0.8661417322834646,
          "duration": 0.13736250000000183
        },
        {
          "name": "A#1",
          "midi": 34,
          "time": 48.29665500000002,
          "velocity": 0.8661417322834646,
          "duration": 0.13736250000000183
        },
        {
          "name": "A#2",
          "midi": 46,
          "time": 48.461490000000026,
          "velocity": 0.8661417322834646,
          "duration": 0.13736250000000183
        },
        {
          "name": "D3",
          "midi": 50,
          "time": 48.461490000000026,
          "velocity": 0.8661417322834646,
          "duration": 0.13736250000000183
        },
        {
          "name": "G1",
          "midi": 31,
          "time": 48.62632500000003,
          "velocity": 0.8661417322834646,
          "duration": 0.13736250000000183
        },
        {
          "name": "G2",
          "midi": 43,
          "time": 48.79116000000003,
          "velocity": 0.8661417322834646,
          "duration": 0.13736250000000183
        },
        {
          "name": "A#2",
          "midi": 46,
          "time": 48.79116000000003,
          "velocity": 0.8661417322834646,
          "duration": 0.13736250000000183
        },
        {
          "name": "G1",
          "midi": 31,
          "time": 48.95599500000004,
          "velocity": 0.8661417322834646,
          "duration": 0.13736250000000183
        },
        {
          "name": "A#2",
          "midi": 46,
          "time": 49.12083000000004,
          "velocity": 0.8661417322834646,
          "duration": 0.13736250000000183
        },
        {
          "name": "G1",
          "midi": 31,
          "time": 49.285665000000044,
          "velocity": 0.8661417322834646,
          "duration": 0.13736250000000183
        },
        {
          "name": "A#2",
          "midi": 46,
          "time": 49.45050000000005,
          "velocity": 0.8661417322834646,
          "duration": 0.13736250000000183
        },
        {
          "name": "G1",
          "midi": 31,
          "time": 49.61533500000005,
          "velocity": 0.8661417322834646,
          "duration": 0.13736250000000183
        },
        {
          "name": "A#2",
          "midi": 46,
          "time": 49.780170000000055,
          "velocity": 0.8661417322834646,
          "duration": 0.13736250000000183
        },
        {
          "name": "G1",
          "midi": 31,
          "time": 49.94500500000006,
          "velocity": 0.8661417322834646,
          "duration": 0.13736250000000183
        },
        {
          "name": "A#2",
          "midi": 46,
          "time": 50.10984000000006,
          "velocity": 0.8661417322834646,
          "duration": 0.13736250000000183
        },
        {
          "name": "G1",
          "midi": 31,
          "time": 50.274675000000066,
          "velocity": 0.8661417322834646,
          "duration": 0.13736250000000183
        },
        {
          "name": "A#2",
          "midi": 46,
          "time": 50.43951000000007,
          "velocity": 0.8661417322834646,
          "duration": 0.13736250000000183
        },
        {
          "name": "G1",
          "midi": 31,
          "time": 50.60434500000007,
          "velocity": 0.8661417322834646,
          "duration": 0.13736250000000183
        },
        {
          "name": "A#2",
          "midi": 46,
          "time": 50.76918000000008,
          "velocity": 0.8661417322834646,
          "duration": 0.13736250000000183
        },
        {
          "name": "G1",
          "midi": 31,
          "time": 50.93401500000008,
          "velocity": 0.8661417322834646,
          "duration": 0.13736250000000183
        },
        {
          "name": "A#2",
          "midi": 46,
          "time": 51.098850000000084,
          "velocity": 0.8661417322834646,
          "duration": 0.13736250000000183
        },
        {
          "name": "A1",
          "midi": 33,
          "time": 51.26368500000009,
          "velocity": 0.8661417322834646,
          "duration": 0.13736250000000183
        },
        {
          "name": "A2",
          "midi": 45,
          "time": 51.42852000000009,
          "velocity": 0.8661417322834646,
          "duration": 0.13736250000000183
        },
        {
          "name": "C#3",
          "midi": 49,
          "time": 51.42852000000009,
          "velocity": 0.8661417322834646,
          "duration": 0.13736250000000183
        },
        {
          "name": "A1",
          "midi": 33,
          "time": 51.593355000000095,
          "velocity": 0.8661417322834646,
          "duration": 0.13736250000000183
        },
        {
          "name": "D3",
          "midi": 50,
          "time": 51.7581900000001,
          "velocity": 0.8661417322834646,
          "duration": 0.13736250000000183
        },
        {
          "name": "A1",
          "midi": 33,
          "time": 51.9230250000001,
          "velocity": 0.8661417322834646,
          "duration": 0.13736250000000183
        },
        {
          "name": "D3",
          "midi": 50,
          "time": 52.087860000000106,
          "velocity": 0.8661417322834646,
          "duration": 0.13736250000000183
        },
        {
          "name": "A1",
          "midi": 33,
          "time": 52.25269500000011,
          "velocity": 0.8661417322834646,
          "duration": 0.13736250000000183
        },
        {
          "name": "D3",
          "midi": 50,
          "time": 52.41753000000011,
          "velocity": 0.8661417322834646,
          "duration": 0.13736250000000183
        },
        {
          "name": "A1",
          "midi": 33,
          "time": 52.58236500000012,
          "velocity": 0.8661417322834646,
          "duration": 0.13736250000000183
        },
        {
          "name": "C#3",
          "midi": 49,
          "time": 52.74720000000012,
          "velocity": 0.8661417322834646,
          "duration": 0.13736250000000183
        },
        {
          "name": "A1",
          "midi": 33,
          "time": 52.912035000000124,
          "velocity": 0.8661417322834646,
          "duration": 0.13736250000000183
        },
        {
          "name": "D3",
          "midi": 50,
          "time": 53.07687000000013,
          "velocity": 0.8661417322834646,
          "duration": 0.13736250000000183
        },
        {
          "name": "A1",
          "midi": 33,
          "time": 53.24170500000013,
          "velocity": 0.8661417322834646,
          "duration": 0.13736250000000183
        },
        {
          "name": "D3",
          "midi": 50,
          "time": 53.406540000000135,
          "velocity": 0.8661417322834646,
          "duration": 0.13736250000000183
        },
        {
          "name": "A1",
          "midi": 33,
          "time": 53.57137500000014,
          "velocity": 0.8661417322834646,
          "duration": 0.13736250000000183
        },
        {
          "name": "D3",
          "midi": 50,
          "time": 53.73621000000014,
          "velocity": 0.8661417322834646,
          "duration": 0.13736250000000183
        },
        {
          "name": "D2",
          "midi": 38,
          "time": 53.901045000000146,
          "velocity": 0.8661417322834646,
          "duration": 0.13736250000000183
        },
        {
          "name": "D3",
          "midi": 50,
          "time": 54.06588000000015,
          "velocity": 0.8661417322834646,
          "duration": 0.13736250000000183
        },
        {
          "name": "F3",
          "midi": 53,
          "time": 54.06588000000015,
          "velocity": 0.8661417322834646,
          "duration": 0.13736250000000183
        },
        {
          "name": "D2",
          "midi": 38,
          "time": 54.23071500000015,
          "velocity": 0.8661417322834646,
          "duration": 0.13736250000000183
        },
        {
          "name": "D3",
          "midi": 50,
          "time": 54.395550000000156,
          "velocity": 0.8661417322834646,
          "duration": 0.13736250000000183
        },
        {
          "name": "F3",
          "midi": 53,
          "time": 54.395550000000156,
          "velocity": 0.8661417322834646,
          "duration": 0.13736250000000183
        },
        {
          "name": "D2",
          "midi": 38,
          "time": 54.56038500000016,
          "velocity": 0.8661417322834646,
          "duration": 0.13736250000000183
        },
        {
          "name": "D3",
          "midi": 50,
          "time": 54.725220000000164,
          "velocity": 0.8661417322834646,
          "duration": 0.13736250000000183
        },
        {
          "name": "F3",
          "midi": 53,
          "time": 54.725220000000164,
          "velocity": 0.8661417322834646,
          "duration": 0.13736250000000183
        },
        {
          "name": "D2",
          "midi": 38,
          "time": 54.89005500000017,
          "velocity": 0.8661417322834646,
          "duration": 0.13736250000000183
        },
        {
          "name": "D3",
          "midi": 50,
          "time": 55.05489000000017,
          "velocity": 0.8661417322834646,
          "duration": 0.13736250000000183
        },
        {
          "name": "F3",
          "midi": 53,
          "time": 55.05489000000017,
          "velocity": 0.8661417322834646,
          "duration": 0.13736250000000183
        },
        {
          "name": "D2",
          "midi": 38,
          "time": 55.219725000000174,
          "velocity": 0.8661417322834646,
          "duration": 0.13736250000000183
        },
        {
          "name": "D3",
          "midi": 50,
          "time": 55.38456000000018,
          "velocity": 0.8661417322834646,
          "duration": 0.13736250000000183
        },
        {
          "name": "F3",
          "midi": 53,
          "time": 55.38456000000018,
          "velocity": 0.8661417322834646,
          "duration": 0.13736250000000183
        },
        {
          "name": "D2",
          "midi": 38,
          "time": 55.54939500000018,
          "velocity": 0.8661417322834646,
          "duration": 0.13736250000000183
        },
        {
          "name": "D3",
          "midi": 50,
          "time": 55.714230000000185,
          "velocity": 0.8661417322834646,
          "duration": 0.13736250000000183
        },
        {
          "name": "F3",
          "midi": 53,
          "time": 55.714230000000185,
          "velocity": 0.8661417322834646,
          "duration": 0.13736250000000183
        },
        {
          "name": "D2",
          "midi": 38,
          "time": 55.87906500000019,
          "velocity": 0.8661417322834646,
          "duration": 0.13736250000000183
        },
        {
          "name": "D3",
          "midi": 50,
          "time": 56.04390000000019,
          "velocity": 0.8661417322834646,
          "duration": 0.13736250000000183
        },
        {
          "name": "F3",
          "midi": 53,
          "time": 56.04390000000019,
          "velocity": 0.8661417322834646,
          "duration": 0.13736250000000183
        },
        {
          "name": "D2",
          "midi": 38,
          "time": 56.208735000000196,
          "velocity": 0.8661417322834646,
          "duration": 0.13736250000000183
        },
        {
          "name": "D3",
          "midi": 50,
          "time": 56.3735700000002,
          "velocity": 0.8661417322834646,
          "duration": 0.13736250000000183
        },
        {
          "name": "F3",
          "midi": 53,
          "time": 56.3735700000002,
          "velocity": 0.8661417322834646,
          "duration": 0.13736250000000183
        },
        {
          "name": "A#1",
          "midi": 34,
          "time": 56.5384050000002,
          "velocity": 0.8661417322834646,
          "duration": 0.13736250000000183
        },
        {
          "name": "A#2",
          "midi": 46,
          "time": 56.70324000000021,
          "velocity": 0.8661417322834646,
          "duration": 0.13736250000000183
        },
        {
          "name": "D3",
          "midi": 50,
          "time": 56.70324000000021,
          "velocity": 0.8661417322834646,
          "duration": 0.13736250000000183
        },
        {
          "name": "A#1",
          "midi": 34,
          "time": 56.86807500000021,
          "velocity": 0.8661417322834646,
          "duration": 0.13736250000000183
        },
        {
          "name": "A#2",
          "midi": 46,
          "time": 57.032910000000214,
          "velocity": 0.8661417322834646,
          "duration": 0.13736250000000183
        },
        {
          "name": "D3",
          "midi": 50,
          "time": 57.032910000000214,
          "velocity": 0.8661417322834646,
          "duration": 0.13736250000000183
        },
        {
          "name": "A#1",
          "midi": 34,
          "time": 57.19774500000022,
          "velocity": 0.8661417322834646,
          "duration": 0.13736250000000183
        },
        {
          "name": "A#2",
          "midi": 46,
          "time": 57.36258000000022,
          "velocity": 0.8661417322834646,
          "duration": 0.13736250000000183
        },
        {
          "name": "D3",
          "midi": 50,
          "time": 57.36258000000022,
          "velocity": 0.8661417322834646,
          "duration": 0.13736250000000183
        },
        {
          "name": "A#1",
          "midi": 34,
          "time": 57.527415000000225,
          "velocity": 0.8661417322834646,
          "duration": 0.13736250000000183
        },
        {
          "name": "A#2",
          "midi": 46,
          "time": 57.69225000000023,
          "velocity": 0.8661417322834646,
          "duration": 0.13736250000000183
        },
        {
          "name": "D3",
          "midi": 50,
          "time": 57.69225000000023,
          "velocity": 0.8661417322834646,
          "duration": 0.13736250000000183
        },
        {
          "name": "A#1",
          "midi": 34,
          "time": 57.85708500000023,
          "velocity": 0.8661417322834646,
          "duration": 0.13736250000000183
        },
        {
          "name": "A#2",
          "midi": 46,
          "time": 58.021920000000236,
          "velocity": 0.8661417322834646,
          "duration": 0.13736250000000183
        },
        {
          "name": "D3",
          "midi": 50,
          "time": 58.021920000000236,
          "velocity": 0.8661417322834646,
          "duration": 0.13736250000000183
        },
        {
          "name": "A#1",
          "midi": 34,
          "time": 58.18675500000024,
          "velocity": 0.8661417322834646,
          "duration": 0.13736250000000183
        },
        {
          "name": "A#2",
          "midi": 46,
          "time": 58.35159000000024,
          "velocity": 0.8661417322834646,
          "duration": 0.13736250000000183
        },
        {
          "name": "D3",
          "midi": 50,
          "time": 58.35159000000024,
          "velocity": 0.8661417322834646,
          "duration": 0.13736250000000183
        },
        {
          "name": "A#1",
          "midi": 34,
          "time": 58.51642500000025,
          "velocity": 0.8661417322834646,
          "duration": 0.13736250000000183
        },
        {
          "name": "A#2",
          "midi": 46,
          "time": 58.68126000000025,
          "velocity": 0.8661417322834646,
          "duration": 0.13736250000000183
        },
        {
          "name": "D3",
          "midi": 50,
          "time": 58.68126000000025,
          "velocity": 0.8661417322834646,
          "duration": 0.13736250000000183
        },
        {
          "name": "A#1",
          "midi": 34,
          "time": 58.846095000000254,
          "velocity": 0.8661417322834646,
          "duration": 0.13736250000000183
        },
        {
          "name": "A#2",
          "midi": 46,
          "time": 59.01093000000026,
          "velocity": 0.8661417322834646,
          "duration": 0.13736250000000183
        },
        {
          "name": "D3",
          "midi": 50,
          "time": 59.01093000000026,
          "velocity": 0.8661417322834646,
          "duration": 0.13736250000000183
        },
        {
          "name": "G1",
          "midi": 31,
          "time": 59.17576500000026,
          "velocity": 0.8661417322834646,
          "duration": 0.13736250000000183
        },
        {
          "name": "G2",
          "midi": 43,
          "time": 59.340600000000265,
          "velocity": 0.8661417322834646,
          "duration": 0.13736250000000183
        },
        {
          "name": "A#2",
          "midi": 46,
          "time": 59.340600000000265,
          "velocity": 0.8661417322834646,
          "duration": 0.13736250000000183
        },
        {
          "name": "G1",
          "midi": 31,
          "time": 59.50543500000027,
          "velocity": 0.8661417322834646,
          "duration": 0.13736250000000183
        },
        {
          "name": "A#2",
          "midi": 46,
          "time": 59.67027000000027,
          "velocity": 0.8661417322834646,
          "duration": 0.13736250000000183
        },
        {
          "name": "G1",
          "midi": 31,
          "time": 59.835105000000276,
          "velocity": 0.8661417322834646,
          "duration": 0.13736250000000183
        },
        {
          "name": "A#2",
          "midi": 46,
          "time": 59.99994000000028,
          "velocity": 0.8661417322834646,
          "duration": 0.13736250000000183
        },
        {
          "name": "G1",
          "midi": 31,
          "time": 60.16477500000028,
          "velocity": 0.8661417322834646,
          "duration": 0.13736250000000183
        },
        {
          "name": "A#2",
          "midi": 46,
          "time": 60.32961000000029,
          "velocity": 0.8661417322834646,
          "duration": 0.13736250000000183
        },
        {
          "name": "G#1",
          "midi": 32,
          "time": 60.49444500000029,
          "velocity": 0.8661417322834646,
          "duration": 0.13736250000000183
        },
        {
          "name": "G#2",
          "midi": 44,
          "time": 60.659280000000294,
          "velocity": 0.8661417322834646,
          "duration": 0.13736250000000183
        },
        {
          "name": "B2",
          "midi": 47,
          "time": 60.659280000000294,
          "velocity": 0.8661417322834646,
          "duration": 0.13736250000000183
        },
        {
          "name": "A1",
          "midi": 33,
          "time": 60.8241150000003,
          "velocity": 0.8661417322834646,
          "duration": 0.13736250000000183
        },
        {
          "name": "A2",
          "midi": 45,
          "time": 60.9889500000003,
          "velocity": 0.8661417322834646,
          "duration": 0.13736250000000183
        },
        {
          "name": "B2",
          "midi": 47,
          "time": 60.9889500000003,
          "velocity": 0.8661417322834646,
          "duration": 0.13736250000000183
        },
        {
          "name": "A1",
          "midi": 33,
          "time": 61.153785000000305,
          "velocity": 0.8661417322834646,
          "duration": 0.13736250000000183
        },
        {
          "name": "A2",
          "midi": 45,
          "time": 61.31862000000031,
          "velocity": 0.8661417322834646,
          "duration": 0.13736250000000183
        },
        {
          "name": "B2",
          "midi": 47,
          "time": 61.31862000000031,
          "velocity": 0.8661417322834646,
          "duration": 0.13736250000000183
        },
        {
          "name": "A1",
          "midi": 33,
          "time": 61.48345500000031,
          "velocity": 0.8661417322834646,
          "duration": 0.13736250000000183
        },
        {
          "name": "A2",
          "midi": 45,
          "time": 61.648290000000316,
          "velocity": 0.8661417322834646,
          "duration": 0.13736250000000183
        },
        {
          "name": "B2",
          "midi": 47,
          "time": 61.648290000000316,
          "velocity": 0.8661417322834646,
          "duration": 0.13736250000000183
        },
        {
          "name": "A1",
          "midi": 33,
          "time": 61.81312500000032,
          "velocity": 0.8661417322834646,
          "duration": 0.13736250000000183
        },
        {
          "name": "A2",
          "midi": 45,
          "time": 61.97796000000032,
          "velocity": 0.8661417322834646,
          "duration": 0.13736250000000183
        },
        {
          "name": "C#3",
          "midi": 49,
          "time": 61.97796000000032,
          "velocity": 0.8661417322834646,
          "duration": 0.13736250000000183
        },
        {
          "name": "A1",
          "midi": 33,
          "time": 62.142795000000326,
          "velocity": 0.8661417322834646,
          "duration": 0.13736250000000183
        },
        {
          "name": "D3",
          "midi": 50,
          "time": 62.30763000000033,
          "velocity": 0.8661417322834646,
          "duration": 0.13736250000000183
        },
        {
          "name": "A1",
          "midi": 33,
          "time": 62.472465000000334,
          "velocity": 0.8661417322834646,
          "duration": 0.13736250000000183
        },
        {
          "name": "D3",
          "midi": 50,
          "time": 62.63730000000034,
          "velocity": 0.8661417322834646,
          "duration": 0.13736250000000183
        },
        {
          "name": "A1",
          "midi": 33,
          "time": 62.80213500000034,
          "velocity": 0.8661417322834646,
          "duration": 0.13736250000000183
        },
        {
          "name": "D3",
          "midi": 50,
          "time": 62.966970000000344,
          "velocity": 0.8661417322834646,
          "duration": 0.13736250000000183
        },
        {
          "name": "A1",
          "midi": 33,
          "time": 63.13180500000035,
          "velocity": 0.8661417322834646,
          "duration": 0.13736250000000183
        },
        {
          "name": "C#3",
          "midi": 49,
          "time": 63.29664000000035,
          "velocity": 0.8661417322834646,
          "duration": 0.13736250000000183
        },
        {
          "name": "A1",
          "midi": 33,
          "time": 63.461475000000355,
          "velocity": 0.8661417322834646,
          "duration": 0.13736250000000183
        },
        {
          "name": "D3",
          "midi": 50,
          "time": 63.62631000000036,
          "velocity": 0.8661417322834646,
          "duration": 0.13736250000000183
        },
        {
          "name": "A1",
          "midi": 33,
          "time": 63.79114500000036,
          "velocity": 0.8661417322834646,
          "duration": 0.13736250000000183
        },
        {
          "name": "D3",
          "midi": 50,
          "time": 63.955980000000366,
          "velocity": 0.8661417322834646,
          "duration": 0.13736249999999472
        },
        {
          "name": "A1",
          "midi": 33,
          "time": 64.12081500000036,
          "velocity": 0.8661417322834646,
          "duration": 0.13736249999999472
        },
        {
          "name": "D3",
          "midi": 50,
          "time": 64.28565000000036,
          "velocity": 0.8661417322834646,
          "duration": 0.13736249999999472
        },
        {
          "name": "A#1",
          "midi": 34,
          "time": 64.45048500000036,
          "velocity": 0.8661417322834646,
          "duration": 0.13736249999999472
        },
        {
          "name": "F2",
          "midi": 41,
          "time": 64.61532000000035,
          "velocity": 0.8661417322834646,
          "duration": 0.13736249999999472
        },
        {
          "name": "A#2",
          "midi": 46,
          "time": 64.78015500000035,
          "velocity": 0.8661417322834646,
          "duration": 0.13736249999999472
        },
        {
          "name": "D3",
          "midi": 50,
          "time": 64.94499000000035,
          "velocity": 0.8661417322834646,
          "duration": 0.13736249999999472
        },
        {
          "name": "F3",
          "midi": 53,
          "time": 65.10982500000034,
          "velocity": 0.8661417322834646,
          "duration": 0.13736249999999472
        },
        {
          "name": "A#3",
          "midi": 58,
          "time": 65.27466000000034,
          "velocity": 0.8661417322834646,
          "duration": 0.13736249999999472
        },
        {
          "name": "D4",
          "midi": 62,
          "time": 65.43949500000033,
          "velocity": 0.8661417322834646,
          "duration": 0.27472500000000366
        },
        {
          "name": "C2",
          "midi": 36,
          "time": 65.76916500000034,
          "velocity": 0.8661417322834646,
          "duration": 0.13736249999999472
        },
        {
          "name": "G2",
          "midi": 43,
          "time": 65.93400000000034,
          "velocity": 0.8661417322834646,
          "duration": 0.13736249999999472
        },
        {
          "name": "C3",
          "midi": 48,
          "time": 66.09883500000034,
          "velocity": 0.8661417322834646,
          "duration": 0.13736249999999472
        },
        {
          "name": "E3",
          "midi": 52,
          "time": 66.26367000000033,
          "velocity": 0.8661417322834646,
          "duration": 0.13736249999999472
        },
        {
          "name": "G3",
          "midi": 55,
          "time": 66.42850500000033,
          "velocity": 0.8661417322834646,
          "duration": 0.13736249999999472
        },
        {
          "name": "C4",
          "midi": 60,
          "time": 66.59334000000032,
          "velocity": 0.8661417322834646,
          "duration": 0.13736249999999472
        },
        {
          "name": "E4",
          "midi": 64,
          "time": 66.75817500000032,
          "velocity": 0.8661417322834646,
          "duration": 0.27472500000000366
        },
        {
          "name": "D2",
          "midi": 38,
          "time": 67.08784500000033,
          "velocity": 0.8661417322834646,
          "duration": 0.13736249999999472
        },
        {
          "name": "A2",
          "midi": 45,
          "time": 67.25268000000032,
          "velocity": 0.8661417322834646,
          "duration": 0.13736249999999472
        },
        {
          "name": "D3",
          "midi": 50,
          "time": 67.41751500000032,
          "velocity": 0.8661417322834646,
          "duration": 0.13736249999999472
        },
        {
          "name": "F3",
          "midi": 53,
          "time": 67.58235000000032,
          "velocity": 0.8661417322834646,
          "duration": 0.13736249999999472
        },
        {
          "name": "A3",
          "midi": 57,
          "time": 67.74718500000031,
          "velocity": 0.8661417322834646,
          "duration": 0.13736249999999472
        },
        {
          "name": "D4",
          "midi": 62,
          "time": 67.91202000000031,
          "velocity": 0.8661417322834646,
          "duration": 0.13736249999999472
        },
        {
          "name": "F4",
          "midi": 65,
          "time": 68.07685500000031,
          "velocity": 0.8661417322834646,
          "duration": 0.27472500000000366
        },
        {
          "name": "D2",
          "midi": 38,
          "time": 68.40652500000031,
          "velocity": 0.8661417322834646,
          "duration": 0.13736249999999472
        },
        {
          "name": "A2",
          "midi": 45,
          "time": 68.57136000000031,
          "velocity": 0.8661417322834646,
          "duration": 0.13736249999999472
        },
        {
          "name": "D3",
          "midi": 50,
          "time": 68.73619500000031,
          "velocity": 0.8661417322834646,
          "duration": 0.13736249999999472
        },
        {
          "name": "F3",
          "midi": 53,
          "time": 68.9010300000003,
          "velocity": 0.8661417322834646,
          "duration": 0.13736249999999472
        },
        {
          "name": "A3",
          "midi": 57,
          "time": 69.0658650000003,
          "velocity": 0.8661417322834646,
          "duration": 0.13736249999999472
        },
        {
          "name": "D4",
          "midi": 62,
          "time": 69.2307000000003,
          "velocity": 0.8661417322834646,
          "duration": 0.13736249999999472
        },
        {
          "name": "F4",
          "midi": 65,
          "time": 69.3955350000003,
          "velocity": 0.8661417322834646,
          "duration": 0.27472500000000366
        },
        {
          "name": "A#1",
          "midi": 34,
          "time": 69.7252050000003,
          "velocity": 0.8661417322834646,
          "duration": 0.13736249999999472
        },
        {
          "name": "F2",
          "midi": 41,
          "time": 69.8900400000003,
          "velocity": 0.8661417322834646,
          "duration": 0.13736249999999472
        },
        {
          "name": "A#2",
          "midi": 46,
          "time": 70.0548750000003,
          "velocity": 0.8661417322834646,
          "duration": 0.13736249999999472
        },
        {
          "name": "D3",
          "midi": 50,
          "time": 70.21971000000029,
          "velocity": 0.8661417322834646,
          "duration": 0.13736249999999472
        },
        {
          "name": "F3",
          "midi": 53,
          "time": 70.38454500000029,
          "velocity": 0.8661417322834646,
          "duration": 0.13736249999999472
        },
        {
          "name": "A#3",
          "midi": 58,
          "time": 70.54938000000028,
          "velocity": 0.8661417322834646,
          "duration": 0.13736249999999472
        },
        {
          "name": "D4",
          "midi": 62,
          "time": 70.71421500000028,
          "velocity": 0.8661417322834646,
          "duration": 0.27472500000000366
        },
        {
          "name": "C2",
          "midi": 36,
          "time": 71.04388500000029,
          "velocity": 0.8661417322834646,
          "duration": 0.13736249999999472
        },
        {
          "name": "G2",
          "midi": 43,
          "time": 71.20872000000028,
          "velocity": 0.8661417322834646,
          "duration": 0.13736249999999472
        },
        {
          "name": "C3",
          "midi": 48,
          "time": 71.37355500000028,
          "velocity": 0.8661417322834646,
          "duration": 0.13736249999999472
        },
        {
          "name": "E3",
          "midi": 52,
          "time": 71.53839000000028,
          "velocity": 0.8661417322834646,
          "duration": 0.13736249999999472
        },
        {
          "name": "G3",
          "midi": 55,
          "time": 71.70322500000027,
          "velocity": 0.8661417322834646,
          "duration": 0.13736249999999472
        },
        {
          "name": "C4",
          "midi": 60,
          "time": 71.86806000000027,
          "velocity": 0.8661417322834646,
          "duration": 0.13736249999999472
        },
        {
          "name": "E4",
          "midi": 64,
          "time": 72.03289500000027,
          "velocity": 0.8661417322834646,
          "duration": 0.27472500000000366
        },
        {
          "name": "D2",
          "midi": 38,
          "time": 72.36256500000027,
          "velocity": 0.8661417322834646,
          "duration": 0.13736249999999472
        },
        {
          "name": "A2",
          "midi": 45,
          "time": 72.52740000000027,
          "velocity": 0.8661417322834646,
          "duration": 0.13736249999999472
        },
        {
          "name": "D3",
          "midi": 50,
          "time": 72.69223500000027,
          "velocity": 0.8661417322834646,
          "duration": 0.13736249999999472
        },
        {
          "name": "F3",
          "midi": 53,
          "time": 72.85707000000026,
          "velocity": 0.8661417322834646,
          "duration": 0.13736249999999472
        },
        {
          "name": "A3",
          "midi": 57,
          "time": 73.02190500000026,
          "velocity": 0.8661417322834646,
          "duration": 0.13736249999999472
        },
        {
          "name": "D4",
          "midi": 62,
          "time": 73.18674000000026,
          "velocity": 0.8661417322834646,
          "duration": 0.13736249999999472
        },
        {
          "name": "F4",
          "midi": 65,
          "time": 73.35157500000025,
          "velocity": 0.8661417322834646,
          "duration": 0.27472500000000366
        },
        {
          "name": "D2",
          "midi": 38,
          "time": 73.68124500000026,
          "velocity": 0.8661417322834646,
          "duration": 0.13736249999999472
        },
        {
          "name": "D3",
          "midi": 50,
          "time": 73.84608000000026,
          "velocity": 0.8661417322834646,
          "duration": 0.13736249999999472
        },
        {
          "name": "F3",
          "midi": 53,
          "time": 73.84608000000026,
          "velocity": 0.8661417322834646,
          "duration": 0.13736249999999472
        },
        {
          "name": "D2",
          "midi": 38,
          "time": 74.01091500000025,
          "velocity": 0.8661417322834646,
          "duration": 0.13736249999999472
        },
        {
          "name": "D3",
          "midi": 50,
          "time": 74.17575000000025,
          "velocity": 0.8661417322834646,
          "duration": 0.13736249999999472
        },
        {
          "name": "F3",
          "midi": 53,
          "time": 74.17575000000025,
          "velocity": 0.8661417322834646,
          "duration": 0.13736249999999472
        },
        {
          "name": "D2",
          "midi": 38,
          "time": 74.34058500000025,
          "velocity": 0.8661417322834646,
          "duration": 0.13736249999999472
        },
        {
          "name": "D3",
          "midi": 50,
          "time": 74.50542000000024,
          "velocity": 0.8661417322834646,
          "duration": 0.13736249999999472
        },
        {
          "name": "F3",
          "midi": 53,
          "time": 74.50542000000024,
          "velocity": 0.8661417322834646,
          "duration": 0.13736249999999472
        },
        {
          "name": "D2",
          "midi": 38,
          "time": 74.67025500000024,
          "velocity": 0.8661417322834646,
          "duration": 0.13736249999999472
        },
        {
          "name": "D3",
          "midi": 50,
          "time": 74.83509000000024,
          "velocity": 0.8661417322834646,
          "duration": 0.13736249999999472
        },
        {
          "name": "F3",
          "midi": 53,
          "time": 74.83509000000024,
          "velocity": 0.8661417322834646,
          "duration": 0.13736249999999472
        },
        {
          "name": "A#1",
          "midi": 34,
          "time": 74.99992500000023,
          "velocity": 0.8661417322834646,
          "duration": 0.13736249999999472
        },
        {
          "name": "A#2",
          "midi": 46,
          "time": 75.16476000000023,
          "velocity": 0.8661417322834646,
          "duration": 0.13736249999999472
        },
        {
          "name": "D3",
          "midi": 50,
          "time": 75.16476000000023,
          "velocity": 0.8661417322834646,
          "duration": 0.13736249999999472
        },
        {
          "name": "A#1",
          "midi": 34,
          "time": 75.32959500000023,
          "velocity": 0.8661417322834646,
          "duration": 0.13736249999999472
        },
        {
          "name": "A#2",
          "midi": 46,
          "time": 75.49443000000022,
          "velocity": 0.8661417322834646,
          "duration": 0.13736249999999472
        },
        {
          "name": "D3",
          "midi": 50,
          "time": 75.49443000000022,
          "velocity": 0.8661417322834646,
          "duration": 0.13736249999999472
        },
        {
          "name": "A#1",
          "midi": 34,
          "time": 75.65926500000022,
          "velocity": 0.8661417322834646,
          "duration": 0.13736249999999472
        },
        {
          "name": "A#2",
          "midi": 46,
          "time": 75.82410000000021,
          "velocity": 0.8661417322834646,
          "duration": 0.13736249999999472
        },
        {
          "name": "D3",
          "midi": 50,
          "time": 75.82410000000021,
          "velocity": 0.8661417322834646,
          "duration": 0.13736249999999472
        },
        {
          "name": "A#1",
          "midi": 34,
          "time": 75.98893500000021,
          "velocity": 0.8661417322834646,
          "duration": 0.13736249999999472
        },
        {
          "name": "A#2",
          "midi": 46,
          "time": 76.15377000000021,
          "velocity": 0.8661417322834646,
          "duration": 0.13736249999999472
        },
        {
          "name": "D3",
          "midi": 50,
          "time": 76.15377000000021,
          "velocity": 0.8661417322834646,
          "duration": 0.13736249999999472
        },
        {
          "name": "C2",
          "midi": 36,
          "time": 76.3186050000002,
          "velocity": 0.8661417322834646,
          "duration": 0.13736249999999472
        },
        {
          "name": "C3",
          "midi": 48,
          "time": 76.4834400000002,
          "velocity": 0.8661417322834646,
          "duration": 0.13736249999999472
        },
        {
          "name": "E3",
          "midi": 52,
          "time": 76.4834400000002,
          "velocity": 0.8661417322834646,
          "duration": 0.13736249999999472
        },
        {
          "name": "C2",
          "midi": 36,
          "time": 76.6482750000002,
          "velocity": 0.8661417322834646,
          "duration": 0.13736249999999472
        },
        {
          "name": "C3",
          "midi": 48,
          "time": 76.8131100000002,
          "velocity": 0.8661417322834646,
          "duration": 0.13736249999999472
        },
        {
          "name": "E3",
          "midi": 52,
          "time": 76.8131100000002,
          "velocity": 0.8661417322834646,
          "duration": 0.13736249999999472
        },
        {
          "name": "C2",
          "midi": 36,
          "time": 76.97794500000019,
          "velocity": 0.8661417322834646,
          "duration": 0.13736249999999472
        },
        {
          "name": "C3",
          "midi": 48,
          "time": 77.14278000000019,
          "velocity": 0.8661417322834646,
          "duration": 0.13736249999999472
        },
        {
          "name": "E3",
          "midi": 52,
          "time": 77.14278000000019,
          "velocity": 0.8661417322834646,
          "duration": 0.13736249999999472
        },
        {
          "name": "C2",
          "midi": 36,
          "time": 77.30761500000018,
          "velocity": 0.8661417322834646,
          "duration": 0.13736249999999472
        },
        {
          "name": "C3",
          "midi": 48,
          "time": 77.47245000000018,
          "velocity": 0.8661417322834646,
          "duration": 0.13736249999999472
        },
        {
          "name": "E3",
          "midi": 52,
          "time": 77.47245000000018,
          "velocity": 0.8661417322834646,
          "duration": 0.13736249999999472
        },
        {
          "name": "D2",
          "midi": 38,
          "time": 77.63728500000018,
          "velocity": 0.8661417322834646,
          "duration": 0.13736249999999472
        },
        {
          "name": "D3",
          "midi": 50,
          "time": 77.80212000000017,
          "velocity": 0.8661417322834646,
          "duration": 0.13736249999999472
        },
        {
          "name": "F3",
          "midi": 53,
          "time": 77.80212000000017,
          "velocity": 0.8661417322834646,
          "duration": 0.13736249999999472
        },
        {
          "name": "D2",
          "midi": 38,
          "time": 77.96695500000017,
          "velocity": 0.8661417322834646,
          "duration": 0.13736249999999472
        },
        {
          "name": "D3",
          "midi": 50,
          "time": 78.13179000000017,
          "velocity": 0.8661417322834646,
          "duration": 0.13736249999999472
        },
        {
          "name": "F3",
          "midi": 53,
          "time": 78.13179000000017,
          "velocity": 0.8661417322834646,
          "duration": 0.13736249999999472
        },
        {
          "name": "D2",
          "midi": 38,
          "time": 78.29662500000016,
          "velocity": 0.8661417322834646,
          "duration": 0.13736249999999472
        },
        {
          "name": "D3",
          "midi": 50,
          "time": 78.46146000000016,
          "velocity": 0.8661417322834646,
          "duration": 0.13736249999999472
        },
        {
          "name": "F3",
          "midi": 53,
          "time": 78.46146000000016,
          "velocity": 0.8661417322834646,
          "duration": 0.13736249999999472
        },
        {
          "name": "D2",
          "midi": 38,
          "time": 78.62629500000016,
          "velocity": 0.8661417322834646,
          "duration": 0.13736249999999472
        },
        {
          "name": "D3",
          "midi": 50,
          "time": 78.79113000000015,
          "velocity": 0.8661417322834646,
          "duration": 0.13736249999999472
        },
        {
          "name": "F3",
          "midi": 53,
          "time": 78.79113000000015,
          "velocity": 0.8661417322834646,
          "duration": 0.13736249999999472
        },
        {
          "name": "D2",
          "midi": 38,
          "time": 78.95596500000015,
          "velocity": 0.8661417322834646,
          "duration": 0.13736249999999472
        },
        {
          "name": "D3",
          "midi": 50,
          "time": 79.12080000000014,
          "velocity": 0.8661417322834646,
          "duration": 0.13736249999999472
        },
        {
          "name": "F3",
          "midi": 53,
          "time": 79.12080000000014,
          "velocity": 0.8661417322834646,
          "duration": 0.13736249999999472
        },
        {
          "name": "D2",
          "midi": 38,
          "time": 79.28563500000014,
          "velocity": 0.8661417322834646,
          "duration": 0.13736249999999472
        },
        {
          "name": "D3",
          "midi": 50,
          "time": 79.45047000000014,
          "velocity": 0.8661417322834646,
          "duration": 0.13736249999999472
        },
        {
          "name": "F3",
          "midi": 53,
          "time": 79.45047000000014,
          "velocity": 0.8661417322834646,
          "duration": 0.13736249999999472
        },
        {
          "name": "D2",
          "midi": 38,
          "time": 79.61530500000013,
          "velocity": 0.8661417322834646,
          "duration": 0.13736249999999472
        },
        {
          "name": "D3",
          "midi": 50,
          "time": 79.78014000000013,
          "velocity": 0.8661417322834646,
          "duration": 0.13736249999999472
        },
        {
          "name": "F3",
          "midi": 53,
          "time": 79.78014000000013,
          "velocity": 0.8661417322834646,
          "duration": 0.13736249999999472
        },
        {
          "name": "C2",
          "midi": 36,
          "time": 79.94497500000013,
          "velocity": 0.8661417322834646,
          "duration": 0.13736249999999472
        },
        {
          "name": "C3",
          "midi": 48,
          "time": 80.10981000000012,
          "velocity": 0.8661417322834646,
          "duration": 0.13736249999999472
        },
        {
          "name": "E3",
          "midi": 52,
          "time": 80.10981000000012,
          "velocity": 0.8661417322834646,
          "duration": 0.13736249999999472
        },
        {
          "name": "A#1",
          "midi": 34,
          "time": 80.27464500000012,
          "velocity": 0.8661417322834646,
          "duration": 0.13736249999999472
        },
        {
          "name": "A#2",
          "midi": 46,
          "time": 80.43948000000012,
          "velocity": 0.8661417322834646,
          "duration": 0.13736249999999472
        },
        {
          "name": "D3",
          "midi": 50,
          "time": 80.43948000000012,
          "velocity": 0.8661417322834646,
          "duration": 0.13736249999999472
        },
        {
          "name": "A#1",
          "midi": 34,
          "time": 80.60431500000011,
          "velocity": 0.8661417322834646,
          "duration": 0.13736249999999472
        },
        {
          "name": "A#2",
          "midi": 46,
          "time": 80.76915000000011,
          "velocity": 0.8661417322834646,
          "duration": 0.13736249999999472
        },
        {
          "name": "D3",
          "midi": 50,
          "time": 80.76915000000011,
          "velocity": 0.8661417322834646,
          "duration": 0.13736249999999472
        },
        {
          "name": "A#1",
          "midi": 34,
          "time": 80.9339850000001,
          "velocity": 0.8661417322834646,
          "duration": 0.13736249999999472
        },
        {
          "name": "A#2",
          "midi": 46,
          "time": 81.0988200000001,
          "velocity": 0.8661417322834646,
          "duration": 0.13736249999999472
        },
        {
          "name": "D3",
          "midi": 50,
          "time": 81.0988200000001,
          "velocity": 0.8661417322834646,
          "duration": 0.13736249999999472
        },
        {
          "name": "A#1",
          "midi": 34,
          "time": 81.2636550000001,
          "velocity": 0.8661417322834646,
          "duration": 0.13736249999999472
        },
        {
          "name": "A#2",
          "midi": 46,
          "time": 81.4284900000001,
          "velocity": 0.8661417322834646,
          "duration": 0.13736249999999472
        },
        {
          "name": "D3",
          "midi": 50,
          "time": 81.4284900000001,
          "velocity": 0.8661417322834646,
          "duration": 0.13736249999999472
        },
        {
          "name": "A#1",
          "midi": 34,
          "time": 81.59332500000009,
          "velocity": 0.8661417322834646,
          "duration": 0.13736249999999472
        },
        {
          "name": "A#2",
          "midi": 46,
          "time": 81.75816000000009,
          "velocity": 0.8661417322834646,
          "duration": 0.13736249999999472
        },
        {
          "name": "D3",
          "midi": 50,
          "time": 81.75816000000009,
          "velocity": 0.8661417322834646,
          "duration": 0.13736249999999472
        },
        {
          "name": "A#1",
          "midi": 34,
          "time": 81.92299500000009,
          "velocity": 0.8661417322834646,
          "duration": 0.13736249999999472
        },
        {
          "name": "A#2",
          "midi": 46,
          "time": 82.08783000000008,
          "velocity": 0.8661417322834646,
          "duration": 0.13736249999999472
        },
        {
          "name": "D3",
          "midi": 50,
          "time": 82.08783000000008,
          "velocity": 0.8661417322834646,
          "duration": 0.13736249999999472
        },
        {
          "name": "A#1",
          "midi": 34,
          "time": 82.25266500000008,
          "velocity": 0.8661417322834646,
          "duration": 0.13736249999999472
        },
        {
          "name": "A#2",
          "midi": 46,
          "time": 82.41750000000008,
          "velocity": 0.8661417322834646,
          "duration": 0.13736249999999472
        },
        {
          "name": "D3",
          "midi": 50,
          "time": 82.41750000000008,
          "velocity": 0.8661417322834646,
          "duration": 0.13736249999999472
        },
        {
          "name": "A#1",
          "midi": 34,
          "time": 82.58233500000007,
          "velocity": 0.8661417322834646,
          "duration": 0.13736249999999472
        },
        {
          "name": "A#2",
          "midi": 46,
          "time": 82.74717000000007,
          "velocity": 0.8661417322834646,
          "duration": 0.13736249999999472
        },
        {
          "name": "D3",
          "midi": 50,
          "time": 82.74717000000007,
          "velocity": 0.8661417322834646,
          "duration": 0.13736249999999472
        },
        {
          "name": "A1",
          "midi": 33,
          "time": 82.91200500000006,
          "velocity": 0.8661417322834646,
          "duration": 0.5494499999999931
        },
        {
          "name": "A2",
          "midi": 45,
          "time": 82.91200500000006,
          "velocity": 0.8661417322834646,
          "duration": 0.5494499999999931
        },
        {
          "name": "A1",
          "midi": 33,
          "time": 83.57134500000005,
          "velocity": 0.8661417322834646,
          "duration": 0.4120874999999984
        },
        {
          "name": "A2",
          "midi": 45,
          "time": 83.57134500000005,
          "velocity": 0.8661417322834646,
          "duration": 0.4120874999999984
        },
        {
          "name": "A1",
          "midi": 33,
          "time": 84.06585000000005,
          "velocity": 0.8661417322834646,
          "duration": 0.13736249999999472
        },
        {
          "name": "A2",
          "midi": 45,
          "time": 84.06585000000005,
          "velocity": 0.8661417322834646,
          "duration": 0.13736249999999472
        },
        {
          "name": "A1",
          "midi": 33,
          "time": 84.23068500000005,
          "velocity": 0.8661417322834646,
          "duration": 0.27472500000000366
        },
        {
          "name": "A2",
          "midi": 45,
          "time": 84.56035500000006,
          "velocity": 0.8661417322834646,
          "duration": 0.13736249999999472
        },
        {
          "name": "A1",
          "midi": 33,
          "time": 84.72519000000005,
          "velocity": 0.8661417322834646,
          "duration": 0.13736249999999472
        },
        {
          "name": "A1",
          "midi": 33,
          "time": 84.89002500000005,
          "velocity": 0.8661417322834646,
          "duration": 0.4120874999999984
        },
        {
          "name": "A2",
          "midi": 45,
          "time": 84.89002500000005,
          "velocity": 0.8661417322834646,
          "duration": 0.4120874999999984
        },
        {
          "name": "A1",
          "midi": 33,
          "time": 85.38453000000005,
          "velocity": 0.8661417322834646,
          "duration": 0.13736249999999472
        },
        {
          "name": "A#1",
          "midi": 34,
          "time": 85.54936500000005,
          "velocity": 0.8661417322834646,
          "duration": 0.13736249999999472
        },
        {
          "name": "A#2",
          "midi": 46,
          "time": 85.71420000000005,
          "velocity": 0.8661417322834646,
          "duration": 0.13736249999999472
        },
        {
          "name": "D3",
          "midi": 50,
          "time": 85.71420000000005,
          "velocity": 0.8661417322834646,
          "duration": 0.13736249999999472
        },
        {
          "name": "A#1",
          "midi": 34,
          "time": 85.87903500000004,
          "velocity": 0.8661417322834646,
          "duration": 0.13736249999999472
        },
        {
          "name": "A#2",
          "midi": 46,
          "time": 86.04387000000004,
          "velocity": 0.8661417322834646,
          "duration": 0.13736249999999472
        },
        {
          "name": "D3",
          "midi": 50,
          "time": 86.04387000000004,
          "velocity": 0.8661417322834646,
          "duration": 0.13736249999999472
        },
        {
          "name": "C2",
          "midi": 36,
          "time": 86.20870500000004,
          "velocity": 0.8661417322834646,
          "duration": 0.13736249999999472
        },
        {
          "name": "C3",
          "midi": 48,
          "time": 86.37354000000003,
          "velocity": 0.8661417322834646,
          "duration": 0.13736249999999472
        },
        {
          "name": "E3",
          "midi": 52,
          "time": 86.37354000000003,
          "velocity": 0.8661417322834646,
          "duration": 0.13736249999999472
        },
        {
          "name": "C2",
          "midi": 36,
          "time": 86.53837500000003,
          "velocity": 0.8661417322834646,
          "duration": 0.13736249999999472
        },
        {
          "name": "C3",
          "midi": 48,
          "time": 86.70321000000003,
          "velocity": 0.8661417322834646,
          "duration": 0.13736249999999472
        },
        {
          "name": "E3",
          "midi": 52,
          "time": 86.70321000000003,
          "velocity": 0.8661417322834646,
          "duration": 0.13736249999999472
        },
        {
          "name": "D2",
          "midi": 38,
          "time": 86.86804500000002,
          "velocity": 0.8661417322834646,
          "duration": 0.13736249999999472
        },
        {
          "name": "D3",
          "midi": 50,
          "time": 87.03288000000002,
          "velocity": 0.8661417322834646,
          "duration": 0.13736249999999472
        },
        {
          "name": "F3",
          "midi": 53,
          "time": 87.03288000000002,
          "velocity": 0.8661417322834646,
          "duration": 0.13736249999999472
        },
        {
          "name": "D2",
          "midi": 38,
          "time": 87.19771500000002,
          "velocity": 0.8661417322834646,
          "duration": 0.13736249999999472
        },
        {
          "name": "D3",
          "midi": 50,
          "time": 87.36255000000001,
          "velocity": 0.8661417322834646,
          "duration": 0.13736249999999472
        },
        {
          "name": "F3",
          "midi": 53,
          "time": 87.36255000000001,
          "velocity": 0.8661417322834646,
          "duration": 0.13736249999999472
        },
        {
          "name": "D2",
          "midi": 38,
          "time": 87.52738500000001,
          "velocity": 0.8661417322834646,
          "duration": 0.13736249999999472
        },
        {
          "name": "D3",
          "midi": 50,
          "time": 87.69222,
          "velocity": 0.8661417322834646,
          "duration": 0.13736249999999472
        },
        {
          "name": "F3",
          "midi": 53,
          "time": 87.69222,
          "velocity": 0.8661417322834646,
          "duration": 0.13736249999999472
        },
        {
          "name": "D2",
          "midi": 38,
          "time": 87.857055,
          "velocity": 0.8661417322834646,
          "duration": 0.13736249999999472
        },
        {
          "name": "D3",
          "midi": 50,
          "time": 88.02189,
          "velocity": 0.8661417322834646,
          "duration": 0.13736249999999472
        },
        {
          "name": "F3",
          "midi": 53,
          "time": 88.02189,
          "velocity": 0.8661417322834646,
          "duration": 0.13736249999999472
        },
        {
          "name": "A#1",
          "midi": 34,
          "time": 88.186725,
          "velocity": 0.8661417322834646,
          "duration": 0.13736249999999472
        },
        {
          "name": "A#2",
          "midi": 46,
          "time": 88.35155999999999,
          "velocity": 0.8661417322834646,
          "duration": 0.13736249999999472
        },
        {
          "name": "D3",
          "midi": 50,
          "time": 88.35155999999999,
          "velocity": 0.8661417322834646,
          "duration": 0.13736249999999472
        },
        {
          "name": "A#1",
          "midi": 34,
          "time": 88.51639499999999,
          "velocity": 0.8661417322834646,
          "duration": 0.13736249999999472
        },
        {
          "name": "A#2",
          "midi": 46,
          "time": 88.68122999999999,
          "velocity": 0.8661417322834646,
          "duration": 0.13736249999999472
        },
        {
          "name": "D3",
          "midi": 50,
          "time": 88.68122999999999,
          "velocity": 0.8661417322834646,
          "duration": 0.13736249999999472
        },
        {
          "name": "C2",
          "midi": 36,
          "time": 88.84606499999998,
          "velocity": 0.8661417322834646,
          "duration": 0.13736249999999472
        },
        {
          "name": "C3",
          "midi": 48,
          "time": 89.01089999999998,
          "velocity": 0.8661417322834646,
          "duration": 0.13736249999999472
        },
        {
          "name": "E3",
          "midi": 52,
          "time": 89.01089999999998,
          "velocity": 0.8661417322834646,
          "duration": 0.13736249999999472
        },
        {
          "name": "C2",
          "midi": 36,
          "time": 89.17573499999997,
          "velocity": 0.8661417322834646,
          "duration": 0.13736249999999472
        },
        {
          "name": "C3",
          "midi": 48,
          "time": 89.34056999999997,
          "velocity": 0.8661417322834646,
          "duration": 0.13736249999999472
        },
        {
          "name": "E3",
          "midi": 52,
          "time": 89.34056999999997,
          "velocity": 0.8661417322834646,
          "duration": 0.13736249999999472
        },
        {
          "name": "D2",
          "midi": 38,
          "time": 89.50540499999997,
          "velocity": 0.8661417322834646,
          "duration": 0.13736249999999472
        },
        {
          "name": "D3",
          "midi": 50,
          "time": 89.67023999999996,
          "velocity": 0.8661417322834646,
          "duration": 0.13736249999999472
        },
        {
          "name": "E2",
          "midi": 40,
          "time": 89.83507499999996,
          "velocity": 0.8661417322834646,
          "duration": 0.13736249999999472
        },
        {
          "name": "E3",
          "midi": 52,
          "time": 89.99990999999996,
          "velocity": 0.8661417322834646,
          "duration": 0.13736249999999472
        },
        {
          "name": "F2",
          "midi": 41,
          "time": 90.16474499999995,
          "velocity": 0.8661417322834646,
          "duration": 0.13736249999999472
        },
        {
          "name": "F3",
          "midi": 53,
          "time": 90.32957999999995,
          "velocity": 0.8661417322834646,
          "duration": 0.13736249999999472
        },
        {
          "name": "G2",
          "midi": 43,
          "time": 90.49441499999995,
          "velocity": 0.8661417322834646,
          "duration": 0.13736249999999472
        },
        {
          "name": "G3",
          "midi": 55,
          "time": 90.65924999999994,
          "velocity": 0.8661417322834646,
          "duration": 0.13736249999999472
        },
        {
          "name": "A#1",
          "midi": 34,
          "time": 90.82408499999994,
          "velocity": 0.8661417322834646,
          "duration": 0.13736249999999472
        },
        {
          "name": "A#2",
          "midi": 46,
          "time": 90.98891999999994,
          "velocity": 0.8661417322834646,
          "duration": 0.13736249999999472
        },
        {
          "name": "D3",
          "midi": 50,
          "time": 90.98891999999994,
          "velocity": 0.8661417322834646,
          "duration": 0.13736249999999472
        },
        {
          "name": "A#1",
          "midi": 34,
          "time": 91.15375499999993,
          "velocity": 0.8661417322834646,
          "duration": 0.13736249999999472
        },
        {
          "name": "A#2",
          "midi": 46,
          "time": 91.31858999999993,
          "velocity": 0.8661417322834646,
          "duration": 0.13736249999999472
        },
        {
          "name": "D3",
          "midi": 50,
          "time": 91.31858999999993,
          "velocity": 0.8661417322834646,
          "duration": 0.13736249999999472
        },
        {
          "name": "C2",
          "midi": 36,
          "time": 91.48342499999993,
          "velocity": 0.8661417322834646,
          "duration": 0.13736249999999472
        },
        {
          "name": "C3",
          "midi": 48,
          "time": 91.64825999999992,
          "velocity": 0.8661417322834646,
          "duration": 0.13736249999999472
        },
        {
          "name": "E3",
          "midi": 52,
          "time": 91.64825999999992,
          "velocity": 0.8661417322834646,
          "duration": 0.13736249999999472
        },
        {
          "name": "C2",
          "midi": 36,
          "time": 91.81309499999992,
          "velocity": 0.8661417322834646,
          "duration": 0.13736249999999472
        },
        {
          "name": "C3",
          "midi": 48,
          "time": 91.97792999999992,
          "velocity": 0.8661417322834646,
          "duration": 0.13736249999999472
        },
        {
          "name": "E3",
          "midi": 52,
          "time": 91.97792999999992,
          "velocity": 0.8661417322834646,
          "duration": 0.13736249999999472
        },
        {
          "name": "D2",
          "midi": 38,
          "time": 92.14276499999991,
          "velocity": 0.8661417322834646,
          "duration": 0.13736249999999472
        },
        {
          "name": "D3",
          "midi": 50,
          "time": 92.30759999999991,
          "velocity": 0.8661417322834646,
          "duration": 0.13736249999999472
        },
        {
          "name": "F3",
          "midi": 53,
          "time": 92.30759999999991,
          "velocity": 0.8661417322834646,
          "duration": 0.13736249999999472
        },
        {
          "name": "D2",
          "midi": 38,
          "time": 92.4724349999999,
          "velocity": 0.8661417322834646,
          "duration": 0.13736249999999472
        },
        {
          "name": "D3",
          "midi": 50,
          "time": 92.6372699999999,
          "velocity": 0.8661417322834646,
          "duration": 0.13736249999999472
        },
        {
          "name": "F3",
          "midi": 53,
          "time": 92.6372699999999,
          "velocity": 0.8661417322834646,
          "duration": 0.13736249999999472
        },
        {
          "name": "D2",
          "midi": 38,
          "time": 92.8021049999999,
          "velocity": 0.8661417322834646,
          "duration": 0.13736249999999472
        },
        {
          "name": "D3",
          "midi": 50,
          "time": 92.9669399999999,
          "velocity": 0.8661417322834646,
          "duration": 0.13736249999999472
        },
        {
          "name": "F3",
          "midi": 53,
          "time": 92.9669399999999,
          "velocity": 0.8661417322834646,
          "duration": 0.13736249999999472
        },
        {
          "name": "D2",
          "midi": 38,
          "time": 93.13177499999989,
          "velocity": 0.8661417322834646,
          "duration": 0.13736249999999472
        },
        {
          "name": "D3",
          "midi": 50,
          "time": 93.29660999999989,
          "velocity": 0.8661417322834646,
          "duration": 0.13736249999999472
        },
        {
          "name": "F3",
          "midi": 53,
          "time": 93.29660999999989,
          "velocity": 0.8661417322834646,
          "duration": 0.13736249999999472
        },
        {
          "name": "G1",
          "midi": 31,
          "time": 93.46144499999988,
          "velocity": 0.8661417322834646,
          "duration": 0.13736249999999472
        },
        {
          "name": "A#2",
          "midi": 46,
          "time": 93.62627999999988,
          "velocity": 0.8661417322834646,
          "duration": 0.13736249999999472
        },
        {
          "name": "G1",
          "midi": 31,
          "time": 93.79111499999988,
          "velocity": 0.8661417322834646,
          "duration": 0.13736249999999472
        },
        {
          "name": "A#2",
          "midi": 46,
          "time": 93.95594999999987,
          "velocity": 0.8661417322834646,
          "duration": 0.13736249999999472
        },
        {
          "name": "A1",
          "midi": 33,
          "time": 94.12078499999987,
          "velocity": 0.8661417322834646,
          "duration": 0.13736249999999472
        },
        {
          "name": "A2",
          "midi": 45,
          "time": 94.28561999999987,
          "velocity": 0.8661417322834646,
          "duration": 0.13736249999999472
        },
        {
          "name": "C3",
          "midi": 48,
          "time": 94.28561999999987,
          "velocity": 0.8661417322834646,
          "duration": 0.13736249999999472
        },
        {
          "name": "A1",
          "midi": 33,
          "time": 94.45045499999986,
          "velocity": 0.8661417322834646,
          "duration": 0.13736249999999472
        },
        {
          "name": "A2",
          "midi": 45,
          "time": 94.61528999999986,
          "velocity": 0.8661417322834646,
          "duration": 0.13736249999999472
        },
        {
          "name": "C3",
          "midi": 48,
          "time": 94.61528999999986,
          "velocity": 0.8661417322834646,
          "duration": 0.13736249999999472
        },
        {
          "name": "A#1",
          "midi": 34,
          "time": 94.78012499999986,
          "velocity": 0.8661417322834646,
          "duration": 0.13736249999999472
        },
        {
          "name": "A#2",
          "midi": 46,
          "time": 94.94495999999985,
          "velocity": 0.8661417322834646,
          "duration": 0.13736249999999472
        },
        {
          "name": "D3",
          "midi": 50,
          "time": 94.94495999999985,
          "velocity": 0.8661417322834646,
          "duration": 0.13736249999999472
        },
        {
          "name": "B1",
          "midi": 35,
          "time": 95.10979499999985,
          "velocity": 0.8661417322834646,
          "duration": 0.13736249999999472
        },
        {
          "name": "B2",
          "midi": 47,
          "time": 95.27462999999985,
          "velocity": 0.8661417322834646,
          "duration": 0.13736249999999472
        },
        {
          "name": "D3",
          "midi": 50,
          "time": 95.27462999999985,
          "velocity": 0.8661417322834646,
          "duration": 0.13736249999999472
        },
        {
          "name": "C2",
          "midi": 36,
          "time": 95.43946499999984,
          "velocity": 0.8661417322834646,
          "duration": 0.13736249999999472
        },
        {
          "name": "C3",
          "midi": 48,
          "time": 95.60429999999984,
          "velocity": 0.8661417322834646,
          "duration": 0.13736249999999472
        },
        {
          "name": "E3",
          "midi": 52,
          "time": 95.60429999999984,
          "velocity": 0.8661417322834646,
          "duration": 0.13736249999999472
        },
        {
          "name": "C2",
          "midi": 36,
          "time": 95.76913499999984,
          "velocity": 0.8661417322834646,
          "duration": 0.13736249999999472
        },
        {
          "name": "C3",
          "midi": 48,
          "time": 95.93396999999983,
          "velocity": 0.8661417322834646,
          "duration": 0.13736249999999472
        },
        {
          "name": "E3",
          "midi": 52,
          "time": 95.93396999999983,
          "velocity": 0.8661417322834646,
          "duration": 0.13736249999999472
        },
        {
          "name": "A#1",
          "midi": 34,
          "time": 96.09880499999983,
          "velocity": 0.8661417322834646,
          "duration": 0.13736249999999472
        },
        {
          "name": "A#2",
          "midi": 46,
          "time": 96.26363999999982,
          "velocity": 0.8661417322834646,
          "duration": 0.13736249999999472
        },
        {
          "name": "D3",
          "midi": 50,
          "time": 96.26363999999982,
          "velocity": 0.8661417322834646,
          "duration": 0.13736249999999472
        },
        {
          "name": "A#1",
          "midi": 34,
          "time": 96.42847499999982,
          "velocity": 0.8661417322834646,
          "duration": 0.13736249999999472
        },
        {
          "name": "A#2",
          "midi": 46,
          "time": 96.59330999999982,
          "velocity": 0.8661417322834646,
          "duration": 0.13736249999999472
        },
        {
          "name": "D3",
          "midi": 50,
          "time": 96.59330999999982,
          "velocity": 0.8661417322834646,
          "duration": 0.13736249999999472
        },
        {
          "name": "C2",
          "midi": 36,
          "time": 96.75814499999981,
          "velocity": 0.8661417322834646,
          "duration": 0.13736249999999472
        },
        {
          "name": "C3",
          "midi": 48,
          "time": 96.92297999999981,
          "velocity": 0.8661417322834646,
          "duration": 0.13736249999999472
        },
        {
          "name": "E3",
          "midi": 52,
          "time": 96.92297999999981,
          "velocity": 0.8661417322834646,
          "duration": 0.13736249999999472
        },
        {
          "name": "C2",
          "midi": 36,
          "time": 97.08781499999981,
          "velocity": 0.8661417322834646,
          "duration": 0.13736249999999472
        },
        {
          "name": "C3",
          "midi": 48,
          "time": 97.2526499999998,
          "velocity": 0.8661417322834646,
          "duration": 0.13736249999999472
        },
        {
          "name": "E3",
          "midi": 52,
          "time": 97.2526499999998,
          "velocity": 0.8661417322834646,
          "duration": 0.13736249999999472
        },
        {
          "name": "D2",
          "midi": 38,
          "time": 97.4174849999998,
          "velocity": 0.8661417322834646,
          "duration": 0.13736249999999472
        },
        {
          "name": "D3",
          "midi": 50,
          "time": 97.5823199999998,
          "velocity": 0.8661417322834646,
          "duration": 0.13736249999999472
        },
        {
          "name": "F3",
          "midi": 53,
          "time": 97.5823199999998,
          "velocity": 0.8661417322834646,
          "duration": 0.13736249999999472
        },
        {
          "name": "D2",
          "midi": 38,
          "time": 97.7471549999998,
          "velocity": 0.8661417322834646,
          "duration": 0.13736249999999472
        },
        {
          "name": "D3",
          "midi": 50,
          "time": 97.91198999999979,
          "velocity": 0.8661417322834646,
          "duration": 0.13736249999999472
        },
        {
          "name": "F3",
          "midi": 53,
          "time": 97.91198999999979,
          "velocity": 0.8661417322834646,
          "duration": 0.13736249999999472
        },
        {
          "name": "D2",
          "midi": 38,
          "time": 98.07682499999979,
          "velocity": 0.8661417322834646,
          "duration": 0.13736249999999472
        },
        {
          "name": "D3",
          "midi": 50,
          "time": 98.24165999999978,
          "velocity": 0.8661417322834646,
          "duration": 0.13736249999999472
        },
        {
          "name": "F3",
          "midi": 53,
          "time": 98.24165999999978,
          "velocity": 0.8661417322834646,
          "duration": 0.13736249999999472
        },
        {
          "name": "D2",
          "midi": 38,
          "time": 98.40649499999978,
          "velocity": 0.8661417322834646,
          "duration": 0.13736249999999472
        },
        {
          "name": "D3",
          "midi": 50,
          "time": 98.57132999999978,
          "velocity": 0.8661417322834646,
          "duration": 0.13736249999999472
        },
        {
          "name": "F3",
          "midi": 53,
          "time": 98.57132999999978,
          "velocity": 0.8661417322834646,
          "duration": 0.13736249999999472
        },
        {
          "name": "A#1",
          "midi": 34,
          "time": 98.73616499999977,
          "velocity": 0.8661417322834646,
          "duration": 0.13736249999999472
        },
        {
          "name": "A#2",
          "midi": 46,
          "time": 98.90099999999977,
          "velocity": 0.8661417322834646,
          "duration": 0.13736249999999472
        },
        {
          "name": "D3",
          "midi": 50,
          "time": 98.90099999999977,
          "velocity": 0.8661417322834646,
          "duration": 0.13736249999999472
        },
        {
          "name": "A#1",
          "midi": 34,
          "time": 99.06583499999977,
          "velocity": 0.8661417322834646,
          "duration": 0.13736249999999472
        },
        {
          "name": "A#2",
          "midi": 46,
          "time": 99.23066999999976,
          "velocity": 0.8661417322834646,
          "duration": 0.13736249999999472
        },
        {
          "name": "D3",
          "midi": 50,
          "time": 99.23066999999976,
          "velocity": 0.8661417322834646,
          "duration": 0.13736249999999472
        },
        {
          "name": "C2",
          "midi": 36,
          "time": 99.39550499999976,
          "velocity": 0.8661417322834646,
          "duration": 0.13736249999999472
        },
        {
          "name": "C3",
          "midi": 48,
          "time": 99.56033999999975,
          "velocity": 0.8661417322834646,
          "duration": 0.13736249999999472
        },
        {
          "name": "E3",
          "midi": 52,
          "time": 99.56033999999975,
          "velocity": 0.8661417322834646,
          "duration": 0.13736249999999472
        },
        {
          "name": "C2",
          "midi": 36,
          "time": 99.72517499999975,
          "velocity": 0.8661417322834646,
          "duration": 0.13736249999999472
        },
        {
          "name": "C3",
          "midi": 48,
          "time": 99.89000999999975,
          "velocity": 0.8661417322834646,
          "duration": 0.13736249999999472
        },
        {
          "name": "E3",
          "midi": 52,
          "time": 99.89000999999975,
          "velocity": 0.8661417322834646,
          "duration": 0.13736249999999472
        },
        {
          "name": "D2",
          "midi": 38,
          "time": 100.05484499999974,
          "velocity": 0.8661417322834646,
          "duration": 0.13736249999999472
        },
        {
          "name": "D3",
          "midi": 50,
          "time": 100.21967999999974,
          "velocity": 0.8661417322834646,
          "duration": 0.13736249999999472
        },
        {
          "name": "E2",
          "midi": 40,
          "time": 100.38451499999974,
          "velocity": 0.8661417322834646,
          "duration": 0.13736249999999472
        },
        {
          "name": "E3",
          "midi": 52,
          "time": 100.54934999999973,
          "velocity": 0.8661417322834646,
          "duration": 0.13736249999999472
        },
        {
          "name": "F2",
          "midi": 41,
          "time": 100.71418499999973,
          "velocity": 0.8661417322834646,
          "duration": 0.13736249999999472
        },
        {
          "name": "F3",
          "midi": 53,
          "time": 100.87901999999973,
          "velocity": 0.8661417322834646,
          "duration": 0.13736249999999472
        },
        {
          "name": "G2",
          "midi": 43,
          "time": 101.04385499999972,
          "velocity": 0.8661417322834646,
          "duration": 0.13736249999999472
        },
        {
          "name": "G3",
          "midi": 55,
          "time": 101.20868999999972,
          "velocity": 0.8661417322834646,
          "duration": 0.13736249999999472
        },
        {
          "name": "A#1",
          "midi": 34,
          "time": 101.37352499999972,
          "velocity": 0.8661417322834646,
          "duration": 0.13736249999999472
        },
        {
          "name": "A#2",
          "midi": 46,
          "time": 101.53835999999971,
          "velocity": 0.8661417322834646,
          "duration": 0.13736249999999472
        },
        {
          "name": "D3",
          "midi": 50,
          "time": 101.53835999999971,
          "velocity": 0.8661417322834646,
          "duration": 0.13736249999999472
        },
        {
          "name": "A#1",
          "midi": 34,
          "time": 101.70319499999971,
          "velocity": 0.8661417322834646,
          "duration": 0.13736249999999472
        },
        {
          "name": "A#2",
          "midi": 46,
          "time": 101.8680299999997,
          "velocity": 0.8661417322834646,
          "duration": 0.13736249999999472
        },
        {
          "name": "D3",
          "midi": 50,
          "time": 101.8680299999997,
          "velocity": 0.8661417322834646,
          "duration": 0.13736249999999472
        },
        {
          "name": "C2",
          "midi": 36,
          "time": 102.0328649999997,
          "velocity": 0.8661417322834646,
          "duration": 0.13736249999999472
        },
        {
          "name": "C3",
          "midi": 48,
          "time": 102.1976999999997,
          "velocity": 0.8661417322834646,
          "duration": 0.13736249999999472
        },
        {
          "name": "E3",
          "midi": 52,
          "time": 102.1976999999997,
          "velocity": 0.8661417322834646,
          "duration": 0.13736249999999472
        },
        {
          "name": "C2",
          "midi": 36,
          "time": 102.3625349999997,
          "velocity": 0.8661417322834646,
          "duration": 0.13736249999999472
        },
        {
          "name": "C3",
          "midi": 48,
          "time": 102.52736999999969,
          "velocity": 0.8661417322834646,
          "duration": 0.13736249999999472
        },
        {
          "name": "E3",
          "midi": 52,
          "time": 102.52736999999969,
          "velocity": 0.8661417322834646,
          "duration": 0.13736249999999472
        },
        {
          "name": "D2",
          "midi": 38,
          "time": 102.69220499999969,
          "velocity": 0.8661417322834646,
          "duration": 0.13736249999999472
        },
        {
          "name": "D3",
          "midi": 50,
          "time": 102.85703999999969,
          "velocity": 0.8661417322834646,
          "duration": 0.13736249999999472
        },
        {
          "name": "F3",
          "midi": 53,
          "time": 102.85703999999969,
          "velocity": 0.8661417322834646,
          "duration": 0.13736249999999472
        },
        {
          "name": "D2",
          "midi": 38,
          "time": 103.02187499999968,
          "velocity": 0.8661417322834646,
          "duration": 0.13736249999999472
        },
        {
          "name": "D3",
          "midi": 50,
          "time": 103.18670999999968,
          "velocity": 0.8661417322834646,
          "duration": 0.13736249999999472
        },
        {
          "name": "F3",
          "midi": 53,
          "time": 103.18670999999968,
          "velocity": 0.8661417322834646,
          "duration": 0.13736249999999472
        },
        {
          "name": "D2",
          "midi": 38,
          "time": 103.35154499999967,
          "velocity": 0.8661417322834646,
          "duration": 0.13736249999999472
        },
        {
          "name": "D3",
          "midi": 50,
          "time": 103.51637999999967,
          "velocity": 0.8661417322834646,
          "duration": 0.13736249999999472
        },
        {
          "name": "F3",
          "midi": 53,
          "time": 103.51637999999967,
          "velocity": 0.8661417322834646,
          "duration": 0.13736249999999472
        },
        {
          "name": "D2",
          "midi": 38,
          "time": 103.68121499999967,
          "velocity": 0.8661417322834646,
          "duration": 0.13736249999999472
        },
        {
          "name": "D3",
          "midi": 50,
          "time": 103.84604999999966,
          "velocity": 0.8661417322834646,
          "duration": 0.13736249999999472
        },
        {
          "name": "F3",
          "midi": 53,
          "time": 103.84604999999966,
          "velocity": 0.8661417322834646,
          "duration": 0.13736249999999472
        },
        {
          "name": "G1",
          "midi": 31,
          "time": 104.01088499999966,
          "velocity": 0.8661417322834646,
          "duration": 0.13736249999999472
        },
        {
          "name": "A#2",
          "midi": 46,
          "time": 104.17571999999966,
          "velocity": 0.8661417322834646,
          "duration": 0.13736249999999472
        },
        {
          "name": "G1",
          "midi": 31,
          "time": 104.34055499999965,
          "velocity": 0.8661417322834646,
          "duration": 0.13736249999999472
        },
        {
          "name": "A#2",
          "midi": 46,
          "time": 104.50538999999965,
          "velocity": 0.8661417322834646,
          "duration": 0.13736249999999472
        },
        {
          "name": "A1",
          "midi": 33,
          "time": 104.67022499999965,
          "velocity": 0.8661417322834646,
          "duration": 0.13736249999999472
        },
        {
          "name": "A2",
          "midi": 45,
          "time": 104.83505999999964,
          "velocity": 0.8661417322834646,
          "duration": 0.13736249999999472
        },
        {
          "name": "C3",
          "midi": 48,
          "time": 104.83505999999964,
          "velocity": 0.8661417322834646,
          "duration": 0.13736249999999472
        },
        {
          "name": "A1",
          "midi": 33,
          "time": 104.99989499999964,
          "velocity": 0.8661417322834646,
          "duration": 0.13736249999999472
        },
        {
          "name": "A2",
          "midi": 45,
          "time": 105.16472999999964,
          "velocity": 0.8661417322834646,
          "duration": 0.13736249999999472
        },
        {
          "name": "C3",
          "midi": 48,
          "time": 105.16472999999964,
          "velocity": 0.8661417322834646,
          "duration": 0.13736249999999472
        },
        {
          "name": "D2",
          "midi": 38,
          "time": 105.32956499999963,
          "velocity": 0.8661417322834646,
          "duration": 0.13736249999999472
        },
        {
          "name": "D3",
          "midi": 50,
          "time": 105.49439999999963,
          "velocity": 0.8661417322834646,
          "duration": 0.13736249999999472
        },
        {
          "name": "F3",
          "midi": 53,
          "time": 105.49439999999963,
          "velocity": 0.8661417322834646,
          "duration": 0.13736249999999472
        },
        {
          "name": "D2",
          "midi": 38,
          "time": 105.65923499999963,
          "velocity": 0.8661417322834646,
          "duration": 0.13736249999999472
        },
        {
          "name": "D3",
          "midi": 50,
          "time": 105.82406999999962,
          "velocity": 0.8661417322834646,
          "duration": 0.13736249999999472
        },
        {
          "name": "F3",
          "midi": 53,
          "time": 105.82406999999962,
          "velocity": 0.8661417322834646,
          "duration": 0.13736249999999472
        },
        {
          "name": "D2",
          "midi": 38,
          "time": 105.98890499999962,
          "velocity": 0.8661417322834646,
          "duration": 0.13736249999999472
        },
        {
          "name": "D3",
          "midi": 50,
          "time": 106.15373999999962,
          "velocity": 0.8661417322834646,
          "duration": 0.13736249999999472
        },
        {
          "name": "F3",
          "midi": 53,
          "time": 106.15373999999962,
          "velocity": 0.8661417322834646,
          "duration": 0.13736249999999472
        },
        {
          "name": "D2",
          "midi": 38,
          "time": 106.31857499999961,
          "velocity": 0.8661417322834646,
          "duration": 0.13736249999999472
        },
        {
          "name": "D3",
          "midi": 50,
          "time": 106.48340999999961,
          "velocity": 0.8661417322834646,
          "duration": 0.13736249999999472
        },
        {
          "name": "F3",
          "midi": 53,
          "time": 106.48340999999961,
          "velocity": 0.8661417322834646,
          "duration": 0.13736249999999472
        },
        {
          "name": "D2",
          "midi": 38,
          "time": 106.6482449999996,
          "velocity": 0.8661417322834646,
          "duration": 0.13736249999999472
        },
        {
          "name": "A2",
          "midi": 45,
          "time": 106.8130799999996,
          "velocity": 0.8661417322834646,
          "duration": 0.13736249999999472
        },
        {
          "name": "D3",
          "midi": 50,
          "time": 106.8130799999996,
          "velocity": 0.8661417322834646,
          "duration": 0.13736249999999472
        },
        {
          "name": "D2",
          "midi": 38,
          "time": 106.9779149999996,
          "velocity": 0.8661417322834646,
          "duration": 0.13736249999999472
        },
        {
          "name": "A2",
          "midi": 45,
          "time": 107.1427499999996,
          "velocity": 0.8661417322834646,
          "duration": 0.13736249999999472
        },
        {
          "name": "D3",
          "midi": 50,
          "time": 107.1427499999996,
          "velocity": 0.8661417322834646,
          "duration": 0.13736249999999472
        },
        {
          "name": "D2",
          "midi": 38,
          "time": 107.30758499999959,
          "velocity": 0.8661417322834646,
          "duration": 0.13736249999999472
        },
        {
          "name": "A2",
          "midi": 45,
          "time": 107.47241999999959,
          "velocity": 0.8661417322834646,
          "duration": 0.13736249999999472
        },
        {
          "name": "D3",
          "midi": 50,
          "time": 107.47241999999959,
          "velocity": 0.8661417322834646,
          "duration": 0.13736249999999472
        },
        {
          "name": "D2",
          "midi": 38,
          "time": 107.63725499999958,
          "velocity": 0.8661417322834646,
          "duration": 0.13736249999999472
        },
        {
          "name": "A2",
          "midi": 45,
          "time": 107.80208999999958,
          "velocity": 0.8661417322834646,
          "duration": 0.13736249999999472
        },
        {
          "name": "D2",
          "midi": 38,
          "time": 107.96692499999958,
          "velocity": 0.8661417322834646,
          "duration": 0.13736249999999472
        },
        {
          "name": "A2",
          "midi": 45,
          "time": 108.13175999999957,
          "velocity": 0.8661417322834646,
          "duration": 0.13736249999999472
        },
        {
          "name": "D3",
          "midi": 50,
          "time": 108.13175999999957,
          "velocity": 0.8661417322834646,
          "duration": 0.13736249999999472
        },
        {
          "name": "D2",
          "midi": 38,
          "time": 108.29659499999957,
          "velocity": 0.8661417322834646,
          "duration": 0.13736249999999472
        },
        {
          "name": "A2",
          "midi": 45,
          "time": 108.46142999999957,
          "velocity": 0.8661417322834646,
          "duration": 0.13736249999999472
        },
        {
          "name": "D3",
          "midi": 50,
          "time": 108.46142999999957,
          "velocity": 0.8661417322834646,
          "duration": 0.13736249999999472
        },
        {
          "name": "D2",
          "midi": 38,
          "time": 108.62626499999956,
          "velocity": 0.8661417322834646,
          "duration": 0.13736249999999472
        },
        {
          "name": "A2",
          "midi": 45,
          "time": 108.79109999999956,
          "velocity": 0.8661417322834646,
          "duration": 0.13736249999999472
        },
        {
          "name": "D3",
          "midi": 50,
          "time": 108.79109999999956,
          "velocity": 0.8661417322834646,
          "duration": 0.13736249999999472
        },
        {
          "name": "D2",
          "midi": 38,
          "time": 108.95593499999956,
          "velocity": 0.8661417322834646,
          "duration": 0.13736249999999472
        },
        {
          "name": "A2",
          "midi": 45,
          "time": 109.12076999999955,
          "velocity": 0.8661417322834646,
          "duration": 0.13736249999999472
        },
        {
          "name": "D3",
          "midi": 50,
          "time": 109.12076999999955,
          "velocity": 0.8661417322834646,
          "duration": 0.13736249999999472
        },
        {
          "name": "D2",
          "midi": 38,
          "time": 109.28560499999955,
          "velocity": 0.8661417322834646,
          "duration": 0.13736249999999472
        },
        {
          "name": "A2",
          "midi": 45,
          "time": 109.45043999999955,
          "velocity": 0.8661417322834646,
          "duration": 0.13736249999999472
        },
        {
          "name": "D3",
          "midi": 50,
          "time": 109.45043999999955,
          "velocity": 0.8661417322834646,
          "duration": 0.13736249999999472
        },
        {
          "name": "D2",
          "midi": 38,
          "time": 109.61527499999954,
          "velocity": 0.8661417322834646,
          "duration": 0.13736249999999472
        },
        {
          "name": "A2",
          "midi": 45,
          "time": 109.78010999999954,
          "velocity": 0.8661417322834646,
          "duration": 0.13736249999999472
        },
        {
          "name": "D3",
          "midi": 50,
          "time": 109.78010999999954,
          "velocity": 0.8661417322834646,
          "duration": 0.13736249999999472
        },
        {
          "name": "D2",
          "midi": 38,
          "time": 109.94494499999954,
          "velocity": 0.8661417322834646,
          "duration": 0.13736249999999472
        },
        {
          "name": "A2",
          "midi": 45,
          "time": 110.10977999999953,
          "velocity": 0.8661417322834646,
          "duration": 0.13736249999999472
        },
        {
          "name": "D3",
          "midi": 50,
          "time": 110.10977999999953,
          "velocity": 0.8661417322834646,
          "duration": 0.13736249999999472
        },
        {
          "name": "D2",
          "midi": 38,
          "time": 110.27461499999953,
          "velocity": 0.8661417322834646,
          "duration": 0.13736249999999472
        },
        {
          "name": "A2",
          "midi": 45,
          "time": 110.43944999999952,
          "velocity": 0.8661417322834646,
          "duration": 0.13736249999999472
        },
        {
          "name": "D2",
          "midi": 38,
          "time": 110.60428499999952,
          "velocity": 0.8661417322834646,
          "duration": 0.13736249999999472
        },
        {
          "name": "A2",
          "midi": 45,
          "time": 110.76911999999952,
          "velocity": 0.8661417322834646,
          "duration": 0.13736249999999472
        },
        {
          "name": "D3",
          "midi": 50,
          "time": 110.76911999999952,
          "velocity": 0.8661417322834646,
          "duration": 0.13736249999999472
        },
        {
          "name": "D2",
          "midi": 38,
          "time": 110.93395499999951,
          "velocity": 0.8661417322834646,
          "duration": 0.13736249999999472
        },
        {
          "name": "A2",
          "midi": 45,
          "time": 111.09878999999951,
          "velocity": 0.8661417322834646,
          "duration": 0.13736249999999472
        },
        {
          "name": "D3",
          "midi": 50,
          "time": 111.09878999999951,
          "velocity": 0.8661417322834646,
          "duration": 0.13736249999999472
        },
        {
          "name": "D2",
          "midi": 38,
          "time": 111.26362499999951,
          "velocity": 0.8661417322834646,
          "duration": 0.13736249999999472
        },
        {
          "name": "A2",
          "midi": 45,
          "time": 111.4284599999995,
          "velocity": 0.8661417322834646,
          "duration": 0.13736249999999472
        },
        {
          "name": "D3",
          "midi": 50,
          "time": 111.4284599999995,
          "velocity": 0.8661417322834646,
          "duration": 0.13736249999999472
        },
        {
          "name": "D2",
          "midi": 38,
          "time": 111.5932949999995,
          "velocity": 0.8661417322834646,
          "duration": 0.13736249999999472
        },
        {
          "name": "A2",
          "midi": 45,
          "time": 111.7581299999995,
          "velocity": 0.8661417322834646,
          "duration": 0.13736249999999472
        },
        {
          "name": "D3",
          "midi": 50,
          "time": 111.7581299999995,
          "velocity": 0.8661417322834646,
          "duration": 0.13736249999999472
        },
        {
          "name": "D2",
          "midi": 38,
          "time": 111.9229649999995,
          "velocity": 0.8661417322834646,
          "duration": 0.13736249999999472
        },
        {
          "name": "A2",
          "midi": 45,
          "time": 112.08779999999949,
          "velocity": 0.8661417322834646,
          "duration": 0.13736249999999472
        },
        {
          "name": "D3",
          "midi": 50,
          "time": 112.08779999999949,
          "velocity": 0.8661417322834646,
          "duration": 0.13736249999999472
        },
        {
          "name": "D2",
          "midi": 38,
          "time": 112.25263499999949,
          "velocity": 0.8661417322834646,
          "duration": 0.13736249999999472
        },
        {
          "name": "A2",
          "midi": 45,
          "time": 112.41746999999948,
          "velocity": 0.8661417322834646,
          "duration": 0.13736249999999472
        },
        {
          "name": "D3",
          "midi": 50,
          "time": 112.41746999999948,
          "velocity": 0.8661417322834646,
          "duration": 0.13736249999999472
        },
        {
          "name": "D2",
          "midi": 38,
          "time": 112.58230499999948,
          "velocity": 0.8661417322834646,
          "duration": 0.13736249999999472
        },
        {
          "name": "A2",
          "midi": 45,
          "time": 112.74713999999948,
          "velocity": 0.8661417322834646,
          "duration": 0.13736249999999472
        },
        {
          "name": "D3",
          "midi": 50,
          "time": 112.74713999999948,
          "velocity": 0.8661417322834646,
          "duration": 0.13736249999999472
        },
        {
          "name": "D2",
          "midi": 38,
          "time": 112.91197499999947,
          "velocity": 0.8661417322834646,
          "duration": 0.13736249999999472
        },
        {
          "name": "A2",
          "midi": 45,
          "time": 113.07680999999947,
          "velocity": 0.8661417322834646,
          "duration": 0.13736249999999472
        },
        {
          "name": "D2",
          "midi": 38,
          "time": 113.24164499999947,
          "velocity": 0.8661417322834646,
          "duration": 0.13736249999999472
        },
        {
          "name": "A2",
          "midi": 45,
          "time": 113.40647999999946,
          "velocity": 0.8661417322834646,
          "duration": 0.13736249999999472
        },
        {
          "name": "D3",
          "midi": 50,
          "time": 113.40647999999946,
          "velocity": 0.8661417322834646,
          "duration": 0.13736249999999472
        },
        {
          "name": "D2",
          "midi": 38,
          "time": 113.57131499999946,
          "velocity": 0.8661417322834646,
          "duration": 0.13736249999999472
        },
        {
          "name": "A2",
          "midi": 45,
          "time": 113.73614999999945,
          "velocity": 0.8661417322834646,
          "duration": 0.13736249999999472
        },
        {
          "name": "D3",
          "midi": 50,
          "time": 113.73614999999945,
          "velocity": 0.8661417322834646,
          "duration": 0.13736249999999472
        },
        {
          "name": "D2",
          "midi": 38,
          "time": 113.90098499999945,
          "velocity": 0.8661417322834646,
          "duration": 0.13736249999999472
        },
        {
          "name": "A2",
          "midi": 45,
          "time": 114.06581999999945,
          "velocity": 0.8661417322834646,
          "duration": 0.13736249999999472
        },
        {
          "name": "D3",
          "midi": 50,
          "time": 114.06581999999945,
          "velocity": 0.8661417322834646,
          "duration": 0.13736249999999472
        },
        {
          "name": "D2",
          "midi": 38,
          "time": 114.23065499999944,
          "velocity": 0.8661417322834646,
          "duration": 0.13736249999999472
        },
        {
          "name": "A2",
          "midi": 45,
          "time": 114.39548999999944,
          "velocity": 0.8661417322834646,
          "duration": 0.13736249999999472
        },
        {
          "name": "D3",
          "midi": 50,
          "time": 114.39548999999944,
          "velocity": 0.8661417322834646,
          "duration": 0.13736249999999472
        },
        {
          "name": "D2",
          "midi": 38,
          "time": 114.56032499999944,
          "velocity": 0.8661417322834646,
          "duration": 0.13736249999999472
        },
        {
          "name": "A2",
          "midi": 45,
          "time": 114.72515999999943,
          "velocity": 0.8661417322834646,
          "duration": 0.13736249999999472
        },
        {
          "name": "D3",
          "midi": 50,
          "time": 114.72515999999943,
          "velocity": 0.8661417322834646,
          "duration": 0.13736249999999472
        },
        {
          "name": "D2",
          "midi": 38,
          "time": 114.88999499999943,
          "velocity": 0.8661417322834646,
          "duration": 0.13736249999999472
        },
        {
          "name": "A2",
          "midi": 45,
          "time": 115.05482999999943,
          "velocity": 0.8661417322834646,
          "duration": 0.13736249999999472
        },
        {
          "name": "D3",
          "midi": 50,
          "time": 115.05482999999943,
          "velocity": 0.8661417322834646,
          "duration": 0.13736249999999472
        },
        {
          "name": "D2",
          "midi": 38,
          "time": 115.21966499999942,
          "velocity": 0.8661417322834646,
          "duration": 0.13736249999999472
        },
        {
          "name": "A2",
          "midi": 45,
          "time": 115.38449999999942,
          "velocity": 0.8661417322834646,
          "duration": 0.13736249999999472
        },
        {
          "name": "D3",
          "midi": 50,
          "time": 115.38449999999942,
          "velocity": 0.8661417322834646,
          "duration": 0.13736249999999472
        },
        {
          "name": "D2",
          "midi": 38,
          "time": 115.54933499999942,
          "velocity": 0.8661417322834646,
          "duration": 0.13736249999999472
        },
        {
          "name": "A2",
          "midi": 45,
          "time": 115.71416999999941,
          "velocity": 0.8661417322834646,
          "duration": 0.13736249999999472
        },
        {
          "name": "D2",
          "midi": 38,
          "time": 115.87900499999941,
          "velocity": 0.8661417322834646,
          "duration": 0.13736249999999472
        },
        {
          "name": "D3",
          "midi": 50,
          "time": 116.0438399999994,
          "velocity": 0.8661417322834646,
          "duration": 0.13736249999999472
        },
        {
          "name": "F3",
          "midi": 53,
          "time": 116.0438399999994,
          "velocity": 0.8661417322834646,
          "duration": 0.13736249999999472
        },
        {
          "name": "D2",
          "midi": 38,
          "time": 116.2086749999994,
          "velocity": 0.8661417322834646,
          "duration": 0.13736249999999472
        },
        {
          "name": "D3",
          "midi": 50,
          "time": 116.3735099999994,
          "velocity": 0.8661417322834646,
          "duration": 0.13736249999999472
        },
        {
          "name": "F3",
          "midi": 53,
          "time": 116.3735099999994,
          "velocity": 0.8661417322834646,
          "duration": 0.13736249999999472
        },
        {
          "name": "D2",
          "midi": 38,
          "time": 116.5383449999994,
          "velocity": 0.8661417322834646,
          "duration": 0.13736249999999472
        },
        {
          "name": "D3",
          "midi": 50,
          "time": 116.70317999999939,
          "velocity": 0.8661417322834646,
          "duration": 0.13736249999999472
        },
        {
          "name": "F3",
          "midi": 53,
          "time": 116.70317999999939,
          "velocity": 0.8661417322834646,
          "duration": 0.13736249999999472
        },
        {
          "name": "D2",
          "midi": 38,
          "time": 116.86801499999939,
          "velocity": 0.8661417322834646,
          "duration": 0.13736249999999472
        },
        {
          "name": "D3",
          "midi": 50,
          "time": 117.03284999999939,
          "velocity": 0.8661417322834646,
          "duration": 0.13736249999999472
        },
        {
          "name": "F3",
          "midi": 53,
          "time": 117.03284999999939,
          "velocity": 0.8661417322834646,
          "duration": 0.13736249999999472
        },
        {
          "name": "D2",
          "midi": 38,
          "time": 117.19768499999938,
          "velocity": 0.8661417322834646,
          "duration": 0.13736249999999472
        },
        {
          "name": "D3",
          "midi": 50,
          "time": 117.36251999999938,
          "velocity": 0.8661417322834646,
          "duration": 0.13736249999999472
        },
        {
          "name": "F3",
          "midi": 53,
          "time": 117.36251999999938,
          "velocity": 0.8661417322834646,
          "duration": 0.13736249999999472
        },
        {
          "name": "D2",
          "midi": 38,
          "time": 117.52735499999937,
          "velocity": 0.8661417322834646,
          "duration": 0.13736249999999472
        },
        {
          "name": "D3",
          "midi": 50,
          "time": 117.69218999999937,
          "velocity": 0.8661417322834646,
          "duration": 0.13736249999999472
        },
        {
          "name": "F3",
          "midi": 53,
          "time": 117.69218999999937,
          "velocity": 0.8661417322834646,
          "duration": 0.13736249999999472
        },
        {
          "name": "D2",
          "midi": 38,
          "time": 117.85702499999937,
          "velocity": 0.8661417322834646,
          "duration": 0.13736249999999472
        },
        {
          "name": "D3",
          "midi": 50,
          "time": 118.02185999999936,
          "velocity": 0.8661417322834646,
          "duration": 0.13736249999999472
        },
        {
          "name": "F3",
          "midi": 53,
          "time": 118.02185999999936,
          "velocity": 0.8661417322834646,
          "duration": 0.13736249999999472
        },
        {
          "name": "D2",
          "midi": 38,
          "time": 118.18669499999936,
          "velocity": 0.8661417322834646,
          "duration": 0.13736249999999472
        },
        {
          "name": "D3",
          "midi": 50,
          "time": 118.35152999999936,
          "velocity": 0.8661417322834646,
          "duration": 0.13736249999999472
        },
        {
          "name": "F3",
          "midi": 53,
          "time": 118.35152999999936,
          "velocity": 0.8661417322834646,
          "duration": 0.13736249999999472
        },
        {
          "name": "D2",
          "midi": 38,
          "time": 118.51636499999935,
          "velocity": 0.8661417322834646,
          "duration": 0.13736249999999472
        },
        {
          "name": "D3",
          "midi": 50,
          "time": 118.68119999999935,
          "velocity": 0.8661417322834646,
          "duration": 0.13736249999999472
        },
        {
          "name": "F3",
          "midi": 53,
          "time": 118.68119999999935,
          "velocity": 0.8661417322834646,
          "duration": 0.13736249999999472
        },
        {
          "name": "D2",
          "midi": 38,
          "time": 118.84603499999935,
          "velocity": 0.8661417322834646,
          "duration": 0.13736249999999472
        },
        {
          "name": "D3",
          "midi": 50,
          "time": 119.01086999999934,
          "velocity": 0.8661417322834646,
          "duration": 0.13736249999999472
        },
        {
          "name": "F3",
          "midi": 53,
          "time": 119.01086999999934,
          "velocity": 0.8661417322834646,
          "duration": 0.13736249999999472
        },
        {
          "name": "D2",
          "midi": 38,
          "time": 119.17570499999934,
          "velocity": 0.8661417322834646,
          "duration": 0.13736249999999472
        },
        {
          "name": "D3",
          "midi": 50,
          "time": 119.34053999999934,
          "velocity": 0.8661417322834646,
          "duration": 0.13736249999999472
        },
        {
          "name": "F3",
          "midi": 53,
          "time": 119.34053999999934,
          "velocity": 0.8661417322834646,
          "duration": 0.13736249999999472
        },
        {
          "name": "D2",
          "midi": 38,
          "time": 119.50537499999933,
          "velocity": 0.8661417322834646,
          "duration": 0.13736249999999472
        },
        {
          "name": "D3",
          "midi": 50,
          "time": 119.67020999999933,
          "velocity": 0.8661417322834646,
          "duration": 0.13736249999999472
        },
        {
          "name": "F3",
          "midi": 53,
          "time": 119.67020999999933,
          "velocity": 0.8661417322834646,
          "duration": 0.13736249999999472
        },
        {
          "name": "D2",
          "midi": 38,
          "time": 119.83504499999933,
          "velocity": 0.8661417322834646,
          "duration": 0.13736249999999472
        },
        {
          "name": "D3",
          "midi": 50,
          "time": 119.99987999999932,
          "velocity": 0.8661417322834646,
          "duration": 0.13736249999999472
        },
        {
          "name": "F3",
          "midi": 53,
          "time": 119.99987999999932,
          "velocity": 0.8661417322834646,
          "duration": 0.13736249999999472
        },
        {
          "name": "D2",
          "midi": 38,
          "time": 120.16471499999932,
          "velocity": 0.8661417322834646,
          "duration": 0.13736249999999472
        },
        {
          "name": "D3",
          "midi": 50,
          "time": 120.32954999999932,
          "velocity": 0.8661417322834646,
          "duration": 0.13736249999999472
        },
        {
          "name": "F3",
          "midi": 53,
          "time": 120.32954999999932,
          "velocity": 0.8661417322834646,
          "duration": 0.13736249999999472
        },
        {
          "name": "D2",
          "midi": 38,
          "time": 120.49438499999931,
          "velocity": 0.8661417322834646,
          "duration": 0.13736249999999472
        },
        {
          "name": "D3",
          "midi": 50,
          "time": 120.65921999999931,
          "velocity": 0.8661417322834646,
          "duration": 0.13736249999999472
        },
        {
          "name": "F3",
          "midi": 53,
          "time": 120.65921999999931,
          "velocity": 0.8661417322834646,
          "duration": 0.13736249999999472
        },
        {
          "name": "D2",
          "midi": 38,
          "time": 120.8240549999993,
          "velocity": 0.8661417322834646,
          "duration": 0.13736249999999472
        },
        {
          "name": "D3",
          "midi": 50,
          "time": 120.9888899999993,
          "velocity": 0.8661417322834646,
          "duration": 0.13736249999999472
        },
        {
          "name": "F3",
          "midi": 53,
          "time": 120.9888899999993,
          "velocity": 0.8661417322834646,
          "duration": 0.13736249999999472
        },
        {
          "name": "D2",
          "midi": 38,
          "time": 121.1537249999993,
          "velocity": 0.8661417322834646,
          "duration": 0.13736249999999472
        },
        {
          "name": "D3",
          "midi": 50,
          "time": 121.3185599999993,
          "velocity": 0.8661417322834646,
          "duration": 0.13736249999999472
        },
        {
          "name": "F3",
          "midi": 53,
          "time": 121.3185599999993,
          "velocity": 0.8661417322834646,
          "duration": 0.13736249999999472
        },
        {
          "name": "D2",
          "midi": 38,
          "time": 121.48339499999929,
          "velocity": 0.8661417322834646,
          "duration": 0.13736249999999472
        },
        {
          "name": "D3",
          "midi": 50,
          "time": 121.64822999999929,
          "velocity": 0.8661417322834646,
          "duration": 0.13736249999999472
        },
        {
          "name": "F3",
          "midi": 53,
          "time": 121.64822999999929,
          "velocity": 0.8661417322834646,
          "duration": 0.13736249999999472
        },
        {
          "name": "D2",
          "midi": 38,
          "time": 121.81306499999928,
          "velocity": 0.8661417322834646,
          "duration": 0.13736249999999472
        },
        {
          "name": "D3",
          "midi": 50,
          "time": 121.97789999999928,
          "velocity": 0.8661417322834646,
          "duration": 0.13736249999999472
        },
        {
          "name": "F3",
          "midi": 53,
          "time": 121.97789999999928,
          "velocity": 0.8661417322834646,
          "duration": 0.13736249999999472
        },
        {
          "name": "D2",
          "midi": 38,
          "time": 122.14273499999928,
          "velocity": 0.8661417322834646,
          "duration": 0.13736249999999472
        },
        {
          "name": "D3",
          "midi": 50,
          "time": 122.30756999999927,
          "velocity": 0.8661417322834646,
          "duration": 0.13736249999999472
        },
        {
          "name": "F3",
          "midi": 53,
          "time": 122.30756999999927,
          "velocity": 0.8661417322834646,
          "duration": 0.13736249999999472
        },
        {
          "name": "D2",
          "midi": 38,
          "time": 122.47240499999927,
          "velocity": 0.8661417322834646,
          "duration": 0.13736249999999472
        },
        {
          "name": "D3",
          "midi": 50,
          "time": 122.63723999999927,
          "velocity": 0.8661417322834646,
          "duration": 0.13736249999999472
        },
        {
          "name": "F3",
          "midi": 53,
          "time": 122.63723999999927,
          "velocity": 0.8661417322834646,
          "duration": 0.13736249999999472
        },
        {
          "name": "D2",
          "midi": 38,
          "time": 122.80207499999926,
          "velocity": 0.8661417322834646,
          "duration": 0.13736249999999472
        },
        {
          "name": "D3",
          "midi": 50,
          "time": 122.96690999999926,
          "velocity": 0.8661417322834646,
          "duration": 0.13736249999999472
        },
        {
          "name": "F3",
          "midi": 53,
          "time": 122.96690999999926,
          "velocity": 0.8661417322834646,
          "duration": 0.13736249999999472
        },
        {
          "name": "D2",
          "midi": 38,
          "time": 123.13174499999926,
          "velocity": 0.8661417322834646,
          "duration": 0.13736249999999472
        },
        {
          "name": "D3",
          "midi": 50,
          "time": 123.29657999999925,
          "velocity": 0.8661417322834646,
          "duration": 0.13736249999999472
        },
        {
          "name": "F3",
          "midi": 53,
          "time": 123.29657999999925,
          "velocity": 0.8661417322834646,
          "duration": 0.13736249999999472
        },
        {
          "name": "D2",
          "midi": 38,
          "time": 123.46141499999925,
          "velocity": 0.8661417322834646,
          "duration": 0.13736249999999472
        },
        {
          "name": "D3",
          "midi": 50,
          "time": 123.62624999999925,
          "velocity": 0.8661417322834646,
          "duration": 0.13736249999999472
        },
        {
          "name": "F3",
          "midi": 53,
          "time": 123.62624999999925,
          "velocity": 0.8661417322834646,
          "duration": 0.13736249999999472
        },
        {
          "name": "D2",
          "midi": 38,
          "time": 123.79108499999924,
          "velocity": 0.8661417322834646,
          "duration": 0.13736249999999472
        },
        {
          "name": "D3",
          "midi": 50,
          "time": 123.95591999999924,
          "velocity": 0.8661417322834646,
          "duration": 0.13736249999999472
        },
        {
          "name": "F3",
          "midi": 53,
          "time": 123.95591999999924,
          "velocity": 0.8661417322834646,
          "duration": 0.13736249999999472
        },
        {
          "name": "D2",
          "midi": 38,
          "time": 124.12075499999924,
          "velocity": 0.8661417322834646,
          "duration": 0.13736249999999472
        },
        {
          "name": "D3",
          "midi": 50,
          "time": 124.28558999999923,
          "velocity": 0.8661417322834646,
          "duration": 0.13736249999999472
        },
        {
          "name": "F3",
          "midi": 53,
          "time": 124.28558999999923,
          "velocity": 0.8661417322834646,
          "duration": 0.13736249999999472
        },
        {
          "name": "D2",
          "midi": 38,
          "time": 124.45042499999923,
          "velocity": 0.8661417322834646,
          "duration": 0.13736249999999472
        },
        {
          "name": "D3",
          "midi": 50,
          "time": 124.61525999999922,
          "velocity": 0.8661417322834646,
          "duration": 0.13736249999999472
        },
        {
          "name": "F3",
          "midi": 53,
          "time": 124.61525999999922,
          "velocity": 0.8661417322834646,
          "duration": 0.13736249999999472
        },
        {
          "name": "D2",
          "midi": 38,
          "time": 124.78009499999922,
          "velocity": 0.8661417322834646,
          "duration": 0.13736249999999472
        },
        {
          "name": "D3",
          "midi": 50,
          "time": 124.94492999999922,
          "velocity": 0.8661417322834646,
          "duration": 0.13736249999999472
        },
        {
          "name": "F3",
          "midi": 53,
          "time": 124.94492999999922,
          "velocity": 0.8661417322834646,
          "duration": 0.13736249999999472
        },
        {
          "name": "D2",
          "midi": 38,
          "time": 125.10976499999921,
          "velocity": 0.8661417322834646,
          "duration": 0.13736249999999472
        },
        {
          "name": "D3",
          "midi": 50,
          "time": 125.27459999999921,
          "velocity": 0.8661417322834646,
          "duration": 0.13736249999999472
        },
        {
          "name": "F3",
          "midi": 53,
          "time": 125.27459999999921,
          "velocity": 0.8661417322834646,
          "duration": 0.13736249999999472
        },
        {
          "name": "D2",
          "midi": 38,
          "time": 125.43943499999921,
          "velocity": 0.8661417322834646,
          "duration": 0.13736249999999472
        },
        {
          "name": "D3",
          "midi": 50,
          "time": 125.6042699999992,
          "velocity": 0.8661417322834646,
          "duration": 0.13736249999999472
        },
        {
          "name": "F3",
          "midi": 53,
          "time": 125.6042699999992,
          "velocity": 0.8661417322834646,
          "duration": 0.13736249999999472
        },
        {
          "name": "D2",
          "midi": 38,
          "time": 125.7691049999992,
          "velocity": 0.8661417322834646,
          "duration": 0.13736249999999472
        },
        {
          "name": "D3",
          "midi": 50,
          "time": 125.9339399999992,
          "velocity": 0.8661417322834646,
          "duration": 0.13736249999999472
        },
        {
          "name": "F3",
          "midi": 53,
          "time": 125.9339399999992,
          "velocity": 0.8661417322834646,
          "duration": 0.13736249999999472
        },
        {
          "name": "D2",
          "midi": 38,
          "time": 126.0987749999992,
          "velocity": 0.8661417322834646,
          "duration": 0.13736249999999472
        },
        {
          "name": "D3",
          "midi": 50,
          "time": 126.26360999999919,
          "velocity": 0.8661417322834646,
          "duration": 0.13736249999999472
        },
        {
          "name": "F3",
          "midi": 53,
          "time": 126.26360999999919,
          "velocity": 0.8661417322834646,
          "duration": 0.13736249999999472
        },
        {
          "name": "D2",
          "midi": 38,
          "time": 126.42844499999919,
          "velocity": 0.8661417322834646,
          "duration": 0.13736249999999472
        },
        {
          "name": "D3",
          "midi": 50,
          "time": 126.59327999999918,
          "velocity": 0.8661417322834646,
          "duration": 0.13736249999999472
        },
        {
          "name": "F3",
          "midi": 53,
          "time": 126.59327999999918,
          "velocity": 0.8661417322834646,
          "duration": 0.13736249999999472
        },
        {
          "name": "D2",
          "midi": 38,
          "time": 126.75811499999918,
          "velocity": 0.8661417322834646,
          "duration": 0.13736249999999472
        },
        {
          "name": "D3",
          "midi": 50,
          "time": 126.92294999999918,
          "velocity": 0.8661417322834646,
          "duration": 0.13736249999999472
        },
        {
          "name": "F3",
          "midi": 53,
          "time": 126.92294999999918,
          "velocity": 0.8661417322834646,
          "duration": 0.13736249999999472
        },
        {
          "name": "D2",
          "midi": 38,
          "time": 127.08778499999917,
          "velocity": 0.8661417322834646,
          "duration": 0.13736249999999472
        },
        {
          "name": "D3",
          "midi": 50,
          "time": 127.25261999999917,
          "velocity": 0.8661417322834646,
          "duration": 0.13736249999999472
        },
        {
          "name": "F3",
          "midi": 53,
          "time": 127.25261999999917,
          "velocity": 0.8661417322834646,
          "duration": 0.13736249999999472
        },
        {
          "name": "D2",
          "midi": 38,
          "time": 127.41745499999917,
          "velocity": 0.8661417322834646,
          "duration": 0.13736249999999472
        },
        {
          "name": "D3",
          "midi": 50,
          "time": 127.58228999999916,
          "velocity": 0.8661417322834646,
          "duration": 0.13736249999999472
        },
        {
          "name": "F3",
          "midi": 53,
          "time": 127.58228999999916,
          "velocity": 0.8661417322834646,
          "duration": 0.13736249999999472
        },
        {
          "name": "A#1",
          "midi": 34,
          "time": 127.74712499999916,
          "velocity": 0.8661417322834646,
          "duration": 0.13736249999999472
        },
        {
          "name": "A#2",
          "midi": 46,
          "time": 127.91195999999916,
          "velocity": 0.8661417322834646,
          "duration": 0.13736250000000894
        },
        {
          "name": "D3",
          "midi": 50,
          "time": 127.91195999999916,
          "velocity": 0.8661417322834646,
          "duration": 0.13736250000000894
        },
        {
          "name": "A#1",
          "midi": 34,
          "time": 128.07679499999915,
          "velocity": 0.8661417322834646,
          "duration": 0.13736249999999472
        },
        {
          "name": "A#2",
          "midi": 46,
          "time": 128.24162999999913,
          "velocity": 0.8661417322834646,
          "duration": 0.13736249999999472
        },
        {
          "name": "D3",
          "midi": 50,
          "time": 128.24162999999913,
          "velocity": 0.8661417322834646,
          "duration": 0.13736249999999472
        },
        {
          "name": "C2",
          "midi": 36,
          "time": 128.40646499999912,
          "velocity": 0.8661417322834646,
          "duration": 0.13736249999999472
        },
        {
          "name": "C3",
          "midi": 48,
          "time": 128.5712999999991,
          "velocity": 0.8661417322834646,
          "duration": 0.13736249999999472
        },
        {
          "name": "E3",
          "midi": 52,
          "time": 128.5712999999991,
          "velocity": 0.8661417322834646,
          "duration": 0.13736249999999472
        },
        {
          "name": "C2",
          "midi": 36,
          "time": 128.73613499999908,
          "velocity": 0.8661417322834646,
          "duration": 0.13736249999999472
        },
        {
          "name": "C3",
          "midi": 48,
          "time": 128.90096999999906,
          "velocity": 0.8661417322834646,
          "duration": 0.13736249999999472
        },
        {
          "name": "E3",
          "midi": 52,
          "time": 128.90096999999906,
          "velocity": 0.8661417322834646,
          "duration": 0.13736249999999472
        },
        {
          "name": "D2",
          "midi": 38,
          "time": 129.06580499999905,
          "velocity": 0.8661417322834646,
          "duration": 0.13736249999999472
        },
        {
          "name": "D3",
          "midi": 50,
          "time": 129.23063999999903,
          "velocity": 0.8661417322834646,
          "duration": 0.13736249999999472
        },
        {
          "name": "F3",
          "midi": 53,
          "time": 129.23063999999903,
          "velocity": 0.8661417322834646,
          "duration": 0.13736249999999472
        },
        {
          "name": "D2",
          "midi": 38,
          "time": 129.395474999999,
          "velocity": 0.8661417322834646,
          "duration": 0.13736249999999472
        },
        {
          "name": "D3",
          "midi": 50,
          "time": 129.560309999999,
          "velocity": 0.8661417322834646,
          "duration": 0.13736249999999472
        },
        {
          "name": "F3",
          "midi": 53,
          "time": 129.560309999999,
          "velocity": 0.8661417322834646,
          "duration": 0.13736249999999472
        },
        {
          "name": "D2",
          "midi": 38,
          "time": 129.72514499999897,
          "velocity": 0.8661417322834646,
          "duration": 0.13736249999999472
        },
        {
          "name": "D3",
          "midi": 50,
          "time": 129.88997999999896,
          "velocity": 0.8661417322834646,
          "duration": 0.13736249999999472
        },
        {
          "name": "F3",
          "midi": 53,
          "time": 129.88997999999896,
          "velocity": 0.8661417322834646,
          "duration": 0.13736249999999472
        },
        {
          "name": "D2",
          "midi": 38,
          "time": 130.05481499999894,
          "velocity": 0.8661417322834646,
          "duration": 0.13736249999999472
        },
        {
          "name": "D3",
          "midi": 50,
          "time": 130.21964999999892,
          "velocity": 0.8661417322834646,
          "duration": 0.13736249999999472
        },
        {
          "name": "F3",
          "midi": 53,
          "time": 130.21964999999892,
          "velocity": 0.8661417322834646,
          "duration": 0.13736249999999472
        },
        {
          "name": "A#1",
          "midi": 34,
          "time": 130.3844849999989,
          "velocity": 0.8661417322834646,
          "duration": 0.13736249999999472
        },
        {
          "name": "A#2",
          "midi": 46,
          "time": 130.5493199999989,
          "velocity": 0.8661417322834646,
          "duration": 0.13736249999999472
        },
        {
          "name": "D3",
          "midi": 50,
          "time": 130.5493199999989,
          "velocity": 0.8661417322834646,
          "duration": 0.13736249999999472
        },
        {
          "name": "A#1",
          "midi": 34,
          "time": 130.71415499999887,
          "velocity": 0.8661417322834646,
          "duration": 0.13736249999999472
        },
        {
          "name": "A#2",
          "midi": 46,
          "time": 130.87898999999885,
          "velocity": 0.8661417322834646,
          "duration": 0.13736249999999472
        },
        {
          "name": "D3",
          "midi": 50,
          "time": 130.87898999999885,
          "velocity": 0.8661417322834646,
          "duration": 0.13736249999999472
        },
        {
          "name": "C2",
          "midi": 36,
          "time": 131.04382499999883,
          "velocity": 0.8661417322834646,
          "duration": 0.13736249999999472
        },
        {
          "name": "C3",
          "midi": 48,
          "time": 131.20865999999882,
          "velocity": 0.8661417322834646,
          "duration": 0.13736249999999472
        },
        {
          "name": "E3",
          "midi": 52,
          "time": 131.20865999999882,
          "velocity": 0.8661417322834646,
          "duration": 0.13736249999999472
        },
        {
          "name": "C2",
          "midi": 36,
          "time": 131.3734949999988,
          "velocity": 0.8661417322834646,
          "duration": 0.13736249999999472
        },
        {
          "name": "C3",
          "midi": 48,
          "time": 131.53832999999878,
          "velocity": 0.8661417322834646,
          "duration": 0.13736249999999472
        },
        {
          "name": "E3",
          "midi": 52,
          "time": 131.53832999999878,
          "velocity": 0.8661417322834646,
          "duration": 0.13736249999999472
        },
        {
          "name": "D2",
          "midi": 38,
          "time": 131.70316499999876,
          "velocity": 0.8661417322834646,
          "duration": 0.13736249999999472
        },
        {
          "name": "D3",
          "midi": 50,
          "time": 131.86799999999874,
          "velocity": 0.8661417322834646,
          "duration": 0.13736249999999472
        },
        {
          "name": "E2",
          "midi": 40,
          "time": 132.03283499999873,
          "velocity": 0.8661417322834646,
          "duration": 0.13736249999999472
        },
        {
          "name": "E3",
          "midi": 52,
          "time": 132.1976699999987,
          "velocity": 0.8661417322834646,
          "duration": 0.13736249999999472
        },
        {
          "name": "F2",
          "midi": 41,
          "time": 132.3625049999987,
          "velocity": 0.8661417322834646,
          "duration": 0.13736249999999472
        },
        {
          "name": "F3",
          "midi": 53,
          "time": 132.52733999999867,
          "velocity": 0.8661417322834646,
          "duration": 0.13736249999999472
        },
        {
          "name": "G2",
          "midi": 43,
          "time": 132.69217499999866,
          "velocity": 0.8661417322834646,
          "duration": 0.13736249999999472
        },
        {
          "name": "G3",
          "midi": 55,
          "time": 132.85700999999864,
          "velocity": 0.8661417322834646,
          "duration": 0.13736249999999472
        },
        {
          "name": "A#1",
          "midi": 34,
          "time": 133.02184499999862,
          "velocity": 0.8661417322834646,
          "duration": 0.13736249999999472
        },
        {
          "name": "A#2",
          "midi": 46,
          "time": 133.1866799999986,
          "velocity": 0.8661417322834646,
          "duration": 0.13736249999999472
        },
        {
          "name": "D3",
          "midi": 50,
          "time": 133.1866799999986,
          "velocity": 0.8661417322834646,
          "duration": 0.13736249999999472
        },
        {
          "name": "A#1",
          "midi": 34,
          "time": 133.35151499999859,
          "velocity": 0.8661417322834646,
          "duration": 0.13736249999999472
        },
        {
          "name": "A#2",
          "midi": 46,
          "time": 133.51634999999857,
          "velocity": 0.8661417322834646,
          "duration": 0.13736249999999472
        },
        {
          "name": "D3",
          "midi": 50,
          "time": 133.51634999999857,
          "velocity": 0.8661417322834646,
          "duration": 0.13736249999999472
        },
        {
          "name": "C2",
          "midi": 36,
          "time": 133.68118499999855,
          "velocity": 0.8661417322834646,
          "duration": 0.13736249999999472
        },
        {
          "name": "C3",
          "midi": 48,
          "time": 133.84601999999853,
          "velocity": 0.8661417322834646,
          "duration": 0.13736249999999472
        },
        {
          "name": "E3",
          "midi": 52,
          "time": 133.84601999999853,
          "velocity": 0.8661417322834646,
          "duration": 0.13736249999999472
        },
        {
          "name": "C2",
          "midi": 36,
          "time": 134.01085499999851,
          "velocity": 0.8661417322834646,
          "duration": 0.13736249999999472
        },
        {
          "name": "C3",
          "midi": 48,
          "time": 134.1756899999985,
          "velocity": 0.8661417322834646,
          "duration": 0.13736249999999472
        },
        {
          "name": "E3",
          "midi": 52,
          "time": 134.1756899999985,
          "velocity": 0.8661417322834646,
          "duration": 0.13736249999999472
        },
        {
          "name": "D2",
          "midi": 38,
          "time": 134.34052499999848,
          "velocity": 0.8661417322834646,
          "duration": 0.13736249999999472
        },
        {
          "name": "D3",
          "midi": 50,
          "time": 134.50535999999846,
          "velocity": 0.8661417322834646,
          "duration": 0.13736249999999472
        },
        {
          "name": "F3",
          "midi": 53,
          "time": 134.50535999999846,
          "velocity": 0.8661417322834646,
          "duration": 0.13736249999999472
        },
        {
          "name": "D2",
          "midi": 38,
          "time": 134.67019499999844,
          "velocity": 0.8661417322834646,
          "duration": 0.13736249999999472
        },
        {
          "name": "D3",
          "midi": 50,
          "time": 134.83502999999843,
          "velocity": 0.8661417322834646,
          "duration": 0.13736249999999472
        },
        {
          "name": "F3",
          "midi": 53,
          "time": 134.83502999999843,
          "velocity": 0.8661417322834646,
          "duration": 0.13736249999999472
        },
        {
          "name": "D2",
          "midi": 38,
          "time": 134.9998649999984,
          "velocity": 0.8661417322834646,
          "duration": 0.13736249999999472
        },
        {
          "name": "D3",
          "midi": 50,
          "time": 135.1646999999984,
          "velocity": 0.8661417322834646,
          "duration": 0.13736249999999472
        },
        {
          "name": "F3",
          "midi": 53,
          "time": 135.1646999999984,
          "velocity": 0.8661417322834646,
          "duration": 0.13736249999999472
        },
        {
          "name": "D2",
          "midi": 38,
          "time": 135.32953499999837,
          "velocity": 0.8661417322834646,
          "duration": 0.13736249999999472
        },
        {
          "name": "D3",
          "midi": 50,
          "time": 135.49436999999836,
          "velocity": 0.8661417322834646,
          "duration": 0.13736249999999472
        },
        {
          "name": "F3",
          "midi": 53,
          "time": 135.49436999999836,
          "velocity": 0.8661417322834646,
          "duration": 0.13736249999999472
        },
        {
          "name": "G1",
          "midi": 31,
          "time": 135.65920499999834,
          "velocity": 0.8661417322834646,
          "duration": 0.13736249999999472
        },
        {
          "name": "A#2",
          "midi": 46,
          "time": 135.82403999999832,
          "velocity": 0.8661417322834646,
          "duration": 0.13736249999999472
        },
        {
          "name": "G1",
          "midi": 31,
          "time": 135.9888749999983,
          "velocity": 0.8661417322834646,
          "duration": 0.13736249999999472
        },
        {
          "name": "A#2",
          "midi": 46,
          "time": 136.15370999999828,
          "velocity": 0.8661417322834646,
          "duration": 0.13736249999999472
        },
        {
          "name": "A1",
          "midi": 33,
          "time": 136.31854499999827,
          "velocity": 0.8661417322834646,
          "duration": 0.13736249999999472
        },
        {
          "name": "A2",
          "midi": 45,
          "time": 136.48337999999825,
          "velocity": 0.8661417322834646,
          "duration": 0.13736249999999472
        },
        {
          "name": "C3",
          "midi": 48,
          "time": 136.48337999999825,
          "velocity": 0.8661417322834646,
          "duration": 0.13736249999999472
        },
        {
          "name": "A1",
          "midi": 33,
          "time": 136.64821499999823,
          "velocity": 0.8661417322834646,
          "duration": 0.13736249999999472
        },
        {
          "name": "A2",
          "midi": 45,
          "time": 136.8130499999982,
          "velocity": 0.8661417322834646,
          "duration": 0.13736249999999472
        },
        {
          "name": "C3",
          "midi": 48,
          "time": 136.8130499999982,
          "velocity": 0.8661417322834646,
          "duration": 0.13736249999999472
        },
        {
          "name": "A#1",
          "midi": 34,
          "time": 136.9778849999982,
          "velocity": 0.8661417322834646,
          "duration": 0.13736249999999472
        },
        {
          "name": "A#2",
          "midi": 46,
          "time": 137.14271999999818,
          "velocity": 0.8661417322834646,
          "duration": 0.13736249999999472
        },
        {
          "name": "D3",
          "midi": 50,
          "time": 137.14271999999818,
          "velocity": 0.8661417322834646,
          "duration": 0.13736249999999472
        },
        {
          "name": "B1",
          "midi": 35,
          "time": 137.30755499999816,
          "velocity": 0.8661417322834646,
          "duration": 0.13736249999999472
        },
        {
          "name": "B2",
          "midi": 47,
          "time": 137.47238999999814,
          "velocity": 0.8661417322834646,
          "duration": 0.13736249999999472
        },
        {
          "name": "D3",
          "midi": 50,
          "time": 137.47238999999814,
          "velocity": 0.8661417322834646,
          "duration": 0.13736249999999472
        },
        {
          "name": "C2",
          "midi": 36,
          "time": 137.63722499999812,
          "velocity": 0.8661417322834646,
          "duration": 0.13736249999999472
        },
        {
          "name": "C3",
          "midi": 48,
          "time": 137.8020599999981,
          "velocity": 0.8661417322834646,
          "duration": 0.13736249999999472
        },
        {
          "name": "E3",
          "midi": 52,
          "time": 137.8020599999981,
          "velocity": 0.8661417322834646,
          "duration": 0.13736249999999472
        },
        {
          "name": "C2",
          "midi": 36,
          "time": 137.9668949999981,
          "velocity": 0.8661417322834646,
          "duration": 0.13736249999999472
        },
        {
          "name": "C3",
          "midi": 48,
          "time": 138.13172999999807,
          "velocity": 0.8661417322834646,
          "duration": 0.13736249999999472
        },
        {
          "name": "E3",
          "midi": 52,
          "time": 138.13172999999807,
          "velocity": 0.8661417322834646,
          "duration": 0.13736249999999472
        },
        {
          "name": "A#1",
          "midi": 34,
          "time": 138.29656499999805,
          "velocity": 0.8661417322834646,
          "duration": 0.13736249999999472
        },
        {
          "name": "A#2",
          "midi": 46,
          "time": 138.46139999999804,
          "velocity": 0.8661417322834646,
          "duration": 0.13736249999999472
        },
        {
          "name": "D3",
          "midi": 50,
          "time": 138.46139999999804,
          "velocity": 0.8661417322834646,
          "duration": 0.13736249999999472
        },
        {
          "name": "A#1",
          "midi": 34,
          "time": 138.62623499999802,
          "velocity": 0.8661417322834646,
          "duration": 0.13736249999999472
        },
        {
          "name": "A#2",
          "midi": 46,
          "time": 138.791069999998,
          "velocity": 0.8661417322834646,
          "duration": 0.13736249999999472
        },
        {
          "name": "D3",
          "midi": 50,
          "time": 138.791069999998,
          "velocity": 0.8661417322834646,
          "duration": 0.13736249999999472
        },
        {
          "name": "C2",
          "midi": 36,
          "time": 138.95590499999798,
          "velocity": 0.8661417322834646,
          "duration": 0.13736249999999472
        },
        {
          "name": "C3",
          "midi": 48,
          "time": 139.12073999999797,
          "velocity": 0.8661417322834646,
          "duration": 0.13736249999999472
        },
        {
          "name": "E3",
          "midi": 52,
          "time": 139.12073999999797,
          "velocity": 0.8661417322834646,
          "duration": 0.13736249999999472
        },
        {
          "name": "C2",
          "midi": 36,
          "time": 139.28557499999795,
          "velocity": 0.8661417322834646,
          "duration": 0.13736249999999472
        },
        {
          "name": "C3",
          "midi": 48,
          "time": 139.45040999999793,
          "velocity": 0.8661417322834646,
          "duration": 0.13736249999999472
        },
        {
          "name": "E3",
          "midi": 52,
          "time": 139.45040999999793,
          "velocity": 0.8661417322834646,
          "duration": 0.13736249999999472
        },
        {
          "name": "D2",
          "midi": 38,
          "time": 139.6152449999979,
          "velocity": 0.8661417322834646,
          "duration": 0.13736249999999472
        },
        {
          "name": "D3",
          "midi": 50,
          "time": 139.7800799999979,
          "velocity": 0.8661417322834646,
          "duration": 0.13736249999999472
        },
        {
          "name": "F3",
          "midi": 53,
          "time": 139.7800799999979,
          "velocity": 0.8661417322834646,
          "duration": 0.13736249999999472
        },
        {
          "name": "D2",
          "midi": 38,
          "time": 139.94491499999788,
          "velocity": 0.8661417322834646,
          "duration": 0.13736249999999472
        },
        {
          "name": "D3",
          "midi": 50,
          "time": 140.10974999999786,
          "velocity": 0.8661417322834646,
          "duration": 0.13736249999999472
        },
        {
          "name": "F3",
          "midi": 53,
          "time": 140.10974999999786,
          "velocity": 0.8661417322834646,
          "duration": 0.13736249999999472
        },
        {
          "name": "D2",
          "midi": 38,
          "time": 140.27458499999784,
          "velocity": 0.8661417322834646,
          "duration": 0.13736249999999472
        },
        {
          "name": "D3",
          "midi": 50,
          "time": 140.43941999999782,
          "velocity": 0.8661417322834646,
          "duration": 0.13736249999999472
        },
        {
          "name": "F3",
          "midi": 53,
          "time": 140.43941999999782,
          "velocity": 0.8661417322834646,
          "duration": 0.13736249999999472
        },
        {
          "name": "D2",
          "midi": 38,
          "time": 140.6042549999978,
          "velocity": 0.8661417322834646,
          "duration": 0.13736249999999472
        },
        {
          "name": "D3",
          "midi": 50,
          "time": 140.7690899999978,
          "velocity": 0.8661417322834646,
          "duration": 0.13736249999999472
        },
        {
          "name": "F3",
          "midi": 53,
          "time": 140.7690899999978,
          "velocity": 0.8661417322834646,
          "duration": 0.13736249999999472
        },
        {
          "name": "A#1",
          "midi": 34,
          "time": 140.93392499999777,
          "velocity": 0.8661417322834646,
          "duration": 0.13736249999999472
        },
        {
          "name": "A#2",
          "midi": 46,
          "time": 141.09875999999775,
          "velocity": 0.8661417322834646,
          "duration": 0.13736249999999472
        },
        {
          "name": "D3",
          "midi": 50,
          "time": 141.09875999999775,
          "velocity": 0.8661417322834646,
          "duration": 0.13736249999999472
        },
        {
          "name": "A#1",
          "midi": 34,
          "time": 141.26359499999774,
          "velocity": 0.8661417322834646,
          "duration": 0.13736249999999472
        },
        {
          "name": "A#2",
          "midi": 46,
          "time": 141.42842999999772,
          "velocity": 0.8661417322834646,
          "duration": 0.13736249999999472
        },
        {
          "name": "D3",
          "midi": 50,
          "time": 141.42842999999772,
          "velocity": 0.8661417322834646,
          "duration": 0.13736249999999472
        },
        {
          "name": "C2",
          "midi": 36,
          "time": 141.5932649999977,
          "velocity": 0.8661417322834646,
          "duration": 0.13736249999999472
        },
        {
          "name": "C3",
          "midi": 48,
          "time": 141.75809999999768,
          "velocity": 0.8661417322834646,
          "duration": 0.13736249999999472
        },
        {
          "name": "E3",
          "midi": 52,
          "time": 141.75809999999768,
          "velocity": 0.8661417322834646,
          "duration": 0.13736249999999472
        },
        {
          "name": "C2",
          "midi": 36,
          "time": 141.92293499999766,
          "velocity": 0.8661417322834646,
          "duration": 0.13736249999999472
        },
        {
          "name": "C3",
          "midi": 48,
          "time": 142.08776999999765,
          "velocity": 0.8661417322834646,
          "duration": 0.13736249999999472
        },
        {
          "name": "E3",
          "midi": 52,
          "time": 142.08776999999765,
          "velocity": 0.8661417322834646,
          "duration": 0.13736249999999472
        },
        {
          "name": "D2",
          "midi": 38,
          "time": 142.25260499999763,
          "velocity": 0.8661417322834646,
          "duration": 0.13736249999999472
        },
        {
          "name": "D3",
          "midi": 50,
          "time": 142.4174399999976,
          "velocity": 0.8661417322834646,
          "duration": 0.13736249999999472
        },
        {
          "name": "E2",
          "midi": 40,
          "time": 142.5822749999976,
          "velocity": 0.8661417322834646,
          "duration": 0.13736249999999472
        },
        {
          "name": "E3",
          "midi": 52,
          "time": 142.74710999999758,
          "velocity": 0.8661417322834646,
          "duration": 0.13736249999999472
        },
        {
          "name": "F2",
          "midi": 41,
          "time": 142.91194499999756,
          "velocity": 0.8661417322834646,
          "duration": 0.13736249999999472
        },
        {
          "name": "F3",
          "midi": 53,
          "time": 143.07677999999754,
          "velocity": 0.8661417322834646,
          "duration": 0.13736249999999472
        },
        {
          "name": "G2",
          "midi": 43,
          "time": 143.24161499999752,
          "velocity": 0.8661417322834646,
          "duration": 0.13736249999999472
        },
        {
          "name": "G3",
          "midi": 55,
          "time": 143.4064499999975,
          "velocity": 0.8661417322834646,
          "duration": 0.13736249999999472
        },
        {
          "name": "A#1",
          "midi": 34,
          "time": 143.5712849999975,
          "velocity": 0.8661417322834646,
          "duration": 0.13736249999999472
        },
        {
          "name": "A#2",
          "midi": 46,
          "time": 143.73611999999747,
          "velocity": 0.8661417322834646,
          "duration": 0.13736249999999472
        },
        {
          "name": "D3",
          "midi": 50,
          "time": 143.73611999999747,
          "velocity": 0.8661417322834646,
          "duration": 0.13736249999999472
        },
        {
          "name": "A#1",
          "midi": 34,
          "time": 143.90095499999745,
          "velocity": 0.8661417322834646,
          "duration": 0.13736249999999472
        },
        {
          "name": "A#2",
          "midi": 46,
          "time": 144.06578999999743,
          "velocity": 0.8661417322834646,
          "duration": 0.13736249999999472
        },
        {
          "name": "D3",
          "midi": 50,
          "time": 144.06578999999743,
          "velocity": 0.8661417322834646,
          "duration": 0.13736249999999472
        },
        {
          "name": "C2",
          "midi": 36,
          "time": 144.23062499999742,
          "velocity": 0.8661417322834646,
          "duration": 0.13736249999999472
        },
        {
          "name": "C3",
          "midi": 48,
          "time": 144.3954599999974,
          "velocity": 0.8661417322834646,
          "duration": 0.13736249999999472
        },
        {
          "name": "E3",
          "midi": 52,
          "time": 144.3954599999974,
          "velocity": 0.8661417322834646,
          "duration": 0.13736249999999472
        },
        {
          "name": "C2",
          "midi": 36,
          "time": 144.56029499999738,
          "velocity": 0.8661417322834646,
          "duration": 0.13736249999999472
        },
        {
          "name": "C3",
          "midi": 48,
          "time": 144.72512999999736,
          "velocity": 0.8661417322834646,
          "duration": 0.13736249999999472
        },
        {
          "name": "E3",
          "midi": 52,
          "time": 144.72512999999736,
          "velocity": 0.8661417322834646,
          "duration": 0.13736249999999472
        },
        {
          "name": "D2",
          "midi": 38,
          "time": 144.88996499999735,
          "velocity": 0.8661417322834646,
          "duration": 0.13736249999999472
        },
        {
          "name": "D3",
          "midi": 50,
          "time": 145.05479999999733,
          "velocity": 0.8661417322834646,
          "duration": 0.13736249999999472
        },
        {
          "name": "F3",
          "midi": 53,
          "time": 145.05479999999733,
          "velocity": 0.8661417322834646,
          "duration": 0.13736249999999472
        },
        {
          "name": "D2",
          "midi": 38,
          "time": 145.2196349999973,
          "velocity": 0.8661417322834646,
          "duration": 0.13736249999999472
        },
        {
          "name": "D3",
          "midi": 50,
          "time": 145.3844699999973,
          "velocity": 0.8661417322834646,
          "duration": 0.13736249999999472
        },
        {
          "name": "F3",
          "midi": 53,
          "time": 145.3844699999973,
          "velocity": 0.8661417322834646,
          "duration": 0.13736249999999472
        },
        {
          "name": "D2",
          "midi": 38,
          "time": 145.54930499999728,
          "velocity": 0.8661417322834646,
          "duration": 0.13736249999999472
        },
        {
          "name": "D3",
          "midi": 50,
          "time": 145.71413999999726,
          "velocity": 0.8661417322834646,
          "duration": 0.13736249999999472
        },
        {
          "name": "F3",
          "midi": 53,
          "time": 145.71413999999726,
          "velocity": 0.8661417322834646,
          "duration": 0.13736249999999472
        },
        {
          "name": "D2",
          "midi": 38,
          "time": 145.87897499999724,
          "velocity": 0.8661417322834646,
          "duration": 0.13736249999999472
        },
        {
          "name": "D3",
          "midi": 50,
          "time": 146.04380999999722,
          "velocity": 0.8661417322834646,
          "duration": 0.13736249999999472
        },
        {
          "name": "F3",
          "midi": 53,
          "time": 146.04380999999722,
          "velocity": 0.8661417322834646,
          "duration": 0.13736249999999472
        },
        {
          "name": "G1",
          "midi": 31,
          "time": 146.2086449999972,
          "velocity": 0.8661417322834646,
          "duration": 0.13736249999999472
        },
        {
          "name": "A#2",
          "midi": 46,
          "time": 146.3734799999972,
          "velocity": 0.8661417322834646,
          "duration": 0.13736249999999472
        },
        {
          "name": "G1",
          "midi": 31,
          "time": 146.53831499999717,
          "velocity": 0.8661417322834646,
          "duration": 0.13736249999999472
        },
        {
          "name": "A#2",
          "midi": 46,
          "time": 146.70314999999715,
          "velocity": 0.8661417322834646,
          "duration": 0.13736249999999472
        },
        {
          "name": "A1",
          "midi": 33,
          "time": 146.86798499999713,
          "velocity": 0.8661417322834646,
          "duration": 0.13736249999999472
        },
        {
          "name": "A2",
          "midi": 45,
          "time": 147.03281999999712,
          "velocity": 0.8661417322834646,
          "duration": 0.13736249999999472
        },
        {
          "name": "C3",
          "midi": 48,
          "time": 147.03281999999712,
          "velocity": 0.8661417322834646,
          "duration": 0.13736249999999472
        },
        {
          "name": "A1",
          "midi": 33,
          "time": 147.1976549999971,
          "velocity": 0.8661417322834646,
          "duration": 0.13736249999999472
        },
        {
          "name": "A#1",
          "midi": 34,
          "time": 147.36248999999708,
          "velocity": 0.8661417322834646,
          "duration": 0.4395600000000002
        },
        {
          "name": "A#2",
          "midi": 46,
          "time": 147.36248999999708,
          "velocity": 0.8661417322834646,
          "duration": 0.4395600000000002
        },
        {
          "name": "B1",
          "midi": 35,
          "time": 147.85699499999708,
          "velocity": 0.8661417322834646,
          "duration": 0.27472499999998945
        },
        {
          "name": "B2",
          "midi": 47,
          "time": 147.85699499999708,
          "velocity": 0.8661417322834646,
          "duration": 0.27472499999998945
        },
        {
          "name": "C2",
          "midi": 36,
          "time": 148.18666499999708,
          "velocity": 0.8661417322834646,
          "duration": 0.5494500000000073
        },
        {
          "name": "C3",
          "midi": 48,
          "time": 148.18666499999708,
          "velocity": 0.8661417322834646,
          "duration": 0.5494500000000073
        },
        {
          "name": "B1",
          "midi": 35,
          "time": 148.8460049999971,
          "velocity": 0.8661417322834646,
          "duration": 0.13736249999999472
        },
        {
          "name": "B2",
          "midi": 47,
          "time": 149.01083999999707,
          "velocity": 0.8661417322834646,
          "duration": 0.13736249999999472
        },
        {
          "name": "D#3",
          "midi": 51,
          "time": 149.01083999999707,
          "velocity": 0.8661417322834646,
          "duration": 0.13736249999999472
        },
        {
          "name": "A#1",
          "midi": 34,
          "time": 149.17567499999706,
          "velocity": 0.8661417322834646,
          "duration": 0.13736249999999472
        },
        {
          "name": "D#3",
          "midi": 51,
          "time": 149.34050999999704,
          "velocity": 0.8661417322834646,
          "duration": 0.13736249999999472
        },
        {
          "name": "C#2",
          "midi": 37,
          "time": 149.50534499999702,
          "velocity": 0.8661417322834646,
          "duration": 0.13736249999999472
        },
        {
          "name": "C#3",
          "midi": 49,
          "time": 149.670179999997,
          "velocity": 0.8661417322834646,
          "duration": 0.13736249999999472
        },
        {
          "name": "F3",
          "midi": 53,
          "time": 149.670179999997,
          "velocity": 0.8661417322834646,
          "duration": 0.13736249999999472
        },
        {
          "name": "C#2",
          "midi": 37,
          "time": 149.835014999997,
          "velocity": 0.8661417322834646,
          "duration": 0.13736249999999472
        },
        {
          "name": "C#3",
          "midi": 49,
          "time": 149.99984999999697,
          "velocity": 0.8661417322834646,
          "duration": 0.13736249999999472
        },
        {
          "name": "F3",
          "midi": 53,
          "time": 149.99984999999697,
          "velocity": 0.8661417322834646,
          "duration": 0.13736249999999472
        },
        {
          "name": "D#2",
          "midi": 39,
          "time": 150.16468499999695,
          "velocity": 0.8661417322834646,
          "duration": 0.13736249999999472
        },
        {
          "name": "D#3",
          "midi": 51,
          "time": 150.32951999999693,
          "velocity": 0.8661417322834646,
          "duration": 0.13736249999999472
        },
        {
          "name": "F#3",
          "midi": 54,
          "time": 150.32951999999693,
          "velocity": 0.8661417322834646,
          "duration": 0.13736249999999472
        },
        {
          "name": "D#2",
          "midi": 39,
          "time": 150.49435499999692,
          "velocity": 0.8661417322834646,
          "duration": 0.13736249999999472
        },
        {
          "name": "D#3",
          "midi": 51,
          "time": 150.6591899999969,
          "velocity": 0.8661417322834646,
          "duration": 0.13736249999999472
        },
        {
          "name": "F#3",
          "midi": 54,
          "time": 150.6591899999969,
          "velocity": 0.8661417322834646,
          "duration": 0.13736249999999472
        },
        {
          "name": "D#2",
          "midi": 39,
          "time": 150.82402499999688,
          "velocity": 0.8661417322834646,
          "duration": 0.13736249999999472
        },
        {
          "name": "D#3",
          "midi": 51,
          "time": 150.98885999999686,
          "velocity": 0.8661417322834646,
          "duration": 0.13736249999999472
        },
        {
          "name": "F#3",
          "midi": 54,
          "time": 150.98885999999686,
          "velocity": 0.8661417322834646,
          "duration": 0.13736249999999472
        },
        {
          "name": "D#2",
          "midi": 39,
          "time": 151.15369499999684,
          "velocity": 0.8661417322834646,
          "duration": 0.13736249999999472
        },
        {
          "name": "D#3",
          "midi": 51,
          "time": 151.31852999999683,
          "velocity": 0.8661417322834646,
          "duration": 0.13736249999999472
        },
        {
          "name": "F#3",
          "midi": 54,
          "time": 151.31852999999683,
          "velocity": 0.8661417322834646,
          "duration": 0.13736249999999472
        },
        {
          "name": "B1",
          "midi": 35,
          "time": 151.4833649999968,
          "velocity": 0.8661417322834646,
          "duration": 0.13736249999999472
        },
        {
          "name": "D#3",
          "midi": 51,
          "time": 151.6481999999968,
          "velocity": 0.8661417322834646,
          "duration": 0.13736249999999472
        },
        {
          "name": "A#1",
          "midi": 34,
          "time": 151.81303499999677,
          "velocity": 0.8661417322834646,
          "duration": 0.13736249999999472
        },
        {
          "name": "D#3",
          "midi": 51,
          "time": 151.97786999999676,
          "velocity": 0.8661417322834646,
          "duration": 0.13736249999999472
        },
        {
          "name": "C#2",
          "midi": 37,
          "time": 152.14270499999674,
          "velocity": 0.8661417322834646,
          "duration": 0.13736249999999472
        },
        {
          "name": "C#3",
          "midi": 49,
          "time": 152.30753999999672,
          "velocity": 0.8661417322834646,
          "duration": 0.13736249999999472
        },
        {
          "name": "F3",
          "midi": 53,
          "time": 152.30753999999672,
          "velocity": 0.8661417322834646,
          "duration": 0.13736249999999472
        },
        {
          "name": "C#2",
          "midi": 37,
          "time": 152.4723749999967,
          "velocity": 0.8661417322834646,
          "duration": 0.13736249999999472
        },
        {
          "name": "C#3",
          "midi": 49,
          "time": 152.63720999999668,
          "velocity": 0.8661417322834646,
          "duration": 0.13736249999999472
        },
        {
          "name": "F3",
          "midi": 53,
          "time": 152.63720999999668,
          "velocity": 0.8661417322834646,
          "duration": 0.13736249999999472
        },
        {
          "name": "D#2",
          "midi": 39,
          "time": 152.80204499999667,
          "velocity": 0.8661417322834646,
          "duration": 0.13736249999999472
        },
        {
          "name": "D#3",
          "midi": 51,
          "time": 152.96687999999665,
          "velocity": 0.8661417322834646,
          "duration": 0.13736249999999472
        },
        {
          "name": "F2",
          "midi": 41,
          "time": 153.13171499999663,
          "velocity": 0.8661417322834646,
          "duration": 0.13736249999999472
        },
        {
          "name": "F3",
          "midi": 53,
          "time": 153.2965499999966,
          "velocity": 0.8661417322834646,
          "duration": 0.13736249999999472
        },
        {
          "name": "F#2",
          "midi": 42,
          "time": 153.4613849999966,
          "velocity": 0.8661417322834646,
          "duration": 0.13736249999999472
        },
        {
          "name": "F#3",
          "midi": 54,
          "time": 153.62621999999658,
          "velocity": 0.8661417322834646,
          "duration": 0.13736249999999472
        },
        {
          "name": "G#2",
          "midi": 44,
          "time": 153.79105499999656,
          "velocity": 0.8661417322834646,
          "duration": 0.13736249999999472
        },
        {
          "name": "G#3",
          "midi": 56,
          "time": 153.95588999999654,
          "velocity": 0.8661417322834646,
          "duration": 0.13736249999999472
        },
        {
          "name": "B1",
          "midi": 35,
          "time": 154.12072499999653,
          "velocity": 0.8661417322834646,
          "duration": 0.13736249999999472
        },
        {
          "name": "D#3",
          "midi": 51,
          "time": 154.2855599999965,
          "velocity": 0.8661417322834646,
          "duration": 0.13736249999999472
        },
        {
          "name": "A#1",
          "midi": 34,
          "time": 154.4503949999965,
          "velocity": 0.8661417322834646,
          "duration": 0.13736249999999472
        },
        {
          "name": "D#3",
          "midi": 51,
          "time": 154.61522999999647,
          "velocity": 0.8661417322834646,
          "duration": 0.13736249999999472
        },
        {
          "name": "C#2",
          "midi": 37,
          "time": 154.78006499999645,
          "velocity": 0.8661417322834646,
          "duration": 0.13736249999999472
        },
        {
          "name": "C#3",
          "midi": 49,
          "time": 154.94489999999644,
          "velocity": 0.8661417322834646,
          "duration": 0.13736249999999472
        },
        {
          "name": "F3",
          "midi": 53,
          "time": 154.94489999999644,
          "velocity": 0.8661417322834646,
          "duration": 0.13736249999999472
        },
        {
          "name": "C#2",
          "midi": 37,
          "time": 155.10973499999642,
          "velocity": 0.8661417322834646,
          "duration": 0.13736249999999472
        },
        {
          "name": "C#3",
          "midi": 49,
          "time": 155.2745699999964,
          "velocity": 0.8661417322834646,
          "duration": 0.13736249999999472
        },
        {
          "name": "F3",
          "midi": 53,
          "time": 155.2745699999964,
          "velocity": 0.8661417322834646,
          "duration": 0.13736249999999472
        },
        {
          "name": "D#2",
          "midi": 39,
          "time": 155.43940499999638,
          "velocity": 0.8661417322834646,
          "duration": 0.13736249999999472
        },
        {
          "name": "D#3",
          "midi": 51,
          "time": 155.60423999999637,
          "velocity": 0.8661417322834646,
          "duration": 0.13736249999999472
        },
        {
          "name": "F#3",
          "midi": 54,
          "time": 155.60423999999637,
          "velocity": 0.8661417322834646,
          "duration": 0.13736249999999472
        },
        {
          "name": "D#2",
          "midi": 39,
          "time": 155.76907499999635,
          "velocity": 0.8661417322834646,
          "duration": 0.13736249999999472
        },
        {
          "name": "D#3",
          "midi": 51,
          "time": 155.93390999999633,
          "velocity": 0.8661417322834646,
          "duration": 0.13736249999999472
        },
        {
          "name": "F#3",
          "midi": 54,
          "time": 155.93390999999633,
          "velocity": 0.8661417322834646,
          "duration": 0.13736249999999472
        },
        {
          "name": "D#2",
          "midi": 39,
          "time": 156.0987449999963,
          "velocity": 0.8661417322834646,
          "duration": 0.13736249999999472
        },
        {
          "name": "D#3",
          "midi": 51,
          "time": 156.2635799999963,
          "velocity": 0.8661417322834646,
          "duration": 0.13736249999999472
        },
        {
          "name": "F#3",
          "midi": 54,
          "time": 156.2635799999963,
          "velocity": 0.8661417322834646,
          "duration": 0.13736249999999472
        },
        {
          "name": "D#2",
          "midi": 39,
          "time": 156.42841499999628,
          "velocity": 0.8661417322834646,
          "duration": 0.13736249999999472
        },
        {
          "name": "D#3",
          "midi": 51,
          "time": 156.59324999999626,
          "velocity": 0.8661417322834646,
          "duration": 0.13736249999999472
        },
        {
          "name": "F#3",
          "midi": 54,
          "time": 156.59324999999626,
          "velocity": 0.8661417322834646,
          "duration": 0.13736249999999472
        },
        {
          "name": "G#1",
          "midi": 32,
          "time": 156.75808499999624,
          "velocity": 0.8661417322834646,
          "duration": 0.13736249999999472
        },
        {
          "name": "A2",
          "midi": 45,
          "time": 156.92291999999622,
          "velocity": 0.8661417322834646,
          "duration": 0.13736249999999472
        },
        {
          "name": "A#2",
          "midi": 46,
          "time": 156.92291999999622,
          "velocity": 0.8661417322834646,
          "duration": 0.13736249999999472
        },
        {
          "name": "G#1",
          "midi": 32,
          "time": 157.0877549999962,
          "velocity": 0.8661417322834646,
          "duration": 0.13736249999999472
        },
        {
          "name": "G#2",
          "midi": 44,
          "time": 157.2525899999962,
          "velocity": 0.8661417322834646,
          "duration": 0.13736249999999472
        },
        {
          "name": "A#2",
          "midi": 46,
          "time": 157.2525899999962,
          "velocity": 0.8661417322834646,
          "duration": 0.13736249999999472
        },
        {
          "name": "A#1",
          "midi": 34,
          "time": 157.41742499999617,
          "velocity": 0.8661417322834646,
          "duration": 0.13736249999999472
        },
        {
          "name": "A#2",
          "midi": 46,
          "time": 157.58225999999615,
          "velocity": 0.8661417322834646,
          "duration": 0.13736249999999472
        },
        {
          "name": "C#3",
          "midi": 49,
          "time": 157.58225999999615,
          "velocity": 0.8661417322834646,
          "duration": 0.13736249999999472
        },
        {
          "name": "B1",
          "midi": 35,
          "time": 157.74709499999614,
          "velocity": 0.8661417322834646,
          "duration": 0.13736249999999472
        },
        {
          "name": "B2",
          "midi": 47,
          "time": 157.91192999999612,
          "velocity": 0.8661417322834646,
          "duration": 0.13736249999999472
        },
        {
          "name": "C#3",
          "midi": 49,
          "time": 157.91192999999612,
          "velocity": 0.8661417322834646,
          "duration": 0.13736249999999472
        },
        {
          "name": "B1",
          "midi": 35,
          "time": 158.0767649999961,
          "velocity": 0.8661417322834646,
          "duration": 0.13736249999999472
        },
        {
          "name": "B2",
          "midi": 47,
          "time": 158.24159999999608,
          "velocity": 0.8661417322834646,
          "duration": 0.13736249999999472
        },
        {
          "name": "C2",
          "midi": 36,
          "time": 158.40643499999607,
          "velocity": 0.8661417322834646,
          "duration": 0.13736249999999472
        },
        {
          "name": "C3",
          "midi": 48,
          "time": 158.57126999999605,
          "velocity": 0.8661417322834646,
          "duration": 0.13736249999999472
        },
        {
          "name": "C#2",
          "midi": 37,
          "time": 158.73610499999603,
          "velocity": 0.8661417322834646,
          "duration": 0.13736249999999472
        },
        {
          "name": "C#3",
          "midi": 49,
          "time": 158.900939999996,
          "velocity": 0.8661417322834646,
          "duration": 0.13736249999999472
        },
        {
          "name": "E3",
          "midi": 52,
          "time": 158.900939999996,
          "velocity": 0.8661417322834646,
          "duration": 0.13736249999999472
        },
        {
          "name": "C#2",
          "midi": 37,
          "time": 159.065774999996,
          "velocity": 0.8661417322834646,
          "duration": 0.13736249999999472
        },
        {
          "name": "C#3",
          "midi": 49,
          "time": 159.23060999999598,
          "velocity": 0.8661417322834646,
          "duration": 0.13736249999999472
        },
        {
          "name": "E3",
          "midi": 52,
          "time": 159.23060999999598,
          "velocity": 0.8661417322834646,
          "duration": 0.13736249999999472
        },
        {
          "name": "B1",
          "midi": 35,
          "time": 159.39544499999596,
          "velocity": 0.8661417322834646,
          "duration": 0.13736249999999472
        },
        {
          "name": "D#3",
          "midi": 51,
          "time": 159.56027999999594,
          "velocity": 0.8661417322834646,
          "duration": 0.13736249999999472
        },
        {
          "name": "A#1",
          "midi": 34,
          "time": 159.72511499999592,
          "velocity": 0.8661417322834646,
          "duration": 0.13736249999999472
        },
        {
          "name": "D#3",
          "midi": 51,
          "time": 159.8899499999959,
          "velocity": 0.8661417322834646,
          "duration": 0.13736249999999472
        },
        {
          "name": "C#2",
          "midi": 37,
          "time": 160.0547849999959,
          "velocity": 0.8661417322834646,
          "duration": 0.13736249999999472
        },
        {
          "name": "C#3",
          "midi": 49,
          "time": 160.21961999999587,
          "velocity": 0.8661417322834646,
          "duration": 0.13736249999999472
        },
        {
          "name": "F3",
          "midi": 53,
          "time": 160.21961999999587,
          "velocity": 0.8661417322834646,
          "duration": 0.13736249999999472
        },
        {
          "name": "C#2",
          "midi": 37,
          "time": 160.38445499999585,
          "velocity": 0.8661417322834646,
          "duration": 0.13736249999999472
        },
        {
          "name": "C#3",
          "midi": 49,
          "time": 160.54928999999584,
          "velocity": 0.8661417322834646,
          "duration": 0.13736249999999472
        },
        {
          "name": "F3",
          "midi": 53,
          "time": 160.54928999999584,
          "velocity": 0.8661417322834646,
          "duration": 0.13736249999999472
        },
        {
          "name": "D#2",
          "midi": 39,
          "time": 160.71412499999582,
          "velocity": 0.8661417322834646,
          "duration": 0.13736249999999472
        },
        {
          "name": "D#3",
          "midi": 51,
          "time": 160.8789599999958,
          "velocity": 0.8661417322834646,
          "duration": 0.13736249999999472
        },
        {
          "name": "F#3",
          "midi": 54,
          "time": 160.8789599999958,
          "velocity": 0.8661417322834646,
          "duration": 0.13736249999999472
        },
        {
          "name": "D#2",
          "midi": 39,
          "time": 161.04379499999578,
          "velocity": 0.8661417322834646,
          "duration": 0.13736249999999472
        },
        {
          "name": "D#3",
          "midi": 51,
          "time": 161.20862999999576,
          "velocity": 0.8661417322834646,
          "duration": 0.13736249999999472
        },
        {
          "name": "F#3",
          "midi": 54,
          "time": 161.20862999999576,
          "velocity": 0.8661417322834646,
          "duration": 0.13736249999999472
        },
        {
          "name": "D#2",
          "midi": 39,
          "time": 161.37346499999575,
          "velocity": 0.8661417322834646,
          "duration": 0.13736249999999472
        },
        {
          "name": "D#3",
          "midi": 51,
          "time": 161.53829999999573,
          "velocity": 0.8661417322834646,
          "duration": 0.13736249999999472
        },
        {
          "name": "F#3",
          "midi": 54,
          "time": 161.53829999999573,
          "velocity": 0.8661417322834646,
          "duration": 0.13736249999999472
        },
        {
          "name": "D#2",
          "midi": 39,
          "time": 161.7031349999957,
          "velocity": 0.8661417322834646,
          "duration": 0.13736249999999472
        },
        {
          "name": "D#3",
          "midi": 51,
          "time": 161.8679699999957,
          "velocity": 0.8661417322834646,
          "duration": 0.13736249999999472
        },
        {
          "name": "F#3",
          "midi": 54,
          "time": 161.8679699999957,
          "velocity": 0.8661417322834646,
          "duration": 0.13736249999999472
        },
        {
          "name": "B1",
          "midi": 35,
          "time": 162.03280499999568,
          "velocity": 0.8661417322834646,
          "duration": 0.13736249999999472
        },
        {
          "name": "D#3",
          "midi": 51,
          "time": 162.19763999999566,
          "velocity": 0.8661417322834646,
          "duration": 0.13736249999999472
        },
        {
          "name": "A#1",
          "midi": 34,
          "time": 162.36247499999564,
          "velocity": 0.8661417322834646,
          "duration": 0.13736249999999472
        },
        {
          "name": "D#3",
          "midi": 51,
          "time": 162.52730999999562,
          "velocity": 0.8661417322834646,
          "duration": 0.13736249999999472
        },
        {
          "name": "C#2",
          "midi": 37,
          "time": 162.6921449999956,
          "velocity": 0.8661417322834646,
          "duration": 0.13736249999999472
        },
        {
          "name": "C#3",
          "midi": 49,
          "time": 162.8569799999956,
          "velocity": 0.8661417322834646,
          "duration": 0.13736249999999472
        },
        {
          "name": "F3",
          "midi": 53,
          "time": 162.8569799999956,
          "velocity": 0.8661417322834646,
          "duration": 0.13736249999999472
        },
        {
          "name": "C#2",
          "midi": 37,
          "time": 163.02181499999557,
          "velocity": 0.8661417322834646,
          "duration": 0.13736249999999472
        },
        {
          "name": "C#3",
          "midi": 49,
          "time": 163.18664999999555,
          "velocity": 0.8661417322834646,
          "duration": 0.13736249999999472
        },
        {
          "name": "F3",
          "midi": 53,
          "time": 163.18664999999555,
          "velocity": 0.8661417322834646,
          "duration": 0.13736249999999472
        },
        {
          "name": "D#2",
          "midi": 39,
          "time": 163.35148499999553,
          "velocity": 0.8661417322834646,
          "duration": 0.13736249999999472
        },
        {
          "name": "D#3",
          "midi": 51,
          "time": 163.51631999999552,
          "velocity": 0.8661417322834646,
          "duration": 0.13736249999999472
        },
        {
          "name": "F2",
          "midi": 41,
          "time": 163.6811549999955,
          "velocity": 0.8661417322834646,
          "duration": 0.13736249999999472
        },
        {
          "name": "F3",
          "midi": 53,
          "time": 163.84598999999548,
          "velocity": 0.8661417322834646,
          "duration": 0.13736249999999472
        },
        {
          "name": "F#2",
          "midi": 42,
          "time": 164.01082499999546,
          "velocity": 0.8661417322834646,
          "duration": 0.13736249999999472
        },
        {
          "name": "F#3",
          "midi": 54,
          "time": 164.17565999999545,
          "velocity": 0.8661417322834646,
          "duration": 0.13736249999999472
        },
        {
          "name": "G#2",
          "midi": 44,
          "time": 164.34049499999543,
          "velocity": 0.8661417322834646,
          "duration": 0.13736249999999472
        },
        {
          "name": "G#3",
          "midi": 56,
          "time": 164.5053299999954,
          "velocity": 0.8661417322834646,
          "duration": 0.13736249999999472
        },
        {
          "name": "B1",
          "midi": 35,
          "time": 164.6701649999954,
          "velocity": 0.8661417322834646,
          "duration": 0.13736249999999472
        },
        {
          "name": "D#3",
          "midi": 51,
          "time": 164.83499999999538,
          "velocity": 0.8661417322834646,
          "duration": 0.13736249999999472
        },
        {
          "name": "A#1",
          "midi": 34,
          "time": 164.99983499999536,
          "velocity": 0.8661417322834646,
          "duration": 0.13736249999999472
        },
        {
          "name": "D#3",
          "midi": 51,
          "time": 165.16466999999534,
          "velocity": 0.8661417322834646,
          "duration": 0.13736249999999472
        },
        {
          "name": "C#2",
          "midi": 37,
          "time": 165.32950499999532,
          "velocity": 0.8661417322834646,
          "duration": 0.13736249999999472
        },
        {
          "name": "C#3",
          "midi": 49,
          "time": 165.4943399999953,
          "velocity": 0.8661417322834646,
          "duration": 0.13736249999999472
        },
        {
          "name": "F3",
          "midi": 53,
          "time": 165.4943399999953,
          "velocity": 0.8661417322834646,
          "duration": 0.13736249999999472
        },
        {
          "name": "C#2",
          "midi": 37,
          "time": 165.6591749999953,
          "velocity": 0.8661417322834646,
          "duration": 0.13736249999999472
        },
        {
          "name": "C#3",
          "midi": 49,
          "time": 165.82400999999527,
          "velocity": 0.8661417322834646,
          "duration": 0.13736249999999472
        },
        {
          "name": "F3",
          "midi": 53,
          "time": 165.82400999999527,
          "velocity": 0.8661417322834646,
          "duration": 0.13736249999999472
        },
        {
          "name": "D#2",
          "midi": 39,
          "time": 165.98884499999525,
          "velocity": 0.8661417322834646,
          "duration": 0.13736249999999472
        },
        {
          "name": "D#3",
          "midi": 51,
          "time": 166.15367999999523,
          "velocity": 0.8661417322834646,
          "duration": 0.13736249999999472
        },
        {
          "name": "F#3",
          "midi": 54,
          "time": 166.15367999999523,
          "velocity": 0.8661417322834646,
          "duration": 0.13736249999999472
        },
        {
          "name": "D#2",
          "midi": 39,
          "time": 166.31851499999522,
          "velocity": 0.8661417322834646,
          "duration": 0.13736249999999472
        },
        {
          "name": "D#3",
          "midi": 51,
          "time": 166.4833499999952,
          "velocity": 0.8661417322834646,
          "duration": 0.13736249999999472
        },
        {
          "name": "F#3",
          "midi": 54,
          "time": 166.4833499999952,
          "velocity": 0.8661417322834646,
          "duration": 0.13736249999999472
        },
        {
          "name": "D#2",
          "midi": 39,
          "time": 166.64818499999518,
          "velocity": 0.8661417322834646,
          "duration": 0.13736249999999472
        },
        {
          "name": "D#3",
          "midi": 51,
          "time": 166.81301999999516,
          "velocity": 0.8661417322834646,
          "duration": 0.13736249999999472
        },
        {
          "name": "F#3",
          "midi": 54,
          "time": 166.81301999999516,
          "velocity": 0.8661417322834646,
          "duration": 0.13736249999999472
        },
        {
          "name": "D#2",
          "midi": 39,
          "time": 166.97785499999515,
          "velocity": 0.8661417322834646,
          "duration": 0.13736249999999472
        },
        {
          "name": "D#3",
          "midi": 51,
          "time": 167.14268999999513,
          "velocity": 0.8661417322834646,
          "duration": 0.13736249999999472
        },
        {
          "name": "F#3",
          "midi": 54,
          "time": 167.14268999999513,
          "velocity": 0.8661417322834646,
          "duration": 0.13736249999999472
        },
        {
          "name": "A#1",
          "midi": 34,
          "time": 167.3075249999951,
          "velocity": 0.8661417322834646,
          "duration": 0.13736249999999472
        },
        {
          "name": "B2",
          "midi": 47,
          "time": 167.4723599999951,
          "velocity": 0.8661417322834646,
          "duration": 0.13736249999999472
        },
        {
          "name": "B1",
          "midi": 35,
          "time": 167.63719499999507,
          "velocity": 0.8661417322834646,
          "duration": 0.13736249999999472
        },
        {
          "name": "A#2",
          "midi": 46,
          "time": 167.80202999999506,
          "velocity": 0.8661417322834646,
          "duration": 0.13736249999999472
        },
        {
          "name": "C#2",
          "midi": 37,
          "time": 167.96686499999504,
          "velocity": 0.8661417322834646,
          "duration": 0.13736249999999472
        },
        {
          "name": "C#3",
          "midi": 49,
          "time": 168.13169999999502,
          "velocity": 0.8661417322834646,
          "duration": 0.13736249999999472
        },
        {
          "name": "C#2",
          "midi": 37,
          "time": 168.296534999995,
          "velocity": 0.8661417322834646,
          "duration": 0.13736249999999472
        },
        {
          "name": "C#3",
          "midi": 49,
          "time": 168.461369999995,
          "velocity": 0.8661417322834646,
          "duration": 0.13736249999999472
        },
        {
          "name": "D#2",
          "midi": 39,
          "time": 168.62620499999497,
          "velocity": 0.8661417322834646,
          "duration": 0.13736249999999472
        },
        {
          "name": "D#3",
          "midi": 51,
          "time": 168.79103999999495,
          "velocity": 0.8661417322834646,
          "duration": 0.13736249999999472
        },
        {
          "name": "F#3",
          "midi": 54,
          "time": 168.79103999999495,
          "velocity": 0.8661417322834646,
          "duration": 0.13736249999999472
        },
        {
          "name": "D#2",
          "midi": 39,
          "time": 168.95587499999493,
          "velocity": 0.8661417322834646,
          "duration": 0.13736249999999472
        },
        {
          "name": "D#3",
          "midi": 51,
          "time": 169.12070999999492,
          "velocity": 0.8661417322834646,
          "duration": 0.13736249999999472
        },
        {
          "name": "F#3",
          "midi": 54,
          "time": 169.12070999999492,
          "velocity": 0.8661417322834646,
          "duration": 0.13736249999999472
        },
        {
          "name": "D#2",
          "midi": 39,
          "time": 169.2855449999949,
          "velocity": 0.8661417322834646,
          "duration": 0.13736249999999472
        },
        {
          "name": "D#3",
          "midi": 51,
          "time": 169.45037999999488,
          "velocity": 0.8661417322834646,
          "duration": 0.13736249999999472
        },
        {
          "name": "F#3",
          "midi": 54,
          "time": 169.45037999999488,
          "velocity": 0.8661417322834646,
          "duration": 0.13736249999999472
        },
        {
          "name": "D#2",
          "midi": 39,
          "time": 169.61521499999486,
          "velocity": 0.8661417322834646,
          "duration": 0.13736249999999472
        },
        {
          "name": "D#3",
          "midi": 51,
          "time": 169.78004999999484,
          "velocity": 0.8661417322834646,
          "duration": 0.13736249999999472
        },
        {
          "name": "F#3",
          "midi": 54,
          "time": 169.78004999999484,
          "velocity": 0.8661417322834646,
          "duration": 0.13736249999999472
        },
        {
          "name": "B1",
          "midi": 35,
          "time": 169.94488499999483,
          "velocity": 0.8661417322834646,
          "duration": 0.13736249999999472
        },
        {
          "name": "D#3",
          "midi": 51,
          "time": 170.1097199999948,
          "velocity": 0.8661417322834646,
          "duration": 0.13736249999999472
        },
        {
          "name": "A#1",
          "midi": 34,
          "time": 170.2745549999948,
          "velocity": 0.8661417322834646,
          "duration": 0.13736249999999472
        },
        {
          "name": "D#3",
          "midi": 51,
          "time": 170.43938999999477,
          "velocity": 0.8661417322834646,
          "duration": 0.13736249999999472
        },
        {
          "name": "A#1",
          "midi": 34,
          "time": 170.60422499999476,
          "velocity": 0.8661417322834646,
          "duration": 0.13736249999999472
        },
        {
          "name": "D#3",
          "midi": 51,
          "time": 170.76905999999474,
          "velocity": 0.8661417322834646,
          "duration": 0.13736249999999472
        },
        {
          "name": "A#1",
          "midi": 34,
          "time": 170.93389499999472,
          "velocity": 0.8661417322834646,
          "duration": 0.13736249999999472
        },
        {
          "name": "D#3",
          "midi": 51,
          "time": 171.0987299999947,
          "velocity": 0.8661417322834646,
          "duration": 0.13736249999999472
        },
        {
          "name": "C#2",
          "midi": 37,
          "time": 171.26356499999468,
          "velocity": 0.8661417322834646,
          "duration": 0.13736249999999472
        },
        {
          "name": "C#3",
          "midi": 49,
          "time": 171.42839999999467,
          "velocity": 0.8661417322834646,
          "duration": 0.13736249999999472
        },
        {
          "name": "F3",
          "midi": 53,
          "time": 171.42839999999467,
          "velocity": 0.8661417322834646,
          "duration": 0.13736249999999472
        },
        {
          "name": "C#2",
          "midi": 37,
          "time": 171.59323499999465,
          "velocity": 0.8661417322834646,
          "duration": 0.13736249999999472
        },
        {
          "name": "C#3",
          "midi": 49,
          "time": 171.75806999999463,
          "velocity": 0.8661417322834646,
          "duration": 0.13736249999999472
        },
        {
          "name": "F3",
          "midi": 53,
          "time": 171.75806999999463,
          "velocity": 0.8661417322834646,
          "duration": 0.13736249999999472
        },
        {
          "name": "C#2",
          "midi": 37,
          "time": 171.9229049999946,
          "velocity": 0.8661417322834646,
          "duration": 0.13736249999999472
        },
        {
          "name": "C#3",
          "midi": 49,
          "time": 172.0877399999946,
          "velocity": 0.8661417322834646,
          "duration": 0.13736249999999472
        },
        {
          "name": "F3",
          "midi": 53,
          "time": 172.0877399999946,
          "velocity": 0.8661417322834646,
          "duration": 0.13736249999999472
        },
        {
          "name": "C#2",
          "midi": 37,
          "time": 172.25257499999458,
          "velocity": 0.8661417322834646,
          "duration": 0.13736249999999472
        },
        {
          "name": "C#3",
          "midi": 49,
          "time": 172.41740999999456,
          "velocity": 0.8661417322834646,
          "duration": 0.13736249999999472
        },
        {
          "name": "F3",
          "midi": 53,
          "time": 172.41740999999456,
          "velocity": 0.8661417322834646,
          "duration": 0.13736249999999472
        },
        {
          "name": "D#2",
          "midi": 39,
          "time": 172.58224499999454,
          "velocity": 0.8661417322834646,
          "duration": 0.13736249999999472
        },
        {
          "name": "D#3",
          "midi": 51,
          "time": 172.74707999999453,
          "velocity": 0.8661417322834646,
          "duration": 0.13736249999999472
        },
        {
          "name": "F#3",
          "midi": 54,
          "time": 172.74707999999453,
          "velocity": 0.8661417322834646,
          "duration": 0.13736249999999472
        },
        {
          "name": "D#2",
          "midi": 39,
          "time": 172.9119149999945,
          "velocity": 0.8661417322834646,
          "duration": 0.13736249999999472
        },
        {
          "name": "D#3",
          "midi": 51,
          "time": 173.0767499999945,
          "velocity": 0.8661417322834646,
          "duration": 0.13736249999999472
        },
        {
          "name": "F#3",
          "midi": 54,
          "time": 173.0767499999945,
          "velocity": 0.8661417322834646,
          "duration": 0.13736249999999472
        },
        {
          "name": "D#2",
          "midi": 39,
          "time": 173.24158499999447,
          "velocity": 0.8661417322834646,
          "duration": 0.13736249999999472
        },
        {
          "name": "D#3",
          "midi": 51,
          "time": 173.40641999999445,
          "velocity": 0.8661417322834646,
          "duration": 0.13736249999999472
        },
        {
          "name": "F#3",
          "midi": 54,
          "time": 173.40641999999445,
          "velocity": 0.8661417322834646,
          "duration": 0.13736249999999472
        },
        {
          "name": "D#2",
          "midi": 39,
          "time": 173.57125499999444,
          "velocity": 0.8661417322834646,
          "duration": 0.13736249999999472
        },
        {
          "name": "D#3",
          "midi": 51,
          "time": 173.73608999999442,
          "velocity": 0.8661417322834646,
          "duration": 0.13736249999999472
        },
        {
          "name": "F#3",
          "midi": 54,
          "time": 173.73608999999442,
          "velocity": 0.8661417322834646,
          "duration": 0.13736249999999472
        },
        {
          "name": "D#2",
          "midi": 39,
          "time": 173.9009249999944,
          "velocity": 0.8661417322834646,
          "duration": 0.13736249999999472
        },
        {
          "name": "D#3",
          "midi": 51,
          "time": 174.06575999999438,
          "velocity": 0.8661417322834646,
          "duration": 0.13736249999999472
        },
        {
          "name": "F#3",
          "midi": 54,
          "time": 174.06575999999438,
          "velocity": 0.8661417322834646,
          "duration": 0.13736249999999472
        },
        {
          "name": "D#2",
          "midi": 39,
          "time": 174.23059499999437,
          "velocity": 0.8661417322834646,
          "duration": 0.13736249999999472
        },
        {
          "name": "D#3",
          "midi": 51,
          "time": 174.39542999999435,
          "velocity": 0.8661417322834646,
          "duration": 0.13736249999999472
        },
        {
          "name": "F#3",
          "midi": 54,
          "time": 174.39542999999435,
          "velocity": 0.8661417322834646,
          "duration": 0.13736249999999472
        },
        {
          "name": "C#2",
          "midi": 37,
          "time": 174.56026499999433,
          "velocity": 0.8661417322834646,
          "duration": 0.13736249999999472
        },
        {
          "name": "C#3",
          "midi": 49,
          "time": 174.7250999999943,
          "velocity": 0.8661417322834646,
          "duration": 0.13736249999999472
        },
        {
          "name": "F3",
          "midi": 53,
          "time": 174.7250999999943,
          "velocity": 0.8661417322834646,
          "duration": 0.13736249999999472
        },
        {
          "name": "C#2",
          "midi": 37,
          "time": 174.8899349999943,
          "velocity": 0.8661417322834646,
          "duration": 0.13736249999999472
        },
        {
          "name": "C#3",
          "midi": 49,
          "time": 175.05476999999428,
          "velocity": 0.8661417322834646,
          "duration": 0.13736249999999472
        },
        {
          "name": "F3",
          "midi": 53,
          "time": 175.05476999999428,
          "velocity": 0.8661417322834646,
          "duration": 0.13736249999999472
        },
        {
          "name": "B1",
          "midi": 35,
          "time": 175.21960499999426,
          "velocity": 0.8661417322834646,
          "duration": 0.13736249999999472
        },
        {
          "name": "D#3",
          "midi": 51,
          "time": 175.38443999999424,
          "velocity": 0.8661417322834646,
          "duration": 0.13736249999999472
        },
        {
          "name": "A#1",
          "midi": 34,
          "time": 175.54927499999422,
          "velocity": 0.8661417322834646,
          "duration": 0.13736249999999472
        },
        {
          "name": "D#3",
          "midi": 51,
          "time": 175.7141099999942,
          "velocity": 0.8661417322834646,
          "duration": 0.13736249999999472
        },
        {
          "name": "A#1",
          "midi": 34,
          "time": 175.8789449999942,
          "velocity": 0.8661417322834646,
          "duration": 0.13736249999999472
        },
        {
          "name": "D#3",
          "midi": 51,
          "time": 176.04377999999417,
          "velocity": 0.8661417322834646,
          "duration": 0.13736249999999472
        },
        {
          "name": "A#1",
          "midi": 34,
          "time": 176.20861499999415,
          "velocity": 0.8661417322834646,
          "duration": 0.13736249999999472
        },
        {
          "name": "D#3",
          "midi": 51,
          "time": 176.37344999999414,
          "velocity": 0.8661417322834646,
          "duration": 0.13736249999999472
        },
        {
          "name": "C#2",
          "midi": 37,
          "time": 176.53828499999412,
          "velocity": 0.8661417322834646,
          "duration": 0.13736249999999472
        },
        {
          "name": "C#3",
          "midi": 49,
          "time": 176.7031199999941,
          "velocity": 0.8661417322834646,
          "duration": 0.13736249999999472
        },
        {
          "name": "F3",
          "midi": 53,
          "time": 176.7031199999941,
          "velocity": 0.8661417322834646,
          "duration": 0.13736249999999472
        },
        {
          "name": "C#2",
          "midi": 37,
          "time": 176.86795499999408,
          "velocity": 0.8661417322834646,
          "duration": 0.13736249999999472
        },
        {
          "name": "C#3",
          "midi": 49,
          "time": 177.03278999999407,
          "velocity": 0.8661417322834646,
          "duration": 0.13736249999999472
        },
        {
          "name": "F3",
          "midi": 53,
          "time": 177.03278999999407,
          "velocity": 0.8661417322834646,
          "duration": 0.13736249999999472
        },
        {
          "name": "C#2",
          "midi": 37,
          "time": 177.19762499999405,
          "velocity": 0.8661417322834646,
          "duration": 0.13736249999999472
        },
        {
          "name": "C#3",
          "midi": 49,
          "time": 177.36245999999403,
          "velocity": 0.8661417322834646,
          "duration": 0.13736249999999472
        },
        {
          "name": "F3",
          "midi": 53,
          "time": 177.36245999999403,
          "velocity": 0.8661417322834646,
          "duration": 0.13736249999999472
        },
        {
          "name": "C#2",
          "midi": 37,
          "time": 177.527294999994,
          "velocity": 0.8661417322834646,
          "duration": 0.13736249999999472
        },
        {
          "name": "C#3",
          "midi": 49,
          "time": 177.692129999994,
          "velocity": 0.8661417322834646,
          "duration": 0.13736249999999472
        },
        {
          "name": "F3",
          "midi": 53,
          "time": 177.692129999994,
          "velocity": 0.8661417322834646,
          "duration": 0.13736249999999472
        },
        {
          "name": "D#2",
          "midi": 39,
          "time": 177.85696499999398,
          "velocity": 0.8661417322834646,
          "duration": 0.13736249999999472
        },
        {
          "name": "D#3",
          "midi": 51,
          "time": 178.02179999999396,
          "velocity": 0.8661417322834646,
          "duration": 0.13736249999999472
        },
        {
          "name": "F#3",
          "midi": 54,
          "time": 178.02179999999396,
          "velocity": 0.8661417322834646,
          "duration": 0.13736249999999472
        },
        {
          "name": "D#2",
          "midi": 39,
          "time": 178.18663499999394,
          "velocity": 0.8661417322834646,
          "duration": 0.13736249999999472
        },
        {
          "name": "D#3",
          "midi": 51,
          "time": 178.35146999999392,
          "velocity": 0.8661417322834646,
          "duration": 0.13736249999999472
        },
        {
          "name": "F#3",
          "midi": 54,
          "time": 178.35146999999392,
          "velocity": 0.8661417322834646,
          "duration": 0.13736249999999472
        },
        {
          "name": "D#2",
          "midi": 39,
          "time": 178.5163049999939,
          "velocity": 0.8661417322834646,
          "duration": 0.13736249999999472
        },
        {
          "name": "D#3",
          "midi": 51,
          "time": 178.6811399999939,
          "velocity": 0.8661417322834646,
          "duration": 0.13736249999999472
        },
        {
          "name": "F#3",
          "midi": 54,
          "time": 178.6811399999939,
          "velocity": 0.8661417322834646,
          "duration": 0.13736249999999472
        },
        {
          "name": "D#2",
          "midi": 39,
          "time": 178.84597499999387,
          "velocity": 0.8661417322834646,
          "duration": 0.13736249999999472
        },
        {
          "name": "D#3",
          "midi": 51,
          "time": 179.01080999999385,
          "velocity": 0.8661417322834646,
          "duration": 0.13736249999999472
        },
        {
          "name": "F#3",
          "midi": 54,
          "time": 179.01080999999385,
          "velocity": 0.8661417322834646,
          "duration": 0.13736249999999472
        },
        {
          "name": "D#2",
          "midi": 39,
          "time": 179.17564499999384,
          "velocity": 0.8661417322834646,
          "duration": 0.13736249999999472
        },
        {
          "name": "D#3",
          "midi": 51,
          "time": 179.34047999999382,
          "velocity": 0.8661417322834646,
          "duration": 0.13736249999999472
        },
        {
          "name": "F#3",
          "midi": 54,
          "time": 179.34047999999382,
          "velocity": 0.8661417322834646,
          "duration": 0.13736249999999472
        },
        {
          "name": "D#2",
          "midi": 39,
          "time": 179.5053149999938,
          "velocity": 0.8661417322834646,
          "duration": 0.13736249999999472
        },
        {
          "name": "D#3",
          "midi": 51,
          "time": 179.67014999999378,
          "velocity": 0.8661417322834646,
          "duration": 0.13736249999999472
        },
        {
          "name": "F#3",
          "midi": 54,
          "time": 179.67014999999378,
          "velocity": 0.8661417322834646,
          "duration": 0.13736249999999472
        },
        {
          "name": "C#2",
          "midi": 37,
          "time": 179.83498499999376,
          "velocity": 0.8661417322834646,
          "duration": 0.13736249999999472
        },
        {
          "name": "C#3",
          "midi": 49,
          "time": 179.99981999999375,
          "velocity": 0.8661417322834646,
          "duration": 0.13736249999999472
        },
        {
          "name": "F3",
          "midi": 53,
          "time": 179.99981999999375,
          "velocity": 0.8661417322834646,
          "duration": 0.13736249999999472
        },
        {
          "name": "C#2",
          "midi": 37,
          "time": 180.16465499999373,
          "velocity": 0.8661417322834646,
          "duration": 0.13736249999999472
        },
        {
          "name": "C#3",
          "midi": 49,
          "time": 180.3294899999937,
          "velocity": 0.8661417322834646,
          "duration": 0.13736249999999472
        },
        {
          "name": "F3",
          "midi": 53,
          "time": 180.3294899999937,
          "velocity": 0.8661417322834646,
          "duration": 0.13736249999999472
        },
        {
          "name": "B1",
          "midi": 35,
          "time": 180.4943249999937,
          "velocity": 0.8661417322834646,
          "duration": 0.13736249999999472
        },
        {
          "name": "D#3",
          "midi": 51,
          "time": 180.65915999999368,
          "velocity": 0.8661417322834646,
          "duration": 0.13736249999999472
        },
        {
          "name": "A#1",
          "midi": 34,
          "time": 180.82399499999366,
          "velocity": 0.8661417322834646,
          "duration": 0.13736249999999472
        },
        {
          "name": "D#3",
          "midi": 51,
          "time": 180.98882999999364,
          "velocity": 0.8661417322834646,
          "duration": 0.13736249999999472
        },
        {
          "name": "A#1",
          "midi": 34,
          "time": 181.15366499999362,
          "velocity": 0.8661417322834646,
          "duration": 0.13736249999999472
        },
        {
          "name": "D#3",
          "midi": 51,
          "time": 181.3184999999936,
          "velocity": 0.8661417322834646,
          "duration": 0.13736249999999472
        },
        {
          "name": "A#1",
          "midi": 34,
          "time": 181.4833349999936,
          "velocity": 0.8661417322834646,
          "duration": 0.13736249999999472
        },
        {
          "name": "D#3",
          "midi": 51,
          "time": 181.64816999999357,
          "velocity": 0.8661417322834646,
          "duration": 0.13736249999999472
        },
        {
          "name": "C#2",
          "midi": 37,
          "time": 181.81300499999355,
          "velocity": 0.8661417322834646,
          "duration": 0.13736249999999472
        },
        {
          "name": "C#3",
          "midi": 49,
          "time": 181.97783999999353,
          "velocity": 0.8661417322834646,
          "duration": 0.13736249999999472
        },
        {
          "name": "F3",
          "midi": 53,
          "time": 181.97783999999353,
          "velocity": 0.8661417322834646,
          "duration": 0.13736249999999472
        },
        {
          "name": "C#2",
          "midi": 37,
          "time": 182.14267499999352,
          "velocity": 0.8661417322834646,
          "duration": 0.13736249999999472
        },
        {
          "name": "C#3",
          "midi": 49,
          "time": 182.3075099999935,
          "velocity": 0.8661417322834646,
          "duration": 0.13736249999999472
        },
        {
          "name": "F3",
          "midi": 53,
          "time": 182.3075099999935,
          "velocity": 0.8661417322834646,
          "duration": 0.13736249999999472
        },
        {
          "name": "C#2",
          "midi": 37,
          "time": 182.47234499999348,
          "velocity": 0.8661417322834646,
          "duration": 0.13736249999999472
        },
        {
          "name": "C#3",
          "midi": 49,
          "time": 182.63717999999346,
          "velocity": 0.8661417322834646,
          "duration": 0.13736249999999472
        },
        {
          "name": "F3",
          "midi": 53,
          "time": 182.63717999999346,
          "velocity": 0.8661417322834646,
          "duration": 0.13736249999999472
        },
        {
          "name": "C#2",
          "midi": 37,
          "time": 182.80201499999345,
          "velocity": 0.8661417322834646,
          "duration": 0.13736249999999472
        },
        {
          "name": "C#3",
          "midi": 49,
          "time": 182.96684999999343,
          "velocity": 0.8661417322834646,
          "duration": 0.13736249999999472
        },
        {
          "name": "F3",
          "midi": 53,
          "time": 182.96684999999343,
          "velocity": 0.8661417322834646,
          "duration": 0.13736249999999472
        },
        {
          "name": "D#2",
          "midi": 39,
          "time": 183.1316849999934,
          "velocity": 0.8661417322834646,
          "duration": 0.13736249999999472
        },
        {
          "name": "D#3",
          "midi": 51,
          "time": 183.2965199999934,
          "velocity": 0.8661417322834646,
          "duration": 0.13736249999999472
        },
        {
          "name": "F#3",
          "midi": 54,
          "time": 183.2965199999934,
          "velocity": 0.8661417322834646,
          "duration": 0.13736249999999472
        },
        {
          "name": "D#2",
          "midi": 39,
          "time": 183.46135499999338,
          "velocity": 0.8661417322834646,
          "duration": 0.13736249999999472
        },
        {
          "name": "D#3",
          "midi": 51,
          "time": 183.62618999999336,
          "velocity": 0.8661417322834646,
          "duration": 0.13736249999999472
        },
        {
          "name": "F#3",
          "midi": 54,
          "time": 183.62618999999336,
          "velocity": 0.8661417322834646,
          "duration": 0.13736249999999472
        },
        {
          "name": "D#2",
          "midi": 39,
          "time": 183.79102499999334,
          "velocity": 0.8661417322834646,
          "duration": 0.13736249999999472
        },
        {
          "name": "D#3",
          "midi": 51,
          "time": 183.95585999999332,
          "velocity": 0.8661417322834646,
          "duration": 0.13736249999999472
        },
        {
          "name": "F#3",
          "midi": 54,
          "time": 183.95585999999332,
          "velocity": 0.8661417322834646,
          "duration": 0.13736249999999472
        },
        {
          "name": "D#2",
          "midi": 39,
          "time": 184.1206949999933,
          "velocity": 0.8661417322834646,
          "duration": 0.13736249999999472
        },
        {
          "name": "D#3",
          "midi": 51,
          "time": 184.2855299999933,
          "velocity": 0.8661417322834646,
          "duration": 0.13736249999999472
        },
        {
          "name": "F#3",
          "midi": 54,
          "time": 184.2855299999933,
          "velocity": 0.8661417322834646,
          "duration": 0.13736249999999472
        },
        {
          "name": "D#2",
          "midi": 39,
          "time": 184.45036499999327,
          "velocity": 0.8661417322834646,
          "duration": 0.13736249999999472
        },
        {
          "name": "D#3",
          "midi": 51,
          "time": 184.61519999999325,
          "velocity": 0.8661417322834646,
          "duration": 0.13736249999999472
        },
        {
          "name": "F#3",
          "midi": 54,
          "time": 184.61519999999325,
          "velocity": 0.8661417322834646,
          "duration": 0.13736249999999472
        },
        {
          "name": "D#2",
          "midi": 39,
          "time": 184.78003499999323,
          "velocity": 0.8661417322834646,
          "duration": 0.13736249999999472
        },
        {
          "name": "D#3",
          "midi": 51,
          "time": 184.94486999999322,
          "velocity": 0.8661417322834646,
          "duration": 0.13736249999999472
        },
        {
          "name": "F#3",
          "midi": 54,
          "time": 184.94486999999322,
          "velocity": 0.8661417322834646,
          "duration": 0.13736249999999472
        },
        {
          "name": "C#2",
          "midi": 37,
          "time": 185.1097049999932,
          "velocity": 0.8661417322834646,
          "duration": 0.13736249999999472
        },
        {
          "name": "C#3",
          "midi": 49,
          "time": 185.27453999999318,
          "velocity": 0.8661417322834646,
          "duration": 0.13736249999999472
        },
        {
          "name": "F3",
          "midi": 53,
          "time": 185.27453999999318,
          "velocity": 0.8661417322834646,
          "duration": 0.13736249999999472
        },
        {
          "name": "C#2",
          "midi": 37,
          "time": 185.43937499999316,
          "velocity": 0.8661417322834646,
          "duration": 0.13736249999999472
        },
        {
          "name": "C#3",
          "midi": 49,
          "time": 185.60420999999315,
          "velocity": 0.8661417322834646,
          "duration": 0.13736249999999472
        },
        {
          "name": "F3",
          "midi": 53,
          "time": 185.60420999999315,
          "velocity": 0.8661417322834646,
          "duration": 0.13736249999999472
        },
        {
          "name": "B1",
          "midi": 35,
          "time": 185.76904499999313,
          "velocity": 0.8661417322834646,
          "duration": 0.13736249999999472
        },
        {
          "name": "D#3",
          "midi": 51,
          "time": 185.9338799999931,
          "velocity": 0.8661417322834646,
          "duration": 0.13736249999999472
        },
        {
          "name": "A#1",
          "midi": 34,
          "time": 186.0987149999931,
          "velocity": 0.8661417322834646,
          "duration": 0.13736249999999472
        },
        {
          "name": "D#3",
          "midi": 51,
          "time": 186.26354999999307,
          "velocity": 0.8661417322834646,
          "duration": 0.13736249999999472
        },
        {
          "name": "A#1",
          "midi": 34,
          "time": 186.42838499999306,
          "velocity": 0.8661417322834646,
          "duration": 0.13736249999999472
        },
        {
          "name": "D#3",
          "midi": 51,
          "time": 186.59321999999304,
          "velocity": 0.8661417322834646,
          "duration": 0.13736249999999472
        },
        {
          "name": "A#1",
          "midi": 34,
          "time": 186.75805499999302,
          "velocity": 0.8661417322834646,
          "duration": 0.13736249999999472
        },
        {
          "name": "D#3",
          "midi": 51,
          "time": 186.922889999993,
          "velocity": 0.8661417322834646,
          "duration": 0.13736249999999472
        },
        {
          "name": "C#2",
          "midi": 37,
          "time": 187.087724999993,
          "velocity": 0.8661417322834646,
          "duration": 0.13736249999999472
        },
        {
          "name": "C#3",
          "midi": 49,
          "time": 187.25255999999297,
          "velocity": 0.8661417322834646,
          "duration": 0.13736249999999472
        },
        {
          "name": "F3",
          "midi": 53,
          "time": 187.25255999999297,
          "velocity": 0.8661417322834646,
          "duration": 0.13736249999999472
        },
        {
          "name": "C#2",
          "midi": 37,
          "time": 187.41739499999295,
          "velocity": 0.8661417322834646,
          "duration": 0.13736249999999472
        },
        {
          "name": "C#3",
          "midi": 49,
          "time": 187.58222999999293,
          "velocity": 0.8661417322834646,
          "duration": 0.13736249999999472
        },
        {
          "name": "F3",
          "midi": 53,
          "time": 187.58222999999293,
          "velocity": 0.8661417322834646,
          "duration": 0.13736249999999472
        },
        {
          "name": "C#2",
          "midi": 37,
          "time": 187.74706499999292,
          "velocity": 0.8661417322834646,
          "duration": 0.13736249999999472
        },
        {
          "name": "C#3",
          "midi": 49,
          "time": 187.9118999999929,
          "velocity": 0.8661417322834646,
          "duration": 0.13736249999999472
        },
        {
          "name": "F3",
          "midi": 53,
          "time": 187.9118999999929,
          "velocity": 0.8661417322834646,
          "duration": 0.13736249999999472
        },
        {
          "name": "C#2",
          "midi": 37,
          "time": 188.07673499999288,
          "velocity": 0.8661417322834646,
          "duration": 0.13736249999999472
        },
        {
          "name": "D#1",
          "midi": 27,
          "time": 188.40640499999287,
          "velocity": 0.8661417322834646,
          "duration": 0.27472499999998945
        },
        {
          "name": "D#2",
          "midi": 39,
          "time": 188.73607499999287,
          "velocity": 0.8661417322834646,
          "duration": 0.2060437499999921
        },
        {
          "name": "A#2",
          "midi": 46,
          "time": 188.98332749999287,
          "velocity": 0.8661417322834646,
          "duration": 1.8406574999999918
        },
        {
          "name": "D#3",
          "midi": 51,
          "time": 189.06574499999286,
          "velocity": 0.8661417322834646,
          "duration": 1.7582400000000007
        },
        {
          "name": "G3",
          "midi": 55,
          "time": 189.14816249999285,
          "velocity": 0.8661417322834646,
          "duration": 1.6758225000000095
        },
        {
          "name": "E5",
          "midi": 76,
          "time": 192.03277499999285,
          "velocity": 0.8661417322834646,
          "duration": 0.6112631249999936
        },
        {
          "name": "G5",
          "midi": 79,
          "time": 192.05337937499286,
          "velocity": 0.8661417322834646,
          "duration": 0.5906587499999887
        },
        {
          "name": "D5",
          "midi": 74,
          "time": 192.75392812499285,
          "velocity": 0.8661417322834646,
          "duration": 0.5906587500000171
        },
        {
          "name": "F#5",
          "midi": 78,
          "time": 192.77453249999286,
          "velocity": 0.8661417322834646,
          "duration": 0.5700543750000122
        },
        {
          "name": "A5",
          "midi": 81,
          "time": 192.79513687499286,
          "velocity": 0.8661417322834646,
          "duration": 0.5494500000000073
        },
        {
          "name": "C#5",
          "midi": 73,
          "time": 193.45447687499288,
          "velocity": 0.8661417322834646,
          "duration": 0.5906587500000171
        },
        {
          "name": "E5",
          "midi": 76,
          "time": 193.47508124999288,
          "velocity": 0.8661417322834646,
          "duration": 0.5700543750000122
        },
        {
          "name": "G5",
          "midi": 79,
          "time": 193.4956856249929,
          "velocity": 0.8661417322834646,
          "duration": 0.5494500000000073
        },
        {
          "name": "C5",
          "midi": 72,
          "time": 194.1550256249929,
          "velocity": 0.8661417322834646,
          "duration": 0.5906587500000171
        },
        {
          "name": "E5",
          "midi": 76,
          "time": 194.1756299999929,
          "velocity": 0.8661417322834646,
          "duration": 0.5700543750000122
        },
        {
          "name": "G5",
          "midi": 79,
          "time": 194.1962343749929,
          "velocity": 0.8661417322834646,
          "duration": 0.5494500000000073
        },
        {
          "name": "A4",
          "midi": 69,
          "time": 195.18524437499292,
          "velocity": 0.8661417322834646,
          "duration": 0.5906587500000171
        },
        {
          "name": "C5",
          "midi": 72,
          "time": 195.20584874999292,
          "velocity": 0.8661417322834646,
          "duration": 0.5700543750000122
        },
        {
          "name": "E5",
          "midi": 76,
          "time": 195.22645312499293,
          "velocity": 0.8661417322834646,
          "duration": 0.5494500000000073
        },
        {
          "name": "B4",
          "midi": 71,
          "time": 195.88579312499294,
          "velocity": 0.8661417322834646,
          "duration": 0.5906587500000171
        },
        {
          "name": "D5",
          "midi": 74,
          "time": 195.90639749999295,
          "velocity": 0.8661417322834646,
          "duration": 0.5700543750000122
        },
        {
          "name": "F#5",
          "midi": 78,
          "time": 195.92700187499295,
          "velocity": 0.8661417322834646,
          "duration": 0.5494500000000073
        },
        {
          "name": "C5",
          "midi": 72,
          "time": 196.58634187499297,
          "velocity": 0.8661417322834646,
          "duration": 0.5906587500000171
        },
        {
          "name": "E5",
          "midi": 76,
          "time": 196.60694624999297,
          "velocity": 0.8661417322834646,
          "duration": 0.5700543750000122
        },
        {
          "name": "G5",
          "midi": 79,
          "time": 196.62755062499298,
          "velocity": 0.8661417322834646,
          "duration": 0.5494500000000073
        },
        {
          "name": "D5",
          "midi": 74,
          "time": 197.286890624993,
          "velocity": 0.8661417322834646,
          "duration": 0.5906587500000171
        },
        {
          "name": "F#5",
          "midi": 78,
          "time": 197.307494999993,
          "velocity": 0.8661417322834646,
          "duration": 0.5700543750000122
        },
        {
          "name": "A5",
          "midi": 81,
          "time": 197.328099374993,
          "velocity": 0.8661417322834646,
          "duration": 0.5494500000000073
        }
      ],
      "controlChanges": {
        "7": [
          {
            "number": 7,
            "time": 0,
            "value": 1
          }
        ],
        "10": [
          {
            "number": 10,
            "time": 0,
            "value": 0.5039370078740157
          }
        ],
        "64": [
          {
            "number": 64,
            "time": 10.384605,
            "value": 1
          },
          {
            "number": 64,
            "time": 11.703285000000001,
            "value": 0
          },
          {
            "number": 64,
            "time": 192.03277499999285,
            "value": 1
          },
          {
            "number": 64,
            "time": 192.75392812499285,
            "value": 0
          },
          {
            "number": 64,
            "time": 192.75392812499285,
            "value": 1
          },
          {
            "number": 64,
            "time": 193.45447687499288,
            "value": 0
          },
          {
            "number": 64,
            "time": 193.45447687499288,
            "value": 1
          },
          {
            "number": 64,
            "time": 194.1550256249929,
            "value": 0
          },
          {
            "number": 64,
            "time": 194.1550256249929,
            "value": 1
          },
          {
            "number": 64,
            "time": 194.85557437499293,
            "value": 0
          },
          {
            "number": 64,
            "time": 194.85557437499293,
            "value": 1
          },
          {
            "number": 64,
            "time": 195.88579312499294,
            "value": 0
          },
          {
            "number": 64,
            "time": 195.88579312499294,
            "value": 1
          },
          {
            "number": 64,
            "time": 196.58634187499297,
            "value": 0
          },
          {
            "number": 64,
            "time": 196.58634187499297,
            "value": 1
          },
          {
            "number": 64,
            "time": 197.286890624993,
            "value": 0
          },
          {
            "number": 64,
            "time": 197.286890624993,
            "value": 1
          }
        ]
      },
      "id": 2,
      "name": "Left Hand",
      "instrumentNumber": 0,
      "instrument": "acoustic grand piano",
      "instrumentFamily": "piano",
      "channelNumber": 1,
      "isPercussion": false
    }
  ]
};
